<?xml version="1.0" encoding="UTF-8"?>
<svg width="545px" height="636px" viewBox="0 0 545 636" version="1.1" xmlns="http://www.w3.org/2000/svg" xmlns:xlink="http://www.w3.org/1999/xlink">
    <title>2525635C-2F8B-4B72-B4DC-F38BCBEBA017</title>
    <g id="Design-" stroke="none" stroke-width="1" fill="none" fill-rule="evenodd">
        <g id="v2.Summary/10" transform="translate(-425.000000, -290.000000)" fill="#FFFFFF">
            <g id="Icon" transform="translate(425.000000, 290.000000)">
                <path d="M375.800278,526.081756 C374.345583,523.693303 372.320804,521.960119 370.161695,521.154139 C374.91239,516.550879 376.458823,510.656741 374.407833,504.893657 C372.805702,500.39524 369.195174,496.765054 365.194761,495.392267 C371.272374,489.209811 370.875937,481.336763 367.42595,475.783364 C363.802316,469.944924 356.060322,465.754483 348.858924,469.460025 C346.44426,470.705035 342.561796,472.919842 338.915228,475.042911 C339.016794,474.888923 339.124913,474.741487 339.180611,474.574394 L350.998374,460.908774 C355.215026,455.289849 364.97197,441.755283 364.578809,437.437065 C364.126674,432.404605 355.863741,424.580702 350.549516,424.144949 C348.347814,423.977855 343.266209,425.288392 323.427962,437.227379 L322.50731,437.781081 C319.85675,439.350449 308.933428,448.009819 296.280198,458.035423 C288.082792,464.532408 279.305474,471.488081 272.048378,477.093901 C268.709786,468.382109 264.086868,461.475582 262.376618,459.067471 C263.330033,456.046684 266.042844,447.269366 266.809508,442.862686 C268.693404,432.044207 267.782581,424.3317 263.955815,418.594826 C261.904825,415.518342 256.954273,409.991154 246.791063,407.520793 C245.261011,407.153842 243.724407,408.064665 242.944638,408.644578 C242.187803,409.204832 240.903477,410.37121 240.81174,411.904537 C240.090945,423.653497 237.007907,438.757431 234.757061,449.788872 C234.245952,452.295273 233.777435,454.57233 233.403932,456.521753 C232.103224,463.234977 229.947392,467.042085 227.866915,470.724693 C226.081309,473.876533 224.39727,476.851451 223.65354,481.087761 C221.88104,491.228037 222.100554,499.415614 224.403822,509.346204 C226.690709,519.237479 229.757364,542.741951 229.757364,553.232796 C229.757364,561.577638 211.010139,591.398896 203.785806,602.184612 C203.130538,603.160962 203.392645,604.484604 204.372272,605.139872 C205.348621,605.798416 206.675539,605.533033 207.324255,604.556683 C210.056724,600.477638 234.019884,564.37891 234.019884,553.232796 C234.019884,542.296369 230.936847,518.696883 228.55167,508.386236 C226.386009,499.05194 226.186152,491.355814 227.85381,481.821661 C228.466486,478.309423 229.908076,475.766982 231.572457,472.824828 C233.718461,469.027548 236.152782,464.725712 237.581267,457.33101 C237.961323,455.394692 238.42001,453.134017 238.93112,450.640721 C241.188519,439.576516 244.271556,424.456201 245.044773,412.451686 C245.261011,412.199408 245.742633,411.852116 246.050609,411.727615 C254.628071,413.880171 258.726774,418.424457 260.410813,420.957068 C263.598693,425.730698 264.296554,432.457026 262.612515,442.132062 C261.744284,447.102272 258.03219,458.684139 257.992873,458.798811 L257.652134,459.857069 L258.32706,460.738405 C258.389311,460.826866 264.706097,469.233958 268.545969,479.924659 C263.179322,484.147863 256.122083,489.262232 256.036898,489.324483 C255.083482,490.015791 254.87052,491.345985 255.561828,492.299401 C255.977924,492.87276 256.626639,493.180736 257.28846,493.180736 C257.720937,493.180736 258.156691,493.046406 258.53347,492.77447 C258.965947,492.463218 269.116052,485.104555 274.394238,480.671665 C274.404067,480.665113 274.407343,480.652007 274.417173,480.642178 C281.736519,474.997042 290.61868,467.959461 298.927482,461.374015 C310.935273,451.856243 322.277966,442.869239 324.676248,441.444031 L325.623111,440.877224 C345.304093,429.03325 349.353651,428.319007 350.2055,428.391087 C353.776712,428.682681 360.080393,434.986362 360.335947,437.794186 C360.319565,440.01227 353.711185,450.195138 347.685993,458.238556 L333.345447,474.813567 L323.735938,484.855553 C322.923406,485.704126 322.952893,487.053978 323.804742,487.866511 C324.217561,488.262948 324.748328,488.456252 325.275819,488.456252 C325.836073,488.456252 326.396327,488.236737 326.815699,487.797708 L332.837615,481.503856 C334.488891,482.555562 336.618512,481.326934 337.358966,480.89118 C341.739434,478.309423 347.627019,474.888923 350.811623,473.247476 C355.798214,470.682101 361.128822,473.70944 363.808869,478.030934 C366.570825,482.476929 367.045894,489.04927 360.113156,494.166915 L360.070564,494.209508 C360.057458,494.219337 360.041076,494.222613 360.031247,494.232442 L345.749676,505.90277 C344.838853,506.646499 344.704523,507.989799 345.448252,508.897346 C345.867624,509.415008 346.483576,509.680391 347.096252,509.680391 C347.574598,509.680391 348.049667,509.523127 348.442828,509.202045 L361.066571,498.884847 C361.3811,498.983137 361.741498,499.05194 362.164146,499.074874 C365.450316,499.255073 368.988765,502.370874 370.397591,506.322141 C371.28548,508.828543 372.006275,513.739778 366.796892,518.474091 L366.4496,518.883634 C366.302165,519.106425 366.187493,519.303006 366.062992,519.509415 C365.915556,519.574942 365.764845,519.620811 365.630515,519.725654 L359.136806,524.774496 C358.209602,525.498567 358.042508,526.835314 358.76658,527.762519 C359.185951,528.303115 359.811733,528.584881 360.444066,528.584881 C360.902754,528.584881 361.364718,528.440722 361.754603,528.136022 L366.013847,524.823641 L366.102308,524.951418 L367.396463,524.915378 C369.057568,524.820365 370.879214,526.193152 372.163539,528.296563 C373.673933,530.780029 373.949145,533.650104 372.8614,535.60608 C366.1449,547.699056 337.88318,580.885117 327.064701,590.311151 C317.320862,598.803428 293.51169,605.621494 288.302307,606.597844 L287.447182,606.758384 L286.949178,607.469351 C285.062005,610.172332 271.268609,631.245759 270.682143,632.140201 C270.039981,633.123103 270.315193,634.443469 271.298096,635.088908 C271.658493,635.324804 272.061483,635.4362 272.461197,635.4362 C273.155781,635.4362 273.83726,635.095461 274.246803,634.472956 C274.381133,634.266546 286.916415,615.113055 289.973241,610.591704 C295.638035,609.290996 319.306325,602.728485 329.862697,593.521966 C340.183172,584.528409 369.090331,551.165425 376.583324,537.676728 C378.43118,534.351241 378.129757,529.908523 375.800278,526.081756" id="Fill-24" opacity="0.2"></path>
                <g id="Face" transform="translate(147.250212, 38.978020)">
                    <path d="M221.168077,59.1319903 C202.37191,38.7689244 177.615578,28.4452466 147.586668,28.4452466 L147.199901,28.4452466 L147.199901,384.286517 L147.226347,384.296434 L229.43892,346.515675 C244.661634,314.559545 255.077871,272.316101 259.071148,222.439812 C264.879249,149.899695 251.418469,91.9013202 221.168077,59.1319903" id="Fill-1" opacity="0.25"></path>
                    <path d="M147.199901,28.4445855 L147.163539,28.4445855 C117.134628,28.4445855 92.3816025,38.7682632 73.5821292,59.1313291 C43.3350427,91.8973533 29.8742628,149.899034 35.6856702,222.442456 C39.6062215,271.442737 49.7348634,313.0581 64.521226,344.805971 L147.199901,384.289162 L147.199901,28.4445855 Z" id="Fill-3" opacity="0.15"></path>
                    <path d="M22.6685142,242.168515 C13.3200158,232.820017 8.02760207,225.355763 5.06239588,210.513204 C3.14178853,200.930001 4.47067692,188.923726 11.9217078,185.201516 C17.3033753,182.523905 25.5609952,190.467484 30.9823309,198.986254 C31.3162058,199.515165 31.8418109,199.829206 32.4103901,199.934988 C32.7971561,214.400698 35.5045182,235.633161 38.8697132,256.697034 C35.3260109,253.788025 28.6385949,248.138596 22.6685142,242.168515" id="Fill-7" opacity="0.15"></path>
                    <path d="M289.715909,210.512543 C291.633211,200.932646 290.304322,188.919759 282.856597,185.200855 C277.498069,182.510021 269.21731,190.466823 263.795974,198.988899 C263.465405,199.514504 262.936494,199.83185 262.367915,199.934327 C261.977843,214.400037 259.277092,235.635806 255.905286,256.696373 C259.452294,253.787363 266.136404,248.141241 272.106485,242.167854 C281.458289,232.819356 286.750703,225.358408 289.715909,210.512543" id="Fill-9" opacity="0.25"></path>
                    <path d="M103.803101,0.369008412 C116.35151,-1.29706062 127.580947,3.0697592 145.124257,5.66472782 C143.772229,5.46638627 139.210373,10.0315476 137.934376,12.9868367 C144.972195,11.5422491 165.507157,10.1075786 185.014049,16.3189748 C192.273349,18.6296539 195.545985,22.9997794 206.537413,26.0906019 C199.98553,26.6823208 196.299683,27.9087328 192.660116,29.7500035 C237.260519,32.6391787 252.023742,62.6284212 256.188914,80.3204876 C261.322655,80.3568502 267.709253,83.9964176 272.046321,92.8688964 C279.685777,108.52135 280.776655,170.205573 279.32215,180.397023 C279.315539,180.443302 279.292399,180.482971 279.285788,180.52925 C281.170033,180.278018 283.034443,180.499499 284.812906,181.388731 C294.323383,186.145622 296.26713,199.880774 293.966368,211.38789 C290.796209,227.215546 284.921994,235.496306 275.180118,245.241487 C267.540662,252.880943 258.764049,259.994793 256.578986,261.740198 L256.578986,261.740198 L256.29622,263.444519 C251.659929,291.249854 246.179145,317.380425 243.742982,325.421059 C235.743206,351.830237 227.974829,373.165176 211.707516,388.635817 C209.129076,386.447449 206.236595,384.794602 203.889553,384.602872 C201.635071,384.414448 196.527776,385.759865 176.505196,397.815725 L176.505196,397.815725 L175.602742,398.357859 C173.414374,399.656996 165.642691,405.736164 155.90412,413.438428 C153.295929,413.778914 150.783603,414.04337 148.509286,414.139235 L148.509286,414.139235 L147.788645,414.139235 C139.712839,413.785526 129.250322,411.940949 118.334925,408.175765 C118.787805,406.417137 119.181182,404.764291 119.402664,403.488293 C121.300131,392.572897 120.38776,384.791297 116.526711,379.003029 C114.457348,375.898984 109.455835,370.32228 99.2015767,367.829788 C97.6677354,367.466162 96.1140599,368.381839 95.3273051,368.960335 C94.5603844,369.525609 93.264553,370.705741 93.1686879,372.249499 C92.7720048,378.765019 91.6447637,386.292081 90.3423208,393.604273 C70.0222289,377.882399 61.4472625,354.775609 52.5549497,325.421059 C50.289228,317.945698 45.3934445,294.835459 40.9925603,269.280046 L40.7062799,267.610057 C40.4207653,265.936873 40.1376446,264.254508 39.8577847,262.566622 C39.4776301,262.523648 39.1040868,262.404643 38.7768233,262.150104 C38.6847096,262.078791 30.3848297,255.549169 22.349732,247.869488 L21.7477286,247.291438 L21.7477286,247.291438 L21.1475123,246.709574 C20.9478264,246.515038 20.7485707,246.31995 20.5498776,246.124392 L19.9556187,245.53639 L19.9556187,245.53639 L19.6600035,245.241487 C9.924739,235.502917 4.04060632,227.222157 0.877058587,211.391196 C-1.42039771,199.88408 0.516738103,186.145622 10.0272155,181.388731 C12.1593871,180.317686 14.4105637,180.182153 16.6881859,180.714369 L16.6881859,180.714369 L15.8386229,165.842059 C14.3808125,150.556536 14.3808125,130.900889 18.750938,110.521294 C21.8483719,96.0522782 33.4811039,79.2263033 41.7916148,76.9255414 C38.3107206,49.3957341 49.4310702,27.0790039 68.4255794,13.1719555 C74.1973186,8.94728049 87.4101715,2.54415409 103.803101,0.369008412 Z M241.786012,96.8324217 C232.698663,87.2954988 199.764049,65.0977735 173.216032,76.2346516 C163.678316,80.2358618 153.12373,85.3349547 142.600916,90.4436621 L140.744492,91.345077 C120.950706,100.956508 101.488058,110.375183 89.350613,112.342731 C78.299683,114.131111 60.6968703,114.336064 50.0822917,99.9860523 C39.7024172,127.753869 35.0612249,162.572729 36.6314288,202.488966 C40.9486632,231.182377 50.0855974,266.192966 57.3415924,283.666857 C64.9248511,301.920891 76.7559246,321.077379 89.2745821,329.701931 C96.1570339,334.438988 104.94687,338.997538 108.530241,351.182321 C110.404569,357.19207 113.905297,362.186971 116.169696,364.28278 C120.903448,368.6496 126.728078,369.376852 133.458468,368.831413 C140.53265,368.256223 143.828426,359.91596 140.55579,352.63352 L140.55579,352.63352 L155.742142,352.63352 C152.469506,359.91596 155.765281,368.256223 162.836158,368.831413 C169.573159,369.376852 175.394484,368.6496 180.124929,364.28278 C182.392635,362.186971 185.893363,357.19207 187.767691,351.182321 C191.351061,338.997538 200.144203,334.438988 207.020044,329.701931 C219.542007,321.077379 231.373081,301.920891 238.956339,283.666857 C244.354535,270.668874 250.787413,247.968683 255.511247,225.384192 C255.689755,223.397471 255.888096,221.427278 256.050075,219.414112 C259.835093,172.116263 255.345963,131.171956 243.37605,99.4670586 C242.820694,98.495185 242.271949,97.6224822 241.749649,96.9679551 C241.759566,96.9183697 241.772789,96.8787014 241.786012,96.8324217 Z M158.253476,295.004721 L159.195635,295.006997 L159.195635,295.006997 L160.135549,295.014631 C169.679003,295.123566 178.832022,296.250357 186.302277,304.105293 C190.156715,308.158072 193.125226,311.744748 196.348277,318.448692 C193.64422,318.610671 190.626123,318.253657 187.386544,317.972673 C184.920498,317.757803 179.998321,316.696675 176.586847,313.242227 C177.059561,315.152917 177.912429,316.243796 178.10416,316.789235 C173.64478,316.326438 169.37052,315.31159 167.297851,312.786041 C167.297851,314.240546 167.58214,314.971104 167.727591,315.747942 C164.646685,315.152917 160.382342,312.97116 158.108026,310.875351 C158.012161,311.876976 158.392315,312.97116 158.544377,314.210795 C155.688259,313.496765 153.089984,312.220768 150.385928,309.199365 C148.462015,307.050665 147.705011,301.133475 147.420722,297.655886 C147.136432,301.133475 146.379429,307.050665 144.455516,309.199365 C141.748153,312.220768 139.15649,313.496765 136.297066,314.210795 C136.449128,312.97116 136.832589,311.876976 136.733418,310.875351 C134.462407,312.97116 130.198064,315.152917 127.113853,315.747942 C127.259303,314.971104 127.543593,314.240546 127.543593,312.786041 C125.470923,315.31159 121.196663,316.326438 116.737284,316.789235 C116.929014,316.243796 117.781883,315.152917 118.254597,313.242227 C114.843122,316.696675 109.920946,317.757803 107.451594,317.972673 C104.215321,318.253657 101.197223,318.610671 98.4931668,318.448692 C101.712911,311.744748 104.684729,308.158072 108.539166,304.105293 C116.009421,296.250357 125.16244,295.123566 134.705894,295.014631 L135.645808,295.006997 L135.645808,295.006997 L136.587967,295.004721 L158.253476,295.004721 L158.253476,295.004721 Z M123.690477,282.267227 C126.791217,281.705259 129.634113,282.87878 131.786118,283.956436 C133.210872,284.670465 134.51662,285.523334 135.779395,286.349757 C138.959471,288.432343 141.964346,290.39923 147.14106,290.39923 L147.14106,290.39923 L147.693111,290.39923 C152.876437,290.39923 155.881311,288.432343 159.064693,286.349757 C160.324162,285.523334 161.626605,284.670465 163.05797,283.956436 C165.203364,282.87878 168.059482,281.708565 171.150305,282.267227 C172.317214,282.475485 173.094052,283.592809 172.882488,284.763025 C172.674229,285.929934 171.573434,286.706772 170.38669,286.495207 C168.961936,286.240669 167.292562,286.640658 164.978577,287.800956 C163.771999,288.402592 162.62823,289.152984 161.418346,289.943045 C158.013483,292.171081 154.15574,294.696631 147.693111,294.696631 L147.693111,294.696631 L147.14106,294.696631 C140.681737,294.696631 136.823994,292.174387 133.425742,289.94635 C132.212553,289.152984 131.068783,288.402592 129.865511,287.800956 C127.548221,286.640658 125.872235,286.240669 124.450787,286.495207 C123.280572,286.706772 122.166553,285.929934 121.954989,284.763025 C121.74673,283.592809 122.520262,282.475485 123.690477,282.267227 Z M31.0117515,199.017989 C25.5937215,190.502525 17.3294902,182.545723 11.9511285,185.229945 C4.50670897,188.955461 3.17782058,200.965042 5.09512224,210.548244 C8.05702273,225.387498 13.3527421,232.851752 22.7012406,242.20025 C28.6713212,248.173636 35.3620429,253.823065 38.9057453,256.728769 C35.5372446,235.664896 32.8331881,214.425822 32.4497278,199.963417 C31.877843,199.864246 31.3489322,199.546899 31.0117515,199.017989 Z M282.888993,185.229945 C277.553605,182.542417 269.305902,190.446328 263.881261,198.928735 C263.603583,213.093627 260.962334,234.230225 257.613668,255.337072 C261.359017,252.213193 267.008446,247.330685 272.138881,242.20025 C281.49399,232.848446 286.783098,225.384192 289.75161,210.544938 C291.668912,200.965042 290.333412,188.955461 282.888993,185.229945 Z" id="Combined-Shape"></path>
                </g>
                <path d="M95.2424026,301.415069 L119.816914,337.313771 C120.903542,338.898285 120.405655,341.140591 118.704846,342.303538 L118.704846,342.303538 L115.742967,344.331426 L144.936556,387.055169 C144.961995,387.091511 144.983801,387.127853 145.001972,387.164195 L145.001972,387.164195 L184.069702,454.993044 C184.600297,455.887059 184.345828,457.042737 183.480961,457.631479 L183.480961,457.631479 L163.85624,471.067144 C162.998567,471.65952 161.824718,471.477809 161.181463,470.656478 L161.181463,470.656478 L112.086954,409.696282 C112.061515,409.663574 112.036075,409.627232 112.010636,409.59089 L112.010636,409.59089 L82.7807051,366.888952 L79.8406312,368.905937 C79.1792055,369.360213 78.4014851,369.60007 77.6273989,369.60007 C77.4057122,369.60007 77.1767571,369.581899 76.9587047,369.538289 C76.0574212,369.367481 75.2906035,368.86596 74.7854486,368.135485 L74.7854486,368.135485 L50.2109375,332.244051 L52.8457379,330.43785 L65.7399061,349.270314 L69.1306217,346.948055 L67.0009761,343.837173 C66.9973419,343.829905 66.9973419,343.822637 66.9900735,343.815368 L66.9900735,343.815368 L60.9536549,334.991512 L60.9100444,334.966073 L56.2146483,328.115592 L58.609591,326.531077 L62.7235139,332.531154 L67.8259412,329.035046 L63.7156526,323.03497 L66.350453,321.232403 L70.4607417,327.232479 L75.563169,323.740006 L71.4528803,317.736295 L74.0876808,315.933728 L78.1979694,321.937439 L83.304031,318.441331 L79.1937423,312.437621 L81.8321769,310.635054 L85.9388314,316.638764 L91.0412588,313.146291 L86.9309701,307.138946 L89.2532287,305.627116 L93.9449905,312.484865 L93.9231853,312.423084 L99.9668724,321.250574 C99.9705066,321.257842 99.977775,321.257842 99.9814092,321.265111 L99.9814092,321.265111 L102.107421,324.375992 L105.498136,322.053734 L92.6076022,303.217636 L95.2424026,301.415069 Z M113.039117,358.639301 C112.235957,357.465452 110.629637,357.167447 109.459422,357.966972 L109.459422,357.966972 L97.7863479,365.958594 C96.6124988,366.75812 96.3144938,368.36444 97.1176537,369.538289 L97.1176537,369.538289 L121.194278,404.713783 C121.997438,405.883998 123.603758,406.185637 124.773973,405.378843 L124.773973,405.378843 L136.447047,397.394489 C137.617262,396.587695 137.918901,394.98501 137.119376,393.814795 L137.119376,393.814795 Z M109.223926,361.740733 C110.045257,361.177431 111.171861,361.384581 111.735163,362.209546 L111.735163,362.209546 L123.190185,378.945072 C123.757121,379.770037 123.546337,380.896641 122.717738,381.459943 L122.717738,381.459943 L114.886021,386.820399 C114.06469,387.383701 112.938086,387.172917 112.374784,386.351586 L112.374784,386.351586 L100.916127,369.616061 C100.356459,368.791096 100.567243,367.668126 101.388574,367.104823 L101.388574,367.104823 Z M92.5094786,316.006412 L64.8059148,334.973341 L68.5200749,340.395579 L96.2272729,321.435918 L92.5094786,316.006412 Z" id="Combined-Shape" transform="translate(117.278374, 386.415069) rotate(16.000000) translate(-117.278374, -386.415069) "></path>
                <path d="M485.032523,388.869539 C486.053865,388.869539 486.879715,389.695389 486.879715,390.71673 L486.879715,390.71673 L484.007192,469.539548 C484.007192,470.56089 483.177352,471.39073 482.156011,471.39073 L482.156011,471.39073 L473.315025,471.39073 C472.297673,471.39073 471.467833,470.56089 471.467833,469.539548 L471.467833,469.539548 L468.595311,390.71673 C468.595311,389.695389 469.42515,388.869539 470.446492,388.869539 L470.446492,388.869539 Z M513.160504,341.39073 L513.160504,351.033628 C513.160504,358.593948 507.012508,364.741945 499.452188,364.741945 L499.452188,364.741945 L494.018332,364.741945 L495.658064,367.578561 C496.124849,368.392442 496.124849,369.393835 495.658064,370.207717 L495.658064,370.207717 L487.926191,383.588885 C487.459406,384.402766 486.58967,384.905458 485.65211,384.905458 L485.65211,384.905458 L470.196343,384.905458 C469.258783,384.905458 468.389047,384.402766 467.922262,383.588885 L467.922262,383.588885 L460.194379,370.207717 C459.723604,369.393835 459.723604,368.392442 460.194379,367.578561 L460.194379,367.578561 L461.830121,364.741945 L458.203561,364.741945 C450.65521,364.741945 444.511203,358.597938 444.511203,351.041608 L444.511203,351.041608 L444.511203,341.39073 L513.160504,341.39073 Z M510.287981,350.774304 L447.379736,350.774304 L447.379736,351.041608 C447.379736,357.010071 452.235097,361.869422 458.203561,361.869422 L458.203561,361.869422 L463.489801,361.869422 L467.922262,354.193403 C468.389047,353.379522 469.258783,352.88082 470.196343,352.88082 L470.196343,352.88082 L485.65211,352.88082 C486.58967,352.88082 487.459406,353.379522 487.926191,354.193403 L487.926191,354.193403 L492.358653,361.869422 L499.452188,361.869422 C505.428631,361.869422 510.287981,357.006082 510.287981,351.033628 L510.287981,351.033628 L510.287981,350.774304 Z M510.287981,344.267242 L447.379736,344.267242 L447.379736,347.901781 L510.287981,347.901781 L510.287981,344.267242 Z" id="Combined-Shape" transform="translate(478.835854, 406.390730) rotate(36.000000) translate(-478.835854, -406.390730) "></path>
                <path d="M506.488167,173.904156 L498.13826,173.904156 L498.13826,173.938265 L473.259085,173.938265 L473.259085,177.349175 L496.3373,177.349175 L496.3373,181.172804 L473.293194,181.172804 L473.293194,182.878259 L496.3373,182.878259 L496.3373,188.260675 L473.293194,188.260675 L473.293194,189.96613 L496.3373,189.96613 L496.3373,195.348545 L473.293194,195.348545 L473.293194,197.054 L496.3373,197.054 L496.3373,202.436415 L473.293194,202.436415 L473.293194,204.14187 L496.3373,204.14187 L496.3373,209.524286 L473.293194,209.524286 L473.293194,211.22974 L496.3373,211.22974 L496.3373,216.612156 L473.293194,216.612156 L473.293194,218.317611 L496.3373,218.317611 L496.3373,223.700026 L473.293194,223.700026 L473.293194,225.405481 L496.3373,225.405481 L496.3373,230.787896 L473.293194,230.787896 L473.293194,232.493351 L496.3373,232.493351 L496.3373,237.875767 L473.293194,237.875767 L473.293194,239.581221 L496.3373,239.581221 L496.3373,244.963637 L473.293194,244.963637 L473.293194,246.669092 L496.3373,246.669092 L496.3373,252.051507 L473.293194,252.051507 L473.293194,253.756962 L496.3373,253.756962 L496.3373,259.135967 L473.293194,259.135967 L473.293194,260.841421 L496.3373,260.841421 L496.3373,266.223837 L473.293194,266.223837 L473.293194,267.929292 L496.3373,267.929292 L496.3373,273.315118 L473.293194,273.315118 L473.293194,275.020573 L496.3373,275.020573 L496.3373,280.402988 L473.293194,280.402988 L473.293194,282.108443 L496.3373,282.108443 L496.3373,287.490859 L473.293194,287.490859 L473.293194,289.196313 L496.3373,289.196313 L496.3373,294.578729 L473.293194,294.578729 L473.293194,296.284184 L496.3373,296.284184 L496.3373,300.483014 L473.259085,300.483014 L473.259085,303.893923 L498.13826,303.893923 L498.13826,303.904156 L506.488167,303.904156 C507.432989,303.904156 508.203855,303.136701 508.203855,302.188468 L508.203855,175.619843 C508.203855,174.675022 507.432989,173.904156 506.488167,173.904156" id="Fill-21" transform="translate(490.731470, 238.904156) rotate(-15.000000) translate(-490.731470, -238.904156) "></path>
                <path d="M484.700773,133.515498 C481.168092,126.995014 482.979538,119.179094 488.745854,116.054169 C494.515779,112.929244 502.053848,115.682498 505.58292,122.199373 C509.115601,128.719857 507.304155,136.535778 501.537839,139.660703 C495.767914,142.782019 488.233453,140.035982 484.700773,133.515498 M466.766735,74.0517151 C467.365739,73.2470289 468.502404,73.0774313 469.303481,73.6764354 C470.111776,74.2754395 470.277765,75.4121038 469.678761,76.21679 C469.079757,77.0214762 467.939484,77.1874653 467.138406,76.5920697 C466.33372,75.9930656 466.167731,74.8527928 466.766735,74.0517151 M513.312238,83.0692522 C514.650976,76.6461965 521.618909,72.673284 528.875518,74.1888365 C536.135736,75.7043889 540.931377,82.1346615 539.592639,88.5541087 C538.250293,94.9735559 531.278751,98.9500768 524.022142,97.4345244 C516.765532,95.9189719 511.969891,89.4886994 513.312238,83.0692522 M501.895076,143.110389 L504.568944,148.194706 L504.565335,148.194706 L503.984373,150.576289 L509.721822,147.556009 L507.434059,146.686371 L507.430451,146.686371 L504.702456,141.497408 C510.652804,137.055396 512.27661,128.120853 508.177402,120.557525 C505.287027,115.227832 500.267661,111.911659 495.118391,111.312655 C495.118391,111.312655 489.640752,110.172382 487.583931,108.364544 C486.465309,107.386652 486.140547,106.978896 485.512676,105.838624 L472.154163,83.1486382 L474.506878,79.8144228 L477.02919,76.6065035 L502.595117,82.8996546 C503.868903,83.1738975 504.348828,83.3687542 505.608179,84.1553981 C507.928418,85.6096068 510.59146,90.5279353 510.59146,90.5279353 C512.641065,95.2911002 517.256283,99.1521505 523.195805,100.389852 C532.33603,102.302335 541.115408,97.290186 542.807775,89.2036312 C544.492925,81.1170763 538.452366,73.0124791 529.308533,71.1036047 C524.628363,70.129321 520.056446,70.9700917 516.469639,73.1026905 C516.137661,73.2217697 515.430403,73.8604668 514.881917,74.2970902 C508.902702,79.067472 504.868446,79.366974 500.314571,78.4901187 L475.336823,72.3413059 L420.942924,0.57628866 L420.15628,1.20416039 L459.253925,68.4586048 L383.617032,50.2791923 L383.241753,51.206566 L467.585855,82.7517078 L480.637649,104.918467 C482.784681,109.028501 483.65432,112.979762 480.796421,120.0776 C480.533003,120.727122 480.125247,121.585935 480.107205,121.939564 C479.093228,125.984646 479.598413,130.610689 481.87535,134.810935 C486.08642,142.583554 494.815281,146.090975 501.895076,143.110389" id="Fill-23"></path>
                <path d="M53.9405857,218.173421 C66.4158391,218.610735 75.6112414,230.317735 77.9307757,241.10874 L77.9307757,241.10874 L78.0401041,241.631744 L67.984849,260.852853 L67.984849,278.567004 L68.0350809,278.555184 L72.1215981,306.82691 L72.0861402,306.82691 C72.1097788,307.057386 72.1452366,307.284907 72.1452366,307.521292 C72.1452366,313.404341 63.7210426,318.173421 53.3289378,318.173421 C42.9368331,318.173421 34.512639,313.404341 34.512639,307.521292 C34.512639,307.284907 34.5480969,307.057386 34.5746903,306.82691 L34.5746903,306.82691 L34.5362776,306.82691 L38.6227948,278.555184 L38.6818912,278.567004 L38.6818912,260.852853 L28.6295909,241.631744 L28.7389192,241.111695 C31.4455351,228.50052 41.6928536,218.643238 52.5725037,218.179331 C52.6611483,218.175785 52.8708224,218.174603 53.1012984,218.174272 Z M65.0300282,263.287625 C58.0714252,265.929235 48.6012246,265.923325 41.636712,263.287625 L41.636712,263.287625 L41.636712,276.932988 C48.3441552,279.86417 58.3284946,279.86417 65.0300282,276.932988 L65.0300282,276.932988 Z M53.64863,221.124392 L53.3559447,221.12414 C53.0904364,221.125214 52.7996966,221.129227 52.699561,221.134152 C41.9794712,221.592149 33.9866809,231.721275 31.743972,241.215114 L31.743972,241.215114 L41.58648,260.025503 C48.34711,262.989188 58.322585,262.989188 65.0802601,260.025503 L65.0802601,260.025503 L74.925723,241.215114 C72.6682399,231.659223 64.6222629,221.503504 53.8342122,221.128242 C53.799411,221.126272 53.7329457,221.125032 53.64863,221.124392 Z M38.3033786,237.548772 L45.1408339,258.353665 L43.7372941,258.814618 L36.9027936,238.009724 L38.3033786,237.548772 Z M68.3660208,237.548772 L69.7666059,238.009724 L62.9291506,258.814618 L61.5256107,258.353665 L68.3660208,237.548772 Z M46.0488504,235.45144 L49.467578,257.455991 L48.0078966,257.680557 L44.5891689,235.676007 L46.0488504,235.45144 Z M60.6175943,235.45144 L62.0772757,235.676007 L58.6615029,257.680557 L57.2018214,257.455991 L60.6175943,235.45144 Z M54.0794623,234.074494 L54.0794623,257.281656 L52.6020519,257.281656 L52.6020519,234.074494 L54.0794623,234.074494 Z" id="Combined-Shape" transform="translate(53.334847, 268.173421) rotate(44.000000) translate(-53.334847, -268.173421) "></path>
                <path d="M126.854445,33.6100922 L108.132879,155.260702 L107.85088,155.311202 L107.851484,182.265836 L106.620381,182.868197 C100.829797,185.695338 93.5267158,187.256202 86.0477622,187.256202 C78.5688087,187.256202 71.265727,185.695338 65.4751439,182.868197 L65.4751439,182.868197 L64.2440405,182.265836 L64.2438802,155.312202 L63.9626454,155.260702 L45.2366823,33.6100922 L126.854445,33.6100922 Z M103.454686,175.565116 C98.2576705,177.548071 92.2384539,178.664858 86.0477622,178.664858 C79.8570705,178.664858 73.8378539,177.548071 68.6408386,175.565116 L68.6408386,175.565116 L68.6408386,179.487059 C78.6215702,183.848683 93.4739542,183.848683 103.454686,179.487059 L103.454686,179.487059 Z M103.454686,159.182646 C93.0914328,163.10459 79.0040917,163.10459 68.6408386,159.182646 L68.6408386,159.182646 L68.6408386,170.816574 C78.6787286,175.182594 93.4167958,175.182594 103.454686,170.816574 L103.454686,170.816574 Z M86.0477622,56.0953177 C73.8334571,56.0953177 63.9318678,65.996907 63.9318678,78.2156089 C63.9318678,90.429914 73.8334571,100.331503 86.0477622,100.331503 C98.2620673,100.331503 108.163657,90.429914 108.163657,78.2156089 C108.163657,65.996907 98.2620673,56.0953177 86.0477622,56.0953177 Z M88.1428365,17.2562017 L129.327644,17.5507871 L127.533751,29.2154925 L44.5617738,29.2154925 L42.7678802,17.5507871 L83.9482911,17.2562017 L88.1428365,17.2562017 Z" id="Combined-Shape" transform="translate(86.047762, 102.256202) rotate(14.000000) translate(-86.047762, -102.256202) "></path>
            </g>
        </g>
    </g>
</svg>