<?xml version="1.0" encoding="UTF-8"?>
<svg width="295px" height="469px" viewBox="0 0 295 469" version="1.1" xmlns="http://www.w3.org/2000/svg" xmlns:xlink="http://www.w3.org/1999/xlink">
    <title>07BB0A74-842C-4FF2-9DE3-F72286173B7B</title>
    <g id="Design-" stroke="none" stroke-width="1" fill="none" fill-rule="evenodd">
        <g id="v2.Summary/2" transform="translate(-571.000000, -313.000000)" fill="#FFFFFF">
            <g id="Group-32" transform="translate(571.000000, 313.000000)">
                <path d="M221.49626,372.440703 C222.680922,372.440703 223.645338,373.401782 223.645338,374.589782 L223.645338,374.589782 L220.30826,466.155883 C220.30826,467.343883 219.343844,468.304962 218.159181,468.304962 L218.159181,468.304962 L207.887653,468.304962 C206.70299,468.304962 205.738574,467.343883 205.738574,466.155883 L205.738574,466.155883 L202.401496,374.589782 C202.401496,373.401782 203.362574,372.440703 204.550574,372.440703 L204.550574,372.440703 Z M254.172934,317.28747 L254.172934,328.490043 C254.172934,337.26656 247.031585,344.411245 238.248394,344.411245 L238.248394,344.411245 L231.934642,344.411245 L233.840113,347.708279 C234.384057,348.652672 234.384057,349.817312 233.840113,350.761706 L233.840113,350.761706 L224.860035,366.309155 C224.316091,367.256885 223.308293,367.837537 222.217069,367.837537 L222.217069,367.837537 L204.263585,367.837537 C203.172361,367.837537 202.164563,367.256885 201.617282,366.309155 L201.617282,366.309155 L192.64054,350.761706 C192.096597,349.817312 192.096597,348.652672 192.64054,347.708279 L192.64054,347.708279 L194.546012,344.411245 L190.334619,344.411245 C181.558102,344.411245 174.420091,337.273234 174.420091,328.500054 L174.420091,328.500054 L174.420091,317.28747 L254.172934,317.28747 Z M250.835855,328.186369 L177.75717,328.186369 L177.75717,328.500054 C177.75717,335.434503 183.396833,341.074166 190.334619,341.074166 L190.334619,341.074166 L196.471507,341.074166 L201.617282,332.160829 C202.164563,331.216436 203.172361,330.632447 204.263585,330.632447 L204.263585,330.632447 L222.217069,330.632447 C223.308293,330.632447 224.316091,331.216436 224.860035,332.160829 L224.860035,332.160829 L230.009147,341.074166 L238.248394,341.074166 C245.189518,341.074166 250.835855,335.427829 250.835855,328.490043 L250.835855,328.490043 L250.835855,328.186369 Z M250.835855,320.624548 L177.75717,320.624548 L177.75717,324.84929 L250.835855,324.84929 L250.835855,320.624548 Z" id="Combined-Shape"></path>
                <path d="M173.818749,80.5013831 C200.004806,69.5190573 231.433412,91.400282 240.520278,100.260226 L240.520278,100.260226 L240.520278,100.263563 L241.050873,100.930979 C242.6193,102.889844 244.324547,106.370417 246.026457,110.975585 C255.874176,141.589945 259.368098,179.816181 255.874176,223.428462 C253.217862,256.622383 247.594884,286.929731 239.345626,313.252608 L239.345626,313.252608 L191.231626,313.175855 L191.231626,284.223361 C190.444075,284.089878 189.643176,283.996439 188.818918,283.996439 C181.447311,283.996439 175.33712,289.302394 174.038997,296.296911 C173.488379,296.256866 172.937761,296.213484 172.377131,296.213484 C165.172379,296.213484 158.781873,299.644001 154.700626,304.939945 C152.044311,304.28254 149.277873,303.915462 146.441356,303.825361 L146.441356,303.825361 L146.441356,93.1389 C155.818547,88.597136 165.279165,84.0787315 173.818749,80.5013831 Z M272.404396,185.405454 C273.959474,183.967173 278.284328,189.713622 279.505699,188.488915 C280.460103,188.435521 281.371126,188.572342 282.205396,188.989476 C289.723834,192.750364 291.065339,204.873971 289.129834,214.544825 C286.133137,229.528308 280.793811,237.063431 271.356553,246.50069 C265.800317,252.053589 259.64007,257.32951 255.902542,260.419645 C257.724587,248.709836 259.179553,236.502802 260.200699,223.775184 C260.607822,218.676128 260.901485,213.663836 261.121733,208.708274 C262.413182,207.89069 260.514384,205.08087 262.486598,201.203184 C264.465485,197.315488 269.130721,188.432184 272.404396,185.405454 Z" id="Combined-Shape" opacity="0.25"></path>
                <path d="M146.440355,93.136564 L146.440355,303.823025 C146.04658,303.809676 145.662816,303.746272 145.262366,303.746272 C143.386928,303.746272 141.554872,303.923137 139.749512,304.180092 C135.654917,299.314631 129.524703,296.214485 122.667007,296.214485 C121.792692,296.214485 120.931726,296.27789 120.080771,296.374665 C120.157524,295.76398 120.267647,295.163306 120.267647,294.535935 C120.267647,286.219935 113.526748,279.479036 105.210748,279.479036 C102.474344,279.479036 99.9448382,280.263249 97.7356921,281.538013 C97.5788494,281.461261 97.4186697,281.387845 97.261827,281.311092 C97.2718382,281.037452 97.305209,280.767148 97.305209,280.490171 C97.305209,269.361013 88.4319169,260.327542 77.3761753,260.02053 C77.4462539,259.383148 77.5697258,258.762452 77.5697258,258.108384 C77.5697258,248.571013 69.8377146,240.839002 60.3003438,240.839002 C50.762973,240.839002 43.0309618,248.571013 43.0309618,258.108384 C43.0309618,260.240778 43.4681191,262.25971 44.1755798,264.14516 C43.6182876,264.325362 43.0910292,264.568969 42.5637708,264.805901 C42.5337371,264.332036 42.3969169,263.871519 42.0565348,263.497766 C39.9341528,250.696733 38.3023213,237.318384 37.1877371,223.429463 C33.4869169,177.227609 37.6115461,137.055856 48.850827,105.597216 C50.4893326,107.556081 52.3047034,109.30471 54.3169618,110.806396 C61.6451865,116.275867 70.4250404,117.927721 78.3739618,117.927721 C82.1048157,117.927721 85.6521303,117.560643 88.778973,117.056744 C101.373108,115.017789 120.918378,105.527137 141.611602,95.4791933 C143.2134,94.7016539 144.828546,93.9207775 146.440355,93.136564 L146.440355,93.136564 Z M12.066209,188.98981 C13.3576584,188.349091 14.8159618,188.325731 16.3610292,188.762889 C23.6892539,189.630529 26.0485685,196.011024 28.8316921,200.466024 C31.5147034,204.760844 31.7349506,210.353788 32.2321753,213.977855 C32.4190517,217.224833 32.5992539,220.468473 32.8628831,223.775518 C33.8506584,236.086001 35.2422202,247.909271 36.9808382,259.265349 C33.2166135,256.105136 27.8272315,251.413203 22.9150517,246.501024 C13.4777933,237.063765 8.13846742,229.528642 5.13843371,214.545158 C3.20626517,204.874304 4.54777079,192.750698 12.066209,188.98981 Z" id="Combined-Shape" opacity="0.15"></path>
                <path d="M60.3010112,240.837667 C69.838382,240.837667 77.5703933,248.569679 77.5703933,258.107049 C77.5703933,258.764454 77.4469213,259.385151 77.3768427,260.022533 C88.4325843,260.326207 97.3025393,269.359679 97.3025393,280.488836 C97.3025393,280.765813 97.2725056,281.036117 97.2624944,281.313094 C97.4193371,281.38651 97.5795169,281.459926 97.7330225,281.536679 C99.9455056,280.265252 102.475011,279.477701 105.211416,279.477701 C113.524079,279.477701 120.264978,286.2186 120.264978,294.5346 C120.264978,295.165308 120.158191,295.765982 120.081438,296.376667 C120.929056,296.276555 121.790022,296.213151 122.664337,296.213151 C129.525371,296.213151 135.655584,299.313297 139.75018,304.178757 C141.555539,303.921802 143.384258,303.748274 145.263034,303.748274 C148.52336,303.748274 151.673562,304.188769 154.700292,304.942948 C158.781539,299.643667 165.172045,296.213151 172.376798,296.213151 C172.937427,296.213151 173.488045,296.25987 174.038663,296.299915 C175.336787,289.302061 181.446978,283.996106 188.818584,283.996106 C189.642843,283.996106 190.447079,284.089544 191.231292,284.226364 L191.231292,284.226364 L191.231292,313.175521 L169.620371,313.175521 L169.620371,329.393724 C169.620371,339.291499 176.528124,347.604162 185.778506,349.763252 C185.708427,351.568611 186.13891,353.387319 187.069955,354.995791 L187.069955,354.995791 L196.046697,370.54324 C196.283629,370.953701 196.610663,371.284072 196.897652,371.651151 C196.303652,372.872521 195.93991,374.240724 195.93991,375.725724 L195.93991,375.725724 L197.77864,426.075566 C189.679551,442.253724 173.020854,453.392892 153.699169,453.392892 C133.793494,453.392892 116.687629,441.592982 108.875528,424.627274 C105.958921,425.5116 102.862112,425.998813 99.6551798,425.998813 C83.9508876,425.998813 70.9496292,414.555971 68.4468202,399.562476 C66.7782809,399.792735 65.0897191,399.956252 63.3577753,399.956252 C43.2285169,399.956252 26.9102022,383.641274 26.9102022,363.512016 C26.9102022,356.771117 28.7722921,350.484061 31.9625393,345.064645 C29.0959888,341.287072 27.3740562,336.588465 27.3740562,331.482735 C27.3740562,328.169016 28.1082135,325.028825 29.3929888,322.195645 C23.8534382,318.451443 20.2093483,312.11433 20.2093483,304.922926 C20.2093483,295.74596 26.1526854,287.973903 34.3919326,285.197454 C33.6143933,283.332027 33.180573,281.286398 33.180573,279.137319 C33.180573,272.092746 37.8124382,266.192791 44.1729101,264.143825 C43.4687865,262.258375 43.0316292,260.239443 43.0316292,258.107049 C43.0316292,248.569679 50.7636404,240.837667 60.3010112,240.837667 Z M260.441636,263.82747 C269.858872,263.82747 277.494108,271.462706 277.494108,280.879942 C277.494108,283.559616 276.823355,286.059088 275.722119,288.314953 C282.059231,293.04693 286.183861,300.582054 286.183861,309.101616 C286.183861,319.002728 280.634299,327.605717 272.478479,331.980627 C272.798838,333.395548 272.982378,334.860526 272.982378,336.372222 C272.982378,343.623694 269.08467,349.947458 263.278153,353.411346 C263.681939,355.543739 263.912198,357.732863 263.912198,359.978717 C263.912198,379.083492 248.748512,394.597571 229.807254,395.261649 L229.807254,395.261649 L230.528063,375.482784 C230.528063,374.221369 230.251085,373.026694 229.770546,371.942144 C230.15431,371.494975 230.548085,371.061155 230.848422,370.543908 L230.848422,370.543908 L239.825164,354.996458 C240.689467,353.49811 241.123288,351.81956 241.126625,350.141009 C251.411501,348.8262 259.383782,340.019649 259.383782,329.38438 L259.383782,329.38438 L259.383782,313.176189 L241.60049,313.176189 L252.202389,267.88202 C255.282512,264.748503 255.69631,263.82747 260.441636,263.82747 Z" id="Combined-Shape" opacity="0.7"></path>
                <path d="M289.130501,214.545492 C286.133804,229.528975 280.791142,237.064099 271.353883,246.501357 C265.800984,252.054256 259.640737,257.32684 255.903209,260.420312 C257.721917,248.710503 259.18022,236.50347 260.201366,223.775852 C260.60849,218.673458 260.902153,213.661166 261.1224,208.705604 C265.060153,199.7322 269.101355,189.811065 279.506366,188.489582 C280.457434,188.436189 281.368456,188.573009 282.206063,188.990144 C289.724501,192.751031 291.066007,204.874638 289.130501,214.545492 M36.9808382,259.265683 C33.2166135,256.10547 27.8272315,251.413537 22.9150517,246.501357 C13.4777933,237.064099 8.13846742,229.528975 5.13843371,214.545492 C3.20626517,204.874638 4.54777079,192.751031 12.066209,188.990144 C13.3576584,188.346088 14.8159618,188.326065 16.3610292,188.759885 C23.3221753,191.282717 25.4445573,195.584211 27.8739506,200.242773 C30.4835461,205.241717 31.7349506,210.354121 32.2321753,213.978189 C32.4190517,217.225166 32.5992539,220.46547 32.8628831,223.775852 C33.8473213,236.086335 35.2422202,247.909604 36.9808382,259.265683 M284.144906,185.109121 C283.424097,184.748717 282.679928,184.525133 281.932422,184.364953 L281.939097,184.34493 C283.3974,174.120121 282.489715,111.506515 274.437344,95.0246831 C269.738737,85.4038854 263.424984,82.6040764 260.081231,81.7931663 C259.460535,81.6429978 258.849849,81.5929416 258.235827,81.5295371 C254.284726,66.0221326 241.393591,36.7092337 200.053861,31.079582 C201.952658,30.6157281 204.175153,30.2519865 206.958276,30.0017056 L215.9784,29.1841213 L207.261951,26.7347056 C201.161771,25.0161101 197.574411,22.9471213 194.110524,20.9415371 C191.444198,19.4031438 188.924703,17.9481775 185.590962,16.8869865 C167.787647,11.2139528 149.847512,11.7812562 140.980894,12.8824921 C142.422512,11.1238517 144.121085,9.5587618 144.568254,9.37188539 L145.058804,6.06817753 L145.048793,6.06817753 C139.302344,5.21722247 134.109849,4.15269438 129.531378,3.21497528 C119.950625,1.24943596 111.678007,-0.449137079 102.881467,0.718840449 C85.128209,3.07815506 71.5963551,10.1460876 66.4005236,13.9536944 C45.8741528,28.9838966 35.8562427,52.4535708 38.712782,78.5194921 C38.4124449,78.6463011 38.118782,78.7330652 37.8084337,78.8899079 C28.9451528,83.3549191 18.5701753,99.3962562 15.6068494,113.22511 C10.838164,135.483425 11.3620854,156.15329 12.6368494,169.511616 L13.4711191,184.164728 C12.3331753,184.268178 11.2152539,184.565178 10.1273663,185.109121 C0.519916854,189.914515 -1.43561124,203.783413 0.886995506,215.396447 C4.08391685,231.381054 10.0172427,239.740436 19.8482764,249.568133 C26.5658157,256.289009 34.1009393,262.556043 37.4013101,265.235717 C40.5882202,268.479357 42.4736697,267.841975 43.3413101,265.999908 C43.3212876,265.509357 42.4069281,263.880863 42.0565348,263.497099 C39.9341528,250.696065 38.2989843,237.317717 37.1877371,223.428796 C33.4869169,177.226942 37.6115461,137.055189 48.850827,105.596548 C50.4893326,107.555413 52.3047034,109.304043 54.3169618,110.805728 C61.6451865,116.2752 70.4250404,117.927054 78.3739618,117.927054 C82.1048157,117.927054 85.6521303,117.563312 88.778973,117.056076 C101.373108,115.017121 120.918378,105.52647 141.608265,95.4785258 C152.523849,90.1759079 163.813187,84.6964247 173.817748,80.4983798 C200.003804,69.519391 231.432411,91.4006157 240.522613,100.257222 L240.519276,100.263897 L241.049872,100.931312 C242.618299,102.890178 244.326883,106.367413 246.025456,110.975919 C255.873175,141.590279 259.370434,179.816515 255.876512,223.428796 C253.216861,256.622717 247.593883,286.930065 239.341288,313.252942 L243.959804,313.252942 C248.341389,298.960234 252.042209,283.476189 254.888737,266.767436 C254.96549,266.724054 255.052254,266.697357 255.122333,266.640627 C255.225782,266.560537 265.584074,258.408054 274.420658,249.568133 C284.251692,239.740436 290.185018,231.381054 293.381939,215.396447 C295.707883,203.783413 293.752355,189.914515 284.144906,185.109121" id="Fill-15"></path>
                <path d="M171.094358,286.951089 C167.980864,286.387122 165.094291,287.568448 162.918516,288.652999 C161.476898,289.373808 160.162089,290.234774 158.890662,291.065707 C155.677055,293.171403 152.643651,295.156965 147.414448,295.156965 L146.857156,295.156965 C141.624617,295.156965 138.591212,293.171403 135.380943,291.065707 C134.109516,290.234774 132.79137,289.373808 131.353089,288.656336 C129.173976,287.568448 126.277392,286.387122 123.177246,286.951089 C121.999257,287.161325 121.215044,288.292594 121.428617,289.47392 C121.645527,290.651909 122.776797,291.436122 123.951448,291.219212 C125.396403,290.955583 127.038246,291.342684 129.410909,292.534021 C130.628943,293.14137 131.783572,293.895549 133.001606,294.696448 C136.438797,296.945639 140.333167,299.495167 146.857156,299.495167 L147.414448,299.495167 C153.938437,299.495167 157.832808,296.945639 161.266662,294.696448 C162.488033,293.895549 163.642662,293.14137 164.860696,292.534021 C167.226684,291.346021 168.868527,290.955583 170.320156,291.219212 C171.498145,291.422774 172.62274,290.648572 172.839651,289.47392 C173.053224,288.292594 172.272347,287.161325 171.094358,286.951089" id="Fill-20"></path>
                <path d="M231.062663,253.660392 L234.428298,257.025344 L237.794885,253.660392 C238.445616,253.009662 239.50347,253.009662 240.1542,253.660392 C240.80493,254.311122 240.80493,255.368976 240.1542,256.019707 L236.788298,259.385344 L240.156202,262.750594 C240.806933,263.404662 240.806933,264.459179 240.156202,265.113246 C239.829169,265.436943 239.402022,265.60046 238.974876,265.60046 C238.54773,265.60046 238.120584,265.436943 237.793551,265.113246 L234.428298,261.746344 L231.063998,265.113246 C230.736964,265.436943 230.309818,265.60046 229.882672,265.60046 C229.455526,265.60046 229.02838,265.436943 228.701346,265.113246 C228.050616,264.459179 228.050616,263.404662 228.701346,262.750594 L232.068298,259.385344 L228.703348,256.019707 C228.052618,255.368976 228.052618,254.311122 228.703348,253.660392 C229.354079,253.009662 230.411933,253.009662 231.062663,253.660392 Z" id="Combined-Shape"></path>
                <path d="M200.584122,266.244182 C199.019033,266.244182 197.747606,267.515609 197.747606,269.080699 C197.747606,270.642452 199.019033,271.917216 200.584122,271.917216 C202.145875,271.917216 203.420639,270.642452 203.420639,269.080699 C203.420639,267.515609 202.145875,266.244182 200.584122,266.244182 M200.584122,275.254294 C197.180302,275.254294 194.410527,272.484519 194.410527,269.080699 C194.410527,265.676879 197.180302,262.907103 200.584122,262.907103 C203.987943,262.907103 206.757718,265.676879 206.757718,269.080699 C206.757718,272.484519 203.987943,275.254294 200.584122,275.254294" id="Fill-28"></path>
                <path d="M221.892037,288.653666 C220.326947,288.653666 219.05552,289.925093 219.05552,291.490183 C219.05552,293.055273 220.326947,294.3267 221.892037,294.3267 C223.45379,294.3267 224.728554,293.055273 224.728554,291.490183 C224.728554,289.925093 223.45379,288.653666 221.892037,288.653666 M221.892037,297.663779 C218.488217,297.663779 215.718442,294.894003 215.718442,291.490183 C215.718442,288.086363 218.488217,285.316588 221.892037,285.316588 C225.295857,285.316588 228.065633,288.086363 228.065633,291.490183 C228.065633,294.894003 225.295857,297.663779 221.892037,297.663779" id="Fill-30"></path>
            </g>
        </g>
    </g>
</svg>