<?xml version="1.0" encoding="UTF-8"?>
<svg width="296px" height="506px" viewBox="0 0 296 506" version="1.1" xmlns="http://www.w3.org/2000/svg" xmlns:xlink="http://www.w3.org/1999/xlink">
    <title>8DDBBCE1-617D-45A7-9216-D16F87E15220</title>
    <g id="Design-" stroke="none" stroke-width="1" fill="none" fill-rule="evenodd">
        <g id="v2.Summary/4" transform="translate(-571.000000, -313.000000)" fill="#FFFFFF">
            <g id="Icon" transform="translate(571.000000, 313.000000)">
                <path d="M147.619835,89.8115759 L147.619835,361.05132 C147.405538,361.044623 147.258209,361.041274 147.258209,361.041274 L147.258209,361.041274 L147.258209,361.07141 C144.586193,361.151771 137.243172,361.359372 133.265283,361.359372 C138.458638,364.403059 145.018135,369.445735 139.550213,371.116582 C134.085639,372.790778 119.108287,372.285171 117.691918,365.250202 C116.988756,361.761179 115.599174,355.747469 114.500902,348.213589 C114.500902,340.103787 100.93657,332.415882 92.1035156,327.754922 C78.4856103,320.569275 65.6981059,304.594103 56.4096698,287.822013 C47.251821,271.294356 40.0159486,235.690917 35.6195115,206.837834 C35.5424985,204.845541 35.4420468,202.836507 35.3918209,200.864305 L35.3918209,200.864305 L35.3915729,200.62074 L35.3915729,200.62074 L35.3784273,200.49933 C34.3638649,162.193739 39.0984895,128.706483 49.1671006,101.772028 C59.9187834,116.304044 77.7456159,116.099792 88.9426347,114.284964 C99.6770488,112.546811 116.06416,105.056535 133.394106,96.704837 L134.881729,95.9869816 C135.626585,95.6271131 136.372926,95.2659191 137.12038,94.9037846 L138.616665,94.1783755 C138.866256,94.0573029 139.115944,93.9361544 139.365715,93.8149442 L141.615507,92.7227703 C143.616646,91.7511519 145.620432,90.7783203 147.619835,89.8115759 L147.619835,89.8115759 Z M31.1547672,201.688009 C31.4025481,215.992334 34.0779124,237.468913 37.476529,258.935446 C33.6861506,255.767868 28.094338,250.922747 22.9980873,245.823148 C13.5254897,236.353899 8.16806448,228.796581 5.16120955,213.758958 C3.2191429,204.051973 4.56519599,191.887269 12.1091204,188.116981 C17.4163198,185.444965 25.6567095,193.206535 31.1547672,201.688009 Z" id="Combined-Shape" opacity="0.15"></path>
                <path d="M173.888965,77.7125007 C200.78324,66.4317721 234.143257,88.9162162 243.347983,98.5763236 C243.33459,98.6265495 243.317848,98.6633818 243.304454,98.7102593 C243.836848,99.376589 244.385985,100.253867 244.948514,101.238294 C256.523901,131.89616 261.178164,171.105816 258.238277,216.282305 C253.15542,242.416495 243.930603,269.739364 235.763878,284.475631 C226.475442,301.244373 206.800298,324.063656 197.508514,327.723447 C188.216729,331.383238 180.381495,337.306541 180.381495,345.416344 C179.654894,351.316208 180.019868,356.844401 177.830021,365.248862 C176.025238,372.193425 161.4363,372.792787 155.971726,371.118591 C151.790374,369.838324 154.642357,366.588253 158.538329,363.770107 L158.900748,363.511267 C159.995853,362.738847 161.156886,362.005217 162.256655,361.361381 C160.811368,361.361381 158.920219,361.333487 156.970102,361.294121 L155.991921,361.273558 C152.89013,361.205897 149.802164,361.116339 148.26373,361.070071 L148.26373,361.070071 L148.26373,361.039935 C148.26373,361.039935 148.079569,361.046632 147.761472,361.056677 C147.697852,361.056677 147.671065,361.053329 147.620839,361.053329 L147.620839,361.053329 L147.620839,89.8102366 C156.684933,85.427193 165.661969,81.1646916 173.888965,77.7125007 Z M283.161689,188.115307 C290.705614,191.885595 292.051667,204.050298 290.1096,213.757283 C287.106093,228.794906 281.74532,236.352224 272.276071,245.824822 C270.293823,247.803721 268.244608,249.732394 266.245619,251.557267 C264.186359,239.047679 263.181841,223.3973 264.343733,202.017825 C264.614953,201.495476 264.899566,200.939643 265.207618,200.303449 C265.388431,199.928429 265.599379,199.5735 265.810328,199.215222 C267.002355,197.571162 268.274744,195.99407 269.590661,194.560959 C271.897703,192.347673 274.509447,190.479271 276.695947,188.764895 C279.046517,187.542732 281.283242,187.171061 283.161689,188.115307 Z" id="Combined-Shape" opacity="0.25"></path>
                <path d="M148.229242,298.841567 L147.670061,298.841567 C141.123957,298.841567 137.216385,296.283397 133.767542,294.026581 C132.542031,293.222968 131.386836,292.466231 130.164674,291.856824 C127.790665,290.668145 126.159998,290.269687 124.690055,290.537558 C123.531511,290.745158 122.372968,289.97168 122.158671,288.78635 C121.941026,287.601019 122.727898,286.469263 123.90988,286.254966 C127.017186,285.695785 129.926938,286.87107 132.116785,287.962646 C133.559942,288.685898 134.879208,289.549783 136.151596,290.383532 C139.372748,292.493018 142.423132,294.488659 147.670061,294.488659 L148.229242,294.488659 C153.479519,294.488659 156.526554,292.493018 159.747706,290.383532 C161.020095,289.549783 162.339361,288.685898 163.785865,287.962646 C165.969016,286.87107 168.878768,285.695785 171.992771,286.254966 C173.171405,286.469263 173.958277,287.601019 173.74398,288.783001 C173.533031,289.968332 172.374488,290.731765 171.212596,290.537558 C169.762743,290.276384 168.108638,290.664797 165.734629,291.856824 C164.512466,292.466231 163.357271,293.222968 162.13176,294.026581 C158.686266,296.283397 154.778694,298.841567 148.229242,298.841567" id="Fill-13"></path>
                <path d="M294.381142,214.458102 C296.708274,202.805702 294.746117,188.886441 285.109448,184.068107 C283.890634,183.4587 282.62829,183.177435 281.352554,183.113815 C281.352554,183.097073 281.362599,183.080331 281.365947,183.066938 C282.842587,172.743849 281.737619,110.259529 273.992791,94.4115952 C269.606399,85.4211659 263.133959,81.7345877 257.933908,81.6977554 C253.711588,63.7771679 238.764371,33.4005667 193.584534,30.4740732 C197.274461,28.6123679 201.004568,27.3667665 207.641079,26.7674046 C196.511028,23.6333108 193.189424,19.2100866 185.843055,16.8695614 C166.084201,10.5779351 145.283997,12.0311367 138.155273,13.4943835 C139.444404,10.5009222 144.065183,5.87679448 145.434675,6.07769793 C127.668113,3.44921117 116.290282,-0.974013057 103.583139,0.713575898 C86.9784686,2.91681703 73.5949507,9.39930159 67.745312,13.6818934 C48.5054586,27.7685734 37.241472,50.376908 40.7706758,78.258958 C32.349473,80.5927864 20.5698343,97.6327471 17.4290437,112.288654 C13.0058195,132.931483 13.0058195,152.837666 14.4791114,168.320625 L15.3229059,183.133906 C13.5616523,182.973183 11.8238375,183.234357 10.1596873,184.068107 C0.52301864,188.889789 -1.43913836,202.805702 0.891341626,214.458102 C4.10244839,230.500242 10.0525388,238.884612 19.9168981,248.745623 C27.4239902,256.256064 36.0059158,263.250852 38.527254,265.27328 C38.1689762,263.113568 37.8173952,260.950508 37.4758593,258.78075 C33.6888293,255.613173 28.0970167,250.768051 22.9974176,245.668452 C13.52482,236.199203 8.1673948,228.641885 5.16053987,213.604262 C3.21847322,203.897277 4.56452631,191.732573 12.1084507,187.962285 C17.4156501,185.290269 25.6560399,193.051839 31.1540975,201.536661 C31.1507491,201.359197 35.5572314,206.264589 35.6208508,206.683138 C35.5404894,204.690846 35.4433861,202.681811 35.3898119,200.712957 C35.3864635,200.585718 35.399857,200.468525 35.3764183,200.344634 C34.3652043,162.042392 39.0998288,128.551788 49.1684399,101.617332 C59.9201227,116.152697 77.7469553,115.945096 88.943974,114.133617 C108.153692,111.019613 145.471507,89.4794155 173.8893,77.5591444 C200.783575,66.2784158 234.143592,88.7628599 243.348318,98.4229673 C243.334925,98.4698448 243.318183,98.5100255 243.304789,98.556903 C243.837183,99.2198843 244.386319,100.100511 244.948849,101.084938 C255.593383,129.268343 260.384931,164.677576 258.80449,205.313646 L260.100317,205.414098 C260.652802,204.309129 265.598375,199.41713 265.812672,199.058852 C267.001351,197.418141 268.273739,195.8377 269.593005,194.407938 C271.896698,192.194651 274.508443,190.322901 276.69829,188.608525 C279.045512,187.38971 281.282237,187.018039 283.160685,187.962285 C290.704609,191.732573 292.054011,203.897277 290.111944,213.604262 C287.105089,228.638536 281.747664,236.199203 272.275066,245.668452 C270.296167,247.650699 268.243604,249.579372 266.247963,251.404245 C266.532576,253.14206 266.833931,254.826301 267.158725,256.45027 C269.810651,254.082958 272.653434,251.447774 275.355586,248.745623 C285.219945,238.881264 291.173384,230.496893 294.381142,214.458102" id="Fill-15"></path>
                <path d="M31.1400343,201.14356 C33.6278886,203.447253 34.8701416,204.461816 35.4226261,205.570133 C39.7956245,234.634165 47.1152067,271.054612 56.4103395,287.823353 C65.6987755,304.592094 78.4862799,320.567266 92.1041853,327.756261 C100.93724,332.413873 114.501571,340.105126 114.501571,348.214929 C115.596495,355.74546 116.989426,361.762518 117.692588,365.248193 C119.105609,372.283162 134.086309,372.792117 139.550883,371.117922 C145.018805,369.447075 138.459307,364.40105 133.265953,361.360711 C138.184739,361.360711 148.263395,361.039265 148.263395,361.039265 L148.263395,361.039265 L148.26311,361.100089 C148.254132,363.014198 148.036279,409.534485 148.022949,419.540003 L148.022311,420.376099 C137.367732,416.227442 120.421526,413.612349 103.478669,404.213416 C75.2082054,388.529554 61.9418811,364.40105 51.5618697,330.116877 C46.9578323,314.918531 31.6021122,235.933341 31.1400343,201.14356 Z M138.309969,297.339814 L149.279297,298.089854 C149.279297,298.089854 146.861759,306.413953 144.447569,309.815918 C140.680045,315.131037 135.341603,316.02438 130.151469,316.262862 L129.475478,316.290564 L129.475478,316.290564 L128.802016,316.312696 L128.802016,316.312696 L128.131932,316.331116 C126.907059,316.362619 125.70349,316.38477 124.544735,316.44908 C117.39592,316.847539 108.321781,318.200289 102.241104,322.901429 C104.45439,316.268267 106.051572,311.707759 109.798422,307.602632 C117.539901,299.124506 128.375294,297.339814 138.309969,297.339814 L138.309969,297.339814 Z" id="Combined-Shape" opacity="0.7"></path>
                <path d="M264.808155,197.383318 C260.622666,271.188547 281.613728,281.093087 283.977692,323.607605 C285.266822,346.832043 280.103604,364.156617 269.599702,382.221186 C268.678894,374.479706 265.728962,367.474873 261.674061,363.051648 C264.992316,377.429638 266.683254,391.231705 263.150701,401.0224 C258.355806,414.292072 251.722644,413.552078 244.349487,434.566579 C243.977816,420.188589 243.612841,417.610328 241.399555,410.973817 C240.84707,421.481067 239.922914,429.406708 231.813112,439.726449 C225.273705,448.050548 213.751892,454.841085 205.273767,466.637466 C206.347484,452.505024 204.126741,448.226863 202.731803,444.61427 L202.626198,444.337537 C202.505055,444.01585 202.391413,443.697627 202.288252,443.376225 L202.202464,443.099805 C202.063993,442.63729 201.948645,442.164416 201.865105,441.661819 C201.309272,457.144778 196.949667,467.079453 187.577521,474.747268 C176.23987,484.025659 160.86406,480.151571 147.500632,504.973192 C147.500632,497.197626 147.273796,369.079227 147.260186,361.399121 L147.259548,361.039265 L147.259548,361.039265 C147.259548,361.039265 151.37931,361.17066 155.636413,361.265436 L156.291899,361.279706 C158.476881,361.326156 160.644273,361.360711 162.25699,361.360711 C161.768204,361.646861 161.267316,361.950777 160.765493,362.267973 L160.389125,362.508291 C155.686694,365.541635 151.147424,369.643645 155.972061,371.117922 C161.436634,372.792117 176.025573,372.192755 177.830356,365.248193 C180.020203,356.843732 179.655229,351.315539 180.38183,345.415674 C180.38183,340.72767 183.000057,336.770308 187.003714,333.558465 C184.059459,331.975892 179.058151,327.546891 176.518791,324.559887 C177.258785,328.246465 178.363754,329.535596 180.392879,332.66969 C178.065748,332.08707 173.779807,329.850345 172.095567,328.614788 C169.333144,326.589012 166.567374,324.007403 162.880795,318.295048 C163.252467,320.504986 163.804951,322.718272 163.985764,325.480695 C155.226374,320.364354 151.787577,316.078413 149.905781,311.290215 C149.35295,309.88389 148.909858,307.765583 148.569511,305.635228 L148.475059,305.026832 C147.940326,301.482995 147.689146,298.090858 147.689146,298.090858 L158.655126,297.340819 C168.59315,297.340819 182.083817,296.697928 192.373421,307.235313 C197.423385,312.408338 200.332331,319.227494 202.367086,324.832432 C212.517769,317.294918 227.881427,298.706033 235.764213,284.474962 C245.059346,267.706221 254.906963,231.610568 259.279962,202.543188 C259.832446,201.438219 262.3203,199.68701 264.808155,197.383318 Z" id="Combined-Shape"></path>
            </g>
        </g>
    </g>
</svg>