<svg width="686" height="660" viewBox="0 0 686 660" fill="none" xmlns="http://www.w3.org/2000/svg">
<path d="M1 20C1 9.50657 9.50659 1 20 1H666C676.493 1 685 9.50659 685 20V640C685 650.493 676.493 659 666 659H20C9.5066 659 1 650.493 1 640V20Z" stroke="#1C358B" stroke-width="2"/>
<path d="M122.12 395V392.36H115.28C120.248 387.728 121.592 385.184 121.592 382.856C121.592 379.712 119.672 377.96 116.336 377.96C114.608 377.96 112.904 378.392 111.368 379.16L111.632 381.944C113.072 381.008 114.344 380.6 115.496 380.6C116.984 380.6 118.232 381.416 118.232 382.856C118.232 384.68 116.216 387.32 113 390.32L110.984 392.192V395H122.12ZM134.96 380.384V377.312H131.744V380.384H134.96ZM134.96 395V382.64H131.744V395H134.96ZM149.703 395V387.2C149.703 384.296 148.335 382.352 145.503 382.352C143.799 382.352 142.431 382.928 141.447 384.32H141.399V382.64H138.351V395H141.567V389C141.567 386.816 142.359 384.848 144.399 384.848C146.103 384.848 146.487 386.216 146.487 388.064V395H149.703ZM159.775 394.808C161.047 395.12 162.607 395.288 163.687 395.288C167.719 395.288 170.215 393.008 170.215 389.576C170.215 385.808 167.815 384.152 164.815 384.152C164.215 384.152 163.855 384.224 163.279 384.32L163.351 380.744H169.807V378.248H160.183L160.015 387.248C160.999 386.936 161.983 386.792 163.015 386.792C165.391 386.792 166.855 387.848 166.855 389.696C166.855 391.592 165.367 392.648 163.231 392.648C162.271 392.648 161.239 392.408 159.847 391.808L159.775 394.808ZM195.343 395L199.135 382.64H196.063L193.495 391.784H193.447L190.759 382.64H187.015L184.519 391.784H184.471L181.735 382.64H178.327L182.503 395H186.175L188.815 385.568H188.863L191.551 395H195.343ZM213.191 388.904C213.191 384.92 210.479 382.352 206.711 382.352C202.943 382.352 200.255 384.944 200.255 388.904C200.255 392.552 202.727 395.288 206.711 395.288C210.695 395.288 213.191 392.576 213.191 388.904ZM206.711 392.792C204.623 392.792 203.615 391.136 203.615 388.52C203.615 386.576 204.695 384.848 206.711 384.848C208.775 384.848 209.831 386.552 209.831 388.52C209.831 391.184 208.799 392.792 206.711 392.792ZM233.815 395V387.152C233.815 383.936 232.543 382.352 229.927 382.352C228.223 382.352 226.711 383.168 226.039 384.536C225.343 383 224.119 382.352 222.415 382.352C220.855 382.352 219.559 383.12 218.719 384.368H218.671V382.64H215.671V395H218.887V388.928C218.887 386.432 219.607 384.848 221.287 384.848C222.487 384.848 223.135 385.496 223.135 387.296V395H226.351V388.952C226.351 386.36 227.119 384.848 228.751 384.848C229.903 384.848 230.599 385.448 230.599 387.296V395H233.815ZM246.959 391.688C245.759 392.36 244.415 392.936 242.879 392.936C240.791 392.936 239.471 391.76 239.327 389.816H247.871C247.871 384.944 246.191 382.352 241.991 382.352C238.055 382.352 236.255 385.424 236.255 388.88C236.255 392.936 238.631 395.288 242.735 395.288C244.439 395.288 245.783 394.952 246.959 394.304V391.688ZM239.327 387.608C239.495 385.76 240.551 384.704 242.159 384.704C243.839 384.704 244.679 385.832 244.799 387.608H239.327ZM261.735 395V387.2C261.735 384.296 260.367 382.352 257.535 382.352C255.831 382.352 254.463 382.928 253.479 384.32H253.431V382.64H250.383V395H253.599V389C253.599 386.816 254.391 384.848 256.431 384.848C258.135 384.848 258.519 386.216 258.519 388.064V395H261.735Z" fill="white"/>
<path d="M279.666 508.771L270.866 482.958C269.799 480.004 267.799 477.436 265.132 475.381C261.532 472.813 256.999 471.4 252.332 471.4H244.999C240.332 471.4 235.799 472.813 232.199 475.381C229.399 477.436 227.399 480.004 226.332 482.958L217.399 508.771C216.732 510.44 216.999 512.366 217.932 513.908C218.066 514.036 218.066 514.164 218.199 514.293C220.332 516.733 224.599 515.834 225.666 512.752L233.932 489.379C234.066 488.865 234.732 488.48 235.266 488.737C235.799 488.865 236.199 489.508 235.932 490.021L223.266 529.19C222.999 530.217 223.799 531.116 224.866 531.116H235.666C236.599 531.116 237.266 531.886 237.266 532.657V564.249C237.266 566.303 239.399 567.973 241.932 567.973C244.466 567.973 246.599 566.303 246.599 564.249V533.042C246.599 531.886 247.532 530.988 248.732 530.988C249.932 530.988 250.866 531.886 250.866 533.042V564.249C250.866 566.303 252.999 567.973 255.532 567.973C258.066 567.973 260.199 566.303 260.199 564.249V532.785C260.199 531.886 260.999 531.244 261.799 531.244H272.599C273.666 531.244 274.466 530.217 274.199 529.318L261.399 490.15C261.266 489.636 261.532 488.994 262.066 488.865C262.599 488.609 263.266 488.994 263.532 489.508L271.666 513.009C272.732 516.091 276.999 517.118 279.132 514.55C279.266 514.421 279.266 514.293 279.399 514.164C280.199 512.238 280.332 510.44 279.666 508.771Z" fill="#00D7D7"/>
<path d="M248.6 447C242.467 447 237.4 451.88 237.4 457.787C237.4 463.695 242.467 468.575 248.6 468.575C254.733 468.575 259.8 463.695 259.8 457.787C259.8 451.88 254.733 447 248.6 447Z" fill="#00D7D7"/>
<path d="M383.666 508.771L374.866 482.958C373.799 480.004 371.799 477.436 369.132 475.381C365.532 472.813 360.999 471.4 356.332 471.4H348.999C344.332 471.4 339.799 472.813 336.199 475.381C333.399 477.436 331.399 480.004 330.332 482.958L321.399 508.771C320.732 510.44 320.999 512.366 321.932 513.908C322.066 514.036 322.066 514.164 322.199 514.293C324.332 516.733 328.599 515.834 329.666 512.752L337.932 489.379C338.066 488.865 338.732 488.48 339.266 488.737C339.799 488.865 340.199 489.508 339.932 490.021L327.266 529.19C326.999 530.217 327.799 531.116 328.866 531.116H339.666C340.599 531.116 341.266 531.886 341.266 532.657V564.249C341.266 566.303 343.399 567.973 345.932 567.973C348.466 567.973 350.599 566.303 350.599 564.249V533.042C350.599 531.886 351.532 530.988 352.732 530.988C353.932 530.988 354.866 531.886 354.866 533.042V564.249C354.866 566.303 356.999 567.973 359.532 567.973C362.066 567.973 364.199 566.303 364.199 564.249V532.785C364.199 531.886 364.999 531.244 365.799 531.244H376.599C377.666 531.244 378.466 530.217 378.199 529.318L365.399 490.15C365.266 489.636 365.532 488.994 366.066 488.865C366.599 488.609 367.266 488.994 367.532 489.508L375.666 513.009C376.732 516.091 380.999 517.118 383.132 514.55C383.266 514.421 383.266 514.293 383.399 514.164C384.199 512.238 384.332 510.44 383.666 508.771Z" fill="#2A4AAC"/>
<path d="M352.6 447C346.467 447 341.4 451.88 341.4 457.787C341.4 463.695 346.467 468.575 352.6 468.575C358.733 468.575 363.8 463.695 363.8 457.787C363.8 451.88 358.733 447 352.6 447Z" fill="#2A4AAC"/>
<path d="M175.666 508.771L166.866 482.958C165.799 480.004 163.799 477.436 161.132 475.381C157.532 472.813 152.999 471.4 148.332 471.4H140.999C136.332 471.4 131.799 472.813 128.199 475.381C125.399 477.436 123.399 480.004 122.332 482.958L113.399 508.771C112.732 510.44 112.999 512.366 113.932 513.908C114.066 514.036 114.066 514.164 114.199 514.293C116.332 516.733 120.599 515.834 121.666 512.752L129.932 489.379C130.066 488.865 130.732 488.48 131.266 488.737C131.799 488.865 132.199 489.508 131.932 490.021L119.266 529.19C118.999 530.217 119.799 531.116 120.866 531.116H131.666C132.599 531.116 133.266 531.886 133.266 532.657V564.249C133.266 566.303 135.399 567.973 137.932 567.973C140.466 567.973 142.599 566.303 142.599 564.249V533.042C142.599 531.886 143.532 530.988 144.732 530.988C145.932 530.988 146.866 531.886 146.866 533.042V564.249C146.866 566.303 148.999 567.973 151.532 567.973C154.066 567.973 156.199 566.303 156.199 564.249V532.785C156.199 531.886 156.999 531.244 157.799 531.244H168.599C169.666 531.244 170.466 530.217 170.199 529.318L157.399 490.15C157.266 489.636 157.532 488.994 158.066 488.865C158.599 488.609 159.266 488.994 159.532 489.508L167.666 513.009C168.732 516.091 172.999 517.118 175.132 514.55C175.266 514.421 175.266 514.293 175.399 514.164C176.199 512.238 176.332 510.44 175.666 508.771Z" fill="#00D7D7"/>
<path d="M144.6 447C138.467 447 133.4 451.88 133.4 457.787C133.4 463.695 138.467 468.575 144.6 468.575C150.733 468.575 155.8 463.695 155.8 457.787C155.8 451.88 150.733 447 144.6 447Z" fill="#00D7D7"/>
<path d="M486.688 508.771L478.025 482.958C476.975 480.004 475.006 477.436 472.381 475.381C468.838 472.813 464.375 471.4 459.781 471.4H452.563C447.969 471.4 443.506 472.813 439.963 475.381C437.206 477.436 435.238 480.004 434.188 482.958L425.394 508.771C424.738 510.44 425 512.366 425.919 513.908C426.05 514.036 426.05 514.164 426.181 514.293C428.281 516.733 432.481 515.834 433.531 512.752L441.669 489.379C441.8 488.865 442.456 488.48 442.981 488.737C443.506 488.865 443.9 489.508 443.638 490.021L431.169 529.19C430.906 530.217 431.694 531.116 432.744 531.116H443.375C444.294 531.116 444.95 531.886 444.95 532.657V564.249C444.95 566.303 447.05 567.973 449.544 567.973C452.038 567.973 454.138 566.303 454.138 564.249V533.042C454.138 531.886 455.056 530.988 456.238 530.988C457.419 530.988 458.338 531.886 458.338 533.042V564.249C458.338 566.303 460.438 567.973 462.931 567.973C465.425 567.973 467.525 566.303 467.525 564.249V532.785C467.525 531.886 468.313 531.244 469.1 531.244H479.731C480.781 531.244 481.569 530.217 481.306 529.318L468.706 490.15C468.575 489.636 468.838 488.994 469.363 488.865C469.888 488.609 470.544 488.994 470.806 489.508L478.813 513.009C479.863 516.091 484.063 517.118 486.163 514.55C486.294 514.421 486.294 514.293 486.425 514.164C487.213 512.238 487.344 510.44 486.688 508.771Z" fill="#2A4AAC"/>
<path d="M456.106 447C450.069 447 445.081 451.88 445.081 457.787C445.081 463.695 450.069 468.575 456.106 468.575C462.144 468.575 467.131 463.695 467.131 457.787C467.131 451.88 462.144 447 456.106 447Z" fill="#2A4AAC"/>
<path d="M589.688 508.771L581.025 482.958C579.975 480.004 578.006 477.436 575.381 475.381C571.838 472.813 567.375 471.4 562.781 471.4H555.563C550.969 471.4 546.506 472.813 542.963 475.381C540.206 477.436 538.238 480.004 537.188 482.958L528.394 508.771C527.738 510.44 528 512.366 528.919 513.908C529.05 514.036 529.05 514.164 529.181 514.293C531.281 516.733 535.481 515.834 536.531 512.752L544.669 489.379C544.8 488.865 545.456 488.48 545.981 488.737C546.506 488.865 546.9 489.508 546.638 490.021L534.169 529.19C533.906 530.217 534.694 531.116 535.744 531.116H546.375C547.294 531.116 547.95 531.886 547.95 532.657V564.249C547.95 566.303 550.05 567.973 552.544 567.973C555.038 567.973 557.138 566.303 557.138 564.249V533.042C557.138 531.886 558.056 530.988 559.238 530.988C560.419 530.988 561.338 531.886 561.338 533.042V564.249C561.338 566.303 563.438 567.973 565.931 567.973C568.425 567.973 570.525 566.303 570.525 564.249V532.785C570.525 531.886 571.313 531.244 572.1 531.244H582.731C583.781 531.244 584.569 530.217 584.306 529.318L571.706 490.15C571.575 489.636 571.838 488.994 572.363 488.865C572.888 488.609 573.544 488.994 573.806 489.508L581.813 513.009C582.863 516.091 587.063 517.118 589.163 514.55C589.294 514.421 589.294 514.293 589.425 514.164C590.213 512.238 590.344 510.44 589.688 508.771Z" fill="#2A4AAC"/>
<path d="M559.106 447C553.069 447 548.081 451.88 548.081 457.787C548.081 463.695 553.069 468.575 559.106 468.575C565.144 468.575 570.131 463.695 570.131 457.787C570.131 451.88 565.144 447 559.106 447Z" fill="#2A4AAC"/>
<g clip-path="url(#clip0)">
<path d="M167.616 197.946C167.616 190.863 162.244 183.648 155.209 181.155C151.244 179.712 146.384 179.056 140.884 179.056C135.256 179.056 130.523 179.712 126.558 181.155C119.523 183.648 114.151 190.863 114.151 197.946V223.658C114.151 226.413 116.326 228.512 119.012 228.512C121.698 228.512 123.872 226.282 123.872 223.527V196.635C123.872 195.848 124.512 195.323 125.151 195.323C125.919 195.323 126.43 195.979 126.43 196.635V234.153V236.252V271.802C126.43 274.164 128.093 276 130.139 276H135.128C136.023 276 136.919 275.607 137.558 274.951C138.326 274.164 138.837 272.983 138.837 271.802L138.709 234.284C138.709 233.103 139.605 232.185 140.756 232.185C141.907 232.185 142.802 233.103 142.802 234.284L142.93 271.802C142.93 274.164 144.593 276 146.639 276H151.5C153.546 276 155.209 274.164 155.209 271.802V236.252V196.635C155.209 195.848 155.849 195.323 156.488 195.323C157.256 195.323 157.767 195.979 157.767 196.635V223.396C157.767 223.396 157.767 223.396 157.767 223.527C157.767 223.527 157.767 223.527 157.767 223.658C157.767 226.413 159.942 228.643 162.628 228.643C163.395 228.643 164.163 228.381 164.802 228.118C166.081 227.594 167.105 226.413 167.36 224.708C167.36 224.577 167.36 224.577 167.36 224.445C167.36 224.314 167.36 224.314 167.36 224.183C167.36 223.921 167.36 223.789 167.36 223.527V197.946H167.616Z" fill="#00D7D7"/>
<path d="M140.884 176.301C146.888 176.301 151.756 171.309 151.756 165.151C151.756 158.992 146.888 154 140.884 154C134.879 154 130.012 158.992 130.012 165.151C130.012 171.309 134.879 176.301 140.884 176.301Z" fill="#00D7D7"/>
</g>
<g clip-path="url(#clip1)">
<path d="M252.616 197.946C252.616 190.863 247.244 183.648 240.209 181.155C236.244 179.712 231.384 179.056 225.884 179.056C220.256 179.056 215.523 179.712 211.558 181.155C204.523 183.648 199.151 190.863 199.151 197.946V223.658C199.151 226.413 201.326 228.512 204.012 228.512C206.698 228.512 208.872 226.282 208.872 223.527V196.635C208.872 195.848 209.512 195.323 210.151 195.323C210.919 195.323 211.43 195.979 211.43 196.635V234.153V236.252V271.802C211.43 274.164 213.093 276 215.139 276H220.128C221.023 276 221.919 275.607 222.558 274.951C223.326 274.164 223.837 272.983 223.837 271.802L223.709 234.284C223.709 233.103 224.605 232.185 225.756 232.185C226.907 232.185 227.802 233.103 227.802 234.284L227.93 271.802C227.93 274.164 229.593 276 231.639 276H236.5C238.546 276 240.209 274.164 240.209 271.802V236.252V196.635C240.209 195.848 240.849 195.323 241.488 195.323C242.256 195.323 242.767 195.979 242.767 196.635V223.396C242.767 223.396 242.767 223.396 242.767 223.527C242.767 223.527 242.767 223.527 242.767 223.658C242.767 226.413 244.942 228.643 247.628 228.643C248.395 228.643 249.163 228.381 249.802 228.118C251.081 227.594 252.105 226.413 252.36 224.708C252.36 224.577 252.36 224.577 252.36 224.445C252.36 224.314 252.36 224.314 252.36 224.183C252.36 223.921 252.36 223.789 252.36 223.527V197.946H252.616Z" fill="#2A4AAC"/>
<path d="M225.884 176.301C231.888 176.301 236.756 171.309 236.756 165.151C236.756 158.992 231.888 154 225.884 154C219.879 154 215.012 158.992 215.012 165.151C215.012 171.309 219.879 176.301 225.884 176.301Z" fill="#2A4AAC"/>
</g>
<path d="M122.768 104V87.248H119.792L114.896 91.184L116.576 93.368L119.408 91.064V104H122.768ZM137.96 89.384V86.312H134.744V89.384H137.96ZM137.96 104V91.64H134.744V104H137.96ZM152.703 104V96.2C152.703 93.296 151.335 91.352 148.503 91.352C146.799 91.352 145.431 91.928 144.447 93.32H144.399V91.64H141.351V104H144.567V98C144.567 95.816 145.359 93.848 147.399 93.848C149.103 93.848 149.487 95.216 149.487 97.064V104H152.703ZM173.167 104V101.36H166.327C171.295 96.728 172.639 94.184 172.639 91.856C172.639 88.712 170.719 86.96 167.383 86.96C165.655 86.96 163.951 87.392 162.415 88.16L162.679 90.944C164.119 90.008 165.391 89.6 166.543 89.6C168.031 89.6 169.279 90.416 169.279 91.856C169.279 93.68 167.263 96.32 164.047 99.32L162.031 101.192V104H173.167ZM200.815 104V96.152C200.815 92.936 199.543 91.352 196.927 91.352C195.223 91.352 193.711 92.168 193.039 93.536C192.343 92 191.119 91.352 189.415 91.352C187.855 91.352 186.559 92.12 185.719 93.368H185.671V91.64H182.671V104H185.887V97.928C185.887 95.432 186.607 93.848 188.287 93.848C189.487 93.848 190.135 94.496 190.135 96.296V104H193.351V97.952C193.351 95.36 194.119 93.848 195.751 93.848C196.903 93.848 197.599 94.448 197.599 96.296V104H200.815ZM213.959 100.688C212.759 101.36 211.415 101.936 209.879 101.936C207.791 101.936 206.471 100.76 206.327 98.816H214.871C214.871 93.944 213.191 91.352 208.991 91.352C205.055 91.352 203.255 94.424 203.255 97.88C203.255 101.936 205.631 104.288 209.735 104.288C211.439 104.288 212.783 103.952 213.959 103.304V100.688ZM206.327 96.608C206.495 94.76 207.551 93.704 209.159 93.704C210.839 93.704 211.679 94.832 211.799 96.608H206.327ZM228.735 104V96.2C228.735 93.296 227.367 91.352 224.535 91.352C222.831 91.352 221.463 91.928 220.479 93.32H220.431V91.64H217.383V104H220.599V98C220.599 95.816 221.391 93.848 223.431 93.848C225.135 93.848 225.519 95.216 225.519 97.064V104H228.735Z" fill="white"/>
<path d="M110 327L577 327" stroke="#1C358B"/>
<defs>
<clipPath id="clip0">
<rect width="55" height="122" fill="white" transform="translate(113 154)"/>
</clipPath>
<clipPath id="clip1">
<rect width="55" height="122" fill="white" transform="translate(198 154)"/>
</clipPath>
</defs>
</svg>
