<svg width="563" height="1477" viewBox="0 0 563 1477" fill="none" xmlns="http://www.w3.org/2000/svg">
<path d="M342.614 87.211H420.037V0H324.674C218.925 0 197.838 96.9012 200.986 150.802V950.237H289.739V145.352C289.739 98.8392 322.471 87.211 342.614 87.211Z" fill="url(#paint0_linear)"/>
<path fill-rule="evenodd" clip-rule="evenodd" d="M201.003 842.084H289.732V920.011C289.732 941.987 294.742 956.32 304.311 967.427C316.043 955.039 328.185 946.615 338.452 940.608C376.11 918.573 413.247 919.95 442.791 930.472C470.937 940.496 492.981 958.905 505.938 974.496L506.144 974.744L506.348 974.996C558.266 1039.09 568.002 1114.89 560.987 1179.15C554.103 1242.21 530.906 1298.16 510.802 1331.94C426.293 1476.92 294.584 1470.11 234.782 1453.93C198.646 1444.16 171.545 1424.61 155.723 1396.82C141.131 1371.19 139.115 1343.58 143.503 1322.12C148.656 1290.58 170.733 1275.99 183.224 1270.07C191.045 1266.37 202.622 1262.85 209.288 1260.82L209.288 1260.82C211.008 1260.3 212.401 1259.88 213.318 1259.58C235.411 1252.31 246.912 1237.37 253.725 1219.1C261.12 1199.27 262.16 1176.69 260.849 1162.38C258.345 1141.95 257.222 1123.06 257.39 1105.58C255.353 1096.2 252.564 1091.25 248.382 1084.6C244.371 1078.23 240.624 1072.46 237.136 1067.09C212.682 1029.42 201.003 1011.43 201.003 944.57V842.084ZM361.289 987.199C409.661 958.895 454.002 990.623 470.126 1010.02C550.747 1109.55 503.718 1247.03 470.126 1303.34C401.599 1421.12 296.443 1416.16 246.405 1402.63C192.389 1388.02 186.611 1350.7 190.978 1332.44C192.336 1320.9 203.426 1317.52 218.445 1312.95C221.257 1312.09 224.208 1311.19 227.257 1310.19C304.429 1284.81 312.916 1197.2 308.885 1156.11C294.374 1039.24 333.264 1003.6 361.289 987.199Z" fill="#00D7D7"/>
<path d="M308.885 1156.11C294.374 1039.24 333.264 1003.6 361.289 987.2C409.661 958.896 454.002 990.624 470.126 1010.03C550.746 1109.55 503.718 1247.04 470.126 1303.34C401.599 1421.12 296.443 1416.16 246.405 1402.63C192.389 1388.02 186.611 1350.7 190.978 1332.44C192.591 1318.75 207.92 1316.54 227.257 1310.19C304.429 1284.81 312.916 1197.2 308.885 1156.11Z" fill="#009393"/>
<path d="M113.141 1271.32C166.062 1278.85 222.829 1257.96 237.288 1247.78L178.112 1318.77L160.439 1404.49L137.412 1374.48C130.45 1366.03 114.516 1354.96 100.192 1360.55C81.6725 1367.78 81.3921 1380.47 80.8148 1390.86V1477H0V1366.03C3.23259 1269.01 73.3495 1265.66 113.141 1271.32Z" fill="url(#paint1_linear)"/>
<path d="M234 993.001C238.75 1017 258 1047 282 1067C307 1089 310 1043 295 1018C295 1018 269 975.001 262 950.001C255 925.001 253.035 884.393 244 877.001C222 859.001 228.5 905.501 228 928.001C228 951.001 229.25 969.001 234 993.001Z" fill="white"/>
<path fill-rule="evenodd" clip-rule="evenodd" d="M486.859 1034.29C467.853 1036.5 446.859 1035.48 426.105 1028.25C425.49 1031.04 423.007 1033.12 420.037 1033.12C416.605 1033.12 413.823 1030.34 413.823 1026.91C413.823 1025.71 414.162 1024.59 414.75 1023.64C383.668 1009.21 356.983 1005.42 337.314 1006.07C316.079 1028.97 298.347 1071 308.906 1156.1C312.935 1197.19 304.453 1284.81 227.324 1310.18C224.277 1311.18 221.329 1312.08 218.519 1312.94L218.517 1312.94C203.506 1317.52 192.423 1320.9 191.066 1332.44C186.701 1350.7 192.476 1388.02 246.461 1402.63C296.47 1416.16 401.567 1421.12 470.056 1303.33C500.972 1251.48 543.275 1130.78 486.859 1034.29ZM385.455 1040.13C385.455 1046.19 380.54 1051.11 374.478 1051.11C368.415 1051.11 363.5 1046.19 363.5 1040.13C363.5 1034.07 368.415 1029.15 374.478 1029.15C380.54 1029.15 385.455 1034.07 385.455 1040.13ZM402.706 1079.62C406.466 1079.62 409.515 1076.57 409.515 1072.81C409.515 1069.05 406.466 1066 402.706 1066C398.946 1066 395.898 1069.05 395.898 1072.81C395.898 1076.57 398.946 1079.62 402.706 1079.62ZM352.787 1124.27C363.629 1124.27 372.419 1115.48 372.419 1104.63C372.419 1093.79 363.629 1085 352.787 1085C341.944 1085 333.154 1093.79 333.154 1104.63C333.154 1115.48 341.944 1124.27 352.787 1124.27Z" fill="#CA0D7B"/>
<defs>
<linearGradient id="paint0_linear" x1="236" y1="850" x2="236" y2="438" gradientUnits="userSpaceOnUse">
<stop stop-color="#00D7D7"/>
<stop offset="1" stop-color="#00D7D7" stop-opacity="0"/>
</linearGradient>
<linearGradient id="paint1_linear" x1="43.6374" y1="1396.39" x2="40.6868" y2="1477" gradientUnits="userSpaceOnUse">
<stop stop-color="#00D7D7"/>
<stop offset="1" stop-color="#00D7D7" stop-opacity="0"/>
</linearGradient>
</defs>
</svg>
