<svg width="439" height="1152" viewBox="0 0 439 1152" fill="none" xmlns="http://www.w3.org/2000/svg">
<path d="M267.153 173.375H327.524V116H253.165C170.707 116 154.265 179.75 156.719 215.211V741.146H225.924V211.625C225.924 181.025 251.447 173.375 267.153 173.375Z" fill="url(#paint0_linear)"/>
<path fill-rule="evenodd" clip-rule="evenodd" d="M156.732 656.791H225.919V717.571C225.919 734.711 229.826 745.891 237.287 754.553C246.435 744.891 255.903 738.321 263.908 733.636C293.272 716.449 322.23 717.524 345.267 725.73C367.214 733.549 384.402 747.906 394.506 760.067L394.667 760.261L394.826 760.457C435.309 810.444 442.901 869.568 437.431 919.687C432.063 968.875 413.975 1012.51 398.299 1038.86C332.403 1151.94 229.702 1146.62 183.072 1134.01C154.895 1126.39 133.762 1111.14 121.425 1089.46C110.048 1069.47 108.475 1047.94 111.897 1031.2C115.915 1006.6 133.13 995.222 142.869 990.605C148.967 987.715 157.995 984.971 163.193 983.391L163.194 983.391C164.535 982.983 165.62 982.653 166.335 982.418C183.562 976.752 192.53 965.1 197.843 950.849C203.609 935.38 204.419 917.768 203.397 906.606C201.445 890.676 200.569 875.941 200.7 862.305C199.112 854.989 196.937 851.127 193.676 845.945C190.549 840.976 187.627 836.474 184.907 832.283C165.839 802.905 156.732 788.874 156.732 736.726V656.791ZM281.715 769.975C319.434 747.899 354.009 772.645 366.582 787.778C429.445 865.4 392.775 972.636 366.582 1016.55C313.147 1108.42 231.152 1104.55 192.135 1093.99C150.016 1082.6 145.51 1053.49 148.916 1039.25C149.975 1030.25 158.622 1027.61 170.333 1024.04C172.526 1023.38 174.826 1022.67 177.204 1021.89C237.379 1002.1 243.997 933.765 240.854 901.719C229.538 810.566 259.863 782.765 281.715 769.975Z" fill="#00D7D7"/>
<path d="M240.854 901.721C229.538 810.569 259.863 782.767 281.715 769.977C319.433 747.901 354.009 772.648 366.582 787.78C429.445 865.403 392.775 972.638 366.582 1016.55C313.147 1108.42 231.152 1104.55 192.134 1094C150.016 1082.6 145.51 1053.49 148.915 1039.25C150.173 1028.57 162.126 1026.85 177.204 1021.89C237.379 1002.1 243.997 933.767 240.854 901.721Z" fill="#009393"/>
<path d="M88.2217 991.578C129.487 997.453 173.751 981.156 185.026 973.217L138.883 1028.58L125.103 1095.44L107.147 1072.04C101.718 1065.45 89.2937 1056.82 78.1251 1061.18C63.6842 1066.81 63.4656 1076.71 63.0155 1084.81V1152H0V1065.45C2.52062 989.776 57.1944 987.161 88.2217 991.578Z" fill="url(#paint1_linear)"/>
<path d="M185.677 364.709C164.273 418.71 181.793 446.242 201.212 447C207.253 446.242 211.137 442.449 211.568 437.519L212 296.069C212 292.656 209.756 286.21 200.78 287.726C191.804 289.243 191.574 304.791 192.581 312.376C196.724 332.399 189.704 355.607 185.677 364.709Z" fill="white"/>
<path fill-rule="evenodd" clip-rule="evenodd" d="M379.691 806.617C362.178 808.653 342.503 807.178 323.525 798.354C299.236 787.059 278.383 784.09 263.017 784.601C246.45 802.466 232.615 835.262 240.854 901.652C243.997 933.709 237.379 1002.07 177.204 1021.87C174.826 1022.65 172.526 1023.35 170.333 1024.02C158.621 1027.59 149.974 1030.23 148.915 1039.23C145.51 1053.48 150.016 1082.6 192.134 1094C231.152 1104.55 313.147 1108.42 366.582 1016.52C390.702 976.07 423.707 881.903 379.691 806.617ZM300.577 817.444C300.577 825.638 293.934 832.28 285.741 832.28C277.548 832.28 270.906 825.638 270.906 817.444C270.906 809.251 277.548 802.609 285.741 802.609C293.934 802.609 300.577 809.251 300.577 817.444ZM307.817 859.537C311.815 859.537 315.057 856.295 315.057 852.297C315.057 848.298 311.815 845.057 307.817 845.057C303.818 845.057 300.576 848.298 300.576 852.297C300.576 856.295 303.818 859.537 307.817 859.537ZM300.577 893.702C300.577 896.379 298.406 898.55 295.729 898.55C293.051 898.55 290.881 896.379 290.881 893.702C290.881 891.025 293.051 888.854 295.729 888.854C298.406 888.854 300.577 891.025 300.577 893.702ZM270.283 876.816C276.088 876.816 280.794 872.11 280.794 866.305C280.794 860.5 276.088 855.794 270.283 855.794C264.478 855.794 259.772 860.5 259.772 866.305C259.772 872.11 264.478 876.816 270.283 876.816Z" fill="#CA0D7B"/>
<defs>
<linearGradient id="paint0_linear" x1="196.5" y1="428.573" x2="198.02" y2="224.011" gradientUnits="userSpaceOnUse">
<stop stop-color="#00D7D7"/>
<stop offset="1" stop-color="#00D7D7" stop-opacity="0"/>
</linearGradient>
<linearGradient id="paint1_linear" x1="34.0263" y1="1089.13" x2="31.7244" y2="1152" gradientUnits="userSpaceOnUse">
<stop stop-color="#00D7D7"/>
<stop offset="1" stop-color="#00D7D7" stop-opacity="0"/>
</linearGradient>
</defs>
</svg>
