<svg width="1920" height="278" viewBox="0 0 1920 278" fill="none" xmlns="http://www.w3.org/2000/svg">
<rect y="104" width="1920" height="174" fill="url(#paint0_linear)"/>
<g opacity="0.5">
<path d="M49 50.8594L49 278" stroke="#0A0555" stroke-width="3"/>
<path d="M332.713 50.8594L332.713 278" stroke="#0A0555" stroke-width="3"/>
<path d="M616.713 50.8594L616.713 278" stroke="#0A0555" stroke-width="3"/>
<path d="M901.081 50.8594L901.081 278" stroke="#0A0555" stroke-width="3"/>
<path d="M1185.08 50.8594L1185.08 278" stroke="#0A0555" stroke-width="3"/>
<path d="M1469.26 50.8594L1469.26 278" stroke="#0A0555" stroke-width="3"/>
<path d="M1753.45 50.8594L1753.45 278" stroke="#0A0555" stroke-width="3"/>
<path d="M221 50.8594L221 278" stroke="#0A0555" stroke-width="3"/>
<path d="M504.713 50.8594L504.713 278" stroke="#0A0555" stroke-width="3"/>
<path d="M788.713 50.8594L788.713 278" stroke="#0A0555" stroke-width="3"/>
<path d="M1073.08 50.8594L1073.08 278" stroke="#0A0555" stroke-width="3"/>
<path d="M1357.08 50.8594L1357.08 278" stroke="#0A0555" stroke-width="3"/>
<path d="M1641.26 50.8594L1641.26 278" stroke="#0A0555" stroke-width="3"/>
<path d="M277 50.8594L277 278" stroke="#0A0555" stroke-width="3"/>
<path d="M560.713 50.8594L560.713 278" stroke="#0A0555" stroke-width="3"/>
<path d="M844.713 50.8594L844.713 278" stroke="#0A0555" stroke-width="3"/>
<path d="M1129.08 50.8594L1129.08 278" stroke="#0A0555" stroke-width="3"/>
<path d="M1413.08 50.8594L1413.08 278" stroke="#0A0555" stroke-width="3"/>
<path d="M1697.26 50.8594L1697.26 278" stroke="#0A0555" stroke-width="3"/>
<path d="M108 50.8594L108 278" stroke="#0A0555" stroke-width="3"/>
<path d="M391.713 50.8594L391.713 278" stroke="#0A0555" stroke-width="3"/>
<path d="M675.713 50.8594L675.713 278" stroke="#0A0555" stroke-width="3"/>
<path d="M960.081 50.8594L960.081 278" stroke="#0A0555" stroke-width="3"/>
<path d="M1244.08 50.8594L1244.08 278" stroke="#0A0555" stroke-width="3"/>
<path d="M1528.26 50.8594L1528.26 278" stroke="#0A0555" stroke-width="3"/>
<path d="M1812.45 50.8594L1812.45 278" stroke="#0A0555" stroke-width="3"/>
<path d="M166 50.8594L166 278" stroke="#0A0555" stroke-width="3"/>
<path d="M449.713 50.8594L449.713 278" stroke="#0A0555" stroke-width="3"/>
<path d="M733.713 50.8594L733.713 278" stroke="#0A0555" stroke-width="3"/>
<path d="M1018.08 50.8594L1018.08 278" stroke="#0A0555" stroke-width="3"/>
<path d="M1302.08 50.8594L1302.08 278" stroke="#0A0555" stroke-width="3"/>
<path d="M1586.26 50.8594L1586.26 278" stroke="#0A0555" stroke-width="3"/>
<path d="M1870.45 50.8594L1870.45 278" stroke="#0A0555" stroke-width="3"/>
<path d="M52 50.8594L52 278" stroke="#3D63C6" stroke-width="2"/>
<path d="M335.713 50.8594L335.713 278" stroke="#3D63C6" stroke-width="2"/>
<path d="M619.713 50.8594L619.713 278" stroke="#3D63C6" stroke-width="2"/>
<path d="M904.081 50.8594L904.081 278" stroke="#3D63C6" stroke-width="2"/>
<path d="M1188.08 50.8594L1188.08 278" stroke="#3D63C6" stroke-width="2"/>
<path d="M1472.26 50.8594L1472.26 278" stroke="#3D63C6" stroke-width="2"/>
<path d="M1756.45 50.8594L1756.45 278" stroke="#3D63C6" stroke-width="2"/>
<path d="M224 50.8594L224 278" stroke="#3D63C6" stroke-width="2"/>
<path d="M507.713 50.8594L507.713 278" stroke="#3D63C6" stroke-width="2"/>
<path d="M791.713 50.8594L791.713 278" stroke="#3D63C6" stroke-width="2"/>
<path d="M1076.08 50.8594L1076.08 278" stroke="#3D63C6" stroke-width="2"/>
<path d="M1360.08 50.8594L1360.08 278" stroke="#3D63C6" stroke-width="2"/>
<path d="M1644.26 50.8594L1644.26 278" stroke="#3D63C6" stroke-width="2"/>
<path d="M280 50.8594L280 278" stroke="#3D63C6" stroke-width="2"/>
<path d="M563.713 50.8594L563.713 278" stroke="#3D63C6" stroke-width="2"/>
<path d="M847.713 50.8594L847.713 278" stroke="#3D63C6" stroke-width="2"/>
<path d="M1132.08 50.8594L1132.08 278" stroke="#3D63C6" stroke-width="2"/>
<path d="M1416.08 50.8594L1416.08 278" stroke="#3D63C6" stroke-width="2"/>
<path d="M1700.26 50.8594L1700.26 278" stroke="#3D63C6" stroke-width="2"/>
<path d="M111 50.8594L111 278" stroke="#3D63C6" stroke-width="2"/>
<path d="M394.713 50.8594L394.713 278" stroke="#3D63C6" stroke-width="2"/>
<path d="M678.713 50.8594L678.713 278" stroke="#3D63C6" stroke-width="2"/>
<path d="M963.081 50.8594L963.081 278" stroke="#3D63C6" stroke-width="2"/>
<path d="M1247.08 50.8594L1247.08 278" stroke="#3D63C6" stroke-width="2"/>
<path d="M1531.26 50.8594L1531.26 278" stroke="#3D63C6" stroke-width="2"/>
<path d="M1815.45 50.8594L1815.45 278" stroke="#3D63C6" stroke-width="2"/>
<path d="M169 50.8594L169 278" stroke="#3D63C6" stroke-width="2"/>
<path d="M452.713 50.8594L452.713 278" stroke="#3D63C6" stroke-width="2"/>
<path d="M736.713 50.8594L736.713 278" stroke="#3D63C6" stroke-width="2"/>
<path d="M1021.08 50.8594L1021.08 278" stroke="#3D63C6" stroke-width="2"/>
<path d="M1305.08 50.8594L1305.08 278" stroke="#3D63C6" stroke-width="2"/>
<path d="M1589.26 50.8594L1589.26 278" stroke="#3D63C6" stroke-width="2"/>
<path d="M1873.45 50.8594L1873.45 278" stroke="#3D63C6" stroke-width="2"/>
</g>
<rect width="1920" height="104" fill="url(#paint1_linear)"/>
<rect y="70" width="1920" height="34" fill="#2643AA"/>
<defs>
<linearGradient id="paint0_linear" x1="960" y1="278" x2="960" y2="104" gradientUnits="userSpaceOnUse">
<stop stop-color="#253EB0"/>
<stop offset="0.765625" stop-color="#182C8C"/>
<stop offset="1" stop-color="#112275"/>
</linearGradient>
<linearGradient id="paint1_linear" x1="960" y1="0" x2="960" y2="144" gradientUnits="userSpaceOnUse">
<stop stop-color="#5B82E8"/>
<stop offset="1" stop-color="#27419A"/>
</linearGradient>
</defs>
</svg>
