<svg width="200" height="230" viewBox="0 0 200 230" fill="none" xmlns="http://www.w3.org/2000/svg">
<path fill-rule="evenodd" clip-rule="evenodd" d="M99.4997 181.393C149.333 181.393 189.731 141.025 189.731 91.2283C189.731 41.4319 149.333 1.064 99.4997 1.064C49.6664 1.064 9.26855 41.4319 9.26855 91.2283C9.26855 141.025 49.6664 181.393 99.4997 181.393ZM120.797 204.32L104.179 225.214C101.782 228.229 97.217 228.229 94.8196 225.214L78.2022 204.32H120.797Z" fill="#27B5BC"/>
<path fill-rule="evenodd" clip-rule="evenodd" d="M164.108 134.985C172.614 122.519 177.587 107.454 177.587 91.2283C177.587 48.2789 142.744 13.4616 99.7628 13.4616C56.7816 13.4616 21.9385 48.2789 21.9385 91.2283C21.9385 107.454 26.9113 122.519 35.4172 134.985H164.108Z" fill="#030F81"/>
<rect x="22.1318" y="134.985" width="155" height="70" rx="15" fill="#27B5BC"/>
<path d="M72.4312 166.225C73.7112 166.225 74.9312 165.965 75.7712 165.525L75.0312 162.525C74.4112 162.885 73.5312 163.225 72.4312 163.225C70.4112 163.225 68.5712 161.785 68.5712 158.985C68.5712 156.185 70.4112 154.745 72.4312 154.745C73.5312 154.745 74.4112 155.085 75.0312 155.445L75.7712 152.445C74.9312 152.005 73.7112 151.745 72.4312 151.745C68.1512 151.745 65.1312 154.645 65.1312 158.985C65.1312 163.325 68.1512 166.225 72.4312 166.225ZM87.0225 157.305H82.2625V151.985H78.8225V165.985H82.2625V160.225H87.0225V165.985H90.4625V151.985H87.0225V157.305ZM97.1 165.985V151.985H93.66V165.985H97.1ZM103.734 151.985H100.294V165.985H109.674V163.065H103.734V151.985ZM116.169 151.985H112.729V165.985H122.109V163.065H116.169V151.985ZM130.602 151.985L127.922 156.905L125.242 151.985H121.382L126.202 160.065V165.985H129.642V160.065L134.462 151.985H130.602ZM77.6818 173.985H66.4418V176.905H70.3418V187.985H73.7818V176.905H77.6818V173.985ZM92.2844 187.985L87.4444 173.985H83.0844L78.2444 187.985H81.9244L82.6644 185.585H87.8644L88.6044 187.985H92.2844ZM85.2644 177.265L87.0244 182.945H83.5044L85.2644 177.265ZM100.941 188.225C102.221 188.225 103.441 187.965 104.281 187.525L103.541 184.525C102.921 184.885 102.041 185.225 100.941 185.225C98.921 185.225 97.081 183.785 97.081 180.985C97.081 178.185 98.921 176.745 100.941 176.745C102.041 176.745 102.921 177.085 103.541 177.445L104.281 174.445C103.441 174.005 102.221 173.745 100.941 173.745C96.661 173.745 93.641 176.645 93.641 180.985C93.641 185.325 96.661 188.225 100.941 188.225ZM113.311 188.225C117.571 188.225 120.331 185.185 120.331 180.985C120.331 176.785 117.571 173.745 113.311 173.745C109.051 173.745 106.291 176.785 106.291 180.985C106.291 185.185 109.051 188.225 113.311 188.225ZM113.311 185.225C111.231 185.225 109.731 183.645 109.731 180.985C109.731 178.325 111.231 176.745 113.311 176.745C115.391 176.745 116.891 178.325 116.891 180.985C116.891 183.645 115.391 185.225 113.311 185.225ZM127.483 188.225C130.823 188.225 132.783 186.585 132.783 183.745C132.783 181.445 131.443 180.345 129.303 179.625C127.403 178.985 126.663 178.465 126.663 177.685C126.663 176.985 127.343 176.585 128.363 176.585C129.403 176.585 130.483 176.985 131.543 177.505L132.263 174.585C130.883 173.965 129.863 173.745 128.383 173.745C125.363 173.745 123.303 175.285 123.303 177.805C123.303 179.805 124.483 181.185 126.843 182.025C128.803 182.725 129.343 183.145 129.343 184.005C129.343 184.785 128.663 185.305 127.543 185.305C126.283 185.305 124.663 184.745 123.703 183.805L122.923 186.945C123.863 187.645 125.663 188.225 127.483 188.225Z" fill="white"/>
<path d="M95.7663 49.3155C70.072 58.8882 62.5553 78.8571 62.0087 87.645C59.6939 105.545 68.1816 113.911 72.7147 115.857L90.6545 111.577L130.488 51.0666C118.837 44.607 104.278 46.1445 95.7663 49.3155Z" fill="#B38612"/>
<path d="M107.88 47.7381C111.096 48.8869 112.569 52.8345 112.904 54.6646L112.402 58.2124C99.6443 71.0801 73.409 96.4944 70.5281 95.2105C67.6472 93.9265 65.4755 91.6346 64.7498 90.6491C62.7399 87.473 64.5822 85.3274 65.7547 84.6517C67.5636 83.0974 67.0109 80.5689 66.5084 79.499C65.7714 78.1474 65.0289 75.8949 64.7498 74.9376C64.0798 69.9369 67.9322 68.1236 69.9421 67.842C72.086 67.0311 72.5103 63.5059 72.4545 61.8446C72.4545 57.4866 74.1852 55.3686 75.2181 54.6646C76.8261 53.5834 81.0246 55.1152 82.9229 56.0162C85.3348 57.0974 86.8311 54.8899 87.2778 53.651C88.4837 48.6504 90.7952 46.9497 91.8001 46.7244C94.614 45.9135 97.2716 48.6954 98.2487 50.1877C99.0582 51.2014 101.079 52.6205 102.687 50.1877C104.295 47.755 106.819 47.541 107.88 47.7381Z" fill="url(#paint0_linear)"/>
<path d="M74.7594 80.446C75.2224 77.0995 77.653 76.9114 78.8104 77.2357C80.1994 77.9361 82.4754 77.5275 83.4398 77.2357L95.689 75.4846L114.883 81.0298L113.725 99.8054L92.3132 109.534C87.8123 110.701 77.7301 113.055 73.4091 113.133C69.0882 113.211 65.1624 108.561 64.4393 105.253C62.7418 101.673 65.1467 99.4811 66.5613 98.8325C68.4831 97.9515 67.9116 96.1086 67.5257 95.4276C67.2171 94.6494 66.7542 93.1577 66.5613 92.5091C66.0212 90.33 67.6226 89.6393 68.9725 88.8124C70.3225 87.9855 69.7762 86.3479 69.744 85.6021C69.6669 82.8781 71.4317 82.9754 73.4091 82.9754C75.338 82.5376 74.7273 81.0946 74.7594 80.446Z" fill="url(#paint1_linear)"/>
<path d="M87.229 60.9074C88.4023 59.3127 90.2822 59.7952 91.0755 60.2358L95.9819 66.2418L89.0642 80.1322L76.7836 86.3591L71.7552 83.1542C70.9151 82.6754 70.4757 81.5534 70.3609 81.0522C70.2194 79.826 71.4394 79.474 72.0671 79.4513C73.0821 79.3436 72.9294 78.2873 72.7262 77.7726C72.0611 76.7073 72.0727 75.1359 72.1617 74.4833C72.7187 72.5097 75.5038 72.7127 76.8267 73.0608C77.6989 73.3255 79.0833 72.4931 79.6665 72.0438C80.621 71.1822 80.2936 69.6757 80.0106 69.0302C79.3751 67.3343 79.5903 65.7447 79.7774 65.1619C80.1478 63.7073 82.6633 64.0789 83.8747 64.4465C85.1714 64.7761 85.9544 63.8518 86.1838 63.3484L87.229 60.9074Z" fill="#A00128"/>
<path d="M101.713 42.3996C103.547 41.1203 105.389 42.3283 106.08 43.0922L109.173 51.3351L96.74 63.6901L81.3223 65.857L77.0869 60.5732C76.3589 59.7512 76.2928 58.3865 76.3507 57.8069C76.6416 56.44 78.077 56.5107 78.7583 56.7168C79.8857 56.9741 80.2692 55.9941 80.0712 55.1587C79.6724 53.476 80.3225 52.0911 80.6535 51.424C81.9633 49.5121 84.8767 50.7527 86.1697 51.6119C87.0095 52.2161 88.7947 51.832 89.5823 51.5644C90.917 50.991 91.1098 49.2553 91.0393 48.459C90.9701 46.407 91.7748 44.7813 92.1858 44.225C93.1083 42.8012 95.6717 44.1237 96.838 44.9628C98.1097 45.7926 99.2831 45.0889 99.7108 44.6334L101.713 42.3996Z" fill="#D91242"/>
<ellipse cx="80.5781" cy="97.2327" rx="8.79198" ry="8.86788" fill="#FF3295"/>
<ellipse cx="81.6076" cy="65.7486" rx="6.85565" ry="6.91484" fill="#FF3295"/>
<path d="M125.204 42.5057C128.907 43.8287 130.605 48.3751 130.991 50.4829L130.412 54.5688C115.719 69.3882 85.5046 98.6574 82.1867 97.1787C78.8688 95.7 76.3677 93.0604 75.5319 91.9255C73.2171 88.2676 75.339 85.7966 76.6892 85.0184C78.7726 83.2284 78.136 80.3163 77.5573 79.0841C76.7085 77.5276 75.8534 74.9334 75.5319 73.8308C74.7603 68.0717 79.197 65.9833 81.5118 65.659C83.9809 64.7251 84.4696 60.6652 84.4052 58.7519C84.0966 54.0824 86.3986 51.2936 87.5881 50.4829C89.44 49.2377 94.2753 51.0017 96.4615 52.0394C99.2393 53.2846 100.963 50.7423 101.477 49.3155C102.866 43.5563 105.528 41.5977 106.685 41.3383C109.926 40.4043 112.987 43.6082 114.112 45.3269C115.044 46.4943 117.372 48.1286 119.224 45.3269C121.076 42.5251 123.982 42.2787 125.204 42.5057Z" fill="url(#paint2_linear)"/>
<path d="M81.3663 83.4313C83.2181 63.1964 94.7883 53.5391 104.9 50.5496C131.752 42.6114 142.966 58.5269 145.216 67.4769C149.074 79.9291 143.609 88.2306 140.394 90.8248C125.27 99.2301 101.042 110.022 90.8184 114.367C84.7999 116.702 78.7943 117.675 76.5438 117.869C59.4142 119.737 59.6814 99.6919 61.9319 88.8611C61.9319 112.365 71.657 114.238 76.5438 112.811C82.0993 110.787 81.8775 105.691 81.3663 102.11C80.6792 97.296 80.9805 88.1658 81.3663 83.4313Z" fill="url(#paint3_linear)"/>
<ellipse cx="98.6559" cy="75.29" rx="2.60416" ry="2.62664" fill="#BD9223"/>
<ellipse cx="106.059" cy="65.7486" rx="1.39853" ry="1.4106" fill="#BD9223"/>
<path d="M50.5309 79.5483C59.9785 75.3997 68.4514 82.9706 67.7938 85.8796C67.2722 88.1871 59.5868 86.732 55.1997 90.1204C51.1191 93.272 47.9211 90.6256 47.0439 88.076C45.5441 83.7169 48.0808 80.6243 50.5309 79.5483Z" fill="#DA0A3C"/>
<ellipse cx="119.434" cy="61.9297" rx="3.06945" ry="3.09596" fill="#BD9223"/>
<ellipse cx="123.564" cy="83.7541" rx="2.51424" ry="2.53594" fill="#BD9223"/>
<ellipse cx="98.1343" cy="91.3371" rx="2.94682" ry="2.97226" fill="#BD9223"/>
<ellipse cx="132.751" cy="69.9631" rx="1.75952" ry="1.77471" fill="#BD9223"/>
<defs>
<linearGradient id="paint0_linear" x1="88.38" y1="46.5792" x2="88.38" y2="95.2573" gradientUnits="userSpaceOnUse">
<stop stop-color="#15D098"/>
<stop offset="1" stop-color="#13926C"/>
</linearGradient>
<linearGradient id="paint1_linear" x1="69.0687" y1="75.4846" x2="89.6396" y2="112.986" gradientUnits="userSpaceOnUse">
<stop stop-color="#F81249"/>
<stop offset="1" stop-color="#7A001E"/>
</linearGradient>
<linearGradient id="paint2_linear" x1="102.746" y1="41.171" x2="112.178" y2="69.1531" gradientUnits="userSpaceOnUse">
<stop stop-color="#35F8BD"/>
<stop offset="1" stop-color="#0EA578"/>
</linearGradient>
<linearGradient id="paint3_linear" x1="106.971" y1="50.766" x2="116.98" y2="104.068" gradientUnits="userSpaceOnUse">
<stop stop-color="#FFE8AC"/>
<stop offset="1" stop-color="#DA9748"/>
</linearGradient>
</defs>
</svg>
