<svg width="217" height="231" viewBox="0 0 217 231" fill="none" xmlns="http://www.w3.org/2000/svg">
<path fill-rule="evenodd" clip-rule="evenodd" d="M108.368 181.521C158.201 181.521 198.599 141.153 198.599 91.3563C198.599 41.5599 158.201 1.19196 108.368 1.19196C58.5346 1.19196 18.1367 41.5599 18.1367 91.3563C18.1367 141.153 58.5346 181.521 108.368 181.521ZM129.665 204.448L113.048 225.342C110.65 228.357 106.085 228.357 103.688 225.342L87.0704 204.448H129.665Z" fill="#27B5BC"/>
<path fill-rule="evenodd" clip-rule="evenodd" d="M172.977 135.113C181.482 122.647 186.455 107.582 186.455 91.3563C186.455 48.407 151.612 13.5896 108.631 13.5896C65.6498 13.5896 30.8066 48.407 30.8066 91.3563C30.8066 107.582 35.7795 122.647 44.2853 135.113H172.977Z" fill="#030F81"/>
<rect y="135.113" width="217" height="70" rx="15" fill="#27B5BC"/>
<path d="M57.3145 152.113H53.0945L50.6145 161.433L48.1345 152.113H43.9145L42.7345 166.113H45.9745L46.6745 157.493L49.1745 166.113H52.0545L54.5545 157.493L55.2545 166.113H58.4945L57.3145 152.113ZM64.9615 166.113V152.113H61.5215V166.113H64.9615ZM76.8359 160.053L71.9959 152.113H68.1559V166.113H71.5159V157.073L77.1559 166.113H80.1959V152.113H76.8359V160.053ZM94.1835 152.113H82.9435V155.033H86.8435V166.113H90.2835V155.033H94.1835V152.113ZM109.982 166.353C111.262 166.353 112.482 166.093 113.322 165.653L112.582 162.653C111.962 163.013 111.082 163.353 109.982 163.353C107.962 163.353 106.122 161.913 106.122 159.113C106.122 156.313 107.962 154.873 109.982 154.873C111.082 154.873 111.962 155.213 112.582 155.573L113.322 152.573C112.482 152.133 111.262 151.873 109.982 151.873C105.702 151.873 102.682 154.773 102.682 159.113C102.682 163.453 105.702 166.353 109.982 166.353ZM124.573 157.433H119.813V152.113H116.373V166.113H119.813V160.353H124.573V166.113H128.013V152.113H124.573V157.433ZM137.971 166.353C142.231 166.353 144.991 163.313 144.991 159.113C144.991 154.913 142.231 151.873 137.971 151.873C133.711 151.873 130.951 154.913 130.951 159.113C130.951 163.313 133.711 166.353 137.971 166.353ZM137.971 163.353C135.891 163.353 134.391 161.773 134.391 159.113C134.391 156.453 135.891 154.873 137.971 154.873C140.051 154.873 141.551 156.453 141.551 159.113C141.551 161.773 140.051 163.353 137.971 163.353ZM154.963 166.353C156.243 166.353 157.463 166.093 158.303 165.653L157.563 162.653C156.943 163.013 156.063 163.353 154.963 163.353C152.943 163.353 151.103 161.913 151.103 159.113C151.103 156.313 152.943 154.873 154.963 154.873C156.063 154.873 156.943 155.213 157.563 155.573L158.303 152.573C157.463 152.133 156.243 151.873 154.963 151.873C150.683 151.873 147.663 154.773 147.663 159.113C147.663 163.453 150.683 166.353 154.963 166.353ZM167.333 166.353C171.593 166.353 174.353 163.313 174.353 159.113C174.353 154.913 171.593 151.873 167.333 151.873C163.073 151.873 160.313 154.913 160.313 159.113C160.313 163.313 163.073 166.353 167.333 166.353ZM167.333 163.353C165.253 163.353 163.753 161.773 163.753 159.113C163.753 156.453 165.253 154.873 167.333 154.873C169.413 154.873 170.913 156.453 170.913 159.113C170.913 161.773 169.413 163.353 167.333 163.353ZM57.2107 188.113V174.113H53.7707V188.113H57.2107ZM67.4451 188.353C68.7251 188.353 69.9451 188.093 70.7851 187.653L70.0451 184.653C69.4251 185.013 68.5451 185.353 67.4451 185.353C65.4251 185.353 63.5851 183.913 63.5851 181.113C63.5851 178.313 65.4251 176.873 67.4451 176.873C68.5451 176.873 69.4251 177.213 70.0451 177.573L70.7851 174.573C69.9451 174.133 68.7251 173.873 67.4451 173.873C63.1651 173.873 60.1451 176.773 60.1451 181.113C60.1451 185.453 63.1651 188.353 67.4451 188.353ZM83.3363 174.113H73.8363V188.113H83.3363V185.313H77.2763V182.333H81.3163L81.9763 179.633H77.2763V176.913H83.3363V174.113ZM99.5162 188.353C100.796 188.353 102.016 188.093 102.856 187.653L102.116 184.653C101.496 185.013 100.616 185.353 99.5162 185.353C97.4962 185.353 95.6562 183.913 95.6562 181.113C95.6562 178.313 97.4962 176.873 99.5162 176.873C100.616 176.873 101.496 177.213 102.116 177.573L102.856 174.573C102.016 174.133 100.796 173.873 99.5162 173.873C95.2362 173.873 92.2162 176.773 92.2162 181.113C92.2162 185.453 95.2362 188.353 99.5162 188.353ZM115.407 183.713C115.127 182.553 114.587 181.993 113.767 181.753C115.267 181.293 116.407 180.113 116.407 178.293C116.407 175.533 114.607 174.033 110.747 174.033C108.707 174.033 107.107 174.253 105.907 174.433V188.113H109.347V182.733C110.947 182.553 111.747 182.933 112.067 184.193L113.067 188.113H116.507L115.407 183.713ZM109.347 180.193V176.733C109.907 176.653 110.367 176.633 110.967 176.633C112.127 176.633 112.967 177.233 112.967 178.353C112.967 179.453 112.347 180.073 110.867 180.133L109.347 180.193ZM129.014 174.113H119.514V188.113H129.014V185.313H122.954V182.333H126.994L127.654 179.633H122.954V176.913H129.014V174.113ZM145.405 188.113L140.565 174.113H136.205L131.365 188.113H135.045L135.785 185.713H140.985L141.725 188.113H145.405ZM138.385 177.393L140.145 183.073H136.625L138.385 177.393ZM162.222 174.113H158.002L155.522 183.433L153.042 174.113H148.822L147.642 188.113H150.882L151.582 179.493L154.082 188.113H156.962L159.462 179.493L160.162 188.113H163.402L162.222 174.113Z" fill="white"/>
<path fill-rule="evenodd" clip-rule="evenodd" d="M75.5664 69.2454C73.9096 69.2454 72.5664 70.5886 72.5664 72.2454V82.4521C72.5664 90.5865 77.4961 97.9598 85.3529 100.067C89.6752 101.226 94.7378 102.341 99.9615 102.978L93.2233 114.535C92.446 115.868 93.4077 117.542 94.9511 117.542H121.854C123.398 117.542 124.36 115.868 123.582 114.535L116.844 102.978C122.068 102.341 127.131 101.226 131.453 100.067C139.31 97.9598 144.24 90.5865 144.24 82.4521V72.2454C144.24 70.5886 142.896 69.2454 141.24 69.2454H75.5664Z" fill="url(#paint0_linear)"/>
<path fill-rule="evenodd" clip-rule="evenodd" d="M103.034 62.2891C105.261 52.925 113.753 45.9548 123.889 45.9548C134.026 45.9548 142.518 52.9255 144.745 62.29C146.742 62.3345 148.348 63.9677 148.348 65.9759C148.348 67.8375 146.961 69.4072 145.111 69.6146C142.542 69.9027 139.165 70.25 137.812 70.25C136.518 70.25 134.455 70.089 132.388 69.9278C130.761 69.8009 129.132 69.6739 127.875 69.625C119.192 69.2873 108.362 69.2337 102.91 69.2305C100.99 69.2294 99.4307 67.674 99.4307 65.7537C99.4307 63.8403 100.982 62.2891 102.895 62.2891H103.034Z" fill="url(#paint1_linear)"/>
<path fill-rule="evenodd" clip-rule="evenodd" d="M73.129 61.4174C75.6055 49.8708 85.9608 41.2082 98.3594 41.2082C110.759 41.2082 121.115 49.8722 123.59 61.4201C125.934 61.518 127.805 63.4494 127.805 65.8177C127.805 67.8289 126.443 69.5914 124.481 70.0343C122.988 70.3714 121.424 70.6874 120.812 70.6874C120.135 70.6874 120.133 72.3148 120.13 74.3896C120.127 76.3364 120.124 78.6772 119.562 80.4374C118.402 84.0737 115.287 84.1087 113.937 80.9999C113.347 79.6411 113.822 77.3627 114.27 75.215C114.846 72.4492 115.378 69.9004 113.531 69.8124C110.25 69.6562 109.266 70.3824 108.843 71.2499C108.221 72.5261 108.105 73.466 108.01 74.2398C107.915 75.0075 107.841 75.6118 107.312 76.2187C106.744 76.8702 105.814 76.9418 104.906 76.2187C104.24 75.689 104.01 74.7065 103.775 73.7077C103.47 72.4084 103.158 71.0815 101.875 70.6874C95.812 68.8265 86.8745 69.8124 83.312 70.6874C81.1098 71.2283 81.1765 72.9057 81.2532 74.8373C81.3006 76.0305 81.3518 77.3207 80.8745 78.4999C79.6245 81.5882 75.6245 80.0624 76.062 75.9999C76.4995 71.9374 76.2495 69.8124 73.937 69.8124C73.4244 69.8124 72.8921 69.7841 72.3742 69.74C70.3416 69.5669 68.9141 67.7773 68.9141 65.7373C68.9141 63.3863 70.7916 61.4738 73.129 61.4174Z" fill="url(#paint2_linear)"/>
<path d="M93.4849 45.6531L94.1169 46.3832C94.5839 46.9227 94.3518 47.7637 93.6742 47.9873L91.7363 48.627C91.0893 48.8406 90.4229 48.3587 90.4229 47.6774V46.8249C90.4229 46.4148 90.6733 46.0462 91.0546 45.8952L92.3606 45.3779C92.7557 45.2213 93.2067 45.3317 93.4849 45.6531Z" fill="#140E73"/>
<path d="M95.6435 60.974L94.617 62.5495C94.2318 63.1407 93.3679 63.1544 92.9588 62.5759L91.2543 60.1656C90.7863 59.5039 91.257 58.5941 92.0674 58.5941L94.05 58.5941C94.3359 58.5941 94.6088 58.716 94.7998 58.929L95.5483 59.7637C95.8504 60.1006 95.8894 60.5966 95.6435 60.974Z" fill="#140E73"/>
<path d="M100.865 42.2769L99.4391 44.466C99.0539 45.0571 98.1901 45.0708 97.781 44.4923L95.1559 40.7804C94.7606 40.2214 95.03 39.4429 95.6858 39.2498L97.9793 38.5741C98.3706 38.4588 98.7939 38.5923 99.0491 38.9115L100.807 41.11C101.076 41.447 101.1 41.9171 100.865 42.2769Z" fill="#140E73"/>
<path d="M100.562 53.1549L100.587 54.1226C100.606 54.8298 99.8943 55.3312 99.2266 55.0815L97.3177 54.3677C96.6768 54.1281 96.4622 53.3365 96.8953 52.8092L97.4427 52.1427C97.7024 51.8265 98.13 51.6986 98.5222 51.8197L99.8584 52.2323C100.268 52.3589 100.551 52.7296 100.562 53.1549Z" fill="#140E73"/>
<path d="M85.6827 55.4789L84.0777 57.4939C83.8077 57.8329 83.3483 57.9614 82.94 57.8121L79.7676 56.6523C79.0122 56.3761 78.8774 55.3751 79.533 54.9098L81.891 53.2362C82.1552 53.0488 82.4943 52.9991 82.8014 53.103L85.2208 53.9213C85.8759 54.1429 86.1122 54.9397 85.6827 55.4789Z" fill="#140E73"/>
<path d="M109.419 56.3204L111.645 59.5156C112.053 60.1003 111.733 60.9125 111.036 61.0648L104.596 62.4718C103.93 62.6173 103.318 62.0693 103.39 61.3917L103.764 57.866C103.807 57.4582 104.095 57.1176 104.49 57.0068L108.329 55.9304C108.739 55.8155 109.176 55.972 109.419 56.3204Z" fill="#140E73"/>
<path fill-rule="evenodd" clip-rule="evenodd" d="M111.881 49.0258C104.66 51.7303 103.902 44.6731 104.017 40.1712C104.047 38.9788 105.175 38.1226 106.31 38.4875C110.984 39.9901 112.91 42.9408 113.512 45.5345C115.161 43.0788 117.941 40.7951 122.42 39.3442C123.554 38.9768 124.712 39.7781 124.804 40.9673C125.269 46.9578 124.662 56.6705 113.385 55.3426C113.121 55.3116 114.055 53.5738 115.021 51.7752C115.562 50.7688 116.112 49.7434 116.469 48.9873C116.801 48.284 116.391 47.9947 115.851 48.5537C115.361 49.0601 114.739 49.753 114.116 50.4466C112.767 51.9482 111.415 53.4536 111.397 53.079C111.34 51.8617 111.464 50.467 111.881 49.0258ZM112.773 46.7853C112.467 46.4847 112.118 46.1275 111.768 45.7706C111.426 45.4207 111.084 45.0711 110.784 44.7754C110.229 44.2295 109.911 44.4811 110.317 45.1448C110.572 45.5624 110.89 46.0518 111.203 46.534C111.576 47.11 111.943 47.6758 112.19 48.097C112.355 47.6603 112.548 47.2219 112.773 46.7853Z" fill="url(#paint3_linear)"/>
<defs>
<linearGradient id="paint0_linear" x1="108.403" y1="69.2454" x2="108.403" y2="117.542" gradientUnits="userSpaceOnUse">
<stop stop-color="#213ED5"/>
<stop offset="1" stop-color="#4791FF"/>
</linearGradient>
<linearGradient id="paint1_linear" x1="138.388" y1="50.9174" x2="110.418" y2="64.5626" gradientUnits="userSpaceOnUse">
<stop stop-color="#1CD9B7"/>
<stop offset="1" stop-color="#095784"/>
</linearGradient>
<linearGradient id="paint2_linear" x1="98.3594" y1="38.9761" x2="98.3594" y2="83.2531" gradientUnits="userSpaceOnUse">
<stop stop-color="#80FFE8"/>
<stop offset="1" stop-color="#0AA693"/>
</linearGradient>
<linearGradient id="paint3_linear" x1="114.459" y1="38.4025" x2="114.459" y2="55.4658" gradientUnits="userSpaceOnUse">
<stop stop-color="#00A0AA"/>
<stop offset="1" stop-color="#005B61"/>
</linearGradient>
</defs>
</svg>
