<svg width="203" height="230" viewBox="0 0 203 230" fill="none" xmlns="http://www.w3.org/2000/svg">
<path fill-rule="evenodd" clip-rule="evenodd" d="M100.878 181.393C150.711 181.393 191.109 141.025 191.109 91.2283C191.109 41.4319 150.711 1.064 100.878 1.064C51.0443 1.064 10.6465 41.4319 10.6465 91.2283C10.6465 141.025 51.0443 181.393 100.878 181.393ZM122.175 204.32L105.557 225.214C103.16 228.229 98.5949 228.229 96.1975 225.214L79.5801 204.32H122.175Z" fill="#27B5BC"/>
<path fill-rule="evenodd" clip-rule="evenodd" d="M165.486 134.985C173.992 122.519 178.965 107.454 178.965 91.2283C178.965 48.2789 144.122 13.4616 101.141 13.4616C58.1596 13.4616 23.3164 48.2789 23.3164 91.2283C23.3164 107.454 28.2893 122.519 36.7951 134.985H165.486Z" fill="#030F81"/>
<rect x="0.00976562" y="134.985" width="202" height="70" rx="15" fill="#27B5BC"/>
<path d="M82.5627 151.905C80.8827 151.905 79.1427 152.085 77.6027 152.385V165.985H81.0427V161.305L82.7427 161.265C86.1227 161.185 88.5427 159.625 88.5427 156.585C88.5427 153.945 87.1427 151.905 82.5627 151.905ZM81.0427 158.625V154.825C81.6027 154.725 82.0827 154.665 82.9027 154.665C84.2827 154.665 85.1027 155.225 85.1027 156.525C85.1027 157.845 84.0827 158.525 82.2427 158.585L81.0427 158.625ZM94.8256 165.985V151.985H91.3855V165.985H94.8256ZM106.7 159.925L101.86 151.985H98.0199V165.985H101.38V156.945L107.02 165.985H110.06V151.985H106.7V159.925ZM120.848 151.985L116.708 158.305V151.985H113.268V165.985H116.708V159.285L120.928 165.985H124.728L120.168 158.785L124.728 151.985H120.848ZM46.7193 173.985H43.2793V187.985H52.6593V185.065H46.7193V173.985ZM65.2145 173.985H55.7145V187.985H65.2145V185.185H59.1545V182.205H63.1945L63.8545 179.505H59.1545V176.785H65.2145V173.985ZM82.7449 173.985H78.5249L76.0449 183.305L73.5649 173.985H69.3449L68.1649 187.985H71.4049L72.1049 179.365L74.6049 187.985H77.4849L79.9849 179.365L80.6849 187.985H83.9249L82.7449 173.985ZM93.419 188.225C97.679 188.225 100.439 185.185 100.439 180.985C100.439 176.785 97.679 173.745 93.419 173.745C89.159 173.745 86.399 176.785 86.399 180.985C86.399 185.185 89.159 188.225 93.419 188.225ZM93.419 185.225C91.339 185.225 89.839 183.645 89.839 180.985C89.839 178.325 91.339 176.745 93.419 176.745C95.499 176.745 96.999 178.325 96.999 180.985C96.999 183.645 95.499 185.225 93.419 185.225ZM112.051 181.925L107.211 173.985H103.371V187.985H106.731V178.945L112.371 187.985H115.411V173.985H112.051V181.925ZM131.879 187.985L127.039 173.985H122.679L117.839 187.985H121.519L122.259 185.585H127.459L128.199 187.985H131.879ZM124.859 177.265L126.619 182.945H123.099L124.859 177.265ZM138.796 173.905C137.296 173.905 135.696 174.025 134.296 174.265V187.985H138.796C143.396 187.985 146.376 185.465 146.376 180.985C146.376 176.505 143.456 173.905 138.796 173.905ZM137.736 185.065V176.905H138.796C141.436 176.905 142.916 178.285 142.916 180.985C142.916 183.685 141.436 185.065 138.776 185.065H137.736ZM158.81 173.985H149.31V187.985H158.81V185.185H152.75V182.205H156.79L157.45 179.505H152.75V176.785H158.81V173.985Z" fill="white"/>
<path d="M128.402 45.5705C123.339 38.9822 113.893 37.7457 107.305 42.8088L125.64 66.6674C132.229 61.6043 133.465 52.1589 128.402 45.5705Z" fill="#F6E656"/>
<path d="M125.665 47.6749C121.764 42.5988 114.487 41.6461 109.41 45.547L123.537 63.9292C128.613 60.0283 129.566 52.751 125.665 47.6749Z" fill="white"/>
<path d="M117.686 53.3328L121.419 42.9013" stroke="#F7E656" stroke-width="2" stroke-linecap="round"/>
<path d="M118.299 54.1302L129.34 53.2082" stroke="#F7E656" stroke-width="2" stroke-linecap="round"/>
<path d="M83.8624 53.1655C83.7674 51.4462 85.1359 50 86.8578 50H119.245C120.967 50 122.336 51.4462 122.241 53.1655L118.981 112.165C118.894 113.756 117.579 115 115.986 115H90.1172C88.5246 115 87.2096 113.756 87.1218 112.165L83.8624 53.1655Z" fill="url(#paint0_linear)"/>
<path d="M89.4851 70.3667C89.4179 69.2182 90.3312 68.25 91.4817 68.25H114.621C115.772 68.25 116.685 69.2182 116.618 70.3667L115.126 95.8907C114.752 102.285 109.457 107.28 103.051 107.28C96.6458 107.28 91.351 102.285 90.9772 95.8907L89.4851 70.3667Z" fill="#DD0DA3"/>
<path d="M91.1913 31.8485L94.238 31.3108L107.306 101.363L102.874 102.145L91.1913 31.8485Z" fill="#48DEFF"/>
<path d="M102.437 75.7594C101.007 74.9214 100.528 73.0834 101.366 71.654L103.281 68.3885C104.677 66.0064 107.741 65.2074 110.123 66.6041L112.711 68.1214C113.664 68.6801 113.983 69.9054 113.424 70.8583L109.993 76.7118C109.155 78.1411 107.317 78.6205 105.887 77.7825L102.437 75.7594Z" fill="#FFE7F8"/>
<path d="M99.0796 82.8235C100.539 82.0387 102.358 82.5854 103.143 84.0446L105.838 89.0565C107.146 91.4885 106.235 94.5204 103.803 95.8284L99.737 98.0152C98.7642 98.5384 97.5515 98.174 97.0283 97.2012L92.9117 89.5471C92.1269 88.0879 92.6736 86.2688 94.1328 85.484L99.0796 82.8235Z" fill="#FFE7F8"/>
<path d="M104.574 74.0184C103.32 73.2834 102.9 71.6712 103.635 70.4175L103.666 70.3636C104.646 68.692 106.796 68.1314 108.467 69.1115C109.303 69.6015 109.583 70.6763 109.093 71.5121L108.175 73.0793C107.44 74.333 105.827 74.7534 104.574 74.0184Z" fill="#F1CAE6"/>
<path d="M99.0239 86.6676C100.483 85.8828 102.302 86.4295 103.087 87.8887L103.629 88.8961C104.675 90.8417 103.946 93.2672 102.001 94.3136L101.199 94.7448C100.226 95.268 99.0135 94.9035 98.4904 93.9307L97.0012 91.1618C96.2164 89.7026 96.7631 87.8835 98.2223 87.0987L99.0239 86.6676Z" fill="#F1CAE6"/>
<defs>
<linearGradient id="paint0_linear" x1="103.052" y1="50" x2="103.052" y2="115" gradientUnits="userSpaceOnUse">
<stop stop-color="#6DA5FF"/>
<stop offset="1" stop-color="#2949E8"/>
</linearGradient>
</defs>
</svg>
