<svg width="200" height="230" viewBox="0 0 200 230" fill="none" xmlns="http://www.w3.org/2000/svg">
<path fill-rule="evenodd" clip-rule="evenodd" d="M100.298 181.393C150.131 181.393 190.529 141.025 190.529 91.2283C190.529 41.4319 150.131 1.064 100.298 1.064C50.4643 1.064 10.0664 41.4319 10.0664 91.2283C10.0664 141.025 50.4643 181.393 100.298 181.393ZM121.595 204.32L104.977 225.214C102.58 228.229 98.0149 228.229 95.6175 225.214L79.0001 204.32H121.595Z" fill="#27B5BC"/>
<path fill-rule="evenodd" clip-rule="evenodd" d="M164.906 134.985C173.412 122.519 178.385 107.454 178.385 91.2283C178.385 48.2789 143.542 13.4616 100.561 13.4616C57.5795 13.4616 22.7363 48.2789 22.7363 91.2283C22.7363 107.454 27.7092 122.519 36.215 134.985H164.906Z" fill="#030F81"/>
<rect x="20.4297" y="134.985" width="160" height="70" rx="15" fill="#27B5BC"/>
<path d="M70.717 166.225C72.677 166.225 74.397 165.685 75.397 164.905V158.145H70.257L69.597 160.785H72.477V162.845C72.117 163.065 71.497 163.225 70.717 163.225C68.637 163.225 66.957 161.685 66.957 158.985C66.957 156.285 68.637 154.745 70.897 154.745C72.217 154.745 73.357 155.165 74.277 155.725L75.097 152.725C73.777 151.945 72.097 151.745 70.897 151.745C66.517 151.745 63.517 154.765 63.517 158.985C63.517 163.205 66.177 166.225 70.717 166.225ZM92.1479 165.985L87.3079 151.985H82.9479L78.1079 165.985H81.7879L82.5279 163.585H87.7279L88.4679 165.985H92.1479ZM85.1279 155.265L86.8879 160.945H83.3679L85.1279 155.265ZM104.065 161.585C103.785 160.425 103.245 159.865 102.425 159.625C103.925 159.165 105.065 157.985 105.065 156.165C105.065 153.405 103.265 151.905 99.4052 151.905C97.3652 151.905 95.7652 152.125 94.5652 152.305V165.985H98.0052V160.605C99.6052 160.425 100.405 160.805 100.725 162.065L101.725 165.985H105.165L104.065 161.585ZM98.0052 158.065V154.605C98.5652 154.525 99.0252 154.505 99.6252 154.505C100.785 154.505 101.625 155.105 101.625 156.225C101.625 157.325 101.005 157.945 99.5252 158.005L98.0052 158.065ZM111.612 151.985H108.172V165.985H117.552V163.065H111.612V151.985ZM124.047 165.985V151.985H120.607V165.985H124.047ZM134.282 166.225C135.562 166.225 136.782 165.965 137.622 165.525L136.882 162.525C136.262 162.885 135.382 163.225 134.282 163.225C132.262 163.225 130.422 161.785 130.422 158.985C130.422 156.185 132.262 154.745 134.282 154.745C135.382 154.745 136.262 155.085 136.882 155.445L137.622 152.445C136.782 152.005 135.562 151.745 134.282 151.745C130.002 151.745 126.982 154.645 126.982 158.985C126.982 163.325 130.002 166.225 134.282 166.225ZM75.0626 180.725C76.1226 180.205 77.0626 179.365 77.0626 177.725C77.0626 175.045 74.9026 173.865 71.6226 173.865C69.6826 173.865 68.3626 174.025 66.7426 174.285V187.985H72.5626C75.8026 187.985 77.4826 186.425 77.4826 183.945C77.4826 182.205 76.3426 181.185 75.0626 180.725ZM71.9426 176.605C73.1426 176.605 73.8226 177.145 73.8226 178.005C73.8226 179.165 73.0026 179.585 70.1826 179.605V176.745C70.6626 176.665 71.2426 176.605 71.9426 176.605ZM70.1826 185.265V182.205C70.8026 182.125 71.4626 182.105 72.1426 182.105C73.2826 182.105 74.0426 182.665 74.0426 183.705C74.0426 184.685 73.4026 185.265 72.2026 185.265H70.1826ZM89.8887 183.585C89.6087 182.425 89.0687 181.865 88.2487 181.625C89.7487 181.165 90.8887 179.985 90.8887 178.165C90.8887 175.405 89.0887 173.905 85.2287 173.905C83.1887 173.905 81.5887 174.125 80.3887 174.305V187.985H83.8287V182.605C85.4287 182.425 86.2287 182.805 86.5487 184.065L87.5487 187.985H90.9887L89.8887 183.585ZM83.8287 180.065V176.605C84.3887 176.525 84.8487 176.505 85.4487 176.505C86.6087 176.505 87.4487 177.105 87.4487 178.225C87.4487 179.325 86.8287 179.945 85.3487 180.005L83.8287 180.065ZM103.496 173.985H93.9957V187.985H103.496V185.185H97.4357V182.205H101.476L102.136 179.505H97.4357V176.785H103.496V173.985ZM119.886 187.985L115.046 173.985H110.686L105.846 187.985H109.526L110.266 185.585H115.466L116.206 187.985H119.886ZM112.866 177.265L114.626 182.945H111.106L112.866 177.265ZM126.804 173.905C125.304 173.905 123.704 174.025 122.304 174.265V187.985H126.804C131.404 187.985 134.384 185.465 134.384 180.985C134.384 176.505 131.464 173.905 126.804 173.905ZM125.744 185.065V176.905H126.804C129.444 176.905 130.924 178.285 130.924 180.985C130.924 183.685 129.444 185.065 126.784 185.065H125.744Z" fill="white"/>
<path d="M84.5005 48.875C109.801 47.9558 131.253 63.4603 139.404 71.6675C147.555 79.8747 143.237 88.0957 135.401 90.6278C116.751 96.6538 96.6568 90.6131 77.6255 75.5C71.5939 73.3661 68.2563 63.9875 70.3755 57.75C72.0708 52.76 78.4707 49.0941 84.5005 48.875Z" fill="url(#paint0_linear)"/>
<path d="M87.5419 49.4867C109.26 48.7031 128.683 62.5008 135.68 69.4975C145.084 77.6698 140.877 83.7719 136.519 85.1704C121.518 89.9841 94.6319 76.7276 83.0639 69.4975C77.8863 67.6784 73.5483 61.2413 75.3675 55.9238C76.8228 51.6697 82.3658 49.6735 87.5419 49.4867Z" fill="url(#paint1_linear)"/>
<path d="M135.899 74.0588C136.873 76.1542 137.193 79.058 135.899 82.315C134.617 88.1491 122.864 88.6635 118.616 88.5079C114.821 88.2774 112.818 90.0589 112.291 90.9785C111.412 93.1393 110.494 93.4923 110.145 93.3987C108.768 93.3668 108.545 92.2058 108.606 91.6293C108.565 90.7915 108.189 89.065 107.008 88.8609C105.827 88.6568 104.151 89.4525 103.46 89.8759C99.9712 92.0143 95.5937 88.1425 94.4429 86.1493C92.9291 83.8342 88.9496 80.6837 87.9448 80.0089C80.512 73.3746 79.0952 65.3052 79.0854 61.3246C79.9251 56.2869 81.2544 56.2869 87.2016 56.2869L87.2017 56.2869C95.318 56.2869 97.0566 53.0368 105.238 54.5961C108.606 55.2381 112.531 55.6673 114.909 59.7853C116.411 62.3875 120.221 65.1484 123.585 65.2428C130.029 65.4236 134.745 71.3783 135.899 74.0588Z" fill="url(#paint2_linear)"/>
<path d="M99.2269 74.2929C98.2221 74.4526 96.8863 74.0117 95.922 73.5597C95.5981 73.4079 95.4504 73.0371 95.5553 72.6952C95.7323 72.1177 96.5133 71.9503 97.0108 72.2929C97.6342 72.7222 98.317 73.0081 98.9332 73.1898C99.6247 73.3938 99.9388 74.1797 99.2269 74.2929Z" fill="#007C84"/>
<path d="M109.326 74.3006L109.833 74.3333C110.269 74.3615 110.637 74.6705 110.74 75.0959L110.845 75.5279C110.949 75.9591 110.757 76.4075 110.373 76.6293L109.997 76.8463C109.453 77.1606 108.757 76.9007 108.552 76.3066L108.316 75.6249C108.083 74.9495 108.613 74.2546 109.326 74.3006Z" fill="#FFFFFE"/>
<path d="M101.439 69.3119L101.919 69.9838C102.217 70.4 102.211 70.9612 101.904 71.371C101.6 71.7782 101.068 71.9431 100.586 71.7795L99.8038 71.5139C98.9114 71.2109 98.5456 70.1468 99.063 69.3591C99.6185 68.5135 100.85 68.489 101.439 69.3119Z" fill="#FFFFFE"/>
<path d="M117.629 77.9651L117.648 78.1583C117.694 78.6323 117.454 79.0885 117.036 79.3178C116.306 79.7186 115.401 79.2653 115.285 78.4408L115.258 78.2486C115.13 77.3436 116.025 76.6367 116.876 76.9705C117.294 77.1343 117.585 77.5185 117.629 77.9651Z" fill="#FFFFFE"/>
<path d="M105.683 80.2718C105.939 79.9938 106.161 79.6909 106.34 79.4119C106.583 79.0337 107.018 78.8012 107.461 78.876L107.481 78.8795C108.002 78.9674 108.373 79.4555 108.154 79.9363C107.767 80.7879 107.037 81.4916 106.485 81.9051C106.277 82.0604 105.998 82.0615 105.774 81.9314C105.253 81.6286 105.274 80.7155 105.683 80.2718Z" fill="#007C84"/>
<path d="M106.159 65.0899C106.482 65.1071 106.803 65.089 107.086 65.0551C107.476 65.0083 107.876 65.1721 108.072 65.5127C108.304 65.913 108.181 66.4352 107.734 66.5545C106.956 66.7624 106.09 66.6638 105.512 66.5243C105.294 66.4716 105.14 66.2863 105.103 66.0652C105.018 65.5509 105.638 65.0622 106.159 65.0899Z" fill="#007C84"/>
<path d="M118.845 71.9333L118.797 71.85C118.589 71.4907 118.174 71.2824 117.787 71.4307C116.711 71.8427 116.119 72.7348 115.868 73.3743C115.781 73.5963 115.814 73.8434 115.936 74.0487C116.304 74.6735 116.86 75.3866 117.065 74.8025C117.226 74.345 117.886 73.7806 118.505 73.3415C118.955 73.0217 119.121 72.4116 118.845 71.9333Z" fill="#007C84"/>
<path d="M120.724 65.8413L121.076 67.1534C121.189 67.5762 121.014 68.0235 120.644 68.2575L119.764 68.8141C119.389 69.0512 118.903 69.0129 118.569 68.7201L117.686 67.9441C117.214 67.5292 117.237 66.7868 117.734 66.4021L119.146 65.3094C119.711 64.8721 120.539 65.1512 120.724 65.8413Z" fill="#FFFFFE"/>
<path d="M130.407 65.2372L130.958 65.8704C131.36 66.3326 131.256 67.0447 130.738 67.3722L130.221 67.6993C129.846 67.9364 129.36 67.8981 129.026 67.6053L128.328 66.9918C127.801 66.5282 127.903 65.6793 128.525 65.3542L129.19 65.0074C129.6 64.7933 130.103 64.8884 130.407 65.2372Z" fill="#FFFFFE"/>
<path d="M131.684 76.7264L132.235 77.3595C132.638 77.8217 132.534 78.5339 132.016 78.8614L131.498 79.1885C131.123 79.4256 130.637 79.3873 130.304 79.0944L129.606 78.481C129.078 78.0174 129.18 77.1685 129.803 76.8434L130.467 76.4966C130.877 76.2825 131.38 76.3775 131.684 76.7264Z" fill="#FFFFFE"/>
<path d="M92.3882 55.3069L92.9394 55.94C93.3419 56.4022 93.2376 57.1144 92.7196 57.4419L92.2023 57.769C91.8273 58.006 91.341 57.9677 91.0078 57.6749L90.3097 57.0615C89.7821 56.5978 89.8843 55.749 90.5069 55.4239L91.1711 55.0771C91.5811 54.863 92.0845 54.958 92.3882 55.3069Z" fill="#FFFFFE"/>
<path d="M118.529 58.5632L118.557 58.8464C118.625 59.5416 118.272 60.2107 117.66 60.547C116.59 61.1348 115.262 60.47 115.092 59.2608L115.052 58.979C114.865 57.6517 116.178 56.615 117.426 57.1045C118.038 57.3448 118.464 57.9083 118.529 58.5632Z" fill="#FFFFFE"/>
<path d="M103.127 59.8142L102.305 60.0094C101.526 60.1944 100.712 59.8971 100.235 59.2537L99.7865 58.6474C98.9537 57.5227 99.5037 55.9125 100.851 55.5324L102.323 55.1169C103.796 54.7011 105.171 56.0271 104.809 57.5146L104.608 58.3412C104.43 59.0715 103.858 59.6405 103.127 59.8142Z" fill="#FFFFFE"/>
<path d="M90.1306 62.9331C90.3211 62.8717 90.5028 62.8011 90.6718 62.7268C91.2197 62.4858 91.9121 62.6306 92.2114 63.149L92.5026 63.6534C92.7302 64.0475 92.6689 64.5557 92.3003 64.8226C91.4785 65.4177 90.6626 65.6111 90.0825 65.6345C89.7207 65.6491 89.4354 65.3773 89.3325 65.0301L89.1665 64.4699C88.9733 63.8177 89.4832 63.1417 90.1306 62.9331Z" fill="#007C84"/>
<path d="M116.564 62.3378C116.354 62.0923 116.119 61.8724 115.899 61.6914C115.595 61.4414 115.438 61.0392 115.548 60.6618C115.678 60.2182 116.141 59.9463 116.535 60.1869C117.223 60.606 117.75 61.3007 118.048 61.8145C118.16 62.0084 118.133 62.2482 117.999 62.4275C117.686 62.8445 116.904 62.7334 116.564 62.3378Z" fill="#007C84"/>
<path d="M124.081 74.9109C124.559 74.7705 125.012 74.5792 125.397 74.3866C125.925 74.1223 126.601 74.271 126.896 74.7824L127.195 75.2993C127.43 75.7072 127.353 76.2309 126.972 76.5075C125.92 77.2706 124.906 77.5688 124.201 77.6504C123.791 77.6979 123.453 77.3953 123.354 76.9943L123.183 76.2991C123.034 75.6899 123.48 75.0877 124.081 74.9109Z" fill="#007C84"/>
<path d="M95.3027 51.0666C96.0912 50.8654 96.838 50.539 97.4261 50.2273C97.9478 49.9506 98.6233 50.099 98.9186 50.6104L99.5098 51.6344C99.7453 52.0423 99.6675 52.5647 99.2922 52.8493C97.859 53.9361 96.466 54.3122 95.5633 54.3873C95.1518 54.4216 94.8149 54.1185 94.7163 53.7176L94.3998 52.4302C94.25 51.8211 94.6949 51.2217 95.3027 51.0666Z" fill="#007C84"/>
<path d="M113.5 69.4975C104.936 64.0121 94.2126 64.973 89.9212 66.1391C81.413 67.5384 74.155 72.133 71.5896 74.2554C56.9243 87.6892 54.5174 99.9569 55.1471 104.412C54.8113 115.438 65.9688 118.055 71.5896 117.985C86.4788 118.377 106.853 99.9103 115.18 90.6279C123.184 79.2651 117.395 71.8065 113.5 69.4975Z" fill="url(#paint3_linear)"/>
<path d="M71.5196 75.3539C87.4838 62.8597 102.199 65.1049 109.792 69.7578C112.515 71.4269 114.526 73.766 114.473 78.6785C114.389 86.5529 105.144 96.0474 88.3534 109.242C74.921 119.798 64.266 115.627 60.6175 112.222C49.5005 100.203 63.2535 82.6352 71.5196 75.3539Z" fill="url(#paint4_linear)"/>
<path d="M97.6225 68.1834C99.9241 68.388 102.417 69.0145 104.591 71.7636C109.002 75.7913 107.234 83.7614 104.975 87.3629C102.878 90.5339 103.419 93.1594 103.952 94.0757C105.384 95.917 105.23 96.8887 104.975 97.1445C104.259 98.3208 103.142 97.933 102.673 97.592C101.927 97.2084 100.244 96.6714 99.4765 97.592C98.7094 98.5126 98.5602 100.362 98.5815 101.172C98.6891 105.263 93.1473 107.118 90.8457 107.118C88.0839 107.271 83.3657 109.142 82.2789 109.675C72.817 112.795 70.1319 110.89 66.6797 108.908C61.4937 104.235 62.0124 100.341 62.0125 97.1445C62.0129 90.6234 65.4386 86.024 68.9172 81.9927C72.2693 78.108 76.9939 77.5174 80.4249 77.3256C83.4297 77.3256 84.6018 74.1291 85.1559 73.1701C88.02 68.5158 94.7243 67.8424 97.6225 68.1834Z" fill="url(#paint5_linear)"/>
<path d="M91.2565 80.2927H91.0499C90.635 80.2927 90.2483 80.5474 90.1779 80.9563C89.9645 82.1957 90.4899 83.2397 90.9538 83.8129C91.1037 83.9982 91.334 84.0927 91.5724 84.0911C92.3467 84.0861 93.3206 83.9565 92.8884 83.4523C92.5446 83.0512 92.3761 82.1077 92.3035 81.2912C92.2546 80.741 91.8088 80.2927 91.2565 80.2927Z" fill="#007C84"/>
<path d="M72.102 95.5499C71.7825 94.745 71.8137 93.602 71.9372 92.7309C71.9815 92.418 72.2565 92.1971 72.5725 92.1971C73.1063 92.1971 73.45 92.8135 73.2894 93.3226C73.1089 93.8949 73.0383 94.4776 73.0301 95.0014C73.0188 95.7221 72.368 96.2199 72.102 95.5499Z" fill="#007C84"/>
<path d="M87.0761 93.9025L87.9536 92.5862C88.1964 92.222 88.6479 92.058 89.0678 92.1815L90.2178 92.5198C90.6433 92.6449 90.9356 93.0355 90.9356 93.4791V94.8496C90.9356 95.4781 90.3626 95.9508 89.7456 95.8314L87.7181 95.4389C87.0167 95.3032 86.6798 94.4969 87.0761 93.9025Z" fill="#FFFFFE"/>
<path d="M94.4424 76.7805L95.9704 77.1899C96.3933 77.3031 96.6933 77.6782 96.7109 78.1156L96.759 79.3133C96.7769 79.7566 96.5006 80.1586 96.0804 80.3008L94.7822 80.74C94.1868 80.9414 93.5554 80.5502 93.4708 79.9274L93.1927 77.8811C93.0965 77.1732 93.7522 76.5956 94.4424 76.7805Z" fill="#FFFFFE"/>
<path d="M92.8065 70.2329L93.8 70.039C94.4015 69.9216 94.9661 70.3679 94.9908 70.9802L95.0217 71.7479C95.0395 72.1912 94.7632 72.5932 94.343 72.7353L93.279 73.0953C92.6136 73.3205 91.9296 72.8075 91.9594 72.1057L91.999 71.172C92.0186 70.7099 92.3525 70.3215 92.8065 70.2329Z" fill="#FFFFFE"/>
<path d="M65.2297 96.5592L66.226 96.4619C66.654 96.4201 67.0599 96.6603 67.2293 97.0556C67.3976 97.4484 67.294 97.9049 66.9727 98.1866L66.2462 98.8236C65.7543 99.2549 64.9876 99.1055 64.6936 98.521L64.4335 98.0038C64.1179 97.3763 64.5306 96.6275 65.2297 96.5592Z" fill="#FFFFFE"/>
<path d="M75.9004 99.4456L77.0495 99.3333C77.758 99.2641 78.4299 99.6617 78.7103 100.316C78.9889 100.966 78.8175 101.722 78.2856 102.188L77.4179 102.949C76.4341 103.812 74.8984 103.509 74.3105 102.34C73.6793 101.085 74.5022 99.5821 75.9004 99.4456Z" fill="#FFFFFE"/>
<path d="M82.8461 75.2223L83.045 75.3124C83.5331 75.5336 83.8423 76.0246 83.8309 76.5604C83.8109 77.497 82.86 78.124 81.9913 77.7734L81.7888 77.6916C80.8352 77.3068 80.65 76.037 81.4538 75.3957C81.8485 75.0809 82.3863 75.0139 82.8461 75.2223Z" fill="#FFFFFE"/>
<path d="M68.8366 85.4718L69.1886 85.6314C69.9178 85.9618 70.3797 86.6953 70.3626 87.4956L70.3609 87.5779C70.331 88.977 68.9105 89.9137 67.6128 89.3899L67.179 89.2148C65.7593 88.6418 65.4835 86.7515 66.6802 85.7967L66.7638 85.7301C67.3513 85.2613 68.1521 85.1616 68.8366 85.4718Z" fill="#FFFFFE"/>
<path d="M77.1702 83.2282C77.2306 82.9671 77.2699 82.7096 77.2936 82.4685C77.3523 81.8728 77.8239 81.3462 78.4225 81.3462H79.1583C79.6133 81.3462 80.022 81.6532 80.0731 82.1054C80.1991 83.2211 79.9277 84.1039 79.6302 84.6559C79.4583 84.9747 79.0808 85.0853 78.7286 85.0008L78.0071 84.8276C77.3457 84.6689 77.0169 83.8909 77.1702 83.2282Z" fill="#007C84"/>
<path d="M67.2404 87.905C66.9027 87.9685 66.5757 88.0679 66.2927 88.1738C65.9016 88.3201 65.4481 88.2516 65.1597 87.9496C64.8206 87.5946 64.8162 87.025 65.247 86.7897C65.9976 86.3798 66.9163 86.2639 67.5469 86.2628C67.7849 86.2624 67.9908 86.4148 68.0843 86.6337C68.3018 87.1428 67.7844 87.8028 67.2404 87.905Z" fill="#007C84"/>
<path d="M95.6567 93.2459C95.4649 92.6329 95.1937 92.0541 94.9373 91.5938C94.7187 91.2014 94.7361 90.7085 95.0223 90.3623L95.4646 89.8274C95.801 89.4204 96.4061 89.3412 96.7463 89.7451C97.6622 90.8321 98.0573 92.3732 98.1822 93.4155C98.225 93.7735 98.0323 94.1104 97.7195 94.29C96.9921 94.7076 95.9072 94.0464 95.6567 93.2459Z" fill="#007C84"/>
<path d="M79.9858 94.0133C79.794 93.4002 79.5228 92.8215 79.2664 92.3612C79.0478 91.9687 79.0652 91.4758 79.3514 91.1296L79.7937 90.5947C80.1301 90.1878 80.7352 90.1085 81.0754 90.5124C81.9913 91.5994 82.3864 93.1405 82.5113 94.1828C82.5541 94.5409 82.3614 94.8778 82.0486 95.0573C81.3213 95.4749 80.2363 94.8137 79.9858 94.0133Z" fill="#007C84"/>
<path d="M102.469 75.785C102.612 75.2211 102.681 74.6496 102.707 74.1555C102.738 73.5658 103.205 73.0548 103.796 73.0548H104.548C105.019 73.0548 105.434 73.3836 105.486 73.8517C105.644 75.2743 105.363 76.3993 105.054 77.0961C104.886 77.4735 104.455 77.6144 104.059 77.4993L103.215 77.2545C102.613 77.0796 102.315 76.3931 102.469 75.785Z" fill="#007C84"/>
<defs>
<linearGradient id="paint0_linear" x1="107.188" y1="48.1573" x2="107.188" y2="91.2575" gradientUnits="userSpaceOnUse">
<stop stop-color="#E88F4D"/>
<stop offset="1" stop-color="#713A10"/>
</linearGradient>
<linearGradient id="paint1_linear" x1="108.025" y1="49.4547" x2="108.025" y2="86.1984" gradientUnits="userSpaceOnUse">
<stop stop-color="#FCEDB7"/>
<stop offset="1" stop-color="#E0BF94"/>
</linearGradient>
<linearGradient id="paint2_linear" x1="101.475" y1="50.9694" x2="117.708" y2="94.3495" gradientUnits="userSpaceOnUse">
<stop stop-color="#FFEDAC"/>
<stop offset="1" stop-color="#FFDD76"/>
</linearGradient>
<linearGradient id="paint3_linear" x1="102.655" y1="59.842" x2="87.126" y2="117.991" gradientUnits="userSpaceOnUse">
<stop stop-color="#F49853"/>
<stop offset="1" stop-color="#713910"/>
</linearGradient>
<linearGradient id="paint4_linear" x1="85.7218" y1="65.9536" x2="85.1861" y2="116.125" gradientUnits="userSpaceOnUse">
<stop stop-color="#FFF3BB"/>
<stop offset="1" stop-color="#DDBA91"/>
</linearGradient>
<linearGradient id="paint5_linear" x1="84.6542" y1="77.25" x2="93.9995" y2="104" gradientUnits="userSpaceOnUse">
<stop stop-color="#FFEDAC"/>
<stop offset="1" stop-color="#FFEAAA"/>
</linearGradient>
</defs>
</svg>
