<svg width="200" height="231" viewBox="0 0 200 231" fill="none" xmlns="http://www.w3.org/2000/svg">
<path fill-rule="evenodd" clip-rule="evenodd" d="M99.8581 181.457C149.691 181.457 190.089 141.089 190.089 91.2923C190.089 41.4959 149.691 1.12793 99.8581 1.12793C50.0248 1.12793 9.62695 41.4959 9.62695 91.2923C9.62695 141.089 50.0248 181.457 99.8581 181.457ZM121.155 204.384L104.538 225.278C102.14 228.293 97.5754 228.293 95.178 225.278L78.5606 204.384H121.155Z" fill="#27B5BC"/>
<path fill-rule="evenodd" clip-rule="evenodd" d="M164.467 135.049C172.973 122.583 177.946 107.518 177.946 91.2923C177.946 48.3429 143.102 13.5256 100.121 13.5256C57.14 13.5256 22.2969 48.3429 22.2969 91.2923C22.2969 107.518 27.2697 122.583 35.7756 135.049H164.467Z" fill="#030F81"/>
<rect x="16.9902" y="135.048" width="166" height="70" rx="15" fill="#27B5BC"/>
<path d="M69.4009 166.288C70.6809 166.288 71.9009 166.028 72.7409 165.588L72.0009 162.588C71.3809 162.948 70.5009 163.288 69.4009 163.288C67.3809 163.288 65.5409 161.848 65.5409 159.048C65.5409 156.248 67.3809 154.808 69.4009 154.808C70.5009 154.808 71.3809 155.148 72.0009 155.508L72.7409 152.508C71.9009 152.068 70.6809 151.808 69.4009 151.808C65.1209 151.808 62.1009 154.708 62.1009 159.048C62.1009 163.388 65.1209 166.288 69.4009 166.288ZM83.9922 157.368H79.2322V152.048H75.7922V166.048H79.2322V160.288H83.9922V166.048H87.4322V152.048H83.9922V157.368ZM100.13 152.048H90.6297V166.048H100.13V163.248H94.0697V160.268H98.1097L98.7697 157.568H94.0697V154.848H100.13V152.048ZM112.76 152.048H103.26V166.048H112.76V163.248H106.7V160.268H110.74L111.4 157.568H106.7V154.848H112.76V152.048ZM120.111 166.288C123.451 166.288 125.411 164.648 125.411 161.808C125.411 159.508 124.071 158.408 121.931 157.688C120.031 157.048 119.291 156.528 119.291 155.748C119.291 155.048 119.971 154.648 120.991 154.648C122.031 154.648 123.111 155.048 124.171 155.568L124.891 152.648C123.511 152.028 122.491 151.808 121.011 151.808C117.991 151.808 115.931 153.348 115.931 155.868C115.931 157.868 117.111 159.248 119.471 160.088C121.431 160.788 121.971 161.208 121.971 162.068C121.971 162.848 121.291 163.368 120.171 163.368C118.911 163.368 117.291 162.808 116.331 161.868L115.551 165.008C116.491 165.708 118.291 166.288 120.111 166.288ZM137.689 152.048H128.189V166.048H137.689V163.248H131.629V160.268H135.669L136.329 157.568H131.629V154.848H137.689V152.048ZM68.5423 180.788C69.6023 180.268 70.5423 179.428 70.5423 177.788C70.5423 175.108 68.3823 173.928 65.1023 173.928C63.1623 173.928 61.8423 174.088 60.2223 174.348V188.048H66.0423C69.2823 188.048 70.9623 186.488 70.9623 184.008C70.9623 182.268 69.8223 181.248 68.5423 180.788ZM65.4223 176.668C66.6223 176.668 67.3023 177.208 67.3023 178.068C67.3023 179.228 66.4823 179.648 63.6623 179.668V176.808C64.1423 176.728 64.7223 176.668 65.4223 176.668ZM63.6623 185.328V182.268C64.2823 182.188 64.9423 182.168 65.6223 182.168C66.7623 182.168 67.5223 182.728 67.5223 183.768C67.5223 184.748 66.8823 185.328 65.6823 185.328H63.6623ZM79.6284 188.288C83.0684 188.288 85.0884 186.308 85.0884 182.808V174.048H81.6484V182.868C81.6484 184.188 80.9884 185.288 79.6284 185.288C78.2684 185.288 77.6084 184.188 77.6084 182.868V174.048H74.1684V182.808C74.1684 186.308 76.1884 188.288 79.6284 188.288ZM98.0887 183.648C97.8087 182.488 97.2687 181.928 96.4487 181.688C97.9487 181.228 99.0887 180.048 99.0887 178.228C99.0887 175.468 97.2887 173.968 93.4287 173.968C91.3887 173.968 89.7887 174.188 88.5887 174.368V188.048H92.0287V182.668C93.6287 182.488 94.4287 182.868 94.7487 184.128L95.7487 188.048H99.1887L98.0887 183.648ZM92.0287 180.128V176.668C92.5887 176.588 93.0487 176.568 93.6487 176.568C94.8087 176.568 95.6487 177.168 95.6487 178.288C95.6487 179.388 95.0287 180.008 93.5487 180.068L92.0287 180.128ZM108.94 188.288C110.9 188.288 112.62 187.748 113.62 186.968V180.208H108.48L107.82 182.848H110.7V184.908C110.34 185.128 109.72 185.288 108.94 185.288C106.86 185.288 105.18 183.748 105.18 181.048C105.18 178.348 106.86 176.808 109.12 176.808C110.44 176.808 111.58 177.228 112.5 177.788L113.32 174.788C112 174.008 110.32 173.808 109.12 173.808C104.74 173.808 101.74 176.828 101.74 181.048C101.74 185.268 104.4 188.288 108.94 188.288ZM126.221 174.048H116.721V188.048H126.221V185.248H120.161V182.268H124.201L124.861 179.568H120.161V176.848H126.221V174.048ZM138.851 183.648C138.571 182.488 138.031 181.928 137.211 181.688C138.711 181.228 139.851 180.048 139.851 178.228C139.851 175.468 138.051 173.968 134.191 173.968C132.151 173.968 130.551 174.188 129.351 174.368V188.048H132.791V182.668C134.391 182.488 135.191 182.868 135.511 184.128L136.511 188.048H139.951L138.851 183.648ZM132.791 180.128V176.668C133.351 176.588 133.811 176.568 134.411 176.568C135.571 176.568 136.411 177.168 136.411 178.288C136.411 179.388 135.791 180.008 134.311 180.068L132.791 180.128Z" fill="white"/>
<path d="M65.1672 101.635C64.4721 98.8509 65.1672 97.8649 67.3611 97.8649L134.257 100.765C137.5 100.765 137.925 102.698 137.732 103.665V107.724C137.5 111.668 133.967 112.848 132.229 112.944H74.3113C70.3728 112.944 68.0368 109.464 67.3611 107.724L65.1672 101.635Z" fill="url(#paint0_linear)"/>
<path d="M139.63 97.14C138.009 94.8201 134.514 95.1101 132.97 95.545L64.771 93.2252C60.9484 94.3851 58.6115 97.4163 57.5312 98.8799C55.7581 101.282 58.2257 102.876 59.9927 103.52C64.1054 105.017 70.0801 102.263 72.7347 100.765C74.3564 99.9529 75.531 100.496 75.3411 101.78C74.8715 104.954 75.9973 105.578 76.9339 106.13C79.1929 107.46 83.1601 104.196 85.0424 102.505C86.4324 101.461 87.9271 101.297 88.8071 102.505C91.9347 106.797 95.9986 108.546 97.6396 108.884C100.483 109.471 102.744 106.528 103.866 104.68C105.626 101.78 108.05 103.971 109.078 105.405C111.743 109.116 116.366 107.435 118.345 106.13C121.125 103.578 124.427 104.1 125.73 104.68C131.174 107.696 136.396 105.936 138.327 104.68C142.034 102.012 140.74 98.5416 139.63 97.14Z" fill="#15D098"/>
<path d="M140.29 92.6661C140.116 90.2882 138.094 89.1137 137.104 88.8238C114.632 86.6778 83.6748 86.9147 71.0052 87.3013C67.2405 87.4173 64.6101 88.3646 63.7654 88.8238C61.97 89.8677 62.2451 92.0619 62.6071 93.0286C64.9238 99.4663 83.5059 101.317 92.5073 101.438C115.385 103.236 130.999 100.447 135.946 98.8283C140 97.2044 140.531 94.0435 140.29 92.6661Z" fill="#CB0535"/>
<path d="M141.875 91.6719C142.666 86.3389 140.635 82.5027 138.989 82.0295L128.399 79.7486L83.599 77.7833H66.555C66.555 77.7833 61.0558 82.6923 60.1661 86.2876C59.2764 89.883 59.7042 92.511 62.6293 93.3708C65.5543 94.2306 65.6088 91.6218 69.557 90.1363C73.2808 88.7352 83.6507 90.4279 84.8033 93.8597C86.4402 98.7331 87.9769 99.4424 92.8421 97.9974C94.601 97.475 97.5656 96.2443 99.6099 95.1433C101.654 94.0423 103.521 94.9246 103.676 96.2443C104.037 99.3403 105.943 100.629 106.966 100.629C108.846 100.629 108.954 99.7442 109.569 97.1673C109.994 95.3857 110.43 94.7805 111.991 94.4751C115.136 93.8597 114.687 99.5177 116.474 99.0519C119.233 98.3327 117.522 95.2828 118.643 93.0521C119.764 90.8214 124.624 90.0809 128.152 90.3983C134.489 90.9686 136.824 91.6514 139.053 92.8728C140.211 93.5072 141.681 92.978 141.875 91.6719Z" fill="url(#paint1_linear)"/>
<path d="M139.473 81.1491C139.473 76.5 137.991 77.2874 136.375 76.5C129.142 72.9755 85.2182 75.7974 72.7502 76.5C69.0454 76.7098 64.3634 76.6179 63.9262 77.75C63.2957 79.3823 63.0177 82.6251 63.9263 83.5325C66.8996 86.5018 86.7501 88 101.625 88C118.75 88 129 86.875 137.093 84.3289C139.667 83.5188 139.473 82.7934 139.473 81.1491Z" fill="#B600A4"/>
<path d="M83.6237 82.4929C83.4913 83.4906 83.4083 84.4792 83.4852 85.5859" stroke="#CF33C0" stroke-width="3" stroke-linecap="round"/>
<path d="M100.93 82.5482C100.956 83.8926 100.978 84.9681 101.004 86.2903" stroke="#CF33C0" stroke-width="3" stroke-linecap="round"/>
<path d="M118.699 81.5498C119.032 82.6256 119.096 84.2525 119.032 85.36" stroke="#CF33C0" stroke-width="3" stroke-linecap="round"/>
<path d="M133.016 79.6447C133.348 80.7205 133.412 82.3474 133.348 83.4549" stroke="#CF33C0" stroke-width="3" stroke-linecap="round"/>
<path d="M70.3599 81.0103C70.1588 81.9964 70.0076 82.9769 70.0078 84.0863" stroke="#CF33C0" stroke-width="3" stroke-linecap="round"/>
<path d="M101.339 43.6724C79.2675 43.6724 61.375 56.7167 61.375 72.8078V75.5303C61.375 77.2211 62.4459 78.7057 64.0917 79.0933C68.8965 80.225 80.417 82.25 101.339 82.25C122.261 82.25 133.782 80.225 138.587 79.0933C140.232 78.7057 141.303 77.2211 141.303 75.5303V72.8078C141.303 56.7167 123.411 43.6724 101.339 43.6724Z" fill="url(#paint2_linear)"/>
<path d="M81.2442 55.932C81.8686 54.9907 83.6217 54.0194 84.8484 53.4233C85.4671 53.1227 86.1542 53.5641 86.1239 54.2531C86.0663 55.5627 85.8413 57.4597 85.0614 58.4806C84.1799 59.6345 82.7759 59.8744 82.0016 59.9134C81.6546 59.9309 81.3498 59.718 81.2314 59.3902C80.9403 58.5838 80.5289 57.0104 81.2442 55.932Z" fill="white"/>
<path d="M92.2221 57.5345C92.3198 58.4414 93.6528 59.5975 94.6882 60.3678C95.257 60.791 96.0259 60.4427 96.0783 59.7362C96.1371 58.9441 96.1565 57.9617 96.0108 57.131C95.8318 56.1104 94.9073 55.0821 94.1881 54.4168C93.7418 54.0039 93.0564 54.1622 92.8282 54.725C92.4969 55.5422 92.13 56.6791 92.2221 57.5345Z" fill="white"/>
<path d="M119.799 57.7027C120.647 58.0375 121.406 59.6346 121.873 60.8391C122.128 61.4996 121.59 62.1472 120.896 62.0108C120.118 61.8578 119.166 61.6164 118.405 61.2554C117.469 60.8117 116.724 59.644 116.274 58.7728C115.996 58.2333 116.33 57.6159 116.931 57.5445C117.806 57.4407 118.999 57.3869 119.799 57.7027Z" fill="white"/>
<path d="M111.525 55.3053C111.573 56.2165 110.443 57.5682 109.545 58.4927C109.051 59.0013 108.235 58.7785 108.071 58.0885C107.887 57.3149 107.712 56.3475 107.724 55.5037C107.738 54.4675 108.485 53.3063 109.089 52.5353C109.464 52.0562 110.167 52.1045 110.481 52.6253C110.938 53.3807 111.48 54.4458 111.525 55.3053Z" fill="white"/>
<path d="M108.144 63.9889C108.615 64.2857 108.92 65.221 109.105 66.0536C109.258 66.7456 108.607 67.285 107.96 66.9993C107.529 66.809 107.069 66.5727 106.697 66.302C106.186 65.9308 105.841 65.2084 105.626 64.5872C105.427 64.0132 105.872 63.4635 106.474 63.5265C107.047 63.5864 107.709 63.7152 108.144 63.9889Z" fill="white"/>
<path d="M101.002 48.5731C101.88 48.3258 103.448 49.138 104.546 49.815C105.148 50.186 105.11 51.0279 104.475 51.3399C103.763 51.6899 102.86 52.0745 102.035 52.2485C101.022 52.4625 99.724 51.9835 98.8407 51.5618C98.294 51.3007 98.1871 50.6075 98.6228 50.186C99.2567 49.5729 100.175 48.8064 101.002 48.5731Z" fill="white"/>
<defs>
<linearGradient id="paint0_linear" x1="101.339" y1="97.8649" x2="101.339" y2="112.944" gradientUnits="userSpaceOnUse">
<stop stop-color="#78481B"/>
<stop offset="1" stop-color="#CD9950"/>
</linearGradient>
<linearGradient id="paint1_linear" x1="100.902" y1="83.4751" x2="100.902" y2="100.629" gradientUnits="userSpaceOnUse">
<stop stop-color="#B66D01"/>
<stop offset="1" stop-color="#FBFF43"/>
</linearGradient>
<linearGradient id="paint2_linear" x1="101.339" y1="43.6724" x2="101.339" y2="80.25" gradientUnits="userSpaceOnUse">
<stop stop-color="#FFF3C8"/>
<stop offset="1" stop-color="#DFA45A"/>
</linearGradient>
</defs>
</svg>
