<svg width="561" height="958" viewBox="0 0 561 958" fill="none" xmlns="http://www.w3.org/2000/svg">
<path fill-rule="evenodd" clip-rule="evenodd" d="M352.049 865.538C356.596 866.24 361.266 867.446 364.283 869.112C379.958 877.768 406.516 884.632 420.895 887.48C452.889 893.542 465.983 917.23 468.831 929.452C469.028 930.3 469.077 931.138 469.038 931.937L468.287 947.202C468.03 952.437 463.795 956.603 458.524 956.663C443.12 956.838 405.949 956.994 367.792 955.167C329.504 953.333 291.817 949.41 276.324 947.68C271.09 947.096 267.293 942.536 267.55 937.308L268.347 921.1C268.391 901.536 272.826 881.558 276.204 869.965C277.559 865.316 282.138 862.623 286.775 863.18C313.178 866.349 329.654 866.266 339.378 865.014C342.702 864.586 347.478 864.832 352.049 865.538ZM351.44 869.491C347.053 868.814 342.691 868.621 339.888 868.981C329.698 870.293 312.853 870.338 286.3 867.151C283.434 866.807 280.802 868.474 280.041 871.085C276.719 882.488 272.379 902.09 272.344 921.155L272.344 921.203L271.542 937.505C271.387 940.659 273.666 943.359 276.766 943.705C292.228 945.431 329.819 949.343 367.982 951.171C406.025 952.993 443.107 952.838 458.478 952.663C461.601 952.627 464.14 950.162 464.295 947.005L465.046 931.74C465.071 931.239 465.036 930.781 464.939 930.36C462.364 919.312 450.249 897.11 420.145 891.409L420.128 891.405C405.692 888.547 378.606 881.59 362.353 872.614C359.961 871.294 355.852 870.172 351.44 869.491Z" fill="white"/>
<path fill-rule="evenodd" clip-rule="evenodd" d="M466.928 929.683L467.05 931.679C467.172 933.676 467.171 933.676 467.171 933.676L467.143 933.677L467.063 933.682L466.752 933.7C466.476 933.715 466.066 933.736 465.522 933.762C464.435 933.815 462.814 933.886 460.671 933.962C456.385 934.112 450.011 934.28 441.642 934.349C424.906 934.487 400.191 934.229 368.248 932.648C336.304 931.067 311.845 928.898 295.363 927.124C287.122 926.236 280.875 925.447 276.684 924.88C274.589 924.596 273.008 924.367 271.948 924.209C271.418 924.13 271.019 924.069 270.751 924.027L270.447 923.98L270.37 923.967L270.344 923.963C270.344 923.963 270.342 923.963 270.662 921.989L270.982 920.014L271.004 920.018L271.075 920.029L271.365 920.075C271.625 920.115 272.015 920.175 272.536 920.253C273.579 920.408 275.143 920.634 277.22 920.916C281.375 921.479 287.586 922.263 295.79 923.147C312.198 924.913 336.581 927.076 368.445 928.653C400.308 930.23 424.946 930.487 441.609 930.349C449.941 930.281 456.279 930.114 460.53 929.964C462.656 929.889 464.259 929.819 465.33 929.767C465.865 929.741 466.266 929.72 466.533 929.705L466.832 929.689L466.906 929.684L466.928 929.683Z" fill="white"/>
<path fill-rule="evenodd" clip-rule="evenodd" d="M284.769 946.123L285.895 923.25L289.886 923.447L288.761 946.32L284.769 946.123Z" fill="white"/>
<path fill-rule="evenodd" clip-rule="evenodd" d="M357.546 951.871L358.671 928.998L362.663 929.195L361.538 952.068L357.546 951.871Z" fill="white"/>
<path fill-rule="evenodd" clip-rule="evenodd" d="M302.67 948.449L303.795 925.576L307.787 925.773L306.662 948.646L302.67 948.449Z" fill="white"/>
<path fill-rule="evenodd" clip-rule="evenodd" d="M375.307 952.747L376.432 929.874L380.424 930.071L379.299 952.944L375.307 952.747Z" fill="white"/>
<path fill-rule="evenodd" clip-rule="evenodd" d="M321.008 950.068L322.133 927.195L326.125 927.392L325 950.265L321.008 950.068Z" fill="white"/>
<path fill-rule="evenodd" clip-rule="evenodd" d="M393.576 953.649L394.701 930.776L398.693 930.973L397.568 953.846L393.576 953.649Z" fill="white"/>
<path fill-rule="evenodd" clip-rule="evenodd" d="M429.549 954.837L430.674 931.964L434.666 932.161L433.541 955.034L429.549 954.837Z" fill="white"/>
<path fill-rule="evenodd" clip-rule="evenodd" d="M338.262 950.919L339.387 928.046L343.379 928.243L342.254 951.116L338.262 950.919Z" fill="white"/>
<path fill-rule="evenodd" clip-rule="evenodd" d="M410.829 954.5L411.954 931.627L415.946 931.824L414.821 954.697L410.829 954.5Z" fill="white"/>
<path fill-rule="evenodd" clip-rule="evenodd" d="M446.65 954.11L447.775 931.237L451.767 931.434L450.642 954.307L446.65 954.11Z" fill="white"/>
<path d="M86.3135 49.044L186.847 41.9276C187.579 41.8757 188.261 42.305 188.532 42.9887L211.604 101.193C213.455 105.865 210.846 111.112 206.009 112.447L193.866 115.797C193.087 116.012 192.57 116.757 192.631 117.564C196.469 168.65 190.49 210.817 188.386 237.375C188.265 238.898 186.333 239.534 185.31 238.401C171.653 223.276 137.366 193.953 74.9974 178.523C74.2421 178.337 73.6965 177.656 73.6965 176.877V134.269C73.6965 133.793 73.4959 133.339 73.144 133.019L55.1663 116.67C54.8144 116.35 54.6138 115.896 54.6138 115.42V53.2182C54.6138 52.3396 55.2865 51.6078 56.1608 51.5356L86.3135 49.044Z" fill="#F1F1FC"/>
<path d="M198.564 54.4314L96.2027 61.7776C94.09 61.9293 92.418 63.6281 92.2969 65.7462L90.6896 93.8479C90.5087 97.0108 87.0428 98.8541 84.3256 97.2324L75.2693 91.8276C66.517 87.5771 60.0191 91.4908 56.8082 96.4765C49.1845 108.314 61.3172 117.341 60.0454 116.06L59.6875 115.736C59.8552 115.879 59.9724 115.987 60.0454 116.06L75.0524 129.646C76.2063 130.691 76.6919 132.288 76.3155 133.799L73.2631 146.058C72.6741 148.423 70.1944 149.809 68.0546 148.647C57.5764 142.955 49.4578 129.726 45.205 123.374C26.3077 95.1482 23.6551 26.741 90.2924 4.82518C156.93 -17.0907 201.581 42.4508 202.907 47.7639C203.901 51.7457 201.093 53.707 199.281 54.303C199.049 54.3792 198.807 54.414 198.564 54.4314Z" fill="#0F43EC"/>
<path d="M175.495 82.5297C175.495 84.7305 173.714 86.5145 171.516 86.5145C169.319 86.5145 167.538 84.7305 167.538 82.5297C167.538 80.329 169.319 78.5449 171.516 78.5449C173.714 78.5449 175.495 80.329 175.495 82.5297Z" fill="#0F0967"/>
<path d="M421.489 650.364C421.489 568.012 371.096 528.164 314.737 528.164L240.475 525.662H17.6808C8.08749 555.569 8.55003 578.793 17.6808 598.324C45.6536 658.157 132.205 643.723 240.475 643.723C299.295 643.723 296.171 682.243 291.53 712.793L263.081 866.668C262.293 870.931 264.846 875.07 269.056 876.08C281.803 879.137 309.609 884.803 340.596 884.803C370.293 884.803 390.897 882.852 400.592 881.68C404.34 881.227 407.188 878.213 407.591 874.453C417.749 779.663 421.923 697.38 421.489 650.364Z" fill="url(#paint0_linear)"/>
<path d="M199.365 251.22C173.235 214.101 108.983 190.196 70.9275 180.363C63.7453 178.507 56.3196 181.945 52.9321 188.555C-13.93 319.011 -3.27737 458.708 12.0649 519.362C12.9902 523.02 16.3096 525.507 20.0771 525.507H241.33C245.984 525.507 249.758 521.727 249.758 517.065V453.603V439.169C244.984 341.94 214.174 273.357 199.365 251.22Z" fill="#110F89"/>
<path fill-rule="evenodd" clip-rule="evenodd" d="M152.959 114.257C153.921 113.715 155.14 114.057 155.681 115.019C162.382 126.943 174.283 128.959 179.237 128.508C180.336 128.408 181.308 129.219 181.408 130.319C181.508 131.419 180.698 132.392 179.599 132.492C173.562 133.041 159.884 130.657 152.197 116.98C151.656 116.018 151.997 114.798 152.959 114.257Z" fill="#0F0967"/>
<path d="M463.635 400.474C427.702 398.454 408.309 418.34 403.105 428.535C391.055 448.674 396.962 463.09 401.421 467.781L425.267 472.057L504.596 420.719C493.888 406.922 475.537 401.142 463.635 400.474Z" fill="#B38612"/>
<path d="M479.056 404.926C482.339 407.978 482.074 413.457 481.532 415.815L479.091 419.783C457.052 428.459 412.273 445.051 409.463 442.013C406.654 438.975 405.221 435.106 404.855 433.551C404.075 428.712 407.406 427.116 409.169 426.924C412.154 426.016 412.796 422.711 412.743 421.172C412.554 419.175 412.823 416.1 412.982 414.812C414.761 408.498 420.344 408.35 422.913 409.065C425.917 409.219 428.252 405.236 429.044 403.226C431.298 398.028 434.481 396.407 436.09 396.108C438.589 395.659 442.859 399.681 444.682 401.749C447.031 404.299 449.977 402.449 451.156 401.205C455.197 395.871 458.863 395.052 460.192 395.309C464.004 395.813 465.77 400.521 466.176 402.811C466.628 404.444 468.331 407.193 471.528 405.132C474.725 403.072 477.878 404.136 479.056 404.926Z" fill="url(#paint1_linear)"/>
<path d="M422.203 426.617C424.492 422.868 427.52 423.914 428.748 424.906C430.06 426.468 433.016 427.171 434.33 427.327L450.005 431.644L470.28 448.294L459.173 470.082L428.323 470.488C422.292 469.527 408.918 467.062 403.667 464.896C398.417 462.729 396.089 455.13 396.928 450.807C396.732 445.65 400.766 444.293 402.807 444.259C405.58 444.213 405.844 441.716 405.731 440.702C405.762 439.613 405.975 437.592 406.078 436.717C406.554 433.836 408.842 433.849 410.897 433.569C412.953 433.289 413.141 431.05 413.488 430.144C414.804 426.855 416.882 427.893 419.266 428.927C421.818 429.414 421.828 427.374 422.203 426.617Z" fill="url(#paint2_linear)"/>
<path d="M447.344 409.834C449.584 408.546 451.601 410.104 452.33 411.045L455.139 420.773L439.613 433.723L421.585 434.728L417.179 428.276C416.414 427.265 416.464 425.697 416.585 425.04C417.049 423.503 418.702 423.721 419.471 424.022C420.75 424.425 421.112 423.085 421.134 422.365C420.883 420.747 421.709 418.879 422.154 418.147C423.847 416.084 427.1 417.783 428.515 418.89C429.43 419.661 431.53 419.393 432.465 419.162C434.062 418.633 434.446 416.665 434.439 415.747C434.55 413.392 435.631 411.609 436.159 411.012C437.358 409.471 440.198 411.229 441.469 412.301C442.862 413.372 444.284 412.679 444.821 412.199L447.344 409.834Z" fill="#A00128"/>
<path d="M474.382 395.335C477.255 394.768 478.851 397.172 479.29 398.445L478.756 409.893L457.373 418.127L437.662 412.649L435.288 404.132C434.835 402.771 435.462 401.109 435.831 400.448C436.889 398.97 438.583 399.805 439.298 400.407C440.524 401.303 441.494 400.335 441.687 399.235C442.077 397.02 443.577 395.708 444.321 395.085C446.889 393.49 449.76 396.493 450.875 398.194C451.575 399.354 453.926 399.829 455.014 399.922C456.92 399.936 458.051 397.966 458.378 396.98C459.355 394.496 461.167 392.978 461.95 392.53C463.799 391.314 466.205 394.232 467.178 395.843C468.282 397.497 470.061 397.271 470.812 396.952L474.382 395.335Z" fill="#D91242"/>
<ellipse cx="420.536" cy="449.68" rx="11.5552" ry="11.5282" transform="rotate(23.4456 420.536 449.68)" fill="#FF3295"/>
<ellipse cx="438.062" cy="412.669" rx="9.01028" ry="8.98929" transform="rotate(23.4456 438.062 412.669)" fill="#FF3295"/>
<path d="M502.652 407.745C506.433 411.26 506.128 417.57 505.503 420.286L502.692 424.856C477.311 434.848 425.739 453.956 422.504 450.457C419.268 446.959 417.617 442.503 417.197 440.712C416.297 435.139 420.134 433.301 422.165 433.079C425.603 432.034 426.341 428.228 426.281 426.456C426.063 424.155 426.373 420.614 426.556 419.131C428.604 411.859 435.034 411.688 437.993 412.512C441.453 412.689 444.143 408.103 445.055 405.787C447.098 400.056 451.316 397.934 453.169 397.589C456.046 397.072 460.964 401.705 463.064 404.086C465.769 407.024 469.162 404.893 470.52 403.46C475.174 397.317 479.397 396.373 480.926 396.669C485.317 397.25 487.35 402.672 487.818 405.31C488.339 407.19 490.3 410.356 493.982 407.983C497.664 405.61 501.296 406.836 502.652 407.745Z" fill="url(#paint3_linear)"/>
<path d="M428.624 433.632C441.324 410.467 460.27 404.999 474.009 406.722C510.492 411.295 515.781 436.141 513.866 447.993C512.077 464.861 501.193 471.904 495.974 473.317C473.391 475.433 438.595 475.635 424.02 475.471C415.555 475.109 407.811 473.128 404.997 472.184C383.376 465.454 394.067 441.686 402.382 429.945C390.225 457.977 400.983 465.297 407.613 466.15C415.359 466.642 417.727 460.448 418.963 455.909C420.624 449.809 425.71 439.077 428.624 433.632Z" fill="url(#paint4_linear)"/>
<ellipse cx="453.684" cy="432.964" rx="3.42261" ry="3.41463" transform="rotate(23.4456 453.684 432.964)" fill="#BD9223"/>
<ellipse cx="467.544" cy="425.455" rx="1.83807" ry="1.83378" transform="rotate(23.4456 467.544 425.455)" fill="#BD9223"/>
<ellipse cx="485.647" cy="427.894" rx="4.03413" ry="4.02474" transform="rotate(23.4456 485.647 427.894)" fill="#BD9223"/>
<ellipse cx="479.339" cy="456.083" rx="3.30443" ry="3.29672" transform="rotate(23.4456 479.339 456.083)" fill="#BD9223"/>
<ellipse cx="444.754" cy="451.83" rx="3.87296" ry="3.86393" transform="rotate(23.4456 444.754 451.83)" fill="#BD9223"/>
<ellipse cx="497.549" cy="444.44" rx="2.31251" ry="2.30712" transform="rotate(23.4456 497.549 444.44)" fill="#BD9223"/>
<path d="M357.829 461.428C357.372 460.127 358.337 458.766 359.716 458.766H539.627C541.005 458.766 541.97 460.127 541.514 461.428L535.537 478.453C534.834 480.456 532.942 481.797 530.819 481.797H368.523C366.4 481.797 364.509 480.456 363.805 478.453L357.829 461.428Z" fill="#2D81FF"/>
<path d="M307.859 496.845L268.124 493.501L256.499 536.457C281.515 546.64 287.938 548.297 307.011 548.71C318.03 548.948 322.396 547.004 333.05 553.068L361.805 569.481C369.717 574.157 374.542 575.207 377.488 570.97C380.434 566.733 377.897 563.78 377.361 562.767L371.515 557.222L380.676 559.849C388.552 560.045 390.466 552.65 388.177 549.536C389.693 544.248 386.162 540.716 384.231 538.806C373.61 528.301 364.41 522.089 349.706 513.406L338.192 507.09C331.164 501.636 313.837 497.127 307.859 496.845Z" fill="#F1F1FC"/>
<path fill-rule="evenodd" clip-rule="evenodd" d="M335.554 517.705C335.937 516.668 337.086 516.138 338.121 516.521C352.909 521.981 362.618 527.212 370.206 532.414C375.84 536.277 380.312 540.137 384.74 543.959C386.236 545.25 387.727 546.536 389.255 547.817C390.102 548.526 390.213 549.788 389.504 550.635C388.795 551.482 387.535 551.593 386.689 550.885C385.074 549.531 383.532 548.2 382.007 546.885C377.623 543.101 373.382 539.441 367.946 535.714C360.67 530.725 351.264 525.638 336.736 520.273C335.701 519.891 335.172 518.741 335.554 517.705Z" fill="#060D34"/>
<path fill-rule="evenodd" clip-rule="evenodd" d="M332.363 532.513C332.828 531.511 334.016 531.076 335.017 531.54C344.842 536.1 351.628 539.978 358.198 544.488C358.227 544.508 358.255 544.528 358.282 544.549L373.453 556.167C374.33 556.838 374.496 558.093 373.825 558.971C373.154 559.848 371.9 560.015 371.024 559.344L355.894 547.758C349.548 543.405 342.969 539.64 333.335 535.169C332.334 534.704 331.899 533.515 332.363 532.513Z" fill="#060D34"/>
<path d="M196.382 398.708C194.23 378.129 197.475 349.059 199.547 304.537C202.365 277.181 201.329 250.866 153.113 242.954C114.54 236.625 99.5585 275.077 93.9668 290.143C63.9709 370.964 77.5112 426.844 87.3156 452.315C104.583 497.173 164.652 528.444 256.948 538.635C259.224 538.886 261.392 537.543 262.177 535.392L277.058 494.626C277.821 492.533 277.109 490.188 275.31 488.875C248.031 468.958 217.878 446.693 201.845 418.874C197.458 411.262 197.24 406.913 196.382 398.708Z" fill="url(#paint5_linear)"/>
<defs>
<linearGradient id="paint0_linear" x1="216.089" y1="525.662" x2="216.089" y2="884.803" gradientUnits="userSpaceOnUse">
<stop stop-color="#0B2BED"/>
<stop offset="1" stop-color="#0F0967"/>
</linearGradient>
<linearGradient id="paint1_linear" x1="456.143" y1="393.347" x2="430.964" y2="451.404" gradientUnits="userSpaceOnUse">
<stop stop-color="#15D098"/>
<stop offset="1" stop-color="#13926C"/>
</linearGradient>
<linearGradient id="paint2_linear" x1="417.907" y1="417.724" x2="422.802" y2="473.252" gradientUnits="userSpaceOnUse">
<stop stop-color="#F81249"/>
<stop offset="1" stop-color="#7A001E"/>
</linearGradient>
<linearGradient id="paint3_linear" x1="476.263" y1="394.41" x2="472.909" y2="432.693" gradientUnits="userSpaceOnUse">
<stop stop-color="#35F8BD"/>
<stop offset="1" stop-color="#0EA578"/>
</linearGradient>
<linearGradient id="paint4_linear" x1="476.394" y1="408.063" x2="460.62" y2="476.806" gradientUnits="userSpaceOnUse">
<stop stop-color="#FFE8AC"/>
<stop offset="1" stop-color="#DA9748"/>
</linearGradient>
<linearGradient id="paint5_linear" x1="202.803" y1="297.332" x2="294.718" y2="492.778" gradientUnits="userSpaceOnUse">
<stop stop-color="#110F89"/>
<stop offset="0.335202" stop-color="#0D1998"/>
<stop offset="1" stop-color="#0239C6"/>
</linearGradient>
</defs>
</svg>
