<svg width="561" height="958" viewBox="0 0 561 958" fill="none" xmlns="http://www.w3.org/2000/svg">
<path fill-rule="evenodd" clip-rule="evenodd" d="M352.049 865.538C356.596 866.24 361.266 867.446 364.283 869.112C379.958 877.768 406.516 884.632 420.896 887.48C452.889 893.542 465.983 917.23 468.831 929.452C469.028 930.3 469.077 931.138 469.038 931.937L468.287 947.202C468.03 952.437 463.795 956.603 458.524 956.663C443.12 956.838 405.949 956.994 367.792 955.167C329.504 953.333 291.817 949.41 276.324 947.68C271.09 947.096 267.293 942.536 267.55 937.308L268.347 921.1C268.391 901.536 272.826 881.558 276.204 869.965C277.559 865.316 282.138 862.623 286.775 863.18C313.178 866.349 329.654 866.266 339.378 865.014C342.702 864.586 347.478 864.832 352.049 865.538ZM351.44 869.491C347.053 868.814 342.691 868.621 339.888 868.981C329.698 870.293 312.853 870.338 286.3 867.151C283.434 866.807 280.802 868.474 280.041 871.085C276.719 882.488 272.379 902.09 272.344 921.155L272.344 921.203L271.542 937.505C271.387 940.659 273.666 943.359 276.766 943.705C292.228 945.431 329.819 949.343 367.982 951.171C406.025 952.993 443.107 952.838 458.478 952.663C461.601 952.627 464.14 950.162 464.295 947.005L465.046 931.74C465.071 931.239 465.036 930.781 464.939 930.36C462.364 919.312 450.249 897.11 420.145 891.409L420.128 891.405C405.692 888.547 378.606 881.59 362.353 872.614C359.961 871.294 355.852 870.172 351.44 869.491Z" fill="white"/>
<path fill-rule="evenodd" clip-rule="evenodd" d="M466.928 929.683L467.05 931.679C467.172 933.676 467.171 933.676 467.171 933.676L467.143 933.677L467.063 933.682L466.751 933.7C466.476 933.715 466.066 933.736 465.522 933.762C464.435 933.815 462.814 933.886 460.671 933.962C456.385 934.112 450.011 934.28 441.642 934.349C424.906 934.487 400.191 934.229 368.247 932.648C336.304 931.067 311.844 928.898 295.362 927.124C287.121 926.236 280.875 925.447 276.684 924.88C274.589 924.596 273.007 924.367 271.948 924.209C271.418 924.13 271.019 924.069 270.751 924.027L270.447 923.98L270.37 923.967L270.344 923.963C270.344 923.963 270.342 923.963 270.662 921.989L270.982 920.014L271.003 920.018L271.075 920.029L271.365 920.075C271.624 920.115 272.015 920.175 272.536 920.253C273.578 920.408 275.142 920.634 277.22 920.916C281.375 921.479 287.586 922.263 295.79 923.147C312.198 924.913 336.58 927.076 368.444 928.653C400.308 930.23 424.946 930.487 441.609 930.349C449.941 930.281 456.279 930.114 460.53 929.964C462.655 929.889 464.259 929.819 465.329 929.767C465.864 929.741 466.266 929.72 466.533 929.705L466.832 929.689L466.906 929.684L466.928 929.683Z" fill="white"/>
<path fill-rule="evenodd" clip-rule="evenodd" d="M284.77 946.123L285.895 923.25L289.887 923.447L288.762 946.32L284.77 946.123Z" fill="white"/>
<path fill-rule="evenodd" clip-rule="evenodd" d="M357.546 951.871L358.671 928.998L362.663 929.195L361.537 952.068L357.546 951.871Z" fill="white"/>
<path fill-rule="evenodd" clip-rule="evenodd" d="M302.67 948.449L303.795 925.576L307.787 925.773L306.662 948.646L302.67 948.449Z" fill="white"/>
<path fill-rule="evenodd" clip-rule="evenodd" d="M375.307 952.747L376.432 929.874L380.424 930.071L379.299 952.944L375.307 952.747Z" fill="white"/>
<path fill-rule="evenodd" clip-rule="evenodd" d="M321.008 950.068L322.133 927.195L326.125 927.392L325 950.265L321.008 950.068Z" fill="white"/>
<path fill-rule="evenodd" clip-rule="evenodd" d="M393.576 953.649L394.701 930.776L398.693 930.973L397.568 953.846L393.576 953.649Z" fill="white"/>
<path fill-rule="evenodd" clip-rule="evenodd" d="M429.549 954.837L430.674 931.964L434.665 932.161L433.54 955.034L429.549 954.837Z" fill="white"/>
<path fill-rule="evenodd" clip-rule="evenodd" d="M338.262 950.919L339.387 928.046L343.379 928.243L342.254 951.116L338.262 950.919Z" fill="white"/>
<path fill-rule="evenodd" clip-rule="evenodd" d="M410.829 954.5L411.954 931.627L415.946 931.824L414.821 954.697L410.829 954.5Z" fill="white"/>
<path fill-rule="evenodd" clip-rule="evenodd" d="M446.65 954.11L447.775 931.237L451.767 931.434L450.642 954.307L446.65 954.11Z" fill="white"/>
<path d="M86.3135 49.044L186.847 41.9276C187.579 41.8757 188.261 42.305 188.532 42.9887L211.604 101.193C213.455 105.865 210.846 111.112 206.009 112.447L193.866 115.797C193.087 116.012 192.57 116.757 192.631 117.564C196.469 168.65 190.49 210.817 188.386 237.375C188.265 238.898 186.333 239.534 185.31 238.401C171.653 223.276 137.366 193.953 74.9974 178.523C74.2421 178.337 73.6965 177.656 73.6965 176.877V134.269C73.6965 133.793 73.4959 133.339 73.144 133.019L55.1663 116.67C54.8144 116.35 54.6138 115.896 54.6138 115.42V53.2182C54.6138 52.3396 55.2865 51.6078 56.1608 51.5356L86.3135 49.044Z" fill="#F1F1FC"/>
<path d="M198.564 54.4314L96.2027 61.7776C94.09 61.9293 92.418 63.6281 92.2969 65.7462L90.6896 93.8479C90.5087 97.0108 87.0428 98.854 84.3256 97.2324L75.2693 91.8276C66.517 87.5771 60.0191 91.4908 56.8082 96.4765C49.1845 108.314 61.3172 117.341 60.0454 116.06L59.6875 115.736C59.8552 115.879 59.9724 115.987 60.0454 116.06L75.0524 129.646C76.2063 130.691 76.6919 132.288 76.3155 133.799L73.2631 146.058C72.674 148.423 70.1944 149.809 68.0546 148.647C57.5764 142.955 49.4578 129.726 45.205 123.374C26.3077 95.1482 23.6551 26.741 90.2924 4.82518C156.93 -17.0907 201.581 42.4508 202.907 47.7639C203.901 51.7457 201.093 53.707 199.281 54.303C199.049 54.3792 198.807 54.414 198.564 54.4314Z" fill="#0F43EC"/>
<path d="M175.495 82.5297C175.495 84.7305 173.714 86.5145 171.517 86.5145C169.319 86.5145 167.538 84.7305 167.538 82.5297C167.538 80.329 169.319 78.5449 171.517 78.5449C173.714 78.5449 175.495 80.329 175.495 82.5297Z" fill="#0F0967"/>
<path d="M421.489 650.364C421.489 568.012 371.096 528.164 314.737 528.164L240.474 525.662H17.6805C8.08725 555.569 8.54978 578.793 17.6806 598.324C45.6533 658.157 132.205 643.723 240.474 643.723C299.295 643.723 296.171 682.243 291.53 712.793L263.081 866.668C262.292 870.931 264.846 875.07 269.056 876.08C281.803 879.137 309.608 884.803 340.596 884.803C370.292 884.803 390.897 882.852 400.592 881.68C404.34 881.227 407.188 878.213 407.59 874.453C417.749 779.663 421.923 697.38 421.489 650.364Z" fill="url(#paint0_linear)"/>
<path d="M199.365 251.22C173.235 214.101 108.983 190.196 70.9275 180.363C63.7453 178.507 56.3196 181.945 52.9321 188.555C-13.93 319.011 -3.27737 458.708 12.0649 519.362C12.9902 523.02 16.3096 525.507 20.0771 525.507H241.33C245.984 525.507 249.758 521.727 249.758 517.065V453.603V439.169C244.984 341.94 214.174 273.357 199.365 251.22Z" fill="#110F89"/>
<path d="M357.829 461.428C357.372 460.127 358.337 458.766 359.716 458.766H539.627C541.005 458.766 541.97 460.127 541.514 461.428L535.537 478.453C534.834 480.456 532.942 481.797 530.819 481.797H368.523C366.4 481.797 364.509 480.456 363.805 478.453L357.829 461.428Z" fill="#2D81FF"/>
<mask id="mask0" style="mask-type:alpha" maskUnits="userSpaceOnUse" x="239" y="80" width="161" height="123">
<path d="M239.25 80.5L400 80.5L400 202L249.25 202.75C249.25 202.75 270 174.5 265.5 165C261 155.5 253 155 256 140.5C259 126 239.25 80.5 239.25 80.5Z" fill="#C4C4C4"/>
</mask>
<g mask="url(#mask0)">
<path d="M331.213 107.805C335 111.242 334.772 117.497 334.184 120.194L331.453 124.754C306.427 134.949 255.563 154.481 252.316 151.053C249.07 147.625 247.383 143.23 246.945 141.461C245.989 135.951 249.768 134.086 251.777 133.842C255.171 132.766 255.858 128.987 255.778 127.232C255.534 124.956 255.801 121.444 255.964 119.973C257.909 112.745 264.276 112.501 267.217 113.282C270.647 113.418 273.257 108.843 274.133 106.538C276.635 100.578 280.244 98.6857 282.076 98.3224C284.92 97.7769 289.846 102.308 291.954 104.642C294.668 107.521 298.004 105.37 299.333 103.935C303.871 97.7958 308.043 96.8113 309.562 97.0865C313.918 97.6105 315.996 102.958 316.49 105.566C317.028 107.422 319.007 110.535 322.627 108.142C326.247 105.748 329.859 106.92 331.213 107.805Z" fill="url(#paint1_linear)"/>
<path d="M263.913 128.153C264.533 123.179 268.173 122.846 269.915 123.301C272.014 124.309 275.417 123.652 276.857 123.198L295.184 120.327L324.085 128.121L322.765 155.993L290.875 170.899C284.153 172.731 269.088 176.448 262.611 176.66C256.134 176.872 250.373 170.411 248.988 165.174C247.455 159.381 249.92 156.598 252.027 155.604C254.889 154.255 253.992 151.535 253.398 150.533C252.918 149.386 252.191 147.184 251.887 146.226C251.029 143.007 253.415 141.947 255.421 140.69C257.427 139.433 256.571 137.017 256.507 135.912C256.331 131.874 258.979 131.978 261.944 131.934C264.826 131.242 263.879 129.115 263.913 128.153Z" fill="url(#paint2_linear)"/>
<path d="M304.36 99.8306C307.163 98.9191 309.048 101.134 309.641 102.355L310.488 113.878L290.107 124.681L269.743 121.56L266.343 113.32C265.727 112.012 266.152 110.274 266.442 109.568C267.321 107.962 269.115 108.594 269.902 109.111C271.236 109.861 271.956 108.451 272.149 107.652C272.25 105.786 273.612 103.895 274.281 103.183C276.656 101.279 279.888 103.94 281.208 105.509C282.047 106.586 284.455 106.78 285.554 106.743C287.46 106.528 288.353 104.422 288.561 103.395C289.239 100.792 290.866 99.0558 291.595 98.513C293.296 97.0747 296.054 99.7065 297.22 101.202C298.523 102.726 300.274 102.287 300.987 101.877L304.36 99.8306Z" fill="#A00128"/>
<path d="M343.009 98.1655C346.867 98.294 348.2 101.857 348.385 103.622L344.287 118.164L314.374 122.365L290.695 109.456L290.185 97.8118C290.009 95.9291 291.308 93.9811 291.98 93.2425C293.779 91.6596 295.706 93.2366 296.444 94.2229C297.752 95.7395 299.285 94.785 299.861 93.4302C301.022 90.7013 303.339 89.4638 304.48 88.8861C308.254 87.603 311.046 92.3151 311.97 94.8316C312.524 96.5296 315.401 97.8407 316.771 98.284C319.214 98.8702 321.253 96.678 321.967 95.5087C323.963 92.6107 326.741 91.2011 327.881 90.8586C330.617 89.8484 332.838 94.3124 333.607 96.6707C334.531 99.1245 336.883 99.365 337.943 99.1785L343.009 98.1655Z" fill="#D91242"/>
<ellipse cx="271.231" cy="150.464" rx="13.1839" ry="13.1531" transform="rotate(23.0418 271.231 150.464)" fill="#FF3295"/>
<ellipse cx="285.551" cy="104.958" rx="10.2803" ry="10.2563" transform="rotate(35.3485 285.551 104.958)" fill="#FF3295"/>
<path d="M366.696 105.877C370.852 108.751 370.096 115.314 369.198 118.236C368.059 121.096 366.506 123.622 369.017 126.98C372.047 131.033 375.436 126.95 377.966 131.675C381.307 137.913 367.823 148.635 368.251 152.503C337.28 149.442 280.852 135.331 279.386 130.095C277.921 124.859 278.564 119.475 279.068 117.438C281.055 111.311 285.907 111.442 288.084 112.273C292.119 113 294.85 109.52 295.71 107.689C296.686 105.239 298.844 101.805 299.801 100.394C305.665 94.0761 312.282 97.2484 314.858 99.6244C318.279 101.605 323.397 98.3468 325.527 96.4702C330.584 91.7144 335.971 91.7541 338.033 92.3684C341.223 93.3406 343.806 100.603 344.699 104.113C345.918 108.504 350.471 108.105 352.596 107.357C360.517 103.541 365.296 104.78 366.696 105.877Z" fill="url(#paint3_linear)"/>
<path d="M271.571 124.575C283.065 102.124 302.691 98.4106 318.48 98.949C333.552 99.463 352.729 104.521 365.298 124.156C377.867 143.791 374.31 174.672 362.659 176.64C350.633 178.67 291.812 185.5 274.541 184.533C261.937 183.827 258.75 181.156 255.875 174.406C257.776 175.746 258.713 175.595 260.113 175.369L260.125 175.367C263.547 174.814 263.042 171.686 263.463 168.849C264.977 158.662 263.951 139.46 271.571 124.575Z" fill="url(#paint4_linear)"/>
<ellipse cx="302.396" cy="129.565" rx="3.90502" ry="3.89593" transform="rotate(23.0418 302.396 129.565)" fill="#BD9223"/>
<ellipse cx="318.149" cy="120.886" rx="2.09714" ry="2.09226" transform="rotate(23.0418 318.149 120.886)" fill="#BD9223"/>
<ellipse cx="338.823" cy="123.524" rx="4.60274" ry="4.59203" transform="rotate(23.0418 338.823 123.524)" fill="#BD9223"/>
<ellipse cx="331.852" cy="155.736" rx="3.77018" ry="3.76138" transform="rotate(23.0418 331.852 155.736)" fill="#BD9223"/>
<ellipse cx="292.36" cy="151.162" rx="4.41885" ry="4.40855" transform="rotate(23.0418 292.36 151.162)" fill="#BD9223"/>
<ellipse cx="352.535" cy="142.305" rx="2.63846" ry="2.6323" transform="rotate(23.0418 352.535 142.305)" fill="#BD9223"/>
</g>
<path d="M357.038 174.532C355.93 182.252 353.651 194.254 352.147 204.771C350.644 215.287 345.683 224.102 345.846 229.692C346.009 235.283 347.355 243.077 347.876 247.692L307.267 249.964C307.267 249.964 306.825 241.102 302.844 231.739C298.862 222.376 293.871 219.523 290.041 211.773C286.211 204.023 279.869 184.61 279.869 184.61C279.869 184.61 288.731 184.283 290.093 177.087C291.455 169.892 293.069 154.951 292.96 147.29C292.851 139.629 294.488 130.716 294.722 127.216C294.956 123.716 297.699 118.761 302.071 119.183C306.443 119.605 305.746 123.457 306.138 126.935C306.53 130.413 306.623 136.818 306.655 148.261C306.684 158.326 306.577 165.828 307.392 166.374C308.154 166.884 307.461 149.247 308.708 139.701C310.15 128.664 309.24 119.543 309.844 112.463C310.448 105.384 318.372 105.192 320.456 109.164C322.54 113.136 322.281 115.144 322.955 116.828C323.305 117.7 324.167 113.863 326.103 112.617C327.904 111.458 329.98 110.808 332.785 113.85C334.973 116.222 337.668 127.597 338.965 134.407C338.563 131.67 338.251 126.749 340.977 125.775C344.796 124.41 348.024 127.748 348.024 127.748C351.391 132.743 354.777 150.04 354.853 155.155C354.967 162.888 358.145 166.813 357.038 174.532Z" fill="#F1F1FC"/>
<path d="M323.417 116.775C325.759 137.544 326.697 146.814 325.586 166.792" stroke="#060D34" stroke-width="3.5" stroke-linecap="round"/>
<path d="M339.521 133.486C341.832 142.283 342.7 149.984 343.419 168.052" stroke="#060D34" stroke-width="3.5" stroke-linecap="round"/>
<path d="M307.929 124.972C307.635 134.062 306.488 154.318 307.893 166.774" stroke="#060D34" stroke-width="3.5" stroke-linecap="round"/>
<path d="M251.621 323.839C228.009 310.876 200.941 260.424 159.687 236.685C135.095 220.633 101.15 230.814 70.0609 272.718C45.1893 306.242 87.4313 354.324 99 367C161.059 434.999 223.633 447.688 272 440C319.882 432.389 382.319 356.433 350.013 229.869C349.44 227.624 347.365 226.048 345.05 226.115L297.842 227.49C295.366 227.562 293.322 229.433 292.977 231.887C288.242 265.584 274.567 304.757 264.5 321.5C261.221 326.953 254.685 325.522 251.621 323.839Z" fill="url(#paint5_linear)"/>
<path d="M183 123.25C176.25 122.75 167.75 121.75 158.5 117.75C158.25 127 165.75 136.75 181.75 138.25" stroke="#0F0967" stroke-width="4" stroke-linecap="round" stroke-linejoin="round"/>
<defs>
<linearGradient id="paint0_linear" x1="216.088" y1="525.662" x2="216.088" y2="884.803" gradientUnits="userSpaceOnUse">
<stop stop-color="#0B2BED"/>
<stop offset="1" stop-color="#0F0967"/>
</linearGradient>
<linearGradient id="paint1_linear" x1="304.916" y1="94.9029" x2="276.973" y2="161.477" gradientUnits="userSpaceOnUse">
<stop stop-color="#15D098"/>
<stop offset="1" stop-color="#13926C"/>
</linearGradient>
<linearGradient id="paint2_linear" x1="264.5" y1="121.367" x2="253.152" y2="171.594" gradientUnits="userSpaceOnUse">
<stop stop-color="#F81249"/>
<stop offset="1" stop-color="#7A001E"/>
</linearGradient>
<linearGradient id="paint3_linear" x1="363.137" y1="101.156" x2="339.811" y2="138.284" gradientUnits="userSpaceOnUse">
<stop stop-color="#35F8BD"/>
<stop offset="1" stop-color="#0EA578"/>
</linearGradient>
<linearGradient id="paint4_linear" x1="328.106" y1="100.971" x2="310.662" y2="179.529" gradientUnits="userSpaceOnUse">
<stop stop-color="#FFE8AC"/>
<stop offset="1" stop-color="#DA9748"/>
</linearGradient>
<linearGradient id="paint5_linear" x1="147.383" y1="263.082" x2="377.877" y2="271.399" gradientUnits="userSpaceOnUse">
<stop stop-color="#110F89"/>
<stop offset="0.335202" stop-color="#0D1998"/>
<stop offset="1" stop-color="#0239C6"/>
</linearGradient>
</defs>
</svg>
