<svg width="409" height="1136" viewBox="0 0 409 1136" fill="none" xmlns="http://www.w3.org/2000/svg">
<path fill-rule="evenodd" clip-rule="evenodd" d="M211.172 528.017C151.012 527.946 119.976 517.462 107.698 513.315C105.119 512.444 103.368 511.852 102.348 511.695C97.6335 510.97 94.7712 515.624 93.9293 518.043C90.4268 535.491 89.4966 560.818 87.5088 614.937C86.4389 644.068 85.0625 681.541 82.8137 730.618C76.9079 859.503 69.2581 1030.1 68.0568 1056.9C67.9576 1059.12 69.331 1061.02 71.4406 1061.69C120.475 1077.39 174.531 1069.78 197.468 1063.16C199.515 1062.57 200.865 1060.73 200.894 1058.6C201.134 1041.26 202.163 962.858 202.163 893.703C202.163 815.595 204.203 693.117 204.212 692.577C204.212 692.561 204.212 692.567 204.212 692.55C204.215 680.583 206.253 674.659 208.387 668.458C209.163 666.2 213.18 666.2 213.957 668.458C216.091 674.659 218.129 680.583 218.132 692.55C218.132 692.567 218.131 692.561 218.132 692.577C218.141 693.117 220.181 815.595 220.181 893.703C220.181 962.858 221.21 1041.26 221.449 1058.6C221.479 1060.73 222.829 1062.57 224.876 1063.16C247.812 1069.78 301.869 1077.39 350.903 1061.69C353.013 1061.02 354.386 1059.12 354.287 1056.9C353.086 1030.1 345.436 859.503 339.53 730.618C337.281 681.541 335.905 644.068 334.835 614.937C332.847 560.818 331.917 535.491 328.414 518.043C327.573 515.624 324.71 510.97 319.996 511.695C318.976 511.852 317.225 512.444 314.646 513.315C302.368 517.462 271.332 527.946 211.172 528.017Z" fill="url(#paint0_linear)"/>
<path d="M308.558 553.555C309.49 569.397 314.152 590.831 332.801 593.627" stroke="white" stroke-width="3" stroke-linecap="round"/>
<path d="M333.56 347.062C332.226 234.999 288.461 216.559 263.569 213.139C214.168 204.299 173.28 209.456 159.011 213.139C97.5073 231.06 90.1366 264.861 85.0297 340.981C81.6718 391.03 74.9545 483.678 82.3131 526.176C84.5266 538.958 94.3032 542.153 98.9148 542.153C179.158 555.847 265.895 550.825 315.271 543.419C327.745 541.548 331.609 534.687 332.543 526.176C336.861 486.821 333.081 384.014 333.56 347.062Z" fill="#120F8A"/>
<path d="M369.828 622.059C376.018 609.934 380.972 591.372 379.204 564.533L335.697 560.604C335.697 560.604 332.64 576.714 331.801 585.995C330.962 595.277 328.186 613.038 336.523 614.077C335.61 639.831 330.269 644.123 332.708 648.454C334.659 651.918 340.936 651.35 343.831 650.633C356.913 649.935 363.575 633.826 369.828 622.059Z" fill="#E9F0FD"/>
<path d="M309.49 216.203L261.004 196.633C255.62 243.713 308.823 263.119 319.712 319.116C329.272 370.766 330.12 537.829 331.635 558.098C331.635 563.107 330.353 568.699 333.966 568.932L377.692 567.716C384.389 567.253 385.677 561.559 385.484 558.77C398.775 476.673 407.033 363.295 377.793 293.552C363.766 252.954 343.057 233.909 309.49 216.203Z" fill="url(#paint1_linear)"/>
<path d="M53.0786 622.059C46.8882 609.934 41.9341 591.372 43.7022 564.533L87.209 560.604C87.209 560.604 90.2662 576.714 91.1053 585.995C91.9444 595.277 94.7204 613.038 86.3829 614.077C87.2962 639.831 92.637 644.123 90.1984 648.454C88.2475 651.918 81.9698 651.35 79.0748 650.633C65.9932 649.935 59.3309 633.826 53.0786 622.059Z" fill="#E9F0FD"/>
<path d="M113.416 216.203L161.902 196.633C167.286 243.713 114.083 263.119 103.194 319.116C93.6342 370.766 92.7866 537.829 91.2714 558.098C91.2714 563.107 92.5535 568.699 88.9404 568.932L45.2146 567.716C38.5172 567.253 37.2292 561.559 37.4223 558.77C24.131 476.673 15.8732 363.295 45.1128 293.552C59.1407 252.954 79.8493 233.909 113.416 216.203Z" fill="url(#paint2_linear)"/>
<path d="M85.2172 614.977C83.2895 615.229 78.8021 613.919 76.2735 606.662C74.2093 599.362 73.2046 588.269 68.3093 581.629" stroke="#0F0967" stroke-width="3" stroke-linecap="round"/>
<path d="M337.689 614.977C339.617 615.229 344.104 613.919 346.633 606.662C348.697 599.362 349.702 588.269 354.597 581.629" stroke="#0F0967" stroke-width="3" stroke-linecap="round"/>
<ellipse rx="41.2557" ry="40.8187" transform="matrix(0.999718 -0.0237283 0.0237518 0.999718 206.374 324.776)" fill="#59F0E7" fill-opacity="0.3"/>
<ellipse rx="35.6299" ry="35.2525" transform="matrix(0.999718 -0.0237283 0.0237518 0.999718 206.598 324.77)" fill="#59F0E7" fill-opacity="0.4"/>
<ellipse rx="29.254" ry="29.3153" transform="matrix(0.999718 -0.0237283 0.0237518 0.999718 206.374 324.775)" fill="#59F0E7"/>
<path d="M220.023 332.855L220.044 332.806L220.061 332.755C221.2 329.476 221.136 325.682 219.87 322.332C219.38 321.037 218.186 320.424 217.04 320.493C216.957 320.498 216.874 320.506 216.791 320.518C216.667 320.119 216.504 319.68 216.291 319.196L214.46 320.001L216.291 319.196C215.795 318.068 215.409 317.44 213.936 315.596L213.852 315.491L213.756 315.399C213.757 315.399 213.731 315.371 213.618 315.221C213.613 315.213 213.607 315.205 213.6 315.196C213.514 315.08 213.354 314.867 213.149 314.654C212.994 314.465 212.851 314.294 212.718 314.135C212.302 313.639 211.988 313.263 211.743 312.851C211.406 311.588 211.311 310.467 211.323 309.608C211.337 308.49 210.768 307.522 210.001 306.948C209.207 306.354 207.934 306.02 206.725 306.73C204.771 307.876 202.989 309.515 201.644 311.526C200.732 312.85 199.982 314.328 199.383 315.93C199.332 315.892 199.279 315.854 199.226 315.816L199.207 315.802L199.188 315.789C198.944 315.624 198.687 315.464 198.442 315.322L197.583 316.809L198.442 315.322C197.651 314.865 196.577 314.76 195.66 315.39C194.834 315.957 194.529 316.852 194.496 317.578C194.452 318.573 194.255 320.066 193.711 321.569C193.612 321.835 193.239 322.887 192.88 324.058C192.552 325.13 192.13 326.625 192.082 327.626C191.865 330.695 192.601 332.741 193.08 333.757C194.169 336.107 196.76 339.527 201.547 341.197C206.272 342.849 210.522 341.728 212.311 340.801C217.373 338.49 219.362 334.474 220.023 332.855Z" fill="#CA0D7B" stroke="#FF7EC9" stroke-width="4"/>
<path d="M210.232 335.112C209.291 336.101 207.998 336.753 206.552 336.788C202.627 336.881 199.145 332.407 202.017 328.611C203.147 326.858 204.714 326.131 205.291 324.322C205.55 323.626 205.598 322.727 205.516 322.177C205.442 321.971 205.355 321.214 205.353 321.145C205.352 321.076 205.352 321.076 205.421 321.074L205.488 321.004C205.557 321.002 205.557 321.002 205.626 321.001C205.767 321.135 205.907 321.27 206.048 321.405C206.33 321.674 206.683 322.011 206.965 322.28C207.67 322.954 208.317 324.112 208.486 325.42C208.663 327.073 208.283 328.462 207.065 329.389C207.621 329.583 208.171 329.569 208.786 329.348C209.742 328.98 210.279 328.415 210.468 327.651C210.468 327.651 210.466 327.582 210.535 327.58L210.604 327.579C211.16 327.773 211.799 328.586 211.914 330.516C211.811 331.968 211.643 333.629 210.232 335.112Z" fill="#FFADDD"/>
<path d="M155.2 73.5621L211.394 73.0517L272.555 72.4962C272.816 101.236 269.832 140.472 267.858 167.487C265.885 194.502 264.613 202.92 261.585 222.118C256.19 256.332 229.431 261.701 212.646 261.62C177.213 261.709 166.736 237.34 163.567 222.225C161.586 209.429 157.363 180.809 155.974 158.597C153.67 121.761 153.782 91.4441 155.2 73.5621Z" fill="#E9F0FF"/>
<path d="M218.996 178.73C214.955 179.038 211.039 178.537 207.584 177.659C203.499 176.62 199.169 180.061 201.847 183.316C205.922 188.267 211.957 189.698 215.429 189.667C219.18 189.945 222.397 188.529 225.052 186.348C228.814 183.257 223.851 178.359 218.996 178.73Z" fill="#D7DDE9"/>
<path d="M198.27 161.751C204.294 156.845 219.072 149.918 229.996 161.463" stroke="#0F0967" stroke-width="3" stroke-linecap="round" stroke-linejoin="round"/>
<path d="M254.429 75.6939C216.066 84.8185 181.899 77.5584 172.518 75.7717C163.137 73.985 160.746 71.0237 158.551 84.1523C156.356 97.281 155.706 152.4 155.706 152.4C155.807 163.576 143.834 140.493 143.8 136.961L139.703 111.627C139.403 78.6717 141.417 59.4182 162.818 38.9503C189.105 13.8097 238.974 16.7686 266.056 41.1318C282.559 55.9782 283.605 91.2313 283.492 105.488C283.38 119.745 280.624 135.718 280.624 135.718C278.321 148.303 267.931 162.171 269.048 152.133C270.166 142.095 268.891 94.9894 267.344 84.3724L267.304 84.0946C265.796 73.7422 265.69 73.0153 254.429 75.6939Z" fill="#0F43EC"/>
<path d="M146.205 117.152L156.873 118.87L165.647 148.78L152.898 144.711C142.268 141.783 139.06 133.636 138.616 127.745C138.072 120.542 141.533 117.071 146.205 117.152Z" fill="#E9F0FF"/>
<path d="M277.506 115.96L266.87 117.872L258.642 147.936L271.314 143.636C281.89 140.516 284.949 132.312 285.286 126.414C285.699 119.202 282.175 115.794 277.506 115.96Z" fill="#E9F0FF"/>
<path d="M197.424 95.5107C197.836 94.6365 197.462 93.5939 196.587 93.1818C195.713 92.7698 194.67 93.1444 194.258 94.0186L197.424 95.5107ZM178.761 101.077C177.794 101.057 176.995 101.825 176.975 102.791C176.955 103.757 177.723 104.556 178.689 104.576L178.761 101.077ZM194.258 94.0186C193.273 96.1068 190.98 97.9229 187.963 99.2153C184.984 100.491 181.574 101.134 178.761 101.077L178.689 104.576C182.018 104.644 185.921 103.897 189.341 102.432C192.724 100.983 195.917 98.7062 197.424 95.5107L194.258 94.0186Z" fill="#0F0967"/>
<path d="M230.203 94.5097C229.837 93.6153 230.265 92.5933 231.159 92.2271C232.054 91.8609 233.076 92.2891 233.442 93.1835L230.203 94.5097ZM248.553 101.035C249.519 101.066 250.277 101.873 250.247 102.839C250.217 103.805 249.409 104.564 248.443 104.533L248.553 101.035ZM233.442 93.1835C234.317 95.3198 236.513 97.2523 239.459 98.6992C242.368 100.128 245.74 100.946 248.553 101.035L248.443 104.533C245.114 104.428 241.256 103.481 237.916 101.841C234.614 100.219 231.542 97.779 230.203 94.5097L233.442 93.1835Z" fill="#0F0967"/>
<ellipse rx="4.16076" ry="4.1587" transform="matrix(0.999983 -0.00908251 0.00909161 0.999935 189.748 113.117)" fill="#0F0967"/>
<ellipse rx="4.16076" ry="4.15871" transform="matrix(0.999983 -0.00908223 0.00909191 0.999935 235.81 112.699)" fill="#0F0967"/>
<path d="M217.425 102.922L222.021 138.198C222.253 139.983 220.873 141.569 219.073 141.585L205.295 141.71" stroke="#0F0967" stroke-width="3" stroke-linecap="round"/>
<path d="M114.616 553.555C113.683 569.397 109.021 590.831 90.373 593.627" stroke="white" stroke-width="3" stroke-linecap="round"/>
<path d="M193.936 1066.04C195.979 1074.87 195.161 1087.47 195.161 1087.47L195.137 1105.95C195.136 1106.98 194.734 1107.97 193.945 1108.64C191.568 1110.65 185.484 1115.18 174.362 1119.69C159.443 1125.75 146.157 1130.18 127.275 1131.57C107.694 1132.5 95.3401 1132.51 81.3538 1130.87C61.3848 1127.52 54.7898 1127.8 55.2668 1121.43L55.4984 1100.75C55.9868 1084.14 66.9136 1071.9 83.5181 1066.57C98.62 1062.32 119.33 1059.16 141.457 1077.07" stroke="white" stroke-width="3" stroke-linecap="round"/>
<path d="M56.0814 1105.58C75.9927 1115.27 160.2 1117.85 195.162 1087.47" stroke="white" stroke-width="3"/>
<path d="M94.6032 1111.97L94.1518 1131.81" stroke="white" stroke-width="3"/>
<path d="M116.061 1112.68L115.972 1131.36" stroke="white" stroke-width="3"/>
<path d="M137.257 1108.93L137.296 1131.32" stroke="white" stroke-width="3"/>
<path d="M154.018 1106.78L153.563 1128.14" stroke="white" stroke-width="3"/>
<path d="M167.279 1102.39L167.039 1122.72" stroke="white" stroke-width="3"/>
<path d="M178.725 1098.04L178.642 1118.38" stroke="white" stroke-width="3"/>
<path d="M187.907 1093.06L188.136 1113.4" stroke="white" stroke-width="3"/>
<path d="M74.3066 1110.6L73.81 1129.31" stroke="white" stroke-width="3"/>
<path d="M232.32 1066.04C230.277 1074.87 231.095 1087.47 231.095 1087.47L231.118 1105.95C231.12 1106.98 231.522 1107.97 232.311 1108.64C234.687 1110.65 240.772 1115.18 251.894 1119.69C266.813 1125.75 280.099 1130.18 298.981 1131.57C318.562 1132.5 330.916 1132.51 344.902 1130.87C364.871 1127.52 371.466 1127.8 370.989 1121.43L370.757 1100.75C370.269 1084.14 359.342 1071.9 342.738 1066.57C327.636 1062.32 306.926 1059.16 284.798 1077.07" stroke="white" stroke-width="3" stroke-linecap="round"/>
<path d="M370.176 1105.58C350.265 1115.27 266.058 1117.85 231.096 1087.47" stroke="white" stroke-width="3"/>
<path d="M331.653 1111.97L332.104 1131.81" stroke="white" stroke-width="3"/>
<path d="M310.197 1112.68L310.285 1131.36" stroke="white" stroke-width="3"/>
<path d="M288.999 1108.93L288.96 1131.32" stroke="white" stroke-width="3"/>
<path d="M272.238 1106.78L272.693 1128.14" stroke="white" stroke-width="3"/>
<path d="M258.977 1102.39L259.217 1122.72" stroke="white" stroke-width="3"/>
<path d="M247.533 1098.04L247.616 1118.38" stroke="white" stroke-width="3"/>
<path d="M238.35 1093.06L238.121 1113.4" stroke="white" stroke-width="3"/>
<path d="M351.951 1110.6L352.448 1129.31" stroke="white" stroke-width="3"/>
<defs>
<linearGradient id="paint0_linear" x1="177.042" y1="511.619" x2="177.042" y2="1070.82" gradientUnits="userSpaceOnUse">
<stop stop-color="#1638FF"/>
<stop offset="1" stop-color="#0F0E78"/>
</linearGradient>
<linearGradient id="paint1_linear" x1="330.161" y1="355.291" x2="343.808" y2="614.739" gradientUnits="userSpaceOnUse">
<stop stop-color="#120F8A"/>
<stop offset="1" stop-color="#0339C6"/>
</linearGradient>
<linearGradient id="paint2_linear" x1="92.7455" y1="355.291" x2="79.0979" y2="614.739" gradientUnits="userSpaceOnUse">
<stop stop-color="#120F8A"/>
<stop offset="1" stop-color="#0339C6"/>
</linearGradient>
</defs>
</svg>
