<svg width="439" height="1219" viewBox="0 0 439 1219" fill="none" xmlns="http://www.w3.org/2000/svg">
<path fill-rule="evenodd" clip-rule="evenodd" d="M229.465 717.298C228.633 714.876 224.324 714.876 223.491 717.298C221.203 723.952 219.017 730.309 219.014 743.152C219.014 743.169 219.014 743.163 219.014 743.18C219.005 743.719 216.816 875.172 216.816 959C216.816 1033.58 215.702 1118.18 215.452 1136.22C215.423 1138.35 214.075 1140.17 212.03 1140.76C187.535 1147.9 129.195 1156.19 76.3604 1139.18C74.2522 1138.5 72.8782 1136.62 72.9773 1134.4C74.2243 1106.56 82.4616 922.755 88.8163 784C91.2282 731.337 92.7043 691.126 93.8518 659.867C95.9836 601.793 96.9812 574.616 100.738 555.893C101.641 553.298 104.71 548.303 109.766 549.081C110.86 549.25 112.738 549.885 115.504 550.819C128.672 555.27 161.958 566.52 226.478 566.596C290.999 566.52 324.285 555.27 337.453 550.819C340.218 549.885 342.096 549.25 343.19 549.081C348.246 548.303 351.316 553.298 352.219 555.893C355.975 574.616 356.973 601.793 359.105 659.867C360.252 691.126 361.728 731.337 364.14 784C370.495 922.755 378.732 1106.56 379.979 1134.4C380.078 1136.62 378.704 1138.5 376.596 1139.18C323.761 1156.19 265.421 1147.9 240.926 1140.76C238.881 1140.17 237.534 1138.35 237.504 1136.22C237.254 1118.18 236.14 1033.58 236.14 959C236.14 875.172 233.951 743.719 233.942 743.18C233.942 743.163 233.942 743.169 233.942 743.152C233.939 730.309 231.754 723.952 229.465 717.298Z" fill="url(#paint0_linear)"/>
<path d="M330.923 594C331.923 611 336.923 634 356.923 637" stroke="white" stroke-width="3" stroke-linecap="round"/>
<path d="M396.635 667.508C403.274 654.498 408.587 634.579 406.691 605.78L360.031 601.564C360.031 601.564 356.752 618.85 355.852 628.81C354.952 638.769 351.975 657.829 360.916 658.943C359.937 686.579 354.209 691.185 356.824 695.832C358.917 699.549 365.649 698.94 368.754 698.17C382.784 697.421 389.929 680.135 396.635 667.508Z" fill="#E9F0FD"/>
<path d="M331.924 232L279.924 211C274.149 261.52 331.208 282.344 342.887 342.432C353.139 397.856 354.048 577.125 355.673 598.875C355.673 604.25 354.298 610.25 358.173 610.5L405.069 609.196C412.252 608.699 413.633 602.589 413.426 599.596C427.68 511.5 436.537 389.839 405.178 315.001C390.133 271.436 367.924 251 331.924 232Z" fill="url(#paint1_linear)"/>
<path d="M357.977 372.419C356.546 252.169 309.609 232.382 282.913 228.711C229.931 219.225 186.079 224.759 170.776 228.711C104.814 247.941 96.9092 284.212 91.4322 365.894C87.831 419.6 80.6267 519.017 88.5187 564.62C90.8927 578.336 101.378 581.764 106.324 581.764C192.383 596.459 285.407 591.07 338.362 583.123C351.741 581.115 355.884 573.753 356.886 564.62C361.517 522.39 357.463 412.071 357.977 372.419Z" fill="#120F8A"/>
<ellipse cx="234.384" cy="351.168" rx="49.0541" ry="48.5586" transform="rotate(-1.36033 234.384 351.168)" fill="#59F0E7" fill-opacity="0.3"/>
<ellipse cx="234.649" cy="351.162" rx="42.3649" ry="41.9369" transform="rotate(-1.36033 234.649 351.162)" fill="#59F0E7" fill-opacity="0.4"/>
<ellipse cx="234.384" cy="351.168" rx="34.7838" ry="34.8739" transform="rotate(-1.36033 234.384 351.168)" fill="#59F0E7"/>
<mask id="path-9-outside-1" maskUnits="userSpaceOnUse" x="210.968" y="323.278" width="46.2455" height="54.0534" fill="black">
<rect fill="white" x="210.968" y="323.278" width="46.2455" height="54.0534"/>
<path d="M244 345.489C244.984 347.726 244.824 348.79 244.96 349.466C245 349.667 245.2 349.867 245.4 349.817C245.457 349.803 245.502 349.763 245.551 349.73C245.817 349.555 246.063 349.202 246.277 348.795C246.676 348.035 247.73 347.921 248.055 348.716C249.515 352.286 249.623 356.395 248.413 359.881C247.734 361.543 245.678 365.706 240.399 368.095C238.812 368.94 234.395 370.195 229.429 368.458C224.463 366.725 221.814 363.187 220.732 360.847C220.3 359.931 219.533 357.892 219.765 354.697C219.829 353.05 221.367 348.692 221.56 348.174C222.349 345.999 222.602 343.871 222.645 342.513C222.663 341.941 223.09 341.606 223.59 341.884C223.887 342.05 224.211 342.247 224.502 342.446C224.996 342.799 225.409 343.122 225.774 343.446C226.413 344.013 227.545 343.771 227.798 342.954C228.522 340.613 229.498 338.526 230.728 336.743C232.2 334.536 234.184 332.758 236.34 331.563C237.065 331.16 237.935 331.88 237.901 332.709C237.848 334.022 237.967 335.793 238.525 337.793C238.544 337.86 238.57 337.925 238.603 337.986C239.142 338.965 239.955 339.844 240.673 340.724C240.988 341.025 241.203 341.432 241.518 341.733C243.21 343.853 243.527 344.417 244 345.489Z"/>
</mask>
<path d="M244 345.489C244.984 347.726 244.824 348.79 244.96 349.466C245 349.667 245.2 349.867 245.4 349.817C245.457 349.803 245.502 349.763 245.551 349.73C245.817 349.555 246.063 349.202 246.277 348.795C246.676 348.035 247.73 347.921 248.055 348.716C249.515 352.286 249.623 356.395 248.413 359.881C247.734 361.543 245.678 365.706 240.399 368.095C238.812 368.94 234.395 370.195 229.429 368.458C224.463 366.725 221.814 363.187 220.732 360.847C220.3 359.931 219.533 357.892 219.765 354.697C219.829 353.05 221.367 348.692 221.56 348.174C222.349 345.999 222.602 343.871 222.645 342.513C222.663 341.941 223.09 341.606 223.59 341.884C223.887 342.05 224.211 342.247 224.502 342.446C224.996 342.799 225.409 343.122 225.774 343.446C226.413 344.013 227.545 343.771 227.798 342.954C228.522 340.613 229.498 338.526 230.728 336.743C232.2 334.536 234.184 332.758 236.34 331.563C237.065 331.16 237.935 331.88 237.901 332.709C237.848 334.022 237.967 335.793 238.525 337.793C238.544 337.86 238.57 337.925 238.603 337.986C239.142 338.965 239.955 339.844 240.673 340.724C240.988 341.025 241.203 341.432 241.518 341.733C243.21 343.853 243.527 344.417 244 345.489Z" fill="#CA0D7B"/>
<path d="M244.96 349.466L251.822 348.085L251.822 348.085L244.96 349.466ZM244 345.489L237.593 348.309L237.593 348.309L244 345.489ZM241.518 341.733L246.989 337.367L246.695 336.999L246.355 336.673L241.518 341.733ZM240.673 340.724L235.245 345.145L235.52 345.483L235.835 345.784L240.673 340.724ZM238.603 337.986L232.47 341.36L232.47 341.36L238.603 337.986ZM236.34 331.563L232.946 325.44L232.946 325.44L236.34 331.563ZM230.728 336.743L236.49 340.717L236.521 340.672L236.552 340.627L230.728 336.743ZM227.798 342.954L234.486 345.021L234.486 345.021L227.798 342.954ZM225.774 343.446L221.128 348.682L221.128 348.682L225.774 343.446ZM224.502 342.446L228.575 336.753L228.509 336.705L228.441 336.659L224.502 342.446ZM223.59 341.884L220.184 348L220.184 348L223.59 341.884ZM221.56 348.174L228.121 350.612L228.13 350.587L228.14 350.562L221.56 348.174ZM219.765 354.697L226.747 355.204L226.755 355.085L226.76 354.967L219.765 354.697ZM220.732 360.847L227.086 357.91L227.074 357.884L227.062 357.859L220.732 360.847ZM229.429 368.458L231.74 361.851L231.736 361.85L229.429 368.458ZM240.399 368.095L237.514 361.717L237.309 361.81L237.111 361.915L240.399 368.095ZM248.413 359.881L254.893 362.527L254.964 362.354L255.025 362.177L248.413 359.881ZM248.055 348.716L254.534 346.066L254.534 346.066L248.055 348.716ZM222.645 342.513L215.649 342.292L215.649 342.292L222.645 342.513ZM237.901 332.709L230.907 332.424L230.907 332.424L237.901 332.709ZM238.525 337.793L245.267 335.912L245.267 335.912L238.525 337.793ZM246.277 348.795L240.079 345.54L240.079 345.54L246.277 348.795ZM245.551 349.73L241.703 343.883L241.703 343.883L245.551 349.73ZM245.4 349.817L247.092 356.61L247.092 356.61L245.4 349.817ZM251.822 348.085C251.885 348.397 251.898 348.665 251.866 348.282C251.844 348.03 251.804 347.549 251.711 346.965C251.515 345.73 251.136 344.327 250.407 342.67L237.593 348.309C237.848 348.889 237.88 349.136 237.884 349.16C237.892 349.207 237.898 349.259 237.916 349.466C237.923 349.546 237.939 349.746 237.96 349.941C237.982 350.147 238.022 350.47 238.097 350.846L251.822 348.085ZM250.407 342.67C249.587 340.808 248.855 339.705 246.989 337.367L236.046 346.099C236.873 347.135 237.192 347.579 237.342 347.811C237.411 347.917 237.436 347.954 237.593 348.309L250.407 342.67ZM246.355 336.673C246.552 336.861 246.679 337.014 246.724 337.07C246.76 337.114 246.779 337.141 246.698 337.033C246.647 336.964 246.495 336.76 246.321 336.546C246.136 336.319 245.864 336.003 245.51 335.665L235.835 345.784C235.639 345.596 235.512 345.444 235.466 345.387C235.43 345.343 235.411 345.316 235.492 345.425C235.544 345.493 235.695 345.697 235.87 345.911C236.054 346.138 236.326 346.454 236.68 346.793L246.355 336.673ZM246.1 336.304C245.882 336.035 245.655 335.766 245.488 335.567C245.305 335.348 245.167 335.182 245.044 335.028C244.79 334.709 244.729 334.599 244.736 334.612L232.47 341.36C233.413 343.074 234.942 344.773 235.245 345.145L246.1 336.304ZM232.946 325.44C229.836 327.164 227.01 329.702 224.905 332.858L236.552 340.627C237.389 339.371 238.532 338.351 239.733 337.685L232.946 325.44ZM224.966 332.768C223.271 335.225 222.009 337.977 221.11 340.887L234.486 345.021C235.034 343.249 235.724 341.828 236.49 340.717L224.966 332.768ZM230.419 338.209C229.822 337.679 229.205 337.203 228.575 336.753L220.429 348.139C220.787 348.394 220.996 348.564 221.128 348.682L230.419 338.209ZM228.441 336.659C227.959 336.331 227.455 336.025 226.996 335.769L220.184 348C220.319 348.075 220.462 348.164 220.563 348.232L228.441 336.659ZM214.998 345.735C214.858 346.114 214.38 347.463 213.921 348.962C213.566 350.122 212.844 352.526 212.77 354.428L226.76 354.967C226.751 355.195 226.728 355.286 226.748 355.169C226.764 355.079 226.796 354.923 226.851 354.695C226.961 354.237 227.121 353.669 227.307 353.062C227.49 352.466 227.679 351.891 227.835 351.432C227.912 351.204 227.98 351.01 228.032 350.863C228.058 350.789 228.079 350.729 228.095 350.683C228.104 350.661 228.11 350.643 228.115 350.63C228.12 350.616 228.122 350.611 228.121 350.612L214.998 345.735ZM212.784 354.19C212.448 358.81 213.56 362.052 214.402 363.834L227.062 357.859C227.039 357.81 226.618 356.973 226.747 355.204L212.784 354.19ZM214.378 363.783C216.078 367.462 220.002 372.582 227.122 375.067L231.736 361.85C228.924 360.868 227.549 358.912 227.086 357.91L214.378 363.783ZM243.285 374.472C250.881 371.035 253.889 364.985 254.893 362.527L241.932 357.234C241.579 358.1 240.475 360.378 237.514 361.717L243.285 374.472ZM255.025 362.177C256.806 357.048 256.626 351.181 254.534 346.066L241.576 351.365C242.404 353.391 242.44 355.741 241.8 357.585L255.025 362.177ZM237.111 361.915C237.209 361.863 236.595 362.162 235.449 362.283C234.391 362.394 233.104 362.328 231.74 361.851L227.119 375.066C234.194 377.54 240.64 375.896 243.688 374.275L237.111 361.915ZM215.649 342.292C215.623 343.108 215.457 344.471 214.98 345.785L228.14 350.562C229.242 347.527 229.582 344.634 229.642 342.733L215.649 342.292ZM230.907 332.424C230.827 334.394 231.009 336.902 231.782 339.674L245.267 335.912C244.925 334.684 244.869 333.651 244.895 332.995L230.907 332.424ZM240.079 345.54C240.086 345.528 240.168 345.369 240.344 345.135C240.492 344.94 240.923 344.396 241.703 343.883L249.398 355.578C251.253 354.358 252.183 352.603 252.474 352.05L240.079 345.54ZM221.11 340.887C221.859 338.462 223.818 337.256 225.347 336.901C226.84 336.554 228.808 336.78 230.419 338.209L221.128 348.682C223.379 350.678 226.233 351.068 228.515 350.537C230.833 349.999 233.484 348.263 234.486 345.021L221.11 340.887ZM239.733 337.685C237.14 339.122 234.538 338.298 233.142 337.226C231.833 336.221 230.822 334.515 230.907 332.424L244.895 332.995C245.015 330.075 243.586 327.594 241.668 326.122C239.665 324.584 236.265 323.601 232.946 325.44L239.733 337.685ZM243.708 343.025C246.481 342.334 248.645 343.533 249.691 344.434C250.733 345.333 251.521 346.589 251.822 348.085L238.097 350.846C238.439 352.544 239.347 354.001 240.549 355.037C241.755 356.077 244.119 357.35 247.092 356.61L243.708 343.025ZM244.736 334.612C244.983 335.06 245.153 335.501 245.267 335.912L231.782 339.674C231.934 340.219 232.157 340.791 232.47 341.36L244.736 334.612ZM247.092 356.61C248.207 356.332 248.986 355.85 249.299 355.646C249.385 355.59 249.455 355.542 249.5 355.511C249.542 355.481 249.577 355.456 249.581 355.453C249.618 355.427 249.518 355.5 249.398 355.578L241.703 343.883C241.622 343.936 241.557 343.981 241.517 344.009C241.496 344.024 241.479 344.036 241.468 344.043C241.458 344.051 241.449 344.058 241.448 344.058C241.421 344.077 241.526 344.001 241.657 343.916C241.921 343.744 242.649 343.289 243.708 343.025L247.092 356.61ZM226.996 335.769C224.814 334.554 221.645 334.233 218.915 336.151C216.482 337.858 215.707 340.431 215.649 342.292L229.642 342.733C229.601 344.022 229.049 346.142 226.959 347.609C224.571 349.285 221.866 348.937 220.184 348L226.996 335.769ZM254.534 346.066C253.132 342.637 249.815 340.976 246.715 341.188C243.895 341.382 241.389 343.046 240.079 345.54L252.474 352.05C251.563 353.784 249.784 355.011 247.672 355.156C245.28 355.32 242.653 353.999 241.576 351.365L254.534 346.066Z" fill="#FF7EC9" mask="url(#path-9-outside-1)"/>
<path d="M238.972 363.464C237.853 364.641 236.315 365.416 234.596 365.457C229.93 365.568 225.79 360.246 229.205 355.73C230.548 353.645 232.411 352.78 233.097 350.628C233.405 349.8 233.462 348.731 233.364 348.076C233.277 347.832 233.173 346.931 233.171 346.849C233.169 346.767 233.169 346.767 233.251 346.765L233.331 346.681C233.413 346.679 233.413 346.679 233.495 346.677C233.663 346.837 233.83 346.997 233.998 347.158C234.333 347.478 234.752 347.879 235.087 348.199C235.926 349.001 236.696 350.378 236.896 351.934C237.107 353.9 236.655 355.553 235.206 356.655C235.867 356.886 236.522 356.87 237.253 356.607C238.389 356.169 239.029 355.497 239.253 354.588C239.253 354.588 239.251 354.506 239.333 354.504L239.415 354.502C240.075 354.733 240.836 355.7 240.972 357.997C240.849 359.724 240.65 361.7 238.972 363.464Z" fill="#FFADDD"/>
<path d="M202.815 396.999C196.832 403.624 183.066 421.96 183.066 421.96L192.535 461.3C192.535 461.3 238.235 447.026 244.829 444.388C251.423 441.75 262.729 435.661 269.013 431.081C275.298 426.5 287.548 415.25 289.423 412.75C291.298 410.25 293.798 408 291.798 404.5C289.798 401 287.173 402.375 287.173 402.375L297.423 392.25C297.423 392.25 303.298 387.875 300.423 382.75C297.548 377.625 291.048 381.375 291.048 381.375C291.048 381.375 297.798 375.625 299.048 373.625C300.298 371.625 300.798 368.375 297.923 365.75C295.048 363.125 292.392 364.844 291.048 365.5C289.705 366.156 286.423 368.25 286.423 368.25C286.423 368.25 287.36 362.558 283.923 360.625C280.487 358.691 276.673 362.125 274.673 363.375C272.673 364.625 265.423 371.25 265.423 371.25C265.423 371.25 256.173 379 251.315 381.999C246.457 384.999 238.39 388.251 237.157 387.001C235.923 385.75 252.181 374.694 254.99 371.972C257.798 369.25 254.048 363.875 248.673 365.5C243.297 367.125 230.281 372.251 223.798 376.5C217.316 380.75 208.798 390.375 202.815 396.999Z" fill="#ECF1FD"/>
<path d="M117.816 225C154.816 214.001 183.817 211 183.817 211C180.32 281.324 116.131 266 103.131 366C93.1341 442 116.175 428.5 181.673 411C186.423 409.5 191.423 404.75 197.923 415C204.423 425.25 217.173 447.25 217.173 447.25C217.173 447.25 222.923 453.5 214.173 460C205.423 466.5 110.673 553 37.8158 492C0.815746 456 -3.54248 397.838 27.8165 322.999C42.8612 279.435 80.8161 236 117.816 225Z" fill="url(#paint2_linear)"/>
<path d="M166.449 78.9372L226.716 78.3895L292.31 77.7934C292.59 108.633 289.39 150.736 287.273 179.725C285.156 208.713 283.792 217.747 280.545 238.347C274.759 275.061 246.06 280.822 228.059 280.735C190.058 280.831 178.821 254.682 175.422 238.462C173.297 224.731 168.769 194.02 167.279 170.185C164.807 130.658 164.928 98.1257 166.449 78.9372Z" fill="#E9F0FF"/>
<path d="M235.997 191.683C230.973 192.242 226.087 191.592 221.89 190.444C217.824 189.333 213.469 192.74 216.004 196.109C220.367 201.908 227.182 203.56 231.043 203.525C235.479 203.854 239.22 201.972 242.222 199.216C245.809 195.924 240.836 191.144 235.997 191.683Z" fill="#D7DDE9"/>
<path d="M212.641 173.57C219.101 168.305 234.95 160.872 246.666 173.26" stroke="#0F0967" stroke-width="3" stroke-linecap="round" stroke-linejoin="round"/>
<path d="M272.87 81.2245C231.727 91.0157 195.083 83.2252 185.022 81.3079C174.961 79.3906 172.397 76.213 170.043 90.3008C167.689 104.389 166.992 163.535 166.992 163.535C167.101 175.527 154.259 150.758 154.223 146.968L149.829 119.783C149.507 84.4197 151.668 63.7596 174.62 41.7962C202.812 14.8187 256.296 17.9938 285.34 44.1371C303.039 60.0682 304.161 97.897 304.041 113.196C303.92 128.494 300.965 145.635 300.965 145.635C298.495 159.139 287.351 174.019 288.55 163.248C289.748 152.477 288.381 101.93 286.722 90.5369L286.679 90.2388C285.062 79.1301 284.948 78.3501 272.87 81.2245Z" fill="#0F43EC"/>
<path d="M156.802 125.71L168.244 127.554L177.654 159.65L163.981 155.283C152.58 152.141 149.14 143.399 148.663 137.078C148.08 129.348 151.791 125.624 156.802 125.71Z" fill="#E9F0FF"/>
<path d="M297.62 124.431L286.214 126.483L277.389 158.743L290.98 154.129C302.322 150.78 305.603 141.978 305.965 135.649C306.407 127.91 302.628 124.253 297.62 124.431Z" fill="#E9F0FF"/>
<path d="M211.619 102.434C212.031 101.56 211.656 100.517 210.782 100.105C209.908 99.693 208.865 100.068 208.453 100.942L211.619 102.434ZM191.714 108.589C190.748 108.569 189.949 109.337 189.929 110.303C189.91 111.269 190.677 112.069 191.643 112.088L191.714 108.589ZM208.453 100.942C207.378 103.223 204.886 105.189 201.637 106.581C198.425 107.958 194.751 108.651 191.714 108.589L191.643 112.088C195.196 112.161 199.363 111.363 203.015 109.798C206.63 108.249 210.022 105.823 211.619 102.434L208.453 100.942Z" fill="#0F0967"/>
<path d="M247.007 101.366C246.641 100.471 247.069 99.4496 247.963 99.0834C248.858 98.7172 249.88 99.1455 250.246 100.04L247.007 101.366ZM266.565 108.544C267.531 108.575 268.29 109.383 268.259 110.349C268.229 111.315 267.421 112.073 266.455 112.043L266.565 108.544ZM250.246 100.04C251.202 102.374 253.588 104.466 256.761 106.025C259.896 107.566 263.53 108.449 266.565 108.544L266.455 112.043C262.904 111.931 258.783 110.919 255.217 109.166C251.688 107.432 248.426 104.833 247.007 101.366L250.246 100.04Z" fill="#0F0967"/>
<circle cx="203.502" cy="121.382" r="4.46245" transform="rotate(-0.520657 203.502 121.382)" fill="#0F0967"/>
<circle cx="252.901" cy="120.933" r="4.46245" transform="rotate(-0.520657 252.901 120.933)" fill="#0F0967"/>
<path d="M233.185 110.442L238.145 148.541C238.378 150.325 236.997 151.912 235.198 151.928L220.176 152.065" stroke="#0F0967" stroke-width="3" stroke-linecap="round"/>
<path d="M362.165 659.91C364.233 660.18 369.045 658.774 371.757 650.987C373.971 643.154 375.048 631.25 380.299 624.125" stroke="#0F0967" stroke-width="3" stroke-linecap="round"/>
<path d="M122.923 594C121.923 611 116.923 634 96.9235 637" stroke="white" stroke-width="3" stroke-linecap="round"/>
<path d="M288.422 402.25C282.923 407.75 277.923 411 270.673 416.25" stroke="#0F0967" stroke-width="3" stroke-linecap="round"/>
<path d="M287.172 368.5C282.172 374.083 269.923 385.5 259.673 391.75" stroke="#0F0967" stroke-width="3" stroke-linecap="round"/>
<path d="M289.923 382.75C284.673 388.5 275.923 396.75 265.423 403.5" stroke="#0F0967" stroke-width="3" stroke-linecap="round"/>
<path d="M207.993 1143.93C210.184 1153.4 209.306 1166.92 209.306 1166.92L209.281 1186.87C209.28 1187.9 208.878 1188.89 208.092 1189.56C205.609 1191.68 199.071 1196.6 187 1201.5C171 1208 156.75 1212.75 136.5 1214.25C115.5 1215.25 102.25 1215.25 87.2505 1213.5C65.834 1209.9 58.7611 1210.2 59.2726 1203.37L59.521 1181.18C60.0448 1163.36 71.7636 1150.22 89.5716 1144.5C105.768 1139.93 127.979 1136.54 151.711 1155.76" stroke="white" stroke-width="3" stroke-linecap="round"/>
<path d="M60.1458 1186.36C81.5003 1196.75 171.811 1199.52 209.307 1166.92" stroke="white" stroke-width="3"/>
<path d="M101.46 1193.22L100.976 1214.5" stroke="white" stroke-width="3"/>
<path d="M124.473 1193.98L124.378 1214.02" stroke="white" stroke-width="3"/>
<path d="M147.205 1189.95L147.248 1213.98" stroke="white" stroke-width="3"/>
<path d="M165.181 1187.65L164.693 1210.56" stroke="white" stroke-width="3"/>
<path d="M179.403 1182.93L179.146 1204.75" stroke="white" stroke-width="3"/>
<path d="M191.679 1178.27L191.589 1200.09" stroke="white" stroke-width="3"/>
<path d="M201.526 1172.93L201.772 1194.75" stroke="white" stroke-width="3"/>
<path d="M79.6921 1191.75L79.1595 1211.82" stroke="white" stroke-width="3"/>
<path d="M249.161 1143.93C246.969 1153.4 247.847 1166.92 247.847 1166.92L247.872 1186.87C247.873 1187.9 248.275 1188.89 249.061 1189.56C251.544 1191.68 258.082 1196.6 270.153 1201.5C286.153 1208 300.403 1212.75 320.653 1214.25C341.653 1215.25 354.903 1215.25 369.903 1213.5C391.319 1209.9 398.392 1210.2 397.881 1203.37L397.632 1181.18C397.109 1163.36 385.39 1150.22 367.582 1144.5C351.385 1139.93 329.174 1136.54 305.443 1155.76" stroke="white" stroke-width="3" stroke-linecap="round"/>
<path d="M397.008 1186.36C375.653 1196.75 285.342 1199.52 247.846 1166.92" stroke="white" stroke-width="3"/>
<path d="M355.693 1193.22L356.177 1214.5" stroke="white" stroke-width="3"/>
<path d="M332.68 1193.98L332.776 1214.02" stroke="white" stroke-width="3"/>
<path d="M309.948 1189.95L309.906 1213.98" stroke="white" stroke-width="3"/>
<path d="M291.972 1187.65L292.46 1210.56" stroke="white" stroke-width="3"/>
<path d="M277.75 1182.93L278.007 1204.75" stroke="white" stroke-width="3"/>
<path d="M265.474 1178.27L265.564 1200.09" stroke="white" stroke-width="3"/>
<path d="M255.627 1172.93L255.381 1194.75" stroke="white" stroke-width="3"/>
<path d="M377.461 1191.75L377.994 1211.82" stroke="white" stroke-width="3"/>
<defs>
<linearGradient id="paint0_linear" x1="189.872" y1="549" x2="189.872" y2="1149.06" gradientUnits="userSpaceOnUse">
<stop stop-color="#0B2CED"/>
<stop offset="1" stop-color="#0F0B6C"/>
</linearGradient>
<linearGradient id="paint1_linear" x1="354.093" y1="381.25" x2="368.745" y2="659.654" gradientUnits="userSpaceOnUse">
<stop stop-color="#120F8A"/>
<stop offset="1" stop-color="#0339C6"/>
</linearGradient>
<linearGradient id="paint2_linear" x1="123.133" y1="325" x2="178.133" y2="587" gradientUnits="userSpaceOnUse">
<stop stop-color="#120F8A"/>
<stop offset="1" stop-color="#0339C6"/>
</linearGradient>
</defs>
</svg>
