<svg width="561" height="958" viewBox="0 0 561 958" fill="none" xmlns="http://www.w3.org/2000/svg">
<g clip-path="url(#clip0)">
<path fill-rule="evenodd" clip-rule="evenodd" d="M352.049 865.538C356.596 866.24 361.266 867.446 364.283 869.112C379.958 877.768 406.516 884.632 420.895 887.48C452.889 893.542 465.983 917.23 468.831 929.452C469.028 930.3 469.077 931.138 469.038 931.937L468.287 947.202C468.03 952.437 463.795 956.603 458.524 956.663C443.12 956.838 405.949 956.994 367.792 955.167C329.504 953.333 291.817 949.41 276.324 947.68C271.09 947.096 267.293 942.536 267.55 937.308L268.347 921.1C268.391 901.536 272.826 881.558 276.204 869.965C277.559 865.316 282.138 862.623 286.775 863.18C313.178 866.349 329.654 866.266 339.378 865.014C342.702 864.586 347.478 864.832 352.049 865.538ZM351.44 869.491C347.053 868.814 342.691 868.621 339.888 868.981C329.698 870.293 312.853 870.338 286.3 867.151C283.434 866.807 280.802 868.474 280.041 871.085C276.719 882.488 272.379 902.09 272.344 921.155L272.344 921.203L271.542 937.505C271.387 940.659 273.666 943.359 276.766 943.705C292.228 945.431 329.819 949.343 367.982 951.171C406.025 952.993 443.107 952.838 458.478 952.663C461.601 952.627 464.14 950.162 464.295 947.005L465.046 931.74C465.071 931.239 465.036 930.781 464.939 930.36C462.364 919.312 450.249 897.11 420.145 891.409L420.128 891.405C405.692 888.547 378.606 881.59 362.353 872.614C359.961 871.294 355.852 870.172 351.44 869.491Z" fill="white"/>
<path fill-rule="evenodd" clip-rule="evenodd" d="M466.928 929.683L467.05 931.679C467.171 933.676 467.171 933.676 467.17 933.676L467.143 933.677L467.063 933.682L466.751 933.7C466.476 933.715 466.066 933.736 465.522 933.762C464.434 933.815 462.813 933.886 460.67 933.962C456.384 934.112 450.01 934.28 441.642 934.349C424.905 934.487 400.191 934.229 368.247 932.648C336.304 931.067 311.844 928.898 295.362 927.124C287.121 926.236 280.874 925.447 276.684 924.88C274.588 924.596 273.007 924.367 271.948 924.209C271.418 924.13 271.018 924.069 270.75 924.027L270.447 923.98L270.369 923.967L270.344 923.963C270.343 923.963 270.341 923.963 270.661 921.989L270.982 920.014L271.003 920.018L271.074 920.029L271.365 920.075C271.624 920.115 272.015 920.175 272.536 920.253C273.578 920.408 275.142 920.634 277.22 920.916C281.375 921.479 287.585 922.263 295.789 923.147C312.198 924.913 336.58 927.076 368.444 928.653C400.308 930.23 424.945 930.487 441.609 930.349C449.94 930.281 456.279 930.114 460.53 929.964C462.655 929.889 464.259 929.819 465.329 929.767C465.864 929.741 466.266 929.72 466.533 929.705L466.832 929.689L466.905 929.684L466.928 929.683Z" fill="white"/>
<path fill-rule="evenodd" clip-rule="evenodd" d="M284.769 946.123L285.895 923.25L289.886 923.447L288.761 946.32L284.769 946.123Z" fill="white"/>
<path fill-rule="evenodd" clip-rule="evenodd" d="M357.545 951.871L358.67 928.998L362.662 929.195L361.537 952.068L357.545 951.871Z" fill="white"/>
<path fill-rule="evenodd" clip-rule="evenodd" d="M302.67 948.449L303.795 925.576L307.787 925.773L306.662 948.646L302.67 948.449Z" fill="white"/>
<path fill-rule="evenodd" clip-rule="evenodd" d="M375.307 952.747L376.432 929.874L380.424 930.071L379.298 952.944L375.307 952.747Z" fill="white"/>
<path fill-rule="evenodd" clip-rule="evenodd" d="M321.008 950.068L322.133 927.195L326.125 927.392L325 950.265L321.008 950.068Z" fill="white"/>
<path fill-rule="evenodd" clip-rule="evenodd" d="M393.576 953.649L394.701 930.776L398.693 930.973L397.568 953.846L393.576 953.649Z" fill="white"/>
<path fill-rule="evenodd" clip-rule="evenodd" d="M429.549 954.837L430.674 931.964L434.666 932.161L433.541 955.034L429.549 954.837Z" fill="white"/>
<path fill-rule="evenodd" clip-rule="evenodd" d="M338.262 950.919L339.387 928.046L343.379 928.243L342.253 951.116L338.262 950.919Z" fill="white"/>
<path fill-rule="evenodd" clip-rule="evenodd" d="M410.828 954.5L411.953 931.627L415.945 931.824L414.82 954.697L410.828 954.5Z" fill="white"/>
<path fill-rule="evenodd" clip-rule="evenodd" d="M446.65 954.11L447.775 931.237L451.767 931.434L450.642 954.307L446.65 954.11Z" fill="white"/>
<path d="M86.3149 49.044L186.848 41.9276C187.581 41.8757 188.262 42.305 188.533 42.9887L211.605 101.193C213.457 105.865 210.848 111.112 206.01 112.447L193.867 115.797C193.088 116.012 192.572 116.757 192.632 117.564C196.47 168.65 190.491 210.817 188.387 237.375C188.267 238.898 186.334 239.534 185.311 238.401C171.655 223.276 137.367 193.953 74.9988 178.523C74.2435 178.337 73.698 177.656 73.698 176.877V134.269C73.698 133.793 73.4973 133.339 73.1454 133.019L53.1678 116.67C52.8159 116.35 52.6152 115.896 52.6152 115.42L54.6152 53.2182C54.6152 52.3396 55.288 51.6078 56.1622 51.5356L86.3149 49.044Z" fill="#F1F1FC"/>
<path d="M198.563 54.4314L96.2023 61.7776C94.0895 61.9293 92.4175 63.6281 92.2964 65.7462L90.6891 93.8479C90.5082 97.0108 87.0423 98.8541 84.3251 97.2324L75.2688 91.8276C66.5165 87.5771 60.0186 91.4908 56.8077 96.4765C49.184 108.314 61.3167 117.341 60.0449 116.06L59.687 115.736C59.8547 115.879 59.9719 115.987 60.0449 116.06L75.0519 129.646C76.2058 130.691 76.6914 132.288 76.315 133.799L73.2626 146.058C72.6736 148.423 70.1939 149.809 68.0541 148.647C57.5759 142.955 49.4573 129.726 45.2045 123.374C26.3073 95.1482 23.6546 26.741 90.2919 4.82518C156.929 -17.0907 201.581 42.4508 202.907 47.7639C203.901 51.7457 201.093 53.707 199.28 54.303C199.049 54.3792 198.806 54.414 198.563 54.4314Z" fill="#0F43EC"/>
<path d="M175.496 82.5297C175.496 84.7305 173.715 86.5145 171.517 86.5145C169.32 86.5145 167.539 84.7305 167.539 82.5297C167.539 80.329 169.32 78.5449 171.517 78.5449C173.715 78.5449 175.496 80.329 175.496 82.5297Z" fill="#0F0967"/>
<path d="M421.489 650.364C421.489 568.012 371.096 528.164 314.737 528.164L240.475 525.662H17.6808C8.08749 555.569 8.55003 578.793 17.6808 598.324C45.6536 658.157 132.205 643.723 240.475 643.723C299.295 643.723 296.171 682.243 291.53 712.793L263.081 866.668C262.293 870.931 264.846 875.07 269.056 876.08C281.803 879.137 309.609 884.803 340.596 884.803C370.293 884.803 390.897 882.852 400.592 881.68C404.34 881.227 407.188 878.213 407.591 874.453C417.749 779.663 421.923 697.38 421.489 650.364Z" fill="url(#paint0_linear)"/>
<path d="M199.366 251.22C173.235 214.101 108.983 190.196 70.928 180.363C63.7458 178.507 56.32 181.945 52.9326 188.555C-13.9295 319.011 -3.27689 458.708 12.0654 519.362C12.9907 523.02 16.31 525.507 20.0776 525.507H241.33C245.985 525.507 249.758 521.727 249.758 517.065V453.603V439.169C244.984 341.94 214.174 273.357 199.366 251.22Z" fill="#110F89"/>
<path d="M307.86 496.845L268.125 493.501L256.5 536.457C281.516 546.64 287.939 548.297 307.012 548.71C318.031 548.948 322.397 547.004 333.051 553.068L361.806 569.481C369.718 574.157 374.543 575.207 377.489 570.97C380.435 566.733 377.898 563.78 377.362 562.767L371.516 557.222L380.677 559.849C388.553 560.045 390.467 552.65 388.178 549.536C389.694 544.248 386.163 540.716 384.232 538.806C373.611 528.301 364.411 522.089 349.707 513.406L338.193 507.09C331.165 501.636 313.838 497.127 307.86 496.845Z" fill="#F1F1FC"/>
<path fill-rule="evenodd" clip-rule="evenodd" d="M335.556 517.705C335.938 516.668 337.087 516.138 338.123 516.521C352.911 521.981 362.619 527.212 370.207 532.414C375.842 536.277 380.314 540.137 384.741 543.959C386.237 545.25 387.728 546.536 389.257 547.817C390.103 548.526 390.214 549.788 389.506 550.635C388.797 551.482 387.537 551.593 386.69 550.885C385.075 549.531 383.533 548.2 382.009 546.885C377.625 543.101 373.383 539.441 367.948 535.714C360.671 530.725 351.266 525.638 336.738 520.273C335.703 519.891 335.173 518.741 335.556 517.705Z" fill="#060D34"/>
<path fill-rule="evenodd" clip-rule="evenodd" d="M332.364 532.513C332.829 531.511 334.017 531.076 335.018 531.54C344.843 536.1 351.629 539.978 358.199 544.488C358.227 544.508 358.255 544.528 358.283 544.549L373.454 556.167C374.33 556.838 374.497 558.093 373.826 558.971C373.155 559.848 371.901 560.015 371.024 559.344L355.894 547.758C349.548 543.405 342.969 539.64 333.335 535.169C332.334 534.704 331.899 533.515 332.364 532.513Z" fill="#060D34"/>
<path d="M196.383 398.708C194.231 378.129 197.476 349.059 199.548 304.537C202.366 277.181 201.33 250.866 153.114 242.954C114.541 236.625 99.5595 275.077 93.9678 290.143C63.9719 370.964 77.5122 426.844 87.3166 452.315C104.584 497.173 164.653 528.444 256.949 538.635C259.225 538.886 261.393 537.543 262.178 535.392L277.058 494.626C277.822 492.533 277.11 490.188 275.311 488.875C248.032 468.958 217.879 446.693 201.846 418.874C197.459 411.262 197.241 406.913 196.383 398.708Z" fill="url(#paint1_linear)"/>
<path d="M357.829 461.428C357.373 460.127 358.338 458.766 359.716 458.766H539.627C541.006 458.766 541.971 460.127 541.514 461.428L535.538 478.453C534.834 480.456 532.943 481.797 530.82 481.797H368.524C366.401 481.797 364.509 480.456 363.806 478.453L357.829 461.428Z" fill="#2D81FF"/>
<path d="M175.605 70.1152C176.22 69.1981 175.976 67.9556 175.059 67.3399C174.142 66.7242 172.9 66.9685 172.284 67.8855L175.605 70.1152ZM154.146 73.0291C153.058 72.841 152.023 73.5708 151.835 74.6592C151.647 75.7476 152.376 76.7825 153.465 76.9707L154.146 73.0291ZM172.284 67.8855C170.865 69.9992 168.059 71.6064 164.537 72.5209C161.06 73.4237 157.218 73.5601 154.146 73.0291L153.465 76.9707C157.117 77.6021 161.535 77.433 165.542 76.3925C169.504 75.3638 173.406 73.3901 175.605 70.1152L172.284 67.8855Z" fill="#0F0967"/>
<path fill-rule="evenodd" clip-rule="evenodd" d="M183.1 123.42C182.586 124.397 181.377 124.771 180.4 124.255C168.302 117.875 157.211 122.637 153.294 125.704C152.425 126.384 151.169 126.23 150.488 125.36C149.807 124.491 149.96 123.234 150.829 122.554C155.602 118.817 168.386 113.399 182.263 120.718C183.239 121.234 183.614 122.443 183.1 123.42Z" fill="#0F0967"/>
<ellipse cx="160.234" cy="311" rx="49.0541" ry="48.5586" fill="#59F0E7" fill-opacity="0.3"/>
<ellipse cx="160.5" cy="311" rx="42.3649" ry="41.9369" fill="#59F0E7" fill-opacity="0.4"/>
<ellipse cx="160.235" cy="311" rx="34.7838" ry="34.8739" fill="#59F0E7"/>
<path d="M170.376 299.619L170.234 299.431L170.121 299.319C170.104 299.296 170.078 299.26 170.03 299.191L170.02 299.178C169.962 299.096 169.861 298.955 169.749 298.81C169.664 298.701 169.558 298.57 169.431 298.43C169.232 298.175 169.056 297.954 168.899 297.757C168.497 297.251 168.223 296.907 168.008 296.552C167.665 295.061 167.622 293.775 167.681 292.856C167.789 291.19 167.004 289.737 165.914 288.858C164.781 287.945 162.895 287.369 161.031 288.346L162.654 291.446L161.031 288.346C158.371 289.738 155.922 291.83 154.072 294.458C153.153 295.729 152.358 297.114 151.68 298.591C151.598 298.541 151.518 298.493 151.438 298.446C150.239 297.74 148.543 297.547 147.068 298.531C145.744 299.414 145.268 300.802 145.209 301.875C145.149 302.959 144.899 304.694 144.228 306.419C144.093 306.758 143.615 308.015 143.15 309.413C142.742 310.642 142.148 312.536 142.047 313.893C141.684 317.753 142.549 320.394 143.151 321.757C144.473 324.798 147.655 329.194 153.638 331.443C159.516 333.656 164.903 332.41 167.306 331.247C173.743 328.479 176.374 323.472 177.26 321.443L177.297 321.357L177.33 321.269C178.927 316.998 178.901 312.009 177.229 307.625C176.563 305.878 175.019 304.926 173.45 304.818C173.379 304.621 173.301 304.42 173.218 304.218C172.607 302.735 172.102 301.89 170.376 299.619ZM152.121 302.74L151.809 303.075L152.121 302.74Z" fill="#CA0D7B" stroke="#FF7EC9" stroke-width="7"/>
<path d="M164.529 323.402C163.382 324.551 161.826 325.29 160.107 325.29C155.439 325.29 151.426 319.871 154.948 315.438C156.34 313.385 158.223 312.564 158.96 310.43C159.288 309.609 159.37 308.541 159.288 307.885C159.206 307.638 159.124 306.735 159.124 306.653C159.124 306.571 159.124 306.571 159.206 306.571L159.288 306.489C159.37 306.489 159.37 306.489 159.451 306.489C159.615 306.653 159.779 306.817 159.943 306.981C160.27 307.31 160.68 307.72 161.007 308.049C161.826 308.87 162.563 310.265 162.727 311.825C162.891 313.796 162.399 315.438 160.925 316.505C161.581 316.751 162.236 316.751 162.973 316.505C164.119 316.095 164.774 315.438 165.02 314.535C165.02 314.535 165.02 314.453 165.102 314.453H165.184C165.839 314.699 166.576 315.684 166.658 317.983C166.494 319.707 166.248 321.678 164.529 323.402Z" fill="#FFADDD"/>
</g>
<defs>
<linearGradient id="paint0_linear" x1="216.089" y1="525.662" x2="216.089" y2="884.803" gradientUnits="userSpaceOnUse">
<stop stop-color="#0B2BED"/>
<stop offset="1" stop-color="#0F0967"/>
</linearGradient>
<linearGradient id="paint1_linear" x1="202.804" y1="297.332" x2="294.719" y2="492.778" gradientUnits="userSpaceOnUse">
<stop stop-color="#110F89"/>
<stop offset="0.335202" stop-color="#0D1998"/>
<stop offset="1" stop-color="#0239C6"/>
</linearGradient>
<clipPath id="clip0">
<rect width="559.537" height="958" fill="white" transform="translate(0.566406)"/>
</clipPath>
</defs>
</svg>
