<svg width="412" height="1116" viewBox="0 0 412 1116" fill="none" xmlns="http://www.w3.org/2000/svg">
<path fill-rule="evenodd" clip-rule="evenodd" d="M205.058 504.064C145.041 503.993 114.08 493.534 101.831 489.397C99.2586 488.528 97.5115 487.937 96.494 487.781C91.7909 487.057 88.9354 491.701 88.0956 494.113C84.6014 511.521 83.6734 536.788 81.6904 590.781C80.623 619.843 79.25 657.228 77.0065 706.19C71.1155 834.758 63.485 1004.93 62.2853 1031.7C62.1862 1033.91 63.5595 1035.82 65.6691 1036.49C114.578 1052.15 168.493 1044.56 191.379 1037.95C193.425 1037.36 194.775 1035.53 194.805 1033.4C195.044 1016.08 196.07 937.874 196.07 868.892C196.07 790.968 198.106 668.778 198.115 668.239C198.115 668.222 198.115 668.228 198.115 668.212C198.118 656.272 200.151 650.362 202.279 644.176C203.054 641.923 207.061 641.923 207.836 644.176C209.965 650.362 211.998 656.272 212.001 668.212C212.001 668.228 212 668.222 212.001 668.239C212.01 668.778 214.045 790.968 214.045 868.892C214.045 937.874 215.071 1016.08 215.31 1033.4C215.34 1035.53 216.69 1037.36 218.737 1037.95C241.622 1044.56 295.537 1052.15 344.446 1036.49C346.556 1035.82 347.929 1033.91 347.83 1031.7C346.63 1004.93 339 834.758 333.109 706.19C330.865 657.228 329.492 619.843 328.425 590.781C326.442 536.788 325.514 511.521 322.02 494.113C321.18 491.701 318.325 487.057 313.621 487.781C312.604 487.937 310.857 488.528 308.284 489.397C296.036 493.534 265.074 503.993 205.058 504.064Z" fill="url(#paint0_linear_1259_4300)"/>
<path d="M302.211 529.543C303.141 545.348 307.792 566.732 326.396 569.521" stroke="white" stroke-width="3" stroke-linecap="round"/>
<path d="M333.058 323.532C331.727 211.732 288.066 193.336 263.234 189.923C213.951 181.104 173.161 186.249 158.926 189.923C97.5695 207.802 90.2164 241.524 85.1217 317.465C81.7719 367.397 75.0706 459.828 82.4116 502.226C84.6199 514.978 94.373 518.166 98.9736 518.166C179.024 531.828 265.554 526.817 314.812 519.428C327.257 517.562 331.111 510.717 332.043 502.226C336.351 462.964 332.579 360.397 333.058 323.532Z" fill="#120F8A"/>
<path d="M370.084 600.182C376.364 587.833 381.39 568.927 379.596 541.593L335.458 537.591C335.458 537.591 332.357 553.999 331.505 563.452C330.654 572.905 327.838 590.995 336.296 592.052C335.37 618.283 329.952 622.655 332.426 627.065C334.405 630.594 340.774 630.015 343.71 629.285C356.982 628.574 363.741 612.167 370.084 600.182Z" fill="#E9F0FD"/>
<path d="M308.871 186.819L259.682 166.887C254.219 214.837 308.194 234.602 319.241 291.635C328.94 344.241 329.8 514.394 331.337 535.038C331.337 540.139 330.036 545.834 333.702 546.071L378.062 544.834C384.857 544.362 386.163 538.562 385.967 535.722C399.452 452.106 407.829 336.631 378.165 265.599C363.934 224.249 342.925 204.853 308.871 186.819Z" fill="url(#paint1_linear_1259_4300)"/>
<path d="M48.7393 600.182C42.4591 587.833 37.4331 568.927 39.2268 541.593L83.365 537.591C83.365 537.591 86.4665 553.999 87.3178 563.452C88.169 572.905 90.9853 590.995 82.5269 592.052C83.4535 618.283 88.8717 622.655 86.3977 627.065C84.4185 630.594 78.0497 630.015 75.1127 629.285C61.8413 628.574 55.0824 612.167 48.7393 600.182Z" fill="#E9F0FD"/>
<path d="M116.898 185.131L170.35 165.356C176.573 213.644 117.909 233.224 106.205 290.556C95.9449 343.442 95.9829 514.676 94.4272 535.443C94.4564 540.577 95.9054 546.316 91.9151 546.534L43.6005 545.032C36.1987 544.518 34.7425 538.674 34.9396 535.817C19.7767 451.589 9.99238 335.329 41.8889 264.014C57.1499 222.483 79.9173 203.084 116.898 185.131Z" fill="url(#paint2_linear_1259_4300)"/>
<path d="M81.3436 592.969C79.388 593.226 74.8354 591.892 72.2702 584.5C70.176 577.066 69.1567 565.767 64.1904 559.005" stroke="#0F0967" stroke-width="3" stroke-linecap="round"/>
<path d="M337.48 592.969C339.435 593.226 343.988 591.892 346.553 584.5C348.647 577.066 349.667 565.767 354.633 559.005" stroke="#0F0967" stroke-width="3" stroke-linecap="round"/>
<ellipse rx="45.6294" ry="45.1461" transform="matrix(0.999718 -0.0237283 0.0237518 0.999718 218.867 303.776)" fill="#59F0E7" fill-opacity="0.3"/>
<ellipse rx="39.4072" ry="38.9898" transform="matrix(0.999718 -0.0237283 0.0237518 0.999718 219.113 303.77)" fill="#59F0E7" fill-opacity="0.4"/>
<ellipse rx="32.3554" ry="32.4231" transform="matrix(0.999718 -0.0237283 0.0237518 0.999718 218.866 303.776)" fill="#59F0E7"/>
<mask id="path-13-outside-1_1259_4300" maskUnits="userSpaceOnUse" x="196.515" y="277.34" width="44.1755" height="51.0062" fill="black">
<rect fill="white" x="196.515" y="277.34" width="44.1755" height="51.0062"/>
<path d="M227.811 298.497C228.726 300.576 228.577 301.566 228.704 302.193C228.741 302.381 228.927 302.567 229.113 302.521C229.166 302.507 229.208 302.47 229.254 302.44C229.471 302.296 229.674 302.025 229.855 301.705C230.277 300.957 231.323 300.84 231.64 301.639C232.943 304.925 233.025 308.682 231.916 311.876C231.284 313.422 229.372 317.293 224.462 319.514C222.985 320.299 218.877 321.466 214.257 319.851C209.638 318.239 207.174 314.95 206.167 312.775C205.766 311.923 205.052 310.027 205.268 307.057C205.327 305.526 206.758 301.475 206.937 300.992C207.658 299.01 207.898 297.068 207.944 295.803C207.965 295.231 208.392 294.899 208.89 295.181C209.148 295.327 209.424 295.497 209.674 295.667C210.083 295.959 210.432 296.229 210.743 296.497C211.391 297.055 212.528 296.81 212.785 295.995C213.454 293.877 214.347 291.986 215.466 290.365C216.806 288.355 218.604 286.728 220.562 285.618C221.283 285.209 222.157 285.928 222.133 286.757C222.097 287.96 222.219 289.549 222.716 291.334C222.735 291.401 222.761 291.466 222.794 291.527C223.295 292.435 224.05 293.249 224.716 294.066C225.009 294.346 225.209 294.724 225.502 295.004C227.076 296.975 227.371 297.499 227.811 298.497Z"/>
</mask>
<path d="M227.811 298.497C228.726 300.576 228.577 301.566 228.704 302.193C228.741 302.381 228.927 302.567 229.113 302.521C229.166 302.507 229.208 302.47 229.254 302.44C229.471 302.296 229.674 302.025 229.855 301.705C230.277 300.957 231.323 300.84 231.64 301.639C232.943 304.925 233.025 308.682 231.916 311.876C231.284 313.422 229.372 317.293 224.462 319.514C222.985 320.299 218.877 321.466 214.257 319.851C209.638 318.239 207.174 314.95 206.167 312.775C205.766 311.923 205.052 310.027 205.268 307.057C205.327 305.526 206.758 301.475 206.937 300.992C207.658 299.01 207.898 297.068 207.944 295.803C207.965 295.231 208.392 294.899 208.89 295.181C209.148 295.327 209.424 295.497 209.674 295.667C210.083 295.959 210.432 296.229 210.743 296.497C211.391 297.055 212.528 296.81 212.785 295.995C213.454 293.877 214.347 291.986 215.466 290.365C216.806 288.355 218.604 286.728 220.562 285.618C221.283 285.209 222.157 285.928 222.133 286.757C222.097 287.96 222.219 289.549 222.716 291.334C222.735 291.401 222.761 291.466 222.794 291.527C223.295 292.435 224.05 293.249 224.716 294.066C225.009 294.346 225.209 294.724 225.502 295.004C227.076 296.975 227.371 297.499 227.811 298.497Z" fill="#CA0D7B"/>
<path d="M228.704 302.193L235.566 300.813L235.566 300.813L228.704 302.193ZM227.811 298.497L234.217 295.676L234.217 295.676L227.811 298.497ZM225.502 295.004L230.972 290.637L230.678 290.269L230.338 289.943L225.502 295.004ZM224.716 294.066L219.29 298.488L219.565 298.826L219.88 299.127L224.716 294.066ZM222.794 291.527L216.666 294.91L216.666 294.91L222.794 291.527ZM220.562 285.618L224.014 291.707L224.014 291.707L220.562 285.618ZM215.466 290.365L221.227 294.341L221.258 294.296L221.288 294.25L215.466 290.365ZM212.785 295.995L219.461 298.101L219.461 298.101L212.785 295.995ZM210.743 296.497L206.175 301.801L206.175 301.801L210.743 296.497ZM209.674 295.667L213.746 289.973L213.68 289.925L213.612 289.88L209.674 295.667ZM208.89 295.181L205.445 301.274L205.445 301.274L208.89 295.181ZM206.937 300.992L213.498 303.432L213.508 303.407L213.517 303.382L206.937 300.992ZM205.268 307.057L212.25 307.565L212.258 307.446L212.263 307.327L205.268 307.057ZM206.167 312.775L212.521 309.837L212.509 309.811L212.497 309.786L206.167 312.775ZM214.257 319.851L216.567 313.243L216.563 313.242L214.257 319.851ZM224.462 319.514L221.577 313.136L221.373 313.228L221.174 313.333L224.462 319.514ZM231.916 311.876L238.396 314.524L238.466 314.351L238.528 314.174L231.916 311.876ZM231.64 301.639L238.147 299.058L238.147 299.058L231.64 301.639ZM207.944 295.803L214.94 296.061L214.94 296.061L207.944 295.803ZM222.133 286.757L229.13 286.965L229.13 286.965L222.133 286.757ZM222.716 291.334L229.459 289.455L229.459 289.455L222.716 291.334ZM229.855 301.705L223.76 298.263L223.76 298.263L229.855 301.705ZM229.254 302.44L233.1 308.288L233.1 308.288L229.254 302.44ZM229.113 302.521L227.422 295.728L227.422 295.728L229.113 302.521ZM235.566 300.813C235.631 301.137 235.646 301.418 235.614 301.051C235.594 300.815 235.555 300.352 235.466 299.791C235.277 298.6 234.912 297.254 234.217 295.676L221.404 301.317C221.521 301.584 221.579 301.756 221.606 301.847C221.631 301.933 221.638 301.974 221.64 301.987C221.644 302.012 221.648 302.044 221.665 302.235C221.671 302.307 221.686 302.499 221.707 302.688C221.728 302.887 221.767 303.204 221.841 303.574L235.566 300.813ZM234.217 295.676C233.43 293.889 232.72 292.826 230.972 290.637L220.032 299.372C220.799 300.333 221.083 300.73 221.208 300.924C221.252 300.991 221.264 301.015 221.27 301.027C221.285 301.055 221.317 301.119 221.404 301.317L234.217 295.676ZM230.338 289.943C230.54 290.137 230.672 290.295 230.723 290.357C230.764 290.407 230.787 290.44 230.711 290.338C230.664 290.276 230.517 290.078 230.348 289.87C230.168 289.649 229.901 289.339 229.552 289.006L219.88 299.127C219.678 298.934 219.546 298.776 219.495 298.714C219.454 298.664 219.431 298.631 219.507 298.732C219.554 298.795 219.7 298.992 219.87 299.201C220.05 299.421 220.317 299.732 220.666 300.065L230.338 289.943ZM230.142 289.644C229.937 289.392 229.724 289.14 229.57 288.956C229.4 288.753 229.275 288.602 229.165 288.465C228.936 288.177 228.898 288.099 228.923 288.145L216.666 294.91C217.57 296.547 219.037 298.178 219.29 298.488L230.142 289.644ZM217.109 279.529C214.224 281.165 211.606 283.538 209.643 286.479L221.288 294.25C222.007 293.173 222.985 292.291 224.014 291.707L217.109 279.529ZM209.704 286.389C208.131 288.668 206.955 291.21 206.11 293.888L219.461 298.101C219.952 296.543 220.562 295.303 221.227 294.341L209.704 286.389ZM215.311 291.193C214.8 290.752 214.275 290.352 213.746 289.973L205.603 301.361C205.89 301.566 206.064 301.705 206.175 301.801L215.311 291.193ZM213.612 289.88C213.184 289.588 212.742 289.317 212.335 289.088L205.445 301.274C205.555 301.337 205.664 301.405 205.736 301.454L213.612 289.88ZM200.376 298.552C200.242 298.913 199.795 300.176 199.365 301.58C199.039 302.644 198.344 304.943 198.273 306.787L212.263 307.327C212.254 307.57 212.228 307.679 212.245 307.582C212.257 307.511 212.284 307.376 212.334 307.171C212.433 306.759 212.579 306.242 212.75 305.682C212.918 305.134 213.093 304.604 213.237 304.181C213.308 303.971 213.37 303.792 213.418 303.657C213.442 303.589 213.461 303.534 213.476 303.493C213.492 303.449 213.499 303.431 213.498 303.432L200.376 298.552ZM198.287 306.55C197.967 310.946 199.026 314.045 199.838 315.764L212.497 309.786C212.483 309.754 212.403 309.585 212.334 309.26C212.265 308.932 212.191 308.375 212.25 307.565L198.287 306.55ZM199.814 315.712C201.439 319.228 205.179 324.097 211.951 326.461L216.563 313.242C214.097 312.382 212.908 310.673 212.521 309.837L199.814 315.712ZM227.346 325.892C234.574 322.623 237.439 316.866 238.396 314.524L225.436 309.229C225.13 309.977 224.17 311.963 221.577 313.136L227.346 325.892ZM238.528 314.174C240.201 309.356 240.055 303.868 238.147 299.058L225.133 304.219C225.832 305.981 225.849 308.007 225.303 309.579L238.528 314.174ZM221.174 313.333C221.328 313.252 220.819 313.514 219.806 313.621C218.882 313.718 217.758 313.66 216.567 313.243L211.948 326.459C218.676 328.811 224.812 327.256 227.749 325.694L221.174 313.333ZM200.949 295.545C200.922 296.278 200.771 297.466 200.358 298.602L213.517 303.382C214.545 300.553 214.873 297.859 214.94 296.061L200.949 295.545ZM215.136 286.549C215.081 288.387 215.269 290.684 215.973 293.212L229.459 289.455C229.169 288.413 229.113 287.534 229.13 286.965L215.136 286.549ZM223.76 298.263C223.794 298.203 223.903 298.015 224.103 297.765C224.283 297.54 224.702 297.055 225.407 296.591L233.1 308.288C234.766 307.193 235.641 305.695 235.95 305.147L223.76 298.263ZM206.11 293.888C206.872 291.473 208.824 290.295 210.31 289.946C211.763 289.605 213.698 289.803 215.311 291.193L206.175 301.801C208.436 303.748 211.264 304.103 213.511 303.575C215.792 303.039 218.441 301.332 219.461 298.101L206.11 293.888ZM224.014 291.707C221.41 293.184 218.787 292.356 217.392 291.297C216.087 290.305 215.074 288.623 215.136 286.549L229.13 286.965C229.216 284.062 227.778 281.606 225.862 280.149C223.856 278.625 220.435 277.643 217.109 279.529L224.014 291.707ZM227.422 295.728C230.2 295.036 232.372 296.236 233.423 297.143C234.47 298.046 235.264 299.309 235.566 300.813L221.841 303.574C222.181 305.265 223.086 306.715 224.282 307.747C225.483 308.781 227.84 310.051 230.804 309.313L227.422 295.728ZM228.923 288.145C229.173 288.598 229.344 289.042 229.459 289.455L215.973 293.212C216.125 293.759 216.349 294.335 216.666 294.91L228.923 288.145ZM230.804 309.313C231.917 309.036 232.695 308.555 233.006 308.352C233.091 308.297 233.16 308.249 233.205 308.218C233.246 308.189 233.282 308.164 233.285 308.162C233.321 308.136 233.22 308.209 233.1 308.288L225.407 296.591C225.327 296.644 225.262 296.688 225.222 296.716C225.202 296.731 225.185 296.743 225.174 296.75C225.164 296.757 225.155 296.764 225.155 296.764C225.129 296.783 225.234 296.706 225.366 296.62C225.632 296.447 226.362 295.992 227.422 295.728L230.804 309.313ZM212.335 289.088C210.169 287.863 206.996 287.511 204.243 289.424C201.796 291.124 201.017 293.698 200.949 295.545L214.94 296.061C214.893 297.336 214.337 299.458 212.233 300.92C209.824 302.595 207.113 302.218 205.445 301.274L212.335 289.088ZM238.147 299.058C236.772 295.59 233.445 293.905 230.334 294.107C227.544 294.288 225.094 295.9 223.76 298.263L235.95 305.147C235.038 306.762 233.323 307.942 231.24 308.077C228.837 308.233 226.192 306.888 225.133 304.219L238.147 299.058Z" fill="#FF7EC9" mask="url(#path-13-outside-1_1259_4300)"/>
<path d="M223.134 315.208C222.093 316.302 220.663 317.023 219.063 317.061C214.723 317.164 210.872 312.216 214.048 308.018C215.298 306.079 217.031 305.275 217.669 303.274C217.956 302.504 218.008 301.51 217.918 300.901C217.836 300.674 217.74 299.837 217.738 299.76C217.736 299.684 217.736 299.684 217.812 299.682L217.887 299.604C217.963 299.602 217.963 299.602 218.039 299.601C218.195 299.75 218.351 299.899 218.507 300.048C218.819 300.346 219.208 300.718 219.52 301.016C220.3 301.761 221.016 303.042 221.203 304.488C221.399 306.316 220.978 307.853 219.631 308.878C220.246 309.092 220.855 309.078 221.535 308.833C222.592 308.426 223.186 307.801 223.395 306.956C223.395 306.956 223.393 306.88 223.469 306.878L223.545 306.876C224.16 307.091 224.867 307.99 224.994 310.125C224.88 311.731 224.695 313.568 223.134 315.208Z" fill="#FFADDD"/>
<path d="M183.227 55.4949L238.815 62.7609L299.317 70.6691C295.597 99.1007 287.218 137.454 281.529 163.872C275.839 190.29 273.417 198.432 267.769 216.981C257.703 250.038 230.522 251.643 213.951 249.242C178.932 244.43 171.954 218.905 170.915 203.533C170.729 190.616 170.519 161.756 172.221 139.617C175.043 102.904 179.35 72.9664 183.227 55.4949Z" fill="#E9F0FF"/>
<path d="M231.66 168.221C227.648 167.963 223.871 166.933 220.594 165.596C216.691 164.004 211.927 166.814 214.133 170.405C217.476 175.845 223.229 178.087 226.659 178.536C230.313 179.326 233.677 178.382 236.594 176.606C240.754 174.075 236.519 168.533 231.66 168.221Z" fill="#D7DDE9"/>
<path d="M213.571 148.582C220.201 144.567 235.76 139.766 244.955 152.684" stroke="#0F0967" stroke-width="3" stroke-linecap="round" stroke-linejoin="round"/>
<path d="M280.966 71.3217C241.802 75.0323 209.051 63.1347 200.03 60.0722C191.009 57.0098 189.057 53.7534 185.071 66.4212C181.085 79.0889 172.813 133.458 172.813 133.458C171.367 144.513 162.732 120.051 163.188 116.557L162.647 90.9607C166.912 58.3584 171.567 39.6143 195.544 22.351C224.994 1.14647 273.854 10.9657 297.237 38.7815C311.487 55.732 307.64 90.7072 305.556 104.778C303.472 118.849 298.538 134.249 298.538 134.249C294.521 146.365 282.336 158.629 284.829 148.866C287.323 139.103 292.584 92.3857 292.525 81.682L292.524 81.402C292.467 70.9652 292.463 70.2324 280.966 71.3217Z" fill="#0F43EC"/>
<path d="M168.307 97.3174L178.609 100.491L183.137 131.255L171.105 125.472C161.008 121.109 158.966 112.617 159.342 106.735C159.802 99.5425 163.702 96.5914 168.307 97.3174Z" fill="#E9F0FF"/>
<path d="M298.193 114.295L287.421 114.713L275.13 143.279L288.245 140.783C299.126 139.162 303.283 131.48 304.433 125.699C305.839 118.631 302.83 114.777 298.193 114.295Z" fill="#E9F0FF"/>
<path d="M221.907 83.0197C222.437 82.2111 222.211 81.1265 221.402 80.5973C220.593 80.068 219.509 80.2945 218.979 81.1031L221.907 83.0197ZM202.695 85.932C201.741 85.7786 200.843 86.4278 200.689 87.3819C200.535 88.3361 201.185 89.234 202.139 89.3874L202.695 85.932ZM218.979 81.1031C217.718 83.0289 215.202 84.5058 212.043 85.3654C208.923 86.2141 205.467 86.3775 202.695 85.932L202.139 89.3874C205.42 89.9147 209.379 89.7169 212.961 88.7422C216.504 87.7784 219.976 85.9697 221.907 83.0197L218.979 81.1031Z" fill="#0F0967"/>
<path d="M254.424 86.5633C254.185 85.6268 254.751 84.674 255.688 84.4353C256.624 84.1966 257.577 84.7623 257.816 85.6988L254.424 86.5633ZM271.654 95.5427C272.607 95.7068 273.246 96.6119 273.082 97.5644C272.918 98.5169 272.013 99.156 271.06 98.9919L271.654 95.5427ZM257.816 85.6988C258.384 87.9292 260.285 90.1413 262.995 91.9781C265.671 93.7917 268.888 95.0663 271.654 95.5427L271.06 98.9919C267.786 98.4279 264.104 96.9579 261.031 94.8753C257.993 92.8158 255.295 89.98 254.424 86.5633L257.816 85.6988Z" fill="#0F0967"/>
<ellipse rx="4.15086" ry="4.1489" transform="matrix(0.991568 0.129608 -0.129734 0.991546 211.884 99.353)" fill="#0F0967"/>
<ellipse rx="4.15086" ry="4.14889" transform="matrix(0.991568 0.129608 -0.129734 0.991546 257.449 105.308)" fill="#0F0967"/>
<path d="M240.64 93.1061L240.297 128.587C240.279 130.387 238.692 131.766 236.908 131.533L223.286 129.753" stroke="#0F0967" stroke-width="3" stroke-linecap="round"/>
<path d="M190.695 1048.1C192.704 1056.78 191.899 1069.17 191.899 1069.17L191.877 1087.31C191.875 1088.34 191.474 1089.33 190.684 1090C188.333 1091.98 182.354 1096.42 171.448 1100.85C156.779 1106.8 143.714 1111.16 125.148 1112.53C105.894 1113.45 93.7464 1113.45 79.9939 1111.84C60.3584 1108.54 53.8737 1108.82 54.3427 1102.56L54.5704 1082.23C55.0506 1065.9 65.7949 1053.86 82.122 1048.63C96.9716 1044.44 117.336 1041.33 139.093 1058.94" stroke="white" stroke-width="3" stroke-linecap="round"/>
<path d="M55.1436 1086.97C74.7222 1096.5 157.523 1099.04 191.9 1069.16" stroke="white" stroke-width="3"/>
<path d="M93.0224 1093.26L92.5786 1112.76" stroke="white" stroke-width="3"/>
<path d="M114.122 1093.96L114.034 1112.32" stroke="white" stroke-width="3"/>
<path d="M134.963 1090.26L135.002 1112.28" stroke="white" stroke-width="3"/>
<path d="M151.445 1088.15L150.997 1109.15" stroke="white" stroke-width="3"/>
<path d="M164.483 1083.84L164.247 1103.83" stroke="white" stroke-width="3"/>
<path d="M175.738 1079.57L175.656 1099.56" stroke="white" stroke-width="3"/>
<path d="M184.766 1074.67L184.992 1094.66" stroke="white" stroke-width="3"/>
<path d="M73.0647 1091.91L72.5764 1110.3" stroke="white" stroke-width="3"/>
<path d="M228.44 1048.1C226.431 1056.78 227.235 1069.17 227.235 1069.17L227.258 1087.31C227.259 1088.34 227.661 1089.33 228.451 1090C230.802 1091.98 236.781 1096.42 247.686 1100.85C262.356 1106.8 275.421 1111.16 293.987 1112.53C313.24 1113.45 325.388 1113.45 339.141 1111.84C358.776 1108.54 365.261 1108.82 364.792 1102.56L364.564 1082.23C364.084 1065.9 353.34 1053.86 337.013 1048.63C322.163 1044.44 301.799 1041.33 280.041 1058.94" stroke="white" stroke-width="3" stroke-linecap="round"/>
<path d="M363.991 1086.97C344.413 1096.5 261.612 1099.04 227.234 1069.16" stroke="white" stroke-width="3"/>
<path d="M326.112 1093.26L326.556 1112.76" stroke="white" stroke-width="3"/>
<path d="M305.013 1093.96L305.1 1112.32" stroke="white" stroke-width="3"/>
<path d="M284.171 1090.26L284.133 1112.28" stroke="white" stroke-width="3"/>
<path d="M267.69 1088.15L268.138 1109.15" stroke="white" stroke-width="3"/>
<path d="M254.652 1083.84L254.887 1103.83" stroke="white" stroke-width="3"/>
<path d="M243.396 1079.57L243.479 1099.56" stroke="white" stroke-width="3"/>
<path d="M234.368 1074.67L234.143 1094.66" stroke="white" stroke-width="3"/>
<path d="M346.07 1091.91L346.558 1110.3" stroke="white" stroke-width="3"/>
<path d="M112.701 527.525C111.784 543.101 107.2 564.175 88.8633 566.923" stroke="white" stroke-width="3" stroke-linecap="round"/>
<defs>
<linearGradient id="paint0_linear_1259_4300" x1="171.01" y1="487.705" x2="171.01" y2="1045.59" gradientUnits="userSpaceOnUse">
<stop stop-color="#0B2CED"/>
<stop offset="1" stop-color="#0F0B6C"/>
</linearGradient>
<linearGradient id="paint1_linear_1259_4300" x1="329.841" y1="328.479" x2="343.796" y2="592.721" gradientUnits="userSpaceOnUse">
<stop stop-color="#120F8A"/>
<stop offset="1" stop-color="#0339C6"/>
</linearGradient>
<linearGradient id="paint2_linear_1259_4300" x1="94.8728" y1="327.575" x2="80.4969" y2="593.385" gradientUnits="userSpaceOnUse">
<stop stop-color="#120F8A"/>
<stop offset="1" stop-color="#0339C6"/>
</linearGradient>
</defs>
</svg>
