<svg width="181" height="181" viewBox="0 0 181 181" fill="none" xmlns="http://www.w3.org/2000/svg">
<circle cx="90.5" cy="90.5" r="90.5" fill="url(#paint0_linear_305_30)"/>
<circle cx="90.5003" cy="90.5003" r="76.1634" fill="url(#paint1_linear_305_30)"/>
<path d="M87.9953 41.3866C88.0596 39.7903 89.3723 38.5293 90.9699 38.5293C92.5896 38.5293 93.9121 39.8242 93.9462 41.4435L94.8939 86.4153C94.9411 88.6569 93.1369 90.4996 90.8947 90.4996H90.1837C87.9115 90.4996 86.0956 88.6092 86.1869 86.3388L87.9953 41.3866Z" fill="#CBDDFF"/>
<path d="M72.9055 126.453C72.0402 127.796 70.2727 128.224 68.8887 127.425C67.4815 126.613 66.9785 124.827 67.7549 123.399L84.962 91.7626C86.0366 89.787 88.5282 89.0852 90.4759 90.2097L91.0459 90.5388C93.0251 91.6815 93.6463 94.2473 92.4089 96.1687L72.9055 126.453Z" fill="#CBDDFF"/>
<ellipse cx="90.5004" cy="90.5004" rx="8.96039" ry="8.9604" fill="#CBDDFF"/>
<ellipse cx="90.5003" cy="90.5003" rx="5.37624" ry="5.37624" fill="#1323B7"/>
<defs>
<linearGradient id="paint0_linear_305_30" x1="48.3861" y1="13.4406" x2="135.302" y2="175.624" gradientUnits="userSpaceOnUse">
<stop stop-color="#E9F0FF"/>
<stop offset="1" stop-color="#A3BBE9"/>
</linearGradient>
<linearGradient id="paint1_linear_305_30" x1="40.3221" y1="30.4656" x2="125.446" y2="166.664" gradientUnits="userSpaceOnUse">
<stop stop-color="#081A79"/>
<stop offset="1" stop-color="#0F43EC"/>
</linearGradient>
</defs>
</svg>
