<svg width="547" height="626" viewBox="0 0 547 626" fill="none" xmlns="http://www.w3.org/2000/svg">
<path d="M317.819 189.387C314.844 189.36 312.551 186.756 312.9 183.802L325.027 80.9815C325.375 78.027 328.211 76.0285 331.11 76.6938L475.738 109.875C478.226 110.446 479.885 112.799 479.586 115.334L471.211 186.349C470.912 188.884 468.751 190.787 466.199 190.763L317.819 189.387Z" fill="url(#paint0_linear)" stroke="white" stroke-width="4"/>
<path d="M317.819 189.387C314.844 189.36 312.551 186.756 312.9 183.802L325.027 80.9815C325.375 78.027 328.211 76.0285 331.11 76.6938L475.738 109.875C478.226 110.446 479.885 112.799 479.586 115.334L471.211 186.349C470.912 188.884 468.751 190.787 466.199 190.763L317.819 189.387Z" stroke="white" stroke-width="4"/>
<path d="M448.245 190.069L458 107.361" stroke="white" stroke-width="4"/>
<ellipse cx="432.405" cy="174.184" rx="1.95858" ry="1.95858" transform="rotate(-50.0203 432.405 174.184)" fill="url(#paint1_linear)"/>
<path d="M431.468 175.025C431.015 174.646 430.956 173.972 431.335 173.52" stroke="white" stroke-linecap="round"/>
<path d="M462.012 196.129L466.386 237.191L469.776 255.845L396.941 263.914L390.108 252.659C385.136 243.072 378.914 234.671 370.62 222.399C363.077 212.508 360.742 210.15 358.896 198.012C359.976 192.194 362.747 191.348 366.516 191.691L375.182 190.982C375.605 190.948 375.96 190.651 376.067 190.24L379.999 175.282C382.677 161.286 400.926 163.077 409.082 162.626L434.697 165.376C456.38 165.142 459.413 181.827 462.012 196.129Z" fill="#EAF1FF"/>
<path d="M264.167 142.042C259.33 146.86 262.151 153.419 264.167 156.095L276.254 184.203C292.376 217.932 269.536 253.133 256.1 266.517V346.238C256.1 347.549 254.86 348.506 253.592 348.173L76.7336 301.703C83.1802 264.762 79.4197 225.026 76.7336 214.318C75.39 209.634 70.2853 202.021 54.5662 200.264C40.1473 198.653 38.9914 188.201 38.4434 182.195C36.8311 164.528 48.1172 164.127 54.5662 164.127H68.6753C55.7771 122.367 91.516 97.2043 110.998 89.8429L185.566 61.7352C212.975 50.4923 231.919 66.4198 237.965 75.7889L270.211 123.973C276.66 132.004 273.57 136.939 270.211 138.278L264.167 142.042Z" fill="#EAF1FF"/>
<path d="M86.6956 164.111H54.45C39.9394 143.232 43.0296 108.566 46.3885 93.8427C52.8377 66.5384 79.9778 62.3892 92.7417 63.7277H106.849C142.319 63.7277 186.12 28.9284 203.586 11.5288C226.158 -9.35095 242.55 2.82889 247.924 11.5288C270.496 40.4392 253.298 63.7281 241.878 71.7587C208.02 89.4262 155.218 104.551 133.049 109.904C121.763 113.117 121.628 124.627 122.972 129.981C126.197 144.436 139.095 160.096 145.141 166.119C155.959 176.896 177.86 170 195.86 166.119L261.552 147.784C263.287 147.299 265.159 147.777 266.382 149.099C285.897 170.196 294.277 204.012 294.277 216.311C299.114 258.07 253.298 269.848 229.786 270.518C170.131 276.942 131.033 219.657 118.941 190.211C109.872 168.126 100.803 164.111 86.6956 164.111Z" fill="#0F43EC"/>
<path d="M240.598 165.598C248.032 163.572 253.433 161.677 257.114 160.152C260.177 158.883 264.247 160.265 264.86 163.523C266.473 172.089 262.943 175.752 260.323 176.655C260.097 176.733 259.865 176.809 259.643 176.899C250.209 180.723 242.781 176.876 238.238 172.377C235.901 170.064 237.425 166.462 240.598 165.598Z" fill="#ECF1FD"/>
<path d="M67.5356 183.292C72.6334 182.223 83.9559 182.811 88.4634 193.716" stroke="#0F0967" stroke-width="4" stroke-linecap="round"/>
<path d="M222.192 122.142C225.331 117.818 232.225 116.625 237.286 116.597C238.242 116.592 238.768 115.364 238.068 114.713L235.535 112.364C235.395 112.234 235.295 112.067 235.247 111.883L234.637 109.55C234.552 109.223 234.309 108.959 233.984 108.869C227.81 107.168 219.928 111.49 215.548 115.02C214.492 115.871 214.757 117.468 215.975 118.067L218.324 119.222C218.562 119.339 218.744 119.546 218.829 119.797L219.58 122C219.906 122.959 221.597 122.962 222.192 122.142Z" fill="#0F0967"/>
<path d="M153.615 25.8231C153.306 24.7624 152.197 24.1522 151.136 24.4603C150.075 24.7683 149.465 25.8779 149.773 26.9387L153.615 25.8231ZM102.55 69.3963C110.127 68.1621 124.322 63.2117 135.867 55.818C141.645 52.1173 146.904 47.7147 150.319 42.7278C153.764 37.6981 155.397 31.9597 153.615 25.8231L149.773 26.9387C151.136 31.6325 149.981 36.1426 147.019 40.4677C144.028 44.8357 139.261 48.8943 133.71 52.4495C122.595 59.5675 108.912 64.3074 101.907 65.4483L102.55 69.3963Z" fill="#0A39D1"/>
<path d="M238.485 63.1556C247.278 54.0777 254.568 34.1632 239.574 18.9366" stroke="#171460" stroke-width="4" stroke-linecap="round"/>
<path d="M62.6719 88.8624C58.4809 93.0573 54.5885 98.4926 55.3361 108.44" stroke="#171460" stroke-width="4" stroke-linecap="round"/>
<path d="M59.4529 306.061C64.2898 291.923 90.6909 303.606 99.76 306.061L250.266 338.923C321.316 351.348 373.648 485.411 380.702 538.758H0C13.7044 423.293 45.3455 335.517 59.4529 306.061Z" fill="url(#paint2_linear)"/>
<path d="M395.471 260.372C386.583 262.169 382.621 264.75 380.057 291.706C377.493 318.662 380.02 437.367 367.36 435C354.699 432.634 241.41 351.137 153.36 373C115.811 382.323 97.36 406 97.3598 459C97.3595 545.63 214.323 555.911 305.156 563.894L306.36 564C397.36 572 458.36 577 492.36 539C526.36 501 503.171 326.679 483.023 266.227C478.042 251.283 473.987 244.497 467.074 245.895L395.471 260.372Z" fill="url(#paint3_linear)"/>
<path d="M389.654 132.61C390.698 128.026 395.081 125.007 399.736 125.665C404.768 126.377 408.224 131.095 407.386 136.107L398.411 189.789C397.465 195.451 392.191 199.336 386.504 198.563C380.322 197.723 376.192 191.763 377.577 185.681L389.654 132.61Z" fill="#EAF1FF"/>
<path d="M414.357 125.328C415.565 120.069 420.626 116.635 425.959 117.455C431.526 118.312 435.372 123.483 434.591 129.061L427.269 181.363C426.296 188.314 419.825 193.127 412.888 192.06C405.658 190.947 400.895 183.928 402.533 176.799L414.357 125.328Z" fill="#EAF1FF"/>
<path d="M439.977 141.069C441.383 136.852 445.884 134.515 450.142 135.792C454.284 137.035 456.756 141.274 455.798 145.492L444.972 193.122C443.627 199.042 437.603 202.633 431.755 201.001C425.904 199.368 422.61 193.17 424.531 187.407L439.977 141.069Z" fill="#EAF1FF"/>
<path d="M457.278 164.457C459.132 161.317 462.999 160 466.384 161.354C470.076 162.83 471.936 166.964 470.594 170.707L460.295 199.419C458.256 205.103 451.779 207.812 446.3 205.273C440.785 202.717 438.681 195.959 441.771 190.724L457.278 164.457Z" fill="#EAF1FF"/>
<defs>
<linearGradient id="paint0_linear" x1="325.393" y1="187.94" x2="352.894" y2="86.7944" gradientUnits="userSpaceOnUse">
<stop stop-color="white" stop-opacity="0.88"/>
<stop offset="1" stop-color="white" stop-opacity="0.28"/>
</linearGradient>
<linearGradient id="paint1_linear" x1="433.989" y1="175.959" x2="431.091" y2="173.48" gradientUnits="userSpaceOnUse">
<stop stop-color="#4B0C07"/>
<stop offset="1" stop-color="#83251A"/>
</linearGradient>
<linearGradient id="paint2_linear" x1="192.97" y1="299.196" x2="192.97" y2="538.758" gradientUnits="userSpaceOnUse">
<stop stop-color="#0B2AE7"/>
<stop offset="1" stop-color="#181369"/>
</linearGradient>
<linearGradient id="paint3_linear" x1="599.154" y1="465.787" x2="162.333" y2="571.996" gradientUnits="userSpaceOnUse">
<stop stop-color="#0F14C9"/>
<stop offset="1" stop-color="#001A75"/>
</linearGradient>
</defs>
</svg>
