<svg width="99" height="98" viewBox="0 0 99 98" fill="none" xmlns="http://www.w3.org/2000/svg">
<ellipse cx="49.2337" cy="49" rx="49.0541" ry="48.5586" fill="#59F0E7" fill-opacity="0.3"/>
<ellipse cx="49.4996" cy="48.9999" rx="42.3649" ry="41.9369" fill="#59F0E7" fill-opacity="0.4"/>
<ellipse cx="49.235" cy="48.9999" rx="34.7838" ry="34.8739" fill="#59F0E7"/>
<mask id="path-4-outside-1" maskUnits="userSpaceOnUse" x="26.4609" y="21.6294" width="45" height="53" fill="black">
<rect fill="white" x="26.4609" y="21.6294" width="45" height="53"/>
<path d="M58.9816 43.5508C59.9124 45.81 59.7273 46.8705 59.847 47.5486C59.8828 47.7514 60.0777 47.9559 60.2787 47.9109C60.336 47.898 60.3819 47.8585 60.4317 47.8274C60.7024 47.6583 60.9562 47.3113 61.1794 46.9099C61.5968 46.159 62.6528 46.0698 62.959 46.8724C64.3339 50.4766 64.3446 54.5864 63.0518 58.0427C62.3338 59.6882 60.1796 63.802 54.8457 66.0645C53.2386 66.8713 48.7936 68.0214 43.87 66.1674C38.9463 64.3162 36.3819 60.7167 35.3561 58.3512C34.9458 57.4256 34.2278 55.3688 34.5355 52.1806C34.6381 50.5351 36.2793 46.2157 36.4845 45.7015C37.3253 43.5465 37.6287 41.4249 37.7037 40.0681C37.7354 39.4966 38.1699 39.1721 38.6632 39.4624C38.9563 39.6349 39.2754 39.84 39.5618 40.0451C40.0469 40.4098 40.4523 40.7427 40.8095 41.075C41.4352 41.6572 42.5728 41.4423 42.8445 40.6319C43.6237 38.3081 44.6493 36.2453 45.9215 34.4915C47.4452 32.3205 49.4706 30.5896 51.6544 29.4462C52.3894 29.0613 53.2418 29.8018 53.1883 30.6297C53.1035 31.9409 53.1809 33.7138 53.6912 35.7265C53.7082 35.7939 53.7327 35.86 53.7648 35.9217C54.2798 36.913 55.0726 37.8105 55.7688 38.7081C56.0766 39.0166 56.2817 39.428 56.5895 39.7365C58.2307 41.8962 58.535 42.4671 58.9816 43.5508Z"/>
</mask>
<path d="M58.9816 43.5508C59.9124 45.81 59.7273 46.8705 59.847 47.5486C59.8828 47.7514 60.0777 47.9559 60.2787 47.9109C60.336 47.898 60.3819 47.8585 60.4317 47.8274C60.7024 47.6583 60.9562 47.3113 61.1794 46.9099C61.5968 46.159 62.6528 46.0698 62.959 46.8724C64.3339 50.4766 64.3446 54.5864 63.0518 58.0427C62.3338 59.6882 60.1796 63.802 54.8457 66.0645C53.2386 66.8713 48.7936 68.0214 43.87 66.1674C38.9463 64.3162 36.3819 60.7167 35.3561 58.3512C34.9458 57.4256 34.2278 55.3688 34.5355 52.1806C34.6381 50.5351 36.2793 46.2157 36.4845 45.7015C37.3253 43.5465 37.6287 41.4249 37.7037 40.0681C37.7354 39.4966 38.1699 39.1721 38.6632 39.4624C38.9563 39.6349 39.2754 39.84 39.5618 40.0451C40.0469 40.4098 40.4523 40.7427 40.8095 41.075C41.4352 41.6572 42.5728 41.4423 42.8445 40.6319C43.6237 38.3081 44.6493 36.2453 45.9215 34.4915C47.4452 32.3205 49.4706 30.5896 51.6544 29.4462C52.3894 29.0613 53.2418 29.8018 53.1883 30.6297C53.1035 31.9409 53.1809 33.7138 53.6912 35.7265C53.7082 35.7939 53.7327 35.86 53.7648 35.9217C54.2798 36.913 55.0726 37.8105 55.7688 38.7081C56.0766 39.0166 56.2817 39.428 56.5895 39.7365C58.2307 41.8962 58.535 42.4671 58.9816 43.5508Z" fill="#CA0D7B"/>
<path d="M59.847 47.5486L66.7404 46.3315L66.7404 46.3315L59.847 47.5486ZM58.9816 43.5508L52.5094 46.2175L52.5094 46.2175L58.9816 43.5508ZM56.5895 39.7365L62.1628 35.5012L61.878 35.1265L61.5456 34.7932L56.5895 39.7365ZM55.7688 38.7081L50.238 42.9987L50.505 43.3429L50.8127 43.6514L55.7688 38.7081ZM53.7648 35.9217L47.5531 39.149L47.5532 39.149L53.7648 35.9217ZM51.6544 29.4462L48.4074 23.2448L48.4074 23.2448L51.6544 29.4462ZM45.9215 34.4915L51.5877 38.6017L51.6198 38.5576L51.6511 38.5129L45.9215 34.4915ZM42.8445 40.6319L49.4815 42.8571L49.4815 42.8571L42.8445 40.6319ZM40.8095 41.075L36.041 46.1996L36.041 46.1996L40.8095 41.075ZM39.5618 40.0451L43.7688 34.4503L43.7037 34.4014L43.6374 34.3539L39.5618 40.0451ZM38.6632 39.4624L35.1131 45.4953L35.1131 45.4953L38.6632 39.4624ZM36.4845 45.7015L42.9861 48.2954L42.996 48.2707L43.0056 48.246L36.4845 45.7015ZM34.5355 52.1806L41.5031 52.8532L41.5145 52.7348L41.5219 52.6161L34.5355 52.1806ZM35.3561 58.3512L41.7783 55.5663L41.767 55.5403L41.7555 55.5144L35.3561 58.3512ZM43.87 66.1674L46.3367 59.6164L46.3335 59.6152L43.87 66.1674ZM54.8457 66.0645L52.1122 59.6203L51.9056 59.7079L51.705 59.8086L54.8457 66.0645ZM63.0518 58.0427L69.4676 60.8423L69.5425 60.6705L69.6082 60.495L63.0518 58.0427ZM62.959 46.8724L69.4993 44.3775L69.4993 44.3775L62.959 46.8724ZM37.7037 40.0681L30.7144 39.6815V39.6815L37.7037 40.0681ZM53.1883 30.6297L46.2028 30.1782L46.2028 30.1782L53.1883 30.6297ZM53.6912 35.7265L60.4765 34.0063L60.4765 34.0062L53.6912 35.7265ZM61.1794 46.9099L55.0612 43.5088V43.5088L61.1794 46.9099ZM60.4317 47.8274L56.724 41.89L56.724 41.89L60.4317 47.8274ZM60.2787 47.9109L61.8089 54.7416L61.809 54.7415L60.2787 47.9109ZM66.7404 46.3315C66.7957 46.6449 66.8026 46.913 66.7792 46.5296C66.7638 46.2766 66.7347 45.7947 66.656 45.2095C66.4892 43.9697 66.1433 42.5579 65.4538 40.8842L52.5094 46.2175C52.7506 46.8029 52.7776 47.0509 52.7809 47.0757C52.7872 47.1228 52.7925 47.1744 52.8051 47.3816C52.81 47.4619 52.8216 47.662 52.8379 47.8578C52.8552 48.0646 52.887 48.3886 52.9536 48.7658L66.7404 46.3315ZM65.4538 40.8842C64.6788 39.0033 63.9727 37.8829 62.1628 35.5012L51.0161 43.9718C51.818 45.027 52.1261 45.4786 52.2707 45.7138C52.3368 45.8214 52.3618 45.8591 52.5094 46.2175L65.4538 40.8842ZM61.5456 34.7932C61.7377 34.9858 61.8611 35.1411 61.9056 35.1984C61.9404 35.2434 61.9586 35.2705 61.8803 35.1606C61.8304 35.0906 61.684 34.8834 61.5145 34.6649C61.3354 34.434 61.071 34.1116 60.725 33.7648L50.8127 43.6514C50.6206 43.4588 50.4972 43.3035 50.4528 43.2462C50.4179 43.2013 50.3997 43.1741 50.478 43.284C50.528 43.3541 50.6743 43.5612 50.8438 43.7797C51.0229 44.0106 51.2873 44.333 51.6333 44.6798L61.5456 34.7932ZM61.2997 34.4175C61.0878 34.1442 60.8676 33.8699 60.7052 33.6665C60.5272 33.4435 60.3931 33.274 60.2742 33.1174C60.0275 32.7924 59.9695 32.681 59.9764 32.6943L47.5532 39.149C48.4553 40.8853 49.9438 42.6194 50.238 42.9987L61.2997 34.4175ZM48.4074 23.2448C45.2566 24.8946 42.3719 27.3641 40.1919 30.47L51.6511 38.5129C52.5186 37.2769 53.6846 36.2847 54.9014 35.6476L48.4074 23.2448ZM40.2553 30.3813C38.5029 32.7971 37.176 35.5184 36.2076 38.4067L49.4815 42.8571C50.0713 41.0977 50.7958 39.6935 51.5877 38.6017L40.2553 30.3813ZM45.5779 35.9504C44.9933 35.4064 44.3876 34.9156 43.7688 34.4503L35.3548 45.6398C35.7061 45.904 35.9113 46.0789 36.041 46.1996L45.5779 35.9504ZM43.6374 34.3539C43.1632 34.0143 42.6667 33.6962 42.2134 33.4294L35.1131 45.4953C35.2459 45.5735 35.3875 45.6656 35.4861 45.7362L43.6374 34.3539ZM29.9828 43.1076C29.8329 43.4832 29.3238 44.8203 28.829 46.3084C28.4463 47.4596 27.6675 49.8454 27.5491 51.7451L41.5219 52.6161C41.5077 52.8443 41.4822 52.9348 41.5054 52.8183C41.5234 52.7282 41.5588 52.573 41.619 52.3467C41.7403 51.891 41.9137 51.3277 42.114 50.7252C42.3106 50.1338 42.5136 49.5631 42.6804 49.108C42.7632 48.8819 42.8352 48.6895 42.8907 48.5435C42.9184 48.4704 42.9413 48.4108 42.9586 48.3659C42.9673 48.3435 42.9742 48.3259 42.9792 48.3129C42.9845 48.2994 42.9867 48.294 42.9861 48.2954L29.9828 43.1076ZM27.5679 51.5081C27.1229 56.1185 28.1578 59.3859 28.9567 61.188L41.7555 55.5144C41.7338 55.4654 41.3327 54.619 41.5031 52.8532L27.5679 51.5081ZM28.934 61.1362C30.5465 64.8547 34.3478 70.0657 41.4065 72.7196L46.3335 59.6152C43.5448 58.5667 42.2173 56.5786 41.7783 55.5663L28.934 61.1362ZM57.5792 72.5088C65.2549 69.2529 68.4056 63.276 69.4676 60.8423L56.636 55.2431C56.2619 56.1004 55.1044 58.3511 52.1122 59.6203L57.5792 72.5088ZM69.6082 60.495C71.5101 55.4099 71.469 49.541 69.4993 44.3775L56.4187 49.3674C57.1988 51.4123 57.179 53.7628 56.4954 55.5905L69.6082 60.495ZM51.705 59.8086C51.8043 59.7588 51.1837 60.0434 50.0347 60.1367C48.9747 60.2229 47.6893 60.1257 46.3367 59.6164L41.4032 72.7183C48.4182 75.3598 54.9011 73.8693 57.9863 72.3204L51.705 59.8086ZM30.7144 39.6815C30.6693 40.4968 30.4712 41.8552 29.9633 43.157L43.0056 48.246C44.1794 45.2378 44.5881 42.3531 44.6931 40.4547L30.7144 39.6815ZM46.2028 30.1782C46.0757 32.1458 46.1985 34.657 46.9058 37.4468L60.4765 34.0062C60.1632 32.7705 60.1314 31.736 60.1737 31.0813L46.2028 30.1782ZM55.0612 43.5088C55.0679 43.4966 55.1541 43.3394 55.3358 43.1099C55.4878 42.918 55.9321 42.3845 56.724 41.89L64.1394 53.7648C66.0229 52.5886 66.994 50.8572 67.2976 50.3109L55.0612 43.5088ZM36.2076 38.4067C37.0145 36.0003 39.0014 34.8403 40.5382 34.5216C42.0392 34.2102 44.0013 34.4834 45.5779 35.9504L36.041 46.1996C38.2433 48.2489 41.0871 48.7057 43.3813 48.2298C45.7113 47.7466 48.4029 46.074 49.4815 42.8571L36.2076 38.4067ZM54.9014 35.6476C52.2748 37.0228 49.6934 36.1371 48.3233 35.0325C47.0381 33.9962 46.0678 32.2668 46.2028 30.1782L60.1737 31.0813C60.3622 28.1648 58.9925 25.6511 57.1108 24.1338C55.1442 22.5482 51.769 21.4847 48.4074 23.2448L54.9014 35.6476ZM58.7484 41.0802C61.5368 40.4555 63.6726 41.7051 64.6966 42.6313C65.7165 43.5538 66.475 44.8284 66.7404 46.3315L52.9536 48.7657C53.2548 50.4716 54.1287 51.9499 55.3052 53.0141C56.4858 54.082 58.8196 55.4113 61.8089 54.7416L58.7484 41.0802ZM59.9764 32.6944C60.2119 33.1476 60.3715 33.5922 60.4765 34.0063L46.9058 37.4467C47.045 37.9957 47.2535 38.5723 47.5531 39.149L59.9764 32.6944ZM61.809 54.7415C62.9307 54.4902 63.7211 54.0265 64.0388 53.8301C64.1259 53.7763 64.1966 53.7301 64.2421 53.6999C64.2849 53.6716 64.3211 53.647 64.3249 53.6444C64.3621 53.6191 64.2605 53.6892 64.1394 53.7648L56.724 41.89C56.6421 41.9412 56.5759 41.9847 56.5349 42.012C56.5139 42.0259 56.4965 42.0377 56.4853 42.0452C56.4752 42.0521 56.4653 42.0588 56.4648 42.0591C56.4375 42.0776 56.5442 42.0041 56.6772 41.9219C56.9452 41.7562 57.684 41.3186 58.7483 41.0802L61.809 54.7415ZM42.2134 33.4294C40.0608 32.1627 36.9009 31.7672 34.1253 33.6191C31.6528 35.2688 30.8172 37.8226 30.7144 39.6815L44.6931 40.4547C44.6219 41.742 44.0194 43.8478 41.8954 45.265C39.4683 46.8843 36.7724 46.4718 35.1131 45.4953L42.2134 33.4294ZM69.4993 44.3775C68.1789 40.916 64.9029 39.1769 61.7986 39.3156C58.9747 39.4417 56.43 41.0464 55.0612 43.5088L67.2976 50.3109C66.3462 52.0225 64.5382 53.2072 62.4232 53.3016C60.0278 53.4086 57.433 52.0262 56.4187 49.3674L69.4993 44.3775Z" fill="#FF7EC9" mask="url(#path-4-outside-1)"/>
<path d="M53.5286 61.4017C52.3821 62.5511 50.8262 63.29 49.1066 63.29C44.439 63.29 40.4264 57.8713 43.9476 53.4378C45.3397 51.3853 47.2232 50.5643 47.9602 48.4297C48.2877 47.6086 48.3696 46.5413 48.2877 45.8845C48.2058 45.6382 48.1239 44.7351 48.1239 44.653C48.1239 44.5709 48.1239 44.5709 48.2058 44.5709L48.2877 44.4888C48.3696 44.4888 48.3696 44.4888 48.4515 44.4888C48.6153 44.653 48.779 44.8172 48.9428 44.9814C49.2704 45.3098 49.6798 45.7203 50.0074 46.0487C50.8262 46.8697 51.5632 48.2654 51.727 49.8254C51.8908 51.7958 51.3995 53.4379 49.9255 54.5052C50.5806 54.7515 51.2357 54.7515 51.9727 54.5052C53.1191 54.0947 53.7742 53.4379 54.0199 52.5347C54.0199 52.5347 54.0199 52.4526 54.1018 52.4526H54.1837C54.8388 52.6989 55.5758 53.6842 55.6576 55.983C55.4939 57.7071 55.2482 59.6776 53.5286 61.4017Z" fill="#FFADDD"/>
</svg>
