<?xml version="1.0" encoding="UTF-8"?>
<svg fill="none" viewBox="0 0 650 1269" xmlns="http://www.w3.org/2000/svg">
<path d="m328.98 1179.7c4.574 0.49 9.293 1.48 12.383 3.01 16.051 7.94 42.894 13.59 57.388 15.78 32.235 4.6 46.391 27.67 49.791 39.75 0.235 0.84 0.322 1.68 0.319 2.48l-0.057 15.28c-0.02 5.24-4.061 9.59-9.324 9.89-15.379 0.88-52.506 2.72-90.706 2.63-38.331-0.1-76.158-2.31-91.714-3.33-5.255-0.35-9.255-4.73-9.235-9.96l0.061-16.23c-0.845-19.55 2.679-39.71 5.527-51.44 1.142-4.71 5.595-7.6 10.253-7.26 26.519 1.97 42.975 1.14 52.632-0.55 3.301-0.58 8.083-0.55 12.682-0.05zm-0.429 3.97c-4.414-0.48-8.78-0.47-11.564 0.02-10.12 1.77-26.945 2.58-53.616 0.6-2.878-0.21-5.432 1.57-6.074 4.21-2.801 11.55-6.247 31.33-5.416 50.37l2e-3 0.05-0.061 16.32c-0.012 3.16 2.387 5.75 5.5 5.96 15.524 1.02 53.254 3.22 91.461 3.32 38.086 0.09 75.122-1.75 90.47-2.62 3.118-0.18 5.542-2.76 5.554-5.92l0.058-15.28c1e-3 -0.5-0.054-0.96-0.17-1.37-3.074-10.92-16.184-32.55-46.516-36.88h-0.016c-14.552-2.2-41.925-7.92-58.569-16.15-2.45-1.21-6.605-2.15-11.043-2.63z" clip-rule="evenodd" fill="#fff" fill-rule="evenodd"/>
<path d="m446.65 1238.6 0.212 1.99c0.212 1.99 0.212 1.99 0.211 1.99h-0.028l-0.079 0.01-0.311 0.03c-0.274 0.03-0.683 0.07-1.225 0.12-1.084 0.1-2.7 0.25-4.837 0.42-4.275 0.34-10.635 0.8-18.991 1.25-16.714 0.9-41.414 1.76-73.397 1.63-31.982-0.13-56.515-1.18-73.06-2.21-8.273-0.51-14.549-1.02-18.761-1.39-2.106-0.19-3.696-0.35-4.762-0.46-0.533-0.05-0.935-0.1-1.204-0.13l-0.306-0.03-0.078-0.01h-0.025c-1e-3 0-3e-3 0 0.227-1.99l0.23-1.98h0.022l0.072 0.01 0.292 0.03c0.261 0.03 0.654 0.07 1.178 0.12 1.048 0.11 2.621 0.27 4.709 0.45 4.176 0.38 10.416 0.88 18.652 1.39 16.471 1.02 40.927 2.07 72.83 2.2 31.902 0.13 56.526-0.73 73.166-1.62 8.32-0.45 14.644-0.91 18.884-1.25 2.12-0.17 3.718-0.31 4.785-0.41 0.534-0.05 0.934-0.09 1.2-0.12l0.298-0.03 0.073-0.01h0.023z" clip-rule="evenodd" fill="#fff" fill-rule="evenodd"/>
<path d="m265.43 1263.3 0.086-22.9 3.996 0.02-0.085 22.9-3.997-0.02z" clip-rule="evenodd" fill="#fff" fill-rule="evenodd"/>
<path d="m338.39 1265.7 0.086-22.9 3.996 0.01-0.086 22.91-3.996-0.02z" clip-rule="evenodd" fill="#fff" fill-rule="evenodd"/>
<path d="m283.41 1264.8 0.086-22.9 3.997 0.02-0.086 22.9-3.997-0.02z" clip-rule="evenodd" fill="#fff" fill-rule="evenodd"/>
<path d="m356.17 1265.8 0.086-22.9 3.997 0.01-0.086 22.9-3.997-0.01z" clip-rule="evenodd" fill="#fff" fill-rule="evenodd"/>
<path d="m301.81 1265.6 0.086-22.9 3.996 0.01-0.086 22.9-3.996-0.01z" clip-rule="evenodd" fill="#fff" fill-rule="evenodd"/>
<path d="m374.46 1265.9 0.086-22.9 3.997 0.02-0.086 22.9-3.997-0.02z" clip-rule="evenodd" fill="#fff" fill-rule="evenodd"/>
<path d="m410.45 1265.4 0.086-22.91 3.997 0.02-0.086 22.9-3.997-0.01z" clip-rule="evenodd" fill="#fff" fill-rule="evenodd"/>
<path d="m319.08 1265.6 0.086-22.9 3.997 0.02-0.086 22.9-3.997-0.02z" clip-rule="evenodd" fill="#fff" fill-rule="evenodd"/>
<path d="m391.74 1265.9 0.085-22.9 3.997 0.01-0.086 22.9-3.996-0.01z" clip-rule="evenodd" fill="#fff" fill-rule="evenodd"/>
<path d="m427.5 1263.9 0.086-22.9 3.997 0.02-0.086 22.9-3.997-0.02z" clip-rule="evenodd" fill="#fff" fill-rule="evenodd"/>
<path d="m408.5 963v-225.5c0-38.48-2.501-102.14-2.501-112.14h-196.52c-11.98 32.137-10.084 84.007 10.52 120.64 27 48 34 71.5 39 112.5 5.2 42.637 7.025 87.5 4 161.5l-11 162.09c-0.788 4.26 1.765 8.4 5.975 9.41 12.747 3.06 43.125 9.17 74.025 11.5 23.25 1.75 67.807-2.1 77.501-3.27 3.749-0.46 6.596-3.47 6.999-7.23-6.999-114.5-7.999-189.5-7.999-229.5z" fill="url(#b)"/>
<path d="m320.11 137.99 100.29 9.971c0.731 0.073 1.33 0.611 1.482 1.331l12.906 61.266c1.036 4.917-2.422 9.648-7.416 10.146l-12.534 1.251c-0.804 0.08-1.439 0.727-1.515 1.532-4.849 51-17.866 91.551-24.427 117.37-0.376 1.48-2.388 1.781-3.205 0.491-10.905-17.214-39.745-51.909-98.61-77.654-0.713-0.311-1.136-1.075-1.004-1.843l7.199-41.995c0.08-0.469-0.041-0.95-0.334-1.325l-16.928-19.489c-0.293-0.375-0.414-0.857-0.334-1.326l12.481-60.969c0.148-0.866 0.935-1.474 1.809-1.397l30.14 2.638z" fill="#F1F1FC"/>
<path d="m429.84 162.27-102.13-10.053c-2.108-0.207-4.043 1.185-4.521 3.252l-6.332 27.426c-0.712 3.087-4.44 4.318-6.844 2.261l-8.013-6.858c-7.908-5.668-14.974-2.908-18.981 1.463-9.514 10.38 0.919 21.327-0.118 19.85l-0.298-0.38c0.141 0.169 0.238 0.295 0.298 0.38l12.496 15.926c0.961 1.225 1.169 2.88 0.543 4.306l-5.08 11.567c-0.98 2.232-3.658 3.179-5.571 1.672-9.366-7.38-15.132-21.791-18.251-28.77-13.857-31.013-4.914-98.885 64.468-109.23 69.382-10.342 103.33 55.887 103.74 61.348 0.307 4.092-2.792 5.551-4.679 5.832-0.242 0.036-0.486 0.029-0.729 5e-3z" fill="#0F43EC"/>
<path d="m402.35 186.06c-0.372 2.169-2.429 3.626-4.595 3.255-2.165-0.371-3.619-2.43-3.248-4.599 0.372-2.17 2.429-3.627 4.595-3.256 2.165 0.371 3.62 2.431 3.248 4.6z" fill="#0F0967"/>
<path d="m399.62 338.49c-26.241-37.04-82.834-69.393-120.92-79.112-7.188-1.834-13.282 2.424-17.971 8.246-66.943 63.83-77.999 207.36-56.463 348.69 0.936 3.655 2.931 7.519 6.698 7.508l197.36-1.388c4.655-0.014 7.657-11.302 8.282-15.922l0.091-0.669c2.016-14.863 8.419-62.086 6.716-114.72-2.129-65.796-8.922-130.54-23.797-152.63z" fill="#120F8A"/>
<path d="m420.74 628.53-34.533-19.939-28.803 33.924c18.303 19.862 23.41 24.095 40.494 32.586 9.869 4.906 14.647 5.005 21.707 15.027l19.035 27.09c5.17 7.6 9.089 10.604 13.558 8.023 4.469-2.58 3.43-6.332 3.376-7.477l-2.93-7.505 7.172 6.276c7.043 3.529 11.923-2.349 11.177-6.14 3.623-4.14 1.93-8.839 0.996-11.389-5.14-14.026-10.821-23.563-20.43-37.679l-7.731-10.616c-4.039-7.927-17.799-19.382-23.088-22.181z" fill="#F1F1FC"/>
<path d="m436.92 659.19c0.787-0.775 2.053-0.765 2.827 0.021 11.057 11.236 17.616 20.101 22.268 28.038 3.455 5.894 5.859 11.29 8.239 16.633 0.804 1.805 1.605 3.603 2.443 5.413 0.464 1.002 0.028 2.191-0.973 2.656-1.002 0.464-2.19 0.029-2.654-0.972-0.886-1.913-1.715-3.773-2.535-5.613-2.356-5.289-4.636-10.407-7.969-16.093-4.461-7.611-10.807-16.218-21.67-27.256-0.774-0.786-0.763-2.052 0.024-2.827z" clip-rule="evenodd" fill="#060D34" fill-rule="evenodd"/>
<path d="m427.73 671.23c0.847-0.709 2.107-0.597 2.816 0.249 6.949 8.308 11.439 14.706 15.465 21.583 0.017 0.03 0.034 0.06 0.05 0.091l8.784 16.97c0.507 0.98 0.123 2.187-0.857 2.695-0.981 0.509-2.187 0.126-2.694-0.854l-8.76-16.924c-3.89-6.64-8.241-12.847-15.056-20.993-0.708-0.847-0.595-2.108 0.252-2.817z" clip-rule="evenodd" fill="#060D34" fill-rule="evenodd"/>
<path d="m369.29 478.92c2.639-20.523 3.633-46.432 15.891-89.283 9.034-25.974 14.078-51.822-31.025-70.612-36.082-15.032-61.068 18.026-68.414 32.319-32.181 62.616-32.182 124.28-28.499 151.33 6.468 47.495 37.82 82.653 97.048 142.21 1.724 1.734 4.47 1.983 6.461 0.565l39.606-28.205c1.889-1.346 2.602-3.812 1.749-5.969-12.712-32.173-21.283-66.974-30.48-97.708-2.518-8.417-3.389-26.464-2.337-34.646z" fill="url(#a)"/>
<path d="m404.38 173.68c0.666-0.7 0.639-1.808-0.061-2.474-0.7-0.667-1.807-0.64-2.474 0.06l2.535 2.414zm-21.545-0.345c-0.911-0.323-1.912 0.153-2.235 1.064s0.153 1.911 1.064 2.234l1.171-3.298zm19.01-2.069c-1.816 1.907-4.924 3.028-8.578 3.337-3.614 0.305-7.46-0.214-10.432-1.268l-1.171 3.298c3.459 1.227 7.806 1.803 11.897 1.457 4.051-0.342 8.158-1.617 10.819-4.41l-2.535-2.414z" fill="#0F0967"/>
<path d="m402.94 227.65c-0.671 0.876-1.926 1.04-2.802 0.368-10.846-8.333-22.582-5.513-26.961-3.153-0.971 0.524-2.184 0.16-2.708-0.812s-0.161-2.185 0.811-2.709c5.336-2.876 18.851-6.056 31.291 3.502 0.876 0.673 1.041 1.928 0.369 2.804z" clip-rule="evenodd" fill="#0F0967" fill-rule="evenodd"/>
<ellipse transform="rotate(-1.3603 350.78 396.32)" cx="350.78" cy="396.32" rx="49.054" ry="48.559" fill="#59F0E7" fill-opacity=".3"/>
<ellipse transform="rotate(-1.3603 351.05 396.32)" cx="351.05" cy="396.32" rx="42.365" ry="41.937" fill="#59F0E7" fill-opacity=".4"/>
<ellipse transform="rotate(-1.3603 350.78 396.32)" cx="350.78" cy="396.32" rx="34.784" ry="34.874" fill="#59F0E7"/>
<path d="m360.66 384.7-0.147-0.184-0.115-0.11c-0.018-0.022-0.045-0.058-0.095-0.125l-9e-3 -0.013c-0.061-0.081-0.165-0.22-0.28-0.361-0.088-0.108-0.197-0.236-0.327-0.373-0.206-0.25-0.387-0.467-0.548-0.66-0.414-0.496-0.697-0.834-0.92-1.183-0.377-1.483-0.452-2.768-0.414-3.688 0.068-1.668-0.751-3.102-1.862-3.954-1.153-0.886-3.053-1.418-4.893-0.397l1.696 3.061-1.696-3.061c-2.626 1.455-5.025 3.605-6.812 6.276-0.889 1.292-1.651 2.695-2.293 4.189-0.083-0.049-0.165-0.095-0.246-0.14-1.216-0.677-2.916-0.83-4.367 0.188-1.302 0.915-1.745 2.314-1.779 3.388-0.034 1.085-0.242 2.826-0.873 4.566-0.126 0.342-0.574 1.61-1.006 3.018-0.379 1.239-0.928 3.147-0.996 4.506-0.272 3.868 0.655 6.487 1.289 7.835 1.395 3.009 4.681 7.328 10.715 9.435 5.928 2.072 11.285 0.699 13.66-0.521 6.369-2.92 8.88-7.988 9.717-10.038l0.036-0.087 0.031-0.088c1.495-4.308 1.351-9.295-0.425-13.638-0.708-1.731-2.274-2.645-3.845-2.716-0.076-0.196-0.158-0.394-0.246-0.595-0.646-1.467-1.171-2.301-2.95-4.53zm-18.176 3.554-0.304 0.342 0.304-0.342z" fill="#CA0D7B" stroke="#FF7EC9" stroke-width="7"/>
<path d="m355.37 408.62c-1.119 1.176-2.656 1.952-4.376 1.992-4.666 0.111-8.806-5.211-5.391-9.727 1.343-2.085 3.206-2.95 3.892-5.102 0.308-0.828 0.365-1.897 0.268-2.552-0.088-0.244-0.191-1.145-0.193-1.227s-2e-3 -0.082 0.079-0.084l0.08-0.084 0.164-4e-3c0.168 0.16 0.335 0.321 0.503 0.481 0.335 0.32 0.754 0.721 1.09 1.042 0.838 0.801 1.608 2.179 1.808 3.734 0.211 1.966-0.241 3.62-1.69 4.722 0.661 0.23 1.316 0.215 2.047-0.049 1.136-0.438 1.776-1.11 2-2.019 0 0-2e-3 -0.082 0.08-0.084l0.082-1e-3c0.661 0.23 1.421 1.198 1.557 3.494-0.123 1.727-0.321 3.703-2 5.468z" fill="#FFADDD"/>
<defs>
<linearGradient id="b" x1="305.44" x2="305.44" y1="833.03" y2="1192.2" gradientUnits="userSpaceOnUse">
<stop stop-color="#0B2BED" offset="0"/>
<stop stop-color="#0F0967" offset="1"/>
</linearGradient>
<linearGradient id="a" x1="390.01" x2="434.5" y1="383.37" y2="594.72" gradientUnits="userSpaceOnUse">
<stop stop-color="#110F89" offset="0"/>
<stop stop-color="#0D1998" offset=".3352"/>
<stop stop-color="#0239C6" offset="1"/>
</linearGradient>
</defs>
</svg>
