<?xml version="1.0" encoding="UTF-8"?>
<svg fill="none" viewBox="0 0 560 1120" xmlns="http://www.w3.org/2000/svg">
<path d="m351.9 1027c4.544 0.7 8.822 1.92 11.838 3.59 15.664 8.64 42.773 15.99 57.143 18.83 31.972 6.06 45.176 29.21 48.022 41.42 0.197 0.84-0.109 2.2-0.148 2.99l-0.737 14.99c-0.258 5.23-4.214 9.48-9.481 9.54-15.393 0.18-52.905 0.34-91.037-1.48-38.263-1.84-76.258-5.8-91.741-7.53-5.231-0.58-8.755-5.21-8.498-10.43l0.787-15.98c0.044-19.55 4.125-39.11 7.502-50.69 1.353-4.65 6.746-8.01 11.38-7.45 26.385 3.16 42.268 2.81 51.986 1.56 3.322-0.43 8.415-0.07 12.984 0.64zm-0.197 3.99c-4.384-0.67-9.184-0.95-11.985-0.59-10.184 1.31-27.447 1.53-53.984-1.66-2.863-0.34-5.429 1.09-6.189 3.7-3.321 11.39-7.466 31.65-7.502 50.69l-0.786 15.98c-0.156 3.16 2.599 5.95 5.697 6.29 15.451 1.73 52.604 5.66 90.742 7.48 38.018 1.82 74.678 1.61 90.039 1.44 3.121-0.04 6.132-2.55 6.287-5.7l0.738-14.98c0.025-0.5 0.196-1.58 0.098-2-2.572-11.04-15.088-32.58-45.173-38.27-14.427-2.86-40.9-9.87-57.143-18.84-2.39-1.32-6.43-2.86-10.839-3.54z" clip-rule="evenodd" fill="#fff" fill-rule="evenodd"/>
<path d="m466.76 1091.7-0.098 2c0.119 2.04-0.098 2-0.098 2-0.276 0.01-1.454-0.13-1.998-0.1-1.087 0.05-1.902 0.72-4.044 0.8-4.285 0.16-10.66-0.02-19.026 0.06-16.733 0.16-42.076-0.06-74.009-1.64s-56.338-3.8-72.813-5.6c-8.238-0.89-14.739-1.36-18.928-1.93-2.094-0.29-2.887-1.04-3.946-1.2-0.529-0.08-1.729-0.05-1.997-0.09-1e-3 0-0.224 0.02 0.098-2l0.098-2 0.999 0.05c0.259 0.04 0.478-0.03 0.999 0.05 1.042 0.16 2.868 0.96 4.945 1.24 4.153 0.57 9.728 1 17.929 1.89 16.401 1.79 40.959 4.02 72.813 5.59 31.853 1.58 56.351 1.76 73.01 1.6 8.329-0.08 14.776 0.09 19.026-0.06 2.125-0.08 3.973-0.7 5.043-0.76 0.535-0.02 0.732 0.07 0.999 0.05l0.998 0.05z" clip-rule="evenodd" fill="#fff" fill-rule="evenodd"/>
<path d="m284.87 1108 1.131-22.97 3.995 0.2-1.131 22.97-3.995-0.2z" clip-rule="evenodd" fill="#fff" fill-rule="evenodd"/>
<path d="m356.87 1114 1.131-22.97 3.995 0.2-1.131 22.97-3.995-0.2z" clip-rule="evenodd" fill="#fff" fill-rule="evenodd"/>
<path d="m302.87 1110 1.131-22.97 3.995 0.2-1.131 22.97-3.995-0.2z" clip-rule="evenodd" fill="#fff" fill-rule="evenodd"/>
<path d="m374.87 1115 1.131-22.97 3.995 0.2-1.131 22.97-3.995-0.2z" clip-rule="evenodd" fill="#fff" fill-rule="evenodd"/>
<path d="m320.87 1112 1.131-22.97 3.995 0.2-1.131 22.97-3.995-0.2z" clip-rule="evenodd" fill="#fff" fill-rule="evenodd"/>
<path d="m392.87 1115 1.131-22.97 3.995 0.2-1.131 22.97-3.995-0.2z" clip-rule="evenodd" fill="#fff" fill-rule="evenodd"/>
<path d="m428.87 1117 1.131-22.97 3.995 0.2-1.131 22.97-3.995-0.2z" clip-rule="evenodd" fill="#fff" fill-rule="evenodd"/>
<path d="m337.87 1113 1.131-22.97 3.995 0.2-1.131 22.97-3.995-0.2z" clip-rule="evenodd" fill="#fff" fill-rule="evenodd"/>
<path d="m410.87 1116 1.131-22.97 3.995 0.2-1.131 22.97-3.995-0.2z" clip-rule="evenodd" fill="#fff" fill-rule="evenodd"/>
<path d="m446.87 1116 1.131-22.97 3.995 0.2-1.131 22.97-3.995-0.2z" clip-rule="evenodd" fill="#fff" fill-rule="evenodd"/>
<path d="m351.9 1027c4.544 0.7 8.822 1.92 11.838 3.59 15.664 8.64 42.773 15.99 57.143 18.83 31.972 6.06 45.176 29.21 48.022 41.42 0.197 0.84-0.109 2.2-0.148 2.99l-0.737 14.99c-0.258 5.23-4.214 9.48-9.481 9.54-15.393 0.18-52.905 0.34-91.037-1.48-38.263-1.84-76.258-5.8-91.741-7.53-5.231-0.58-8.755-5.21-8.498-10.43l0.787-15.98c0.044-19.55 4.125-39.11 7.502-50.69 1.353-4.65 6.746-8.01 11.38-7.45 26.385 3.16 42.268 2.81 51.986 1.56 3.322-0.43 8.415-0.07 12.984 0.64zm-0.197 3.99c-4.384-0.67-9.184-0.95-11.985-0.59-10.184 1.31-27.447 1.53-53.984-1.66-2.863-0.34-5.429 1.09-6.189 3.7-3.321 11.39-7.466 31.65-7.502 50.69l-0.786 15.98c-0.156 3.16 2.599 5.95 5.697 6.29 15.451 1.73 52.604 5.66 90.742 7.48 38.018 1.82 74.678 1.61 90.039 1.44 3.121-0.04 6.132-2.55 6.287-5.7l0.738-14.98c0.025-0.5 0.196-1.58 0.098-2-2.572-11.04-15.088-32.58-45.173-38.27-14.427-2.86-40.9-9.87-57.143-18.84-2.39-1.32-6.43-2.86-10.839-3.54z" clip-rule="evenodd" fill="#fff" fill-rule="evenodd"/>
<path d="m466.76 1091.7-0.098 2c0.119 2.04-0.098 2-0.098 2-0.276 0.01-1.454-0.13-1.998-0.1-1.087 0.05-1.902 0.72-4.044 0.8-4.285 0.16-10.66-0.02-19.026 0.06-16.733 0.16-42.076-0.06-74.009-1.64s-56.338-3.8-72.813-5.6c-8.238-0.89-14.739-1.36-18.928-1.93-2.094-0.29-2.887-1.04-3.946-1.2-0.529-0.08-1.729-0.05-1.997-0.09-1e-3 0-0.224 0.02 0.098-2l0.098-2 0.999 0.05c0.259 0.04 0.478-0.03 0.999 0.05 1.042 0.16 2.868 0.96 4.945 1.24 4.153 0.57 9.728 1 17.929 1.89 16.401 1.79 40.959 4.02 72.813 5.59 31.853 1.58 56.351 1.76 73.01 1.6 8.329-0.08 14.776 0.09 19.026-0.06 2.125-0.08 3.973-0.7 5.043-0.76 0.535-0.02 0.732 0.07 0.999 0.05l0.998 0.05z" clip-rule="evenodd" fill="#fff" fill-rule="evenodd"/>
<path d="m284.87 1108 1.131-22.97 3.995 0.2-1.131 22.97-3.995-0.2z" clip-rule="evenodd" fill="#fff" fill-rule="evenodd"/>
<path d="m356.87 1114 1.131-22.97 3.995 0.2-1.131 22.97-3.995-0.2z" clip-rule="evenodd" fill="#fff" fill-rule="evenodd"/>
<path d="m302.87 1110 1.131-22.97 3.995 0.2-1.131 22.97-3.995-0.2z" clip-rule="evenodd" fill="#fff" fill-rule="evenodd"/>
<path d="m374.87 1115 1.131-22.97 3.995 0.2-1.131 22.97-3.995-0.2z" clip-rule="evenodd" fill="#fff" fill-rule="evenodd"/>
<path d="m320.87 1112 1.131-22.97 3.995 0.2-1.131 22.97-3.995-0.2z" clip-rule="evenodd" fill="#fff" fill-rule="evenodd"/>
<path d="m392.87 1115 1.131-22.97 3.995 0.2-1.131 22.97-3.995-0.2z" clip-rule="evenodd" fill="#fff" fill-rule="evenodd"/>
<path d="m428.87 1117 1.131-22.97 3.995 0.2-1.131 22.97-3.995-0.2z" clip-rule="evenodd" fill="#fff" fill-rule="evenodd"/>
<path d="m337.87 1113 1.131-22.97 3.995 0.2-1.131 22.97-3.995-0.2z" clip-rule="evenodd" fill="#fff" fill-rule="evenodd"/>
<path d="m410.87 1116 1.131-22.97 3.995 0.2-1.131 22.97-3.995-0.2z" clip-rule="evenodd" fill="#fff" fill-rule="evenodd"/>
<path d="m446.87 1116 1.131-22.97 3.995 0.2-1.131 22.97-3.995-0.2z" clip-rule="evenodd" fill="#fff" fill-rule="evenodd"/>
<path d="m422 829c-0.953-103.04-14.889-174.96-144-274l-196-66c-20.52 26.509-34.739 73.689-26 108 15.632 61.374 71.152 72.116 168 125 69.685 38.052 71.645 122.44 67 153l-29 154c-0.789 4.26 1.786 7.99 6 9 12.759 3.06 40.982 9 72 9 29.725 0 50.296-1.83 60-3 3.751-0.45 6.596-3.24 7-7 10.168-94.824 15.434-160.97 15-208z" fill="url(#c)"/>
<path d="m346.44 68.492 91.914 42.441c0.669 0.308 0.486 0.628 0.396 1.358l-7.715 61.923c-0.617 4.988-5.258 9.28-10.152 8.117l-11.962-3.141c-0.788-0.187-2.381 0.055-2.715 0.792-21.176 46.636-46.097 80.159-60.709 102.43-0.838 1.277-2.756 0.921-3.111-0.566-4.736-19.845-21.549-61.524-68.956-105.13-0.574-0.528-0.29-1.551 0.084-2.234l20.67-37.707c0.229-0.417 0.636-0.426 0.481-0.877l-9.844-23.65c-0.156-0.45-0.144-1.817 0.085-2.234l31.556-53.406c0.422-0.7702 1.431-0.2731 2.234 0.0851l27.744 11.799z" fill="#F1F1FC"/>
<path d="m441.7 126.72-93.272-42.046c-1.93-0.8861-4.305-0.2144-5.43 1.5837l-15.212 23.591c-1.679 2.685-5.093 2.477-6.703-0.255l-5.487-8.713c-5.652-7.9473-13.362-8.4528-18.58-5.6315-12.39 6.6985-5.605 21.198-6.107 19.462l-0.877-0.481c0.079 0.207 0.848 0.382 0.877 0.481l6.421 19.492c0.513 1.472 0.011 2.845-1.046 3.988l-8.398 9.08c-1.655 1.789-4.503 2.277-5.826 0.226-6.478-10.042-6.98-26.243-7.667-33.862-3.052-33.855 27.059-94.76 96.174-81.829s79.788 86.761 78.401 92.057c-1.04 3.97-4.511 3.69-6.391 3.338-0.241-0.045-0.655-0.379-0.877-0.481z" fill="#0F43EC"/>
<path d="m408.09 140.36c-1.062 1.938-3.493 2.647-5.43 1.584-1.936-1.062-2.646-3.494-1.584-5.431 1.062-1.938 3.493-2.647 5.43-1.584s2.646 3.494 1.584 5.431z" fill="#0F0967"/>
<path d="m355.7 283.85c-12.727-43.601-54.915-92.881-87.738-114.48-6.195-4.078-13.611-1.279-19.941 2.703-107.23 42.024-150.28 168.82-167.24 310.63-0.3066 3.764 0.4778 8.616 4.0419 9.833l202.55 65.975c4.403 1.503 8.346-2.787 9.853-7.203 1.668-24.765 20.387-83.792 27.706-118.4 13.636-64.463 37.623-123.3 30.768-149.05z" fill="#120F8A"/>
<path d="m306.4 559.22-30.459-25.63-33.884 28.087c14.422 22.877 18.573 28.058 33.816 39.553 8.806 6.64 13.332 7.394 18.477 18.535l13.571 30.067c3.721 8.414 7.436 12.395 12.275 10.69 4.839-1.704 4.262-6.184 4.413-7.317l-1.204-7.974 6.201 7.845c6.279 4.766 11.95-0.45 11.891-4.308 4.286-3.392 3.18-8.401 2.717-11.076-2.552-14.714-6.125-25.058-13.044-40.688l-6.493-11.439c-2.554-8.526-13.587-22.619-18.277-26.345z" fill="#F1F1FC"/>
<path d="m316.43 592.24c0.922-0.625 2.192-0.585 2.808 0.328 8.803 13.043 13.9 22.524 17.001 31.18 2.302 6.427 2.923 12.607 4.269 18.3 0.454 1.924 1.665 4.014 2.152 5.948 0.27 1.071-0.656 2.365-1.732 2.647-1.076 0.281-2.375-0.663-2.645-1.733-0.515-2.044-0.285-3.824-0.748-5.784-1.333-5.637-2.832-11.48-5.053-17.68-2.974-8.3-7.732-17.582-16.38-30.396-0.617-0.913-0.595-2.185 0.328-2.81z" clip-rule="evenodd" fill="#060D34" fill-rule="evenodd"/>
<path d="m305.43 602.24c0.963-0.546 2.271-0.628 2.809 0.327 5.277 9.382 8.746 16.66 11.419 24.12 0.011 0.033-0.01-0.033 0 0l5.673 18.465c0.316 1.051-0.676 2.321-1.732 2.646-1.057 0.325-2.329-0.682-2.645-1.733l-5.053-17.68c-2.584-7.203-5.625-14.137-10.799-23.335-0.537-0.956-0.634-2.265 0.328-2.81z" clip-rule="evenodd" fill="#060D34" fill-rule="evenodd"/>
<path d="m283.23 402.47c6.318-19.68 11.424-45.606 31.245-85.474 13.59-23.873 23.09-47.569-17.809-74.215-32.72-21.316-62.563 6.372-72.374 19.079-42.982 55.664-54.317 116.41-55.608 143.64-2.267 47.83 21.516 87.767 68.874 157.02 1.377 2.014 4.023 2.76 6.238 1.736l44.421-20.551c2.11-0.976 3.266-3.277 2.816-5.558-6.679-33.873-9.236-69.166-12.692-101.02-0.946-8.725 2.37-26.81 4.889-34.657z" fill="url(#b)"/>
<path d="m413.41 128.98c0.857-0.448 1.188-1.505 0.74-2.362-0.447-0.856-1.505-1.188-2.361-0.74l1.621 3.102zm-20.095-7.162c-0.757-0.601-1.858-0.474-2.459 0.283-0.6 0.757-0.473 1.858 0.284 2.459l2.175-2.742zm18.474 4.06c-2.336 1.221-5.618 1.29-9.137 0.426-3.481-0.856-6.907-2.559-9.337-4.486l-2.175 2.742c2.84 2.253 6.727 4.172 10.677 5.143 3.914 0.961 8.183 1.059 11.593-0.723l-1.621-3.102z" fill="#0F0967"/>
<path d="m395 180.07c-0.905 0.621-2.463 0.162-3.064-0.782-7.452-11.7-19.117-13.123-23.945-12.313-1.071 0.179-1.96-0.736-2.138-1.852-0.179-1.116 0.78-1.958 1.851-2.138 5.884-0.987 19.531 0.602 28.078 14.021 0.601 0.944 0.122 2.443-0.782 3.064z" clip-rule="evenodd" fill="#0F0967" fill-rule="evenodd"/>
<ellipse transform="rotate(17.653 290.98 322.08)" cx="290.98" cy="322.08" rx="49" ry="48.5" fill="#59F0E7" fill-opacity=".3"/>
<ellipse transform="rotate(17.653 291.31 322.7)" cx="291.31" cy="322.7" rx="42.5" ry="42" fill="#59F0E7" fill-opacity=".4"/>
<circle transform="rotate(17.653 290.83 322.55)" cx="290.83" cy="322.55" r="35" fill="#59F0E7"/>
<mask id="a" x="261.62" y="290.132" width="59.2564" height="65.1034" fill="black" maskUnits="userSpaceOnUse">
<rect x="261.62" y="290.13" width="59.256" height="65.103" fill="#fff"/>
<path d="m301.88 320.82c0.229 2.723-0.291 3.309-0.271 3.987 2e-3 0.052-0.024 0.138-0.034 0.167 1e-3 -2e-3 2e-3 -5e-3 4e-3 -9e-3 7e-3 -0.021 0.052-0.031 0.074-0.035 0.352-0.065 0.797-0.35 1.23-0.699 0.667-0.539 1.783-0.228 1.823 0.629 0.19 4.063-1.237 8.513-3.563 11.467-1.2 1.366-4.194 4.658-10.049 5.197-1.803 0.284-6.287-0.031-10.483-3.335-4.195-3.302-5.883-7.756-6.15-10.353-0.113-1.019-0.409-3.041 0.867-6.021 0.604-1.555 3.672-5.631 4.028-6.064 1.433-1.766 2.112-3.307 2.477-4.404 0.181-0.543 0.698-0.746 1.106-0.344 0.272 0.269 0.563 0.587 0.792 0.894 0.328 0.459 0.664 0.796 0.976 1.096 0.616 0.591 1.998 0.617 2.529-0.051 1.505-1.898 3.215-3.34 4.985-4.64 2.127-1.614 4.206-2.825 6.479-3.336 0.809-0.181 1.529 0.84 1.371 1.654-0.238 1.223-0.413 2.911-0.524 4.955-4e-3 0.07 0 0.141 0.011 0.209 0.188 1.119 0.581 2.282 0.979 3.362 0.203 0.392-0.506 0.561-0.303 0.953 0.925 2.588 1.546 3.539 1.646 4.721z"/>
</mask>
<path d="m301.88 320.82c0.229 2.723-0.291 3.309-0.271 3.987 2e-3 0.052-0.024 0.138-0.034 0.167 1e-3 -2e-3 2e-3 -5e-3 4e-3 -9e-3 7e-3 -0.021 0.052-0.031 0.074-0.035 0.352-0.065 0.797-0.35 1.23-0.699 0.667-0.539 1.783-0.228 1.823 0.629 0.19 4.063-1.237 8.513-3.563 11.467-1.2 1.366-4.194 4.658-10.049 5.197-1.803 0.284-6.287-0.031-10.483-3.335-4.195-3.302-5.883-7.756-6.15-10.353-0.113-1.019-0.409-3.041 0.867-6.021 0.604-1.555 3.672-5.631 4.028-6.064 1.433-1.766 2.112-3.307 2.477-4.404 0.181-0.543 0.698-0.746 1.106-0.344 0.272 0.269 0.563 0.587 0.792 0.894 0.328 0.459 0.664 0.796 0.976 1.096 0.616 0.591 1.998 0.617 2.529-0.051 1.505-1.898 3.215-3.34 4.985-4.64 2.127-1.614 4.206-2.825 6.479-3.336 0.809-0.181 1.529 0.84 1.371 1.654-0.238 1.223-0.413 2.911-0.524 4.955-4e-3 0.07 0 0.141 0.011 0.209 0.188 1.119 0.581 2.282 0.979 3.362 0.203 0.392-0.506 0.561-0.303 0.953 0.925 2.588 1.546 3.539 1.646 4.721z" fill="#CA0D7B"/>
<path d="m301.57 324.97 3.328 1.086-6.63-2.245 3.302 1.159zm-3.302-1.159c-4e-3 0.012-0.01 0.03-0.018 0.051-2e-3 7e-3 -0.01 0.031-0.02 0.063 0 0-0.021 0.064-0.042 0.144-6e-3 0.022-0.02 0.075-0.036 0.143-7e-3 0.034-0.02 0.093-0.033 0.168-9e-3 0.052-0.038 0.22-0.048 0.437-5e-3 0.101-0.012 0.332 0.026 0.621 0.019 0.146 0.12 1.012 0.812 1.82 0.374 0.375 1.348 0.968 1.935 1.147 0.563 0.072 1.558-0.025 1.974-0.156 0.775-0.296 1.224-0.79 1.318-0.892 0.283-0.305 0.444-0.594 0.464-0.629 0.055-0.096 0.094-0.174 0.112-0.212 0.063-0.129 0.105-0.237 0.106-0.239 0.012-0.03 0.021-0.054 0.025-0.066 0.01-0.025 0.017-0.044 0.02-0.053 7e-3 -0.02 0.013-0.036 0.016-0.045 7e-3 -0.021 0.013-0.04 0.019-0.057l-6.655-2.171c3e-3 -0.011 8e-3 -0.025 0.014-0.042 3e-3 -8e-3 8e-3 -0.023 0.015-0.042 3e-3 -8e-3 9e-3 -0.027 0.019-0.052 4e-3 -0.011 0.013-0.035 0.025-0.065 1e-3 -1e-3 0.043-0.11 0.106-0.239 0.018-0.038 0.057-0.116 0.112-0.212 0.02-0.035 0.181-0.324 0.464-0.629 0.094-0.102 0.543-0.596 1.318-0.892 0.416-0.13 1.411-0.228 1.974-0.156 0.587 0.179 1.561 0.772 1.935 1.148 0.692 0.807 0.793 1.674 0.812 1.819 0.038 0.29 0.031 0.52 0.026 0.621-0.01 0.217-0.039 0.385-0.048 0.437-0.013 0.075-0.026 0.134-0.033 0.168-0.016 0.068-0.03 0.121-0.036 0.144-0.013 0.049-0.025 0.088-0.029 0.101-5e-3 0.018-0.01 0.033-0.013 0.042-0.01 0.03-0.017 0.054-0.019 0.059-6e-3 0.018-0.011 0.03-0.012 0.035l-6.605-2.319zm3.336 0.992-6.996 0.211 6.996-0.211zm0.271-3.987 6.975-0.586-6.975 0.586zm-1.646-4.721 6.592-2.356-0.159-0.444-0.216-0.418-6.217 3.218zm0.303-0.953-6.567 2.422 0.15 0.409 0.201 0.387 6.216-3.218zm-0.979-3.362 6.903-1.161-6.903 1.161zm-0.858-6.818 1.533 6.83-1.533-6.83zm-6.479 3.336 4.144 5.641 0.044-0.032 0.044-0.033-4.232-5.576zm-4.985 4.64 5.484 4.349-5.484-4.349zm-2.529 0.051 4.845-5.053-4.845 5.053zm-0.976-1.096 5.699-4.065-0.047-0.066-0.049-0.065-5.603 4.196zm-0.792-0.894 4.915-4.984-4.915 4.984zm-3.583 4.748 5.404 4.45 0.017-0.021 0.017-0.02-5.438-4.409zm-4.028 6.064 6.435 2.756 0.047-0.109 0.043-0.112-6.525-2.535zm-0.867 6.021 6.964-0.715-6e-3 -0.056-6.958 0.771zm6.15 10.353 4.332-5.5-3e-3 -2e-3 -4.329 5.502zm10.483 3.335-0.643-6.97-0.223 0.02-0.221 0.035 1.087 6.915zm10.049-5.197 5.259 4.62 0.124-0.141 0.116-0.148-5.499-4.331zm3.563-11.467 6.992-0.327-6.992 0.327zm-22.873-13.513 6.641 2.213-6.641-2.213zm18.238-4.727 6.871 1.339-6.871-1.339zm-0.524 4.955-6.99-0.381 6.99 0.381zm3.336 12.656 4.4 5.444-4.4-5.444zm-1.23 0.699 1.268 6.884-1.268-6.884zm-0.074 0.035 6.59 2.359 1e-3 -1e-3 -6.591-2.358zm-4e-3 9e-3 -6.655-2.169 13.26 4.489-6.605-2.32zm7.031-0.378c0.022 0.74-0.115 1.282-0.093 1.184 3e-3 -0.014 7e-3 -0.033 0.021-0.092 0.011-0.05 0.029-0.128 0.048-0.215 0.04-0.181 0.09-0.419 0.138-0.701 0.212-1.226 0.294-2.655 0.135-4.538l-13.951 1.173c0.037 0.439 0.037 0.704 0.032 0.836-3e-3 0.066-6e-3 0.105-8e-3 0.121-1e-3 0.015-3e-3 0.021-3e-3 0.024-0.014 0.08 5e-3 -0.027-0.087 0.393-0.063 0.288-0.258 1.157-0.225 2.237l13.993-0.422zm0.249-4.362c-0.142-1.691-0.666-3.039-0.988-3.845-0.366-0.916-0.636-1.513-1.041-2.646l-13.183 4.712c0.52 1.455 1.023 2.627 1.224 3.13 0.244 0.611 0.08 0.33 0.037-0.178l13.951-1.173zm-2.404-7.353c0.203 0.392 0.389 0.85 0.526 1.369 0.137 0.523 0.214 1.074 0.22 1.641 0.012 1.159-0.275 2.126-0.592 2.828-0.298 0.66-0.635 1.115-0.796 1.321-0.088 0.113-0.16 0.197-0.195 0.237-0.031 0.035-0.056 0.063-0.033 0.037 8e-3 -9e-3 0.065-0.072 0.127-0.143 0.065-0.075 0.167-0.194 0.284-0.343 0.217-0.277 0.603-0.807 0.936-1.544 0.351-0.779 0.659-1.826 0.646-3.071-6e-3 -0.61-0.089-1.205-0.238-1.774-0.149-0.565-0.354-1.07-0.582-1.511l-12.433 6.436c-0.203-0.392-0.39-0.85-0.526-1.369-0.138-0.523-0.215-1.074-0.22-1.641-0.012-1.159 0.275-2.126 0.591-2.828 0.298-0.66 0.636-1.115 0.797-1.321 0.088-0.113 0.16-0.197 0.195-0.237 0.031-0.035 0.056-0.063 0.033-0.037-9e-3 9e-3 -0.066 0.072-0.127 0.143-0.066 0.075-0.168 0.194-0.284 0.343-0.217 0.277-0.604 0.807-0.936 1.544-0.352 0.779-0.659 1.826-0.646 3.071 6e-3 0.61 0.088 1.205 0.238 1.774 0.148 0.565 0.353 1.07 0.582 1.511l12.433-6.436zm0.654-0.157c-0.38-1.03-0.572-1.672-0.644-2.101l-13.806 2.322c0.304 1.808 0.898 3.492 1.315 4.623l13.135-4.844zm-9.939-14.588c-3.687 0.828-6.706 2.715-9.176 4.59l8.463 11.152c1.784-1.354 2.922-1.889 3.78-2.082l-3.067-13.66zm-9.089 4.525c-2.023 1.486-4.279 3.351-6.325 5.931l10.968 8.699c0.964-1.215 2.129-2.233 3.645-3.348l-8.288-11.282zm1.475 5.279c-0.118-0.113-0.153-0.15-0.163-0.162-4e-3 -3e-3 0.016 0.018 0.041 0.054l-11.398 8.129c0.712 0.998 1.423 1.693 1.831 2.084l9.689-10.105zm-0.218-0.239c-0.499-0.667-1.042-1.25-1.48-1.682l-9.83 9.968c0.04 0.04 0.078 0.08 0.107 0.112 0.013 0.015 0.021 0.024 0.022 0.025 2e-3 2e-3 -7e-3 -8e-3 -0.025-0.031l11.206-8.392zm-15.381 3.601c-0.35 0.424-1.327 1.723-2.253 3.047-0.482 0.689-1.011 1.47-1.481 2.225-0.398 0.639-1.01 1.661-1.416 2.706l13.05 5.07c-0.104 0.269-0.107 0.198 0.252-0.379 0.287-0.46 0.66-1.016 1.065-1.595 0.399-0.569 0.795-1.114 1.11-1.538 0.355-0.478 0.517-0.681 0.48-0.637l-10.807-8.899zm-5.06 7.758c-2 4.669-1.542 8.165-1.389 9.547l13.915-1.542c-0.065-0.581-0.083-0.731-0.063-1.009 0.018-0.247 0.084-0.731 0.407-1.485l-12.87-5.511zm-1.395 9.491c0.443 4.315 2.971 10.564 8.785 15.139l8.657-11.003c-2.578-2.028-3.425-4.687-3.515-5.566l-13.927 1.43zm24.238 19.944c8.556-0.789 13.079-5.742 14.666-7.548l-10.518-9.24c-0.813 0.926-2.278 2.556-5.433 2.847l1.285 13.941zm14.906-7.837c3.407-4.326 5.322-10.445 5.056-16.125l-13.984 0.654c0.114 2.445-0.825 5.227-2.071 6.809l10.999 8.662zm-16.635-6.049c0.14-0.022-0.491 0.062-1.599-0.208-1.016-0.248-2.247-0.752-3.465-1.712l-8.663 10.999c5.854 4.61 12.341 5.311 15.9 4.751l-2.173-13.83zm-14.815-25.475c-0.141 0.425-0.448 1.191-1.273 2.209l10.875 8.817c2.039-2.516 3.09-4.83 3.68-6.6l-13.282-4.426zm18.008-3.852c-0.329 1.687-0.524 3.746-0.643 5.912l13.98 0.763c0.104-1.923 0.257-3.241 0.405-3.998l-13.742-2.677zm5.283 13.505c-0.048 0.038 0.026-0.028 0.211-0.137 0.099-0.058 0.277-0.156 0.524-0.26 0.239-0.101 0.638-0.247 1.166-0.344l2.537 13.768c2.259-0.416 3.915-1.778 4.362-2.139l-8.8-10.888zm-16.731-10.195c1.554-1.96 3.541-2.148 4.208-2.152 0.728-5e-3 2.207 0.172 3.592 1.5l-9.689 10.105c2.001 1.92 4.479 2.405 6.185 2.394 1.644-0.01 4.587-0.519 6.672-3.148l-10.968-8.699zm18.481 3.204c-3.141 0.706-5.257-1.115-6-2.065-0.748-0.958-1.41-2.514-1.033-4.449l13.742 2.677c0.535-2.75-0.408-5.224-1.679-6.85-1.265-1.62-4.146-3.86-8.097-2.973l3.067 13.66zm-5.245 10.81c-6e-3 0.017-0.012 0.034-0.017 0.049l13.209 4.639c-4e-3 0.01-7e-3 0.02-0.011 0.03l-13.181-4.718zm13.243 4.538c0.041-0.126 0.111-0.353 0.178-0.636 0.03-0.127 0.227-0.914 0.197-1.912l-13.993 0.422c-0.017-0.559 0.039-0.994 0.069-1.195 0.035-0.234 0.075-0.419 0.102-0.532 0.052-0.22 0.105-0.389 0.136-0.486l13.311 4.339zm-1.77-16.521c0.08 0.478 0.098 0.926 0.076 1.334l-13.98-0.763c-0.029 0.547-5e-3 1.136 0.098 1.751l13.806-2.322zm1.709 16.7c-0.663 1.852-1.896 2.884-2.507 3.322-0.66 0.471-1.254 0.72-1.552 0.834-0.601 0.23-1.095 0.317-1.19 0.335l-2.536-13.768c-0.118 0.021-0.645 0.116-1.275 0.357-0.313 0.12-0.921 0.375-1.592 0.854-0.623 0.446-1.864 1.488-2.53 3.35l13.182 4.716zm-20.316-21.304c-1.808-1.783-4.732-2.861-7.786-1.833-2.757 0.928-4.265 3.116-4.876 4.948l13.282 4.426c-0.429 1.289-1.589 3.103-3.939 3.895-2.649 0.891-5.111-0.087-6.511-1.468l9.83-9.968zm23.844 18.514c-0.184-3.929-2.979-6.361-5.536-7.178-2.411-0.772-5.355-0.447-7.679 1.432l8.8 10.888c-1.658 1.34-3.71 1.55-5.386 1.014-1.822-0.583-4.04-2.43-4.183-5.502l13.984-0.654z" fill="#FF7EC9" mask="url(#a)"/>
<path d="m290.7 336.15c-1.441 0.76-3.739 0.909-5.371 0.389-4.431-1.41-6.433-7.839-1.732-11.045 1.95-1.556 3.974-1.718 5.328-3.551 0.562-0.692 1.739-1.899 1.862-2.556-2e-3 -0.262-0.674-1.177-0.649-1.256s0.875 0.278 0.953 0.303c0.077 0.025-0.078-0.025 0 0 0.105 0.208-0.106-0.207 0 0 0.21 0.415 0.136 1.794 0.346 2.209 0.526 1.038 1.319 1.914 0.996 3.465-0.448 1.947-1.696 3.576-3.422 4.158 0.546 0.436 1.131 0.622 1.906 0.607 1.214-0.049 2.002-0.504 2.512-1.299 0 0-0.078-0.025 0 0l0.953 0.303c0.546 0.435 0.367 1.876-0.26 4.115-0.684 1.611-1.261 3.017-3.422 4.158z" fill="#FFADDD"/>
<defs>
<linearGradient id="c" x1="215.48" x2="215.48" y1="687.73" y2="1047" gradientUnits="userSpaceOnUse">
<stop stop-color="#0B2BED" offset="0"/>
<stop stop-color="#0F0967" offset="1"/>
</linearGradient>
<linearGradient id="b" x1="320.48" x2="325.85" y1="312.43" y2="527.9" gradientUnits="userSpaceOnUse">
<stop stop-color="#110F89" offset="0"/>
<stop stop-color="#0D1998" offset=".3352"/>
<stop stop-color="#0239C6" offset="1"/>
</linearGradient>
</defs>
</svg>
