<?xml version="1.0" encoding="UTF-8"?>
<svg fill="none" viewBox="0 0 486 485" xmlns="http://www.w3.org/2000/svg">
<path d="m242.5 485c133.93 0 242.5-108.57 242.5-242.5s-108.57-242.5-242.5-242.5-242.5 108.57-242.5 242.5 108.57 242.5 242.5 242.5z" fill="url(#b)"/>
<mask id="c" x="0" y="0" width="485" height="485" style="mask-type:alpha" maskUnits="userSpaceOnUse">
<path d="m242.5 485c133.93 0 242.5-108.57 242.5-242.5s-108.57-242.5-242.5-242.5-242.5 108.57-242.5 242.5 108.57 242.5 242.5 242.5z" fill="url(#a)"/>
</mask>
<g fill="#2F72F4" mask="url(#c)">
<path d="m417.51 396.97 1.224-0.388c0.951-0.302 1.966 0.242 2.215 1.188 0.165 0.63-0.055 1.297-0.567 1.715l-4.263 3.481-8.226 6.633c-0.71 0.572-1.746 0.529-2.404-0.098-0.602-0.573-0.716-1.476-0.276-2.175l0.207-0.329c0.673-1.069 0.314-2.469-0.795-3.103l-0.728-0.416c-0.554-0.317-0.894-0.896-0.894-1.523 0-0.975 0.809-1.765 1.809-1.765h0.157c0.6 0 1.166-0.267 1.539-0.724l2.731-3.346c1-1.225 2.804-1.481 4.12-0.585l1.559 1.06c0.756 0.515 1.716 0.654 2.592 0.375z"/>
<path d="m399.72 409.97h0.135c0.961 0 1.489 1.095 0.879 1.822l-4.974 5.93c-0.384 0.456-0.899 0.788-1.478 0.952l-3.407 0.968c-0.44 0.124-0.844 0.346-1.182 0.649l-5.535 4.946c-0.66 0.591-1.557 0.861-2.442 0.735l-2.995-0.425c-0.377-0.054-0.74-0.178-1.07-0.364l-0.165-0.095c-1.951-1.105-1.996-3.848-0.084-5.017l4.522-2.763c0.318-0.195 0.67-0.329 1.04-0.395l6.253-1.129c0.642-0.117 1.228-0.436 1.667-0.909l6.088-6.55c0.617-0.664 1.745-0.236 1.745 0.662 0 0.543 0.449 0.983 1.003 0.983z"/>
<path d="m299.37 480.95-9.249 2.476c-0.867 0.232-1.584 0.835-1.956 1.645l-6.981 15.183c-0.549 1.196-1.825 1.895-3.14 1.722l-92.986-12.266c-1.091-0.144-2.017-0.866-2.413-1.882l-4.442-11.397c-0.672-1.724 0.383-3.633 2.213-4l6.823-1.369c0.197-0.04 0.398-0.06 0.599-0.06h15.269l22.424 2.814c0.151 0.019 0.302 0.027 0.453 0.023l28.794-0.706 27.605 2.843h11.324l5.377 0.704c2.387 0.312 2.611 3.647 0.286 4.27z"/>
<path d="m253.85 62.374-1.514 1.1878c-0.653 0.5121-1.559 0.5812-2.285 0.1743l-3.159-1.7714c-0.349-0.1952-0.629-0.4867-0.808-0.8376l-1.874-3.6754c-0.388-0.7632-0.236-1.6838 0.379-2.2878l1.535-1.5058c0.155-0.1515 0.334-0.2777 0.529-0.3736l12.381-6.0737c0.785-0.3848 1.733-0.2342 2.354 0.3737l2.7 2.6493c0.298 0.2928 0.496 0.6692 0.565 1.0768l0.316 1.8651c0.161 0.943-0.389 1.8638-1.308 2.1917l-4.717 1.6826c-0.794 0.2833-1.678-0.0615-2.055-0.8007-0.408-0.8001-0.076-1.7717 0.741-2.1728l1.034-0.5069c0.752-0.3691 0.817-1.3939 0.118-1.8514-0.329-0.2151-0.75-0.2408-1.103-0.0673l-3.933 1.9289c-1.147 0.5626-1.29 2.1066-0.264 2.8609 0.366 0.2692 0.607 0.6691 0.672 1.1121l0.435 2.9923c0.102 0.6945-0.18 1.3896-0.739 1.8289z"/>
<path d="m270.52 54.792 1.071-0.5239c0.652-0.3183 1.064-0.9794 1.064-1.7039 0-0.9723 0.735-1.7871 1.702-1.8867l11.656-1.1998c0.456-0.0469 0.884-0.2474 1.212-0.5687l4.218-4.1253c0.297-0.29 0.498-0.6637 0.576-1.071l1.942-10.126c0.101-0.5314-0.012-1.0815-0.317-1.5286l-2.844-4.1708c-0.623-0.9141-1.862-1.1621-2.789-0.5579l-1.851 1.2063c-0.575 0.3754-0.923 1.0162-0.923 1.7035v3.2748c0 0.4476-0.147 0.8826-0.42 1.2378l-3.6 4.6941c-0.272 0.356-0.655 0.6116-1.088 0.7272l-6.425 1.7132c-0.655 0.175-1.181 0.6658-1.399 1.3086l-0.904 2.6502c-0.146 0.4304-0.433 0.7991-0.814 1.0473l-2.667 1.7389c-0.714 0.4648-1.061 1.3244-0.872 2.1542l0.597 2.6299c0.29 1.2787 1.697 1.952 2.875 1.3761z"/>
<path d="m213 146.07v1.163c0 0.486-0.199 0.949-0.55 1.283-0.53 0.501-1.314 0.626-1.972 0.313l-1.16-0.55c-0.398-0.188-0.832-0.286-1.272-0.286h-4.312c-0.483 0-0.958-0.118-1.384-0.343l-4.425-2.332c-0.833-0.439-1.354-1.303-1.354-2.245v-0.749c0-0.986-0.8-1.786-1.786-1.786s-1.785-0.8-1.785-1.787v-1.964c0-0.645 0.209-1.271 0.597-1.787l2.377-3.157c0.387-0.515 0.597-1.142 0.597-1.786v-3.831c0-0.815 0.334-1.594 0.926-2.154l1.323-1.256c0.812-0.77 1.986-1.019 3.039-0.644l2.024 0.72c1.183 0.421 1.974 1.541 1.974 2.799v3.826c0 0.961-0.465 1.863-1.248 2.421l-3.218 2.29c-0.783 0.557-1.248 1.459-1.248 2.42v0.24c0 0.611 0.188 1.208 0.539 1.707l1.431 2.036c0.555 0.791 1.462 1.262 2.429 1.262h3.156c0.561 0 1.017 0.456 1.017 1.017s0.454 1.017 1.015 1.017h1.127c1.184 0 2.143 0.959 2.143 2.143z"/>
<path d="m112.14 205.26 2.439 2.853c0.592 0.693 0.552 1.726-0.091 2.371-0.567 0.568-1.447 0.677-2.134 0.263l-8.162-4.912c-0.753-0.454-1.27-1.215-1.414-2.082l-0.346-2.082c-0.084-0.506-0.296-0.982-0.614-1.382l-1.663-2.084c-0.4245-0.533-0.6558-1.194-0.6558-1.875v-7.147c0-0.614-0.1888-1.215-0.541-1.72l-3.8267-5.484c-0.3521-0.504-0.541-1.105-0.541-1.721v-1c0-0.963-0.5427-1.844-1.4024-2.275-0.8596-0.431-1.4025-1.311-1.4025-2.274v-3.547c0-0.337 0.0568-0.673 0.168-0.991l4.5727-13.105c0.1112-0.32 0.168-0.654 0.168-0.992v-2.463c0-0.36-0.0645-0.717-0.1905-1.054l-1.7228-4.608c-0.1259-0.338-0.1905-0.694-0.1905-1.054v-8.601c0-2.439-2.8856-3.725-4.6949-2.092l-1.4615 1.32c-0.5509 0.497-1.2663 0.772-2.008 0.772h-2.3008c-1.1912 0-2.1569-0.967-2.1569-2.16 0-0.425 0.1258-0.842 0.3614-1.196l2.8535-4.294c0.6114-0.921 0.6692-2.102 0.1507-3.078l-4.3659-8.211c-0.2628-0.494-0.3824-1.052-0.3453-1.611l0.2611-3.929c0.1599-2.405-2.4685-3.979-4.5085-2.701-0.4692 0.295-1.0116 0.45-1.5652 0.45h-4.7549c-1.2409 0-2.3224 0.846-2.623 2.053-0.1239 0.497-0.3865 0.949-0.7569 1.303l-27.955 26.708c-0.5934 0.567-0.9291 1.352-0.9291 2.173v5.261c0 0.323-0.0519 0.643-0.1536 0.95l-2.5381 7.637c-0.0753 0.227-0.1234 0.462-0.1431 0.7l-0.6092 7.334c-0.0408 0.491-0.2022 0.966-0.4697 1.381l-3.5521 5.506c-1.4245 2.208-4.7937 1.649-5.4293-0.902l-0.4284-1.719-6.3456-22.103c-0.0775-0.27-0.1168-0.549-0.1168-0.83v-13.807c0-0.797 0.3164-1.562 0.8797-2.126l9.6726-9.676c0.078-0.078 0.145-0.166 0.1992-0.263l1.1177-1.978c0.4523-0.801-0.5508-1.628-1.2478-1.028-0.5317 0.457-1.354 0.078-1.354-0.624v-1.758c0-0.432 0.171-0.846 0.4756-1.152l1.9466-1.952c0.4983-0.5 0.2978-1.35-0.3711-1.574-0.3874-0.13-0.6487-0.493-0.6487-0.902v-2.195c0-0.42 0.0878-0.835 0.2578-1.219l0.8868-2.001c0.17-0.384 0.2579-0.799 0.2579-1.219v-1.594c0-0.154-0.0188-0.307-0.0559-0.456l-0.0327-0.131c-0.2984-1.197-1.6917-1.7365-2.7163-1.052-1.2884 0.647-2.805-0.291-2.805-1.7344v-64.417c0-0.8739 0.38-1.7046 1.0408-2.2752l78.861-68.102c0.481-0.4152 1.081-0.6669 1.714-0.7188l110.52-9.0647h15.019c0.663 0 1.251 0.4251 1.461 1.0552 0.209 0.6301 0.798 1.0551 1.461 1.0551h16.776c0.625 0 1.18 0.4007 1.377 0.9945 0.217 0.6507 0.858 1.0616 1.538 0.9857l17.469-1.947c0.198-0.022 0.397-0.0243 0.596-0.0068l23.045 2.0397c0.33 0.0293 0.653 0.1131 0.956 0.248l5.271 2.3503c0.384 0.1712 0.799 0.2596 1.219 0.2596h18.456c0.795 0 1.559 0.3172 2.122 0.8815l0.655 0.6574c0.373 0.3743 0.839 0.6433 1.349 0.7797l9.359 2.5036c0.253 0.0675 0.513 0.1018 0.774 0.1018h4.094c0.28 0 0.557 0.039 0.825 0.1159l8.716 2.4979c0.457 0.1311 0.873 0.3769 1.209 0.7141l1.149 1.1525c0.874 0.8766 0.57 2.3622-0.578 2.8228l-0.557 0.2233c-0.318 0.1276-0.525 0.436-0.525 0.779 0 0.4633-0.376 0.839-0.838 0.839h-1.908c-0.498 0-0.987 0.1358-1.414 0.3928l-1.122 0.6754c-1.046 0.63-2.37 0.5616-3.347-0.1729l-0.389-0.2931c-0.519-0.3909-1.151-0.6022-1.801-0.6022h-0.56c-0.797 0-1.561 0.3172-2.123 0.8816l-0.499 0.5003c-0.464 0.4663-1.095 0.7284-1.753 0.7284h-0.742c-0.96 0-1.737 0.7788-1.737 1.7394 0 0.6584 0.371 1.2605 0.959 1.5553l2.995 1.502c1.014 0.5092 1.656 1.5489 1.656 2.6861v2.3044c0 0.8766-0.56 1.6547-1.39 1.9323-0.46 0.154-0.851 0.4681-1.1 0.8854l-1.718 2.8705-1.612 3.7724c-0.298 0.69855-0.983 1.1516-1.742 1.1516-0.904 0-1.682-0.63905-1.859-1.5267l-0.206-1.0345c-0.124-0.62134-0.441-1.1875-0.905-1.6177l-7.687-7.1176c-0.464-0.4302-0.781-0.9964-0.905-1.6177l-0.162-0.8104c-0.215-1.0791 0.176-2.1897 1.02-2.8948l6.197-5.1804c0.457-0.3814 0.488-1.0727 0.068-1.4939-0.356-0.3573-0.921-0.3974-1.324-0.0942l-0.765 0.5751c-0.784 0.5897-1.869 0.5619-2.621-0.0673l-2.089-1.7455c-0.539-0.4508-1.22-0.6978-1.921-0.6978h-0.53c-0.322 0-0.643 0.0522-0.95 0.1546l-2.071 0.6926c-1 0.3343-1.673 1.2715-1.673 2.327 0 1.3548-1.097 2.4533-2.45 2.4533h-0.387c-0.441 0-0.876-0.103-1.27-0.3008l-2.973-1.4915c-0.417-0.2092-0.877-0.3181-1.344-0.3181h-11.683c-0.153 0-0.305 0.0117-0.456 0.0351l-8.317 1.2835c-0.378 0.0583-0.741 0.1886-1.071 0.3837l-11.908 7.0586c-1.364 0.8087-1.37 2.7835-0.012 3.6014 0.325 0.1959 0.698 0.2994 1.078 0.2994h1.393c0.544 0 1.078-0.1483 1.545-0.4291l1.061-0.6391c1.047-0.63 2.371-0.5616 3.347 0.1729l2.796 2.1043c0.755 0.56743 1.199 1.4572 1.199 2.402v4.3433c0 0.32244-0.052 0.64278-0.154 0.94871l-1.772 5.3315c-0.118 0.35515-0.301 0.68508-0.54 0.9728l-6.408 7.7148c-0.161 0.1931-0.345 0.3654-0.548 0.5127l-10.627 7.6988c-1.016 0.7358-2.381 0.7615-3.423 0.0643l-1.718-1.1484c-0.493-0.3297-1.073-0.5057-1.666-0.5057h-1.352c-0.797 0-1.56 0.3171-2.123 0.8815l-8.96 8.9881c-0.442 0.4434-1.012 0.7373-1.629 0.8404l-2.309 0.3862c-0.617 0.1032-1.187 0.397-1.629 0.8406l-0.6 0.6017c-0.91 0.914-1.136 2.309-0.561 3.4645l0.18 0.3618c0.171 0.3418 0.405 0.6479 0.689 0.902l4.875 4.3468c0.64 0.57 1.006 1.3865 1.006 2.2438v4.1858c0 0.9448-0.444 1.8346-1.199 2.4021l-0.806 0.6067c-0.519 0.3909-1.151 0.6023-1.801 0.6023h-4.2c-0.663 0-1.252 0.425-1.461 1.055-0.21 0.6301-0.798 1.0552-1.461 1.0552h-0.065c-0.9 0-1.629-0.7308-1.629-1.6324v-0.3578c0-0.5273 0.209-1.0331 0.581-1.4062l0.12-0.1207c0.448-0.4504 0.7-1.061 0.7-1.6975v-2.5183c0-0.4657 0.109-0.9252 0.316-1.3419l0.525-1.0515c0.336-0.6742 0.204-1.4879-0.328-2.0211-0.328-0.3293-0.774-0.5143-1.237-0.5143h-1.928c-0.546 0-1.07-0.2176-1.456-0.6048l-0.358-0.3585c-0.873-0.8765-0.548-2.3706 0.6-2.8312 0.636-0.2551 1.062-0.8757 1.062-1.5615 0-0.9269-0.75-1.6783-1.676-1.6783h-6.029c-0.467 0-0.927 0.109-1.344 0.3181l-2.881 1.4449c-0.443 0.2224-0.956 0.2589-1.427 0.1017l-1.262-0.422c-0.921-0.3079-1.105-1.5318-0.315-2.0975 0.94-0.6736 0.464-2.1588-0.692-2.1588h-1.347c-0.361 0-0.712 0.1206-0.997 0.3428l-5.168 4.0317c-0.459 0.3585-1.016 0.5755-1.597 0.6241-2.701 0.2258-3.769 3.642-1.654 5.34l0.318 0.2559c0.532 0.4274 1.194 0.6603 1.876 0.6603h8.765c0.776 0 1.405 0.6299 1.405 1.4069 0 0.7769-0.629 1.4068-1.405 1.4068h-3.203c-0.65 0-1.283 0.2113-1.802 0.6022l-5.437 4.0904c-1.235 0.9292-1.563 2.6461-0.758 3.9668l5.789 9.5052c0.328 0.5382 0.479 1.1662 0.431 1.7949l-0.592 7.7197c-0.024 0.3035-0.093 0.6016-0.205 0.8843l-1.004 2.5184c-0.151 0.3776-0.376 0.7206-0.663 1.0084l-7.981 8.005-18.749 19.48c-0.566 0.587-1.345 0.919-2.159 0.919h-7.786c-0.496 0-0.986 0.123-1.423 0.36l-15.817 8.544c-1.061 0.572-2.359 0.453-3.299-0.301l-1.134-0.909c-0.532-0.428-1.194-0.66-1.876-0.66h-3.436c-0.723 0-1.421 0.262-1.966 0.735l-8.64 7.512c-0.656 0.569-1.032 1.398-1.032 2.268v5.325c0 0.675 0.226 1.33 0.643 1.861l9.231 11.728c0.417 0.53 0.644 1.186 0.644 1.86v14.504c0 0.851-0.361 1.662-0.991 2.231l-5.165 4.664c-0.551 0.497-1.267 0.773-2.009 0.773h-1.215c-1.466 0-2.717 1.061-2.958 2.51l-0.112 0.674c-0.112 0.671-0.447 1.284-0.951 1.739l-5.656 5.106c-0.372 0.336-0.854 0.521-1.356 0.521-1.119 0-2.027-0.908-2.027-2.028v-0.054c0-0.473 0.161-0.932 0.455-1.301l1.782-2.234c0.367-0.461 0.568-1.035 0.568-1.626v-0.242c0-1.305-1.055-2.362-2.358-2.362-0.725 0-1.409-0.334-1.856-0.905l-6.104-7.793c-0.569-0.726-1.439-1.15-2.361-1.15h-1.342c-1.163 0-2.107-0.944-2.107-2.11v-0.354c0-0.971-0.785-1.757-1.753-1.757-0.969 0-1.753 0.786-1.753 1.757v1.756c0 0.466-0.108 0.925-0.316 1.342l-3.5756 7.174c-0.2078 0.416-0.3158 0.875-0.3158 1.342v4.914c0 0.465 0.108 0.925 0.3158 1.341l0.7707 1.547c0.2078 0.417 0.3159 0.876 0.3159 1.341v5.496c0 0.544 0.1473 1.078 0.4264 1.543l0.9646 1.615c0.453 0.755 1.213 1.273 2.079 1.419l1.474 0.246c0.867 0.145 1.628 0.664 2.08 1.419l5.172 8.648c0.279 0.467 0.427 1 0.427 1.544v7.907c0 0.716 0.254 1.409 0.719 1.953z"/>
<path d="m342.54 245.75h-2.769c-0.605 0-1.17 0.296-1.494 0.785-0.535 0.803-0.271 1.869 0.583 2.358l3.196 1.831c0.316 0.181 0.678 0.276 1.046 0.276h4.614c0.52 0 1.019-0.189 1.397-0.531l6.305-5.688c0.379-0.341 0.878-0.531 1.398-0.531h0.15c1.123 0 2.034-0.87 2.034-1.943v-1.364c0-1.073-0.911-1.943-2.034-1.943h-0.422c-1.123 0-2.034 0.87-2.034 1.943v0.901c0 0.575-0.265 1.12-0.726 1.489l-2.448 1.962c-0.366 0.294-0.829 0.455-1.308 0.455h-7.488z"/>
<path d="m177.98 221.16 1.033-6.744c0.149-0.972 0.982-1.69 1.963-1.69h1.911c0.718 0 1.301-0.586 1.301-1.308 0-0.495-0.279-0.947-0.72-1.169l-0.992-0.497c-0.672-0.339-1.097-1.029-1.097-1.785v-2.875c0-0.529-0.21-1.036-0.582-1.411l-0.943-0.946c-0.372-0.375-0.582-0.881-0.582-1.411v-4.692c0-0.529 0.21-1.037 0.582-1.411l2.348-2.357c0.372-0.374 0.877-0.584 1.403-0.584h1.529c1.028 0 1.863-0.838 1.863-1.872 0-0.944-0.7-1.74-1.633-1.857l-3.521-0.442c-0.305-0.039-0.597-0.148-0.854-0.319l-0.832-0.558c-0.553-0.37-0.885-0.992-0.885-1.659v-2.578c0-1.101-0.889-1.995-1.985-1.995h-0.243c-1.096 0-1.986 0.894-1.986 1.995v0.83c0 0.453-0.153 0.893-0.435 1.247l-2.374 2.978-3.287 3.962c-0.148 0.177-0.326 0.328-0.525 0.445l-16.112 9.435c-0.289 0.17-0.53 0.409-0.703 0.698l-3.825 6.4c-0.084 0.14-0.184 0.269-0.299 0.385l-0.745 0.748c-0.686 0.688-1.767 0.777-2.556 0.212l-2.181-1.564c-0.789-0.565-1.87-0.476-2.556 0.213l-2.881 2.892c-0.521 0.523-0.71 1.291-0.494 1.999l2.025 6.608c0.257 0.837 1.026 1.407 1.898 1.407h1.464c1.097 0 1.985 0.894 1.985 1.995v6.585c0 1.103 0.89 1.995 1.986 1.995h5.509c0.153 0 0.306 0.018 0.455 0.053l11.164 2.638c0.359 0.085 0.688 0.268 0.949 0.531l1.723 1.729c0.433 0.435 1.041 0.645 1.649 0.568l3.353-0.42c0.79-0.099 1.444-0.663 1.663-1.431l0.968-3.399c0.05-0.178 0.076-0.363 0.076-0.548v-5.147c0-0.583 0.253-1.136 0.694-1.515l3.663-3.153c0.36-0.31 0.598-0.74 0.671-1.211z"/>
<path d="m123.06 240.16v2.858c0 1.65-1.333 2.987-2.978 2.987h-2.05c-1.095 0-1.983-0.89-1.983-1.988 0-0.55-0.227-1.075-0.627-1.451l-8.314-7.799c-0.115-0.108-0.238-0.206-0.368-0.294l-2.7-1.83c-0.82-0.555-1.312-1.483-1.312-2.475v-2.648c0-0.494-0.122-0.98-0.355-1.415l-3.3419-6.227c-0.3289-0.612-0.8607-1.091-1.5037-1.353l-0.6512-0.264c-1.124-0.457-1.8593-1.552-1.8593-2.768v-4.14c0-0.632-0.2004-1.248-0.5721-1.76l-10.945-15.049c-0.261-0.359-0.6265-0.628-1.0462-0.77-0.8716-0.295-1.4582-1.115-1.4582-2.037v-1.326c0-0.777 0.6277-1.406 1.4022-1.406h0.2766c0.6215 0 1.1256 0.505 1.1256 1.129 0 0.574 0.4303 1.057 0.9996 1.121l3.6926 0.417c1.0081 0.114 1.889 0.735 2.3377 1.647l1.1408 2.318c0.1602 0.326 0.3784 0.619 0.6438 0.867l7.0955 6.609c0.5846 0.545 0.9166 1.308 0.9166 2.108 0 0.993 0.51 1.915 1.35 2.441l6.362 3.978c0.872 0.545 1.401 1.504 1.401 2.535v1.033c0 0.569 0.163 1.127 0.469 1.607l7.113 11.172c0.087 0.137 0.185 0.266 0.293 0.386l5.62 6.283c0.753 0.842 0.967 2.038 0.553 3.09l-0.518 1.318c-0.138 0.349-0.209 0.721-0.209 1.096z"/>
<path d="m215.14 186.12 2.889 0.797c0.689 0.19 1.43 0.045 1.993-0.392l1.005-0.78c0.377-0.292 0.454-0.824 0.177-1.21-0.321-0.447-0.159-1.07 0.339-1.311l1.627-0.785c0.234-0.113 0.448-0.262 0.635-0.442l2.558-2.469c0.855-0.825 0.855-2.182 0-3.007-0.41-0.396-0.641-0.938-0.641-1.503v-2.642c0-0.472-0.113-0.937-0.331-1.357l-1.612-3.112c-0.166-0.32-0.432-0.579-0.76-0.737-1.12-0.54-2.427 0.264-2.427 1.493v0.076c0 0.505-0.226 0.985-0.62 1.309l-3.666 3.034c-0.546 0.451-1.234 0.699-1.946 0.699h-1.57c-0.645 0-1.273-0.203-1.791-0.579l-0.342-0.247c-1.065-0.772-2.516-0.772-3.581 0l-3.464 2.506c-0.382 0.277-0.608 0.718-0.608 1.187v0.046c0 1.286 1.57 1.936 2.502 1.037 0.275-0.266 0.645-0.414 1.03-0.414h3.969c0.815 0 1.583 0.374 2.08 1.012l0.426 0.55c0.562 0.723 0.489 1.747-0.172 2.385-0.609 0.588-0.725 1.513-0.279 2.229l0.816 1.313c0.398 0.643 1.029 1.111 1.764 1.314z"/>
<path d="m201.14 226.52 2.215-1.967c1.385-1.23 0.528-3.549-1.31-3.549h-0.119c-0.436 0-0.86 0.146-1.208 0.415l-2.968 2.303c-0.728 0.564-1.739 0.551-2.453-0.031l-0.949-0.772c-0.354-0.287-0.792-0.444-1.245-0.444h-2.729c-1.1 0-1.991 0.907-1.991 2.024v2.426c0 0.452-0.148 0.89-0.422 1.246l-2.544 3.313c-0.273 0.356-0.421 0.795-0.421 1.246v0.956c0 1.118 0.891 2.024 1.991 2.024h1.134c0.174 0 0.347 0.023 0.514 0.069l5.167 1.402 5.514 1.33c0.38 0.091 0.725 0.295 0.993 0.586l2.439 2.647c0.346 0.375 0.538 0.87 0.538 1.383v1.499c0 0.762 0.606 1.378 1.355 1.378 0.748 0 1.355-0.616 1.355-1.378v-4.1c0-0.266-0.053-0.531-0.153-0.777l-2.557-6.244-2.555-4.438c-0.483-0.838-0.311-1.908 0.409-2.547z"/>
<path d="m221.98 263h4.06c1.083 0 1.96 0.864 1.96 1.929s-0.877 1.929-1.96 1.929h-1.798c-0.395 0-0.782 0.113-1.113 0.325l-6.985 4.491c-0.332 0.213-0.719 0.326-1.114 0.326h-0.994c-1.125 0-2.036-0.897-2.036-2.004v-0.67c0-0.73 0.403-1.402 1.052-1.755l7.943-4.32c0.301-0.165 0.64-0.251 0.985-0.251z"/>
<path d="m162.49 257.79 1.189 0.807c1.457 0.989 2.325 2.607 2.325 4.333 0 1.141-0.952 2.066-2.128 2.066h-1.522c-0.784 0-1.419-0.617-1.419-1.378 0-0.76-0.636-1.376-1.419-1.376h-6.262c-0.669 0-1.337-0.085-1.983-0.253l-5.8-1.504c-0.703-0.182-1.191-0.8-1.191-1.505 0-0.861-0.719-1.558-1.605-1.558h-8.68c-1.33 0-2.639-0.318-3.812-0.927l-5.242-2.718c-0.577-0.299-0.937-0.883-0.937-1.519 0-0.95 0.794-1.721 1.774-1.721h3.226c0.438 0 0.793-0.345 0.793-0.77 0-0.584 0.644-0.956 1.172-0.676l4.695 2.48c0.43 0.226 0.899 0.374 1.384 0.436l10.128 1.284h3.201c0.632 0 1.144 0.497 1.144 1.11 0 0.549 0.414 1.016 0.974 1.097l6.563 0.961c1.234 0.181 2.409 0.636 3.432 1.331z"/>
<path d="m194.46 215.56-1.412 1.002c-0.605 0.429-1.39 0.47-2.033 0.105-1.23-0.698-1.377-2.476-0.281-3.384l3.091-2.557c0.276-0.229 0.604-0.377 0.953-0.433l2.782-0.438c0.554-0.088 1.053 0.36 1.053 0.944 0 0.527 0.411 0.955 0.917 0.955h5.301c0.221 0 0.44 0.038 0.65 0.112l4.382 1.554c0.694 0.246 1.463 0.08 2.005-0.433l3.639-3.441c0.371-0.352 0.855-0.546 1.356-0.546h0.345c0.987 0 1.787 0.835 1.787 1.864 0 0.562-0.244 1.096-0.665 1.449l-5.021 4.222c-0.539 0.452-1.262 0.585-1.917 0.353l-4.456-1.58c-0.208-0.075-0.428-0.113-0.649-0.113h-10.692c-0.405 0-0.8 0.128-1.135 0.365z"/>
<path d="m301.73 266.03h9.182c0.687 0 1.327-0.358 1.693-0.946l3.726-6c0.364-0.589 1.004-0.946 1.692-0.946h3.272c0.344 0 0.681 0.09 0.98 0.26l5.6 3.188c0.163 0.093 0.312 0.208 0.443 0.341l10.218 10.469c0.489 0.502 1.2 0.709 1.879 0.549l4.04-0.956c1.617-0.382 2.094-2.476 0.803-3.533l-0.334-0.275-5.434-4.871c-0.112-0.1-0.211-0.212-0.298-0.334l-4.214-5.937c-0.678-0.955-0.409-2.291 0.585-2.902l0.507-0.312c0.696-0.428 1.066-1.24 0.933-2.052l-0.297-1.824c-0.114-0.704-0.587-1.295-1.245-1.554l-7.489-2.951c-0.36-0.142-0.672-0.387-0.897-0.705l-4.658-6.561c-0.376-0.529-0.98-0.843-1.625-0.843h-4.777c-0.327 0-0.649-0.081-0.937-0.236l-13.824-7.418c-0.289-0.156-0.61-0.237-0.937-0.237h-7.427c-0.314 0-0.624-0.074-0.904-0.218l-6.847-3.508c-0.689-0.352-1.518-0.272-2.128 0.206l-9.582 7.507c-0.764 0.599-1.845 0.558-2.563-0.096l-4.494-4.092c-0.364-0.333-0.595-0.788-0.648-1.281l-0.495-4.556c-0.076-0.704-0.512-1.316-1.15-1.613l-5.602-2.61c-0.661-0.308-1.437-0.228-2.023 0.209l-4.643 3.46c-1.061 0.791-1.087 2.385-0.052 3.21l3.701 2.948c0.352 0.282 0.788 0.434 1.238 0.434h2.909c1.104 0 1.998 0.92 1.998 2.036 0 0.53-0.206 1.046-0.575 1.423l-1.369 1.402c-0.525 0.54-0.709 1.33-0.475 2.049l0.094 0.29c0.442 1.359 2.106 1.835 3.188 0.911l0.783-0.668c0.683-0.584 1.668-0.636 2.409-0.13l6.966 4.758c0.121 0.082 0.251 0.152 0.386 0.206l11.681 4.654c0.462 0.183 0.839 0.535 1.059 0.985l3.034 6.216c0.464 0.953 0.118 2.107-0.791 2.64l-2.288 1.34c-0.617 0.36-0.996 1.026-0.996 1.746v0.062c0 1.453 1.474 2.431 2.794 1.851l1.725-0.757c0.252-0.111 0.523-0.168 0.798-0.168h4.97c0.581 0 1.133 0.256 1.513 0.701l3.705 4.338c0.38 0.444 0.932 0.701 1.514 0.701z"/>
<path d="m318.88 294.85 5.885 20.87c0.124 0.439 0.393 0.822 0.765 1.086l7.619 5.428c1.036 0.738 1.751 1.841 2.001 3.088l0.713 3.558c0.195 0.968 0.672 1.858 1.372 2.556l11.295 11.265c1.039 1.037 1.571 2.477 1.453 3.94l-1.119 13.947c-0.064 0.794-0.316 1.56-0.735 2.237l-8.466 13.638-4.902 6.286-6.141 8.574c-0.563 0.786-1.342 1.391-2.24 1.744l-16.814 6.587c-0.923 0.362-1.935 0.441-2.904 0.226l-15.145-3.357c-1.443-0.32-2.671-1.262-3.354-2.574l-7.607-14.632c-0.581-1.116-2.036-1.425-3.021-0.641l-5.359 4.277c-1.309 1.044-3.245 0.112-3.245-1.564v-0.832c0-0.791-0.467-1.508-1.19-1.828l-16.246-7.2c-0.957-0.425-2.025-0.538-3.052-0.322l-22.229 4.667c-1.738 0.365-3.151 1.624-3.714 3.307l-0.186 0.557c-0.614 1.838-2.234 3.155-4.157 3.381l-20.297 2.381c-0.24 0.028-0.482 0.012-0.717-0.046l-9.336-2.327c-0.89-0.222-1.515-1.023-1.515-1.941v-7.694c0-0.342-0.088-0.678-0.255-0.977l-12.686-22.64c-0.242-0.432-0.419-0.897-0.524-1.38l-2.713-12.447c-0.389-1.781 0.224-3.633 1.597-4.832l7.567-6.602c0.91-0.794 2.077-1.232 3.285-1.232h7.735c1.459 0 2.843-0.636 3.793-1.742l16.492-19.212 11.714-10.843c0.658-0.608 1.64-0.705 2.403-0.236l7.099 4.355c0.456 0.281 1.008 0.366 1.528 0.236l6.857-1.709c0.472-0.118 0.886-0.405 1.162-0.806l5.785-8.39c0.932-1.354 2.471-2.162 4.114-2.162h23.417c1.519 0 2.482 1.627 1.754 2.96l-2.583 4.723-1.517 4.031c-0.339 0.902 0.013 1.918 0.838 2.415l20.283 12.26c0.817 0.494 1.869 0.341 2.511-0.364l5.375-5.897c0.336-0.368 0.523-0.848 0.523-1.346v-10.842c0-0.171 0.021-0.341 0.065-0.506l3.09-11.814c0.424-1.619 2.527-2.033 3.532-0.696l3.416 4.542c0.26 0.346 0.401 0.768 0.401 1.202v5.836c0 0.728 0.395 1.398 1.031 1.75l4.543 2.517c0.467 0.258 0.811 0.693 0.956 1.206z"/>
<path d="m310.89 410.19-3.234-1.082c-1.304-0.436-2.66 0.516-2.66 1.869v1.691c0 0.263 0.053 0.521 0.156 0.763l1.564 3.662c0.222 0.521 0.661 0.923 1.205 1.105l2.084 0.698c0.733 0.244 1.545 0.055 2.087-0.489l4.331-4.346c0.595-0.597 0.742-1.496 0.368-2.246l-0.205-0.413c-0.337-0.677-1.038-1.106-1.806-1.106h-3.241c-0.221 0-0.441-0.036-0.649-0.106z"/>
</g>
<defs>
<linearGradient id="b" x1="242.5" x2="242.5" y2="485" gradientUnits="userSpaceOnUse">
<stop stop-color="#244AAD" offset="0"/>
<stop stop-color="#244AAD" stop-opacity="0" offset="1"/>
</linearGradient>
<linearGradient id="a" x1="242.5" x2="242.5" y2="485" gradientUnits="userSpaceOnUse">
<stop stop-color="#222E9A" offset="0"/>
<stop stop-color="#141C66" offset="1"/>
</linearGradient>
</defs>
</svg>
