<svg width="1047" height="804" viewBox="0 0 1047 804" fill="none" xmlns="http://www.w3.org/2000/svg">
<path d="M735.194 81.5992C738.582 87.4598 740.265 91.5068 742.517 95.151L774.641 85.7908C774.641 85.7908 781.179 53.1781 779.759 42.5914C778.339 32.0047 774.415 24.964 769.486 20.3481C764.558 15.7321 747.042 6.49351 747.042 6.49351C742.43 3.81302 737.778 6.99144 737.778 6.99144C737.778 6.99144 734.731 7.15524 732.937 10.5986C730.772 14.7544 735.641 18.6812 738.623 22.7045C741.605 26.7279 742.513 27.7947 745.068 35.7457C747.219 42.4402 746.4 49.9863 746.087 52.2042C746.031 52.5975 745.736 52.9105 745.339 52.9019C744.082 52.8746 741.411 52.1356 741.103 46.4178C740.7 38.9091 740.233 32.1008 734.111 32.4299C727.988 32.7589 726.676 41.3363 727.043 48.1499L727.835 62.8895C729.336 73.6767 733.501 78.6713 735.194 81.5992Z" fill="#ECF1FD"/>
<path d="M736.881 4.80859C743.359 7.74492 756.891 15.5866 758.913 34.7226" stroke="#0F0967" stroke-width="3" stroke-linecap="round"/>
<path d="M748.538 5.29761C759.22 11.4172 766.305 17.2206 769.607 27.8723" stroke="#0F0967" stroke-width="3" stroke-linecap="round"/>
<path d="M821.206 146.819C847.798 174.97 858.487 174.778 888.553 182.769C905.665 187.317 918.241 208.835 914.579 224.873C905.706 263.737 872.963 273.26 847.84 266.377C806.704 255.108 788.79 234.092 776.59 215.377C758.699 187.933 741.575 112.321 737.265 92.435C737.159 91.9481 737.438 91.4999 737.906 91.3284L777.597 76.7727C778.114 76.5832 778.689 76.8527 778.883 77.3679C791.15 109.866 806.151 130.881 821.206 146.819Z" fill="url(#paint0_linear)"/>
<path d="M840.891 92.2477C845.3 78.6156 850.811 67.512 853.016 63.6642C861.393 50.9116 895.084 51.0215 910.883 52.6705C945.713 57.068 960.3 84.9186 963.239 98.2942C967.207 121.601 967.097 136.955 966.546 141.719L871.203 192.29L865.14 187.343C833.837 158.759 831.155 129.626 833.727 118.632L829.318 116.983C823.586 114.785 823.623 109.471 824.358 107.089C825.681 101.372 831.155 100.676 833.727 101.043C837.695 100.163 840.157 94.8129 840.891 92.2477Z" fill="#E9F0FD"/>
<path d="M761.466 297.603L796.169 305.369L797.925 334.578C797.925 334.578 780.612 337.17 771.436 336.17C762.261 335.171 759.888 335.121 749.585 335.281C740.427 335.423 729.478 340.624 725.612 334.598C723.345 336.156 717.886 338.601 714.181 335.918C710.476 333.235 712.532 327.949 714.023 325.642L735.459 304.752C744.491 296.389 756.373 296.243 761.466 297.603Z" fill="#F1F1FC"/>
<path d="M1042.61 468C1051.65 435.87 1041.11 407 1035.61 394L839.615 395.75C761.615 401.35 759.615 439.5 752.614 453C746.614 479.5 749.114 498 755.615 544.5C762.115 591 774.538 621.836 774.538 621.836H833.538C839.038 586.336 839.615 538.5 839.615 500C902.615 506.5 971.948 504.333 1000.11 500C1019.61 497 1037.15 487.446 1042.61 468Z" fill="url(#paint1_linear)"/>
<path d="M868.115 530.122C868.115 514.313 880.931 501.497 896.74 501.497H987.99C1003.8 501.497 1016.61 514.313 1016.61 530.122V542.497C1016.61 545.258 1014.38 547.497 1011.61 547.497H873.115C870.353 547.497 868.115 545.258 868.115 542.497V530.122Z" fill="#0A0555"/>
<rect x="928.615" y="548.25" width="28.5" height="71.75" fill="url(#paint2_linear)"/>
<path d="M832.896 269.795C847.005 218.345 861.921 198.886 867.616 195.588L977.288 143.368L982.248 147.216C1052.18 195.588 1050.22 326.229 1042.87 382.48C1041.99 391.715 1031.48 396.222 1026.34 397.322C969.462 409.195 864.861 402.269 830.692 397.322C822.755 396.882 820.771 383.58 820.771 376.983C819.89 334.768 828.487 287.935 832.896 269.795Z" fill="url(#paint3_linear)"/>
<path d="M922.113 27.3851C931.372 22.5479 937.728 30.4999 939.749 35.0806C941.512 39.4781 945.628 42.7762 947.465 43.8755C963.337 53.9897 970.061 90.0489 971.714 107.089C972.034 110.387 971.714 111.487 968.958 113.136L961.243 118.083L928.727 136.222C924.318 138.861 919.909 136.955 918.256 135.673C913.406 131.275 910.356 126.145 909.438 124.129C916.492 121.491 921.562 117.533 923.216 115.884C927.074 111.487 928.727 105.99 924.318 102.142C920.791 99.0637 916.602 101.226 914.949 102.692C910.099 106.21 906.682 107.089 905.58 107.089C901.612 107.969 899.885 100.493 899.518 96.6451L898.967 85.6514C894.999 85.6514 882.617 83.4527 876.922 82.3533C840.769 76.6366 833.935 58.3505 835.037 49.922C835.037 42.4464 841.283 42.0433 844.406 42.7762C854.988 44.0954 868.288 43.3258 873.615 42.7762C897.864 40.5774 916.051 31.5993 922.113 27.3851Z" fill="#0F43EC"/>
<path d="M913.398 113.044C912.229 113.875 908.899 115.843 904.927 117.075" stroke="#0F0967" stroke-width="3" stroke-linecap="round"/>
<path d="M841.651 125.229L848.815 124.129C850.101 123.763 852.673 123.909 852.673 127.427C852.673 131.825 850.469 137.322 844.406 140.07" stroke="#0F0967" stroke-width="3" stroke-linecap="round" stroke-linejoin="round"/>
<path d="M860.112 275.461C893.736 256.183 896.029 245.768 910.798 218.448C919.203 202.899 942.872 196.182 957.898 202.952C992.288 218.448 989.679 252.255 977.138 275.035C956.603 312.337 933.042 322.171 911.961 329.672C881.071 340.662 805.082 337.878 784.657 337.396C784.136 337.384 783.754 336.976 783.722 336.457L781.621 301.494C781.589 300.967 781.979 300.505 782.503 300.439C817.074 296.071 841.065 286.381 860.112 275.461Z" fill="url(#paint4_linear)"/>
<ellipse cx="857.195" cy="97.857" rx="2.86834" ry="2.86089" fill="#0F0967"/>
<path d="M863.169 190.924C912.125 172.028 954.47 144.458 969.689 132.893C971.452 131.576 973.363 133.077 974.098 133.992C976.853 137.425 980.711 142.237 982.364 144.986C983.246 146.745 982.732 147.918 982.364 148.284C967.815 161.916 895.472 195.74 861.119 210.948C856.71 212.597 856.159 212.597 854.506 212.047C853.183 211.607 853.955 209.299 854.506 208.199L860.303 193.744C860.823 192.447 861.865 191.428 863.169 190.924Z" fill="#3375F5"/>
<path d="M331.057 700.447C328.551 592.517 307.343 426.176 297.437 368.601L240.95 370.396L244.503 482.216C241.386 558.475 228.379 664.859 221.881 696.414C220.3 704.773 225.297 707.076 227.993 707.183C252.585 718.518 313.033 714.29 322.795 712.826C330.605 711.654 331.557 704.085 331.057 700.447Z" fill="url(#paint5_linear)"/>
<path d="M33.9195 676.461C42.4006 704.371 58.489 749.244 80.4268 793.53" stroke="white" stroke-width="3"/>
<path d="M80.2681 666.716C78.8984 659.348 70.5086 661.24 66.2573 663.195C66.0973 663.269 65.9336 663.33 65.7639 663.377C47.9077 668.339 33.0385 675.157 26.1073 678.845C24.8847 679.495 24.3163 680.909 24.7126 682.236C37.6081 725.407 60.2383 776.538 70.0737 796.469C70.7604 797.861 72.3915 798.46 73.8336 797.887L84.9932 793.454C101.286 786.981 101.128 772.699 95.6736 752.931C90.4021 733.826 92.5698 721.407 94.7738 716.747C94.919 716.441 95.1365 716.176 95.3711 715.931C99.3496 711.775 94.0821 707.502 90.8537 705.846L80.543 699.864C71.6826 693.155 74.6228 684.125 77.3628 680.167C77.4951 679.975 77.6559 679.811 77.8195 679.646C79.3239 678.128 81.5868 673.81 80.2681 666.716Z" stroke="white" stroke-width="3"/>
<path d="M274.205 565.341L290.045 404.886L289.105 375.272L163.383 379.266C143.099 424.327 162.284 512.996 174.196 544.902L60.3219 630.568C55.9942 634.16 56.7776 641.991 57.7103 645.457C62.8134 681.816 104.549 721.7 124.78 737.097C130.375 742.348 136.15 738.997 138.338 736.666L260.712 588.422C268.796 578.788 271.564 576.68 274.205 565.341Z" fill="url(#paint6_linear)"/>
<path d="M435.537 165.782C435.373 176.001 438.002 184.272 439.337 187.13L439.013 190.957L463.031 197.02L467.197 193.342C474.349 188.34 482.171 177.905 485.187 173.312C488.036 167.806 499.297 161.869 503.507 157.67C508.93 153.223 507.795 149.797 506.549 148.641C503.699 145.876 501.07 148.177 498.777 149.385L487.468 157.067C486.834 157.497 486.069 156.743 486.489 156.103L501.347 133.503C503.649 129.492 502.626 126.098 500.851 124.875C498.069 122.957 494.819 125.065 493.541 126.359L477.082 150.326C476.421 151.287 474.929 150.532 475.313 149.43L484.774 122.288C486.684 116.282 484.34 113.607 482.93 113.02C479.417 111.461 476.389 114.394 475.314 116.055L464.125 144.685C463.699 145.775 462.068 145.371 462.2 144.208L465.117 118.522C465.461 112.804 461.71 111.166 459.791 111.062C454.861 111.346 453.749 115.516 453.809 117.565L450.499 145.3C449.645 155.39 448.207 157.897 446.413 154.241L439.979 138.122C437.631 132.737 432.333 134.613 429.977 136.224C426.991 140.037 430.103 147.858 432.032 151.292C434.587 157.536 435.433 163.553 435.537 165.782Z" fill="#ECF1FD"/>
<path d="M111.337 446.081C108.304 431.094 99.5988 419.285 96.2831 418.603L65.2891 418.603C63.6156 429.914 59.7872 449.083 61.7231 461.339C63.3759 471.806 70.0606 476.305 70.0606 476.305C70.0606 476.305 73.6207 484.084 76.4221 487.052C79.2234 490.02 84.0409 489.172 84.0409 489.172C84.0409 489.172 84.6369 489.859 88.0378 494.948C90.3002 498.333 92.3913 500.324 95.0501 498.869C100.766 495.74 98.1945 489.752 93.8131 481.412C90.9931 476.044 91.2563 471.198 91.2251 467.813C91.1399 458.535 92.8674 451.443 95.9761 453.535C99.6325 455.996 97.9703 459.711 102.023 468.063C103.818 472.868 108.539 474.265 111.322 472.915C116.164 471.452 115.139 467.199 114.58 464.414C114.58 464.414 114.37 461.068 111.337 446.081Z" fill="#EAF1FF"/>
<path d="M87.1162 496.429C85.7109 494.383 76.5176 479.131 77.2592 468.555" stroke="#0F0967" stroke-width="3" stroke-linecap="round"/>
<path d="M71.2347 482.12C69.0335 477.584 67.9338 472.513 67.2613 464.043" stroke="#0F0967" stroke-width="3" stroke-linecap="round"/>
<path d="M304.185 194.057L301.773 199.279C307.153 206.31 308.798 217.491 308.947 222.202L314.27 389.777C314.434 394.917 308.545 398.962 305.581 400.343C274.994 411.604 214.018 399.712 189.396 395.778C182.183 396.007 180.189 390.068 180.094 387.07L191.736 225.926C192.049 203.279 204.925 194.638 211.325 193.149L235.756 191.086L245.53 174.055C248.458 168.817 252.734 170.825 254.505 172.484C275.473 183.136 294.481 186.22 301.364 186.43C305.519 187.327 304.976 191.888 304.185 194.057Z" fill="#2F72F4"/>
<path d="M266.785 241.769C261.917 215.687 244.62 196.902 236.015 190.281C235.632 189.986 235.149 189.857 234.668 189.897C135.5 198.304 81.1534 274.773 68.2568 308.615C49.5959 357.583 56.5083 391.727 57.5177 420.878C57.5318 421.285 57.6676 421.681 57.923 421.998C67.3791 433.736 91.0229 427.987 102.197 426.68C103.238 426.559 104.038 425.686 104.044 424.639C104.238 391.416 109.615 362.471 118.05 348.554C132.412 324.861 145.77 319.329 161.862 315.578C166.991 314.382 165.911 321.043 164.731 324.524C157.356 352.643 139.795 419.225 126.18 451.501C124.279 456.726 127.327 460.502 129.089 461.737C140.839 473.757 167.114 479.463 178.784 480.814C199.596 485.317 221.732 477.298 230.199 472.726C260.746 458.329 269.748 389.277 270.431 356.551C271.66 297.643 268.512 255.485 266.785 241.769Z" fill="url(#paint7_linear)"/>
<path d="M266.785 241.769C261.917 215.687 244.62 196.902 236.015 190.281C235.632 189.986 235.149 189.857 234.668 189.897C135.5 198.304 81.1534 274.773 68.2568 308.615C49.5959 357.583 56.5083 391.727 57.5177 420.878C57.5318 421.285 57.6676 421.681 57.923 421.998C67.3791 433.736 91.0229 427.987 102.197 426.68C103.238 426.559 104.038 425.686 104.044 424.639C104.238 391.416 109.615 362.471 118.05 348.554C132.412 324.861 145.77 319.329 161.862 315.578C166.991 314.382 165.911 321.043 164.731 324.524C157.356 352.643 139.795 419.225 126.18 451.501C124.279 456.726 127.327 460.502 129.089 461.737C140.839 473.757 167.114 479.463 178.784 480.814C199.596 485.317 221.732 477.298 230.199 472.726C260.746 458.329 269.748 389.277 270.431 356.551C271.66 297.643 268.512 255.485 266.785 241.769Z" fill="url(#paint8_radial)" fill-opacity="0.3"/>
<path d="M294.382 223.699C296.653 206.853 300.156 199.934 302.061 198.083C302.386 197.768 302.859 197.701 303.302 197.791C317.422 200.662 324.668 212.166 329.159 218.728C348.155 246.481 364.11 246.404 374.007 245.66C402.986 243.742 426.702 205.719 435.84 185.108C436.319 184.028 437.612 183.574 438.665 184.11C449.477 189.621 461.192 193.069 467.408 194.501C468.514 194.756 469.216 195.866 468.947 196.969C457.072 245.775 439.308 280.536 426.949 293.219C396.071 331.322 355.59 314.56 324.471 315.548C325.27 373.268 330.171 427.076 332.521 446.765C333.817 454.974 328.998 458.048 326.426 458.56L314.875 461.505C288.064 462.356 286.96 416.777 288.365 393.101C289.634 335.316 291.527 256.014 294.382 223.699Z" fill="url(#paint9_linear)"/>
<path d="M294.382 223.699C296.653 206.853 300.156 199.934 302.061 198.083C302.386 197.768 302.859 197.701 303.302 197.791C317.422 200.662 324.668 212.166 329.159 218.728C348.155 246.481 364.11 246.404 374.007 245.66C402.986 243.742 426.702 205.719 435.84 185.108C436.319 184.028 437.612 183.574 438.665 184.11C449.477 189.621 461.192 193.069 467.408 194.501C468.514 194.756 469.216 195.866 468.947 196.969C457.072 245.775 439.308 280.536 426.949 293.219C396.071 331.322 355.59 314.56 324.471 315.548C325.27 373.268 330.171 427.076 332.521 446.765C333.817 454.974 328.998 458.048 326.426 458.56L314.875 461.505C288.064 462.356 286.96 416.777 288.365 393.101C289.634 335.316 291.527 256.014 294.382 223.699Z" fill="url(#paint10_radial)" fill-opacity="0.3"/>
<path d="M251.826 169.711C242.893 182.9 219.136 195.767 197.409 188.949C182.059 184.132 170.008 174.902 150.607 152.994" stroke="#003BF9" stroke-width="3"/>
<path d="M345.973 130.274C347.012 104.09 337.654 89.2879 332.845 85.16C322.349 73.8187 293.124 57.0014 260.189 80.4631C227.254 103.925 232.47 140.495 239.195 155.848C255.913 181.468 283.459 187.131 295.141 186.76C328.758 184.758 340.34 161.586 341.929 150.25C349.406 150.012 352.808 146.402 353.39 142.881C354.747 134.665 348.736 131.354 345.973 130.274Z" fill="#ECF1FD"/>
<path d="M266.829 128.275C270.216 129.919 274.016 134.05 271.997 141.368" stroke="#0F0967" stroke-width="3" stroke-linecap="round" stroke-linejoin="round"/>
<path d="M345.7 74.5633C352.547 84.5917 345.138 93.5981 340.578 96.8478C332.92 83.1195 316.702 86.4055 308.836 88.5417C287.83 94.2469 283.371 114.586 282.26 125.98C282.183 126.77 281.267 127.173 280.636 126.691L268.958 117.752C260.366 111.505 255.284 115.469 253.816 118.233C250.296 124.865 252.645 130.301 254.26 132.19L262.672 140.073C267.288 145.748 263.41 163.336 255.479 170.574C215.368 199.791 176.426 177.742 161.969 163.065C151.365 152.225 143.885 151.462 134.811 152.285C119 153.719 111.261 152.049 107.763 144.994C103.784 136.97 111.176 129.75 115.288 124.962C129.686 108.204 166.357 105.487 183.489 106.495C203.086 106.804 213.194 94.4926 218.819 80.9224C230.948 51.6623 258.176 42.4144 276.811 41.8225C326.31 42.0153 337.216 59.9512 336.493 69.8113C336.44 70.5435 337.101 71.1852 337.834 71.1418C341.698 70.913 344.626 73.2246 345.7 74.5633Z" fill="#0F43EC"/>
<path d="M331.538 86.2499C309.038 84.75 301.154 93.8156 295.538 106C291.357 115.071 289.038 125.34 281.022 125.34" stroke="#003BF9" stroke-width="3"/>
<ellipse cx="330.027" cy="121.098" rx="3.27667" ry="3.28075" transform="rotate(-1.81941 330.027 121.098)" fill="#0F0967"/>
<path d="M329.907 151.738C326.86 151.47 319.63 150.97 314.904 145.649C313.928 150.786 314.673 159.88 321.184 164.05" stroke="#0F0967" stroke-width="3" stroke-linecap="round" stroke-linejoin="round"/>
<path d="M181.814 314.444C160.324 315.127 117.538 320 106.538 384C103.868 394.423 102.038 411.5 102.038 426C92.5381 429.5 72.0381 433.5 58.5381 422.5" stroke="white" stroke-width="3" stroke-linecap="round" stroke-linejoin="round"/>
<path d="M202.662 360.929C203.951 358.487 206.975 357.551 209.418 358.839L231.309 370.387C233.751 371.675 234.687 374.7 233.398 377.142L215.371 411.318C214.082 413.76 211.058 414.696 208.615 413.408L186.724 401.86C184.282 400.572 183.346 397.547 184.635 395.105L202.662 360.929Z" fill="#C3CFE1"/>
<circle cx="208.521" cy="371.506" r="4.62182" transform="rotate(27.8115 208.521 371.506)" fill="#7F9AC1"/>
<circle cx="202.597" cy="382.737" r="4.62182" transform="rotate(27.8115 202.597 382.737)" fill="#7F9AC1"/>
<circle cx="196.673" cy="393.968" r="4.62182" transform="rotate(27.8115 196.673 393.968)" fill="#7F9AC1"/>
<circle cx="221.125" cy="378.154" r="4.62182" transform="rotate(27.8115 221.125 378.154)" fill="#7F9AC1"/>
<circle cx="215.201" cy="389.385" r="4.62182" transform="rotate(27.8115 215.201 389.385)" fill="#7F9AC1"/>
<circle cx="209.276" cy="400.616" r="4.62182" transform="rotate(27.8115 209.276 400.616)" fill="#7F9AC1"/>
<circle cx="208.314" cy="370.835" r="4.125" transform="rotate(27.8115 208.314 370.835)" fill="white"/>
<circle cx="202.389" cy="382.066" r="4.125" transform="rotate(27.8115 202.389 382.066)" fill="white"/>
<circle cx="196.465" cy="393.297" r="4.125" transform="rotate(27.8115 196.465 393.297)" fill="white"/>
<circle cx="220.917" cy="377.483" r="4.125" transform="rotate(27.8115 220.917 377.483)" fill="white"/>
<circle cx="214.993" cy="388.714" r="4.125" transform="rotate(27.8115 214.993 388.714)" fill="white"/>
<circle cx="209.069" cy="399.945" r="4.125" transform="rotate(27.8115 209.069 399.945)" fill="white"/>
<path d="M351.586 530.122C351.586 514.313 364.402 501.497 380.211 501.497H471.461C487.27 501.497 500.086 514.313 500.086 530.122V542.497C500.086 545.258 497.847 547.497 495.086 547.497H356.586C353.825 547.497 351.586 545.258 351.586 542.497V530.122Z" fill="#0A0555"/>
<rect x="412.086" y="545.497" width="28.5" height="71.75" fill="url(#paint11_linear)"/>
<path fill-rule="evenodd" clip-rule="evenodd" d="M482.3 337.629C471.254 337.629 462.3 346.583 462.3 357.629V360.836C462.3 361.941 463.195 362.836 464.3 362.836H642.275C642.827 362.836 643.275 363.284 643.275 363.836V726.074C643.275 726.627 643.723 727.074 644.275 727.074H668.775C669.327 727.074 669.775 726.627 669.775 726.074V363.836C669.775 363.284 670.223 362.836 670.775 362.836H850.688C851.793 362.836 852.688 361.941 852.688 360.836V357.629C852.688 346.583 843.734 337.629 832.688 337.629H482.3Z" fill="url(#paint12_linear)"/>
<defs>
<linearGradient id="paint0_linear" x1="767.443" y1="88.0164" x2="845.669" y2="268.919" gradientUnits="userSpaceOnUse">
<stop stop-color="#6699FB"/>
<stop offset="1" stop-color="#2449A8"/>
</linearGradient>
<linearGradient id="paint1_linear" x1="904.067" y1="394" x2="904.067" y2="620.5" gradientUnits="userSpaceOnUse">
<stop stop-color="#0315B5"/>
<stop offset="1" stop-color="#0C1672"/>
</linearGradient>
<linearGradient id="paint2_linear" x1="942.865" y1="498" x2="942.865" y2="620" gradientUnits="userSpaceOnUse">
<stop stop-color="#344FAD"/>
<stop offset="1" stop-color="#344FAD" stop-opacity="0"/>
</linearGradient>
<linearGradient id="paint3_linear" x1="933.525" y1="143.368" x2="933.525" y2="403.877" gradientUnits="userSpaceOnUse">
<stop stop-color="#1209A2"/>
<stop offset="1" stop-color="#0A0555"/>
</linearGradient>
<linearGradient id="paint4_linear" x1="743.642" y1="312.016" x2="930.928" y2="214.864" gradientUnits="userSpaceOnUse">
<stop offset="0.0208333" stop-color="#2F65E7"/>
<stop offset="1" stop-color="#6B9EFF"/>
</linearGradient>
<linearGradient id="paint5_linear" x1="265.853" y1="369.605" x2="276.833" y2="715.254" gradientUnits="userSpaceOnUse">
<stop offset="0.442708" stop-color="#09054F"/>
<stop offset="1" stop-color="#0D1974"/>
</linearGradient>
<linearGradient id="paint6_linear" x1="168.959" y1="379.089" x2="217.16" y2="819.717" gradientUnits="userSpaceOnUse">
<stop stop-color="#030037"/>
<stop offset="1" stop-color="#0823C4"/>
</linearGradient>
<linearGradient id="paint7_linear" x1="158.185" y1="191.747" x2="167.436" y2="482.951" gradientUnits="userSpaceOnUse">
<stop stop-color="#1F13CB"/>
<stop offset="1" stop-color="#140B90"/>
</linearGradient>
<radialGradient id="paint8_radial" cx="0" cy="0" r="1" gradientUnits="userSpaceOnUse" gradientTransform="translate(232.539 171) rotate(156.383) scale(134.79 100.765)">
<stop stop-color="#5177FF"/>
<stop offset="1" stop-color="#6877FF" stop-opacity="0"/>
</radialGradient>
<linearGradient id="paint9_linear" x1="373.086" y1="185.108" x2="381.799" y2="459.395" gradientUnits="userSpaceOnUse">
<stop stop-color="#1F13C7"/>
<stop offset="1" stop-color="#140B91"/>
</linearGradient>
<radialGradient id="paint10_radial" cx="0" cy="0" r="1" gradientUnits="userSpaceOnUse" gradientTransform="translate(315.039 200) rotate(93.8607) scale(81.6854 56.0121)">
<stop stop-color="#4A4EEC"/>
<stop offset="1" stop-color="#3439DE" stop-opacity="0"/>
</radialGradient>
<linearGradient id="paint11_linear" x1="426.336" y1="495.247" x2="426.336" y2="617.247" gradientUnits="userSpaceOnUse">
<stop stop-color="#344FAD"/>
<stop offset="1" stop-color="#344FAD" stop-opacity="0"/>
</linearGradient>
<linearGradient id="paint12_linear" x1="657.494" y1="409.076" x2="657.494" y2="727.075" gradientUnits="userSpaceOnUse">
<stop stop-color="#4D82EA"/>
<stop offset="1" stop-color="#191768"/>
</linearGradient>
</defs>
</svg>
