<svg width="312" height="231" viewBox="0 0 312 231" fill="none" xmlns="http://www.w3.org/2000/svg">
<rect x="0.592773" width="311" height="207" rx="20" fill="url(#paint0_linear)"/>
<path d="M10.9209 27.75C10.9209 16.9805 19.6513 8.25 30.4209 8.25H281.764C292.534 8.25 301.264 16.9804 301.264 27.75V178.75C301.264 189.52 292.534 198.25 281.764 198.25H30.4209C19.6513 198.25 10.9209 189.52 10.9209 178.75V27.75Z" fill="#0A1C87" stroke="#01CCD3"/>
<path d="M164.085 223.039L177.632 206.07H138.035L151.582 223.039C154.784 227.05 160.883 227.05 164.085 223.039Z" fill="#029EBF"/>
<path d="M105.705 88.8609L155.295 48.1329C156.771 46.921 158.897 46.921 160.373 48.1329L209.963 88.8609V161.161C209.963 163.37 208.172 165.161 205.963 165.161H105.705V88.8609Z" fill="#2442E1"/>
<path fill-rule="evenodd" clip-rule="evenodd" d="M155.295 36.2507L93.9427 86.6391C93.0176 87.3989 92.4814 88.5331 92.4814 89.7302V95.116C92.4814 98.494 96.4097 100.351 99.0202 98.2071L155.295 51.9887C156.771 50.7768 158.897 50.7768 160.373 51.9887L216.648 98.2071C219.258 100.351 223.186 98.494 223.186 95.116V89.7302C223.186 88.5331 222.65 87.3989 221.725 86.6391L160.373 36.2507C158.897 35.0388 156.771 35.0388 155.295 36.2507Z" fill="#2442E1"/>
<path d="M107.153 93.6773L155.295 54.1387C156.77 52.9269 158.896 52.9269 160.372 54.1387L208.514 93.6773" stroke="white" stroke-width="2" stroke-linecap="round"/>
<rect x="119.562" y="114.295" width="33.7153" height="34.5044" stroke="white" stroke-width="2" stroke-linecap="round" stroke-linejoin="round"/>
<path d="M198.516 164.091V113.225H172.06V164.091" stroke="white" stroke-width="2" stroke-linecap="round" stroke-linejoin="round"/>
<circle cx="192.429" cy="139.318" r="1.83962" fill="white"/>
<defs>
<linearGradient id="paint0_linear" x1="156.093" y1="0" x2="156.093" y2="207" gradientUnits="userSpaceOnUse">
<stop stop-color="#00EEEE"/>
<stop offset="1" stop-color="#029CBD"/>
</linearGradient>
</defs>
</svg>
