<?xml version="1.0" encoding="UTF-8"?>
<svg fill="none" viewBox="0 0 686 376" xmlns="http://www.w3.org/2000/svg">
<path d="m1 20c0-10.493 8.5066-19 19-19h646c10.493 0 19 8.5066 19 19v336c0 10.493-8.507 19-19 19h-646c-10.493 0-19-8.507-19-19v-336z" stroke="#1C358B" stroke-width="2"/>
<path d="m107.77 112v-16.752h-2.976l-4.896 3.936 1.68 2.184 2.832-2.304v12.936h3.36zm15.192-14.616v-3.072h-3.216v3.072h3.216zm0 14.616v-12.36h-3.216v12.36h3.216zm14.743 0v-7.8c0-2.904-1.368-4.848-4.2-4.848-1.704 0-3.072 0.576-4.056 1.968h-0.048v-1.68h-3.048v12.36h3.216v-6c0-2.184 0.792-4.152 2.832-4.152 1.704 0 2.088 1.368 2.088 3.216v6.936h3.216zm10.072-0.192c1.272 0.312 2.832 0.48 3.912 0.48 4.032 0 6.528-2.28 6.528-5.712 0-3.768-2.4-5.424-5.4-5.424-0.6 0-0.96 0.072-1.536 0.168l0.072-3.576h6.456v-2.496h-9.624l-0.168 9c0.984-0.312 1.968-0.456 3-0.456 2.376 0 3.84 1.056 3.84 2.904 0 1.896-1.488 2.952-3.624 2.952-0.96 0-1.992-0.24-3.384-0.84l-0.072 3zm35.4 0.192-6.576-16.752h-3.792l-6.528 16.752h3.48l1.464-3.84h6.792l1.44 3.84h3.72zm-6.096-6.48h-4.896l2.424-6.912h0.048l2.424 6.912zm19.312 6.48v-18h-3.216v7.08h-0.048c-0.96-1.176-2.088-1.728-3.696-1.728-3.552 0-5.184 2.688-5.184 6.432 0 3.432 1.416 6.504 5.184 6.504 1.512 0 2.832-0.48 3.792-1.68h0.048v1.392h3.12zm-6.072-2.208c-2.088 0-2.712-2.256-2.712-4.008 0-1.92 0.72-3.936 2.664-3.936 2.064 0 2.88 2.208 2.88 3.936 0 1.8-0.72 4.008-2.832 4.008zm20.744 2.208v-12.36h-3.216v5.976c0 2.376-0.888 4.176-2.832 4.176-1.176 0-2.088-0.624-2.088-3.096v-7.056h-3.216v7.8c0 3 1.44 4.848 4.2 4.848 1.608 0 3-0.696 4.056-1.968h0.048v1.68h3.048zm6.608 0v-18h-3.216v18h3.216zm10.639-2.544c-0.336 0.216-0.888 0.336-1.44 0.336-1.128 0-1.536-0.768-1.536-2.064v-5.736h2.856v-2.352h-2.856v-3.504l-3.216 1.032v2.472h-2.376v2.352h2.376v6.288c0 2.376 1.32 4.008 3.936 4.008 0.936 0 1.68-0.096 2.352-0.288l-0.096-2.544zm1.408 2.304c1.176 0.312 2.448 0.528 3.624 0.528 2.88 0 5.208-1.32 5.208-4.032 0-2.064-1.152-3.096-3.456-3.744-1.464-0.408-2.136-0.744-2.136-1.44 0-0.912 0.792-1.368 1.92-1.368 1.008 0 1.752 0.144 2.856 0.528l0.216-2.424c-1.536-0.36-2.496-0.456-3.48-0.456-2.784 0-4.872 1.344-4.872 3.84 0 2.064 1.128 2.952 3.288 3.528 1.296 0.36 2.304 0.672 2.304 1.704 0 1.176-1.248 1.512-2.112 1.512-1.104 0-2.16-0.312-3.168-0.816l-0.192 2.64z" fill="#fff"/>
<path d="m152 206.51c0-6.942-5.325-14.013-12.299-16.455-3.931-1.414-8.749-2.057-14.201-2.057-5.579 0-10.27 0.643-14.201 2.057-6.974 2.442-12.299 9.513-12.299 16.455v25.196c0 2.699 2.156 4.756 4.818 4.756 2.663 0 4.818-2.185 4.818-4.885v-26.353c0-0.771 0.634-1.286 1.268-1.286 0.761 0 1.268 0.643 1.268 1.286v73.66c0 2.314 1.649 4.114 3.677 4.114h4.945c0.888 0 1.775-0.386 2.409-1.028 0.761-0.772 1.268-1.929 1.268-3.086l-0.127-36.766c0-1.157 0.888-2.056 2.029-2.056s2.029 0.899 2.029 2.056l0.127 36.766c0 2.314 1.648 4.114 3.677 4.114h4.818c2.029 0 3.677-1.8 3.677-4.114v-73.66c0-0.771 0.634-1.286 1.268-1.286 0.761 0 1.268 0.643 1.268 1.286v26.225 0.128 0.129c0 2.699 2.155 4.885 4.818 4.885 0.761 0 1.522-0.257 2.156-0.515 1.267-0.514 2.282-1.671 2.535-3.342v-0.257-0.257-0.643-25.067h0.254z" fill="#00D7D7"/>
<path d="m126 185c6.075 0 11-4.925 11-11s-4.925-11-11-11-11 4.925-11 11 4.925 11 11 11z" fill="#00D7D7"/>
<path d="m357 206.51c0-6.942-5.124-14.013-11.835-16.455-3.782-1.414-8.419-2.057-13.665-2.057-5.368 0-9.883 0.643-13.665 2.057-6.711 2.442-11.835 9.513-11.835 16.455v25.196c0 2.699 2.074 4.756 4.636 4.756 2.563 0 4.637-2.185 4.637-4.885v-26.353c0-0.771 0.61-1.286 1.22-1.286 0.732 0 1.22 0.643 1.22 1.286v73.66c0 2.314 1.586 4.114 3.538 4.114h4.759c0.854 0 1.708-0.386 2.318-1.028 0.732-0.772 1.22-1.929 1.22-3.086l-0.122-36.766c0-1.157 0.854-2.056 1.952-2.056s1.952 0.899 1.952 2.056l0.122 36.766c0 2.314 1.586 4.114 3.538 4.114h4.637c1.952 0 3.538-1.8 3.538-4.114v-73.66c0-0.771 0.61-1.286 1.22-1.286 0.732 0 1.22 0.643 1.22 1.286v26.225 0.128 0.129c0 2.699 2.074 4.885 4.637 4.885 0.732 0 1.464-0.257 2.074-0.515 1.22-0.514 2.196-1.671 2.44-3.342v-0.257-0.257-0.643-25.067h0.244z" fill="#2A4AAC"/>
<path d="m331.5 185c5.799 0 10.5-4.925 10.5-11s-4.701-11-10.5-11-10.5 4.925-10.5 11 4.701 11 10.5 11z" fill="#2A4AAC"/>
<path d="m562 206.51c0-6.942-5.325-14.013-12.299-16.455-3.931-1.414-8.749-2.057-14.201-2.057-5.579 0-10.27 0.643-14.201 2.057-6.974 2.442-12.299 9.513-12.299 16.455v25.196c0 2.699 2.156 4.756 4.818 4.756 2.663 0 4.818-2.185 4.818-4.885v-26.353c0-0.771 0.634-1.286 1.268-1.286 0.761 0 1.268 0.643 1.268 1.286v73.66c0 2.314 1.649 4.114 3.677 4.114h4.945c0.888 0 1.775-0.386 2.409-1.028 0.761-0.772 1.268-1.929 1.268-3.086l-0.127-36.766c0-1.157 0.888-2.056 2.029-2.056s2.029 0.899 2.029 2.056l0.127 36.766c0 2.314 1.648 4.114 3.677 4.114h4.818c2.029 0 3.677-1.8 3.677-4.114v-73.66c0-0.771 0.634-1.286 1.268-1.286 0.761 0 1.268 0.643 1.268 1.286v26.225 0.128 0.129c0 2.699 2.155 4.885 4.818 4.885 0.761 0 1.522-0.257 2.156-0.515 1.267-0.514 2.282-1.671 2.535-3.342v-0.257-0.257-0.643-25.067h0.254z" fill="#2A4AAC"/>
<path d="m536 185c6.075 0 11-4.925 11-11s-4.925-11-11-11-11 4.925-11 11 4.925 11 11 11z" fill="#2A4AAC"/>
<path d="m259.57 223.54-8.792-25.927c-1.065-2.967-3.063-5.546-5.727-7.61-3.596-2.58-8.125-3.999-12.787-3.999h-7.326c-4.662 0-9.191 1.419-12.787 3.999-2.797 2.064-4.795 4.643-5.861 7.61l-8.924 25.927c-0.666 1.677-0.4 3.612 0.533 5.159 0.133 0.129 0.133 0.258 0.266 0.387 2.131 2.451 6.394 1.548 7.459-1.547l8.259-23.476c0.133-0.516 0.799-0.903 1.332-0.645 0.532 0.129 0.932 0.774 0.666 1.289l-12.654 39.342c-0.267 1.032 0.532 1.935 1.598 1.935h10.789c0.933 0 1.599 0.774 1.599 1.548v31.731c0 2.064 2.131 3.741 4.661 3.741 2.531 0 4.662-1.677 4.662-3.741v-31.344c0-1.161 0.933-2.064 2.132-2.064 1.198 0 2.131 0.903 2.131 2.064v31.344c0 2.064 2.131 3.741 4.662 3.741 2.53 0 4.662-1.677 4.662-3.741v-31.602c0-0.903 0.799-1.548 1.598-1.548h10.789c1.066 0 1.865-1.032 1.598-1.935l-12.787-39.342c-0.133-0.516 0.134-1.16 0.666-1.289 0.533-0.258 1.199 0.129 1.466 0.644l8.125 23.606c1.065 3.095 5.328 4.127 7.459 1.547 0.133-0.129 0.133-0.258 0.266-0.387 0.799-1.934 0.933-3.74 0.267-5.417z" fill="#2A4AAC"/>
<path d="m228 162c-6.024 0-11 4.976-11 11s4.976 11 11 11 11-4.976 11-11-4.976-11-11-11z" fill="#2A4AAC"/>
<path d="m462.58 223.54-8.651-25.927c-1.049-2.967-3.015-5.546-5.637-7.61-3.539-2.58-7.996-3.999-12.584-3.999h-7.21c-4.587 0-9.044 1.419-12.584 3.999-2.752 2.064-4.719 4.643-5.767 7.61l-8.783 25.927c-0.655 1.677-0.393 3.612 0.524 5.159 0.132 0.129 0.132 0.258 0.263 0.387 2.097 2.451 6.292 1.548 7.34-1.547l8.128-23.476c0.131-0.516 0.786-0.903 1.31-0.645 0.525 0.129 0.918 0.774 0.656 1.289l-12.453 39.342c-0.262 1.032 0.524 1.935 1.573 1.935h10.618c0.917 0 1.573 0.774 1.573 1.548v31.731c0 2.064 2.097 3.741 4.588 3.741 2.49 0 4.587-1.677 4.587-3.741v-31.344c0-1.161 0.918-2.064 2.098-2.064s2.097 0.903 2.097 2.064v31.344c0 2.064 2.098 3.741 4.588 3.741 2.491 0 4.588-1.677 4.588-3.741v-31.602c0-0.903 0.787-1.548 1.573-1.548h10.618c1.049 0 1.835-1.032 1.573-1.935l-12.584-39.342c-0.131-0.516 0.131-1.16 0.655-1.289 0.525-0.258 1.18 0.129 1.442 0.644l7.996 23.606c1.049 3.095 5.244 4.127 7.341 1.547 0.131-0.129 0.131-0.258 0.262-0.387 0.787-1.934 0.918-3.74 0.262-5.417z" fill="#2A4AAC"/>
<path d="m432 162c-6.024 0-11 4.976-11 11s4.976 11 11 11 11-4.976 11-11-4.976-11-11-11z" fill="#2A4AAC"/>
</svg>
