<svg width="686" height="750" viewBox="0 0 686 750" fill="none" xmlns="http://www.w3.org/2000/svg">
<path d="M20 1H666C676.493 1 685 9.50659 685 20V730C685 740.493 676.493 749 666 749H20C9.5066 749 1 740.493 1 730V20C1 9.50657 9.50659 1 20 1Z" stroke="#4055A0" stroke-width="2"/>
<path d="M580.688 628.771L572.025 602.958C570.975 600.004 569.006 597.436 566.381 595.381C562.838 592.813 558.375 591.4 553.781 591.4H546.563C541.969 591.4 537.506 592.813 533.963 595.381C531.206 597.436 529.238 600.004 528.188 602.958L519.394 628.771C518.738 630.44 519 632.366 519.919 633.908C520.05 634.036 520.05 634.164 520.181 634.293C522.281 636.733 526.481 635.834 527.531 632.752L535.669 609.379C535.8 608.865 536.456 608.48 536.981 608.737C537.506 608.865 537.9 609.508 537.638 610.021L525.169 649.19C524.906 650.217 525.694 651.116 526.744 651.116H537.375C538.294 651.116 538.95 651.886 538.95 652.657V684.249C538.95 686.303 541.05 687.973 543.544 687.973C546.038 687.973 548.138 686.303 548.138 684.249V653.042C548.138 651.886 549.056 650.988 550.238 650.988C551.419 650.988 552.338 651.886 552.338 653.042V684.249C552.338 686.303 554.438 687.973 556.931 687.973C559.425 687.973 561.525 686.303 561.525 684.249V652.785C561.525 651.886 562.313 651.244 563.1 651.244H573.731C574.781 651.244 575.569 650.217 575.306 649.318L562.706 610.15C562.575 609.636 562.838 608.994 563.363 608.865C563.888 608.609 564.544 608.994 564.806 609.508L572.813 633.009C573.863 636.091 578.063 637.118 580.163 634.55C580.294 634.421 580.294 634.293 580.425 634.164C581.213 632.238 581.344 630.44 580.688 628.771Z" fill="#2A4AAC"/>
<path d="M550.106 567C544.069 567 539.081 571.88 539.081 577.787C539.081 583.695 544.069 588.575 550.106 588.575C556.144 588.575 561.131 583.695 561.131 577.787C561.131 571.88 556.144 567 550.106 567Z" fill="#2A4AAC"/>
<path d="M476.688 628.771L468.025 602.958C466.975 600.004 465.006 597.436 462.381 595.381C458.838 592.813 454.375 591.4 449.781 591.4H442.563C437.969 591.4 433.506 592.813 429.963 595.381C427.206 597.436 425.238 600.004 424.188 602.958L415.394 628.771C414.738 630.44 415 632.366 415.919 633.908C416.05 634.036 416.05 634.164 416.181 634.293C418.281 636.733 422.481 635.834 423.531 632.752L431.669 609.379C431.8 608.865 432.456 608.48 432.981 608.737C433.506 608.865 433.9 609.508 433.638 610.021L421.169 649.19C420.906 650.217 421.694 651.116 422.744 651.116H433.375C434.294 651.116 434.95 651.886 434.95 652.657V684.249C434.95 686.303 437.05 687.973 439.544 687.973C442.038 687.973 444.138 686.303 444.138 684.249V653.042C444.138 651.886 445.056 650.988 446.238 650.988C447.419 650.988 448.338 651.886 448.338 653.042V684.249C448.338 686.303 450.438 687.973 452.931 687.973C455.425 687.973 457.525 686.303 457.525 684.249V652.785C457.525 651.886 458.313 651.244 459.1 651.244H469.731C470.781 651.244 471.569 650.217 471.306 649.318L458.706 610.15C458.575 609.636 458.838 608.994 459.363 608.865C459.888 608.609 460.544 608.994 460.806 609.508L468.813 633.009C469.863 636.091 474.063 637.118 476.163 634.55C476.294 634.421 476.294 634.293 476.425 634.164C477.213 632.238 477.344 630.44 476.688 628.771Z" fill="#00D7D7"/>
<path d="M446.106 567C440.069 567 435.081 571.88 435.081 577.787C435.081 583.695 440.069 588.575 446.106 588.575C452.144 588.575 457.131 583.695 457.131 577.787C457.131 571.88 452.144 567 446.106 567Z" fill="#00D7D7"/>
<g clip-path="url(#clip0_846_6615)">
<path d="M365.616 610.946C365.616 603.863 360.244 596.648 353.21 594.155C349.244 592.712 344.384 592.056 338.884 592.056C333.256 592.056 328.523 592.712 324.558 594.155C317.523 596.648 312.151 603.863 312.151 610.946V636.658C312.151 639.413 314.326 641.512 317.012 641.512C319.698 641.512 321.872 639.282 321.872 636.527V609.635C321.872 608.848 322.512 608.323 323.151 608.323C323.919 608.323 324.43 608.979 324.43 609.635V647.153V649.252V684.802C324.43 687.164 326.093 689 328.14 689H333.128C334.023 689 334.919 688.607 335.558 687.951C336.326 687.164 336.837 685.983 336.837 684.802L336.71 647.284C336.71 646.103 337.605 645.185 338.756 645.185C339.907 645.185 340.803 646.103 340.803 647.284L340.93 684.802C340.93 687.164 342.593 689 344.64 689H349.5C351.547 689 353.21 687.164 353.21 684.802V649.252V609.635C353.21 608.848 353.849 608.323 354.489 608.323C355.256 608.323 355.768 608.979 355.768 609.635V636.396C355.768 636.396 355.768 636.396 355.768 636.527C355.768 636.527 355.768 636.527 355.768 636.658C355.768 639.413 357.942 641.643 360.628 641.643C361.396 641.643 362.163 641.381 362.803 641.118C364.082 640.594 365.105 639.413 365.361 637.708C365.361 637.577 365.361 637.577 365.361 637.445C365.361 637.314 365.361 637.314 365.361 637.183C365.361 636.921 365.361 636.789 365.361 636.527V610.946H365.616Z" fill="#2A4AAC"/>
<path d="M338.884 589.301C344.888 589.301 349.756 584.309 349.756 578.151C349.756 571.992 344.888 567 338.884 567C332.879 567 328.012 571.992 328.012 578.151C328.012 584.309 332.879 589.301 338.884 589.301Z" fill="#2A4AAC"/>
</g>
<path d="M268.687 628.771L260.024 602.958C258.974 600.004 257.005 597.436 254.38 595.381C250.837 592.813 246.374 591.4 241.78 591.4H234.562C229.968 591.4 225.505 592.813 221.962 595.381C219.205 597.436 217.237 600.004 216.187 602.958L207.393 628.771C206.737 630.44 206.999 632.366 207.918 633.908C208.049 634.036 208.049 634.164 208.18 634.293C210.28 636.733 214.48 635.834 215.53 632.752L223.668 609.379C223.799 608.865 224.455 608.48 224.98 608.737C225.505 608.865 225.899 609.508 225.637 610.021L213.168 649.19C212.905 650.217 213.693 651.116 214.743 651.116H225.374C226.293 651.116 226.949 651.886 226.949 652.657V684.249C226.949 686.303 229.049 687.973 231.543 687.973C234.037 687.973 236.137 686.303 236.137 684.249V653.042C236.137 651.886 237.055 650.988 238.237 650.988C239.418 650.988 240.337 651.886 240.337 653.042V684.249C240.337 686.303 242.437 687.973 244.93 687.973C247.424 687.973 249.524 686.303 249.524 684.249V652.785C249.524 651.886 250.312 651.244 251.099 651.244H261.73C262.78 651.244 263.568 650.217 263.305 649.318L250.705 610.15C250.574 609.636 250.837 608.994 251.362 608.865C251.887 608.609 252.543 608.994 252.805 609.508L260.812 633.009C261.862 636.091 266.062 637.118 268.162 634.55C268.293 634.421 268.293 634.293 268.424 634.164C269.212 632.238 269.343 630.44 268.687 628.771Z" fill="#00D7D7"/>
<path d="M238.106 567C232.069 567 227.081 571.88 227.081 577.787C227.081 583.695 232.069 588.575 238.106 588.575C244.144 588.575 249.131 583.695 249.131 577.787C249.131 571.88 244.144 567 238.106 567Z" fill="#00D7D7"/>
<g clip-path="url(#clip1_846_6615)">
<path d="M161.616 610.946C161.616 603.863 156.244 596.648 149.209 594.155C145.244 592.712 140.384 592.056 134.884 592.056C129.256 592.056 124.523 592.712 120.558 594.155C113.523 596.648 108.151 603.863 108.151 610.946V636.658C108.151 639.413 110.326 641.512 113.012 641.512C115.698 641.512 117.872 639.282 117.872 636.527V609.635C117.872 608.848 118.512 608.323 119.151 608.323C119.919 608.323 120.43 608.979 120.43 609.635V647.153V649.252V684.802C120.43 687.164 122.093 689 124.139 689H129.128C130.023 689 130.919 688.607 131.558 687.951C132.326 687.164 132.837 685.983 132.837 684.802L132.709 647.284C132.709 646.103 133.605 645.185 134.756 645.185C135.907 645.185 136.802 646.103 136.802 647.284L136.93 684.802C136.93 687.164 138.593 689 140.639 689H145.5C147.546 689 149.209 687.164 149.209 684.802V649.252V609.635C149.209 608.848 149.849 608.323 150.488 608.323C151.256 608.323 151.767 608.979 151.767 609.635V636.396C151.767 636.396 151.767 636.396 151.767 636.527C151.767 636.527 151.767 636.527 151.767 636.658C151.767 639.413 153.942 641.643 156.628 641.643C157.395 641.643 158.163 641.381 158.802 641.118C160.081 640.594 161.105 639.413 161.36 637.708C161.36 637.577 161.36 637.577 161.36 637.445C161.36 637.314 161.36 637.314 161.36 637.183C161.36 636.921 161.36 636.789 161.36 636.527V610.946H161.616Z" fill="#2A4AAC"/>
<path d="M134.884 589.301C140.888 589.301 145.756 584.309 145.756 578.151C145.756 571.992 140.888 567 134.884 567C128.879 567 124.012 571.992 124.012 578.151C124.012 584.309 128.879 589.301 134.884 589.301Z" fill="#2A4AAC"/>
</g>
<path d="M580.687 456.771L572.024 430.958C570.974 428.004 569.005 425.436 566.38 423.381C562.837 420.813 558.374 419.4 553.78 419.4H546.562C541.968 419.4 537.505 420.813 533.962 423.381C531.205 425.436 529.237 428.004 528.187 430.958L519.393 456.771C518.737 458.44 518.999 460.366 519.918 461.908C520.049 462.036 520.049 462.164 520.18 462.293C522.28 464.733 526.48 463.834 527.53 460.752L535.668 437.379C535.799 436.865 536.455 436.48 536.98 436.737C537.505 436.865 537.899 437.508 537.637 438.021L525.168 477.19C524.905 478.217 525.693 479.116 526.743 479.116H537.374C538.293 479.116 538.949 479.886 538.949 480.657V512.249C538.949 514.303 541.049 515.973 543.543 515.973C546.037 515.973 548.137 514.303 548.137 512.249V481.042C548.137 479.886 549.055 478.988 550.237 478.988C551.418 478.988 552.337 479.886 552.337 481.042V512.249C552.337 514.303 554.437 515.973 556.93 515.973C559.424 515.973 561.524 514.303 561.524 512.249V480.785C561.524 479.886 562.312 479.244 563.099 479.244H573.73C574.78 479.244 575.568 478.217 575.305 477.318L562.705 438.15C562.574 437.636 562.837 436.994 563.362 436.865C563.887 436.609 564.543 436.994 564.805 437.508L572.812 461.009C573.862 464.091 578.062 465.118 580.162 462.55C580.293 462.421 580.293 462.293 580.424 462.164C581.212 460.238 581.343 458.44 580.687 456.771Z" fill="#2A4AAC"/>
<path d="M550.106 395C544.069 395 539.081 399.88 539.081 405.787C539.081 411.695 544.069 416.575 550.106 416.575C556.144 416.575 561.131 411.695 561.131 405.787C561.131 399.88 556.144 395 550.106 395Z" fill="#2A4AAC"/>
<g clip-path="url(#clip2_846_6615)">
<path d="M473.616 438.946C473.616 431.863 468.244 424.648 461.21 422.155C457.244 420.712 452.384 420.056 446.884 420.056C441.256 420.056 436.523 420.712 432.558 422.155C425.523 424.648 420.151 431.863 420.151 438.946V464.658C420.151 467.413 422.326 469.512 425.012 469.512C427.698 469.512 429.872 467.282 429.872 464.527V437.635C429.872 436.848 430.512 436.323 431.151 436.323C431.919 436.323 432.43 436.979 432.43 437.635V475.153V477.252V512.802C432.43 515.164 434.093 517 436.14 517H441.128C442.023 517 442.919 516.607 443.558 515.951C444.326 515.164 444.837 513.983 444.837 512.802L444.71 475.284C444.71 474.103 445.605 473.185 446.756 473.185C447.907 473.185 448.803 474.103 448.803 475.284L448.93 512.802C448.93 515.164 450.593 517 452.64 517H457.5C459.547 517 461.21 515.164 461.21 512.802V477.252V437.635C461.21 436.848 461.849 436.323 462.489 436.323C463.256 436.323 463.768 436.979 463.768 437.635V464.396C463.768 464.396 463.768 464.396 463.768 464.527C463.768 464.527 463.768 464.527 463.768 464.658C463.768 467.413 465.942 469.643 468.628 469.643C469.396 469.643 470.163 469.381 470.803 469.118C472.082 468.594 473.105 467.413 473.361 465.708C473.361 465.577 473.361 465.577 473.361 465.445C473.361 465.314 473.361 465.314 473.361 465.183C473.361 464.921 473.361 464.789 473.361 464.527V438.946H473.616Z" fill="#2A4AAC"/>
<path d="M446.884 417.301C452.888 417.301 457.756 412.309 457.756 406.151C457.756 399.992 452.888 395 446.884 395C440.879 395 436.012 399.992 436.012 406.151C436.012 412.309 440.879 417.301 446.884 417.301Z" fill="#2A4AAC"/>
</g>
<g clip-path="url(#clip3_846_6615)">
<path d="M365.616 438.946C365.616 431.863 360.244 424.648 353.21 422.155C349.244 420.712 344.384 420.056 338.884 420.056C333.256 420.056 328.523 420.712 324.558 422.155C317.523 424.648 312.151 431.863 312.151 438.946V464.658C312.151 467.413 314.326 469.512 317.012 469.512C319.698 469.512 321.872 467.282 321.872 464.527V437.635C321.872 436.848 322.512 436.323 323.151 436.323C323.919 436.323 324.43 436.979 324.43 437.635V475.153V477.252V512.802C324.43 515.164 326.093 517 328.14 517H333.128C334.023 517 334.919 516.607 335.558 515.951C336.326 515.164 336.837 513.983 336.837 512.802L336.71 475.284C336.71 474.103 337.605 473.185 338.756 473.185C339.907 473.185 340.803 474.103 340.803 475.284L340.93 512.802C340.93 515.164 342.593 517 344.64 517H349.5C351.547 517 353.21 515.164 353.21 512.802V477.252V437.635C353.21 436.848 353.849 436.323 354.489 436.323C355.256 436.323 355.768 436.979 355.768 437.635V464.396C355.768 464.396 355.768 464.396 355.768 464.527C355.768 464.527 355.768 464.527 355.768 464.658C355.768 467.413 357.942 469.643 360.628 469.643C361.396 469.643 362.163 469.381 362.803 469.118C364.082 468.594 365.105 467.413 365.361 465.708C365.361 465.577 365.361 465.577 365.361 465.445C365.361 465.314 365.361 465.314 365.361 465.183C365.361 464.921 365.361 464.789 365.361 464.527V438.946H365.616Z" fill="#FF7BF9"/>
<path d="M338.884 417.301C344.888 417.301 349.756 412.309 349.756 406.151C349.756 399.992 344.888 395 338.884 395C332.879 395 328.012 399.992 328.012 406.151C328.012 412.309 332.879 417.301 338.884 417.301Z" fill="#FF7BF9"/>
</g>
<path d="M268.688 456.771L260.025 430.958C258.975 428.004 257.006 425.436 254.381 423.381C250.838 420.813 246.375 419.4 241.781 419.4H234.563C229.969 419.4 225.506 420.813 221.963 423.381C219.206 425.436 217.238 428.004 216.188 430.958L207.394 456.771C206.738 458.44 207 460.366 207.919 461.908C208.05 462.036 208.05 462.164 208.181 462.293C210.281 464.733 214.481 463.834 215.531 460.752L223.669 437.379C223.8 436.865 224.456 436.48 224.981 436.737C225.506 436.865 225.9 437.508 225.638 438.021L213.169 477.19C212.906 478.217 213.694 479.116 214.744 479.116H225.375C226.294 479.116 226.95 479.886 226.95 480.657V512.249C226.95 514.303 229.05 515.973 231.544 515.973C234.038 515.973 236.138 514.303 236.138 512.249V481.042C236.138 479.886 237.056 478.988 238.238 478.988C239.419 478.988 240.338 479.886 240.338 481.042V512.249C240.338 514.303 242.438 515.973 244.931 515.973C247.425 515.973 249.525 514.303 249.525 512.249V480.785C249.525 479.886 250.313 479.244 251.1 479.244H261.731C262.781 479.244 263.569 478.217 263.306 477.318L250.706 438.15C250.575 437.636 250.838 436.994 251.363 436.865C251.888 436.609 252.544 436.994 252.806 437.508L260.813 461.009C261.863 464.091 266.063 465.118 268.163 462.55C268.294 462.421 268.294 462.293 268.425 462.164C269.213 460.238 269.344 458.44 268.688 456.771Z" fill="#2A4AAC"/>
<path d="M238.106 395C232.069 395 227.081 399.88 227.081 405.787C227.081 411.695 232.069 416.575 238.106 416.575C244.144 416.575 249.131 411.695 249.131 405.787C249.131 399.88 244.144 395 238.106 395Z" fill="#2A4AAC"/>
<g clip-path="url(#clip4_846_6615)">
<path d="M161.616 438.946C161.616 431.862 156.244 424.647 149.209 422.155C145.244 420.712 140.384 420.056 134.884 420.056C129.256 420.056 124.523 420.712 120.558 422.155C113.523 424.647 108.151 431.862 108.151 438.946V464.658C108.151 467.413 110.326 469.512 113.012 469.512C115.698 469.512 117.872 467.282 117.872 464.527V437.634C117.872 436.847 118.512 436.323 119.151 436.323C119.919 436.323 120.43 436.978 120.43 437.634V475.153V477.252V512.802C120.43 515.163 122.093 517 124.139 517H129.128C130.023 517 130.919 516.606 131.558 515.95C132.326 515.163 132.837 513.983 132.837 512.802L132.709 475.284C132.709 474.103 133.605 473.185 134.756 473.185C135.907 473.185 136.802 474.103 136.802 475.284L136.93 512.802C136.93 515.163 138.593 517 140.64 517H145.5C147.546 517 149.209 515.163 149.209 512.802V477.252V437.634C149.209 436.847 149.849 436.323 150.488 436.323C151.256 436.323 151.767 436.978 151.767 437.634V464.396C151.767 464.396 151.767 464.396 151.767 464.527C151.767 464.527 151.767 464.527 151.767 464.658C151.767 467.413 153.942 469.643 156.628 469.643C157.395 469.643 158.163 469.381 158.802 469.118C160.081 468.594 161.105 467.413 161.36 465.707C161.36 465.576 161.36 465.576 161.36 465.445C161.36 465.314 161.36 465.314 161.36 465.183C161.36 464.92 161.36 464.789 161.36 464.527V438.946H161.616Z" fill="#00D7D7"/>
<path d="M134.884 417.301C140.888 417.301 145.756 412.309 145.756 406.151C145.756 399.992 140.888 395 134.884 395C128.879 395 124.012 399.992 124.012 406.151C124.012 412.309 128.879 417.301 134.884 417.301Z" fill="#00D7D7"/>
</g>
<path d="M580.688 284.77L572.025 258.958C570.975 256.004 569.006 253.436 566.381 251.381C562.838 248.813 558.375 247.4 553.781 247.4H546.563C541.969 247.4 537.506 248.813 533.963 251.381C531.206 253.436 529.238 256.004 528.188 258.958L519.394 284.77C518.738 286.44 519 288.366 519.919 289.907C520.05 290.036 520.05 290.164 520.181 290.293C522.281 292.733 526.481 291.834 527.531 288.751L535.669 265.379C535.8 264.865 536.456 264.48 536.981 264.737C537.506 264.865 537.9 265.507 537.638 266.021L525.169 305.189C524.906 306.217 525.694 307.116 526.744 307.116H537.375C538.294 307.116 538.95 307.886 538.95 308.657V340.248C538.95 342.303 541.05 343.973 543.544 343.973C546.038 343.973 548.138 342.303 548.138 340.248V309.042C548.138 307.886 549.056 306.987 550.238 306.987C551.419 306.987 552.338 307.886 552.338 309.042V340.248C552.338 342.303 554.438 343.973 556.931 343.973C559.425 343.973 561.525 342.303 561.525 340.248V308.785C561.525 307.886 562.313 307.244 563.1 307.244H573.731C574.781 307.244 575.569 306.217 575.306 305.318L562.706 266.149C562.575 265.636 562.838 264.994 563.363 264.865C563.888 264.608 564.544 264.994 564.806 265.507L572.813 289.008C573.863 292.09 578.063 293.118 580.163 290.549C580.294 290.421 580.294 290.293 580.425 290.164C581.213 288.238 581.344 286.44 580.688 284.77Z" fill="#2A4AAC"/>
<path d="M550.106 223C544.069 223 539.081 227.88 539.081 233.787C539.081 239.695 544.069 244.575 550.106 244.575C556.144 244.575 561.131 239.695 561.131 233.787C561.131 227.88 556.144 223 550.106 223Z" fill="#2A4AAC"/>
<g clip-path="url(#clip5_846_6615)">
<path d="M473.616 266.946C473.616 259.863 468.244 252.648 461.21 250.155C457.244 248.712 452.384 248.056 446.884 248.056C441.256 248.056 436.523 248.712 432.558 250.155C425.523 252.648 420.151 259.863 420.151 266.946V292.658C420.151 295.413 422.326 297.512 425.012 297.512C427.698 297.512 429.872 295.282 429.872 292.527V265.635C429.872 264.848 430.512 264.323 431.151 264.323C431.919 264.323 432.43 264.979 432.43 265.635V303.153V305.252V340.802C432.43 343.164 434.093 345 436.14 345H441.128C442.023 345 442.919 344.607 443.558 343.951C444.326 343.164 444.837 341.983 444.837 340.802L444.71 303.284C444.71 302.103 445.605 301.185 446.756 301.185C447.907 301.185 448.803 302.103 448.803 303.284L448.93 340.802C448.93 343.164 450.593 345 452.64 345H457.5C459.547 345 461.21 343.164 461.21 340.802V305.252V265.635C461.21 264.848 461.849 264.323 462.489 264.323C463.256 264.323 463.768 264.979 463.768 265.635V292.396C463.768 292.396 463.768 292.396 463.768 292.527C463.768 292.527 463.768 292.527 463.768 292.658C463.768 295.413 465.942 297.643 468.628 297.643C469.396 297.643 470.163 297.381 470.803 297.118C472.082 296.594 473.105 295.413 473.361 293.708C473.361 293.577 473.361 293.577 473.361 293.445C473.361 293.314 473.361 293.314 473.361 293.183C473.361 292.921 473.361 292.789 473.361 292.527V266.946H473.616Z" fill="#00D7D7"/>
<path d="M446.884 245.301C452.888 245.301 457.756 240.309 457.756 234.151C457.756 227.992 452.888 223 446.884 223C440.879 223 436.012 227.992 436.012 234.151C436.012 240.309 440.879 245.301 446.884 245.301Z" fill="#00D7D7"/>
</g>
<g clip-path="url(#clip6_846_6615)">
<path d="M365.616 266.946C365.616 259.863 360.244 252.648 353.21 250.155C349.244 248.712 344.384 248.056 338.884 248.056C333.256 248.056 328.523 248.712 324.558 250.155C317.523 252.648 312.151 259.863 312.151 266.946V292.658C312.151 295.413 314.326 297.512 317.012 297.512C319.698 297.512 321.872 295.282 321.872 292.527V265.635C321.872 264.848 322.512 264.323 323.151 264.323C323.919 264.323 324.43 264.979 324.43 265.635V303.153V305.252V340.802C324.43 343.164 326.093 345 328.14 345H333.128C334.023 345 334.919 344.607 335.558 343.951C336.326 343.164 336.837 341.983 336.837 340.802L336.71 303.284C336.71 302.103 337.605 301.185 338.756 301.185C339.907 301.185 340.803 302.103 340.803 303.284L340.93 340.802C340.93 343.164 342.593 345 344.64 345H349.5C351.547 345 353.21 343.164 353.21 340.802V305.252V265.635C353.21 264.848 353.849 264.323 354.489 264.323C355.256 264.323 355.768 264.979 355.768 265.635V292.396C355.768 292.396 355.768 292.396 355.768 292.527C355.768 292.527 355.768 292.527 355.768 292.658C355.768 295.413 357.942 297.643 360.628 297.643C361.396 297.643 362.163 297.381 362.803 297.118C364.082 296.594 365.105 295.413 365.361 293.708C365.361 293.577 365.361 293.577 365.361 293.445C365.361 293.314 365.361 293.314 365.361 293.183C365.361 292.921 365.361 292.789 365.361 292.527V266.946H365.616Z" fill="#2A4AAC"/>
<path d="M338.884 245.301C344.888 245.301 349.756 240.309 349.756 234.151C349.756 227.992 344.888 223 338.884 223C332.879 223 328.012 227.992 328.012 234.151C328.012 240.309 332.879 245.301 338.884 245.301Z" fill="#2A4AAC"/>
</g>
<path d="M268.688 284.77L260.025 258.958C258.975 256.004 257.006 253.436 254.381 251.381C250.838 248.813 246.375 247.4 241.781 247.4H234.563C229.969 247.4 225.506 248.813 221.963 251.381C219.206 253.436 217.238 256.004 216.188 258.958L207.394 284.77C206.738 286.44 207 288.366 207.919 289.907C208.05 290.036 208.05 290.164 208.181 290.293C210.281 292.733 214.481 291.834 215.531 288.751L223.669 265.379C223.8 264.865 224.456 264.48 224.981 264.737C225.506 264.865 225.9 265.507 225.638 266.021L213.169 305.189C212.906 306.217 213.694 307.116 214.744 307.116H225.375C226.294 307.116 226.95 307.886 226.95 308.657V340.248C226.95 342.303 229.05 343.973 231.544 343.973C234.038 343.973 236.138 342.303 236.138 340.248V309.042C236.138 307.886 237.056 306.987 238.238 306.987C239.419 306.987 240.338 307.886 240.338 309.042V340.248C240.338 342.303 242.438 343.973 244.931 343.973C247.425 343.973 249.525 342.303 249.525 340.248V308.785C249.525 307.886 250.313 307.244 251.1 307.244H261.731C262.781 307.244 263.569 306.217 263.306 305.318L250.706 266.149C250.575 265.636 250.838 264.994 251.363 264.865C251.888 264.608 252.544 264.994 252.806 265.507L260.813 289.008C261.863 292.09 266.063 293.118 268.163 290.549C268.294 290.421 268.294 290.293 268.425 290.164C269.213 288.238 269.344 286.44 268.688 284.77Z" fill="#2A4AAC"/>
<path d="M238.106 223C232.069 223 227.081 227.88 227.081 233.787C227.081 239.695 232.069 244.575 238.106 244.575C244.144 244.575 249.131 239.695 249.131 233.787C249.131 227.88 244.144 223 238.106 223Z" fill="#2A4AAC"/>
<path d="M164.688 284.77L156.025 258.958C154.975 256.004 153.006 253.436 150.381 251.381C146.838 248.813 142.375 247.4 137.781 247.4H130.563C125.969 247.4 121.506 248.813 117.963 251.381C115.206 253.436 113.238 256.004 112.188 258.958L103.394 284.77C102.738 286.44 103 288.366 103.919 289.907C104.05 290.036 104.05 290.164 104.181 290.293C106.281 292.733 110.481 291.834 111.531 288.751L119.669 265.379C119.8 264.865 120.456 264.48 120.981 264.737C121.506 264.865 121.9 265.507 121.638 266.021L109.169 305.189C108.906 306.217 109.694 307.116 110.744 307.116H121.375C122.294 307.116 122.95 307.886 122.95 308.657V340.248C122.95 342.303 125.05 343.973 127.544 343.973C130.038 343.973 132.138 342.303 132.138 340.248V309.042C132.138 307.886 133.056 306.987 134.238 306.987C135.419 306.987 136.338 307.886 136.338 309.042V340.248C136.338 342.303 138.438 343.973 140.931 343.973C143.425 343.973 145.525 342.303 145.525 340.248V308.785C145.525 307.886 146.313 307.244 147.1 307.244H157.731C158.781 307.244 159.569 306.217 159.306 305.318L146.706 266.149C146.575 265.636 146.838 264.994 147.363 264.865C147.888 264.608 148.544 264.994 148.806 265.507L156.813 289.008C157.863 292.09 162.063 293.118 164.163 290.549C164.294 290.421 164.294 290.293 164.425 290.164C165.213 288.238 165.344 286.44 164.688 284.77Z" fill="#2A4AAC"/>
<path d="M134.106 223C128.069 223 123.081 227.88 123.081 233.787C123.081 239.695 128.069 244.575 134.106 244.575C140.144 244.575 145.131 239.695 145.131 233.787C145.131 227.88 140.144 223 134.106 223Z" fill="#2A4AAC"/>
<g clip-path="url(#clip7_846_6615)">
<path d="M577.616 93.9465C577.616 86.8626 572.244 79.6475 565.21 77.1551C561.244 75.7121 556.384 75.0562 550.884 75.0562C545.256 75.0562 540.523 75.7121 536.558 77.1551C529.523 79.6475 524.151 86.8626 524.151 93.9465V119.658C524.151 122.413 526.326 124.512 529.012 124.512C531.698 124.512 533.872 122.282 533.872 119.527V92.6346C533.872 91.8475 534.512 91.3228 535.151 91.3228C535.919 91.3228 536.43 91.9787 536.43 92.6346V130.153V132.252V167.802C536.43 170.164 538.093 172 540.14 172H545.128C546.023 172 546.919 171.607 547.558 170.951C548.326 170.164 548.837 168.983 548.837 167.802L548.71 130.284C548.71 129.103 549.605 128.185 550.756 128.185C551.907 128.185 552.803 129.103 552.803 130.284L552.93 167.802C552.93 170.164 554.593 172 556.64 172H561.5C563.547 172 565.21 170.164 565.21 167.802V132.252V92.6346C565.21 91.8475 565.849 91.3228 566.489 91.3228C567.256 91.3228 567.768 91.9787 567.768 92.6346V119.396C567.768 119.396 567.768 119.396 567.768 119.527C567.768 119.527 567.768 119.527 567.768 119.658C567.768 122.413 569.942 124.643 572.628 124.643C573.396 124.643 574.163 124.381 574.803 124.118C576.082 123.594 577.105 122.413 577.361 120.708C577.361 120.577 577.361 120.577 577.361 120.445C577.361 120.314 577.361 120.314 577.361 120.183C577.361 119.921 577.361 119.789 577.361 119.527V93.9465H577.616Z" fill="#00D7D7"/>
<path d="M550.884 72.3011C556.888 72.3011 561.756 67.3088 561.756 61.1505C561.756 54.9923 556.888 50 550.884 50C544.879 50 540.012 54.9923 540.012 61.1505C540.012 67.3088 544.879 72.3011 550.884 72.3011Z" fill="#00D7D7"/>
</g>
<path d="M476.688 111.77L468.025 85.9578C466.975 83.0041 465.006 80.4357 462.381 78.381C458.838 75.8125 454.375 74.3999 449.781 74.3999H442.563C437.969 74.3999 433.506 75.8125 429.963 78.381C427.206 80.4357 425.238 83.0041 424.188 85.9578L415.394 111.77C414.738 113.44 415 115.366 415.919 116.907C416.05 117.036 416.05 117.164 416.181 117.293C418.281 119.733 422.481 118.834 423.531 115.751L431.669 92.3788C431.8 91.8652 432.456 91.4799 432.981 91.7367C433.506 91.8652 433.9 92.5073 433.638 93.021L421.169 132.189C420.906 133.217 421.694 134.116 422.744 134.116H433.375C434.294 134.116 434.95 134.886 434.95 135.657V167.248C434.95 169.303 437.05 170.973 439.544 170.973C442.038 170.973 444.138 169.303 444.138 167.248V136.042C444.138 134.886 445.056 133.987 446.238 133.987C447.419 133.987 448.338 134.886 448.338 136.042V167.248C448.338 169.303 450.438 170.973 452.931 170.973C455.425 170.973 457.525 169.303 457.525 167.248V135.785C457.525 134.886 458.313 134.244 459.1 134.244H469.731C470.781 134.244 471.569 133.217 471.306 132.318L458.706 93.1494C458.575 92.6357 458.838 91.9936 459.363 91.8652C459.888 91.6083 460.544 91.9936 460.806 92.5073L468.813 116.008C469.863 119.09 474.063 120.118 476.163 117.549C476.294 117.421 476.294 117.293 476.425 117.164C477.213 115.238 477.344 113.44 476.688 111.77Z" fill="#FF7BF9"/>
<path d="M446.106 50C440.069 50 435.081 54.88 435.081 60.7874C435.081 66.6947 440.069 71.5747 446.106 71.5747C452.144 71.5747 457.131 66.6947 457.131 60.7874C457.131 54.88 452.144 50 446.106 50Z" fill="#FF7BF9"/>
<g clip-path="url(#clip8_846_6615)">
<path d="M365.616 93.9465C365.616 86.8626 360.244 79.6475 353.21 77.1551C349.244 75.7121 344.384 75.0562 338.884 75.0562C333.256 75.0562 328.523 75.7121 324.558 77.1551C317.523 79.6475 312.151 86.8626 312.151 93.9465V119.658C312.151 122.413 314.326 124.512 317.012 124.512C319.698 124.512 321.872 122.282 321.872 119.527V92.6346C321.872 91.8475 322.512 91.3228 323.151 91.3228C323.919 91.3228 324.43 91.9787 324.43 92.6346V130.153V132.252V167.802C324.43 170.164 326.093 172 328.14 172H333.128C334.023 172 334.919 171.607 335.558 170.951C336.326 170.164 336.837 168.983 336.837 167.802L336.71 130.284C336.71 129.103 337.605 128.185 338.756 128.185C339.907 128.185 340.803 129.103 340.803 130.284L340.93 167.802C340.93 170.164 342.593 172 344.64 172H349.5C351.547 172 353.21 170.164 353.21 167.802V132.252V92.6346C353.21 91.8475 353.849 91.3228 354.489 91.3228C355.256 91.3228 355.768 91.9787 355.768 92.6346V119.396C355.768 119.396 355.768 119.396 355.768 119.527C355.768 119.527 355.768 119.527 355.768 119.658C355.768 122.413 357.942 124.643 360.628 124.643C361.396 124.643 362.163 124.381 362.803 124.118C364.082 123.594 365.105 122.413 365.361 120.708C365.361 120.577 365.361 120.577 365.361 120.445C365.361 120.314 365.361 120.314 365.361 120.183C365.361 119.921 365.361 119.789 365.361 119.527V93.9465H365.616Z" fill="#2A4AAC"/>
<path d="M338.884 72.3011C344.888 72.3011 349.756 67.3088 349.756 61.1505C349.756 54.9923 344.888 50 338.884 50C332.879 50 328.012 54.9923 328.012 61.1505C328.012 67.3088 332.879 72.3011 338.884 72.3011Z" fill="#2A4AAC"/>
</g>
<path d="M268.688 111.77L260.025 85.9578C258.975 83.0041 257.006 80.4357 254.381 78.381C250.838 75.8125 246.375 74.3999 241.781 74.3999H234.563C229.969 74.3999 225.506 75.8125 221.963 78.381C219.206 80.4357 217.238 83.0041 216.188 85.9578L207.394 111.77C206.738 113.44 207 115.366 207.919 116.907C208.05 117.036 208.05 117.164 208.181 117.293C210.281 119.733 214.481 118.834 215.531 115.751L223.669 92.3788C223.8 91.8652 224.456 91.4799 224.981 91.7367C225.506 91.8652 225.9 92.5073 225.638 93.021L213.169 132.189C212.906 133.217 213.694 134.116 214.744 134.116H225.375C226.294 134.116 226.95 134.886 226.95 135.657V167.248C226.95 169.303 229.05 170.973 231.544 170.973C234.038 170.973 236.138 169.303 236.138 167.248V136.042C236.138 134.886 237.056 133.987 238.238 133.987C239.419 133.987 240.338 134.886 240.338 136.042V167.248C240.338 169.303 242.438 170.973 244.931 170.973C247.425 170.973 249.525 169.303 249.525 167.248V135.785C249.525 134.886 250.313 134.244 251.1 134.244H261.731C262.781 134.244 263.569 133.217 263.306 132.318L250.706 93.1494C250.575 92.6357 250.838 91.9936 251.363 91.8652C251.888 91.6083 252.544 91.9936 252.806 92.5073L260.813 116.008C261.863 119.09 266.063 120.118 268.163 117.549C268.294 117.421 268.294 117.293 268.425 117.164C269.213 115.238 269.344 113.44 268.688 111.77Z" fill="#00D7D7"/>
<path d="M238.106 50C232.069 50 227.081 54.88 227.081 60.7874C227.081 66.6947 232.069 71.5747 238.106 71.5747C244.144 71.5747 249.131 66.6947 249.131 60.7874C249.131 54.88 244.144 50 238.106 50Z" fill="#00D7D7"/>
<g clip-path="url(#clip9_846_6615)">
<path d="M161.616 94.9465C161.616 87.8626 156.244 80.6475 149.209 78.1551C145.244 76.7121 140.384 76.0562 134.884 76.0562C129.256 76.0562 124.523 76.7121 120.558 78.1551C113.523 80.6475 108.151 87.8626 108.151 94.9465V120.658C108.151 123.413 110.326 125.512 113.012 125.512C115.698 125.512 117.872 123.282 117.872 120.527V93.6346C117.872 92.8475 118.512 92.3228 119.151 92.3228C119.919 92.3228 120.43 92.9787 120.43 93.6346V131.153V133.252V168.802C120.43 171.164 122.093 173 124.139 173H129.128C130.023 173 130.919 172.607 131.558 171.951C132.326 171.164 132.837 169.983 132.837 168.802L132.709 131.284C132.709 130.103 133.605 129.185 134.756 129.185C135.907 129.185 136.802 130.103 136.802 131.284L136.93 168.802C136.93 171.164 138.593 173 140.639 173H145.5C147.546 173 149.209 171.164 149.209 168.802V133.252V93.6346C149.209 92.8475 149.849 92.3228 150.488 92.3228C151.256 92.3228 151.767 92.9787 151.767 93.6346V120.396C151.767 120.396 151.767 120.396 151.767 120.527C151.767 120.527 151.767 120.527 151.767 120.658C151.767 123.413 153.942 125.643 156.628 125.643C157.395 125.643 158.163 125.381 158.802 125.118C160.081 124.594 161.105 123.413 161.36 121.708C161.36 121.577 161.36 121.577 161.36 121.445C161.36 121.314 161.36 121.314 161.36 121.183C161.36 120.921 161.36 120.789 161.36 120.527V94.9465H161.616Z" fill="#2A4AAC"/>
<path d="M134.884 73.3011C140.888 73.3011 145.756 68.3088 145.756 62.1505C145.756 55.9923 140.888 51 134.884 51C128.879 51 124.012 55.9923 124.012 62.1505C124.012 68.3088 128.879 73.3011 134.884 73.3011Z" fill="#2A4AAC"/>
</g>
<defs>
<clipPath id="clip0_846_6615">
<rect width="55" height="122" fill="white" transform="translate(311 567)"/>
</clipPath>
<clipPath id="clip1_846_6615">
<rect width="55" height="122" fill="white" transform="translate(107 567)"/>
</clipPath>
<clipPath id="clip2_846_6615">
<rect width="55" height="122" fill="white" transform="translate(419 395)"/>
</clipPath>
<clipPath id="clip3_846_6615">
<rect width="55" height="122" fill="white" transform="translate(311 395)"/>
</clipPath>
<clipPath id="clip4_846_6615">
<rect width="55" height="122" fill="white" transform="translate(107 395)"/>
</clipPath>
<clipPath id="clip5_846_6615">
<rect width="55" height="122" fill="white" transform="translate(419 223)"/>
</clipPath>
<clipPath id="clip6_846_6615">
<rect width="55" height="122" fill="white" transform="translate(311 223)"/>
</clipPath>
<clipPath id="clip7_846_6615">
<rect width="55" height="122" fill="white" transform="translate(523 50)"/>
</clipPath>
<clipPath id="clip8_846_6615">
<rect width="55" height="122" fill="white" transform="translate(311 50)"/>
</clipPath>
<clipPath id="clip9_846_6615">
<rect width="55" height="122" fill="white" transform="translate(107 51)"/>
</clipPath>
</defs>
</svg>
