<?xml version="1.0" encoding="UTF-8"?>
<svg width="406px" height="409px" viewBox="0 0 406 409" version="1.1" xmlns="http://www.w3.org/2000/svg" xmlns:xlink="http://www.w3.org/1999/xlink">
    <title>58AE72E7-5962-426A-9E65-5781AE4EDE1A</title>
    <g id="Design-" stroke="none" stroke-width="1" fill="none" fill-rule="evenodd">
        <g id="v2.Summary/1" transform="translate(-517.000000, -348.000000)" fill="#FFFFFF">
            <g id="Icon" transform="translate(517.649446, 348.000000)">
                <path d="M155.366109,0.000328410016 C156.492461,0.00661103641 157.408739,0.884266629 157.480882,1.99237228 L157.485427,2.14484582 L157.124234,60.2078217 C157.117959,61.3324118 156.244377,62.2496753 155.143629,62.3273114 L154.992179,62.3326345 L154.982339,62.3326345 C153.855986,62.3263519 152.936707,61.4456915 152.86464,60.3401987 L152.860124,60.1881171 L152.981487,37.6690423 L95.1371979,68.7957436 L94.5074217,68.7399139 C93.9334069,68.7005047 36.3187236,64.3425038 20.485756,105.702461 C4.5350989,147.360845 15.7913854,181.297455 16.132682,182.303424 L16.1396441,182.323802 L16.3626898,182.960918 L16.1822852,183.614454 C16.0510818,184.08408 2.96354484,230.984314 4.37398115,259.940225 C5.77356039,288.652095 7.87396837,298.695235 7.93493254,298.985636 L7.93615286,298.99146 L7.98863421,299.2312 L7.98535413,299.477507 L7.98503397,299.516106 C7.97780375,300.232676 7.84613731,310.422812 7.39000252,322.203968 L7.35473224,323.101671 C7.34276536,323.40184 7.33058728,323.7029 7.31819474,324.004725 L7.28037054,324.912362 C7.26754585,325.215586 7.25450348,325.519446 7.24124015,325.823815 L7.19353862,326.89923 L7.14397311,327.977612 C7.11030107,328.697245 7.07536529,329.418024 7.03912355,330.138288 L6.98377622,331.218088 C6.97438667,331.397921 6.96491417,331.577669 6.95535807,331.757308 L6.89701303,332.833608 C6.78818858,334.803639 6.66908904,336.754047 6.53883689,338.650254 C5.0595188,360.095428 9.54667433,397.79033 12.2101029,405.796966 C12.5807524,406.916844 11.9772169,408.125393 10.8619882,408.49978 C10.6389424,408.572031 10.4093365,408.608156 10.1862908,408.608156 C9.29410782,408.608156 8.46424646,408.04329 8.16575877,407.146731 C5.08903956,397.905273 0.864290794,358.942709 2.28456736,338.354685 C2.50695708,335.12313 2.69654597,331.731837 2.85779492,328.354889 L2.90532387,327.342409 C3.51226361,314.190289 3.69493807,301.521137 3.71796426,299.661417 C3.36699523,297.920844 1.44158566,287.428144 0.113151455,260.147124 C-1.25792384,232.008954 10.2518925,189.069344 11.8984949,183.092282 C10.2420522,177.942813 0.847890371,145.065686 16.5037334,104.175355 C23.555915,85.7515528 39.3954428,73.0486533 62.3133928,67.4328421 C77.4618031,63.7190155 90.8153497,64.2282823 94.1111763,64.4339815 L94.2220543,64.4410268 L151.456248,33.6394514 C151.893592,33.4059154 152.377587,33.3514236 152.83221,33.4344587 L153.001168,33.4719623 L153.220933,2.12185712 C153.227208,1.0004083 154.10079,0.0832814277 155.201538,0.00565120571 L155.352988,0.000328410016 L155.366109,0.000328410016 Z M248.841042,0 C249.965603,0 250.891302,0.868368231 250.975436,1.97280407 L250.981632,2.12481281 L251.198984,33.4716339 C251.649789,33.3548659 252.137022,33.3704349 252.58667,33.5598586 L252.753381,33.639123 L310.213392,64.4406984 C311.106724,64.3831323 312.861267,64.2957363 315.27354,64.2894762 L315.86501,64.2895884 C321.903909,64.3074248 331.637571,64.8437368 342.253078,67.4325136 C365.259476,73.0483249 381.165703,85.7512243 388.246115,104.175026 C403.964629,145.065357 394.529568,177.945768 392.866495,183.091953 C394.519689,189.069015 406.078872,232.008625 404.702309,260.146795 C403.405107,286.614841 401.549931,297.280242 401.115705,299.481952 L401.079772,299.661088 C401.104142,301.427869 401.270978,312.92205 401.808477,325.325776 L401.852875,326.333303 L401.898924,327.343771 C401.984878,329.198355 402.079295,331.062504 402.182925,332.907256 L402.240368,333.911387 C402.327917,335.414175 402.421724,336.900453 402.5222,338.354357 C403.944869,358.935812 399.706502,397.901661 396.617466,407.149687 C396.317784,408.042962 395.484601,408.607827 394.585553,408.607827 C394.364908,408.607827 394.134383,408.571702 393.910444,408.499452 C392.790751,408.125065 392.181506,406.916516 392.556933,405.796638 C395.231023,397.790001 399.732848,360.088531 398.250901,338.649926 C398.095922,336.409381 397.956694,334.093022 397.831733,331.757949 L397.775066,330.679102 C397.710125,329.419382 397.649253,328.156783 397.592221,326.90022 L397.544271,325.824852 C397.530939,325.520496 397.517831,325.216646 397.504941,324.913431 L397.466929,324.005819 C396.950105,311.480406 396.805581,300.268724 396.795811,299.515781 L396.7953,299.477179 L396.792007,299.234155 L396.844698,298.994416 C396.867751,298.895893 399.005047,288.941786 400.424423,259.939897 C401.829604,231.267042 388.961986,185.019832 388.576677,183.642077 L388.56885,183.614125 L388.38443,182.963873 L388.608368,182.326758 C388.609993,182.322204 388.613675,182.311631 388.619321,182.295099 L388.676013,182.124911 C389.621161,179.236551 399.777372,146.101294 384.248152,105.702133 C368.507508,64.755775 311.662362,68.6079318 309.961447,68.736868 L309.926882,68.7395855 L309.294585,68.7954152 L251.222036,37.6687139 L251.340592,60.1877887 C251.346892,61.3155201 250.476388,62.2419344 249.366017,62.3261085 L249.213176,62.3323061 L249.200003,62.3323061 C248.075441,62.3323061 247.152756,61.4639379 247.068884,60.3623761 L247.062706,60.2107774 L246.700067,2.14451741 C246.694136,1.01992728 247.564656,0.0906448894 248.675028,0.00621541666 L248.827869,0 L248.841042,0 Z M342.911967,171.631386 C344.082726,171.804658 344.887416,172.89006 344.709329,174.050655 C342.331535,189.553593 337.120835,210.058534 331.326405,230.262701 C331.333001,230.301933 331.359384,230.334625 331.36598,230.373857 C331.418275,230.720401 331.472186,231.087228 331.527731,231.473384 L331.641007,232.271188 C331.948917,234.465887 332.303686,237.192335 332.70823,240.305938 C335.232022,259.719004 339.908515,295.691499 347.364901,307.641703 L347.591704,307.996435 L348.000645,308.61433 L344.35975,347.051286 C342.232598,369.570105 344.330069,387.453082 344.353155,387.629623 C344.494965,388.796757 343.653997,389.852735 342.479941,389.993314 C342.394195,390.003122 342.30845,390.009661 342.222704,390.009661 C341.154181,390.009661 340.227468,389.215225 340.095551,388.136362 C340.075962,387.955113 337.961853,370.01285 340.028346,347.344069 L340.092253,346.655703 L343.594635,309.670308 C335.722521,296.730487 331.184595,261.837433 328.457222,240.848639 C328.434137,240.662289 328.411051,240.498825 328.387966,240.315745 C323.253712,257.588543 317.955012,273.975703 313.942277,286.037886 L313.501784,287.360155 C310.367358,296.755933 308.091445,303.298496 307.418103,305.223466 L307.383569,305.322162 L318.936152,391.202949 C319.094452,392.366813 318.269974,393.4326 317.095918,393.589525 C316.99698,393.602602 316.904639,393.609141 316.808999,393.609141 C315.803301,393.609141 314.92261,392.906915 314.712644,391.922914 L314.685144,391.765265 L303.000645,304.880809 L303.168838,304.400225 C303.475544,303.537134 333.681114,217.692309 340.471513,173.413145 C340.646302,172.252549 341.744507,171.464652 342.911967,171.631386 Z M63.5297761,173.413145 C70.1843675,216.806726 99.3268886,300.123107 100.775493,304.247662 L100.829153,304.400225 L101.000645,304.880809 L89.3128468,391.765265 C89.1677387,392.834321 88.2509194,393.609141 87.1922898,393.609141 C87.0966504,393.609141 87.001011,393.602602 86.9053716,393.592794 C85.7823611,393.442692 84.9791919,392.458051 85.0471244,391.354152 L85.0618391,391.202949 L96.6144225,305.325432 C95.1897248,301.255175 85.1212015,272.302407 75.6133232,240.315745 C75.5869399,240.498825 75.5671524,240.665559 75.5440671,240.848639 C74.4517988,249.244156 73.0708974,259.864879 71.3032169,270.415299 L71.0351517,271.997048 C68.4571569,287.034108 65.0815775,301.694297 60.623227,309.307457 L60.4066541,309.670308 L63.905738,346.655703 C66.0823595,369.651837 63.9222276,387.956551 63.9024401,388.139631 C63.7705236,389.218494 62.8438106,390.009661 61.7752873,390.009661 C61.6895416,390.009661 61.6037959,390.003122 61.5180502,389.996584 C60.3439938,389.856004 59.5030264,388.796757 59.6448366,387.632892 C59.6676911,387.45488 61.7268838,369.925995 59.7008912,347.725447 L59.6382407,347.051286 L56.0006446,308.61433 L56.4062877,307.996435 C63.9980795,296.419906 68.7437739,259.915095 71.2897615,240.305938 C71.8207252,236.222604 72.2659432,232.799665 72.6353093,230.373857 C72.6419051,230.334625 72.6682884,230.301933 72.6748842,230.262701 C66.8771561,210.058534 61.6697541,189.553593 59.2919601,174.050655 C59.1138728,172.89006 59.9185632,171.807927 61.0893217,171.631386 C62.2534844,171.464652 63.3549868,172.252549 63.5297761,173.413145 Z M212.116274,379.443359 C213.102285,380.170023 213.292568,381.526685 212.538356,382.480015 C210.265342,385.353339 206.784897,387 203,387 C199.215103,387 195.738118,385.353339 193.461644,382.480015 C192.707432,381.526685 192.897715,380.170023 193.883726,379.443359 C194.873196,378.720028 196.284748,378.900028 197.0355,379.850024 C199.875903,383.430012 206.127557,383.430012 208.9645,379.850024 C209.718711,378.900028 211.133723,378.720028 212.116274,379.443359 Z M277.513133,317.710585 C278.637825,318.073296 279.259366,319.291209 278.897623,320.429258 C277.601924,324.542207 276.552869,328.575293 275.625492,332.132529 C274.583014,336.135666 273.685233,339.593073 272.632889,342.524714 C270.733169,347.828123 266.005452,351.291029 260.5315,351.422256 L260.208657,351.426121 L259.178755,351.426913 C258.134886,351.428475 257.051834,351.432286 255.954033,351.437784 L255.220249,351.441693 C254.729961,351.444458 254.237832,351.447531 253.746008,351.450863 L253.008768,351.456049 L252.647054,351.45873 L252.647054,351.45873 L251.925886,351.464328 C251.806007,351.465286 251.686306,351.466256 251.566815,351.467237 L250.852655,351.473253 C244.689579,351.526457 239.268084,351.606069 239.065693,351.609054 L239.059839,351.609141 L239.000645,347.283223 C239.000645,347.283223 247.387048,347.159324 255.2722,347.11541 L255.998377,347.111589 C257.084732,347.106217 258.156233,347.102499 259.18929,347.100975 L260.208657,347.100204 C264.000383,347.100204 267.298823,344.724277 268.614252,341.050574 C269.600824,338.301953 270.475585,334.931065 271.491754,331.031083 C272.432286,327.420606 273.494496,323.33095 274.826368,319.111517 C275.184823,317.976795 276.385152,317.351201 277.513133,317.710585 Z M129.174578,319.116301 C130.506341,323.335545 131.568463,327.42169 132.508918,331.032006 C133.525003,334.931812 134.40298,338.302549 135.386183,341.051048 C136.668622,344.632747 139.836004,346.980804 143.507679,347.095968 L143.791087,347.100406 L144.467747,347.100752 C145.719905,347.102009 147.033343,347.106635 148.364998,347.113642 L149.092902,347.117694 L150.91828,347.129656 L150.91828,347.129656 L151.646602,347.135079 C158.309783,347.186281 164.547551,347.276783 164.977086,347.283071 L165.000645,347.283417 L164.938167,351.609141 C164.935637,351.609141 157.626848,351.50085 150.251454,351.45087 L149.513961,351.446072 C147.916739,351.436126 146.32772,351.429177 144.82054,351.426921 L143.791087,351.42613 C138.181241,351.42613 133.304687,347.932276 131.367876,342.525121 C130.315619,339.593611 129.417912,336.13636 128.37552,332.133402 C127.448218,328.572998 126.39925,324.54342 125.103658,320.430655 C124.741945,319.292657 125.363434,318.0748 126.488034,317.712104 C127.61921,317.349409 128.816153,317.974975 129.174578,319.116301 Z M292.465169,259.699757 C293.605187,260.036545 294.253303,261.212065 293.907641,262.326057 C291.145673,271.21532 288.087898,280.344221 284.4651,286.866252 C281.869315,291.542426 276.046249,293.993855 266.663534,294.366265 C261.907365,294.554089 257.440355,294.609141 253.561634,294.609141 C249.849097,294.609141 246.674994,294.557327 244.281953,294.518467 C242.942515,294.495799 241.882265,294.479607 241.161029,294.479607 C239.967832,294.479607 239.000645,293.537248 239.000645,292.374681 C239.000645,291.212115 239.967832,290.269755 241.161029,290.269755 C241.898883,290.269755 242.982399,290.285947 244.355074,290.308616 C246.599198,290.347634 249.544957,290.396388 252.97371,290.40138 L254.072274,290.40144 C257.785973,290.396373 262.009345,290.336576 266.48738,290.159652 C274.111874,289.858485 278.881338,288.074156 280.666148,284.861715 C283.780632,279.250469 286.51296,271.42642 289.004137,263.549178 L289.516158,261.919353 L289.769674,261.1052 C290.11866,259.994446 291.311856,259.362969 292.465169,259.699757 Z M114.228291,261.103115 C116.92711,269.784825 119.898469,278.670544 123.335142,284.858813 C125.119951,288.074381 129.889415,289.855411 137.51391,290.156567 C146.700528,290.519249 154.800307,290.392958 159.646215,290.308764 C161.01889,290.286096 162.102406,290.269905 162.84026,290.269905 C164.033457,290.269905 165.000645,291.212232 165.000645,292.374758 C165.000645,293.534047 164.033457,294.476373 162.84026,294.476373 C162.119024,294.476373 161.058774,294.495803 159.719336,294.51847 C157.326295,294.557329 154.148868,294.609141 150.439655,294.609141 C146.560934,294.609141 142.093924,294.550853 137.337755,294.363035 C127.95504,293.993876 122.131974,291.539293 119.536189,286.863281 C115.913391,280.344712 112.855616,271.216125 110.093648,262.32393 C109.747986,261.213215 110.396102,260.037735 111.53612,259.700959 C112.689433,259.360944 113.885953,259.995638 114.228291,261.103115 Z M323.311172,158.653191 C324.457682,158.892975 325.193793,160.022918 324.956023,161.175854 C323.617342,167.702589 322.418719,174.22604 321.272209,180.467004 C318.666505,194.637278 316.419085,206.872853 313.389955,215.012385 C307.374036,231.199476 298.267101,240.876255 269.539215,242.433212 L269.057422,242.459038 L269.057422,242.459038 L268.089008,242.509657 C266.631932,242.584559 265.155917,242.654854 263.676011,242.720769 L262.688996,242.764065 C262.359909,242.778282 262.030795,242.792286 261.701819,242.806078 L260.222918,242.866724 C259.894728,242.879887 259.566924,242.892843 259.239672,242.905593 L258.259731,242.943231 C245.709282,243.418415 234.220348,243.593045 233.216861,243.608091 L233.158985,243.608959 L233.147303,243.609141 L233.117989,243.609141 C231.961707,243.609141 231.01714,242.672996 231.000645,241.503637 C230.984569,240.324423 231.919365,239.355431 233.088674,239.339007 L233.098405,239.338856 L233.098405,239.338856 L233.144835,239.338163 C234.043938,239.324778 245.330997,239.155693 257.742916,238.690533 L258.746882,238.652347 L259.75465,238.612859 C261.100395,238.559332 262.453394,238.50229 263.802106,238.441558 L264.812655,238.395313 L265.820514,238.347669 C266.99436,238.29126 268.160504,238.231959 269.311216,238.169648 C295.863339,236.727656 303.892164,228.391042 309.426027,213.514553 C312.321616,205.726487 314.647207,193.077037 317.109597,179.688526 C318.259364,173.421284 319.464502,166.864986 320.809696,160.311974 C321.047467,159.155753 322.154891,158.416691 323.311172,158.653191 Z M83.1915927,160.30777 C84.5367873,166.870709 85.7451825,173.433648 86.8982065,179.707529 C89.3573395,193.089618 91.6829303,205.729353 94.5752616,213.514221 C100.109125,228.390874 108.141208,236.72758 134.690073,238.169588 C135.347753,238.205194 136.010462,238.239818 136.676757,238.273481 L137.67871,238.323258 L138.684963,238.371609 C139.020976,238.387491 139.357526,238.403138 139.694432,238.418552 L140.706037,238.464103 L141.718696,238.508278 C142.393913,238.537273 143.069111,238.565362 143.74285,238.592566 L144.752181,238.632712 C145.956998,238.679916 147.154802,238.724311 148.337277,238.766025 L149.221129,238.796809 C160.523684,239.185465 170.213688,239.328543 170.877802,239.338433 L170.912615,239.33896 C172.081924,239.355384 173.016721,240.324387 173.000645,241.503613 C172.984866,242.622144 172.119964,243.527295 171.03286,243.60389 L170.883301,243.609141 L170.853986,243.609141 C170.852032,243.609108 170.84813,243.609048 170.842304,243.608959 L170.784428,243.608091 C169.763344,243.592779 157.88583,243.412177 145.081862,242.916323 L144.069279,242.876519 L143.561883,242.856121 L143.561883,242.856121 L142.545561,242.814321 C141.867514,242.786006 141.18871,242.756791 140.510598,242.726653 L138.986621,242.657276 C137.465033,242.586325 135.952439,242.51062 134.465331,242.429914 C105.737446,240.87294 96.6305106,231.196054 90.6113346,215.012069 C87.5854609,206.875733 85.3380413,194.646592 82.7355945,180.486016 C81.5858276,174.238413 80.3872038,167.705037 79.0452663,161.174945 C78.8074959,160.021996 79.5436072,158.888756 80.6901169,158.652253 C81.8431409,158.419036 82.9538222,159.154821 83.1915927,160.30777 Z M287.002303,209.609141 C291.411177,209.609141 295.000645,213.195291 295.000645,217.607482 C295.000645,222.019674 291.411177,225.609141 287.002303,225.609141 C282.590112,225.609141 279.000645,222.019674 279.000645,217.607482 C279.000645,213.195291 282.590112,209.609141 287.002303,209.609141 Z M117.002303,209.609141 C121.411177,209.609141 125.000645,213.195291 125.000645,217.607482 C125.000645,222.019674 121.411177,225.609141 117.002303,225.609141 C112.590112,225.609141 109.000645,222.019674 109.000645,217.607482 C109.000645,213.195291 112.590112,209.609141 117.002303,209.609141 Z M287.002303,213.921809 C284.968714,213.921809 283.313313,215.573893 283.313313,217.607482 C283.313313,219.641071 284.968714,221.296472 287.002303,221.296472 C289.032575,221.296472 290.687976,219.641071 290.687976,217.607482 C290.687976,215.573893 289.032575,213.921809 287.002303,213.921809 Z M117.002303,213.921809 C114.968714,213.921809 113.313313,215.573893 113.313313,217.607482 C113.313313,219.641071 114.968714,221.296472 117.002303,221.296472 C119.032575,221.296472 120.687976,219.641071 120.687976,217.607482 C120.687976,215.573893 119.032575,213.921809 117.002303,213.921809 Z M214.18628,95.0436651 C215.094901,95.7558487 215.27025,97.085476 214.575234,98.0198087 C211.457226,102.207971 206.690947,104.609141 201.500645,104.609141 C196.310342,104.609141 191.547251,102.207971 188.426056,98.0198087 C187.73104,97.085476 187.906388,95.7558487 188.815009,95.0436651 C189.723631,94.3347483 191.027583,94.5111608 191.719411,95.4422266 C194.049946,98.5686475 197.614294,100.362174 201.500645,100.362174 C205.386995,100.362174 208.954531,98.5686475 211.281878,95.4422266 C211.976894,94.5111608 213.277658,94.3347483 214.18628,95.0436651 Z M301.609168,74.5094435 C302.290473,75.4661176 302.06008,76.7884828 301.09243,77.4643583 C291.336734,84.2783592 256.103422,98.0430289 234.810766,98.5964356 L234.169842,98.6091409 L234.14022,98.6091409 C232.971798,98.6091409 232.017313,97.6785876 232.000645,96.5162123 C231.9844,95.3440417 232.929011,94.3808374 234.110598,94.3645119 C255.797163,94.070653 290.41865,79.7270721 298.630516,73.9935579 C299.594875,73.3242125 300.931155,73.5495044 301.609168,74.5094435 Z M105.372859,73.996362 C113.584467,79.7324878 148.208162,94.07117 169.890757,94.3682602 C171.072307,94.3813191 172.016889,95.3444136 172.000645,96.5164507 C171.984701,97.6281613 171.110745,98.5277943 170.012261,98.6039217 L169.861136,98.6091409 L169.831515,98.6091409 C148.616274,98.3218449 112.764952,84.3520769 102.911022,77.4700318 C101.943402,76.7942333 101.709725,75.468754 102.391009,74.5121889 C103.072292,73.5523591 104.401948,73.3205635 105.372859,73.996362 Z M203.000645,1.6091409 C204.05505,1.6091409 204.918814,2.47414557 204.995159,3.56857509 L205.000645,3.72641425 L205.000645,37.4886052 C205.000645,38.6597934 204.10526,39.6091409 203.000645,39.6091409 C201.946239,39.6091409 201.082475,38.7441362 201.00613,37.6468693 L201.000645,37.4886052 L201.000645,3.72641425 C201.000645,2.55848843 201.896029,1.6091409 203.000645,1.6091409 Z" id="Combined-Shape"></path>
                <path d="M225.743132,207.292969 C225.801726,202.039062 242.334929,139.345703 246.842121,128.480813 C227.575904,130.277721 208.107057,132.126783 206.402479,132.556768 C203.525545,133.279199 202.173615,133.279199 199.296681,132.556768 C196.423013,131.831052 142.943393,127.063005 125.237678,125.325885 C103.130026,123.155307 83.1743591,131.653728 86.7729755,156.055493 C89.5225536,174.736913 97.196554,213.534767 104.387256,222.210512 C111.577957,230.886257 116.424007,233.404916 135.305314,234.504982 C160.110296,235.949845 167.781031,235.949845 172.153578,235.949845 C179.703488,235.949845 184.748736,243.834199 178.354824,249.505286 C173.773282,253.573888 168.917436,255.199359 164.424064,261.257932 C158.075869,269.812177 158.673462,281.863648 167.300997,290.539393 C173.234469,296.502736 188.624922,303.198362 189.232311,311.86754 C189.758062,319.370976 174.850908,320.907784 177.006159,340.791068 C178.857716,357.837167 199.13667,363.222565 202.173615,363.928578 C202.598134,364.023807 203.101026,364.023807 203.525545,363.928578 C206.56249,363.222565 226.84471,357.837167 228.689736,340.791068 C230.848252,320.907784 215.944364,319.370976 216.466849,311.86754 C217.074238,303.198362 232.467956,296.502736 238.398163,290.539393 C247.025699,281.863648 247.623291,269.812177 241.275096,261.257932 C236.781724,255.199359 231.929144,253.573888 227.344336,249.505286 C220.950425,243.834199 225.995672,235.949845 233.545582,235.949845 C237.918129,235.949845 245.588864,235.949845 270.393846,234.504982 C289.278419,233.404916 294.121203,230.886257 301.311904,222.210512 C308.502606,213.534767 316.176607,174.736913 318.92945,156.055493 C321.088519,141.3885 322.054816,132.793435 311.846648,128.480813 C308.260711,132.25293 286.631804,204.625977 283.663223,207.292969 L225.743132,207.292969 Z" id="Fill-37" opacity="0.5"></path>
                <path d="M327.350554,155.764442 C327.350554,148.413823 325.060193,141.641456 321.216755,136.12424 C322.640124,133.607137 323.51053,130.71247 323.51053,127.579697 C323.51053,118.259615 316.284457,110.701505 307.368774,110.701505 C306.218473,110.701505 305.112546,110.87158 304.030513,111.113085 L275.931774,206.324187 L224.451553,206.324187 L257.366536,94.7995401 C253.151043,91.1769535 247.754528,89 241.869904,89 C230.947168,89 221.703803,96.4968836 218.580583,106.834011 C201.138339,113.228812 188.611326,130.545797 188.611326,150.96494 C188.611326,154.417452 188.993621,157.771321 189.672879,161.009539 C182.105471,162.410953 176.350554,169.281963 176.350554,177.591802 C176.350554,183.561417 179.33724,188.782704 183.812148,191.779416 C182.259072,197.184384 181.40232,202.902288 181.40232,208.837888 C181.40232,241.509197 206.736241,268 237.985506,268 C253.980488,268 268.398499,261.033749 278.686352,249.876862 C279.741078,249.98571 280.806045,250.046937 281.888079,250.046937 C299.234749,250.046937 313.348972,235.76068 314.157937,217.831427 C319.264316,213.572761 322.54455,207.021492 322.54455,199.660668 C322.54455,192.684213 319.591998,186.442479 314.939595,182.180412 C322.479697,176.061132 327.350554,166.516551 327.350554,155.764442" id="Fill-39"></path>
                <polygon id="Fill-41" points="337.850554 60 342.621271 77.7279764 360.350554 82.5016587 342.621271 87.2720236 337.850554 105 333.07652 87.2720236 315.350554 82.5016587 333.07652 77.7279764"></polygon>
                <polygon id="Fill-43" points="360.848896 131 365.622578 148.725966 383.350554 153.5 365.622578 158.274034 360.848896 176 356.078531 158.274034 338.350554 153.5 356.078531 148.725966"></polygon>
            </g>
        </g>
    </g>
</svg>