<?xml version="1.0" encoding="UTF-8"?>
<svg width="403px" height="411px" viewBox="0 0 403 411" version="1.1" xmlns="http://www.w3.org/2000/svg" xmlns:xlink="http://www.w3.org/1999/xlink">
    <title>AE0CE72E-9AD6-4847-B256-66A7489D773A</title>
    <g id="Design-" stroke="none" stroke-width="1" fill="none" fill-rule="evenodd">
        <g id="v2.Summary/6" transform="translate(-519.000000, -348.000000)" fill="#FFFFFF">
            <g id="Icon" transform="translate(519.000000, 348.000000)">
                <path d="M296.550472,128.321903 L269.62777,194.686379 L270.042569,194.852952 C270.042569,194.852952 278.31894,199.559444 278.051117,209.086742 C277.838819,216.546581 272.028375,218.617306 272.028375,218.617306 L261.811923,214.469323 L254.82894,231.685089 L254.646036,231.613234 L254.469665,232.047629 L210.794988,214.328879 L244.743133,130.647387 C225.636278,132.420895 206.477165,134.233597 204.788577,134.651661 C201.911117,135.373476 200.555673,135.373476 197.68148,134.651661 C194.80402,133.936379 141.314625,129.190694 123.60894,127.462911 C101.49398,125.304 81.5379315,133.756742 85.1339395,158.027347 C87.8872863,176.608355 95.5626895,215.200935 102.754706,223.826782 C109.943456,232.459161 114.790391,234.95775 133.675149,236.051903 C158.487931,237.492266 166.160069,237.492266 170.533415,237.492266 C178.084706,237.492266 183.130875,245.334242 176.735794,250.978113 C172.150149,255.021581 167.296681,256.638315 162.802488,262.664323 C156.449867,271.172589 157.050835,283.156016 165.679948,291.788395 C171.611238,297.719685 187.004504,304.376056 187.612004,313.001903 C188.137851,320.465008 173.231238,321.993556 175.386883,341.769968 C177.235512,358.724444 197.52144,364.080895 200.555673,364.779847 C200.98027,364.881097 201.48652,364.881097 201.911117,364.779847 C204.948617,364.080895 225.231278,358.724444 227.079907,341.769968 C229.238819,321.993556 214.32894,320.465008 214.854786,313.001903 C215.462286,304.376056 230.855552,297.719685 236.790109,291.788395 C245.419222,283.156016 246.016923,271.172589 239.664302,262.664323 C235.173375,256.638315 230.316641,255.021581 225.730996,250.978113 C219.335915,245.334242 224.382085,237.492266 231.933375,237.492266 C236.309988,237.492266 243.978859,237.492266 268.791641,236.051903 C287.676399,234.95775 292.523335,232.459161 299.715351,223.826782 C306.904101,215.200935 314.58277,176.608355 317.332851,158.027347 C319.916359,140.602548 310.333536,131.365935 296.550472,128.321903" id="Fill-41" opacity="0.3"></path>
                <path d="M154.706081,0.265149194 C155.878621,0.274947581 156.822532,1.22865726 156.816034,2.40446371 L156.816034,2.40446371 L156.456726,63.5627298 C156.450194,64.732004 155.49975,65.6759153 154.333742,65.6759153 L154.333742,65.6759153 L154.320677,65.6759153 C153.148137,65.6661169 152.204226,64.7124073 152.210758,63.5398669 L152.210758,63.5398669 L152.341403,41.1342218 L94.7334194,72.1003911 L94.1063226,72.0448669 C94.0890774,72.0438871 94.0207229,72.0390271 93.9039152,72.0316313 L93.6064828,72.0138571 C87.8991587,71.6915126 35.3798528,69.7250988 20.3963226,108.805149 C4.32370161,150.73898 15.951121,184.667528 16.0687016,185.007206 L16.0687016,185.007206 L16.2940645,185.640835 L16.1111613,186.290794 C15.9805161,186.757851 2.94866129,233.404706 4.3563629,262.202165 C5.76079839,291.042085 7.88378226,300.941722 7.90337903,301.03644 L7.90337903,301.03644 L7.9556371,301.278133 L7.95237097,301.523093 L7.95237097,301.523093 L7.95205214,301.561288 C7.94390835,302.364932 7.77722174,315.222961 7.16237436,328.791528 L7.11289742,329.864 C7.07928503,330.57969 7.04441009,331.296521 7.00823037,332.01284 L6.95297692,333.086726 C6.82174423,335.590601 6.67426935,338.078066 6.50874194,340.478214 C5.03898387,361.799504 9.50378226,399.291399 12.1591452,407.260754 C12.5282177,408.371238 11.92725,409.573173 10.8167661,409.942246 C10.5914032,410.020633 10.3660403,410.053294 10.1439435,410.053294 C9.25555645,410.053294 8.42595968,409.488254 8.12874194,408.599867 C5.0651129,399.405714 0.861604839,360.653093 2.27257258,340.184262 C2.32809677,339.380958 2.38157147,338.567708 2.43306649,337.747219 L2.49391473,336.759331 C2.56380614,335.603145 2.62987211,334.434893 2.69230421,333.262001 L2.74493197,332.255701 C2.77080536,331.752156 2.79602135,331.248149 2.82059503,330.744264 L2.86889044,329.736829 C2.91633836,328.729903 2.96125724,327.725025 3.00376772,326.72687 L3.04547987,325.731129 L3.04547987,325.731129 L3.08561322,324.74091 C3.53817145,313.389126 3.68285444,303.338865 3.7031371,301.70273 C3.69964234,301.685419 3.69599081,301.667238 3.69218466,301.648179 L3.66750975,301.523218 C3.23916322,299.330538 1.39676008,288.722447 0.11366129,262.404665 C-1.25158065,234.423738 10.2092661,191.719101 11.8488629,185.77148 C10.1994677,180.653456 0.845274194,147.949706 16.4312419,107.286399 C23.4566855,88.9666815 39.2288226,76.3300282 62.0492661,70.7449476 C77.308621,67.0150282 90.7422097,67.5735363 93.8221694,67.7662379 L93.8221694,67.7662379 L150.809589,37.1364798 C151.30604,36.8719234 151.861282,36.835996 152.367532,36.9699073 L152.367532,36.9699073 L152.570032,2.37833468 C152.576565,1.21232661 153.523742,0.265149194 154.693016,0.265149194 L154.693016,0.265149194 Z M61.2448185,173.907266 C62.4075605,173.747226 63.4853831,174.527831 63.661754,175.687306 C70.3867137,219.920492 100.30119,305.68904 100.601673,306.548032 L100.601673,306.548032 L100.771512,307.028153 L89.1963508,393.828798 C89.0526411,394.893556 88.1446573,395.674161 87.0962298,395.674161 C87.0015121,395.674161 86.9067944,395.667629 86.8120766,395.654565 C85.6493347,395.49779 84.8328024,394.429766 84.9863105,393.267024 L84.9863105,393.267024 L96.4275605,307.472347 C95.0165927,303.406016 85.0451008,274.481177 75.6288508,242.525371 C75.6059879,242.71154 75.583125,242.874847 75.5602621,243.061016 C74.5866944,250.609694 73.3815868,259.958625 71.8740807,269.436304 L71.6200175,271.016823 C68.9655138,287.355244 65.4024048,303.800107 60.5687298,311.813032 L60.5687298,311.813032 L64.0373589,348.76275 C66.1897379,371.733435 64.0536895,390.020492 64.0308266,390.203395 C63.9034476,391.281218 62.9856653,392.074887 61.9274395,392.074887 C61.8425202,392.074887 61.7576008,392.068355 61.6726815,392.058556 C60.5066734,391.918113 59.6770766,390.863153 59.814254,389.697145 C59.8371169,389.520774 61.9176411,371.655048 59.8109879,349.157952 L59.8109879,349.157952 L56.2051815,310.758073 L56.6069153,310.137508 C64.1255444,298.575411 68.8222379,262.109081 71.3469556,242.518839 C71.8728024,238.436177 72.3137298,235.01654 72.6795363,232.593073 C72.6860685,232.550613 72.7121976,232.521218 72.7187298,232.482024 C66.976875,212.294081 61.8196573,191.812185 59.4647782,176.324202 C59.2884073,175.167992 60.0853427,174.083637 61.2448185,173.907266 Z" id="Fill-5"></path>
                <path d="M170.273431,241.571008 C170.077464,241.571008 150.434964,241.290121 133.95081,240.408266 C107.328593,238.974435 99.2743185,230.685 93.7251653,215.892702 C90.8215766,208.151976 88.4928266,195.583911 86.0268992,182.277702 C84.8674234,176.039395 83.6589556,169.513669 82.3100444,162.987944 C82.0716169,161.844798 80.9513347,161.106653 79.7983911,161.341815 C78.6519798,161.580242 77.9138347,162.70379 78.148996,163.850202 C79.4946411,170.343266 80.6998427,176.839597 81.8495202,183.048508 C84.4624234,197.132056 86.7160524,209.291855 89.7502863,217.385323 C95.7828266,233.474274 104.914923,243.09629 133.725448,244.647702 C150.29452,245.536089 170.018673,245.816976 170.214641,245.820242 L170.244036,245.820242 C171.403512,245.820242 172.35069,244.889395 172.36723,243.723387 C172.383351,242.554113 171.445972,241.590605 170.273431,241.571008" id="Fill-6"></path>
                <path d="M102.01656,78.5101694 C101.340472,79.4704113 101.572367,80.7931935 102.532609,81.4660161 C112.314665,88.3542823 147.892609,102.330048 168.94281,102.620734 L168.972206,102.620734 C170.131681,102.620734 171.078859,101.689887 171.0954,100.523879 C171.11152,99.3546048 170.174141,98.3910968 169.001601,98.3715 C147.487609,98.0775484 113.124665,83.7327097 104.975673,77.9973871 C104.015431,77.3212984 102.692649,77.5499274 102.01656,78.5101694" id="Fill-8"></path>
                <path d="M149.908137,297.277125 C153.543339,297.277125 156.65596,297.224867 159.00104,297.18894 C160.31729,297.166077 161.355919,297.149746 162.064669,297.149746 C163.23721,297.149746 164.187653,296.199302 164.187653,295.026762 C164.187653,293.850956 163.23721,292.900512 162.064669,292.900512 C161.339589,292.900512 160.274831,292.920109 158.932452,292.942972 C154.167169,293.021359 146.201081,293.148738 137.176766,292.789464 C129.684266,292.485714 124.997371,290.689343 123.24346,287.446077 C119.863016,281.197972 116.946363,272.23898 114.294266,263.485754 C113.954589,262.368738 112.77225,261.722044 111.648702,262.07152 C110.525153,262.407931 109.891524,263.593536 110.231202,264.717085 C112.945355,273.682609 115.950194,282.889827 119.507008,289.46781 C122.061121,294.187367 127.783379,296.663093 137.003661,297.032165 C141.690556,297.218335 146.086766,297.277125 149.908137,297.277125" id="Fill-10"></path>
                <path d="M134.838871,343.235806 C133.859032,340.537984 132.990242,337.229395 131.981008,333.401492 C131.046895,329.861008 129.991935,325.846935 128.669153,321.705484 C128.313145,320.588468 127.124274,319.964637 126.000726,320.327177 C124.88371,320.686452 124.266411,321.878589 124.625685,322.995605 C125.91254,327.03254 126.954435,330.991089 127.875484,334.482581 C128.910847,338.411734 129.8025,341.805242 130.844395,344.682702 C132.768145,349.986895 137.611815,353.419597 143.187097,353.419597 C151.920726,353.419597 164.18504,353.6025 164.188306,353.6025 L164.253629,349.353266 C164.253629,349.353266 151.946855,349.170363 143.187097,349.170363 C139.42125,349.170363 136.142056,346.841613 134.838871,343.235806" id="Fill-12"></path>
                <path d="M120.538452,219.843738 C120.538452,221.845875 118.908653,223.472407 116.906516,223.472407 C114.904379,223.472407 113.277847,221.845875 113.277847,219.843738 C113.277847,217.841601 114.904379,216.215069 116.906516,216.215069 C118.908653,216.215069 120.538452,217.841601 120.538452,219.843738 M109.031879,219.843738 C109.031879,224.18769 112.565831,227.721641 116.906516,227.721641 C121.250468,227.721641 124.784419,224.18769 124.784419,219.843738 C124.784419,215.499786 121.250468,211.965835 116.906516,211.965835 C112.565831,211.965835 109.031879,215.499786 109.031879,219.843738" id="Fill-14"></path>
                <path d="M390.619234,185.772786 C392.268629,180.654762 401.626089,147.951012 386.036855,107.287706 C379.011411,88.9647218 363.239274,76.3280685 340.418831,70.7429879 C325.15621,67.0163347 311.725887,67.5748427 308.645927,67.7675444 L251.658508,37.1377863 C251.162056,36.8732298 250.606815,36.8307702 250.100565,36.9679476 L249.898065,2.37964113 C249.891532,1.21036694 248.944355,0.266455645 247.775081,0.266455645 L247.762016,0.266455645 C246.589476,0.276254032 245.645565,1.22996371 245.652063,2.40250403 L246.011371,63.5640363 C246.017903,64.7300444 246.968347,65.6739556 248.134355,65.6739556 L248.147419,65.6739556 C249.31996,65.6674234 250.263871,64.7137137 250.257339,63.5379073 L250.126694,41.1355282 L307.734677,72.0984315 L308.361774,72.0461734 C308.933347,71.9906492 366.283306,67.6271008 382.071774,108.806456 C398.115,150.655367 386.516976,184.672101 386.396129,185.011778 L386.174032,185.645407 L386.356935,186.292101 C386.487581,186.759157 399.519435,233.406012 398.111734,262.200206 C396.707298,291.040125 394.584315,300.943028 394.564718,301.037746 L394.51246,301.276173 L394.515726,301.521133 C394.515726,301.736698 394.777016,323.335609 395.959355,340.476254 C397.429113,361.804077 392.964315,399.295972 390.308952,407.258794 C389.939879,408.369278 390.540847,409.571214 391.651331,409.943552 C391.876694,410.018673 392.102056,410.054601 392.324153,410.054601 C393.21254,410.054601 394.042137,409.48956 394.339355,408.601173 C397.402984,399.40702 401.606492,360.657665 400.195524,340.182302 C399.08504,324.116214 398.794355,304.075246 398.76496,301.704036 C399.114435,299.972988 401.031653,289.537706 402.354435,262.405972 C403.719677,234.425044 392.258831,191.717141 390.619234,185.772786" id="Fill-16"></path>
                <path d="M331.120815,242.518512 C330.594968,238.435851 330.15404,235.016214 329.788234,232.592746 C329.781702,232.550286 329.758839,232.520891 329.74904,232.481698 C335.490895,212.293754 340.648113,191.811859 343.002992,176.323875 C343.179363,175.167665 342.382427,174.08331 341.222952,173.90694 C340.07654,173.746899 338.982387,174.527504 338.806016,175.68698 C332.081056,219.920165 302.166581,305.688714 301.866097,306.547706 L301.696258,307.027827 L313.271419,393.828472 C313.415129,394.896496 314.323113,395.673835 315.37154,395.673835 C315.466258,395.673835 315.560976,395.667302 315.655694,395.654238 C316.818435,395.497464 317.634968,394.42944 317.48146,393.266698 L306.04021,307.47202 C307.451177,303.40569 317.422669,274.480851 326.838919,242.525044 C326.865048,242.711214 326.884645,242.87452 326.907508,243.06069 C329.611863,264.029238 334.10279,298.888633 341.89904,311.812706 L338.433677,348.762423 C336.278032,371.736375 338.417347,390.020165 338.436944,390.203069 C338.567589,391.280891 339.485371,392.07456 340.543597,392.07456 C340.628516,392.07456 340.713435,392.068028 340.798355,392.05823 C341.964363,391.917786 342.79396,390.862827 342.653516,389.700085 C342.630653,389.520448 340.546863,371.687383 342.660048,349.157625 L346.262589,310.761012 L345.860855,310.137181 C338.342226,298.575085 333.645532,262.108754 331.120815,242.518512" id="Fill-19"></path>
                <path d="M312.720097,217.384669 C315.751065,209.291202 318.00796,197.131403 320.617597,183.047855 C321.022597,180.875879 321.440661,178.635315 321.861992,176.404548 L324.58921,175.672935 L322.123282,175.006645 C322.822234,171.319185 323.540782,167.595798 324.318121,163.849548 C324.556548,162.703137 323.815137,161.579589 322.668726,161.341161 C321.502718,161.106 320.3955,161.840879 320.157073,162.990556 C319.399331,166.648621 318.697113,170.290355 318.011226,173.902694 L307.135016,170.96971 L302.438323,153.518782 L297.738363,170.96971 L280.284169,175.672935 L297.738363,180.369629 L302.438323,197.823823 L307.135016,180.369629 L317.312274,177.629347 C317.021589,179.180758 316.724371,180.755032 316.443484,182.277048 C313.97429,195.583258 311.64554,208.151323 308.745218,215.892048 C303.192798,230.684347 295.14179,238.973782 268.516306,240.407613 C252.032153,241.289468 232.389653,241.570355 232.193685,241.570355 C231.021145,241.589952 230.083766,242.55346 230.099887,243.722734 C230.116427,244.888742 231.063605,245.819589 232.223081,245.819589 L232.252476,245.819589 C232.448444,245.816323 252.172597,245.535435 268.744935,244.650315 C297.552194,243.095637 306.68429,233.476887 312.720097,217.384669" id="Fill-21"></path>
                <path d="M233.495891,102.620407 L233.525286,102.620407 C254.575488,102.329722 290.153431,88.3539556 299.935488,81.4656895 C300.89573,80.7928669 301.127625,79.4700847 300.451536,78.5098427 C299.772181,77.5528669 298.452665,77.3242379 297.492423,77.9970605 C289.343431,83.7323831 254.980488,98.0772218 233.466496,98.3711734 C232.293956,98.3907702 231.356577,99.3542782 231.372697,100.523552 C231.389238,101.68956 232.336415,102.620407 233.495891,102.620407" id="Fill-23"></path>
                <path d="M290.820375,262.07054 C289.696827,261.724331 288.514488,262.367758 288.171544,263.48804 C285.522714,272.238 282.60606,281.196992 279.225617,287.448363 C277.471706,290.691629 272.78481,292.488 265.29231,292.788484 C256.267996,293.157556 248.298641,293.023645 243.536625,292.941992 C242.19098,292.919129 241.129488,292.899532 240.404407,292.899532 C239.231867,292.899532 238.281423,293.849976 238.281423,295.025782 C238.281423,296.198323 239.231867,297.148766 240.404407,297.148766 C241.113157,297.148766 242.151786,297.165097 243.46477,297.18796 C245.809851,297.227153 248.922472,297.276145 252.56094,297.276145 C256.38231,297.276145 260.77852,297.220621 265.465415,297.031185 C274.685698,296.662113 280.407956,294.186387 282.958802,289.470097 C286.518883,282.888847 289.523722,273.684895 292.237875,264.719371 C292.577552,263.595823 291.940657,262.410218 290.820375,262.07054" id="Fill-25"></path>
                <path d="M276.467371,320.328157 C275.350355,319.965617 274.154952,320.589448 273.798944,321.706464 C272.476161,325.844649 271.421202,329.861988 270.487089,333.402472 C269.477855,337.230375 268.609065,340.535698 267.629226,343.236786 C266.32604,346.842593 263.046847,349.171343 259.281,349.171343 C250.521242,349.171343 238.214468,349.354246 238.214468,349.354246 L238.27979,353.60348 C238.27979,353.60348 250.544105,353.420577 259.281,353.420577 C264.856282,353.420577 269.699952,349.987875 271.623702,344.683681 C272.665597,341.802956 273.55725,338.412714 274.592613,334.48356 C275.513661,330.992069 276.555556,327.03352 277.842411,322.993319 C278.201685,321.879569 277.584387,320.684165 276.467371,320.328157" id="Fill-27"></path>
                <path d="M285.560927,216.214089 C287.563065,216.214089 289.189597,217.840621 289.189597,219.842758 C289.189597,221.848161 287.563065,223.474694 285.560927,223.474694 C283.55879,223.474694 281.928992,221.848161 281.928992,219.842758 C281.928992,217.840621 283.55879,216.214089 285.560927,216.214089 M285.560927,227.720661 C289.904879,227.720661 293.435565,224.18671 293.435565,219.842758 C293.435565,215.498806 289.904879,211.964855 285.560927,211.964855 C281.216976,211.964855 277.683024,215.498806 277.683024,219.842758 C277.683024,224.18671 281.216976,227.720661 285.560927,227.720661" id="Fill-29"></path>
                <path d="M201.234702,43.2908468 C202.407242,43.2908468 203.357685,42.3404032 203.357685,41.1678629 L203.357685,7.36669355 C203.357685,6.19415323 202.407242,5.24370968 201.234702,5.24370968 C200.062161,5.24370968 199.111718,6.19415323 199.111718,7.36669355 L199.111718,41.1678629 C199.111718,42.3404032 200.062161,43.2908468 201.234702,43.2908468" id="Fill-31"></path>
                <path d="M211.254859,97.9475565 C208.870585,101.073242 205.215786,102.866347 201.234375,102.866347 C197.249698,102.866347 193.598165,101.073242 191.213891,97.9475565 C190.501875,97.0199758 189.17256,96.8403387 188.238448,97.5490887 C187.304335,98.2611048 187.127964,99.5936855 187.83998,100.524532 C191.034254,104.71171 195.917117,107.115581 201.234375,107.115581 C206.551633,107.115581 211.434496,104.71171 214.62877,100.524532 C215.340786,99.5936855 215.161149,98.2611048 214.230302,97.5490887 C213.29619,96.8403387 211.966875,97.0199758 211.254859,97.9475565" id="Fill-33"></path>
                <path d="M206.570903,387.044722 C203.892677,390.55581 197.990782,390.552544 195.30929,387.044722 C194.597274,386.110609 193.26796,385.937504 192.333847,386.646254 C191.403,387.35827 191.223363,388.690851 191.935379,389.621698 C194.084492,392.437101 197.370218,394.053835 200.940097,394.053835 C204.513242,394.053835 207.795702,392.437101 209.944815,389.621698 C210.656831,388.690851 210.477194,387.35827 209.546347,386.646254 C208.6155,385.937504 207.286185,386.110609 206.570903,387.044722" id="Fill-35"></path>
                <path d="M203.357359,226.704569 L203.357359,136.092351 C203.357359,134.916544 202.406915,133.966101 201.234375,133.966101 C200.061835,133.966101 199.111391,134.916544 199.111391,136.092351 L199.111391,226.704569 C199.111391,227.877109 200.061835,228.827552 201.234375,228.827552 C202.406915,228.827552 203.357359,227.877109 203.357359,226.704569" id="Fill-37"></path>
                <polygon id="Fill-39" points="276.084581 114.99577 271.384621 97.5415766 266.687927 114.99577 249.233734 119.692464 266.687927 124.392423 271.384621 141.846617 276.084581 124.392423 293.538774 119.692464"></polygon>
                <path d="M273.756157,215.936468 L235.950714,200.598726 C237.685028,198.838282 238.517891,196.143726 238.432972,192.590177 C238.331722,188.412798 236.992609,184.882113 235.379141,182.102637 L270.770915,196.463806 L270.813375,196.35929 C271.228173,196.600984 277.953133,200.65425 277.724504,208.666065 C277.597125,213.179855 275.007085,215.211387 273.756157,215.936468 L273.756157,215.936468 Z M232.792367,197.747395 C231.917044,198.524734 230.839222,198.472476 230.600794,198.449613 C228.96773,197.378323 228.66398,196.03921 228.66398,194.883 C228.66398,193.82804 229.225754,192.795944 229.77773,192.054532 L234.144544,193.997879 C234.026964,195.745258 233.576238,197.045177 232.792367,197.747395 L232.792367,197.747395 Z M255.456036,228.563323 L215.717044,212.438444 L228.761964,180.286669 C230.417891,182.08304 232.674786,185.127073 233.674222,189.141145 L230.104343,187.55054 C229.353133,187.214129 228.471278,187.341508 227.847448,187.883685 C227.497972,188.187435 224.421278,190.970177 224.421278,194.883 C224.421278,198.002153 225.815915,202.065218 232.413496,203.747274 L260.845149,215.279976 L255.456036,228.563323 Z M272.639141,192.528121 L228.964464,174.806105 C228.650915,174.681992 228.334101,174.655863 228.020552,174.678726 C227.697206,174.659129 227.370593,174.688524 227.070109,174.819169 C226.547528,175.041266 226.139262,175.452798 225.926964,175.978645 L210.984423,212.810782 C210.543496,213.895137 211.066077,215.136266 212.153698,215.577194 L255.828375,233.295944 C256.083133,233.40046 256.354222,233.452718 256.62531,233.452718 C256.906198,233.452718 257.190351,233.397194 257.451641,233.286145 C257.970956,233.064048 258.382488,232.64925 258.594786,232.126669 L264.780835,216.877113 L273.02781,220.221629 C273.282569,220.326145 273.553657,220.378403 273.824746,220.378403 C274.06644,220.378403 274.308133,220.33921 274.536762,220.25429 C274.830714,220.149774 281.722246,217.602194 281.970472,208.790177 C282.270956,198.103403 273.27277,192.867798 272.639141,192.528121 L272.639141,192.528121 Z" id="Fill-43"></path>
            </g>
        </g>
    </g>
</svg>