<?xml version="1.0" encoding="UTF-8"?>
<svg width="293px" height="409px" viewBox="0 0 293 409" version="1.1" xmlns="http://www.w3.org/2000/svg" xmlns:xlink="http://www.w3.org/1999/xlink">
    <title>0C4D6319-E5AA-4C57-BBAB-AC0EE0FFB321</title>
    <g id="Design-" stroke="none" stroke-width="1" fill="none" fill-rule="evenodd">
        <g id="v2.Summary/7" transform="translate(-573.000000, -348.000000)" fill="#FFFFFF">
            <g id="Icon" transform="translate(573.000000, 348.000000)">
                <path d="M287.30345,209.046656 C284.360006,223.763878 279.112283,231.1651 269.842728,240.434656 C263.29045,246.986933 255.872839,253.145878 252.768783,255.659933 C254.673172,243.689489 256.187506,231.178211 257.233117,218.112989 C257.698561,212.288378 257.996839,206.598156 258.213172,200.970211 C258.632728,200.432656 259.140783,199.662378 259.75045,198.5676 C260.471561,198.583989 261.182839,198.269322 261.599117,197.617044 C266.971394,189.173489 275.165839,181.300267 280.502061,183.945433 C287.886894,187.639489 289.204561,199.547656 287.30345,209.046656" id="Path" opacity="0.25"></path>
                <path d="M5.04745,209.049933 C3.14961667,199.547656 4.46728333,187.639489 11.8488389,183.945433 C17.1817833,181.313378 25.3795056,189.173489 30.7517833,197.617044 C31.1615056,198.262767 31.8662278,198.574156 32.5775056,198.5676 C32.6955056,198.872433 32.8036722,199.177267 32.9118389,199.485378 C33.1248944,205.591878 33.4297278,211.773767 33.9377833,218.112989 C34.9506167,230.778322 36.40595,242.915933 38.2283944,254.555322 C34.63595,251.595489 28.2377278,246.167489 22.5081722,240.434656 C13.2386167,231.1651 7.99417222,223.763878 5.04745,209.049933" id="Path" opacity="0.15"></path>
                <path d="M219.870711,57.4363222 C201.233267,37.2484889 176.685989,27.0119889 146.910656,27.0119889 L146.527156,27.0119889 L146.527156,408.2536 L146.910656,408.2536 C204.874878,408.2536 248.262822,334.113544 257.453711,219.368378 C263.212767,147.437544 249.865656,89.9289333 219.870711,57.4363222" id="Fill-3" opacity="0.25"></path>
                <path d="M146.492083,27.0113333 C116.71675,27.0113333 92.1694722,37.2478333 73.5320278,57.4356667 C43.5370833,89.9282778 30.19325,147.436889 35.9523056,219.371 C45.1431944,334.112889 88.5311389,408.256222 146.492083,408.256222 L146.524861,408.256222 L146.524861,27.0113333 L146.492083,27.0113333 Z" id="Fill-5" opacity="0.15"></path>
                <path d="M287.30345,209.046656 C284.360006,223.763878 279.112283,231.1651 269.842728,240.434656 C263.29045,246.986933 255.872839,253.145878 252.768783,255.659933 C254.673172,243.689489 256.187506,231.178211 257.233117,218.112989 C257.698561,212.288378 257.996839,206.598156 258.213172,200.970211 C258.632728,200.435933 259.140783,199.662378 259.75045,198.5676 C260.471561,198.583989 261.182839,198.269322 261.599117,197.617044 C266.971394,189.173489 275.165839,181.300267 280.502061,183.945433 C287.886894,187.639489 289.204561,199.547656 287.30345,209.046656 M5.04745,209.049933 C3.14961667,199.547656 4.46728333,187.639489 11.8488389,183.945433 C17.1817833,181.313378 25.3795056,189.173489 30.7517833,197.617044 C31.1615056,198.262767 31.8662278,198.574156 32.5775056,198.5676 C32.6955056,198.872433 32.8036722,199.177267 32.9118389,199.485378 C33.1248944,205.591878 33.4297278,211.773767 33.9377833,218.112989 C34.9506167,230.778322 36.40595,242.919211 38.2283944,254.555322 C34.63595,251.595489 28.2410056,246.167489 22.5081722,240.434656 C13.2386167,231.1651 7.99417222,223.763878 5.04745,209.049933 M218.03745,350.633544 C213.684561,358.464156 209.023561,365.413044 204.11345,371.549044 C201.815728,364.436267 199.091894,357.726656 198.288839,356.523711 C197.207172,354.901211 189.356894,355.442044 187.193561,356.251656 C185.02695,357.064544 185.567783,368.431878 183.40445,376.554211 C181.36895,384.178322 180.156172,390.894489 171.224228,392.792322 C162.292283,394.686878 155.799006,391.979433 152.278672,388.4591 C148.810783,384.991211 146.909672,380.651433 146.296728,379.084656 L146.296728,378.448767 C146.296728,378.448767 146.250839,378.5766 146.17545,378.776544 C146.100061,378.5766 146.054172,378.448767 146.054172,378.448767 L146.054172,379.084656 C145.441228,380.651433 143.543394,384.991211 140.072228,388.4591 C136.555172,391.979433 130.058617,394.686878 121.126672,392.792322 C112.194728,390.894489 110.98195,384.178322 108.94645,376.554211 C106.783117,368.431878 107.32395,357.064544 105.160617,356.251656 C102.994006,355.442044 95.1437278,354.901211 94.0620611,356.523711 C93.22295,357.788933 90.2565611,365.114767 87.8965611,372.611044 C82.6750611,366.225933 77.73545,358.913211 73.13345,350.633544 C54.5550056,317.236267 42.4698389,271.291656 38.1857833,217.7721 C34.4786167,171.5161 38.7725056,131.4256 50.30045,100.263767 C60.8811167,113.646933 77.8600056,113.410933 88.5947278,111.673711 C107.402617,108.625378 143.936728,87.5394333 171.75195,75.8705444 C197.53495,65.0571556 229.385117,85.9398778 239.156172,95.6912667 C251.998506,127.446378 256.872561,169.238044 252.985117,217.7721 C248.701061,271.291656 236.615894,317.236267 218.03745,350.633544 M282.40645,180.136656 C280.643006,179.254933 278.797617,179.0386 276.926006,179.287711 C276.932561,179.241822 276.955506,179.199211 276.962061,179.153322 C278.407561,169.047933 277.325894,107.8846 269.747672,92.3643222 C265.447228,83.5667667 259.114561,79.9579333 254.024172,79.9218778 C249.894172,62.3792111 235.258894,32.6432111 191.031839,29.7817111 C194.640672,27.9559889 198.295394,26.7366556 204.79195,26.1499333 C193.893339,23.0852111 190.648339,18.7519889 183.453617,16.4608222 C164.11145,10.3018778 143.749894,11.7244333 136.771506,13.1568222 C138.03345,10.2297667 142.556783,5.69987778 143.897394,5.89654444 C126.505506,3.32348889 115.370894,-1.00645556 102.92845,0.645544444 C86.67395,2.80232222 73.5693944,9.15137778 67.8463944,13.3403778 C49.0122833,27.1299889 37.9858389,49.2582667 41.4406167,76.5556 C33.1970056,78.8369333 21.6657833,95.5208222 18.5912278,109.867656 C14.2612833,130.075156 14.2612833,149.564822 15.7035056,164.721267 L16.5458944,179.471267 C14.2907833,178.940267 12.0586167,179.077933 9.94445,180.136656 C0.511005556,184.8501 -1.40977222,198.472544 0.871561111,209.885767 C4.01167222,225.583044 9.83956111,233.793878 19.4958944,243.450211 C26.5398389,250.497433 34.5703944,257.0956 37.3991167,259.373656 C37.6515056,269.816656 38.0153389,293.419933 39.6640611,304.292322 C42.3715056,322.152933 52.1163389,340.072544 60.7762278,349.758378 C66.2468389,355.881267 71.1405611,360.096489 75.34595,362.866211 C94.1800611,391.697544 118.17995,407.827489 145.375672,407.827489 L145.795228,407.827489 C172.584506,407.827489 196.269728,392.149878 214.972728,364.1216 C219.60095,361.450211 225.199394,356.8941 231.57795,349.758378 C240.234561,340.072544 249.979394,322.152933 252.686839,304.292322 C254.335561,293.419933 254.699394,269.816656 254.951783,259.373656 C257.783783,257.0956 265.811061,250.497433 272.855006,243.450211 C282.514617,233.7906 288.339228,225.583044 291.479339,209.885767 C293.76395,198.475822 291.843172,184.853378 282.40645,180.136656" id="Fill-7"></path>
                <path d="M123.401778,284.358517 C124.834167,284.093017 126.440278,284.483072 128.7675,285.649961 C129.963889,286.246517 131.098,286.990572 132.294389,287.773961 C135.6705,289.983183 139.492389,292.487406 145.903722,292.487406 L146.447833,292.487406 C152.859167,292.487406 156.681056,289.983183 160.057167,287.773961 C161.253556,286.990572 162.387667,286.246517 163.584056,285.649961 C165.908,284.48635 167.507556,284.099572 168.949778,284.358517 C170.093722,284.548628 171.211444,283.798017 171.4245,282.644239 C171.634278,281.483906 170.867278,280.376017 169.706944,280.166239 C166.668444,279.609017 163.8135,280.766072 161.679667,281.837906 C160.263667,282.545906 158.972222,283.391572 157.720111,284.207739 C154.566889,286.276017 151.587389,288.226294 146.447833,288.226294 L145.903722,288.226294 C140.764167,288.226294 137.784667,286.276017 134.631444,284.207739 C133.379333,283.391572 132.087889,282.545906 130.675167,281.837906 C128.538056,280.76935 125.696222,279.612294 122.644611,280.166239 C121.484278,280.376017 120.717278,281.483906 120.927056,282.644239 C121.136833,283.798017 122.248,284.561739 123.401778,284.358517" id="Fill-10"></path>
                <path d="M141.508222,307.808722 C144.133722,304.681722 145.431722,292.793222 145.431722,292.793222 L134.965778,292.793222 C125.237333,292.793222 115.839944,293.517611 108.261722,301.816944 C104.593889,305.832222 99.5592222,311.597833 96.8517778,328.645556 C115.528556,329.458444 114.987722,320.257722 122.562667,316.471889 C132.491056,311.506056 135.824556,314.574056 141.508222,307.808722" id="Fill-12"></path>
                <path d="M157.386433,292.793222 L146.920489,292.793222 C146.920489,292.793222 148.218489,304.681722 150.843989,307.808722 C156.527656,314.577333 159.864433,311.506056 169.789544,316.471889 C177.367767,320.257722 176.823656,329.461722 195.497156,328.645556 C192.792989,311.597833 187.758322,305.8355 184.087211,301.816944 C176.512267,293.517611 167.114878,292.793222 157.386433,292.793222" id="Fill-14"></path>
                <path d="M81.3429722,288.593406 C70.5164722,282.368906 59.9620278,271.814461 57.7954167,273.168183 C54.8126389,275.029961 57.45125,284.01435 59.1491389,289.675072 C61.5878056,297.797406 70.5164722,314.845128 76.7409722,322.692128 C80.0580833,326.87785 82.96875,325.671628 83.7783611,324.04585 C84.59125,322.42335 87.2954167,303.477794 87.5674722,300.773628 C87.8395278,298.066183 86.5513611,291.589294 81.3429722,288.593406" id="Fill-16"></path>
                <path d="M211.008911,288.593406 C205.800522,291.589294 204.515633,298.066183 204.784411,300.773628 C205.056467,303.477794 207.760633,322.42335 208.573522,324.04585 C209.383133,325.671628 212.2938,326.87785 215.610911,322.692128 C221.835411,314.845128 230.764078,297.797406 233.202744,289.675072 C234.900633,284.01435 237.539244,275.029961 234.556467,273.168183 C232.389856,271.814461 221.835411,282.368906 211.008911,288.593406" id="Fill-18"></path>
                <path d="M159.985711,346.197728 L132.367156,346.197728 C129.728544,346.197728 128.571489,349.52795 130.639767,351.163561 L144.449044,362.101506 C145.4586,362.904561 146.890989,362.904561 147.903822,362.101506 L161.7131,351.163561 C163.781378,349.52795 162.624322,346.197728 159.985711,346.197728" id="Fill-20"></path>
            </g>
        </g>
    </g>
</svg>