<svg width="64" height="52" viewBox="0 0 64 52" fill="none" xmlns="http://www.w3.org/2000/svg">
<g clip-path="url(#clip0)">
<path d="M15.8946 47.14C17.9526 47.14 19.3946 46.048 19.3946 44.214V44.186C19.3946 42.562 18.3166 41.82 16.2446 41.316C14.3686 40.868 13.9206 40.532 13.9206 39.776V39.748C13.9206 39.104 14.5086 38.586 15.5166 38.586C16.4126 38.586 17.2946 38.936 18.1766 39.594L19.1006 38.292C18.1066 37.494 16.9726 37.06 15.5446 37.06C13.5986 37.06 12.1986 38.222 12.1986 39.902V39.93C12.1986 41.736 13.3746 42.352 15.4606 42.856C17.2806 43.276 17.6726 43.654 17.6726 44.354V44.382C17.6726 45.124 17.0006 45.614 15.9366 45.614C14.7186 45.614 13.7806 45.152 12.8426 44.34L11.8066 45.572C12.9826 46.622 14.3966 47.14 15.8946 47.14ZM24.6397 47.168C26.0817 47.168 26.9357 46.594 27.6637 45.782L26.6417 44.774C26.1097 45.32 25.5217 45.698 24.7237 45.698C23.4217 45.698 22.5117 44.634 22.5117 43.318V43.29C22.5117 42.002 23.4077 40.938 24.6397 40.938C25.4937 40.938 26.0397 41.316 26.5577 41.862L27.6077 40.728C26.9217 39.972 26.0537 39.454 24.6537 39.454C22.4417 39.454 20.8177 41.218 20.8177 43.318V43.346C20.8177 45.446 22.4417 47.168 24.6397 47.168ZM29.2217 47H30.9157V44.186C30.9157 42.226 31.9517 41.26 33.4357 41.26H33.5337V39.468C32.2317 39.412 31.3777 40.168 30.9157 41.274V39.608H29.2217V47ZM38.2728 47.168C40.5548 47.168 42.2348 45.418 42.2348 43.318V43.29C42.2348 41.176 40.5688 39.454 38.3008 39.454C36.0328 39.454 34.3528 41.204 34.3528 43.318V43.346C34.3528 45.446 36.0188 47.168 38.2728 47.168ZM38.3008 45.698C36.9848 45.698 36.0468 44.606 36.0468 43.318V43.29C36.0468 42.002 36.9148 40.938 38.2728 40.938C39.6028 40.938 40.5408 42.016 40.5408 43.318V43.346C40.5408 44.62 39.6728 45.698 38.3008 45.698ZM44.058 47H45.752V36.78H44.058V47ZM48.0639 47H49.7579V36.78H48.0639V47Z" fill="#E95A49"/>
<path fill-rule="evenodd" clip-rule="evenodd" d="M31.4811 28.8096L2.67154 0L0.0561523 2.61538L31.4408 34L31.4811 33.9596L31.5215 34L62.9061 2.61538L60.2907 0L31.4811 28.8096Z" fill="url(#paint0_linear)"/>
</g>
<defs>
<linearGradient id="paint0_linear" x1="0.425754" y1="0.399889" x2="0.425754" y2="34" gradientUnits="userSpaceOnUse">
<stop stop-color="#E95A49"/>
<stop offset="1" stop-color="#F2B53C"/>
</linearGradient>
<clipPath id="clip0">
<rect width="63" height="52" fill="white" transform="translate(0.0561523)"/>
</clipPath>
</defs>
</svg>
