<?xml version="1.0" encoding="UTF-8"?>
<svg width="401px" height="410px" viewBox="0 0 401 410" version="1.1" xmlns="http://www.w3.org/2000/svg" xmlns:xlink="http://www.w3.org/1999/xlink">
    <title>80344E98-96DD-4389-B9B5-488A9225FB2C</title>
    <g id="Design-" stroke="none" stroke-width="1" fill="none" fill-rule="evenodd">
        <g id="v2.Summary/8" transform="translate(-518.000000, -348.000000)" fill="#FFFFFF">
            <g id="Icon" transform="translate(518.000000, 348.000000)">
                <polygon id="Fill-1" points="235.1674 152.702275 239.84415 170.070275 257.2089 174.743775 239.84415 179.423775 235.1674 196.785275 230.4939 179.423775 213.1259 174.743775 230.4939 170.070275"></polygon>
                <polygon id="Fill-2" points="281.9687 110.17635 286.64545 127.54435 304.01345 132.21785 286.64545 136.8946 281.9687 154.25935 277.2952 136.8946 259.9272 132.21785 277.2952 127.54435"></polygon>
                <g id="Group-47" transform="translate(0.000000, 0.511250)">
                    <path d="M84.714175,157.717975 C81.135925,133.567225 100.993425,125.159475 122.999175,127.304475 C130.046475,127.993475 142.790895,129.161915 155.730211,130.361763 L158.642525,130.63207 L158.642525,130.63207 L160.580844,130.812303 C178.321187,132.463265 195.129675,134.067725 196.702675,134.460975 C199.565925,135.175975 200.911425,135.175975 203.774675,134.460975 C204.999925,134.155475 215.442175,133.115475 228.364175,131.893475 L228.364175,131.893475 L228.364175,203.637225 L209.865175,203.637225 L209.865175,219.428975 C209.865175,228.684975 216.095425,236.462225 224.568175,238.932225 C221.223925,241.642725 220.323675,246.420225 224.616925,250.209725 C227.840925,253.056725 231.201425,254.717475 234.474175,257.551475 L234.474175,257.551475 L235.601925,259.504725 C235.829425,259.904475 236.151175,260.229475 236.430675,260.583725 C235.852175,261.773225 235.497925,263.102475 235.497925,264.551975 L235.497925,264.551975 L236.424175,289.944225 C236.157675,290.236725 235.904175,290.535725 235.618175,290.818475 C229.716175,296.723725 214.398925,303.347225 213.794419,311.930475 C213.271175,319.356725 228.104175,320.874475 225.959175,340.549975 C224.119675,357.423975 203.933925,362.753975 200.911425,363.449475 C200.488925,363.550225 199.988425,363.550225 199.565925,363.449475 C196.546675,362.753975 176.360925,357.423975 174.521425,340.549975 C172.376425,320.874475 187.209425,319.356725 186.686175,311.930475 C186.081675,303.347225 170.764425,296.723725 164.862425,290.818475 C156.272675,282.231975 155.677925,270.304475 161.999175,261.838225 C164.682375,258.242425 167.494275,256.223785 170.300091,254.315125 L171.101471,253.771519 C172.703433,252.685222 174.299218,251.589211 175.863675,250.209725 C182.227175,244.593725 177.202675,236.793725 169.691925,236.793725 L169.691925,236.793725 L168.576711,236.792991 C168.527033,236.792899 168.476917,236.792796 168.426348,236.79268 L168.117406,236.791817 C163.451052,236.776383 154.987105,236.636067 133.015675,235.360475 C114.224175,234.268475 109.401175,231.782225 102.244675,223.195725 C95.091425,214.609225 87.453925,176.207225 84.714175,157.717975 Z M281.499075,127.032125 C301.834325,126.252125 319.124325,135.049875 315.767075,157.715375 C313.027325,176.207875 305.393075,214.606625 298.233325,223.196375 C297.576825,223.982875 296.939825,224.707625 296.312575,225.396625 C296.897575,223.495375 297.287575,221.509625 297.287575,219.419875 L297.287575,219.419875 L297.287575,203.634625 L281.499075,203.634625 Z" id="Combined-Shape" opacity="0.3"></path>
                    <path d="M93.639975,72.163025 L94.263975,72.218275 L151.590725,41.401775 L151.460725,63.696775 C151.454225,64.863525 152.393475,65.812525 153.560225,65.822275 L153.569975,65.822275 C154.733475,65.822275 155.675975,64.883025 155.682475,63.719525 L156.040009,2.866525 C156.046475,1.696525 155.107225,0.747525 153.940475,0.737775 L153.927475,0.737775 C152.767225,0.737775 151.821475,1.680275 151.814975,2.840525 L151.613475,37.261275 C151.112975,37.124775 150.560475,37.160525 150.066475,37.427025 L93.357225,67.905525 C90.285975,67.713775 76.925225,67.151525 61.741225,70.869525 C39.033475,76.423775 23.339225,88.998025 16.351725,107.230525 C0.839475,147.693025 10.147475,180.232025 11.788725,185.324775 C10.157225,191.243025 -1.247025,233.736775 0.111475,261.579525 C1.427725,288.577275 3.335475,298.961025 3.683225,300.683525 C3.653975,303.043025 3.364725,322.988275 2.262975,338.975025 C0.855725,359.352525 5.041725,397.907275 8.090225,407.056025 C8.385975,407.936775 9.208225,408.499025 10.092225,408.499025 C10.313225,408.499025 10.540725,408.466525 10.761725,408.388525 C11.869975,408.021275 12.464725,406.825275 12.097475,405.717025 C9.455225,397.796775 5.012475,360.493275 6.478225,339.267525 C7.651475,322.211525 7.911475,300.716025 7.911475,300.504775 L7.914725,300.261025 L7.862725,300.020525 C7.843225,299.926275 5.733975,290.075525 4.333225,261.378025 C2.935725,232.722775 15.903225,186.306275 16.033225,185.844775 L16.211975,185.194775 L15.990975,184.567525 C15.873975,184.229525 4.333225,150.384025 20.297225,108.741775 C35.984975,67.804775 93.061475,72.124025 93.639975,72.163025" id="Fill-7"></path>
                    <path d="M63.347375,175.2904 C63.171875,174.13665 62.092875,173.3534 60.942375,173.51915 C59.788625,173.69465 58.995625,174.77365 59.171125,175.92415 C61.514375,191.33565 66.646125,211.71965 72.359625,231.8079 C72.353125,231.84365 72.327125,231.8729 72.320625,231.91515 C71.956625,234.32665 71.517875,237.7294 70.997875,241.78865 C68.485625,261.28215 63.808875,297.57165 56.327375,309.07665 L55.927625,309.69415 L59.512375,347.9044 C61.611875,370.2904 59.541625,388.07115 59.518875,388.24665 C59.379125,389.4069 60.207875,390.45665 61.364875,390.5964 C61.449375,390.60615 61.533875,390.61265 61.618375,390.61265 C62.671375,390.61265 63.584625,389.8229 63.714625,388.7504 C63.734125,388.5684 65.862875,370.3684 63.717875,347.51115 L60.269625,310.7439 C68.027375,297.88365 72.496125,263.19315 75.187125,242.32815 C75.209875,242.1429 75.229375,241.9804 75.255375,241.7984 C84.625125,273.5964 94.547375,302.3784 95.951375,306.42465 L84.566625,391.79565 C84.413875,392.95265 85.226375,394.0154 86.383375,394.1714 C86.477625,394.1844 86.571875,394.1909 86.666125,394.1909 C87.709375,394.1909 88.612875,393.41415 88.755875,392.35465 L100.273875,305.98265 L100.104875,305.5049 C99.805875,304.65015 70.039125,219.3084 63.347375,175.2904" id="Fill-10"></path>
                    <path d="M169.43095,240.84875 C169.23595,240.84875 149.6937,240.5725 133.2877,239.69175 C106.79695,238.26825 98.78245,230.01975 93.2607,215.29725 C90.3747,207.598 88.0542,195.08875 85.60045,181.84825 C84.44995,175.64075 83.2442,169.14725 81.90195,162.65375 C81.6647,161.51625 80.5467,160.785 79.40595,161.01575 C78.26195,161.253 77.52745,162.371 77.7647,163.51175 C79.1037,169.97275 80.2997,176.437 81.44695,182.6185 C84.0437,196.6325 86.2862,208.73225 89.30545,216.7825 C95.31145,232.79525 104.39845,242.36975 133.06345,243.91025 C149.5507,244.7975 169.17745,245.07375 169.37245,245.077 L169.4017,245.077 C170.55545,245.077 171.49795,244.15075 171.514409,242.9905 C171.53045,241.82375 170.5977,240.865 169.43095,240.84875" id="Fill-12"></path>
                    <path d="M101.512775,78.59315 C100.840025,79.54865 101.070775,80.8649 102.026275,81.5344 C111.760025,88.38865 147.162275,102.2954 168.108525,102.58465 L168.137775,102.58465 C169.291525,102.58465 170.234025,101.6584 170.250484,100.49815 C170.266525,99.33465 169.333775,98.3759 168.167025,98.3564 C146.759275,98.0639 112.566025,83.7899 104.457275,78.0829 C103.498525,77.41015 102.185525,77.63765 101.512775,78.59315" id="Fill-14"></path>
                    <path d="M149.1074,296.283025 C152.7474,296.283025 155.86415,296.231025 158.20415,296.192025 C159.51715,296.169275 160.55715,296.153025 161.2624,296.153025 C162.42915,296.153025 163.3749,295.207275 163.3749,294.040525 C163.3749,292.870525 162.42915,291.924775 161.2624,291.924775 C160.5409,291.924775 159.47815,291.944275 158.13265,291.967025 C153.3974,292.041775 145.47065,292.178275 136.4974,291.817525 C129.04515,291.512025 124.37815,289.721275 122.6329,286.497275 C119.2724,280.289775 116.3669,271.371775 113.73115,262.655275 C113.39315,261.543775 112.22315,260.897025 111.0954,261.248025 C109.98065,261.582775 109.35015,262.765775 109.68815,263.880525 C112.3889,272.805025 115.3789,281.970025 118.91815,288.509025 C121.4564,293.202025 127.1504,295.665525 136.32515,296.039275 C140.96615,296.224525 145.3179,296.283025 149.1074,296.283025" id="Fill-16"></path>
                    <path d="M134.173,342.01475 C133.20125,339.3335 132.3335,336.04125 131.32925,332.23225 C130.39975,328.706 129.35,324.71175 128.03375,320.59075 C127.6795,319.47925 126.49,318.85525 125.3785,319.21925 C124.267,319.57675 123.65275,320.763 124.01025,321.8745 C125.29075,325.89475 126.3275,329.83375 127.244,333.308 C128.27425,337.2145 129.1615,340.5945 130.19825,343.4545 C132.1125,348.73575 136.93225,352.14825 142.48,352.14825 C151.1705,352.14825 163.37425,352.327 163.38075,352.327 L163.43925,348.09875 C163.43925,348.09875 151.1965,347.92 142.48,347.92 C138.73275,347.92 135.473,345.60275 134.173,342.01475" id="Fill-18"></path>
                    <path d="M119.941575,219.228775 C119.941575,221.221025 118.319825,222.839525 116.330825,222.839525 C114.338575,222.839525 112.716825,221.221025 112.716825,219.228775 C112.716825,217.236525 114.338575,215.618025 116.330825,215.618025 C118.319825,215.618025 119.941575,217.236525 119.941575,219.228775 M108.495075,219.228775 C108.495075,223.551275 112.008325,227.067775 116.330825,227.067775 C120.650075,227.067775 124.166575,223.551275 124.166575,219.228775 C124.166575,214.906275 120.650075,211.389775 116.330825,211.389775 C112.008325,211.389775 108.495075,214.906275 108.495075,219.228775" id="Fill-20"></path>
                    <path d="M388.688625,185.326075 C390.329875,180.233325 399.641125,147.694325 384.128875,107.231825 C377.138125,88.996075 361.443875,76.421825 338.739375,70.867575 C323.548875,67.156075 310.181625,67.715075 307.120125,67.906825 L250.414125,37.428325 C249.920125,37.161825 249.370875,37.122825 248.870375,37.256075 L248.665625,2.841825 C248.655875,1.678325 247.713375,0.739075 246.553125,0.739075 L246.540125,0.739075 C245.370125,0.748825 244.430875,1.697825 244.437341,2.864575 L244.798125,63.720825 C244.807875,64.881075 245.750375,65.820325 246.910625,65.820325 L246.923625,65.820325 C248.090375,65.813825 249.029625,64.864825 249.023125,63.694825 L248.893125,41.406325 L306.213375,72.216325 L306.837375,72.164325 C307.409375,72.128575 364.492375,67.799575 380.186625,108.743075 C396.147375,150.385325 384.606625,184.230825 384.486375,184.568825 L384.265375,185.199325 L384.444125,185.842825 C384.577375,186.307575 397.548125,232.711075 396.147375,261.376075 C394.746625,290.073575 392.640625,299.927575 392.617875,300.021825 L392.565875,300.502825 C392.569125,300.717325 392.825875,322.209575 394.005625,339.265575 C395.468125,360.488075 391.025375,397.794825 388.383125,405.718325 C388.012625,406.823325 388.613875,408.019325 389.715625,408.389825 C389.939875,408.464575 390.164125,408.500325 390.385125,408.500325 C391.272375,408.500325 392.094625,407.938075 392.390375,407.057325 C395.438875,397.908575 399.624875,359.350575 398.220875,338.973075 C397.115875,322.986325 396.826625,303.044325 396.794125,300.684825 C397.145125,298.962325 399.049625,288.578575 400.369125,261.580825 C401.727625,233.738075 390.320125,191.241075 388.688625,185.326075" id="Fill-22"></path>
                    <path d="M329.480775,241.762975 C328.960775,237.713475 328.522025,234.320475 328.161275,231.915475 C328.154775,231.873225 328.128775,231.843975 328.122275,231.804975 C333.835775,211.716725 338.967525,191.332725 341.310775,175.924475 C341.483025,174.773975 340.690025,173.694975 339.539525,173.519475 C338.379275,173.360225 337.306775,174.133725 337.131275,175.290725 C330.442775,219.308725 300.672775,304.650475 300.373775,305.505225 L300.204775,305.982975 L311.722775,392.354975 C311.865775,393.417725 312.772525,394.187975 313.815775,394.187975 C313.906775,394.187975 314.001025,394.181475 314.098525,394.171725 C315.252275,394.015725 316.064775,392.952975 315.912025,391.795975 L304.527275,306.424975 C305.934525,302.375475 315.856775,273.596725 325.226525,241.798725 C325.246025,241.970975 325.268775,242.126975 325.291525,242.302475 C327.979275,263.177225 332.451275,297.877475 340.212275,310.744225 L336.757525,347.511475 C334.615775,370.368725 336.741275,388.568725 336.764025,388.750725 C336.894025,389.823225 337.807275,390.612975 338.860275,390.612975 C338.944775,390.612975 339.029275,390.606475 339.113775,390.596725 C340.270775,390.456975 341.099525,389.407225 340.959775,388.246975 C340.937025,388.071475 338.870025,370.290725 340.966275,347.904725 L344.554275,309.694475 L344.154525,309.076975 C336.669775,297.565475 331.993025,261.266225 329.480775,241.762975" id="Fill-25"></path>
                    <path d="M279.032975,242.654775 C298.701975,239.323525 306.072975,230.389275 311.175475,216.781525 C314.191475,208.731275 316.437225,196.638025 319.033975,182.627275 C320.177975,176.445775 321.373975,169.978275 322.712975,163.510775 C322.950225,162.370025 322.215725,161.252025 321.074975,161.014775 C319.927725,160.797025 318.809725,161.512025 318.575725,162.656025 C317.233475,169.152775 316.027725,175.646275 314.877225,181.860275 C312.423475,195.094275 310.109475,207.600275 307.220225,215.296275 C303.723225,224.620525 299.208975,231.341525 289.653975,235.381275 C286.813475,237.636775 283.365225,239.154525 279.595225,239.635525 C279.591975,240.662525 279.367725,241.670025 279.032975,242.654775" id="Fill-27"></path>
                    <path d="M232.342825,102.584325 L232.372075,102.584325 C253.321575,102.295075 288.723825,88.388325 298.454325,81.534075 C299.409825,80.864575 299.637325,79.545075 298.964575,78.592825 C298.295075,77.643825 296.978825,77.406575 296.023325,78.082575 C287.914575,83.789575 253.724575,98.063575 232.313575,98.356075 C231.146825,98.375575 230.214075,99.334325 230.230116,100.497825 C230.243325,101.658075 231.189075,102.584325 232.342825,102.584325" id="Fill-29"></path>
                    <path d="M289.3826,261.24705 C288.2711,260.90255 287.0881,261.5428 286.74685,262.65755 C284.10785,271.37405 281.20235,280.2953 277.84185,286.49955 C276.46385,289.0443 273.23985,290.6823 268.28685,291.41355 L268.1276,295.69705 C274.98185,294.83255 279.41485,292.4763 281.55985,288.5113 C285.0991,281.97555 288.0891,272.8138 290.7931,263.8828 C291.1311,262.7648 290.5006,261.58505 289.3826,261.24705" id="Fill-31"></path>
                    <path d="M270.282675,343.455475 C271.319425,340.588975 272.209925,337.212225 273.240175,333.302475 C274.153425,329.828225 275.193425,325.889225 276.470675,321.872225 C276.828175,320.763975 276.210675,319.574475 275.099175,319.220225 C273.994175,318.856225 272.798175,319.480225 272.447175,320.591725 C271.134175,324.706225 270.081175,328.703725 269.151675,332.226725 C268.202675,335.837475 267.370675,338.960725 266.457425,341.567225 L266.181175,349.217725 C267.984925,347.745475 269.431175,345.801975 270.282675,343.455475" id="Fill-33"></path>
                    <path d="M200.239325,43.54775 C201.406075,43.54775 202.351825,42.602 202.351825,41.43525 L202.351825,7.801 C202.351825,6.63425 201.406075,5.6885 200.239325,5.6885 C199.072575,5.6885 198.126825,6.63425 198.126825,7.801 L198.126825,41.43525 C198.126825,42.602 199.072575,43.54775 200.239325,43.54775" id="Fill-35"></path>
                    <path d="M213.569525,100.499125 C214.278025,99.572875 214.099275,98.246875 213.173025,97.538375 C212.246775,96.833125 210.924025,97.011875 210.212275,97.934875 C207.836525,101.045125 204.203025,102.829375 200.238025,102.829375 C196.276275,102.829375 192.642775,101.045125 190.270275,97.934875 C189.561775,97.011875 188.239025,96.833125 187.306275,97.538375 C186.380025,98.246875 186.204525,99.572875 186.909775,100.499125 C190.088275,104.665625 194.950275,107.057625 200.238025,107.057625 C205.529025,107.057625 210.387775,104.665625 213.569525,100.499125" id="Fill-37"></path>
                    <path d="M205.549175,385.607325 C202.884175,389.097825 197.011425,389.101075 194.346425,385.604075 C193.634675,384.681075 192.311925,384.495825 191.385675,385.207575 C190.456175,385.916075 190.280675,387.238825 190.989175,388.168325 C193.124425,390.969825 196.393925,392.581825 199.946175,392.581825 C203.504925,392.581825 206.771175,390.969825 208.906425,388.165075 C209.614925,387.238825 209.436175,385.912825 208.506675,385.207575 C207.586925,384.502325 206.260925,384.677825 205.549175,385.607325" id="Fill-39"></path>
                    <path d="M198.125525,135.893575 L198.125525,226.058325 C198.125525,227.228325 199.071275,228.174075 200.238025,228.174075 C201.408025,228.174075 202.353775,227.228325 202.353775,226.058325 L202.353775,135.893575 C202.353775,134.726825 201.408025,133.781075 200.238025,133.781075 C199.071275,133.781075 198.125525,134.726825 198.125525,135.893575" id="Fill-41"></path>
                    <path d="M260.589875,262.405675 C261.743625,262.405675 262.682875,263.341675 262.682875,264.501925 L262.682875,264.501925 L259.432875,353.678675 C259.432875,354.832425 258.493625,355.771675 257.339875,355.771675 L257.339875,355.771675 L247.336375,355.771675 C246.179375,355.771675 245.243375,354.832425 245.243375,353.678675 L245.243375,353.678675 L241.993375,264.501925 C241.993375,263.341675 242.929375,262.405675 244.086375,262.405675 L244.086375,262.405675 Z M292.41225,208.69455 L292.41225,219.6048 C292.41225,228.1523 285.45725,235.11055 276.90325,235.11055 L276.90325,235.11055 L270.75425,235.11055 L272.61,238.3183 C273.13975,239.2413 273.13975,240.3723 272.61,241.29205 L272.61,241.29205 L263.86425,256.43705 C263.3345,257.3568 262.353,257.92555 261.29025,257.92555 L261.29025,257.92555 L243.80525,257.92555 C242.7425,257.92555 241.761,257.3568 241.228,256.43705 L241.228,256.43705 L232.48875,241.29205 C231.95575,240.3723 231.95575,239.2413 232.48875,238.3183 L232.48875,238.3183 L234.34125,235.11055 L230.23975,235.11055 C221.69225,235.11055 214.7405,228.15555 214.7405,219.6113 L214.7405,219.6113 L214.7405,208.69455 L292.41225,208.69455 Z M289.16225,219.30905 L217.9905,219.30905 L217.9905,219.6113 C217.9905,226.36805 223.483,231.86055 230.23975,231.86055 L230.23975,231.86055 L236.2165,231.86055 L241.228,223.17655 C241.761,222.2568 242.7425,221.6913 243.80525,221.6913 L243.80525,221.6913 L261.29025,221.6913 C262.353,221.6913 263.3345,222.2568 263.86425,223.17655 L263.86425,223.17655 L268.879,231.86055 L276.90325,231.86055 C283.66325,231.86055 289.16225,226.36155 289.16225,219.6048 L289.16225,219.6048 L289.16225,219.30905 Z M289.16225,211.94455 L217.9905,211.94455 L217.9905,216.05905 L289.16225,216.05905 L289.16225,211.94455 Z" id="Combined-Shape"></path>
                </g>
            </g>
        </g>
    </g>
</svg>