<svg width="293" height="429" viewBox="0 0 293 429" fill="none" xmlns="http://www.w3.org/2000/svg">
<path opacity="0.25" fill-rule="evenodd" clip-rule="evenodd" d="M287.303 208.767C284.36 223.484 279.112 230.885 269.842 240.155C263.29 246.707 255.873 252.866 252.769 255.38C254.673 243.41 256.187 230.898 257.233 217.833C257.698 212.009 257.997 206.318 258.213 200.69C258.632 200.153 259.141 199.383 259.75 198.288C260.471 198.304 261.183 197.99 261.599 197.337C266.971 188.894 275.166 181.021 280.502 183.666C287.887 187.36 289.204 199.268 287.303 208.767Z" fill="white"/>
<path opacity="0.15" fill-rule="evenodd" clip-rule="evenodd" d="M5.0474 208.77C3.14956 199.268 4.46723 187.36 11.8488 183.666C17.1817 181.034 25.3794 188.894 30.7517 197.337C31.1614 197.983 31.8662 198.294 32.5775 198.288C32.6955 198.593 32.8036 198.897 32.9118 199.206C33.1248 205.312 33.4297 211.494 33.9377 217.833C34.9506 230.499 36.4059 242.636 38.2283 254.276C34.6359 251.316 28.2377 245.888 22.5081 240.155C13.2386 230.885 7.99412 223.484 5.0474 208.77Z" fill="white"/>
<path opacity="0.25" fill-rule="evenodd" clip-rule="evenodd" d="M219.871 57.1568C201.233 36.9689 176.686 26.7324 146.911 26.7324H146.527V407.974H146.911C204.875 407.974 248.263 333.834 257.454 219.089C263.213 147.158 249.866 89.6494 219.871 57.1568Z" fill="white"/>
<path opacity="0.15" fill-rule="evenodd" clip-rule="evenodd" d="M146.492 26.7314C116.717 26.7314 92.1694 36.9679 73.532 57.1558C43.5371 89.6484 30.1932 147.157 35.9523 219.091C45.1432 333.833 88.5311 407.976 146.492 407.976H146.525V26.7314H146.492Z" fill="white"/>
<path fill-rule="evenodd" clip-rule="evenodd" d="M287.303 208.767C284.36 223.484 279.112 230.885 269.843 240.155C263.29 246.707 255.873 252.866 252.769 255.38C254.673 243.41 256.187 230.899 257.233 217.833C257.698 212.009 257.997 206.319 258.213 200.691C258.633 200.156 259.141 199.383 259.75 198.288C260.471 198.304 261.183 197.99 261.599 197.337C266.971 188.894 275.166 181.021 280.502 183.666C287.887 187.36 289.204 199.268 287.303 208.767ZM5.04737 208.77C3.14954 199.268 4.46721 187.36 11.8488 183.666C17.1817 181.034 25.3794 188.894 30.7517 197.337C31.1614 197.983 31.8661 198.295 32.5774 198.288C32.6954 198.593 32.8036 198.898 32.9118 199.206C33.1248 205.312 33.4296 211.494 33.9377 217.833C34.9505 230.499 36.4059 242.64 38.2283 254.276C34.6359 251.316 28.2409 245.888 22.5081 240.155C13.2385 230.885 7.99409 223.484 5.04737 208.77ZM218.037 350.354C213.684 358.185 209.023 365.133 204.113 371.269C201.816 364.157 199.092 357.447 198.289 356.244C197.207 354.622 195.163 365.411 193 366.22C190.833 367.033 185.568 368.152 183.404 376.275C181.369 383.899 180.156 390.615 171.224 392.513C162.292 394.407 155.799 391.7 152.279 388.179C148.811 384.712 146.91 380.372 146.297 378.805V378.169C146.297 378.169 146.251 378.297 146.175 378.497C146.1 378.297 146.054 378.169 146.054 378.169V378.805C145.441 380.372 143.543 384.712 140.072 388.179C136.555 391.7 130.059 394.407 121.127 392.513C112.195 390.615 110.982 383.899 108.946 376.275C106.783 368.152 100.663 365.033 98.5001 364.22C96.3335 363.411 95.1436 354.622 94.062 356.244C93.2229 357.509 90.2565 364.835 87.8965 372.331C82.675 365.946 77.7354 358.634 73.1334 350.354C54.5549 316.957 42.4698 271.012 38.1857 217.492C34.4785 171.236 38.7724 131.146 50.3004 99.9841C60.881 113.367 77.8599 113.131 88.5947 111.394C107.403 108.346 143.937 87.2598 171.752 75.5909C197.535 64.7775 229.385 85.6602 239.156 95.4116C251.998 127.167 256.872 168.958 252.985 217.492C248.701 271.012 236.616 316.957 218.037 350.354ZM282.406 179.857C280.643 178.975 278.798 178.759 276.926 179.008C276.932 178.962 276.955 178.92 276.962 178.874C278.407 168.768 277.326 107.605 269.748 92.0847C265.447 83.2871 259.114 79.6783 254.024 79.6422C249.894 62.0996 235.259 32.3636 191.032 29.5021C194.641 27.6763 198.295 26.457 204.792 25.8703C193.893 22.8056 190.648 18.4723 183.454 16.1812C164.111 10.0222 143.75 11.4448 136.771 12.8772C138.033 9.95012 142.557 5.42023 143.897 5.61689C126.505 3.04384 115.371 -1.28611 102.928 0.365892C86.6739 2.52267 73.5693 8.87173 67.8463 13.0607C49.0122 26.8503 37.9858 48.9786 41.4405 76.2759C33.1969 78.5573 21.6657 95.2412 18.5911 109.588C14.2612 129.796 14.2612 149.285 15.7034 164.442L16.5458 179.192C14.2907 178.661 12.0585 178.798 9.94437 179.857C0.510927 184.57 -1.40985 198.193 0.871483 209.606C4.01159 225.303 9.83948 233.514 19.4958 243.171C26.5398 250.218 34.5703 256.816 37.399 259.094C42 306.22 68.9396 407.548 145.376 407.548H145.795C217.618 407.548 242.5 324.22 254.952 259.094C257.784 256.816 265.811 250.218 272.855 243.171C282.515 233.511 288.339 225.303 291.479 209.606C293.764 198.196 291.843 184.574 282.406 179.857Z" fill="white"/>
<path d="M258.282 200.753L264 192.5C267 243 270.5 302 260 340C244.847 394.84 221 429 144.657 429V364.756C144.657 364.756 217 372.5 234.5 313C252 253.5 251.853 244.003 258.282 200.753Z" fill="white"/>
<path d="M33.7822 200.753L28.0641 192.5C25.0641 243 21.5641 302 32.0641 340C47.2171 394.84 71.0641 429 147.407 429V364.756C147.407 364.756 75.0641 372.5 57.5641 313C40.0641 253.5 40.2109 244.003 33.7822 200.753Z" fill="white"/>
<path fill-rule="evenodd" clip-rule="evenodd" d="M123.402 284.079C124.834 283.813 126.44 284.203 128.768 285.37C129.964 285.967 131.098 286.711 132.294 287.494C135.671 289.703 139.492 292.208 145.904 292.208H146.448C152.859 292.208 156.681 289.703 160.057 287.494C161.254 286.711 162.388 285.967 163.584 285.37C165.908 284.207 167.508 283.82 168.95 284.079C170.094 284.269 171.212 283.518 171.425 282.364C171.634 281.204 170.867 280.096 169.707 279.886C166.669 279.329 163.814 280.486 161.68 281.558C160.264 282.266 158.972 283.112 157.72 283.928C154.567 285.996 151.587 287.947 146.448 287.947H145.904C140.764 287.947 137.785 285.996 134.632 283.928C133.379 283.112 132.088 282.266 130.675 281.558C128.538 280.49 125.696 279.333 122.645 279.886C121.484 280.096 120.717 281.204 120.927 282.364C121.137 283.518 122.248 284.282 123.402 284.079Z" fill="white"/>
</svg>
