<svg width="43" height="51" viewBox="0 0 43 51" fill="none" xmlns="http://www.w3.org/2000/svg">
<g clip-path="url(#clip0)">
<path d="M32.4058 51C31.9696 50.5173 31.471 50.0975 31.1386 49.5519C29.8923 47.4741 28.7082 45.3543 27.4203 43.1086C26.2362 44.4519 25.1353 45.7321 23.9927 46.9704C23.4942 47.4951 22.9956 48.0617 22.414 48.4605C20.6898 49.5938 19.1526 48.8593 18.9449 46.7815C18.758 44.8296 18.6541 42.8778 18.5087 40.9259C18.0517 34.8605 17.5947 28.8161 17.1377 22.7506C17.0338 21.3864 16.8884 20.0432 16.8676 18.679C16.8676 18.1963 17.0546 17.3988 17.3662 17.2728C17.7816 17.1049 18.5087 17.2938 18.9241 17.5877C22.9749 20.337 26.984 23.1284 30.9932 25.8988C34.3792 28.2494 37.786 30.579 41.1512 32.9716C41.8575 33.4753 42.3976 34.2099 43.0208 34.8395C43.0208 35.1963 43.0208 35.5321 43.0208 35.8889C42.3145 37.0012 41.2758 37.5679 39.9879 37.8198C38.1599 38.1765 36.3734 38.5963 34.4415 39.0161C35.7295 41.2827 36.9758 43.4445 38.2014 45.6272C38.9908 47.0124 38.8039 47.7679 37.4536 48.5654C36.0618 49.4049 34.6493 50.1815 33.2367 51C32.9667 51 32.6758 51 32.4058 51ZM37.2459 46.9914C37.0174 46.5716 36.8512 46.2358 36.6642 45.921C35.3555 43.6543 34.0468 41.4086 32.7589 39.142C32.1357 38.0716 32.2604 37.7358 33.4444 37.5259C35.584 37.1062 37.7237 36.7704 39.8425 36.3086C40.3618 36.2037 40.8188 35.742 41.2966 35.4272C40.9435 35.0284 40.6526 34.5457 40.2372 34.2519C33.299 29.4037 26.3609 24.5765 19.4227 19.7494C19.1526 19.5605 18.8618 19.3926 18.4671 19.1617C18.5087 19.8123 18.5087 20.2951 18.5502 20.7778C19.0072 26.7593 19.485 32.7617 19.942 38.7432C20.1497 41.2827 20.3367 43.8222 20.5652 46.3617C20.6483 47.2642 21.043 47.4531 21.8116 46.9284C22.2478 46.6136 22.6425 46.1938 22.9956 45.7741C24.2005 44.3259 25.3638 42.8568 26.5894 41.4296C27.2125 40.6951 27.5865 40.737 28.1058 41.5556C28.5628 42.2901 28.999 43.0457 29.4352 43.8012C30.557 45.7111 31.6787 47.621 32.8212 49.5728C34.3377 48.6914 35.771 47.8519 37.2459 46.9914Z" fill="#E95A49"/>
<path opacity="0.3" d="M17.657 0C19.4435 0.482716 21.313 0.776543 23.0164 1.49012C30.3493 4.57531 34.3792 13.2432 32.1357 20.9037C30.7232 20.4 30.6609 20.2741 30.8894 18.763C32.1981 10.5358 26.2362 2.74938 17.9478 1.84691C9.09855 0.902469 1.45411 8.01728 1.70338 17.021C1.86957 23.2543 5.98261 28.7951 11.9029 30.642C12.9623 30.9778 13.6686 31.3346 13.3362 32.7198C13.1285 32.6988 12.8377 32.6988 12.5469 32.6358C6.08647 31.1247 1.01787 25.458 0.186957 18.8259C0.145411 18.5741 0.0623188 18.3222 0 18.0494C0 17.063 0 16.0975 0 15.1111C0.0623188 14.8383 0.145411 14.5864 0.186957 14.3136C1.2256 7.87037 4.757 3.42099 10.7604 1.07037C12.1522 0.524691 13.6894 0.35679 15.1643 0C15.9952 0 16.8261 0 17.657 0Z" fill="#E95A49"/>
<path opacity="0.5" d="M12.8792 26.7803C7.62367 25.2482 4.48695 19.1617 6.04492 13.579C7.64444 7.84939 13.627 4.49136 19.3604 6.14939C24.9898 7.76544 27.7111 13.4951 26.9425 17.4407C26.1739 17.021 25.5923 16.6432 25.4469 15.5728C24.4913 8.54198 17.013 5.03704 11.3005 8.89877C5.73333 12.6556 5.96183 21.0926 11.7159 24.5346C12.9208 25.2482 12.9208 25.2482 12.8792 26.7803Z" fill="#E95A49"/>
<path d="M20.0875 12.9704C18.6957 12.8864 17.5532 12.7815 16.4314 12.7605C14.458 12.7185 12.8377 14.1457 12.63 16.1395C12.5053 17.2728 12.4638 18.4272 12.3807 19.8123C11.4044 18.4901 11.0305 17.2099 11.3005 15.7617C11.6952 13.621 12.9623 12.1728 15.0396 11.5852C16.8677 11.0395 18.5087 11.5012 20.0875 12.9704Z" fill="#E95A49"/>
</g>
<defs>
<clipPath id="clip0">
<rect width="43" height="51" fill="white"/>
</clipPath>
</defs>
</svg>
