<?xml version="1.0" encoding="UTF-8"?>
<svg width="295px" height="481px" viewBox="0 0 295 481" version="1.1" xmlns="http://www.w3.org/2000/svg" xmlns:xlink="http://www.w3.org/1999/xlink">
    <title>7C4A8F78-1FE8-4EF6-9477-304C029F26A6</title>
    <g id="Design-" stroke="none" stroke-width="1" fill="none" fill-rule="evenodd">
        <g id="v2.Summary/3" transform="translate(-572.000000, -313.000000)" fill="#FFFFFF">
            <g id="Icon" transform="translate(572.000000, 313.000000)">
                <path d="M26.376469,288.047138 L26.376469,312.649522 L31.3341953,312.649522 L31.3341953,308.584228 C31.3341953,308.574199 31.3409635,308.567512 31.3409635,308.557483 L31.3409635,308.557483 L31.3409635,295.923645 L31.4391028,295.923645 L31.4391028,288.08057 L33.9771879,288.08057 L33.9771879,295.923645 L41.672662,295.923645 L41.672662,288.08057 L44.2107472,288.08057 L44.2107472,295.923645 L51.9062213,295.923645 L51.9062213,288.08057 L54.4443064,288.08057 L54.4443064,295.923645 L62.1397805,295.923645 L62.1397805,288.08057 L64.6778656,288.08057 L64.6778656,295.923645 L72.3733398,295.923645 L72.3733398,288.08057 L74.9114249,288.08057 L74.9114249,295.923645 L74.9384978,295.923645 L74.9384978,308.567512 L74.9384978,308.567512 L74.945266,308.587571 L74.9418819,312.649522 L79.9029923,312.649522 L79.9029923,288.047138 L82.4410774,288.047138 L82.4410774,334.941776 C82.4410774,336.757117 80.8234712,338.234798 78.8336124,338.234798 L78.8336124,338.234798 L74.9215772,338.234798 L74.8708155,394.486968 C74.8708155,394.533772 74.8708155,394.580577 74.8674314,394.624038 L74.8674314,394.624038 L68.2345689,478.744869 C68.1601184,479.868174 67.2193349,480.740741 66.0788886,480.740741 L66.0788886,480.740741 L40.1261221,480.740741 C38.9856759,480.740741 38.0448923,479.868174 37.9704418,478.744869 L37.9704418,478.744869 L31.3375794,394.624038 C31.3341953,394.580577 31.3341953,394.533772 31.3341953,394.486968 L31.3341953,394.486968 L31.3341953,338.234798 L27.4458488,338.234798 C25.4559901,338.234798 23.8383838,336.757117 23.8383838,334.941776 L23.8383838,334.941776 L23.8383838,288.047138 L26.376469,288.047138 Z M61.618627,347.010618 L44.6608342,347.010618 C43.5305403,347.010618 42.6134456,347.916617 42.6134456,349.033236 L42.6134456,349.033236 L42.6134456,396.489527 C42.6134456,397.606145 43.5305403,398.512144 44.6608342,398.512144 L44.6608342,398.512144 L61.618627,398.512144 C62.7489209,398.512144 63.6660157,397.606145 63.6660157,396.489527 L63.6660157,396.489527 L63.6660157,349.033236 C63.6660157,347.916617 62.7489209,347.010618 61.618627,347.010618 L61.618627,347.010618 Z M57.5959596,351.616162 C58.7005291,351.616162 59.5959596,352.511592 59.5959596,353.616162 L59.5959596,369.481481 C59.5959596,370.586051 58.7005291,371.481481 57.5959596,371.481481 L48.6835017,371.481481 C47.5789322,371.481481 46.6835017,370.586051 46.6835017,369.481481 L46.6835017,353.616162 C46.6835017,352.511592 47.5789322,351.616162 48.6835017,351.616162 L57.5959596,351.616162 Z M72.4004127,298.431022 L33.8756645,298.431022 L33.8756645,306.451286 L72.4004127,306.451286 L72.4004127,298.431022 Z" id="Combined-Shape" opacity="0.7"></path>
                <path d="M289.845267,213.158079 C286.84451,228.188215 281.488643,235.74177 272.024716,245.206305 C267.003382,250.229737 261.486939,255.022245 257.706721,258.191592 C261.065428,236.923164 263.714926,215.661428 263.992588,201.394345 C264.260214,200.885643 264.541222,200.32674 264.83561,199.707597 C264.882445,199.617235 264.939316,199.533567 264.982805,199.443205 C266.62536,197.093805 268.445217,194.858194 270.331981,192.940521 C272.252198,191.243732 274.289502,189.75444 276.075906,188.36555 C278.554792,186.9867 280.926628,186.534892 282.903716,187.528869 C290.440735,191.29728 291.785556,203.455927 289.845267,213.158079 M180.088468,344.751253 C179.365877,350.64818 179.727172,356.173621 177.54602,364.573897 C175.739544,371.515002 161.160613,372.114066 155.701041,370.440704 C150.241469,368.770689 156.794963,363.727176 161.980218,360.688351 C158.009316,360.688351 150.669671,360.480854 148.003446,360.400533 L148.003446,360.367066 C148.003446,360.367066 147.816108,360.373759 147.498302,360.383799 C147.180496,360.373759 146.996503,360.367066 146.996503,360.367066 L146.996503,360.400533 C144.326933,360.480854 136.990633,360.688351 133.016386,360.688351 C138.204986,363.727176 144.75848,368.770689 139.298908,370.440704 C133.835991,372.114066 119.260406,371.515002 117.453929,364.573897 C115.269432,356.173621 115.634072,350.64818 114.908136,344.751253 C114.908136,338.750578 110.606047,333.954723 104.611223,330.380422 C113.272272,330.433969 118.638175,329.751238 123.796668,328.666899 C133.454624,326.632091 142.025349,321.113344 146.076538,310.795395 C146.678697,309.265942 147.150388,306.893115 147.498302,304.577182 C147.849561,306.893115 148.317907,309.265942 148.920066,310.795395 C152.971255,321.113344 161.54198,326.632091 171.199937,328.666899 C176.358429,329.751238 181.727677,330.433969 190.388726,330.380422 C184.393902,333.954723 180.088468,338.750578 180.088468,344.751253 M37.2965739,258.194939 C33.5096649,255.022245 27.9932224,250.229737 22.9718881,245.206305 C13.5113063,235.74177 8.15878472,228.184868 5.15133667,213.158079 C3.21439293,203.455927 4.55921397,191.29728 12.0962334,187.528869 C17.3149419,184.911731 25.2768177,192.281217 30.7564616,200.537584 C30.8400948,200.71496 30.9203826,200.895684 30.9973251,201.076407 C31.2415339,215.34349 33.9077587,236.769214 37.2965739,258.194939 M284.850696,183.63663 C283.592853,183.007446 282.288176,182.729668 280.970118,182.682813 C280.973463,182.66608 280.980154,182.652693 280.983499,182.635959 C282.455442,172.31801 281.351485,109.868147 273.613746,94.024757 C269.231369,85.038804 262.764854,81.357408 257.572908,81.3172473 C253.354452,63.4055823 238.417571,33.0441053 193.282433,30.1190688 C196.965637,28.2549438 200.695676,27.0133093 207.322766,26.4142458 C196.202903,23.2817124 192.887685,18.8606905 185.544694,16.5246774 C165.803926,10.2361836 145.022761,11.685315 137.900562,13.1511799 C139.188512,10.1558622 143.805062,5.53403688 145.1733,5.7348403 C127.423001,3.11100895 116.058929,-1.31335972 103.360071,0.373389005 C86.7705997,2.57887989 73.3959865,9.05813689 67.5583926,13.3352497 C48.3328043,27.4149161 37.0824731,50.0086475 40.6051013,77.8801621 C32.1916065,80.2128285 20.4227497,97.2443052 17.284834,111.892915 C12.8656584,132.528813 12.8656584,152.425085 14.3409471,167.896988 L15.1806239,182.682813 C13.4644717,182.548944 11.7717368,182.826722 10.152599,183.63663 C0.521405526,188.455912 -1.43895549,202.361548 0.889391383,214.011494 C4.09421366,230.0423 10.0422032,238.422496 19.8975335,248.281944 C27.2572507,255.644736 35.6473282,262.518906 38.3436609,264.684236 C39.4576545,271.451312 40.6285186,278.134719 41.7993827,284.523614 L59.9711933,284.523614 C59.844071,284.296037 59.7002219,284.065113 59.5764449,283.840883 C50.3868344,267.247827 39.8557483,234.694246 35.4064647,205.855528 C35.3395582,204.225674 35.2994143,202.615899 35.2525797,201.002779 C35.4098101,200.530891 35.3930834,200.028882 35.2057452,199.543607 C34.2322553,161.411038 38.9658916,128.064283 48.9951788,101.226906 C59.7336752,115.755034 77.547536,115.547537 88.734306,113.736959 C107.926441,110.627853 145.213444,89.0950331 173.601881,77.1840436 C200.471539,65.9055849 233.801021,88.3788342 242.997322,98.034132 C242.983941,98.0809861 242.967215,98.1211468 242.953833,98.1713476 C243.489085,98.8339989 244.041064,99.7141872 244.599734,100.698124 C256.187943,131.39762 260.797802,170.694849 257.827153,215.962633 C252.732221,241.996797 243.549301,269.165499 235.420159,283.840883 C226.799254,299.413188 209.232947,320.179608 199.337473,325.982827 C196.159414,318.476126 194.178981,313.894461 191.643224,309.875046 C182.801527,295.872354 167.59033,296.852944 157.661402,296.852944 L155.266149,297.016934 C157.768453,296.069811 159.79572,294.767935 161.675793,293.539688 C162.896837,292.736474 164.04763,291.980114 165.265328,291.371011 C167.643855,290.182924 169.273029,289.781317 170.741627,290.052402 C171.895764,290.256552 173.056592,289.480112 173.267348,288.298718 C173.481449,287.117325 172.695297,285.986132 171.514397,285.771942 C168.403244,285.206346 165.502846,286.387739 163.321694,287.482118 C161.876513,288.201663 160.5618,289.065118 159.290576,289.898452 C156.069027,292.010235 153.028126,294.004882 147.779309,294.004882 L147.22064,294.004882 C141.975169,294.004882 138.934268,292.010235 135.712719,289.898452 C134.438149,289.065118 133.123436,288.201663 131.678256,287.478771 C129.497103,286.391086 126.59336,285.209693 123.485552,285.771942 C122.301307,285.986132 121.518501,287.117325 121.732601,288.298718 C121.946702,289.483459 123.090804,290.266592 124.258323,290.052402 C125.723575,289.781317 127.35944,290.182924 129.734621,291.371011 C130.948974,291.980114 132.106457,292.736474 133.327501,293.539688 C135.204229,294.767935 137.234842,296.073158 139.7338,297.016934 L137.335202,296.852944 C127.406274,296.852944 112.195077,295.872354 103.356726,309.875046 C100.820969,313.894461 98.8405358,318.476126 95.6591308,325.982827 C93.0598125,324.456721 89.9218968,321.879744 86.5598442,318.650155 L86.5598442,334.814831 C86.5598442,336.14348 86.2320022,338.144821 84.6530084,340.132774 L84.3853823,340.467447 L83.3014967,341.521665 L82.8967122,341.81283 C82.1105606,342.375079 81.2641931,342.806807 80.3810271,343.097972 L80.3408832,385.782085 C86.7103838,392.592668 94.2072593,398.496288 103.259711,403.51972 C119.919435,412.766718 136.565777,413.988272 147.237367,417.977567 L147.237367,418.164983 C147.321,418.131516 147.414669,418.101395 147.498302,418.071275 C147.585281,418.101395 147.675604,418.131516 147.759237,418.164983 L147.759237,417.977567 C158.434173,413.988272 175.080515,412.766718 191.740238,403.51972 C219.984825,387.843667 233.239007,363.727176 243.616208,329.460073 C246.138584,321.123384 251.892544,293.586542 256.652943,264.684236 C259.352621,262.518906 267.742699,255.644736 275.102416,248.281944 C284.957746,238.422496 290.905736,230.0423 294.110558,214.011494 C296.438905,202.361548 294.478544,188.452565 284.850696,183.63663" id="Fill-5"></path>
                <path d="M147.996633,304.93266 L147.996633,360.634944 C147.686291,360.624899 147.502131,360.62155 147.502131,360.62155 L147.502131,360.62155 L147.502131,360.651687 C145.983219,360.696596 142.977569,360.781241 139.914128,360.847187 L138.94647,360.867322 C136.85294,360.909307 134.802771,360.939658 133.253667,360.939658 C133.745393,361.222489 134.249188,361.522677 134.754073,361.83589 L135.132769,362.073174 C135.574419,362.352696 136.014802,362.641362 136.44656,362.936269 L136.814354,363.190507 C140.893979,366.045058 143.990972,369.395436 139.654904,370.697184 C134.089204,372.371434 119.226875,371.775401 117.388694,364.827265 C115.161732,356.422532 115.53346,350.89416 114.790003,344.994104 C114.790003,338.990245 110.404286,334.191846 104.292929,330.615649 C113.122339,330.669225 118.59596,329.986131 123.854728,328.901217 C133.700423,326.86533 142.437754,321.343655 146.567694,311.020231 C147.171327,309.520104 147.638546,307.206291 147.996633,304.93266 L147.996633,304.93266 Z M147.003367,89.3939394 L147.003367,294.722389 L146.742801,294.722389 C141.508091,294.722389 138.468151,292.722491 135.25116,290.60515 C133.981734,289.769622 132.665541,288.903894 131.222404,288.179099 C129.044338,287.088551 126.144703,285.904047 123.041291,286.467777 C121.862062,286.682531 121.077023,287.816701 121.290821,289.001205 C121.504619,290.189064 122.650442,290.974258 123.812969,290.759504 C125.276148,290.487706 126.909698,290.89037 129.28152,292.081584 C130.497496,292.692292 131.65,293.450642 132.872657,294.25597 C134.599487,295.392722 136.460099,296.595234 138.698847,297.517769 L139.266553,297.742369 L136.871348,297.577948 C135.781078,297.577948 134.626943,297.566052 133.424434,297.563563 L132.763815,297.563266 C123.117983,297.576208 110.622335,298.419919 102.940942,310.634329 C100.408772,314.664325 98.4311408,319.25805 95.2542366,326.784512 C92.7714496,325.320916 89.7965787,322.893311 86.6073595,319.851154 L86.1711635,319.432538 L86.1711635,285.216163 L59.6167876,285.216163 C59.489845,284.987987 59.3461995,284.756455 59.2225976,284.531634 C50.0459879,267.894899 39.5331408,235.255625 35.0901518,206.340993 C35.0233399,204.706848 34.9799122,203.092836 34.9331439,201.475469 C35.0934924,201.002339 35.0767894,200.499009 34.8897162,200.012456 C33.9142629,161.779508 38.6412024,128.344972 48.6563011,101.436949 C59.3829461,116.00332 77.1682646,115.795277 88.3392085,113.979933 C100.599561,111.986219 120.255526,102.433679 140.251763,92.6821547 L141.752008,91.9505323 C143.002561,91.3407277 144.253754,90.7308646 145.503864,90.1227398 L147.003367,89.3939394 Z M30.2429668,200.33634 C30.3228589,200.517864 30.402751,200.696026 30.482643,200.87755 C30.7256481,215.207846 33.3787306,236.728502 36.7508418,258.249158 C32.9825991,255.065769 27.4933481,250.252026 22.4967648,245.206336 C13.0828158,235.699867 7.75667776,228.109483 4.76405394,213.012753 C2.83665774,203.270975 4.17152109,191.058457 11.6713892,187.273349 C16.8643738,184.644616 24.7870042,192.046753 30.2429668,200.33634 Z" id="Combined-Shape" opacity="0.15"></path>
                <path d="M147.023812,304.93266 C147.378184,307.241897 147.858632,309.611288 148.468562,311.138526 C152.59496,321.444876 161.328205,326.95229 171.165457,328.984152 C176.419715,330.070262 181.885233,330.752005 190.707071,330.698535 C184.600955,334.264318 180.222407,339.05657 180.222407,345.048557 C179.479587,350.933603 179.84759,356.454384 177.625945,364.842497 C175.785933,371.77355 160.939758,372.368405 155.378831,370.700808 C151.043827,369.39903 154.137577,366.054702 158.215185,363.205669 L158.582803,362.951924 C158.767755,362.82578 158.954294,362.700782 159.141841,362.577156 L159.518109,362.331803 C159.769622,362.169544 160.022242,362.009995 160.274597,361.853697 L160.652759,361.621756 C161.03038,361.392387 161.405863,361.170939 161.774578,360.959235 C157.726551,360.959235 150.254056,360.752039 147.534926,360.671834 L147.534926,360.671834 L147.534926,360.641757 C147.534926,360.641757 147.34411,360.645099 147.023812,360.655124 L147.023812,360.655124 L147.003367,360.655124 L147.003367,305.062993 C147.010182,305.019549 147.016997,304.976104 147.023812,304.93266 Z M173.131935,77.5915942 C200.006651,66.2987727 233.339061,88.8073202 242.537093,98.4777833 C242.527055,98.5247111 242.510326,98.5649348 242.496942,98.6118625 C243.028949,99.2789066 243.581031,100.157125 244.139806,101.14596 C255.733542,131.893675 260.344269,171.252627 257.369715,216.591512 C252.27717,242.666567 243.089176,269.877943 234.96185,284.576376 C226.339322,300.169788 208.769709,320.968826 198.872372,326.784512 C195.690368,319.26602 193.712908,314.677159 191.173328,310.651431 C183.479604,298.449954 170.963897,297.607137 161.302582,297.594209 L160.640903,297.594505 C159.436463,297.596992 158.280476,297.608875 157.188456,297.608875 L157.188456,297.608875 L154.792752,297.773123 C157.292181,296.824512 159.31983,295.520592 161.200257,294.287063 C162.421531,293.48594 163.575885,292.728392 164.790467,292.118332 C167.169442,290.928379 168.798922,290.522789 170.271143,290.797652 C171.425497,290.99877 172.583198,290.224463 172.797339,289.041214 C173.008134,287.854613 172.225181,286.724996 171.040713,286.510469 C167.93232,285.943984 165.02803,287.127233 162.846467,288.219979 C161.401014,288.944006 160.0894,289.805465 158.814591,290.64346 C155.592435,292.75856 152.550962,294.75634 147.304503,294.75634 L147.304503,294.75634 L147.003367,294.75634 L147.003367,89.6453153 C156.017372,85.274333 164.947727,81.030726 173.131935,77.5915942 Z M280.992543,186.73402 L281.237947,186.738586 C281.970531,186.767969 282.670068,186.939411 283.325954,187.27221 C287.693662,189.476232 289.971932,194.537599 290.731944,200.305421 C291.277171,204.443856 291.041025,208.945165 290.234391,213.015935 C290.1425,213.480348 290.048391,213.937658 289.952011,214.388139 L289.805733,215.058674 C286.74721,228.816802 281.482918,236.138273 272.498851,245.206127 C270.258646,247.468024 267.919423,249.683311 265.681225,251.726014 L265.167806,252.193056 C262.605028,254.5189 260.196838,256.602571 258.249158,258.249158 L258.249158,258.249158 C261.591843,236.886152 264.228702,215.52987 264.50504,201.199344 C264.771389,200.68838 265.051056,200.126991 265.34404,199.505094 C265.390651,199.414331 265.447251,199.330291 265.490532,199.239527 C265.928599,198.607143 266.379337,197.982967 266.840633,197.370944 C266.858598,197.349013 266.876197,197.325666 266.893811,197.302336 C267.015003,197.140238 267.137434,196.980144 267.260554,196.820976 C267.301088,196.769639 267.341365,196.717695 267.381715,196.665852 C267.484807,196.532639 267.588725,196.400566 267.693094,196.2692 C267.777336,196.16351 267.861594,196.058177 267.946136,195.953328 C268.033,195.845565 268.120148,195.738459 268.207579,195.631882 C268.299526,195.519569 268.392572,195.407051 268.485924,195.295166 C268.554255,195.213681 268.622558,195.132392 268.691016,195.051448 C268.79808,194.924315 268.905901,194.798089 269.014085,194.672767 C269.07497,194.602842 269.135586,194.533046 269.19631,194.463535 C269.508372,194.1057 269.82367,193.755776 270.141305,193.414607 C270.189539,193.362899 270.237869,193.311195 270.286252,193.259694 C270.46151,193.07335 270.637556,192.889592 270.814191,192.708719 L270.484376,193.050234 C270.59407,192.93506 270.704016,192.820944 270.814191,192.707927 C272.725248,191.003593 274.756162,189.507678 276.530715,188.112612 C276.804833,187.958725 277.077635,187.816334 277.34873,187.686153 L277.61924,187.55984 C278.78886,187.030584 279.923947,186.7363 280.992543,186.73402 Z" id="Combined-Shape" opacity="0.25"></path>
            </g>
        </g>
    </g>
</svg>