<?xml version="1.0" encoding="UTF-8"?>
<svg width="433px" height="496px" viewBox="0 0 433 496" version="1.1" xmlns="http://www.w3.org/2000/svg" xmlns:xlink="http://www.w3.org/1999/xlink">
    <title>E7BC85B7-01F9-4CD6-B7D2-05483DF9BEA6</title>
    <g id="Design-" stroke="none" stroke-width="1" fill="none" fill-rule="evenodd">
        <g id="v2.Summary/9" transform="translate(-572.000000, -313.000000)" fill="#FFFFFF">
            <g id="Icon" transform="translate(572.000000, 313.000000)">
                <path d="M232.396623,332.780897 C227.084023,327.841997 217.004223,319.775463 205.436357,311.197197 C204.61489,310.584463 204.32199,309.490297 204.73609,308.554363 C206.77629,303.94203 211.610823,301.834497 218.758257,299.928963 C226.58239,297.844997 237.032523,297.575663 246.07539,305.82063 C250.12549,292.990263 253.58979,279.133063 256.39759,264.29953 C254.088057,263.17843 251.84249,261.90583 249.66089,260.384097 C245.577123,268.66273 239.32859,274.54093 232.315823,276.73263 C233.103623,279.304763 233.103623,282.321297 232.285523,285.485963 C231.01629,290.374363 227.979557,294.663497 224.353657,296.673397 C219.195923,299.53843 214.81589,301.221763 206.476657,301.905197 C205.793223,301.969163 205.113157,301.696463 204.662023,301.177997 C204.204157,300.662897 204.015623,299.96263 204.153657,299.289297 C206.12989,289.61013 208.14989,276.49023 209.419123,265.053663 C209.459523,264.716997 209.570623,264.397163 209.749057,264.114363 C211.277523,261.72403 215.09869,257.505597 219.525857,252.620563 C224.56239,247.065563 230.26889,240.773263 233.760123,235.881497 C234.292057,235.134097 235.231357,234.814263 236.113423,235.03983 C244.008257,237.177663 251.425023,236.709697 260.010023,236.164297 C260.26589,236.147463 260.535223,236.133997 260.794457,236.117163 C261.727023,228.663363 262.51819,221.03113 263.147757,213.196897 C263.26559,211.695363 263.329557,210.237597 263.433923,208.746163 C255.502057,205.61853 246.573657,199.726863 243.102623,194.13483 C241.102823,193.848663 239.251157,193.65003 237.476923,193.454763 C232.17779,192.879063 227.16819,192.333663 220.80519,189.788463 L219.677357,189.35753 C216.66419,188.239797 213.546657,187.088397 210.728757,180.876897 C208.318223,175.57103 211.668057,168.447163 212.05859,167.655997 C212.49289,166.770563 213.455757,166.285763 214.435457,166.47093 L245.07549,172.355863 C244.664757,171.69263 244.264123,171.022663 243.890423,170.33923 C240.143323,163.528463 241.129757,155.468663 246.46929,149.31103 C247.172923,148.50303 248.364723,148.324597 249.270357,148.880097 C250.67089,149.741963 256.51879,153.882963 263.82109,159.111397 C260.81129,110.533763 247.395123,71.6251967 224.545557,46.8734633 C205.40269,26.1381633 180.189723,15.6240633 149.606923,15.6240633 L149.209657,15.6240633 L149.209657,407.20443 L149.606923,407.20443 C184.69769,407.20443 214.580223,380.728963 235.140457,334.86823 C233.292157,333.50473 232.655857,333.01993 232.396623,332.780897" id="Fill-1" opacity="0.25"></path>
                <path d="M5.00859,214.273557 C3.05929,204.51359 4.41269,192.28249 11.9944233,188.488257 C17.47199,185.784823 25.8920233,193.85809 31.40999,202.530623 C31.8308233,203.193857 32.5546567,203.51369 33.2852233,203.506957 C33.4064233,203.820057 33.5175233,204.133157 33.6286233,204.449623 C33.84409,210.721723 34.1605567,217.071257 34.6790233,223.58239 C35.72269,236.59119 37.21749,249.057957 39.0893567,261.009623 C35.3961233,257.97289 28.8277567,252.394323 22.9428233,246.50939 C13.42189,236.988457 8.03185667,229.386523 5.00859,214.273557" id="Fill-3" opacity="0.15"></path>
                <path d="M149.177,15.6237267 C118.5942,15.6237267 93.3812333,26.1378267 74.2383667,46.8731267 C43.43,80.2468933 29.7243,139.31506 35.6361667,213.199927 C45.0763,331.05346 89.6408667,407.20746 149.177,407.20746 L149.210667,407.20746 L149.210667,15.6237267 L149.177,15.6237267 Z" id="Fill-5" opacity="0.15"></path>
                <path d="M431.828867,369.67283 C431.195933,369.043263 416.1806,354.152497 408.922067,347.883763 C407.093967,346.308163 404.663233,343.742763 402.084367,341.022497 C399.168833,337.94873 395.862767,334.46423 392.815933,331.77763 C387.6582,327.225897 386.2139,324.57633 381.140333,313.075797 C377.7097,305.292063 348.079667,251.98763 345.5917,247.516697 C344.696167,244.375597 336.666667,216.341363 333.838667,210.681997 C332.478533,207.968463 331.192467,205.490597 329.9468,203.09353 C325.9876,195.46803 322.5637,188.879463 318.453,177.79303 C314.6049,167.40013 311.854333,160.670163 309.187933,157.00723 C308.662733,156.283397 307.740267,155.960197 306.891867,156.16893 C301.885633,157.417963 298.428067,160.151697 296.6168,164.285963 C294.239933,169.70293 295.209533,176.577663 296.9804,182.496263 C283.954767,173.059497 253.4696,151.011197 250.008667,148.880097 C249.1064,148.324597 247.911233,148.50303 247.2076,149.31103 C241.868067,155.468663 240.881633,163.528463 244.628733,170.33923 C245.009167,171.022663 245.406433,171.69263 245.817167,172.355863 L215.173767,166.47093 C214.194067,166.285763 213.2312,166.770563 212.7969,167.655997 C212.406367,168.447163 209.056533,175.57103 211.470433,180.876897 C214.288333,187.088397 217.405867,188.239797 220.415667,189.35753 L221.5435,189.788463 C227.909867,192.333663 232.9161,192.879063 238.215233,193.454763 C239.992833,193.65003 241.841133,193.848663 243.840933,194.13483 C247.891033,200.662797 259.384833,207.621697 268.0338,210.089463 C269.3973,222.933297 270.339967,228.912497 271.854967,235.639097 C267.9126,235.719897 264.273233,235.93873 260.7517,236.164297 C252.1667,236.709697 244.749933,237.177663 236.8551,235.03983 C235.969667,234.814263 235.033733,235.134097 234.5018,235.881497 C231.010567,240.773263 225.3007,247.065563 220.264167,252.620563 C215.840367,257.505597 212.015833,261.72403 210.490733,264.114363 C210.308933,264.397163 210.197833,264.716997 210.157433,265.053663 C208.8882,276.49023 206.871567,289.61013 204.895333,299.289297 C204.7573,299.96263 204.942467,300.662897 205.400333,301.177997 C205.854833,301.696463 206.531533,301.969163 207.214967,301.905197 C215.557567,301.221763 219.9376,299.53843 225.095333,296.673397 C228.717867,294.663497 231.7546,290.374363 233.023833,285.485963 C233.841933,282.321297 233.841933,279.304763 233.054133,276.73263 C240.0669,274.54093 246.315433,268.66273 250.3992,260.384097 C260.2164,267.23863 271.0941,269.639063 284.947933,270.952063 C287.345,294.976597 283.853767,308.954997 273.060233,318.56683 C271.309567,318.25373 269.656533,318.04163 268.054,317.836263 C262.815467,317.16293 258.2772,316.580497 252.452867,312.419297 C242.423567,297.515063 229.0175,297.393863 219.499933,299.928963 C212.3525,301.834497 207.5146,303.94203 205.477767,308.554363 C205.063667,309.490297 205.3532,310.584463 206.178033,311.197197 C217.742533,319.775463 227.822333,327.841997 233.134933,332.780897 C233.4918,333.11083 234.515267,333.86833 238.386933,336.709797 C245.891233,342.21093 261.495733,353.660963 265.8219,358.182397 C267.656733,360.101397 269.3165,361.91603 270.878633,363.63303 C275.531367,368.73353 279.5478,373.133763 285.0826,376.719263 C294.213,382.624397 302.653233,384.597263 312.4233,386.876497 C315.093067,387.502697 317.873933,388.152463 320.8164,388.916697 C335.367133,392.70083 356.492967,413.44623 365.6301,423.886263 C371.656433,430.771097 390.883467,458.71443 391.075367,458.99723 C391.499567,459.616697 392.186367,459.94663 392.883267,459.94663 C393.310833,459.94663 393.741767,459.822063 394.118833,459.56283 C395.115367,458.87603 395.367867,457.515897 394.681067,456.519363 C393.883167,455.36123 375.117367,428.08113 368.9227,421.004397 C367.808333,419.72843 341.393467,389.744897 321.920667,384.68143 C318.941167,383.907097 316.123267,383.24723 313.419833,382.617663 C304.047033,380.425963 295.9502,378.533897 287.462833,373.042863 C282.399367,369.767097 278.743167,365.757397 274.110633,360.68383 C272.5283,358.943263 270.848333,357.105063 268.986567,355.155763 C264.394433,350.358263 249.160267,339.18093 240.979267,333.18153 C238.636067,331.46453 236.427533,329.845163 236.114433,329.572463 C230.943233,324.76823 221.408833,317.10233 210.399833,308.88093 C212.002367,307.035997 215.103067,305.632097 220.6244,304.157497 C228.8256,301.965797 240.406933,302.10383 249.022233,315.166497 C249.167,315.38533 249.3488,315.57723 249.557533,315.72873 C256.442367,320.75853 261.8122,321.448697 267.495133,322.175897 C269.323233,322.411563 271.222033,322.650597 273.262233,323.06133 C273.925467,323.185897 274.595433,323.02093 275.1038,322.58663 C288.045267,311.65843 292.105467,296.04383 289.1125,268.699763 C288.998033,267.659463 288.166467,266.84473 287.129533,266.757197 C271.743867,265.417263 260.883,263.114463 250.8739,255.29033 C250.331867,254.872863 249.634967,254.731463 248.971733,254.899797 C248.3085,255.074863 247.766467,255.546197 247.507233,256.175763 C246.049467,259.666997 240.464167,271.201197 229.620133,273.069697 C228.9064,273.194263 228.293667,273.66223 227.9974,274.332197 C227.697767,274.99543 227.751633,275.76303 228.135433,276.382497 C229.357533,278.34863 229.596567,281.264163 228.7852,284.38843 C227.8257,288.101863 225.5431,291.421397 222.970967,292.848863 C218.883833,295.11463 215.500333,296.50843 209.760167,297.242363 C211.537767,287.987397 213.288433,276.382497 214.4533,266.06703 C215.981767,263.861863 219.6447,259.821863 223.509633,255.559663 C228.226333,250.358163 233.525467,244.510263 237.1783,239.63533 C245.1876,241.527397 252.5606,241.05943 261.027767,240.53423 C264.9836,240.28173 269.107767,240.042697 273.592167,240.005663 C273.925467,240.20093 274.289067,240.335597 274.682967,240.335597 C274.854667,240.335597 275.026367,240.315397 275.198067,240.27163 C276.373033,239.98883 277.096867,238.810497 276.814067,237.63553 C274.844567,229.42423 273.854767,223.72783 272.228667,208.12333 C272.131033,207.190763 271.454333,206.42653 270.545333,206.21443 C262.4889,204.35603 250.123133,197.040263 247.1773,191.148597 C246.8642,190.512297 246.2582,190.071263 245.554567,189.96353 C243.0767,189.583097 240.8345,189.340697 238.689933,189.10503 C233.478333,188.536063 228.9771,188.051263 223.166233,185.724897 L221.9374,185.25693 C219.277733,184.270497 217.520333,183.617363 215.4532,179.068997 C214.423,176.796497 215.2815,173.315363 216.092867,171.10683 L249.840333,177.587663 C252.937667,180.897097 257.223433,184.172863 263.987067,187.879563 C268.986567,193.969863 280.1841,201.723297 286.978033,204.632097 C289.9205,221.138863 294.711267,238.23143 294.761767,238.406497 C295.034467,239.37273 295.913167,240.002297 296.8693,240.002297 C297.064567,240.002297 297.2632,239.97873 297.461833,239.921497 C298.6267,239.591563 299.3034,238.38293 298.976833,237.22143 C298.922967,237.042997 293.953767,219.320863 291.078633,202.67943 C290.943967,201.908463 290.412033,201.268797 289.6781,200.996097 C283.608,198.76063 271.774167,190.69073 267.131533,184.81253 C266.949733,184.576863 266.7208,184.384963 266.461567,184.243563 C255.546833,178.31823 251.486633,173.726097 248.463367,168.22833 C245.877767,163.525097 246.2279,158.205763 249.342067,153.69443 C258.2065,159.777997 294.973867,186.445363 299.714133,189.886097 C300.623133,191.96333 301.458067,193.60963 301.966433,194.555663 C303.599267,206.54773 309.235067,217.563463 310.3326,219.620497 C310.662533,221.45533 312.2718,230.22213 314.7362,241.056063 C315.002167,242.234397 316.1906,242.971697 317.3521,242.70573 C318.5338,242.439763 319.267733,241.264797 319.001767,240.08983 C316.2714,228.057363 314.598167,218.603763 314.577967,218.509497 C314.537567,218.270463 314.456767,218.044897 314.3423,217.832797 C314.274967,217.714963 307.834533,205.918163 306.2522,193.592797 C306.218533,193.323463 306.134367,193.06423 306.003067,192.825197 C305.033467,191.040863 296.6269,175.15693 300.623133,166.04673 C301.7072,163.57223 303.632933,161.86533 306.487867,160.85533 C308.915233,164.87513 311.689367,172.13703 314.349033,179.311397 C318.554,190.657063 322.2001,197.676563 326.065033,205.11353 C327.3006,207.490397 328.576567,209.948063 329.923233,212.641397 C332.1284,217.044997 338.427433,238.318963 341.4507,248.95763 C341.497833,249.115863 341.5618,249.274097 341.6426,249.42223 C341.9658,249.99793 373.706733,307.07303 377.137367,314.846663 C382.039233,325.96003 383.8808,329.730697 389.923967,335.06013 C392.8193,337.618797 395.916633,340.881097 398.9096,344.03903 C401.562533,346.83673 404.0707,349.476197 406.063767,351.19993 C413.204467,357.367663 428.590133,372.625397 428.745,372.776897 C429.172567,373.201097 429.728067,373.413197 430.286933,373.413197 C430.849167,373.413197 431.4114,373.19773 431.838967,372.766797 C432.690733,371.908297 432.687367,370.52123 431.828867,369.67283" id="Fill-7" opacity="0.5"></path>
                <path d="M147.802053,6.13410333 C146.425087,5.93210333 141.779087,10.5848367 140.479553,13.5946367 C147.647187,12.1234033 168.56092,10.66227 188.430987,16.9882367 C195.817453,19.33817 199.15382,23.7855367 210.34462,26.9367367 C203.675253,27.5427367 199.924787,28.79177 196.21472,30.6636367 C241.637787,33.6061033 256.67332,64.15187 260.91532,82.1669033 C266.143753,82.2073033 272.648153,85.9140033 277.061853,94.9501367 C283.485453,108.103703 285.364053,153.169903 284.990353,174.356337 C282.452223,172.521167 279.783197,170.593582 277.093173,168.653755 L275.297919,167.359604 C269.610735,163.261288 263.938811,159.18782 259.316153,155.893537 C256.95612,134.33677 252.374087,115.00537 245.64412,98.3673033 C235.608087,88.35147 202.89082,66.89907 176.411987,78.00907 C147.842453,89.9944033 110.31422,111.65217 90.9996533,114.779803 C79.9704533,116.567503 62.53112,116.80317 51.6668867,103.063803 C39.82632,135.06397 35.4159867,176.245037 39.22032,223.755437 C40.5804533,240.716703 42.70482,256.93057 45.5496533,272.259003 C46.26002,273.932237 46.9939533,275.94887 47.7480867,278.477237 C53.0640533,296.243137 67.50032,343.228337 88.1379867,340.168037 C98.2786062,338.662917 98.7535831,324.270274 98.7694419,323.645218 L98.76992,323.624237 L98.8574533,323.604037 C97.44682,322.294403 96.17422,320.877037 95.12382,319.325003 C92.4843533,315.42977 90.95252,308.760403 93.3192867,302.92597 C95.04302,298.65367 97.6656533,295.65397 101.564253,293.889837 C104.018553,292.77547 107.634353,292.91687 109.815953,294.67427 C111.91002,296.364337 112.492453,299.862303 109.815953,302.272837 C109.815953,302.272837 110.47582,299.92627 108.469287,297.640303 C107.40542,296.435037 104.877053,296.519203 103.035487,297.711003 C100.126687,299.586237 99.70922,305.14797 101.793187,307.83457 C105.402253,312.48057 112.832487,312.032803 117.084587,309.17787 C126.227474,303.039641 130.226473,301.454645 139.032551,301.399038 L139.526787,301.397503 L149.374287,301.397503 C149.374287,301.397503 149.152048,302.453054 148.76315,304.029467 L148.641536,304.517482 C147.777104,307.951722 146.235645,313.350185 144.495987,316.10647 C139.439253,324.109037 131.63532,329.63037 121.063987,330.525903 C115.347387,331.00397 110.401753,330.12527 106.220353,328.34767 C105.341653,335.868803 104.14312,347.884437 104.67842,353.64817 C105.560487,363.246537 114.26332,371.097603 129.622053,364.357537 C144.670313,357.752271 137.463447,349.617633 137.169153,349.29489 L137.16002,349.28497 L161.938687,349.28497 C161.938687,349.28497 154.121287,357.61747 169.48002,364.357537 C184.835387,371.097603 193.53822,363.246537 194.423653,353.64817 C194.955587,347.908003 193.767153,335.96307 192.89182,328.43857 C188.757553,330.148837 183.89272,330.997237 178.280487,330.525903 C167.705787,329.63037 159.901853,324.109037 154.848487,316.10647 C153.106637,313.350185 151.564413,307.951722 150.699714,304.517482 L150.578065,304.029467 C150.207583,302.528121 149.988364,301.499213 149.968326,301.404626 L149.96682,301.397503 L159.817687,301.397503 C168.968287,301.397503 172.94432,302.92597 182.259887,309.17787 C186.505253,312.032803 193.938853,312.48057 197.54792,307.83457 C199.631887,305.14797 199.21442,299.586237 196.30562,297.711003 C194.46742,296.519203 191.935687,296.435037 190.875187,297.640303 C188.86192,299.92627 189.52852,302.272837 189.52852,302.272837 C186.85202,299.862303 187.434453,296.364337 189.52852,294.67427 C191.706753,292.91687 195.322553,292.77547 197.776853,293.889837 C200.493753,295.115303 202.554153,296.983803 204.156687,299.42127 C204.140874,299.534998 204.133301,299.649166 204.134028,299.762761 L204.139122,299.884089 L204.135483,299.762906 C204.135234,299.64937 204.143306,299.535269 204.159717,299.421607 C204.624317,300.128607 205.041783,300.909673 205.432317,301.72104 L205.277367,301.648237 L205.277367,301.648237 L205.429287,301.720703 C205.624553,302.12807 205.85012,302.49167 206.025187,302.92597 C206.368587,303.77437 206.60762,304.639603 206.796153,305.514937 L206.794233,305.516903 C207.286337,307.802253 207.276187,310.121528 206.909273,312.299443 L206.909122,312.297089 C206.479687,314.843178 205.583524,317.187776 204.435451,318.99294 L204.217287,319.325003 C203.126487,320.930903 201.81012,322.405503 200.33552,323.75217 C200.379287,325.041603 201.086287,338.703537 210.96072,340.168037 C217.714253,341.171303 223.794453,336.798003 229.117153,329.866037 C230.33252,330.91307 231.460353,331.909603 232.396287,332.78157 C232.753153,333.108137 233.773253,333.869003 237.648287,336.71047 C245.14922,342.211603 260.757087,353.661637 265.083253,358.18307 C265.584887,358.704903 266.039387,359.199803 266.517453,359.711537 C266.544387,363.711137 266.16732,367.895903 265.174153,372.417337 C262.302387,365.91967 260.868187,363.802037 258.535087,361.017803 C263.265253,376.214937 260.32952,387.883803 253.488453,398.377703 C252.147772,390.127126 248.168289,385.696426 247.300511,384.813685 L247.219704,384.73267 C247.162723,384.67645 247.132187,384.648437 247.132187,384.648437 C247.132187,384.648437 251.589653,398.152137 246.324187,414.022603 C243.092187,423.759003 233.396187,435.148437 223.700187,441.450837 C227.740187,431.071403 222.356887,421.062303 222.356887,421.062303 C222.356887,421.062303 222.841687,436.350337 212.209753,447.379537 C201.581187,458.408737 188.15492,464.058003 178.815787,469.249403 C161.59192,478.820837 151.549153,489.984703 149.737887,495.196303 C149.690753,495.849437 149.630153,496.095203 149.566187,495.819137 C149.56282,495.80567 149.55272,495.788837 149.55272,495.77537 C149.545987,495.788837 149.539253,495.80567 149.535887,495.819137 C149.468553,496.095203 149.41132,495.849437 149.36082,495.196303 C147.549553,489.984703 137.510153,478.820837 120.28292,469.249403 C110.947153,464.058003 97.5208867,458.408737 86.8889533,447.379537 C77.213894,437.342965 76.7473895,423.779653 76.7417866,421.419553 L76.7419923,421.280333 C76.7424508,421.198551 76.7434283,421.139041 76.744182,421.103053 L76.7450518,421.06687 C76.7451327,421.06413 76.7328948,421.085834 76.7099778,421.129947 L76.5920042,421.366069 C75.7419687,423.113493 71.7717018,432.132936 75.39852,441.450837 C65.70252,435.148437 56.0098867,423.759003 52.7778867,414.022603 C47.5090533,398.152137 51.96652,384.648437 51.96652,384.648437 C51.96652,384.648437 47.1218867,389.095803 45.61362,398.377703 C38.7691867,387.883803 35.8334533,376.214937 40.5669867,361.017803 C38.23052,363.802037 36.79632,365.91967 33.9245533,372.417337 C29.3458867,351.570937 37.3349867,337.52857 42.0011867,318.395803 C44.5463867,307.96587 45.3341867,298.25977 44.5968867,289.47277 C43.4690533,284.50357 42.41192,279.419903 41.4389533,274.21167 C40.5097533,271.437537 39.4458867,268.764403 38.1564533,266.28317 C35.05912,263.781737 27.0733867,257.18307 20.0235867,250.13327 C10.1053867,240.208337 4.11608667,231.774837 0.894186667,215.655237 C-1.44901333,203.939237 0.523853333,189.94737 10.2164867,185.102737 C12.2794117,184.066477 14.4517197,183.890089 16.6497023,184.339766 L16.9969533,184.415937 L16.13172,169.26257 C14.64702,153.695103 14.64702,133.683637 19.0977533,112.928137 C22.25232,98.18887 34.09962,81.0559033 42.56342,78.7127033 C39.01832,50.6751033 50.3437867,27.94337 69.6886533,13.7798033 C75.5668533,9.47383667 89.02342,2.95933667 105.71872,0.740703333 C118.498587,-0.956096667 129.93852,3.49463667 147.802053,6.13410333 Z M255.00581,263.58445 C257.19751,264.732483 259.443077,265.732383 261.776177,266.560583 C261.163443,267.055483 260.806577,267.338283 260.786377,267.355117 C260.648343,267.459483 260.493477,267.52345 260.341977,267.59415 C259.294943,269.752183 258.382577,272.024683 257.598143,274.398183 C256.65211,279.44145 255.628643,284.366883 254.537843,289.191317 C253.840943,297.129917 254.463777,305.86305 256.433277,315.17525 C254.931743,314.485083 253.37971,313.60975 251.71321,312.421317 C248.999677,308.38805 246.040377,305.46915 242.97671,303.361617 C246.727177,293.769983 249.558543,284.464517 251.34961,278.475217 C252.090277,276.00745 252.807377,274.024483 253.50091,272.37145 C254.03621,269.486217 254.524377,266.537017 255.00581,263.58445 Z M134.218227,289.564343 C135.46197,290.187658 136.616667,290.912384 137.728963,291.636757 L138.281793,291.998443 L138.869796,292.382362 C141.808189,294.293252 144.716334,296.011928 149.400817,296.117479 L149.85976,296.12261 L150.421993,296.12261 C155.69756,296.12261 158.75786,294.119443 161.996593,291.998443 C163.28266,291.156777 164.609127,290.291543 166.066893,289.564343 C168.25186,288.46681 171.157293,287.26491 174.308493,287.84061 C175.500293,288.05271 176.288093,289.190643 176.072627,290.382443 C175.860527,291.570877 174.729327,292.36541 173.53416,292.146577 C172.083127,291.89071 170.379593,292.29471 168.022927,293.47641 C166.794093,294.089143 165.629227,294.853377 164.39366,295.661377 C161.015967,297.873782 157.196615,300.374226 150.910445,300.497866 L150.421993,300.502643 L149.85976,300.502643 C143.277927,300.502643 139.349027,297.927143 135.884727,295.65801 C134.652527,294.853377 133.48766,294.089143 132.262193,293.47641 C129.90216,292.29471 128.188527,291.89071 126.747593,292.146577 C125.562527,292.368777 124.424593,291.570877 124.20576,290.382443 C123.99366,289.190643 124.78146,288.05271 125.97326,287.84061 C129.127827,287.261543 132.026527,288.46681 134.218227,289.564343 Z M12.1758867,189.014803 C4.58742,192.809037 3.23402,205.03677 5.19005333,214.796737 C8.20658667,229.909703 13.59662,237.511637 23.12092,247.035937 C29.00922,252.924237 35.5809533,258.502803 39.27082,261.539537 C37.3989533,249.584503 35.9041533,237.11437 34.8604867,224.102203 C34.34202,217.597803 34.0255533,211.251637 33.80672,204.982903 C33.6989867,204.666437 33.5811533,204.346603 33.46332,204.033503 C32.7293867,204.040237 32.00892,203.720403 31.5914533,203.05717 C26.0633867,194.38127 17.6231533,186.284437 12.1758867,189.014803 Z M260.820043,207.635837 C262.271077,208.29907 263.688443,208.857937 265.082243,209.346103 C264.870143,214.200837 264.61091,219.099337 264.210277,224.10557 C263.887077,228.118637 263.51001,232.067737 263.10601,235.98317 C262.072443,236.040403 261.018677,236.097637 260.012043,236.16497 C259.564277,236.188537 259.133343,236.21547 258.695677,236.242403 C259.12661,232.12497 259.51041,227.96377 259.850443,223.755437 C260.28811,218.291337 260.594477,212.928237 260.820043,207.635837 Z" id="Combined-Shape"></path>
            </g>
        </g>
    </g>
</svg>