<?xml version="1.0" encoding="UTF-8" standalone="no"?>
<!DOCTYPE svg PUBLIC "-//W3C//DTD SVG 1.1//EN" "http://www.w3.org/Graphics/SVG/1.1/DTD/svg11.dtd">
<svg width="100%" height="100%" viewBox="0 0 169 169" version="1.1" xmlns="http://www.w3.org/2000/svg" xmlns:xlink="http://www.w3.org/1999/xlink" xml:space="preserve" xmlns:serif="http://www.serif.com/" style="fill-rule:evenodd;clip-rule:evenodd;stroke-linejoin:round;stroke-miterlimit:2;">
    <g>
        <g>
            <path d="M77.841,120.041l-9.464,0l-1.993,6.375c-0.598,1.894 -0.997,3.189 -1.329,4.518l-0.798,3.024l-0.232,-0c-0.266,-0.897 -0.499,-1.761 -0.731,-2.658c-0.532,-1.794 -0.831,-2.791 -1.529,-4.917l-2.06,-6.342l-9.264,0l-0,22.152l5.842,0l-0,-6.64c-0,-1.927 -0,-1.927 -0.498,-10.333l0.199,-0c0.531,1.694 1.063,3.356 1.595,5.017c0.565,1.694 1.129,3.389 1.694,5.05l2.359,6.906l5.084,0l2.293,-6.873c1.129,-3.389 2.193,-6.744 3.222,-10.1l0.2,-0c-0.432,8.273 -0.432,8.273 -0.432,10.333l0,6.64l5.842,0l0,-22.152Z" style="fill:#fff;fill-rule:nonzero;"/>
            <rect x="82.762" y="120.041" width="5.942" height="22.152" style="fill:#fff;fill-rule:nonzero;"/>
            <path d="M115.743,120.041l-5.876,0l0,8.867c0,2.525 0,2.525 0.233,7.974l-0.233,-0c-0.864,-2.492 -1.794,-5.017 -2.725,-7.509l-3.522,-9.332l-9.996,0l-0,22.152l5.809,0l-0,-8.866c-0,-2.426 -0,-2.426 -0.266,-8.174l0.266,0c0.897,2.592 1.828,5.15 2.758,7.708l3.489,9.332l10.063,0l-0,-22.152Z" style="fill:#fff;fill-rule:nonzero;"/>
        </g>
        <g>
            <path d="M77.862,82.429c11.312,0 11.312,0 12.928,0.577c2.655,0.808 3.579,2.539 3.579,6.232c-0,8.193 -1.616,9.463 -11.428,9.463c-10.043,-0 -12.12,-1.501 -12.12,-8.886c-0,-0.346 -0,-1.385 0.115,-2.424l-19.366,0l-0.116,4.386c0,7.846 2.421,14.415 6.571,17.758c4.726,3.919 11.297,5.302 25.262,5.302c13.503,-0 19.266,-1.268 24.339,-5.533c4.38,-3.573 6.34,-8.759 6.34,-16.835c-0,-11.309 -4.15,-16.617 -13.488,-17.079l0,-0.462c3.574,-0.577 5.303,-1.269 7.148,-2.654c3.688,-2.769 5.532,-7.847 5.532,-14.886c0,-14.989 -8.415,-20.637 -31.133,-20.637c-15.228,0 -23.188,2.882 -26.879,9.567c-1.961,3.573 -2.192,5.647 -2.423,16.84l19.266,-0l-0,-1.154c0.115,-7.847 1.499,-9.116 10.382,-9.116c10.037,-0 11.19,0.807 11.19,8.077c0,3.347 -0.692,4.962 -2.538,5.886c-1.615,0.692 -2.768,0.807 -11.074,0.807l-2.077,0l-0.01,14.771Z" style="fill:#fff;fill-rule:nonzero;"/>
            <path d="M137.947,41.971l-1.505,-4.92l-6.656,2.315l0,-6.938l-4.796,0l0,6.938l-6.482,-2.315l-1.621,4.515l6.483,2.372l-3.936,5.556l3.878,2.836l4.336,-5.729l3.933,5.787l3.819,-2.894l-3.877,-5.498l6.424,-2.025Z" style="fill:#fff;fill-rule:nonzero;"/>
        </g>
        <path d="M168.683,90.236c-1.564,22.504 -11.792,43.052 -28.806,57.858c-15.508,13.494 -34.952,20.746 -55.308,20.746c-1.984,-0 -3.974,-0.064 -5.972,-0.204c-46.446,-3.23 -81.614,-43.646 -78.392,-90.088c1.562,-22.524 12.112,-43.262 29.064,-57.934l-3.676,-4.524c-2.176,-2.678 -0.028,-6.648 3.4,-6.294l16.398,1.694c2.126,0.222 3.672,2.126 3.45,4.252l-1.69,16.392c-0.352,3.428 -4.676,4.72 -6.856,2.042l-3.632,-4.468c-14.438,12.62 -23.414,30.382 -24.748,49.648c-2.772,39.994 27.504,74.792 67.496,77.57c19.366,1.342 38.11,-4.94 52.76,-17.686c14.65,-12.75 23.46,-30.44 24.802,-49.812c0.604,-8.66 -0.314,-17.222 -2.724,-25.45c-0.91,-3.11 0.874,-6.372 3.984,-7.284c3.124,-0.906 6.38,0.874 7.286,3.986c2.798,9.57 3.86,19.512 3.164,29.556m-102.25,-77.256c1.106,-1.05 1.768,-2.594 1.768,-4.142c-0,-0.384 -0.056,-0.774 -0.11,-1.158c-0.11,-0.332 -0.22,-0.718 -0.332,-1.104c-0.166,-0.33 -0.33,-0.662 -0.552,-0.994c-0.222,-0.332 -0.442,-0.606 -0.716,-0.884c-2.208,-2.154 -6.132,-2.208 -8.34,-0c-0.274,0.278 -0.496,0.552 -0.716,0.884c-0.222,0.332 -0.386,0.664 -0.554,0.994c-0.11,0.386 -0.274,0.772 -0.33,1.104c-0.054,0.384 -0.112,0.774 -0.112,1.158c-0,1.548 0.61,3.092 1.712,4.142c1.106,1.104 2.65,1.768 4.142,1.768c1.548,-0 3.092,-0.664 4.14,-1.768m67.522,16.562c1.716,-0 3.37,-0.716 4.53,-2.098c2.098,-2.538 1.708,-6.238 -0.776,-8.28c-2.54,-2.044 -6.18,-1.71 -8.282,0.77c-2.038,2.54 -1.71,6.238 0.83,8.282c1.106,0.884 2.372,1.326 3.698,1.326m-21.806,-12.698c2.372,-0 4.58,-1.436 5.464,-3.754c1.16,-3.036 -0.328,-6.46 -3.366,-7.618c-3.036,-1.16 -6.406,0.384 -7.566,3.424c-1.158,2.98 0.332,6.402 3.368,7.56c0.72,0.278 1.38,0.388 2.1,0.388m-24.734,-5.078c3.146,-0 5.742,-2.486 5.852,-5.632c0.166,-3.26 -2.374,-6.02 -5.576,-6.13l-0.056,-0c-3.202,-0.11 -5.962,2.376 -6.072,5.632c-0.168,3.202 2.372,5.962 5.632,6.13l0.22,-0Zm67.412,35.056c1.106,-1.046 1.708,-2.592 1.708,-4.14c-0,-1.548 -0.602,-3.036 -1.708,-4.142c-0.276,-0.274 -0.556,-0.494 -0.884,-0.716c-0.33,-0.222 -0.664,-0.388 -0.992,-0.55c-0.388,-0.114 -0.778,-0.28 -1.106,-0.334c-1.936,-0.384 -3.92,0.22 -5.3,1.6c-1.104,1.106 -1.714,2.594 -1.714,4.142c-0,1.548 0.61,3.094 1.714,4.14c1.046,1.106 2.594,1.768 4.142,1.768c1.546,-0 3.034,-0.662 4.14,-1.768" style="fill:#fff;fill-rule:nonzero;"/>
    </g>
</svg>
