<?xml version="1.0" encoding="utf-8"?>
<!-- Generator: Adobe Illustrator 24.2.1, SVG Export Plug-In . SVG Version: 6.00 Build 0)  -->
<svg version="1.1" id="Layer_1" xmlns="http://www.w3.org/2000/svg" xmlns:xlink="http://www.w3.org/1999/xlink" x="0px" y="0px"
	 viewBox="0 0 423.1 41.6" style="enable-background:new 0 0 423.1 41.6;" xml:space="preserve">
<style type="text/css">
	.st0{fill:#000000;}
</style>
<g>
	<path class="st0" d="M15.4,0.7L0,40.7h60.3l15.3-40C75.6,0.7,15.4,0.7,15.4,0.7z M49.1,28.3H22.3l10.4-11.1L26.5,13h27.1L43,24.2
		L49.1,28.3z"/>
	<path class="st0" d="M86.9,32.7l36.9-22.8H95.7l3.5-9.2h45.9c1,0,1.8,0.8,1.8,1.8c0,0.2,0,0.4-0.1,0.6l-2.1,5.5l-37,22.8H139
		l-3.5,9.2h-49c-1,0-1.8-0.8-1.8-1.8c0-0.2,0-0.4,0.1-0.6L86.9,32.7z"/>
	<path class="st0" d="M143.6,23.1c0-11.9,14.5-23.1,32.6-23.1c16.7,0,27.1,7.8,27.1,18.5c0,11.9-14.5,23.1-32.6,23.1
		C154,41.6,143.6,33.8,143.6,23.1z M187.6,18.8c0-5.8-4.9-9.1-12.2-9.1c-9.8,0-16.2,7.5-16.2,13.1s4.9,9.1,12.2,9.1
		C181.2,31.9,187.6,24.4,187.6,18.8z"/>
	<path class="st0" d="M207.8,23.1c0-11.9,14.5-23.1,32.6-23.1c16.7,0,27.1,7.8,27.1,18.5c0,11.9-14.5,23.1-32.6,23.1
		C218.2,41.6,207.8,33.8,207.8,23.1z M251.9,18.8c0-5.8-5-9.1-12.2-9.1c-9.8,0-16.2,7.5-16.2,13.1s4.9,9.1,12.2,9.1
		C245.5,31.9,251.9,24.4,251.9,18.8z"/>
	<path class="st0" d="M363.4,23.1C363.4,11.2,377.9,0,396,0c16.7,0,27.1,7.8,27.1,18.5c0,11.9-14.5,23.1-32.6,23.1
		C373.8,41.6,363.4,33.8,363.4,23.1z M407.4,18.8c0-5.8-5-9.1-12.2-9.1c-9.8,0-16.2,7.5-16.2,13.1s4.9,9.1,12.2,9.1
		C401,31.9,407.4,24.4,407.4,18.8z"/>
	<path class="st0" d="M282.4,0.7h13.9l-1.6,4.2c4-2.5,8.6-4.9,14.9-4.9c7.7,0,12.7,2.8,14.9,7.2c5.6-4.8,12.8-7.4,20.2-7.2
		C354.8,0,361,4.4,361,11.6c0,2.2-1,5.1-1.9,7.6L351,40.7h-16l8.3-21.9c0.4-1.1,0.7-2.3,0.7-3.6c0-3.2-2.5-4.9-7.5-4.9
		c-6.3,0-10.2,3.2-12,8L316,40.7h-16l8.3-21.9c0.4-1.1,0.7-2.4,0.7-3.6c0-3.2-2.5-4.9-7.5-4.9c-6.3,0-10.2,3.2-12,8L281,40.8h-16
		l14.5-38.1C279.9,1.5,281.1,0.7,282.4,0.7z"/>
</g>
</svg>
