<svg width="225" height="125" viewBox="0 0 225 125" fill="none" xmlns="http://www.w3.org/2000/svg">
<path d="M178.107 58.6991L158.527 62.5438L158.83 84.7927C172.267 86.2557 175.585 86.1709 184.82 83.7518C190.155 82.3543 191.989 80.8205 197.948 82.2741L214.039 86.2194C218.488 87.3819 220.954 87.2247 221.79 84.7832C222.626 82.3416 221 81.2703 220.603 80.8567L217.028 78.9929L221.797 78.999C225.614 78.0122 225.52 74.1939 223.991 73.0109C223.994 70.2603 221.81 69.047 220.619 68.3936C214.066 64.8003 208.786 63.076 200.518 60.9188L194.11 59.4622C189.979 57.8044 181.022 58.0142 178.107 58.6991Z" fill="#F1F1FC"/>
<path d="M223.867 72.9501C216.524 69.679 210.888 66.1852 195.295 65.0033" stroke="#060D34" stroke-width="2" stroke-linecap="round" stroke-linejoin="round"/>
<path d="M217.45 79.1501L208.554 75.6462C204.834 74.3998 201.091 73.4783 195.783 72.6415" stroke="#060D34" stroke-width="2" stroke-linecap="round" stroke-linejoin="round"/>
<path d="M153.197 60.0133C91.6803 60.5188 41.2218 23.0348 20.528 1.11149C19.2812 -0.209448 17.0257 0.499486 16.7839 2.30045L8.81856 61.6343C8.74634 62.1722 8.88312 62.7199 9.21009 63.1529C36.648 99.492 115.821 92.235 153.759 83.7139C154.716 83.499 155.362 82.6528 155.362 81.6714V62.1387C155.362 60.9544 154.38 60.0036 153.197 60.0133Z" fill="url(#paint0_linear)"/>
<path d="M158.953 61.1796V78.1407C158.953 82.7921 155.756 86.8444 151.194 87.7527C108.562 96.2405 29.7759 101.524 2.34302 63.8361" stroke="white" stroke-width="2"/>
<path d="M74 124.476C18.8963 127.943 -6.08095 98.3069 2.37213 64.1184C23.2821 87.7549 57.4263 93.7415 74 94.0304V124.476Z" fill="url(#paint1_linear)"/>
<defs>
<linearGradient id="paint0_linear" x1="44.4627" y1="64.1185" x2="171.83" y2="54.8475" gradientUnits="userSpaceOnUse">
<stop stop-color="#110F89"/>
<stop offset="1" stop-color="#1C18D1"/>
</linearGradient>
<linearGradient id="paint1_linear" x1="61.0981" y1="73.8262" x2="35.3495" y2="110.159" gradientUnits="userSpaceOnUse">
<stop offset="0.0985544" stop-color="#03013C"/>
<stop offset="1" stop-color="#0D0C6B" stop-opacity="0"/>
</linearGradient>
</defs>
</svg>
