<svg width="1916" height="1219" viewBox="0 0 1916 1219" fill="none" xmlns="http://www.w3.org/2000/svg">
<mask id="mask0_1257_4308" style="mask-type:alpha" maskUnits="userSpaceOnUse" x="-2" y="0" width="1921" height="1219">
<path d="M-1.00049 0H1919V1219H-1.00049V0Z" fill="url(#paint0_radial_1257_4308)"/>
</mask>
<g mask="url(#mask0_1257_4308)">
<g filter="url(#filter0_f_1257_4308)">
<path d="M2247 547.5C2247 728.926 1682.88 876 987 876C291.121 876 -273 728.926 -273 547.5C-273 366.074 291.121 219 987 219C1682.88 219 2247 366.074 2247 547.5Z" fill="#0327E7"/>
</g>
<path d="M1811.97 570.883V529.933H1919V910.015H189V689.657H254.606V530.883H446.431V631.833H482.665V491.179H638.869H774.767V689.657H915.337V340.883H1045.94V700.597H1230.02V645.898V405.224L1347.18 472.425V645.898H1398.4V474.917H1487.44V435.847H1524.93V395.214H1612.4V525.561L1670.2 583.385V672.466H1721.37V570.883H1811.97Z" fill="url(#paint1_linear_1257_4308)"/>
<path d="M80.9351 399.29V482.119H291.213V696.226H368.687H482.717V563.386H578.629V754.05H626.731V561.834H717.651V380.546H802.002V421.18H836.367V669.668H898.849V541.517H969.141V459.934H1139.42V500.884H1230.02V602.467H1287.18V563.386L1344.98 563.562H1429.94V364.918H1618.98V391.657L1717.36 335.225V575.899V630.598H1845.45V500.884H1921V840.016H1V399.29H80.9351Z" fill="url(#paint2_linear_1257_4308)"/>
<path d="M-5.62305 513.386V840.015H3074.76V619.657H3009.16V475.878L2882.63 380.546V500.883H2837.33V561.833H2781.1V308.656H2624.89V421.179H2488.99V593.09H2464V541.516H2431.2V353.978H2396.83V308.656H2298.42V500.883H2207.83V630.597H2079.74V575.898V335.224L1962.58 402.425V575.898H1881.36V364.918H1792.32V325.847H1754.83V285.214H1667.36V455.561L1609.56 513.386V602.466H1542.39V500.883H1451.79V439.933H1331.52V541.516H1261.23V669.668H1198.74V421.179H1164.38V380.546H1080.03V561.833H1019.11V704.05H941.006V513.386H855.093V402.425L741.064 471.189V646.225H653.589V432.119H533.312V349.29H439.589V532.14L381.793 585.275V669.668H313.063V575.898H120.903V513.386H-5.62305Z" fill="#06033D"/>
<path fill-rule="evenodd" clip-rule="evenodd" d="M182.714 -2.34473H226.927C237.964 -2.34473 246.911 6.60702 246.911 17.6496V830.957C246.911 832.77 246.67 834.526 246.218 836.196H1596.3C1595.85 834.526 1595.61 832.77 1595.61 830.957V17.6496C1595.61 6.60702 1604.56 -2.34473 1615.59 -2.34473H1659.81C1670.84 -2.34473 1679.79 6.60702 1679.79 17.6496V830.957C1679.79 832.77 1679.55 834.526 1679.1 836.196H3031.18C3030.73 834.526 3030.49 832.77 3030.49 830.957V17.6496C3030.49 6.60702 3039.44 -2.34473 3050.47 -2.34473H3094.69C3105.72 -2.34473 3114.67 6.60702 3114.67 17.6496V830.957C3114.67 832.77 3114.43 834.526 3113.98 836.196H3136.95C3147.99 836.196 3156.93 845.148 3156.93 856.191V1159.86C3156.93 1170.9 3147.99 1179.85 3136.95 1179.85H-205.078C-216.115 1179.85 -225.062 1170.9 -225.062 1159.86V856.191C-225.062 845.148 -216.115 836.196 -205.078 836.196H163.423C162.971 834.526 162.73 832.77 162.73 830.957V17.6496C162.73 6.60702 171.677 -2.34473 182.714 -2.34473Z" fill="#184AFC"/>
<path d="M761.256 560.999C761.256 557.538 764.06 554.733 767.518 554.733C770.977 554.733 773.781 557.538 773.781 560.999V562.146C773.781 565.606 770.977 568.411 767.518 568.411C764.06 568.411 761.256 565.606 761.256 562.146V560.999Z" fill="#0D2294"/>
<path d="M761.256 615.71C761.256 612.249 764.06 609.444 767.518 609.444C770.977 609.444 773.781 612.249 773.781 615.71V616.857C773.781 620.317 770.977 623.122 767.518 623.122C764.06 623.122 761.256 620.317 761.256 616.857V615.71Z" fill="#0D2294"/>
<path d="M761.256 506.289C761.256 502.828 764.06 500.023 767.518 500.023C770.977 500.023 773.781 502.828 773.781 506.289V507.436C773.781 510.896 770.977 513.701 767.518 513.701C764.06 513.701 761.256 510.896 761.256 507.436V506.289Z" fill="#0D2294"/>
<path d="M761.256 643.065C761.256 639.605 764.06 636.8 767.518 636.8C770.977 636.8 773.781 639.605 773.781 643.065V644.212C773.781 647.672 770.977 650.477 767.518 650.477C764.06 650.477 761.256 647.672 761.256 644.212V643.065Z" fill="#0D2294"/>
<path d="M761.256 533.643C761.256 530.183 764.06 527.378 767.518 527.378C770.977 527.378 773.781 530.183 773.781 533.643V534.79C773.781 538.25 770.977 541.055 767.518 541.055C764.06 541.055 761.256 538.25 761.256 534.79V533.643Z" fill="#0D2294"/>
<path d="M761.256 670.42C761.256 666.959 764.06 664.154 767.518 664.154C770.977 664.154 773.781 666.959 773.781 670.42V671.567C773.781 675.027 770.977 677.832 767.518 677.832C764.06 677.832 761.256 675.027 761.256 671.567V670.42Z" fill="#0D2294"/>
<path d="M793.995 560.999C793.995 557.538 796.799 554.733 800.257 554.733C803.716 554.733 806.519 557.538 806.519 560.999V562.146C806.519 565.606 803.716 568.411 800.257 568.411C796.799 568.411 793.995 565.606 793.995 562.146V560.999Z" fill="#0D2294"/>
<path d="M793.995 478.933C793.995 475.473 796.799 472.668 800.257 472.668C803.716 472.668 806.519 475.473 806.519 478.933V480.08C806.519 483.54 803.716 486.345 800.257 486.345C796.799 486.345 793.995 483.54 793.995 480.08V478.933Z" fill="#0D2294"/>
<path d="M793.995 615.71C793.995 612.249 796.799 609.444 800.257 609.444C803.716 609.444 806.519 612.249 806.519 615.71V616.857C806.519 620.317 803.716 623.122 800.257 623.122C796.799 623.122 793.995 620.317 793.995 616.857V615.71Z" fill="#0D2294"/>
<path d="M793.995 533.643C793.995 530.183 796.799 527.378 800.257 527.378C803.716 527.378 806.519 530.183 806.519 533.643V534.79C806.519 538.25 803.716 541.055 800.257 541.055C796.799 541.055 793.995 538.25 793.995 534.79V533.643Z" fill="#0D2294"/>
<path d="M793.995 670.42C793.995 666.959 796.799 664.154 800.257 664.154C803.716 664.154 806.519 666.959 806.519 670.42V671.567C806.519 675.027 803.716 677.832 800.257 677.832C796.799 677.832 793.995 675.027 793.995 671.567V670.42Z" fill="#0D2294"/>
<path d="M826.736 451.578C826.736 448.118 829.54 445.312 832.999 445.312C836.457 445.312 839.261 448.118 839.261 451.578V452.725C839.261 456.185 836.457 458.99 832.999 458.99C829.54 458.99 826.736 456.185 826.736 452.725V451.578Z" fill="#0D2294"/>
<path d="M826.736 588.354C826.736 584.894 829.54 582.089 832.999 582.089C836.457 582.089 839.261 584.894 839.261 588.354V589.501C839.261 592.961 836.457 595.766 832.999 595.766C829.54 595.766 826.736 592.961 826.736 589.501V588.354Z" fill="#0D2294"/>
<path d="M826.736 478.933C826.736 475.473 829.54 472.668 832.999 472.668C836.457 472.668 839.261 475.473 839.261 478.933V480.08C839.261 483.54 836.457 486.345 832.999 486.345C829.54 486.345 826.736 483.54 826.736 480.08V478.933Z" fill="#0D2294"/>
<path d="M826.736 506.289C826.736 502.828 829.54 500.023 832.999 500.023C836.457 500.023 839.261 502.828 839.261 506.289V507.436C839.261 510.896 836.457 513.701 832.999 513.701C829.54 513.701 826.736 510.896 826.736 507.436V506.289Z" fill="#0D2294"/>
<path d="M826.736 643.065C826.736 639.605 829.54 636.8 832.999 636.8C836.457 636.8 839.261 639.605 839.261 643.065V644.212C839.261 647.672 836.457 650.477 832.999 650.477C829.54 650.477 826.736 647.672 826.736 644.212V643.065Z" fill="#0D2294"/>
<path d="M826.736 533.643C826.736 530.183 829.54 527.378 832.999 527.378C836.457 527.378 839.261 530.183 839.261 533.643V534.79C839.261 538.25 836.457 541.055 832.999 541.055C829.54 541.055 826.736 538.25 826.736 534.79V533.643Z" fill="#0D2294"/>
<path d="M826.736 670.42C826.736 666.959 829.54 664.154 832.999 664.154C836.457 664.154 839.261 666.959 839.261 670.42V671.567C839.261 675.027 836.457 677.832 832.999 677.832C829.54 677.832 826.736 675.027 826.736 671.567V670.42Z" fill="#0D2294"/>
<path d="M1104.94 457.784C1104.94 455.34 1106.92 453.358 1109.36 453.358C1111.8 453.358 1113.79 455.34 1113.79 457.783V462.611C1113.79 465.055 1111.8 467.036 1109.36 467.036C1106.92 467.036 1104.94 465.055 1104.94 462.611V457.784Z" fill="#0D2294"/>
<path d="M1104.94 485.139C1104.94 482.695 1106.92 480.714 1109.36 480.714C1111.8 480.714 1113.79 482.695 1113.79 485.139V489.966C1113.79 492.41 1111.8 494.391 1109.36 494.391C1106.92 494.391 1104.94 492.41 1104.94 489.966V485.139Z" fill="#0D2294"/>
<path d="M1104.94 512.494C1104.94 510.051 1106.92 508.069 1109.36 508.069C1111.8 508.069 1113.79 510.051 1113.79 512.494V517.322C1113.79 519.766 1111.8 521.747 1109.36 521.747C1106.92 521.747 1104.94 519.766 1104.94 517.322V512.494Z" fill="#0D2294"/>
<path d="M1104.94 567.204C1104.94 564.76 1106.92 562.779 1109.36 562.779C1111.8 562.779 1113.79 564.76 1113.79 567.204V572.032C1113.79 574.476 1111.8 576.457 1109.36 576.457C1106.92 576.457 1104.94 574.476 1104.94 572.032V567.204Z" fill="#0D2294"/>
<path d="M1133.09 457.784C1133.09 455.34 1135.07 453.358 1137.51 453.358C1139.95 453.358 1141.93 455.34 1141.93 457.783V462.611C1141.93 465.055 1139.95 467.036 1137.51 467.036C1135.07 467.036 1133.09 465.055 1133.09 462.611V457.784Z" fill="#0D2294"/>
<path d="M1133.09 512.494C1133.09 510.051 1135.07 508.069 1137.51 508.069C1139.95 508.069 1141.93 510.051 1141.93 512.494V517.322C1141.93 519.766 1139.95 521.747 1137.51 521.747C1135.07 521.747 1133.09 519.766 1133.09 517.322V512.494Z" fill="#0D2294"/>
<path d="M1133.09 539.849C1133.09 537.405 1135.07 535.424 1137.51 535.424C1139.95 535.424 1141.93 537.405 1141.93 539.849V544.676C1141.93 547.12 1139.95 549.101 1137.51 549.101C1135.07 549.101 1133.09 547.12 1133.09 544.676V539.849Z" fill="#0D2294"/>
<path d="M1133.09 567.204C1133.09 564.76 1135.07 562.779 1137.51 562.779C1139.95 562.779 1141.93 564.76 1141.93 567.204V572.032C1141.93 574.476 1139.95 576.457 1137.51 576.457C1135.07 576.457 1133.09 574.476 1133.09 572.032V567.204Z" fill="#0D2294"/>
<path d="M1161.23 457.784C1161.23 455.34 1163.21 453.358 1165.65 453.358C1168.1 453.358 1170.08 455.34 1170.08 457.783V462.611C1170.08 465.055 1168.1 467.036 1165.65 467.036C1163.21 467.036 1161.23 465.055 1161.23 462.611V457.784Z" fill="#0D2294"/>
<path d="M1161.23 485.139C1161.23 482.695 1163.21 480.714 1165.65 480.714C1168.1 480.714 1170.08 482.695 1170.08 485.139V489.966C1170.08 492.41 1168.1 494.391 1165.65 494.391C1163.21 494.391 1161.23 492.41 1161.23 489.966V485.139Z" fill="#0D2294"/>
<path d="M1161.23 512.494C1161.23 510.051 1163.21 508.069 1165.65 508.069C1168.1 508.069 1170.08 510.051 1170.08 512.494V517.322C1170.08 519.766 1168.1 521.747 1165.65 521.747C1163.21 521.747 1161.23 519.766 1161.23 517.322V512.494Z" fill="#0D2294"/>
<path d="M1161.23 539.849C1161.23 537.405 1163.21 535.424 1165.65 535.424C1168.1 535.424 1170.08 537.405 1170.08 539.849V544.676C1170.08 547.12 1168.1 549.101 1165.65 549.101C1163.21 549.101 1161.23 547.12 1161.23 544.676V539.849Z" fill="#0D2294"/>
<path d="M1161.23 567.204C1161.23 564.76 1163.21 562.779 1165.65 562.779C1168.1 562.779 1170.08 564.76 1170.08 567.204V572.032C1170.08 574.476 1168.1 576.457 1165.65 576.457C1163.21 576.457 1161.23 574.476 1161.23 572.032V567.204Z" fill="#0D2294"/>
<path d="M1104.94 597.779C1104.94 595.335 1106.92 593.354 1109.36 593.354C1111.8 593.354 1113.79 595.335 1113.79 597.779V602.606C1113.79 605.05 1111.8 607.031 1109.36 607.031C1106.92 607.031 1104.94 605.05 1104.94 602.606V597.779Z" fill="#0D2294"/>
<path d="M1104.94 625.132C1104.94 622.688 1106.92 620.707 1109.36 620.707C1111.8 620.707 1113.79 622.688 1113.79 625.132V629.96C1113.79 632.403 1111.8 634.385 1109.36 634.385C1106.92 634.385 1104.94 632.403 1104.94 629.96V625.132Z" fill="#0D2294"/>
<path d="M1104.94 652.488C1104.94 650.044 1106.92 648.062 1109.36 648.062C1111.8 648.062 1113.79 650.044 1113.79 652.488V657.315C1113.79 659.759 1111.8 661.74 1109.36 661.74C1106.92 661.74 1104.94 659.759 1104.94 657.315V652.488Z" fill="#0D2294"/>
<path d="M1104.94 679.843C1104.94 677.399 1106.92 675.418 1109.36 675.418C1111.8 675.418 1113.79 677.399 1113.79 679.843V684.67C1113.79 687.114 1111.8 689.096 1109.36 689.096C1106.92 689.096 1104.94 687.114 1104.94 684.67V679.843Z" fill="#0D2294"/>
<path d="M1104.94 707.199C1104.94 704.755 1106.92 702.773 1109.36 702.773C1111.8 702.773 1113.79 704.755 1113.79 707.199V712.026C1113.79 714.47 1111.8 716.451 1109.36 716.451C1106.92 716.451 1104.94 714.47 1104.94 712.026V707.199Z" fill="#0D2294"/>
<path d="M1133.09 597.778C1133.09 595.334 1135.07 593.353 1137.51 593.353C1139.95 593.353 1141.93 595.334 1141.93 597.778V602.605C1141.93 605.049 1139.95 607.03 1137.51 607.03C1135.07 607.03 1133.09 605.049 1133.09 602.605V597.778Z" fill="#0D2294"/>
<path d="M1133.09 679.843C1133.09 677.399 1135.07 675.418 1137.51 675.418C1139.95 675.418 1141.93 677.399 1141.93 679.843V684.67C1141.93 687.114 1139.95 689.096 1137.51 689.096C1135.07 689.096 1133.09 687.114 1133.09 684.67V679.843Z" fill="#0D2294"/>
<path d="M1133.09 707.199C1133.09 704.755 1135.07 702.773 1137.51 702.773C1139.95 702.773 1141.93 704.755 1141.93 707.199V712.026C1141.93 714.47 1139.95 716.451 1137.51 716.451C1135.07 716.451 1133.09 714.47 1133.09 712.026V707.199Z" fill="#0D2294"/>
<path d="M1161.23 597.778C1161.23 595.334 1163.21 593.353 1165.65 593.353C1168.1 593.353 1170.08 595.334 1170.08 597.778V602.605C1170.08 605.049 1168.1 607.03 1165.65 607.03C1163.21 607.03 1161.23 605.049 1161.23 602.605V597.778Z" fill="#0D2294"/>
<path d="M1161.23 625.132C1161.23 622.688 1163.21 620.707 1165.65 620.707C1168.1 620.707 1170.08 622.688 1170.08 625.132V629.96C1170.08 632.403 1168.1 634.385 1165.65 634.385C1163.21 634.385 1161.23 632.403 1161.23 629.96V625.132Z" fill="#0D2294"/>
<path d="M1161.23 652.488C1161.23 650.044 1163.21 648.062 1165.65 648.062C1168.1 648.062 1170.08 650.044 1170.08 652.488V657.315C1170.08 659.759 1168.1 661.74 1165.65 661.74C1163.21 661.74 1161.23 659.759 1161.23 657.315V652.488Z" fill="#0D2294"/>
<path d="M1161.23 679.843C1161.23 677.399 1163.21 675.418 1165.65 675.418C1168.1 675.418 1170.08 677.399 1170.08 679.843V684.67C1170.08 687.114 1168.1 689.096 1165.65 689.096C1163.21 689.096 1161.23 687.114 1161.23 684.67V679.843Z" fill="#0D2294"/>
<path d="M1161.23 707.199C1161.23 704.755 1163.21 702.773 1165.65 702.773C1168.1 702.773 1170.08 704.755 1170.08 707.199V712.026C1170.08 714.47 1168.1 716.451 1165.65 716.451C1163.21 716.451 1161.23 714.47 1161.23 712.026V707.199Z" fill="#0D2294"/>
<path d="M1052.67 597.778C1052.67 595.334 1054.65 593.353 1057.09 593.353C1059.53 593.353 1061.51 595.334 1061.51 597.778V602.605C1061.51 605.049 1059.53 607.03 1057.09 607.03C1054.65 607.03 1052.67 605.049 1052.67 602.605V597.778Z" fill="#0D2294"/>
<path d="M1052.67 625.132C1052.67 622.688 1054.65 620.707 1057.09 620.707C1059.53 620.707 1061.51 622.688 1061.51 625.132V629.959C1061.51 632.403 1059.53 634.385 1057.09 634.385C1054.65 634.385 1052.67 632.403 1052.67 629.959V625.132Z" fill="#0D2294"/>
<path d="M1052.67 652.488C1052.67 650.044 1054.65 648.062 1057.09 648.062C1059.53 648.062 1061.51 650.044 1061.51 652.488V657.315C1061.51 659.759 1059.53 661.74 1057.09 661.74C1054.65 661.74 1052.67 659.759 1052.67 657.315V652.488Z" fill="#0D2294"/>
<path d="M1052.67 679.843C1052.67 677.399 1054.65 675.418 1057.09 675.418C1059.53 675.418 1061.51 677.399 1061.51 679.843V684.67C1061.51 687.114 1059.53 689.096 1057.09 689.096C1054.65 689.096 1052.67 687.114 1052.67 684.67V679.843Z" fill="#0D2294"/>
<path d="M1052.67 707.199C1052.67 704.755 1054.65 702.773 1057.09 702.773C1059.53 702.773 1061.51 704.755 1061.51 707.199V712.026C1061.51 714.47 1059.53 716.451 1057.09 716.451C1054.65 716.451 1052.67 714.47 1052.67 712.026V707.199Z" fill="#0D2294"/>
<path d="M1080.81 625.132C1080.81 622.688 1082.79 620.707 1085.24 620.707C1087.68 620.707 1089.66 622.688 1089.66 625.132V629.959C1089.66 632.403 1087.68 634.385 1085.24 634.385C1082.79 634.385 1080.81 632.403 1080.81 629.959V625.132Z" fill="#0D2294"/>
<path d="M1080.81 679.843C1080.81 677.399 1082.79 675.418 1085.24 675.418C1087.68 675.418 1089.66 677.399 1089.66 679.843V684.67C1089.66 687.114 1087.68 689.096 1085.24 689.096C1082.79 689.096 1080.81 687.114 1080.81 684.67V679.843Z" fill="#0D2294"/>
<path d="M1080.81 707.199C1080.81 704.755 1082.79 702.773 1085.24 702.773C1087.68 702.773 1089.66 704.755 1089.66 707.199V712.026C1089.66 714.47 1087.68 716.451 1085.24 716.451C1082.79 716.451 1080.81 714.47 1080.81 712.026V707.199Z" fill="#0D2294"/>
</g>
<path d="M1549.37 324.207C1549.37 326.581 1547.44 328.505 1545.07 328.505C1542.7 328.505 1540.78 326.581 1540.78 324.207C1540.78 321.833 1542.7 319.909 1545.07 319.909C1547.44 319.909 1549.37 321.833 1549.37 324.207Z" fill="#304FBD"/>
<path d="M1218.34 289.241C1218.34 291.615 1216.42 293.539 1214.05 293.539C1211.67 293.539 1209.75 291.615 1209.75 289.241C1209.75 286.868 1211.67 284.943 1214.05 284.943C1216.42 284.943 1218.34 286.868 1218.34 289.241Z" fill="#304FBD"/>
<path d="M877.892 260.811C877.892 263.185 875.969 265.109 873.597 265.109C871.224 265.109 869.301 263.185 869.301 260.811C869.301 258.438 871.224 256.514 873.597 256.514C875.969 256.514 877.892 258.438 877.892 260.811Z" fill="#304FBD"/>
<path opacity="0.5" d="M929.852 69.6815C929.852 72.0551 927.929 73.9793 925.556 73.9793C923.184 73.9793 921.261 72.0551 921.261 69.6815C921.261 67.308 923.184 65.3838 925.556 65.3838C927.929 65.3838 929.852 67.308 929.852 69.6815Z" fill="#304FBD"/>
<path d="M1161.67 223.76C1161.67 226.133 1159.75 228.057 1157.38 228.057C1155 228.057 1153.08 226.133 1153.08 223.76C1153.08 221.386 1155 219.462 1157.38 219.462C1159.75 219.462 1161.67 221.386 1161.67 223.76Z" fill="#304FBD"/>
<path d="M710.738 389.212C710.738 391.585 708.815 393.51 706.443 393.51C704.07 393.51 702.147 391.585 702.147 389.212C702.147 386.838 704.07 384.914 706.443 384.914C708.815 384.914 710.738 386.838 710.738 389.212Z" fill="#304FBD"/>
<path d="M340.313 148.257C340.313 150.63 338.39 152.554 336.017 152.554C333.645 152.554 331.722 150.63 331.722 148.257C331.722 145.883 333.645 143.959 336.017 143.959C338.39 143.959 340.313 145.883 340.313 148.257Z" fill="#304FBD"/>
<path d="M518.888 190.544C518.888 192.917 516.965 194.842 514.592 194.842C512.22 194.842 510.297 192.917 510.297 190.544C510.297 188.17 512.22 186.246 514.592 186.246C516.965 186.246 518.888 188.17 518.888 190.544Z" fill="#304FBD"/>
<path d="M1794.58 152.555C1794.58 154.928 1792.65 156.852 1790.28 156.852C1787.91 156.852 1785.99 154.928 1785.99 152.555C1785.99 150.181 1787.91 148.257 1790.28 148.257C1792.65 148.257 1794.58 150.181 1794.58 152.555Z" fill="#304FBD"/>
<path opacity="0.5" d="M1233.02 137.662C1233.02 140.036 1231.09 141.96 1228.72 141.96C1226.35 141.96 1224.43 140.036 1224.43 137.662C1224.43 135.288 1226.35 133.364 1228.72 133.364C1231.09 133.364 1233.02 135.288 1233.02 137.662Z" fill="#304FBD"/>
<path d="M619.399 272.746C603.309 267.102 594.821 249.494 600.424 233.382C601.607 229.97 598.831 226.085 595.731 227.936C588.583 232.208 583.459 239.469 582.038 248.02C580.036 260.076 585.826 272.09 596.503 278.028C604.075 282.239 612.945 282.749 620.736 279.811C624.114 278.538 622.804 273.944 619.399 272.746Z" fill="#304FBD"/>
<path d="M676.05 326.206C676.05 328.58 674.127 330.504 671.755 330.504C669.382 330.504 667.459 328.58 667.459 326.206C667.459 323.832 669.382 321.908 671.755 321.908C674.127 321.908 676.05 323.832 676.05 326.206Z" fill="#2B32A0"/>
<path d="M1065.75 134.261C1065.75 136.634 1063.82 138.558 1061.45 138.558C1059.08 138.558 1057.15 136.634 1057.15 134.261C1057.15 131.887 1059.08 129.963 1061.45 129.963C1063.82 129.963 1065.75 131.887 1065.75 134.261Z" fill="#2B32A0"/>
<path d="M1026.49 150.555C1026.49 152.928 1024.57 154.852 1022.2 154.852C1019.82 154.852 1017.9 152.928 1017.9 150.555C1017.9 148.181 1019.82 146.257 1022.2 146.257C1024.57 146.257 1026.49 148.181 1026.49 150.555Z" fill="#304FBD"/>
<defs>
<filter id="filter0_f_1257_4308" x="-573" y="-81" width="3120" height="1257" filterUnits="userSpaceOnUse" color-interpolation-filters="sRGB">
<feFlood flood-opacity="0" result="BackgroundImageFix"/>
<feBlend mode="normal" in="SourceGraphic" in2="BackgroundImageFix" result="shape"/>
<feGaussianBlur stdDeviation="150" result="effect1_foregroundBlur_1257_4308"/>
</filter>
<radialGradient id="paint0_radial_1257_4308" cx="0" cy="0" r="1" gradientUnits="userSpaceOnUse" gradientTransform="translate(921 571) rotate(90) scale(504 983.19)">
<stop stop-color="#C4C4C4"/>
<stop offset="0.27234" stop-color="#C4C4C4" stop-opacity="0.520833"/>
<stop offset="1" stop-color="#C4C4C4" stop-opacity="0"/>
</radialGradient>
<linearGradient id="paint1_linear_1257_4308" x1="1054" y1="355.214" x2="1053.67" y2="711" gradientUnits="userSpaceOnUse">
<stop stop-color="#0F27FF"/>
<stop offset="1" stop-color="#2871FF"/>
</linearGradient>
<linearGradient id="paint2_linear_1257_4308" x1="989.02" y1="483.751" x2="989.297" y2="840.015" gradientUnits="userSpaceOnUse">
<stop stop-color="#081DB6"/>
<stop offset="0.546875" stop-color="#0C1167" stop-opacity="0.882626"/>
<stop offset="1" stop-color="#0C1167"/>
</linearGradient>
</defs>
</svg>
