<svg width="9888" height="6279" viewBox="0 0 9888 6279" fill="none" xmlns="http://www.w3.org/2000/svg">
<mask id="mask0_302_8673" style="mask-type:alpha" maskUnits="userSpaceOnUse" x="0" y="0" width="9888" height="6279">
<path d="M0 0H9888V6278.65H0V0Z" fill="url(#paint0_radial_302_8673)"/>
</mask>
<g mask="url(#mask0_302_8673)">
<g filter="url(#filter0_f_302_8673)">
<path d="M11587.5 2819.98C11587.5 3754.45 8682.27 4511.98 5098.5 4511.98C1514.72 4511.98 -1390.5 3754.45 -1390.5 2819.98C-1390.5 1885.52 1514.72 1127.99 5098.5 1127.99C8682.27 1127.99 11587.5 1885.52 11587.5 2819.98Z" fill="#0327E7"/>
</g>
<path d="M9346.81 2782.88V2600.05H9898V4297H989V3313.17H1326.85V2604.29H2314.7V3055H2501.29V2427.03H3305.7H4005.53V3313.17H4729.42V1756H5401.97V3362.01H6349.97V3117.8V2043.26L6953.28 2343.3V3117.8H7217.08V2354.42H7675.59V2179.99H7868.65V1998.57H8319.12V2580.53L8616.75 2838.7V3236.42H8880.25V2782.88H9346.81Z" fill="url(#paint1_linear_302_8673)"/>
<path d="M4908.81 1961.34C4908.81 1948.75 4919.01 1938.54 4931.59 1938.54V1938.54C4944.17 1938.54 4954.37 1948.75 4954.37 1961.34V1986.2C4954.37 1998.79 4944.17 2008.99 4931.59 2008.99V2008.99C4919.01 2008.99 4908.81 1998.79 4908.81 1986.2V1961.34Z" fill="#1758FF"/>
<path d="M4908.81 2243.13C4908.81 2230.54 4919.01 2220.34 4931.59 2220.34V2220.34C4944.17 2220.34 4954.37 2230.54 4954.37 2243.13V2268C4954.37 2280.58 4944.17 2290.79 4931.59 2290.79V2290.79C4919.01 2290.79 4908.81 2280.58 4908.81 2268V2243.13Z" fill="#1758FF"/>
<path d="M4908.81 2524.93C4908.81 2512.34 4919.01 2502.13 4931.59 2502.13V2502.13C4944.17 2502.13 4954.37 2512.34 4954.37 2524.93V2549.79C4954.37 2562.38 4944.17 2572.58 4931.59 2572.58V2572.58C4919.01 2572.58 4908.81 2562.38 4908.81 2549.79V2524.93Z" fill="#1758FF"/>
<path d="M5053.77 1961.34C5053.77 1948.75 5063.97 1938.54 5076.55 1938.54V1938.54C5089.13 1938.54 5099.33 1948.75 5099.33 1961.34V1986.2C5099.33 1998.79 5089.13 2008.99 5076.55 2008.99V2008.99C5063.97 2008.99 5053.77 1998.79 5053.77 1986.2V1961.34Z" fill="#1758FF"/>
<path d="M5053.77 2243.13C5053.77 2230.54 5063.97 2220.34 5076.55 2220.34V2220.34C5089.13 2220.34 5099.33 2230.54 5099.33 2243.13V2268C5099.33 2280.58 5089.13 2290.79 5076.55 2290.79V2290.79C5063.97 2290.79 5053.77 2280.58 5053.77 2268V2243.13Z" fill="#1758FF"/>
<path d="M5053.77 2384.03C5053.77 2371.44 5063.97 2361.23 5076.55 2361.23V2361.23C5089.13 2361.23 5099.33 2371.44 5099.33 2384.03V2408.89C5099.33 2421.48 5089.13 2431.68 5076.55 2431.68V2431.68C5063.97 2431.68 5053.77 2421.48 5053.77 2408.89V2384.03Z" fill="#1758FF"/>
<path d="M5053.77 2524.93C5053.77 2512.34 5063.97 2502.13 5076.55 2502.13V2502.13C5089.13 2502.13 5099.33 2512.34 5099.33 2524.93V2549.79C5099.33 2562.38 5089.13 2572.58 5076.55 2572.58V2572.58C5063.97 2572.58 5053.77 2562.38 5053.77 2549.79V2524.93Z" fill="#1758FF"/>
<path d="M5198.71 1961.34C5198.71 1948.75 5208.91 1938.54 5221.49 1938.54V1938.54C5234.07 1938.54 5244.27 1948.75 5244.27 1961.34V1986.2C5244.27 1998.79 5234.07 2008.99 5221.49 2008.99V2008.99C5208.91 2008.99 5198.71 1998.79 5198.71 1986.2V1961.34Z" fill="#1758FF"/>
<path d="M5198.71 2102.23C5198.71 2089.65 5208.91 2079.44 5221.49 2079.44V2079.44C5234.07 2079.44 5244.27 2089.65 5244.27 2102.23V2127.1C5244.27 2139.69 5234.07 2149.89 5221.49 2149.89V2149.89C5208.91 2149.89 5198.71 2139.69 5198.71 2127.1V2102.23Z" fill="#1758FF"/>
<path d="M5198.71 2243.13C5198.71 2230.54 5208.91 2220.34 5221.49 2220.34V2220.34C5234.07 2220.34 5244.27 2230.54 5244.27 2243.13V2268C5244.27 2280.58 5234.07 2290.79 5221.49 2290.79V2290.79C5208.91 2290.79 5198.71 2280.58 5198.71 2268V2243.13Z" fill="#1758FF"/>
<path d="M5198.71 2384.03C5198.71 2371.44 5208.91 2361.23 5221.49 2361.23V2361.23C5234.07 2361.23 5244.27 2371.44 5244.27 2384.03V2408.89C5244.27 2421.48 5234.07 2431.68 5221.49 2431.68V2431.68C5208.91 2431.68 5198.71 2421.48 5198.71 2408.89V2384.03Z" fill="#1758FF"/>
<path d="M5198.71 2524.93C5198.71 2512.34 5208.91 2502.13 5221.49 2502.13V2502.13C5234.07 2502.13 5244.27 2512.34 5244.27 2524.93V2549.79C5244.27 2562.38 5234.07 2572.58 5221.49 2572.58V2572.58C5208.91 2572.58 5198.71 2562.38 5198.71 2549.79V2524.93Z" fill="#1758FF"/>
<path d="M432.265 2056.6V2483.23H1515.19V3586.02H1914.19H2501.44V2901.81H2995.39V3883.85H3243.12V2893.81H3711.35V1960.06H4145.76V2169.35H4322.74V3449.23H4644.52V2789.17H5006.52V2368.96H5883.45V2579.88H6350.04V3103.1H6644.45V2901.81L6942.1 2902.71H7379.66V1879.57H8353.2V2017.29L8859.86 1726.62V2966.26V3247.99H9519.51V2579.88H9908.6V4326.63H20.5996V2056.6H432.265Z" fill="url(#paint2_linear_302_8673)"/>
<path d="M5107.05 2955.58C5107.05 2937.76 5121.49 2923.31 5139.3 2923.31V2923.31C5157.11 2923.31 5171.55 2937.76 5171.55 2955.58V2961.49C5171.55 2979.31 5157.11 2993.76 5139.3 2993.76V2993.76C5121.49 2993.76 5107.05 2979.31 5107.05 2961.49V2955.58Z" fill="#1E35DB"/>
<path d="M5107.05 2669.56C5107.05 2651.73 5121.49 2637.29 5139.3 2637.29V2637.29C5157.11 2637.29 5171.55 2651.73 5171.55 2669.56V2675.46C5171.55 2693.29 5157.11 2707.73 5139.3 2707.73V2707.73C5121.49 2707.73 5107.05 2693.29 5107.05 2675.46V2669.56Z" fill="#1E35DB"/>
<path d="M5107.05 2814.68C5107.05 2796.86 5121.49 2782.41 5139.3 2782.41V2782.41C5157.11 2782.41 5171.55 2796.86 5171.55 2814.68V2820.59C5171.55 2838.41 5157.11 2852.86 5139.3 2852.86V2852.86C5121.49 2852.86 5107.05 2838.41 5107.05 2820.59V2814.68Z" fill="#1E35DB"/>
<path d="M5275.66 2955.58C5275.66 2937.76 5290.1 2923.31 5307.91 2923.31V2923.31C5325.72 2923.31 5340.16 2937.76 5340.16 2955.58V2961.49C5340.16 2979.31 5325.72 2993.76 5307.91 2993.76V2993.76C5290.1 2993.76 5275.66 2979.31 5275.66 2961.49V2955.58Z" fill="#1E35DB"/>
<path d="M5275.66 2532.89C5275.66 2515.07 5290.1 2500.62 5307.91 2500.62V2500.62C5325.72 2500.62 5340.16 2515.07 5340.16 2532.89V2538.8C5340.16 2556.62 5325.72 2571.07 5307.91 2571.07V2571.07C5290.1 2571.07 5275.66 2556.62 5275.66 2538.8V2532.89Z" fill="#1E35DB"/>
<path d="M5275.66 3237.38C5275.66 3219.56 5290.1 3205.11 5307.91 3205.11V3205.11C5325.72 3205.11 5340.16 3219.56 5340.16 3237.38V3243.29C5340.16 3261.11 5325.72 3275.56 5307.91 3275.56V3275.56C5290.1 3275.56 5275.66 3261.11 5275.66 3243.29V3237.38Z" fill="#1E35DB"/>
<path d="M5275.66 2669.56C5275.66 2651.73 5290.1 2637.29 5307.91 2637.29V2637.29C5325.72 2637.29 5340.16 2651.73 5340.16 2669.56V2675.46C5340.16 2693.29 5325.72 2707.73 5307.91 2707.73V2707.73C5290.1 2707.73 5275.66 2693.29 5275.66 2675.46V2669.56Z" fill="#1E35DB"/>
<path d="M5275.66 3519.17C5275.66 3501.35 5290.1 3486.9 5307.91 3486.9V3486.9C5325.72 3486.9 5340.16 3501.35 5340.16 3519.17V3525.08C5340.16 3542.9 5325.72 3557.35 5307.91 3557.35V3557.35C5290.1 3557.35 5275.66 3542.9 5275.66 3525.08V3519.17Z" fill="#1E35DB"/>
<path d="M5444.28 3096.48C5444.28 3078.66 5458.72 3064.21 5476.53 3064.21V3064.21C5494.34 3064.21 5508.78 3078.66 5508.78 3096.48V3102.39C5508.78 3120.21 5494.34 3134.66 5476.53 3134.66V3134.66C5458.72 3134.66 5444.28 3120.21 5444.28 3102.39V3096.48Z" fill="#1E35DB"/>
<path d="M5444.28 2532.89C5444.28 2515.07 5458.72 2500.62 5476.53 2500.62V2500.62C5494.34 2500.62 5508.78 2515.07 5508.78 2532.89V2538.8C5508.78 2556.62 5494.34 2571.07 5476.53 2571.07V2571.07C5458.72 2571.07 5444.28 2556.62 5444.28 2538.8V2532.89Z" fill="#1E35DB"/>
<path d="M5444.28 2669.56C5444.28 2651.73 5458.72 2637.29 5476.53 2637.29V2637.29C5494.34 2637.29 5508.78 2651.73 5508.78 2669.56V2675.46C5508.78 2693.29 5494.34 2707.73 5476.53 2707.73V2707.73C5458.72 2707.73 5444.28 2693.29 5444.28 2675.46V2669.56Z" fill="#1E35DB"/>
<path d="M5444.28 3378.28C5444.28 3360.45 5458.72 3346.01 5476.53 3346.01V3346.01C5494.34 3346.01 5508.78 3360.45 5508.78 3378.28V3384.18C5508.78 3402.01 5494.34 3416.46 5476.53 3416.46V3416.46C5458.72 3416.46 5444.28 3402.01 5444.28 3384.18V3378.28Z" fill="#1E35DB"/>
<path d="M5444.28 2814.68C5444.28 2796.86 5458.72 2782.41 5476.53 2782.41V2782.41C5494.34 2782.41 5508.78 2796.86 5508.78 2814.68V2820.59C5508.78 2838.41 5494.34 2852.86 5476.53 2852.86V2852.86C5458.72 2852.86 5444.28 2838.41 5444.28 2820.59V2814.68Z" fill="#1E35DB"/>
<path d="M5444.28 3519.17C5444.28 3501.35 5458.72 3486.9 5476.53 3486.9V3486.9C5494.34 3486.9 5508.78 3501.35 5508.78 3519.17V3525.08C5508.78 3542.9 5494.34 3557.35 5476.53 3557.35V3557.35C5458.72 3557.35 5444.28 3542.9 5444.28 3525.08V3519.17Z" fill="#1E35DB"/>
<g filter="url(#filter1_d_302_8673)">
<path d="M-13.5098 2644.27V4326.63H15850.5V3191.64H15512.6V2451.08L14861 1960.06V2579.88H14627.7V2893.81H14338.1V1589.78H13533.6V2169.35H12833.8V3054.8H12705.1V2789.17H12536.1V1823.22H12359.1V1589.78H11852.3V2579.88H11385.7V3247.99H10726.1V2966.26V1726.62L10122.8 2072.76V2966.26H9704.44V1879.57H9245.9V1678.33H9052.83V1469.04H8602.34V2346.44L8304.69 2644.27V3103.1H7958.78V2579.88H7492.19V2265.94H6872.76V2789.17H6510.76V3449.23H6188.98V2169.35H6012V1960.06H5577.59V2893.81H5263.86V3626.32H4861.63V2644.27H4419.18V2072.76L3831.93 2426.94V3328.49H3381.43V2225.7H2762V1799.07H2279.33V2740.87L1981.68 3014.55V3449.23H1627.73V2966.26H638.098V2644.27H-13.5098Z" fill="#06033D"/>
</g>
<path d="M3935.92 2889.51C3935.92 2871.69 3950.36 2857.24 3968.17 2857.24V2857.24C3985.98 2857.24 4000.42 2871.69 4000.42 2889.51V2895.42C4000.42 2913.24 3985.98 2927.69 3968.17 2927.69V2927.69C3950.36 2927.69 3935.92 2913.24 3935.92 2895.42V2889.51Z" fill="#0D2294"/>
<path d="M3935.92 3171.31C3935.92 3153.49 3950.36 3139.04 3968.17 3139.04V3139.04C3985.98 3139.04 4000.42 3153.49 4000.42 3171.31V3177.22C4000.42 3195.04 3985.98 3209.49 3968.17 3209.49V3209.49C3950.36 3209.49 3935.92 3195.04 3935.92 3177.22V3171.31Z" fill="#0D2294"/>
<path d="M3935.92 2607.72C3935.92 2589.9 3950.36 2575.45 3968.17 2575.45V2575.45C3985.98 2575.45 4000.42 2589.9 4000.42 2607.72V2613.63C4000.42 2631.45 3985.98 2645.9 3968.17 2645.9V2645.9C3950.36 2645.9 3935.92 2631.45 3935.92 2613.63V2607.72Z" fill="#0D2294"/>
<path d="M3935.92 3312.21C3935.92 3294.38 3950.36 3279.94 3968.17 3279.94V3279.94C3985.98 3279.94 4000.42 3294.38 4000.42 3312.21V3318.11C4000.42 3335.94 3985.98 3350.38 3968.17 3350.38V3350.38C3950.36 3350.38 3935.92 3335.94 3935.92 3318.11V3312.21Z" fill="#0D2294"/>
<path d="M3935.92 2748.61C3935.92 2730.79 3950.36 2716.34 3968.17 2716.34V2716.34C3985.98 2716.34 4000.42 2730.79 4000.42 2748.61V2754.52C4000.42 2772.34 3985.98 2786.79 3968.17 2786.79V2786.79C3950.36 2786.79 3935.92 2772.34 3935.92 2754.52V2748.61Z" fill="#0D2294"/>
<path d="M3935.92 3453.1C3935.92 3435.28 3950.36 3420.83 3968.17 3420.83V3420.83C3985.98 3420.83 4000.42 3435.28 4000.42 3453.1V3459.01C4000.42 3476.83 3985.98 3491.28 3968.17 3491.28V3491.28C3950.36 3491.28 3935.92 3476.83 3935.92 3459.01V3453.1Z" fill="#0D2294"/>
<path d="M4104.53 2889.51C4104.53 2871.69 4118.97 2857.24 4136.78 2857.24V2857.24C4154.59 2857.24 4169.03 2871.69 4169.03 2889.51V2895.42C4169.03 2913.24 4154.59 2927.69 4136.78 2927.69V2927.69C4118.97 2927.69 4104.53 2913.24 4104.53 2895.42V2889.51Z" fill="#0D2294"/>
<path d="M4104.53 2466.82C4104.53 2449 4118.97 2434.55 4136.78 2434.55V2434.55C4154.59 2434.55 4169.03 2449 4169.03 2466.82V2472.73C4169.03 2490.55 4154.59 2505 4136.78 2505V2505C4118.97 2505 4104.53 2490.55 4104.53 2472.73V2466.82Z" fill="#0D2294"/>
<path d="M4104.53 3171.31C4104.53 3153.49 4118.97 3139.04 4136.78 3139.04V3139.04C4154.59 3139.04 4169.03 3153.49 4169.03 3171.31V3177.22C4169.03 3195.04 4154.59 3209.49 4136.78 3209.49V3209.49C4118.97 3209.49 4104.53 3195.04 4104.53 3177.22V3171.31Z" fill="#0D2294"/>
<path d="M4104.53 2748.61C4104.53 2730.79 4118.97 2716.34 4136.78 2716.34V2716.34C4154.59 2716.34 4169.03 2730.79 4169.03 2748.61V2754.52C4169.03 2772.34 4154.59 2786.79 4136.78 2786.79V2786.79C4118.97 2786.79 4104.53 2772.34 4104.53 2754.52V2748.61Z" fill="#0D2294"/>
<path d="M4104.53 3453.1C4104.53 3435.28 4118.97 3420.83 4136.78 3420.83V3420.83C4154.59 3420.83 4169.03 3435.28 4169.03 3453.1V3459.01C4169.03 3476.83 4154.59 3491.28 4136.78 3491.28V3491.28C4118.97 3491.28 4104.53 3476.83 4104.53 3459.01V3453.1Z" fill="#0D2294"/>
<path d="M4273.14 2325.92C4273.14 2308.1 4287.58 2293.65 4305.39 2293.65V2293.65C4323.21 2293.65 4337.64 2308.1 4337.64 2325.92V2331.83C4337.64 2349.65 4323.21 2364.1 4305.39 2364.1V2364.1C4287.58 2364.1 4273.14 2349.65 4273.14 2331.83V2325.92Z" fill="#0D2294"/>
<path d="M4273.14 3030.41C4273.14 3012.59 4287.58 2998.14 4305.39 2998.14V2998.14C4323.21 2998.14 4337.64 3012.59 4337.64 3030.41V3036.32C4337.64 3054.14 4323.21 3068.59 4305.39 3068.59V3068.59C4287.58 3068.59 4273.14 3054.14 4273.14 3036.32V3030.41Z" fill="#0D2294"/>
<path d="M4273.14 2466.82C4273.14 2449 4287.58 2434.55 4305.39 2434.55V2434.55C4323.21 2434.55 4337.64 2449 4337.64 2466.82V2472.73C4337.64 2490.55 4323.21 2505 4305.39 2505V2505C4287.58 2505 4273.14 2490.55 4273.14 2472.73V2466.82Z" fill="#0D2294"/>
<path d="M4273.14 2607.72C4273.14 2589.9 4287.58 2575.45 4305.39 2575.45V2575.45C4323.21 2575.45 4337.64 2589.9 4337.64 2607.72V2613.63C4337.64 2631.45 4323.21 2645.9 4305.39 2645.9V2645.9C4287.58 2645.9 4273.14 2631.45 4273.14 2613.63V2607.72Z" fill="#0D2294"/>
<path d="M4273.14 3312.21C4273.14 3294.38 4287.58 3279.94 4305.39 3279.94V3279.94C4323.21 3279.94 4337.64 3294.38 4337.64 3312.21V3318.11C4337.64 3335.94 4323.21 3350.38 4305.39 3350.38V3350.38C4287.58 3350.38 4273.14 3335.94 4273.14 3318.11V3312.21Z" fill="#0D2294"/>
<path d="M4273.14 2748.61C4273.14 2730.79 4287.58 2716.34 4305.39 2716.34V2716.34C4323.21 2716.34 4337.64 2730.79 4337.64 2748.61V2754.52C4337.64 2772.34 4323.21 2786.79 4305.39 2786.79V2786.79C4287.58 2786.79 4273.14 2772.34 4273.14 2754.52V2748.61Z" fill="#0D2294"/>
<path d="M4273.14 3453.1C4273.14 3435.28 4287.58 3420.83 4305.39 3420.83V3420.83C4323.21 3420.83 4337.64 3435.28 4337.64 3453.1V3459.01C4337.64 3476.83 4323.21 3491.28 4305.39 3491.28V3491.28C4287.58 3491.28 4273.14 3476.83 4273.14 3459.01V3453.1Z" fill="#0D2294"/>
<path d="M5705.89 2357.89C5705.89 2345.3 5716.09 2335.09 5728.66 2335.09V2335.09C5741.24 2335.09 5751.44 2345.3 5751.44 2357.89V2382.75C5751.44 2395.34 5741.24 2405.54 5728.66 2405.54V2405.54C5716.09 2405.54 5705.89 2395.34 5705.89 2382.75V2357.89Z" fill="#0D2294"/>
<path d="M5705.89 2498.78C5705.89 2486.19 5716.09 2475.99 5728.67 2475.99V2475.99C5741.25 2475.99 5751.44 2486.19 5751.44 2498.78V2523.65C5751.44 2536.23 5741.25 2546.44 5728.67 2546.44V2546.44C5716.09 2546.44 5705.89 2536.23 5705.89 2523.65V2498.78Z" fill="#0D2294"/>
<path d="M5705.89 2639.68C5705.89 2627.09 5716.09 2616.89 5728.67 2616.89V2616.89C5741.25 2616.89 5751.44 2627.09 5751.44 2639.68V2664.55C5751.44 2677.13 5741.25 2687.34 5728.67 2687.34V2687.34C5716.09 2687.34 5705.89 2677.13 5705.89 2664.55V2639.68Z" fill="#0D2294"/>
<path d="M5705.89 2921.48C5705.89 2908.89 5716.09 2898.68 5728.67 2898.68V2898.68C5741.25 2898.68 5751.44 2908.89 5751.44 2921.48V2946.34C5751.44 2958.93 5741.25 2969.13 5728.67 2969.13V2969.13C5716.09 2969.13 5705.89 2958.93 5705.89 2946.34V2921.48Z" fill="#0D2294"/>
<path d="M5850.84 2357.89C5850.84 2345.3 5861.04 2335.09 5873.62 2335.09V2335.09C5886.2 2335.09 5896.4 2345.3 5896.4 2357.89V2382.75C5896.4 2395.34 5886.2 2405.54 5873.62 2405.54V2405.54C5861.04 2405.54 5850.84 2395.34 5850.84 2382.75V2357.89Z" fill="#0D2294"/>
<path d="M5850.84 2639.68C5850.84 2627.09 5861.04 2616.89 5873.62 2616.89V2616.89C5886.2 2616.89 5896.4 2627.09 5896.4 2639.68V2664.55C5896.4 2677.13 5886.2 2687.34 5873.62 2687.34V2687.34C5861.04 2687.34 5850.84 2677.13 5850.84 2664.55V2639.68Z" fill="#0D2294"/>
<path d="M5850.84 2780.58C5850.84 2767.99 5861.04 2757.78 5873.62 2757.78V2757.78C5886.2 2757.78 5896.4 2767.99 5896.4 2780.58V2805.44C5896.4 2818.03 5886.2 2828.23 5873.62 2828.23V2828.23C5861.04 2828.23 5850.84 2818.03 5850.84 2805.44V2780.58Z" fill="#0D2294"/>
<path d="M5850.84 2921.48C5850.84 2908.89 5861.04 2898.68 5873.62 2898.68V2898.68C5886.2 2898.68 5896.4 2908.89 5896.4 2921.48V2946.34C5896.4 2958.93 5886.2 2969.13 5873.62 2969.13V2969.13C5861.04 2969.13 5850.84 2958.93 5850.84 2946.34V2921.48Z" fill="#0D2294"/>
<path d="M5995.79 2357.89C5995.79 2345.3 6005.99 2335.09 6018.57 2335.09V2335.09C6031.15 2335.09 6041.34 2345.3 6041.34 2357.89V2382.75C6041.34 2395.34 6031.15 2405.54 6018.57 2405.54V2405.54C6005.99 2405.54 5995.79 2395.34 5995.79 2382.75V2357.89Z" fill="#0D2294"/>
<path d="M5995.79 2498.78C5995.79 2486.19 6005.99 2475.99 6018.57 2475.99V2475.99C6031.15 2475.99 6041.34 2486.19 6041.34 2498.78V2523.65C6041.34 2536.23 6031.15 2546.44 6018.57 2546.44V2546.44C6005.99 2546.44 5995.79 2536.23 5995.79 2523.65V2498.78Z" fill="#0D2294"/>
<path d="M5995.79 2639.68C5995.79 2627.09 6005.99 2616.89 6018.57 2616.89V2616.89C6031.15 2616.89 6041.34 2627.09 6041.34 2639.68V2664.55C6041.34 2677.13 6031.15 2687.34 6018.57 2687.34V2687.34C6005.99 2687.34 5995.79 2677.13 5995.79 2664.55V2639.68Z" fill="#0D2294"/>
<path d="M5995.79 2780.58C5995.79 2767.99 6005.99 2757.78 6018.57 2757.78V2757.78C6031.15 2757.78 6041.34 2767.99 6041.34 2780.58V2805.44C6041.34 2818.03 6031.15 2828.23 6018.57 2828.23V2828.23C6005.99 2828.23 5995.79 2818.03 5995.79 2805.44V2780.58Z" fill="#0D2294"/>
<path d="M5995.79 2921.48C5995.79 2908.89 6005.99 2898.68 6018.57 2898.68V2898.68C6031.15 2898.68 6041.34 2908.89 6041.34 2921.48V2946.34C6041.34 2958.93 6031.15 2969.13 6018.57 2969.13V2969.13C6005.99 2969.13 5995.79 2958.93 5995.79 2946.34V2921.48Z" fill="#0D2294"/>
<path d="M5705.89 3078.95C5705.89 3066.36 5716.08 3056.16 5728.66 3056.16V3056.16C5741.24 3056.16 5751.44 3066.36 5751.44 3078.95V3103.81C5751.44 3116.4 5741.24 3126.61 5728.66 3126.61V3126.61C5716.08 3126.61 5705.89 3116.4 5705.89 3103.81V3078.95Z" fill="#0D2294"/>
<path d="M5705.89 3219.84C5705.89 3207.26 5716.08 3197.05 5728.66 3197.05V3197.05C5741.24 3197.05 5751.44 3207.26 5751.44 3219.84V3244.71C5751.44 3257.29 5741.24 3267.5 5728.66 3267.5V3267.5C5716.08 3267.5 5705.89 3257.29 5705.89 3244.71V3219.84Z" fill="#0D2294"/>
<path d="M5705.89 3360.74C5705.89 3348.15 5716.08 3337.95 5728.66 3337.95V3337.95C5741.24 3337.95 5751.44 3348.15 5751.44 3360.74V3385.6C5751.44 3398.19 5741.24 3408.4 5728.66 3408.4V3408.4C5716.08 3408.4 5705.89 3398.19 5705.89 3385.6V3360.74Z" fill="#0D2294"/>
<path d="M5705.89 3501.64C5705.89 3489.05 5716.08 3478.85 5728.66 3478.85V3478.85C5741.24 3478.85 5751.44 3489.05 5751.44 3501.64V3526.5C5751.44 3539.09 5741.24 3549.29 5728.66 3549.29V3549.29C5716.08 3549.29 5705.89 3539.09 5705.89 3526.5V3501.64Z" fill="#0D2294"/>
<path d="M5705.89 3642.53C5705.89 3629.95 5716.08 3619.74 5728.66 3619.74V3619.74C5741.24 3619.74 5751.44 3629.95 5751.44 3642.53V3667.4C5751.44 3679.99 5741.24 3690.19 5728.66 3690.19V3690.19C5716.08 3690.19 5705.89 3679.99 5705.89 3667.4V3642.53Z" fill="#0D2294"/>
<path d="M5850.84 3078.95C5850.84 3066.36 5861.04 3056.15 5873.62 3056.15V3056.15C5886.2 3056.15 5896.4 3066.36 5896.4 3078.95V3103.81C5896.4 3116.4 5886.2 3126.6 5873.62 3126.6V3126.6C5861.04 3126.6 5850.84 3116.4 5850.84 3103.81V3078.95Z" fill="#0D2294"/>
<path d="M5850.84 3501.64C5850.84 3489.05 5861.04 3478.85 5873.62 3478.85V3478.85C5886.2 3478.85 5896.4 3489.05 5896.4 3501.64V3526.5C5896.4 3539.09 5886.2 3549.29 5873.62 3549.29V3549.29C5861.04 3549.29 5850.84 3539.09 5850.84 3526.5V3501.64Z" fill="#0D2294"/>
<path d="M5850.84 3642.53C5850.84 3629.95 5861.04 3619.74 5873.62 3619.74V3619.74C5886.2 3619.74 5896.4 3629.95 5896.4 3642.53V3667.4C5896.4 3679.99 5886.2 3690.19 5873.62 3690.19V3690.19C5861.04 3690.19 5850.84 3679.99 5850.84 3667.4V3642.53Z" fill="#0D2294"/>
<path d="M5995.79 3078.95C5995.79 3066.36 6005.98 3056.15 6018.56 3056.15V3056.15C6031.14 3056.15 6041.34 3066.36 6041.34 3078.95V3103.81C6041.34 3116.4 6031.14 3126.6 6018.56 3126.6V3126.6C6005.98 3126.6 5995.79 3116.4 5995.79 3103.81V3078.95Z" fill="#0D2294"/>
<path d="M5995.79 3219.84C5995.79 3207.26 6005.98 3197.05 6018.56 3197.05V3197.05C6031.14 3197.05 6041.34 3207.26 6041.34 3219.84V3244.71C6041.34 3257.29 6031.14 3267.5 6018.56 3267.5V3267.5C6005.98 3267.5 5995.79 3257.29 5995.79 3244.71V3219.84Z" fill="#0D2294"/>
<path d="M5995.79 3360.74C5995.79 3348.15 6005.98 3337.95 6018.56 3337.95V3337.95C6031.14 3337.95 6041.34 3348.15 6041.34 3360.74V3385.6C6041.34 3398.19 6031.14 3408.4 6018.56 3408.4V3408.4C6005.98 3408.4 5995.79 3398.19 5995.79 3385.6V3360.74Z" fill="#0D2294"/>
<path d="M5995.79 3501.64C5995.79 3489.05 6005.98 3478.85 6018.56 3478.85V3478.85C6031.14 3478.85 6041.34 3489.05 6041.34 3501.64V3526.5C6041.34 3539.09 6031.14 3549.29 6018.56 3549.29V3549.29C6005.98 3549.29 5995.79 3539.09 5995.79 3526.5V3501.64Z" fill="#0D2294"/>
<path d="M5995.79 3642.53C5995.79 3629.95 6005.98 3619.74 6018.56 3619.74V3619.74C6031.14 3619.74 6041.34 3629.95 6041.34 3642.53V3667.4C6041.34 3679.99 6031.14 3690.19 6018.56 3690.19V3690.19C6005.98 3690.19 5995.79 3679.99 5995.79 3667.4V3642.53Z" fill="#0D2294"/>
<path d="M5436.69 3078.95C5436.69 3066.36 5446.89 3056.16 5459.47 3056.16V3056.16C5472.05 3056.16 5482.25 3066.36 5482.25 3078.95V3103.81C5482.25 3116.4 5472.05 3126.6 5459.47 3126.6V3126.6C5446.89 3126.6 5436.69 3116.4 5436.69 3103.81V3078.95Z" fill="#0D2294"/>
<path d="M5436.69 3219.84C5436.69 3207.26 5446.88 3197.05 5459.46 3197.05V3197.05C5472.04 3197.05 5482.24 3207.26 5482.24 3219.84V3244.71C5482.24 3257.29 5472.04 3267.5 5459.46 3267.5V3267.5C5446.88 3267.5 5436.69 3257.29 5436.69 3244.71V3219.84Z" fill="#0D2294"/>
<path d="M5436.69 3360.74C5436.69 3348.15 5446.88 3337.95 5459.46 3337.95V3337.95C5472.04 3337.95 5482.24 3348.15 5482.24 3360.74V3385.61C5482.24 3398.19 5472.04 3408.4 5459.46 3408.4V3408.4C5446.88 3408.4 5436.69 3398.19 5436.69 3385.61V3360.74Z" fill="#0D2294"/>
<path d="M5436.69 3501.64C5436.69 3489.05 5446.88 3478.85 5459.46 3478.85V3478.85C5472.04 3478.85 5482.24 3489.05 5482.24 3501.64V3526.5C5482.24 3539.09 5472.04 3549.29 5459.46 3549.29V3549.29C5446.88 3549.29 5436.69 3539.09 5436.69 3526.5V3501.64Z" fill="#0D2294"/>
<path d="M5436.69 3642.53C5436.69 3629.95 5446.88 3619.74 5459.46 3619.74V3619.74C5472.04 3619.74 5482.24 3629.95 5482.24 3642.53V3667.4C5482.24 3679.99 5472.04 3690.19 5459.46 3690.19V3690.19C5446.88 3690.19 5436.69 3679.99 5436.69 3667.4V3642.53Z" fill="#0D2294"/>
<path d="M5581.64 3219.84C5581.64 3207.26 5591.84 3197.05 5604.42 3197.05V3197.05C5617 3197.05 5627.2 3207.26 5627.2 3219.84V3244.71C5627.2 3257.29 5617 3267.5 5604.42 3267.5V3267.5C5591.84 3267.5 5581.64 3257.29 5581.64 3244.71V3219.84Z" fill="#0D2294"/>
<path d="M5581.64 3501.64C5581.64 3489.05 5591.84 3478.85 5604.42 3478.85V3478.85C5617 3478.85 5627.2 3489.05 5627.2 3501.64V3526.5C5627.2 3539.09 5617 3549.29 5604.42 3549.29V3549.29C5591.84 3549.29 5581.64 3539.09 5581.64 3526.5V3501.64Z" fill="#0D2294"/>
<path d="M5581.64 3642.53C5581.64 3629.95 5591.84 3619.74 5604.42 3619.74V3619.74C5617 3619.74 5627.2 3629.95 5627.2 3642.53V3667.4C5627.2 3679.99 5617 3690.19 5604.42 3690.19V3690.19C5591.84 3690.19 5581.64 3679.99 5581.64 3667.4V3642.53Z" fill="#0D2294"/>
</g>
<defs>
<filter id="filter0_f_302_8673" x="-1690.5" y="827.994" width="13578" height="3983.98" filterUnits="userSpaceOnUse" color-interpolation-filters="sRGB">
<feFlood flood-opacity="0" result="BackgroundImageFix"/>
<feBlend mode="normal" in="SourceGraphic" in2="BackgroundImageFix" result="shape"/>
<feGaussianBlur stdDeviation="150" result="effect1_foregroundBlur_302_8673"/>
</filter>
<filter id="filter1_d_302_8673" x="-17.5098" y="1469.04" width="15872" height="2865.59" filterUnits="userSpaceOnUse" color-interpolation-filters="sRGB">
<feFlood flood-opacity="0" result="BackgroundImageFix"/>
<feColorMatrix in="SourceAlpha" type="matrix" values="0 0 0 0 0 0 0 0 0 0 0 0 0 0 0 0 0 0 127 0" result="hardAlpha"/>
<feOffset dy="4"/>
<feGaussianBlur stdDeviation="2"/>
<feColorMatrix type="matrix" values="0 0 0 0 0 0 0 0 0 0 0 0 0 0 0 0 0 0 0.25 0"/>
<feBlend mode="normal" in2="BackgroundImageFix" result="effect1_dropShadow_302_8673"/>
<feBlend mode="normal" in="SourceGraphic" in2="effect1_dropShadow_302_8673" result="shape"/>
</filter>
<radialGradient id="paint0_radial_302_8673" cx="0" cy="0" r="1" gradientUnits="userSpaceOnUse" gradientTransform="translate(4758.6 2879.22) rotate(90) scale(2760.75 5384.92)">
<stop stop-color="#C4C4C4"/>
<stop offset="0.27234" stop-color="#C4C4C4" stop-opacity="0.520833"/>
<stop offset="1" stop-color="#C4C4C4" stop-opacity="0"/>
</radialGradient>
<linearGradient id="paint1_linear_302_8673" x1="5443.5" y1="1819.98" x2="5442.22" y2="3408.46" gradientUnits="userSpaceOnUse">
<stop stop-color="#0F27FF"/>
<stop offset="1" stop-color="#2871FF"/>
</linearGradient>
<linearGradient id="paint2_linear_302_8673" x1="5108.9" y1="2491.63" x2="5110.33" y2="4326.63" gradientUnits="userSpaceOnUse">
<stop stop-color="#081DB6"/>
<stop offset="0.546875" stop-color="#0C1167" stop-opacity="0.882626"/>
<stop offset="1" stop-color="#0C1167"/>
</linearGradient>
</defs>
</svg>
