<svg width="464" height="1144" viewBox="0 0 464 1144" fill="none" xmlns="http://www.w3.org/2000/svg">
<path d="M321.726 83.209L341.198 92.094L332.691 121.585L310.762 120.072L308.493 84.7213L321.726 83.209Z" fill="#E9F0FF"/>
<path d="M307.802 120.045C311.839 118.107 324.664 116.866 326.413 117.808L336.773 95.8756C332.575 97.3288 328.404 89.296 327.126 87.6814C325.673 88.8117 322.847 90.359 321.434 90.2244C317.882 89.7401 317.398 90.2244 315.38 88.8117L311.747 89.0135C308.033 90.6281 303.875 89.5517 301.857 89.4171C299.758 92.0005 297.686 91.9736 296.811 91.8391C290.676 93.1308 289.625 90.625 289 87.5C289.125 84 291.625 82.5 294.25 81.5C296.75 80.875 299.25 80.75 301.125 81.875C301.125 79.2916 301.924 77.8457 302.866 76.702C305.611 73.6343 310.199 74.4828 312.15 75.2905L314.774 76.5012C321.878 67.9436 330.92 73.4731 334.553 77.3075L337.125 77.625C343.875 75.5 353.25 82.875 364.375 95C375.5 107.125 387 133 387 133L395 144L384 158.5C384 158.5 377.076 163.24 373 163.5C365.477 163.981 367.575 164.071 358.5 159C347.824 153.662 346.771 154.476 337.162 149.938C330.2 146.651 322.133 137.326 318.5 134.5C315.194 130.92 311.915 129.658 306.735 129.119C301.396 126.984 300.536 120.65 307.802 120.045Z" fill="#E9F0FF"/>
<path d="M304.599 118.978C315.809 115.775 326.169 116.954 333 123" stroke="#0F0967" stroke-width="3" stroke-linecap="round"/>
<path d="M339.03 76.0059C327.82 78.2746 326.352 80.8102 327.553 86.4152C322.348 90.8192 315.756 89.7783 313.407 87.2159" stroke="#0F0967" stroke-width="3" stroke-linecap="round" stroke-linejoin="round"/>
<path d="M314.875 75.7383C315.231 80.0088 315.466 87.0672 309.487 88.2415C308.375 88.375 305.25 89 302.375 87.25C299.75 84.5 298.875 82.75 300.125 77.5" stroke="#0F0967" stroke-width="3" stroke-linecap="round" stroke-linejoin="round"/>
<path d="M341 98.5L336.375 89.25M336.375 89.25C332.625 90.375 329.125 89.75 327.82 86.9473M336.375 89.25C338.5 88.75 339.125 86.25 339.125 86.25" stroke="#0F0967" stroke-width="3" stroke-linecap="round" stroke-linejoin="round"/>
<path d="M290.332 120.235C290.411 121.888 291.866 123.133 293.511 122.957L327.324 119.337C328.838 119.175 329.963 117.861 329.89 116.341L328.764 92.8501C328.691 91.3295 327.445 90.1291 325.923 90.1123L291.918 89.7373C290.263 89.7191 288.935 91.0974 289.014 92.75L290.332 120.235Z" fill="#EBEBEB" fill-opacity="0.5" stroke="#ECF1FD" stroke-width="2.15657"/>
<line x1="317.315" y1="94.4968" x2="317.692" y2="102.995" stroke="#2F72F4" stroke-width="1.43771" stroke-linecap="round"/>
<line x1="322.353" y1="94.4899" x2="322.635" y2="99.7535" stroke="#2F72F4" stroke-width="1.43771" stroke-linecap="round"/>
<path d="M291.045 117.174L328.066 102.078L328.785 116.455C328.785 117.605 327.707 118.133 327.168 118.252C316.685 119.391 295.287 121.703 293.561 121.847C291.836 121.99 291.405 120.349 291.405 119.51L291.045 117.174Z" fill="white"/>
<line x1="297.187" y1="94.4968" x2="297.564" y2="102.995" stroke="#2F72F4" stroke-width="1.43771" stroke-linecap="round"/>
<line x1="307.251" y1="94.4968" x2="307.628" y2="102.995" stroke="#2F72F4" stroke-width="1.43771" stroke-linecap="round"/>
<line x1="302.225" y1="94.4899" x2="302.507" y2="99.7535" stroke="#2F72F4" stroke-width="1.43771" stroke-linecap="round"/>
<line x1="312.289" y1="94.4899" x2="312.571" y2="99.7535" stroke="#2F72F4" stroke-width="1.43771" stroke-linecap="round"/>
<path d="M370.47 221.555C342.105 229.457 303.79 206.198 255.649 215.979C230.989 218.624 222.356 241.132 224.419 285.15C226.069 320.364 279.388 329.234 293.727 331.341C370.65 342.646 418.351 317.504 445.873 286.629C472.948 256.255 479.687 196.098 392.789 131.504C390.462 129.774 387.096 130.39 385.404 132.746C382.643 136.591 378.265 142.129 373.5 146C368.65 149.941 362.145 153.882 357.775 156.375C355.228 157.828 354.357 161.129 355.916 163.614C369.593 185.416 375.335 197.208 377.642 213.143C378.412 218.461 373.314 220.763 370.47 221.555Z" fill="url(#paint0_linear)"/>
<path fill-rule="evenodd" clip-rule="evenodd" d="M205.057 532.064C145.041 531.993 114.079 521.534 101.831 517.397C99.2581 516.528 97.511 515.937 96.4935 515.781C91.7904 515.057 88.9349 519.701 88.0951 522.113C84.6009 539.521 83.6729 564.788 81.6899 618.781C80.6225 647.843 79.2495 685.228 77.006 734.19C71.115 862.758 63.4845 1032.93 62.2848 1059.7C62.1857 1061.91 63.559 1063.82 65.6686 1064.49C114.578 1080.15 168.493 1072.56 191.378 1065.95C193.425 1065.36 194.775 1063.53 194.804 1061.4C195.044 1044.08 196.07 965.874 196.07 896.892C196.07 818.968 198.105 696.778 198.114 696.239C198.115 696.222 198.114 696.228 198.114 696.212C198.117 684.272 200.15 678.362 202.279 672.176C203.054 669.923 207.061 669.923 207.836 672.176C209.964 678.362 211.997 684.272 212 696.212C212 696.228 212 696.222 212 696.239C212.009 696.778 214.045 818.968 214.045 896.892C214.045 965.874 215.07 1044.08 215.31 1061.4C215.339 1063.53 216.69 1065.36 218.736 1065.95C241.622 1072.56 295.537 1080.15 344.446 1064.49C346.555 1063.82 347.929 1061.91 347.83 1059.7C346.63 1032.93 338.999 862.758 333.108 734.19C330.865 685.228 329.492 647.843 328.424 618.781C326.441 564.788 325.514 539.521 322.019 522.113C321.18 519.701 318.324 515.057 313.621 515.781C312.603 515.937 310.856 516.528 308.284 517.397C296.035 521.534 265.073 531.993 205.057 532.064Z" fill="url(#paint1_linear)"/>
<path d="M302.211 557.543C303.141 573.348 307.792 594.732 326.396 597.521" stroke="white" stroke-width="3" stroke-linecap="round"/>
<path d="M332.952 351.533C331.621 239.733 287.96 221.337 263.128 217.924C213.845 209.105 173.054 214.25 158.82 217.924C97.4631 235.803 90.1099 269.525 85.0152 345.466C81.6655 395.398 74.9641 487.829 82.3052 530.227C84.5134 542.979 94.2666 546.167 98.8671 546.167C178.918 559.829 265.448 554.818 314.706 547.429C327.151 545.563 331.005 538.718 331.937 530.227C336.245 490.965 332.473 388.398 332.952 351.533Z" fill="#120F8A"/>
<ellipse rx="45.6294" ry="45.1461" transform="matrix(0.999718 -0.0237283 0.0237518 0.999718 206.866 331.777)" fill="#59F0E7" fill-opacity="0.3"/>
<ellipse rx="39.4072" ry="38.9898" transform="matrix(0.999718 -0.0237283 0.0237518 0.999718 207.113 331.772)" fill="#59F0E7" fill-opacity="0.4"/>
<ellipse rx="32.3554" ry="32.4231" transform="matrix(0.999718 -0.0237283 0.0237518 0.999718 206.866 331.777)" fill="#59F0E7"/>
<mask id="path-22-outside-1" maskUnits="userSpaceOnUse" x="184.515" y="305.341" width="44.1755" height="51.0062" fill="black">
<rect fill="white" x="184.515" y="305.341" width="44.1755" height="51.0062"/>
<path d="M215.811 326.498C216.726 328.577 216.577 329.567 216.704 330.194C216.741 330.382 216.927 330.568 217.113 330.521C217.166 330.508 217.208 330.471 217.254 330.441C217.471 330.297 217.674 330.026 217.855 329.706C218.277 328.958 219.323 328.841 219.64 329.64C220.943 332.926 221.025 336.683 219.916 339.877C219.284 341.423 217.372 345.294 212.462 347.515C210.985 348.3 206.877 349.467 202.257 347.852C197.638 346.24 195.174 342.951 194.167 340.776C193.766 339.924 193.052 338.028 193.268 335.058C193.327 333.527 194.758 329.476 194.937 328.993C195.658 327.011 195.898 325.069 195.944 323.804C195.965 323.232 196.392 322.9 196.89 323.182C197.148 323.328 197.424 323.498 197.674 323.668C198.083 323.96 198.432 324.23 198.743 324.498C199.391 325.055 200.528 324.811 200.785 323.996C201.454 321.877 202.347 319.987 203.466 318.366C204.806 316.356 206.604 314.729 208.562 313.619C209.283 313.21 210.157 313.929 210.133 314.758C210.097 315.961 210.219 317.549 210.716 319.335C210.735 319.402 210.761 319.467 210.794 319.528C211.295 320.436 212.05 321.25 212.716 322.067C213.009 322.347 213.209 322.725 213.502 323.005C215.076 324.976 215.371 325.5 215.811 326.498Z"/>
</mask>
<path d="M215.811 326.498C216.726 328.577 216.577 329.567 216.704 330.194C216.741 330.382 216.927 330.568 217.113 330.521C217.166 330.508 217.208 330.471 217.254 330.441C217.471 330.297 217.674 330.026 217.855 329.706C218.277 328.958 219.323 328.841 219.64 329.64C220.943 332.926 221.025 336.683 219.916 339.877C219.284 341.423 217.372 345.294 212.462 347.515C210.985 348.3 206.877 349.467 202.257 347.852C197.638 346.24 195.174 342.951 194.167 340.776C193.766 339.924 193.052 338.028 193.268 335.058C193.327 333.527 194.758 329.476 194.937 328.993C195.658 327.011 195.898 325.069 195.944 323.804C195.965 323.232 196.392 322.9 196.89 323.182C197.148 323.328 197.424 323.498 197.674 323.668C198.083 323.96 198.432 324.23 198.743 324.498C199.391 325.055 200.528 324.811 200.785 323.996C201.454 321.877 202.347 319.987 203.466 318.366C204.806 316.356 206.604 314.729 208.562 313.619C209.283 313.21 210.157 313.929 210.133 314.758C210.097 315.961 210.219 317.549 210.716 319.335C210.735 319.402 210.761 319.467 210.794 319.528C211.295 320.436 212.05 321.25 212.716 322.067C213.009 322.347 213.209 322.725 213.502 323.005C215.076 324.976 215.371 325.5 215.811 326.498Z" fill="#CA0D7B"/>
<path d="M216.704 330.194L223.566 328.814L223.566 328.814L216.704 330.194ZM215.811 326.498L222.217 323.677L222.217 323.677L215.811 326.498ZM213.502 323.005L218.972 318.638L218.678 318.27L218.338 317.944L213.502 323.005ZM212.716 322.067L207.29 326.489L207.565 326.827L207.88 327.128L212.716 322.067ZM210.794 319.528L204.666 322.911L204.666 322.911L210.794 319.528ZM208.562 313.619L212.014 319.708L212.014 319.708L208.562 313.619ZM203.466 318.366L209.227 322.342L209.258 322.297L209.288 322.251L203.466 318.366ZM200.785 323.996L207.461 326.102L207.461 326.102L200.785 323.996ZM198.743 324.498L194.175 329.802L194.175 329.802L198.743 324.498ZM197.674 323.668L201.746 317.974L201.68 317.926L201.612 317.881L197.674 323.668ZM196.89 323.182L193.445 329.275L193.445 329.275L196.89 323.182ZM194.937 328.993L201.498 331.433L201.508 331.408L201.517 331.383L194.937 328.993ZM193.268 335.058L200.25 335.566L200.258 335.447L200.263 335.328L193.268 335.058ZM194.167 340.776L200.521 337.838L200.509 337.812L200.497 337.787L194.167 340.776ZM202.257 347.852L204.567 341.244L204.563 341.243L202.257 347.852ZM212.462 347.515L209.577 341.137L209.373 341.229L209.174 341.334L212.462 347.515ZM219.916 339.877L226.396 342.525L226.466 342.352L226.528 342.175L219.916 339.877ZM219.64 329.64L226.147 327.059L226.147 327.059L219.64 329.64ZM195.944 323.804L202.94 324.061L202.94 324.061L195.944 323.804ZM210.133 314.758L217.13 314.966L217.13 314.966L210.133 314.758ZM210.716 319.335L217.459 317.456L217.459 317.456L210.716 319.335ZM217.855 329.706L211.76 326.264L211.76 326.264L217.855 329.706ZM217.254 330.441L221.1 336.289L221.1 336.289L217.254 330.441ZM217.113 330.521L215.422 323.729L215.422 323.729L217.113 330.521ZM223.566 328.814C223.631 329.138 223.646 329.419 223.614 329.052C223.594 328.816 223.555 328.353 223.466 327.792C223.277 326.601 222.912 325.255 222.217 323.677L209.404 329.318C209.521 329.585 209.579 329.757 209.606 329.848C209.631 329.934 209.638 329.975 209.64 329.988C209.644 330.013 209.648 330.045 209.665 330.236C209.671 330.308 209.686 330.5 209.707 330.689C209.728 330.888 209.767 331.205 209.841 331.575L223.566 328.814ZM222.217 323.677C221.43 321.89 220.72 320.827 218.972 318.638L208.032 327.373C208.799 328.334 209.083 328.731 209.208 328.925C209.252 328.992 209.264 329.016 209.27 329.028C209.285 329.056 209.317 329.12 209.404 329.318L222.217 323.677ZM218.338 317.944C218.54 318.138 218.672 318.296 218.723 318.358C218.764 318.408 218.787 318.441 218.711 318.339C218.664 318.277 218.517 318.079 218.348 317.871C218.168 317.65 217.901 317.34 217.552 317.007L207.88 327.128C207.678 326.935 207.546 326.777 207.495 326.715C207.454 326.665 207.431 326.632 207.507 326.733C207.554 326.796 207.7 326.993 207.87 327.202C208.05 327.422 208.317 327.733 208.666 328.066L218.338 317.944ZM218.142 317.645C217.937 317.393 217.724 317.14 217.57 316.957C217.4 316.754 217.275 316.603 217.165 316.466C216.936 316.178 216.898 316.1 216.923 316.146L204.666 322.911C205.57 324.548 207.037 326.179 207.29 326.489L218.142 317.645ZM205.109 307.53C202.224 309.166 199.606 311.539 197.643 314.48L209.288 322.251C210.007 321.174 210.985 320.292 212.014 319.708L205.109 307.53ZM197.704 314.39C196.131 316.669 194.955 319.211 194.11 321.889L207.461 326.102C207.952 324.544 208.562 323.304 209.227 322.342L197.704 314.39ZM203.311 319.194C202.8 318.753 202.275 318.353 201.746 317.974L193.603 329.362C193.89 329.567 194.064 329.706 194.175 329.802L203.311 319.194ZM201.612 317.881C201.184 317.589 200.742 317.318 200.335 317.089L193.445 329.275C193.555 329.338 193.664 329.406 193.736 329.455L201.612 317.881ZM188.376 326.553C188.242 326.914 187.795 328.177 187.365 329.581C187.039 330.645 186.344 332.944 186.273 334.788L200.263 335.328C200.254 335.571 200.228 335.68 200.245 335.583C200.257 335.512 200.284 335.377 200.334 335.172C200.433 334.76 200.579 334.243 200.75 333.683C200.918 333.135 201.093 332.605 201.237 332.182C201.308 331.972 201.37 331.793 201.418 331.658C201.442 331.59 201.461 331.535 201.476 331.494C201.492 331.45 201.499 331.432 201.498 331.433L188.376 326.553ZM186.287 334.551C185.967 338.947 187.026 342.046 187.838 343.765L200.497 337.787C200.483 337.755 200.403 337.586 200.334 337.261C200.265 336.933 200.191 336.376 200.25 335.566L186.287 334.551ZM187.814 343.713C189.439 347.229 193.179 352.098 199.951 354.462L204.563 341.243C202.097 340.383 200.908 338.674 200.521 337.838L187.814 343.713ZM215.346 353.893C222.574 350.624 225.439 344.867 226.396 342.525L213.436 337.23C213.13 337.978 212.17 339.964 209.577 341.137L215.346 353.893ZM226.528 342.175C228.201 337.357 228.055 331.869 226.147 327.059L213.133 332.22C213.832 333.982 213.849 336.008 213.303 337.58L226.528 342.175ZM209.174 341.334C209.328 341.253 208.819 341.515 207.806 341.622C206.882 341.719 205.758 341.661 204.567 341.244L199.948 354.46C206.676 356.812 212.812 355.257 215.749 353.695L209.174 341.334ZM188.949 323.546C188.922 324.279 188.771 325.467 188.358 326.603L201.517 331.383C202.545 328.554 202.873 325.86 202.94 324.061L188.949 323.546ZM203.136 314.55C203.081 316.388 203.269 318.685 203.973 321.213L217.459 317.456C217.169 316.414 217.113 315.535 217.13 314.966L203.136 314.55ZM211.76 326.264C211.794 326.204 211.903 326.016 212.103 325.766C212.283 325.541 212.702 325.055 213.407 324.592L221.1 336.289C222.766 335.194 223.641 333.696 223.95 333.148L211.76 326.264ZM194.11 321.889C194.872 319.474 196.824 318.296 198.31 317.947C199.763 317.606 201.698 317.804 203.311 319.194L194.175 329.802C196.436 331.749 199.264 332.104 201.511 331.576C203.792 331.04 206.441 329.333 207.461 326.102L194.11 321.889ZM212.014 319.708C209.41 321.185 206.787 320.357 205.392 319.298C204.087 318.306 203.074 316.624 203.136 314.55L217.13 314.966C217.216 312.063 215.778 309.607 213.862 308.15C211.856 306.626 208.435 305.644 205.109 307.53L212.014 319.708ZM215.422 323.729C218.2 323.037 220.372 324.237 221.423 325.144C222.47 326.047 223.264 327.31 223.566 328.814L209.841 331.575C210.181 333.266 211.086 334.716 212.282 335.748C213.483 336.782 215.84 338.052 218.804 337.314L215.422 323.729ZM216.923 316.146C217.173 316.599 217.344 317.043 217.459 317.456L203.973 321.213C204.125 321.76 204.349 322.336 204.666 322.911L216.923 316.146ZM218.804 337.314C219.917 337.037 220.695 336.556 221.006 336.353C221.091 336.298 221.16 336.25 221.205 336.219C221.246 336.19 221.282 336.165 221.285 336.163C221.321 336.137 221.22 336.21 221.1 336.289L213.407 324.592C213.327 324.645 213.262 324.689 213.222 324.717C213.202 324.732 213.185 324.744 213.174 324.751C213.164 324.758 213.155 324.765 213.155 324.765C213.129 324.784 213.234 324.707 213.366 324.621C213.632 324.448 214.362 323.993 215.422 323.729L218.804 337.314ZM200.335 317.089C198.169 315.864 194.996 315.512 192.243 317.425C189.796 319.125 189.017 321.699 188.949 323.546L202.94 324.061C202.893 325.337 202.337 327.459 200.233 328.921C197.824 330.596 195.113 330.219 193.445 329.275L200.335 317.089ZM226.147 327.059C224.772 323.591 221.445 321.906 218.334 322.108C215.544 322.289 213.094 323.901 211.76 326.264L223.95 333.148C223.038 334.763 221.323 335.943 219.24 336.078C216.837 336.234 214.192 334.889 213.133 332.22L226.147 327.059Z" fill="#FF7EC9" mask="url(#path-22-outside-1)"/>
<path d="M211.134 343.209C210.094 344.303 208.663 345.024 207.064 345.062C202.723 345.165 198.872 340.217 202.049 336.019C203.298 334.08 205.031 333.276 205.67 331.275C205.956 330.505 206.009 329.511 205.918 328.902C205.836 328.675 205.74 327.838 205.739 327.761C205.737 327.685 205.737 327.685 205.813 327.683L205.887 327.605C205.963 327.603 205.963 327.603 206.04 327.601C206.195 327.75 206.351 327.899 206.507 328.049C206.819 328.347 207.209 328.719 207.521 329.017C208.3 329.762 209.017 331.043 209.203 332.489C209.399 334.317 208.979 335.854 207.631 336.879C208.246 337.093 208.855 337.079 209.535 336.834C210.592 336.427 211.187 335.802 211.395 334.957C211.395 334.957 211.394 334.881 211.47 334.879L211.546 334.877C212.161 335.092 212.868 335.991 212.995 338.126C212.88 339.732 212.695 341.569 211.134 343.209Z" fill="#FFADDD"/>
<path d="M112.701 555.525C111.784 571.101 107.2 592.175 88.8633 594.923" stroke="white" stroke-width="3" stroke-linecap="round"/>
<path d="M301.25 87.625C299.375 90.125 291.435 92.6903 288.125 89.875" stroke="#0F0967" stroke-width="3" stroke-linecap="round" stroke-linejoin="round"/>
<path d="M48.1489 644.911C41.9585 632.786 37.0045 614.223 38.7725 587.385L82.2793 583.456C82.2793 583.456 85.3365 599.566 86.1756 608.847C87.0147 618.128 89.7907 635.89 81.4533 636.928C82.3666 662.683 87.7073 666.975 85.2687 671.305C83.3178 674.77 77.0401 674.202 74.1451 673.484C61.0635 672.787 54.4012 656.677 48.1489 644.911Z" fill="#E9F0FD"/>
<path d="M108.487 239.057L156.972 219.487C162.356 266.566 109.154 285.973 98.2643 341.969C88.7045 393.62 87.8569 560.682 86.3417 580.952C86.3417 585.961 87.6238 591.552 84.0107 591.785L40.2849 590.57C33.5875 590.106 32.2995 584.412 32.4926 581.623C19.2013 499.526 10.9435 386.149 40.1831 316.406C54.211 275.807 74.9196 256.763 108.487 239.057Z" fill="url(#paint2_linear)"/>
<path d="M80.289 637.831C78.3613 638.083 73.8738 636.772 71.3453 629.515C69.2811 622.216 68.2763 611.122 63.3811 604.483" stroke="#0F0967" stroke-width="3" stroke-linecap="round"/>
<path d="M123.932 99.0129L178.516 86.2261L234.25 72.7492C242.25 98.75 249.5 140.75 253 164.25C256.5 187.75 256.057 203.404 254.75 222.75C252.25 259.75 237.308 265.917 220.953 269.509C186.485 277.345 170.96 255.915 164.571 241.895C159.846 229.872 149.481 202.937 143.273 181.618C132.978 146.266 126.46 116.73 123.932 99.0129Z" fill="#E9F0FF"/>
<path d="M224.76 182.648C221.013 184.105 217.153 184.761 213.618 184.929C209.408 185.129 206.27 189.684 209.784 192.012C215.106 195.538 221.269 195.148 224.569 194.11C228.216 193.288 230.869 191.014 232.767 188.175C235.473 184.127 229.298 180.885 224.76 182.648Z" fill="#D7DDE9"/>
<path d="M222.5 78.499C201.75 88.999 186 91.249 161.5 94.749C137 98.249 128.775 95.3283 129.508 108.588C130.241 121.848 144.75 186.25 144.75 186.25C128.75 180 116.5 166.251 110 153.5C103.5 140.75 101.5 123.75 101.5 123.75C100 96.7502 100.845 85.2323 115 63.9988C131 39.9976 178.499 31.2502 205.25 42.4993C225.662 51.0832 240.993 75.5964 244 89.499C247.007 103.402 249 120.499 249 120.499C249.509 133.253 247.563 129.812 247 126.999C246.438 124.187 239.275 95.005 235.448 85.0085C231.622 75.012 232.896 73.2384 222.5 78.499Z" fill="#0F43EC"/>
<path d="M124.205 137.276L134.964 136.616L150.042 163.812L136.744 162.639C125.757 162.114 120.854 154.885 119.133 149.248C117.03 142.355 119.64 138.219 124.205 137.276Z" fill="#E9F0FF"/>
<path d="M242.243 112.534L232.31 116.722L230.872 147.786L242.267 140.829C251.878 135.478 253.062 126.824 252.101 121.009C250.927 113.898 246.752 111.352 242.243 112.534Z" fill="#E9F0FF"/>
<path d="M189.052 103.471C189.263 102.528 188.669 101.593 187.726 101.382C186.782 101.172 185.847 101.766 185.636 102.709L189.052 103.471ZM172.098 112.966C171.151 113.159 170.539 114.083 170.732 115.03C170.924 115.977 171.848 116.589 172.795 116.396L172.098 112.966ZM185.636 102.709C185.135 104.956 183.301 107.225 180.647 109.142C178.026 111.036 174.849 112.407 172.098 112.966L172.795 116.396C176.051 115.734 179.687 114.153 182.696 111.979C185.672 109.829 188.284 106.913 189.052 103.471L185.636 102.709Z" fill="#0F0967"/>
<path d="M214.811 95.8103C214.257 95.0179 214.451 93.9269 215.244 93.3735C216.036 92.8201 217.127 93.0138 217.68 93.8062L214.811 95.8103ZM234.1 98.1427C235.049 97.9606 235.966 98.5825 236.148 99.5317C236.33 100.481 235.708 101.398 234.759 101.58L234.1 98.1427ZM217.68 93.8062C218.998 95.6932 221.557 97.0937 224.74 97.8578C227.883 98.6123 231.343 98.6715 234.1 98.1427L234.759 101.58C231.496 102.206 227.532 102.128 223.923 101.261C220.353 100.404 216.83 98.701 214.811 95.8103L217.68 93.8062Z" fill="#0F0967"/>
<ellipse rx="4.15086" ry="4.1489" transform="matrix(0.973644 -0.228086 0.227961 0.973668 191.015 121.562)" fill="#0F0967"/>
<ellipse rx="4.15086" ry="4.14889" transform="matrix(0.973643 -0.228086 0.227961 0.973668 228.434 111.978)" fill="#0F0967"/>
<path d="M213.848 106.045L226.029 139.371C226.647 141.061 225.647 142.912 223.895 143.322L210.52 146.455" stroke="#0F0967" stroke-width="3" stroke-linecap="round"/>
<path d="M224.446 153.687C219.009 154.432 212.261 155.255 210.032 160.678C209 163.187 210.062 165.75 211.406 167.999C214 172.25 223.155 169.775 225.25 166.938" stroke="#0F0967" stroke-width="3" stroke-linecap="round"/>
<path d="M190.695 1076.1C192.704 1084.78 191.9 1097.17 191.9 1097.17L191.877 1115.31C191.876 1116.34 191.474 1117.33 190.685 1118C188.334 1119.99 182.354 1124.42 171.449 1128.85C156.779 1134.8 143.715 1139.16 125.149 1140.53C105.895 1141.45 93.7469 1141.45 79.9943 1139.84C60.3589 1136.54 53.8742 1136.82 54.3432 1130.56L54.5709 1110.23C55.0511 1093.9 65.7954 1081.86 82.1225 1076.63C96.9721 1072.44 117.336 1069.33 139.094 1086.94" stroke="white" stroke-width="3" stroke-linecap="round"/>
<path d="M55.1436 1114.97C74.7222 1124.5 157.523 1127.04 191.9 1097.17" stroke="white" stroke-width="3"/>
<path d="M93.0224 1121.26L92.5786 1140.76" stroke="white" stroke-width="3"/>
<path d="M114.121 1121.96L114.034 1140.32" stroke="white" stroke-width="3"/>
<path d="M134.963 1118.27L135.002 1140.28" stroke="white" stroke-width="3"/>
<path d="M151.444 1116.16L150.997 1137.15" stroke="white" stroke-width="3"/>
<path d="M164.483 1111.84L164.248 1131.83" stroke="white" stroke-width="3"/>
<path d="M175.738 1107.57L175.656 1127.56" stroke="white" stroke-width="3"/>
<path d="M184.767 1102.67L184.992 1122.66" stroke="white" stroke-width="3"/>
<path d="M73.0643 1119.92L72.5759 1138.3" stroke="white" stroke-width="3"/>
<path d="M228.439 1076.1C226.43 1084.78 227.235 1097.17 227.235 1097.17L227.258 1115.31C227.259 1116.34 227.661 1117.33 228.45 1118C230.801 1119.99 236.781 1124.42 247.686 1128.85C262.356 1134.8 275.42 1139.16 293.986 1140.53C313.24 1141.45 325.388 1141.45 339.14 1139.84C358.776 1136.54 365.261 1136.82 364.792 1130.56L364.564 1110.23C364.084 1093.9 353.339 1081.86 337.012 1076.63C322.163 1072.44 301.799 1069.33 280.041 1086.94" stroke="white" stroke-width="3" stroke-linecap="round"/>
<path d="M363.991 1114.97C344.413 1124.5 261.612 1127.04 227.234 1097.17" stroke="white" stroke-width="3"/>
<path d="M326.112 1121.26L326.556 1140.76" stroke="white" stroke-width="3"/>
<path d="M305.014 1121.96L305.101 1140.32" stroke="white" stroke-width="3"/>
<path d="M284.171 1118.27L284.133 1140.28" stroke="white" stroke-width="3"/>
<path d="M267.691 1116.16L268.138 1137.15" stroke="white" stroke-width="3"/>
<path d="M254.651 1111.84L254.887 1131.83" stroke="white" stroke-width="3"/>
<path d="M243.396 1107.57L243.479 1127.56" stroke="white" stroke-width="3"/>
<path d="M234.368 1102.67L234.142 1122.66" stroke="white" stroke-width="3"/>
<path d="M346.071 1119.92L346.559 1138.3" stroke="white" stroke-width="3"/>
<defs>
<linearGradient id="paint0_linear" x1="286.378" y1="235.182" x2="425.013" y2="119.791" gradientUnits="userSpaceOnUse">
<stop stop-color="#120F8A"/>
<stop offset="0.335202" stop-color="#0D1998"/>
<stop offset="1" stop-color="#0239C6"/>
</linearGradient>
<linearGradient id="paint1_linear" x1="171.009" y1="515.705" x2="171.009" y2="1073.59" gradientUnits="userSpaceOnUse">
<stop stop-color="#0B2CED"/>
<stop offset="1" stop-color="#0F0B6C"/>
</linearGradient>
<linearGradient id="paint2_linear" x1="87.8158" y1="378.144" x2="74.1682" y2="637.593" gradientUnits="userSpaceOnUse">
<stop stop-color="#120F8A"/>
<stop offset="1" stop-color="#0339C6"/>
</linearGradient>
</defs>
</svg>
