<svg width="561" height="958" viewBox="0 0 561 958" fill="none" xmlns="http://www.w3.org/2000/svg">
<path fill-rule="evenodd" clip-rule="evenodd" d="M352.049 865.538C356.596 866.24 361.266 867.446 364.283 869.112C379.958 877.768 406.516 884.632 420.896 887.48C452.889 893.542 465.983 917.23 468.831 929.452C469.028 930.3 469.077 931.138 469.038 931.937L468.287 947.202C468.03 952.437 463.795 956.603 458.524 956.663C443.12 956.838 405.949 956.994 367.792 955.167C329.504 953.333 291.817 949.41 276.324 947.68C271.09 947.096 267.293 942.536 267.55 937.308L268.347 921.1C268.391 901.536 272.826 881.558 276.204 869.965C277.559 865.316 282.138 862.623 286.775 863.18C313.178 866.349 329.654 866.266 339.378 865.014C342.702 864.586 347.478 864.832 352.049 865.538ZM351.44 869.491C347.053 868.814 342.691 868.621 339.888 868.981C329.698 870.293 312.853 870.338 286.3 867.151C283.434 866.807 280.802 868.474 280.041 871.085C276.719 882.488 272.379 902.09 272.344 921.155L272.344 921.203L271.542 937.505C271.387 940.659 273.666 943.359 276.766 943.705C292.228 945.431 329.819 949.343 367.982 951.171C406.025 952.993 443.107 952.838 458.478 952.663C461.601 952.627 464.14 950.162 464.295 947.005L465.046 931.74C465.071 931.239 465.036 930.781 464.939 930.36C462.364 919.312 450.249 897.11 420.145 891.409L420.128 891.405C405.692 888.547 378.606 881.59 362.353 872.614C359.961 871.294 355.852 870.172 351.44 869.491Z" fill="white"/>
<path fill-rule="evenodd" clip-rule="evenodd" d="M466.928 929.683L467.05 931.679C467.172 933.676 467.171 933.676 467.171 933.676L467.143 933.677L467.063 933.682L466.752 933.7C466.476 933.715 466.066 933.736 465.522 933.762C464.435 933.815 462.814 933.886 460.671 933.962C456.385 934.112 450.011 934.28 441.642 934.349C424.906 934.487 400.191 934.229 368.248 932.648C336.304 931.067 311.845 928.898 295.363 927.124C287.122 926.236 280.875 925.447 276.684 924.88C274.589 924.596 273.008 924.367 271.948 924.209C271.418 924.13 271.019 924.069 270.751 924.027L270.447 923.98L270.37 923.967L270.344 923.963C270.344 923.963 270.342 923.963 270.662 921.989L270.982 920.014L271.004 920.018L271.075 920.029L271.365 920.075C271.625 920.115 272.015 920.175 272.536 920.253C273.579 920.408 275.143 920.634 277.22 920.916C281.375 921.479 287.586 922.263 295.79 923.147C312.198 924.913 336.581 927.076 368.445 928.653C400.308 930.23 424.946 930.487 441.609 930.349C449.941 930.281 456.279 930.114 460.53 929.964C462.656 929.889 464.259 929.819 465.33 929.767C465.865 929.741 466.266 929.72 466.533 929.705L466.832 929.689L466.906 929.684L466.928 929.683Z" fill="white"/>
<path fill-rule="evenodd" clip-rule="evenodd" d="M284.769 946.123L285.895 923.25L289.886 923.447L288.761 946.32L284.769 946.123Z" fill="white"/>
<path fill-rule="evenodd" clip-rule="evenodd" d="M357.546 951.871L358.671 928.998L362.663 929.195L361.538 952.068L357.546 951.871Z" fill="white"/>
<path fill-rule="evenodd" clip-rule="evenodd" d="M302.67 948.449L303.795 925.576L307.787 925.773L306.662 948.646L302.67 948.449Z" fill="white"/>
<path fill-rule="evenodd" clip-rule="evenodd" d="M375.307 952.747L376.432 929.874L380.424 930.071L379.299 952.944L375.307 952.747Z" fill="white"/>
<path fill-rule="evenodd" clip-rule="evenodd" d="M321.008 950.068L322.133 927.195L326.125 927.392L325 950.265L321.008 950.068Z" fill="white"/>
<path fill-rule="evenodd" clip-rule="evenodd" d="M393.576 953.649L394.701 930.776L398.693 930.973L397.568 953.846L393.576 953.649Z" fill="white"/>
<path fill-rule="evenodd" clip-rule="evenodd" d="M429.549 954.837L430.674 931.964L434.666 932.161L433.541 955.034L429.549 954.837Z" fill="white"/>
<path fill-rule="evenodd" clip-rule="evenodd" d="M338.262 950.919L339.387 928.046L343.379 928.243L342.254 951.116L338.262 950.919Z" fill="white"/>
<path fill-rule="evenodd" clip-rule="evenodd" d="M410.829 954.5L411.954 931.627L415.946 931.824L414.821 954.697L410.829 954.5Z" fill="white"/>
<path fill-rule="evenodd" clip-rule="evenodd" d="M446.65 954.11L447.775 931.237L451.767 931.434L450.642 954.307L446.65 954.11Z" fill="white"/>
<path d="M214.363 49.238L313.686 66.3427C314.41 66.4674 314.969 67.0471 315.069 67.7757L323.569 129.807C324.251 134.785 320.464 139.257 315.448 139.398L302.856 139.75C302.048 139.773 301.369 140.373 301.235 141.171C292.759 191.695 276.88 231.213 268.493 256.499C268.012 257.949 265.984 258.106 265.261 256.761C255.612 238.812 229.323 202.147 172.445 172.266C171.756 171.904 171.389 171.113 171.575 170.356L181.754 128.982C181.867 128.519 181.781 128.031 181.516 127.636L166.022 106.988C165.756 106.593 165.67 106.104 165.784 105.642L182.584 45.719C182.794 44.8659 183.622 44.316 184.488 44.4547L214.363 49.238Z" fill="#F1F1FC"/>
<path d="M322.077 81.284L220.925 63.9658C218.837 63.6084 216.807 64.8586 216.184 66.8865L207.91 93.7906C206.979 96.8188 203.173 97.7807 200.922 95.557L193.419 88.1453C185.935 81.9271 178.691 84.1753 174.382 88.2497C164.151 97.9234 173.776 109.588 172.847 108.04L172.577 107.64C172.706 107.819 172.794 107.951 172.847 108.04L184.174 124.817C185.045 126.108 185.135 127.774 184.409 129.152L178.516 140.326C177.379 142.483 174.641 143.236 172.84 141.596C164.025 133.566 159.302 118.781 156.689 111.597C145.082 79.6739 158.847 12.6135 228.79 7.25029C298.733 1.88705 327.869 70.371 327.888 75.8471C327.902 79.9511 324.706 81.1848 322.804 81.3306C322.561 81.3492 322.317 81.3251 322.077 81.284Z" fill="#0F43EC"/>
<path d="M292.963 103.058C292.438 105.195 290.282 106.502 288.148 105.977C286.015 105.452 284.711 103.295 285.237 101.158C285.763 99.0205 287.919 97.7136 290.052 98.2384C292.186 98.7633 293.489 100.921 292.963 103.058Z" fill="#0F0967"/>
<path d="M421.489 650.364C421.489 568.012 371.096 528.164 314.737 528.164L240.475 525.662H17.6808C8.08749 555.569 8.55003 578.793 17.6808 598.324C45.6536 658.157 132.205 643.723 240.475 643.723C299.295 643.723 296.171 682.243 291.53 712.793L263.081 866.668C262.293 870.931 264.846 875.07 269.056 876.08C281.803 879.137 309.609 884.803 340.596 884.803C370.293 884.803 390.897 882.852 400.592 881.68C404.34 881.227 407.188 878.213 407.591 874.453C417.749 779.663 421.923 697.38 421.489 650.364Z" fill="url(#paint0_linear_1259_4299)"/>
<path d="M272.194 270.818C256.561 228.201 200.685 188.481 166.472 169.133C160.015 165.482 151.952 166.881 146.969 172.388C18 270.818 13.4999 397.499 13.4999 517C13.4469 520.773 14.3608 525.025 18 526L248 529C252.496 530.205 256.293 525.503 257.5 521C257.5 496.2 254.242 471.892 257.5 449C266.775 383.826 280.768 296.034 272.194 270.818Z" fill="#120F8A"/>
<path d="M307.859 496.845L268.124 493.501L256.499 536.457C281.515 546.64 287.938 548.297 307.011 548.71C318.03 548.948 322.396 547.004 333.05 553.068L361.805 569.481C369.717 574.157 374.542 575.207 377.488 570.97C380.434 566.733 377.897 563.78 377.361 562.767L371.515 557.222L380.676 559.849C388.552 560.045 390.466 552.65 388.177 549.536C389.693 544.248 386.162 540.716 384.231 538.806C373.61 528.301 364.41 522.089 349.706 513.406L338.192 507.09C331.164 501.636 313.837 497.127 307.859 496.845Z" fill="#F1F1FC"/>
<path fill-rule="evenodd" clip-rule="evenodd" d="M335.554 517.705C335.937 516.669 337.086 516.139 338.121 516.521C352.909 521.982 362.618 527.212 370.206 532.415C375.84 536.278 380.312 540.137 384.74 543.959C386.236 545.25 387.727 546.537 389.255 547.818C390.102 548.527 390.213 549.788 389.504 550.635C388.795 551.482 387.535 551.594 386.689 550.885C385.074 549.532 383.532 548.201 382.007 546.885C377.623 543.102 373.382 539.441 367.946 535.715C360.67 530.726 351.264 525.638 336.736 520.274C335.701 519.891 335.172 518.741 335.554 517.705Z" fill="#060D34"/>
<path fill-rule="evenodd" clip-rule="evenodd" d="M332.363 532.513C332.828 531.511 334.016 531.076 335.017 531.54C344.842 536.1 351.628 539.978 358.198 544.488C358.227 544.508 358.255 544.528 358.282 544.549L373.453 556.167C374.33 556.838 374.496 558.093 373.825 558.971C373.154 559.848 371.9 560.015 371.024 559.344L355.894 547.758C349.548 543.405 342.969 539.64 333.335 535.169C332.334 534.704 331.899 533.515 332.363 532.513Z" fill="#060D34"/>
<path d="M196.382 398.708C194.23 378.129 197.475 349.059 199.547 304.537C202.365 277.181 201.329 250.866 153.113 242.954C114.54 236.625 99.5585 275.077 93.9668 290.143C63.9709 370.964 77.5112 426.844 87.3156 452.315C104.583 497.173 164.652 528.444 256.948 538.635C259.224 538.886 261.392 537.543 262.177 535.392L277.058 494.626C277.821 492.533 277.109 490.188 275.31 488.875C248.031 468.958 217.878 446.693 201.845 418.874C197.458 411.262 197.24 406.913 196.382 398.708Z" fill="url(#paint1_linear_1259_4299)"/>
<path d="M357.829 461.428C357.372 460.127 358.337 458.766 359.716 458.766H539.627C541.005 458.766 541.97 460.127 541.514 461.428L535.537 478.453C534.834 480.456 532.942 481.797 530.819 481.797H368.523C366.4 481.797 364.509 480.456 363.805 478.453L357.829 461.428Z" fill="#2D81FF"/>
<path d="M295.868 90.8441C296.582 90.1936 296.635 89.0868 295.984 88.3719C295.334 87.6571 294.227 87.605 293.512 88.2555L295.868 90.8441ZM274.402 88.9617C273.517 88.5743 272.485 88.9781 272.098 89.8636C271.71 90.749 272.114 91.7809 273 92.1682L274.402 88.9617ZM293.512 88.2555C291.564 90.0278 288.384 90.9242 284.717 90.9712C281.091 91.0178 277.292 90.2257 274.402 88.9617L273 92.1682C276.362 93.6392 280.657 94.5236 284.762 94.4709C288.827 94.4188 293.015 93.4401 295.868 90.8441L293.512 88.2555Z" fill="#0F0967"/>
<path fill-rule="evenodd" clip-rule="evenodd" d="M290.58 144.58C289.848 145.406 288.584 145.481 287.759 144.747C277.535 135.661 265.628 137.636 261.092 139.678C260.085 140.131 258.902 139.682 258.449 138.675C257.995 137.667 258.444 136.483 259.45 136.03C264.978 133.542 278.686 131.335 290.412 141.757C291.238 142.491 291.313 143.755 290.58 144.58Z" fill="#0F0967"/>
<ellipse cx="215.831" cy="318.536" rx="49.0541" ry="48.5586" transform="rotate(13.8111 215.831 318.536)" fill="#59F0E7" fill-opacity="0.3"/>
<ellipse cx="216.089" cy="318.6" rx="42.3649" ry="41.9369" transform="rotate(13.8111 216.089 318.6)" fill="#59F0E7" fill-opacity="0.4"/>
<ellipse cx="215.831" cy="318.535" rx="34.7838" ry="34.8739" transform="rotate(13.8111 215.831 318.535)" fill="#59F0E7"/>
<mask id="path-28-outside-1_1259_4299" maskUnits="userSpaceOnUse" x="187.598" y="286.52" width="56.3512" height="62.2102" fill="black">
<rect fill="white" x="187.598" y="286.52" width="56.3512" height="62.2102"/>
<path d="M226.598 315.571C226.962 317.987 226.529 318.973 226.484 319.66C226.47 319.865 226.611 320.111 226.817 320.115C226.875 320.116 226.929 320.089 226.985 320.07C227.288 319.971 227.618 319.694 227.93 319.358C228.515 318.728 229.562 318.894 229.667 319.746C230.142 323.574 229.171 327.568 227.091 330.616C226.001 332.042 222.927 335.523 217.207 336.447C215.454 336.846 210.863 336.902 206.524 333.926C202.185 330.953 200.554 326.846 200.122 324.304C199.945 323.307 199.738 321.138 200.798 318.116C201.291 316.542 203.916 312.739 204.238 312.289C205.569 310.397 206.37 308.409 206.767 307.11C206.934 306.562 207.433 306.351 207.843 306.751C208.086 306.988 208.347 307.263 208.576 307.531C208.96 308.001 209.275 308.421 209.542 308.829C210.011 309.544 211.167 309.606 211.624 308.884C212.935 306.814 214.424 305.055 216.078 303.656C218.076 301.912 220.456 300.714 222.85 300.125C223.655 299.927 224.306 300.849 224.057 301.641C223.661 302.894 223.313 304.634 223.328 306.71C223.329 306.78 223.337 306.85 223.353 306.917C223.617 308.003 224.172 309.064 224.634 310.102C224.859 310.475 224.96 310.923 225.185 311.296C226.264 313.785 226.423 314.412 226.598 315.571Z"/>
</mask>
<path d="M226.598 315.571C226.962 317.987 226.529 318.973 226.484 319.66C226.47 319.865 226.611 320.111 226.817 320.115C226.875 320.116 226.929 320.089 226.985 320.07C227.288 319.971 227.618 319.694 227.93 319.358C228.515 318.728 229.562 318.894 229.667 319.746C230.142 323.574 229.171 327.568 227.091 330.616C226.001 332.042 222.927 335.523 217.207 336.447C215.454 336.846 210.863 336.902 206.524 333.926C202.185 330.953 200.554 326.846 200.122 324.304C199.945 323.307 199.738 321.138 200.798 318.116C201.291 316.542 203.916 312.739 204.238 312.289C205.569 310.397 206.37 308.409 206.767 307.11C206.934 306.562 207.433 306.351 207.843 306.751C208.086 306.988 208.347 307.263 208.576 307.531C208.96 308.001 209.275 308.421 209.542 308.829C210.011 309.544 211.167 309.606 211.624 308.884C212.935 306.814 214.424 305.055 216.078 303.656C218.076 301.912 220.456 300.714 222.85 300.125C223.655 299.927 224.306 300.849 224.057 301.641C223.661 302.894 223.313 304.634 223.328 306.71C223.329 306.78 223.337 306.85 223.353 306.917C223.617 308.003 224.172 309.064 224.634 310.102C224.859 310.475 224.96 310.923 225.185 311.296C226.264 313.785 226.423 314.412 226.598 315.571Z" fill="#CA0D7B"/>
<path d="M226.484 319.66L233.468 320.124L233.468 320.124L226.484 319.66ZM226.598 315.571L219.676 316.616L219.676 316.616L226.598 315.571ZM225.185 311.296L231.609 308.514L231.422 308.082L231.178 307.679L225.185 311.296ZM224.634 310.102L218.239 312.948L218.416 313.346L218.641 313.719L224.634 310.102ZM223.353 306.917L216.551 308.568L216.551 308.568L223.353 306.917ZM222.85 300.125L221.177 293.328L221.177 293.328L222.85 300.125ZM216.078 303.656L220.599 309L220.641 308.965L220.682 308.929L216.078 303.656ZM211.624 308.884L217.538 312.63L217.538 312.63L211.624 308.884ZM209.542 308.829L203.688 312.667L203.688 312.667L209.542 308.829ZM208.576 307.531L213.997 303.102L213.946 303.039L213.893 302.977L208.576 307.531ZM207.843 306.751L202.955 311.762L202.955 311.762L207.843 306.751ZM204.238 312.289L209.932 316.36L209.948 316.338L209.963 316.317L204.238 312.289ZM200.798 318.116L207.404 320.432L207.443 320.32L207.479 320.206L200.798 318.116ZM200.122 324.304L207.023 323.132L207.019 323.105L207.014 323.077L200.122 324.304ZM206.524 333.926L210.483 328.154L210.48 328.152L206.524 333.926ZM217.207 336.447L216.091 329.536L215.869 329.572L215.65 329.622L217.207 336.447ZM227.091 330.616L232.653 334.866L232.767 334.717L232.872 334.562L227.091 330.616ZM229.667 319.746L236.614 318.885L236.614 318.885L229.667 319.746ZM206.767 307.11L200.072 305.066L200.072 305.066L206.767 307.11ZM224.057 301.641L217.381 299.535L217.381 299.535L224.057 301.641ZM223.328 306.71L230.328 306.66L230.328 306.659L223.328 306.71ZM227.93 319.358L222.801 314.594L222.801 314.594L227.93 319.358ZM226.985 320.07L224.802 313.419L224.802 313.419L226.985 320.07ZM226.817 320.115L226.672 327.113L226.672 327.113L226.817 320.115ZM233.468 320.124C233.447 320.441 233.39 320.703 233.459 320.325C233.504 320.076 233.591 319.601 233.654 319.014C233.788 317.77 233.79 316.317 233.519 314.527L219.676 316.616C219.771 317.242 219.738 317.489 219.735 317.514C219.73 317.561 219.723 317.612 219.685 317.817C219.671 317.896 219.634 318.093 219.604 318.287C219.571 318.492 219.525 318.814 219.499 319.196L233.468 320.124ZM233.519 314.527C233.216 312.515 232.798 311.259 231.609 308.514L218.762 314.078C219.289 315.295 219.48 315.807 219.565 316.07C219.603 316.19 219.618 316.232 219.676 316.616L233.519 314.527ZM231.178 307.679C231.319 307.912 231.402 308.092 231.431 308.158C231.454 308.21 231.465 308.241 231.416 308.116C231.384 308.036 231.291 307.799 231.179 307.547C231.06 307.28 230.88 306.904 230.627 306.484L218.641 313.719C218.5 313.486 218.418 313.306 218.388 313.239C218.365 313.187 218.354 313.157 218.404 313.282C218.436 313.362 218.528 313.598 218.641 313.851C218.759 314.118 218.939 314.494 219.192 314.913L231.178 307.679ZM231.029 307.255C230.889 306.939 230.74 306.62 230.631 306.384C230.512 306.125 230.422 305.928 230.344 305.748C230.182 305.373 230.152 305.251 230.156 305.266L216.551 308.568C217.012 310.47 218.044 312.509 218.239 312.948L231.029 307.255ZM221.177 293.328C217.723 294.178 214.332 295.887 211.474 298.383L220.682 308.929C221.819 307.936 223.189 307.251 224.522 306.922L221.177 293.328ZM211.557 298.312C209.278 300.24 207.34 302.566 205.71 305.139L217.538 312.63C218.531 311.062 219.569 309.871 220.599 309L211.557 298.312ZM215.396 304.991C214.958 304.323 214.487 303.702 213.997 303.102L203.155 311.96C203.434 312.3 203.591 312.519 203.688 312.667L215.396 304.991ZM213.893 302.977C213.513 302.534 213.107 302.107 212.731 301.739L202.955 311.762C203.066 311.869 203.181 311.992 203.26 312.084L213.893 302.977ZM198.543 308.218C198.308 308.547 197.494 309.724 196.659 311.051C196.012 312.077 194.686 314.208 194.118 316.025L207.479 320.206C207.411 320.425 207.364 320.506 207.415 320.399C207.453 320.316 207.525 320.173 207.637 319.968C207.864 319.554 208.167 319.049 208.505 318.512C208.837 317.984 209.171 317.478 209.441 317.076C209.576 316.876 209.692 316.707 209.78 316.578C209.825 316.514 209.861 316.461 209.889 316.422C209.902 316.402 209.913 316.387 209.921 316.375C209.93 316.364 209.933 316.359 209.932 316.36L198.543 308.218ZM194.193 315.799C192.66 320.17 192.885 323.59 193.231 325.531L207.014 323.077C207.004 323.024 206.817 322.106 207.404 320.432L194.193 315.799ZM193.221 325.475C193.899 329.471 196.346 335.439 202.568 339.701L210.48 328.152C208.023 326.468 207.208 324.22 207.023 323.132L193.221 325.475ZM218.323 343.357C226.554 342.028 231.04 336.976 232.653 334.866L221.529 326.365C220.961 327.109 219.3 329.018 216.091 329.536L218.323 343.357ZM232.872 334.562C235.933 330.078 237.294 324.369 236.614 318.885L222.72 320.608C222.99 322.78 222.409 325.058 221.309 326.669L232.872 334.562ZM215.65 329.622C215.759 329.597 215.088 329.725 213.95 329.542C212.9 329.372 211.675 328.971 210.483 328.154L202.565 339.699C208.746 343.939 215.398 344.039 218.763 343.271L215.65 329.622ZM200.072 305.066C199.833 305.847 199.316 307.119 198.512 308.261L209.963 316.317C211.821 313.676 212.906 310.972 213.461 309.154L200.072 305.066ZM217.381 299.535C216.788 301.415 216.307 303.883 216.328 306.761L230.328 306.659C230.319 305.385 230.535 304.372 230.732 303.747L217.381 299.535ZM222.801 314.594C222.81 314.584 222.931 314.452 223.163 314.273C223.356 314.123 223.915 313.711 224.802 313.419L229.168 326.721C231.278 326.029 232.634 324.579 233.06 324.121L222.801 314.594ZM205.71 305.139C207.068 302.995 209.275 302.343 210.843 302.4C212.375 302.456 214.215 303.19 215.396 304.991L203.688 312.667C205.338 315.183 207.99 316.305 210.332 316.391C212.71 316.478 215.723 315.496 217.538 312.63L205.71 305.139ZM224.522 306.922C221.643 307.631 219.348 306.155 218.281 304.755C217.28 303.442 216.751 301.531 217.381 299.535L230.732 303.747C231.611 300.96 230.881 298.192 229.416 296.269C227.885 294.26 224.861 292.421 221.177 293.328L224.522 306.922ZM226.961 313.116C229.818 313.175 231.594 314.899 232.367 316.043C233.137 317.182 233.57 318.601 233.468 320.124L219.499 319.196C219.384 320.925 219.88 322.569 220.769 323.883C221.66 325.202 223.609 327.05 226.672 327.113L226.961 313.116ZM230.156 305.266C230.276 305.762 230.325 306.232 230.328 306.66L216.328 306.761C216.332 307.327 216.397 307.937 216.551 308.568L230.156 305.266ZM226.672 327.113C227.821 327.137 228.699 326.875 229.055 326.761C229.152 326.729 229.232 326.701 229.283 326.683C229.332 326.665 229.373 326.65 229.377 326.649C229.419 326.633 229.304 326.677 229.168 326.721L224.802 313.419C224.71 313.45 224.636 313.476 224.589 313.493C224.565 313.501 224.546 313.509 224.533 313.513C224.522 313.517 224.51 313.522 224.51 313.522C224.479 313.533 224.6 313.487 224.749 313.439C225.049 313.342 225.871 313.094 226.961 313.116L226.672 327.113ZM212.731 301.739C210.943 299.996 207.969 298.857 204.831 299.993C202.036 301.005 200.615 303.285 200.072 305.066L213.461 309.154C213.085 310.387 211.997 312.288 209.596 313.157C206.853 314.15 204.333 313.106 202.955 311.762L212.731 301.739ZM236.614 318.885C236.158 315.208 233.392 312.737 230.344 312.131C227.572 311.579 224.718 312.53 222.801 314.594L233.06 324.121C231.727 325.556 229.689 326.275 227.612 325.862C225.26 325.394 223.071 323.432 222.72 320.608L236.614 318.885Z" fill="#FF7EC9" mask="url(#path-28-outside-1_1259_4299)"/>
<path d="M217.042 331.604C215.654 332.447 213.967 332.793 212.297 332.382C207.764 331.268 205.161 325.048 209.639 321.584C211.481 319.923 213.506 319.575 214.731 317.678C215.245 316.959 215.579 315.942 215.656 315.285C215.636 315.026 215.772 314.129 215.791 314.05C215.811 313.97 215.811 313.97 215.891 313.989L215.99 313.929C216.069 313.949 216.069 313.949 216.149 313.968C216.269 314.167 216.388 314.365 216.508 314.564C216.748 314.961 217.048 315.458 217.287 315.855C217.886 316.847 218.269 318.379 218.056 319.933C217.744 321.885 216.875 323.362 215.189 324.047C215.766 324.443 216.402 324.599 217.177 324.536C218.388 324.411 219.181 323.929 219.635 323.111C219.635 323.111 219.655 323.031 219.735 323.051L219.814 323.07C220.391 323.466 220.872 324.599 220.403 326.851C219.832 328.486 219.123 330.341 217.042 331.604Z" fill="#FFADDD"/>
<defs>
<linearGradient id="paint0_linear_1259_4299" x1="216.089" y1="525.662" x2="216.089" y2="884.803" gradientUnits="userSpaceOnUse">
<stop stop-color="#0B2BED"/>
<stop offset="1" stop-color="#0F0967"/>
</linearGradient>
<linearGradient id="paint1_linear_1259_4299" x1="202.803" y1="297.332" x2="294.718" y2="492.778" gradientUnits="userSpaceOnUse">
<stop stop-color="#110F89"/>
<stop offset="0.335202" stop-color="#0D1998"/>
<stop offset="1" stop-color="#0239C6"/>
</linearGradient>
</defs>
</svg>
