<svg width="412" height="1116" fill="none" xmlns="http://www.w3.org/2000/svg"><path fill-rule="evenodd" clip-rule="evenodd" d="M205.058 504.064c-60.017-.071-90.978-10.53-103.227-14.667-2.572-.869-4.32-1.46-5.337-1.616-4.703-.724-7.559 3.92-8.398 6.332-3.495 17.408-4.423 42.675-6.406 96.668-1.067 29.062-2.44 66.447-4.683 115.409-5.892 128.568-13.522 298.74-14.722 325.51-.099 2.21 1.275 4.12 3.384 4.79 48.909 15.66 102.824 8.07 125.71 1.46 2.046-.59 3.396-2.42 3.426-4.55.239-17.32 1.265-95.526 1.265-164.508 0-77.924 2.036-200.114 2.045-200.653v-.027c.003-11.94 2.036-17.85 4.164-24.036.775-2.253 4.782-2.253 5.557 0 2.129 6.186 4.162 12.096 4.165 24.036v.027c.009.539 2.044 122.729 2.044 200.653 0 68.982 1.026 147.188 1.265 164.508.03 2.13 1.38 3.96 3.427 4.55 22.885 6.61 76.8 14.2 125.709-1.46 2.11-.67 3.483-2.58 3.384-4.79-1.2-26.77-8.83-196.942-14.721-325.51-2.244-48.962-3.617-86.347-4.684-115.409-1.983-53.993-2.911-79.26-6.405-96.668-.84-2.412-3.695-7.056-8.399-6.332-1.017.156-2.764.747-5.337 1.616-12.248 4.137-43.21 14.596-103.226 14.667z" fill="url(#prefix__paint0_linear_328:53)"/><path d="M302.211 529.543c.93 15.805 5.581 37.189 24.185 39.978" stroke="#fff" stroke-width="3" stroke-linecap="round"/><path d="M333.058 323.532c-1.331-111.8-44.992-130.196-69.824-133.609-49.283-8.819-90.073-3.674-104.308 0-61.356 17.879-68.71 51.601-73.804 127.542-3.35 49.932-10.051 142.363-2.71 184.761 2.208 12.752 11.961 15.94 16.562 15.94 80.05 13.662 166.58 8.651 215.838 1.262 12.445-1.866 16.299-8.711 17.231-17.202 4.308-39.262.536-141.829 1.015-178.694z" fill="#120F8A"/><path d="M370.084 600.182c6.28-12.349 11.306-31.255 9.512-58.589l-44.138-4.002s-3.101 16.408-3.953 25.861c-.851 9.453-3.667 27.543 4.791 28.6-.926 26.231-6.344 30.603-3.87 35.013 1.979 3.529 8.348 2.95 11.284 2.22 13.272-.711 20.031-17.118 26.374-29.103z" fill="#E9F0FD"/><path d="M308.871 186.819l-49.189-19.932c-5.463 47.95 48.512 67.715 59.559 124.748 9.699 52.606 10.559 222.759 12.096 243.403 0 5.101-1.301 10.796 2.365 11.033l44.36-1.237c6.795-.472 8.101-6.272 7.905-9.112 13.485-83.616 21.862-199.091-7.802-270.123-14.231-41.35-35.24-60.746-69.294-78.78z" fill="url(#prefix__paint1_linear_328:53)"/><path d="M48.74 600.182c-6.28-12.349-11.307-31.255-9.513-58.589l44.138-4.002s3.102 16.408 3.953 25.861 3.667 27.543-4.791 28.6c.927 26.231 6.345 30.603 3.87 35.013-1.979 3.529-8.347 2.95-11.284 2.22-13.272-.711-20.03-17.118-26.374-29.103z" fill="#E9F0FD"/><path d="M116.898 185.131l53.452-19.775c6.223 48.288-52.441 67.868-64.145 125.2-10.26 52.886-10.222 224.12-11.778 244.887.03 5.134 1.478 10.873-2.512 11.091L43.6 545.032c-7.401-.514-8.858-6.358-8.66-9.215-15.163-84.228-24.948-200.488 6.949-271.803 15.26-41.531 38.028-60.93 75.009-78.883z" fill="url(#prefix__paint2_linear_328:53)"/><path d="M81.344 592.969c-1.956.257-6.509-1.077-9.074-8.469-2.094-7.434-3.113-18.733-8.08-25.495M337.48 592.969c1.955.257 6.508-1.077 9.073-8.469 2.094-7.434 3.114-18.733 8.08-25.495" stroke="#0F0967" stroke-width="3" stroke-linecap="round"/><ellipse rx="45.629" ry="45.146" transform="rotate(-1.361 12910.064 -9070.45) skewX(.001)" fill="#59F0E7" fill-opacity=".3"/><ellipse rx="39.407" ry="38.99" transform="rotate(-1.361 12909.934 -9080.819) skewX(.001)" fill="#59F0E7" fill-opacity=".4"/><ellipse rx="32.355" ry="32.423" transform="rotate(-1.361 12910.063 -9070.408) skewX(.001)" fill="#59F0E7"/><mask id="prefix__a" maskUnits="userSpaceOnUse" x="196.515" y="277.34" width="44.175" height="51.006" fill="#000"><path fill="#fff" d="M196.515 277.34h44.175v51.006h-44.175z"/><path d="M227.811 298.497c.915 2.079.766 3.069.893 3.696.037.188.223.374.409.328.053-.014.095-.051.141-.081.217-.144.42-.415.601-.735.422-.748 1.468-.865 1.785-.066 1.303 3.286 1.385 7.043.276 10.237-.632 1.546-2.544 5.417-7.454 7.638-1.477.785-5.585 1.952-10.205.337-4.619-1.612-7.083-4.901-8.09-7.076-.401-.852-1.115-2.748-.899-5.718.059-1.531 1.49-5.582 1.669-6.065a17.559 17.559 0 001.007-5.189c.021-.572.448-.904.946-.622.258.146.534.316.784.486.409.292.758.562 1.069.83.648.558 1.785.313 2.042-.502.669-2.118 1.562-4.009 2.681-5.63a15.171 15.171 0 015.096-4.747c.721-.409 1.595.31 1.571 1.139a15.506 15.506 0 00.583 4.577.951.951 0 00.078.193c.501.908 1.256 1.722 1.922 2.539.293.28.493.658.786.938 1.574 1.971 1.869 2.495 2.309 3.493z"/></mask><path d="M227.811 298.497c.915 2.079.766 3.069.893 3.696.037.188.223.374.409.328.053-.014.095-.051.141-.081.217-.144.42-.415.601-.735.422-.748 1.468-.865 1.785-.066 1.303 3.286 1.385 7.043.276 10.237-.632 1.546-2.544 5.417-7.454 7.638-1.477.785-5.585 1.952-10.205.337-4.619-1.612-7.083-4.901-8.09-7.076-.401-.852-1.115-2.748-.899-5.718.059-1.531 1.49-5.582 1.669-6.065a17.559 17.559 0 001.007-5.189c.021-.572.448-.904.946-.622.258.146.534.316.784.486.409.292.758.562 1.069.83.648.558 1.785.313 2.042-.502.669-2.118 1.562-4.009 2.681-5.63a15.171 15.171 0 015.096-4.747c.721-.409 1.595.31 1.571 1.139a15.506 15.506 0 00.583 4.577.951.951 0 00.078.193c.501.908 1.256 1.722 1.922 2.539.293.28.493.658.786.938 1.574 1.971 1.869 2.495 2.309 3.493z" fill="#CA0D7B"/><path d="M228.704 302.193l6.862-1.38-6.862 1.38zm-.893-3.696l6.406-2.821-6.406 2.821zm-2.309-3.493l5.47-4.367-.294-.368-.34-.326-4.836 5.061zm-.786-.938l-5.426 4.422.275.338.315.301 4.836-5.061zm-1.922-2.539l-6.128 3.383 6.128-3.383zm-2.232-5.909l3.452 6.089-3.452-6.089zm-5.096 4.747l5.761 3.976.031-.045.03-.046-5.822-3.885zm-2.681 5.63l6.676 2.106-6.676-2.106zm-2.042.502l-4.568 5.304 4.568-5.304zm-1.069-.83l4.072-5.694-.066-.048-.068-.045-3.938 5.787zm-.784-.486l-3.445 6.093 3.445-6.093zm-1.953 5.811l6.561 2.44.01-.025.009-.025-6.58-2.39zm-1.669 6.065l6.982.508.008-.119.005-.119-6.995-.27zm.899 5.718l6.354-2.938-.012-.026-.012-.025-6.33 2.989zm8.09 7.076l2.31-6.608-.004-.001-2.306 6.609zm10.205-.337l-2.885-6.378-.204.092-.199.105 3.288 6.181zm7.454-7.638l6.48 2.648.07-.173.062-.177-6.612-2.298zm-.276-10.237l6.507-2.581-6.507 2.581zm-23.696-5.836l6.996.258-6.996-.258zm14.189-9.046l6.997.208-6.997-.208zm.583 4.577l6.743-1.879-6.743 1.879zm7.139 10.371l-6.095-3.442 6.095 3.442zm-.601.735l3.846 5.848-3.846-5.848zm-.141.081l-1.691-6.793 1.691 6.793zm6.453-1.708c.065.324.08.605.048.238-.02-.236-.059-.699-.148-1.26-.189-1.191-.554-2.537-1.249-4.115l-12.813 5.641c.117.267.175.439.202.53.025.086.032.127.034.14.004.025.008.057.025.248.006.072.021.264.042.453.021.199.06.516.134.886l13.725-2.761zm-1.349-5.137c-.787-1.787-1.497-2.85-3.245-5.039l-10.94 8.735c.767.961 1.051 1.358 1.176 1.552a.951.951 0 01.062.103c.015.028.047.092.134.29l12.813-5.641zm-3.879-5.733c.202.194.334.352.385.414.041.05.064.083-.012-.019-.047-.062-.194-.26-.363-.468a9.363 9.363 0 00-.796-.864l-9.672 10.121a4.684 4.684 0 01-.385-.413c-.041-.05-.064-.083.012.018.047.063.193.26.363.469.18.22.447.531.796.864l9.672-10.122zm-.196-.299c-.205-.252-.418-.504-.572-.688-.17-.203-.295-.354-.405-.491-.229-.288-.267-.366-.242-.32l-12.257 6.765c.904 1.637 2.371 3.268 2.624 3.578l10.852-8.844zm-13.033-10.115a22.195 22.195 0 00-7.466 6.95l11.645 7.771a8.203 8.203 0 012.726-2.543l-6.905-12.178zm-7.405 6.86c-1.573 2.279-2.749 4.821-3.594 7.499l13.351 4.213c.491-1.558 1.101-2.798 1.766-3.76l-11.523-7.952zm5.607 4.804a21.898 21.898 0 00-1.565-1.22l-8.143 11.388c.287.205.461.344.572.44l9.136-10.608zm-1.699-1.313c-.428-.292-.87-.563-1.277-.792l-6.89 12.186c.11.063.219.131.291.18l7.876-11.574zm-13.236 8.672a64.126 64.126 0 00-1.011 3.028c-.326 1.064-1.021 3.363-1.092 5.207l13.99.54c-.009.243-.035.352-.018.255.012-.071.039-.206.089-.411.099-.412.245-.929.416-1.489a52.521 52.521 0 01.668-2.025l.058-.164.022-.061-13.122-4.88zm-2.089 7.998c-.32 4.396.739 7.495 1.551 9.214l12.659-5.978c-.014-.032-.094-.201-.163-.526-.069-.328-.143-.885-.084-1.695l-13.963-1.015zm1.527 9.162c1.625 3.516 5.365 8.385 12.137 10.749l4.612-13.219c-2.466-.86-3.655-2.569-4.042-3.405l-12.707 5.875zm27.532 10.18a21.328 21.328 0 0011.05-11.368l-12.96-5.295c-.306.748-1.266 2.734-3.859 3.907l5.769 12.756zm11.182-11.718c1.673-4.818 1.527-10.306-.381-15.116l-13.014 5.161c.699 1.762.716 3.788.17 5.36l13.225 4.595zm-17.354-.841c.154-.081-.355.181-1.368.288a7.44 7.44 0 01-3.239-.378l-4.619 13.216c6.728 2.352 12.864.797 15.801-.765l-6.575-12.361zm-20.225-17.788a10.605 10.605 0 01-.591 3.057l13.159 4.78a24.618 24.618 0 001.423-7.321l-13.991-.516zm14.187-8.996c-.055 1.838.133 4.135.837 6.663l13.486-3.757a8.522 8.522 0 01-.329-2.49l-13.994-.416zm8.624 11.714c.034-.06.143-.248.343-.498a5.62 5.62 0 011.304-1.174l7.693 11.697c1.666-1.095 2.541-2.593 2.85-3.141l-12.19-6.884zm-17.65-4.375a5.836 5.836 0 014.2-3.942 5.67 5.67 0 015.001 1.247l-9.136 10.608c2.261 1.947 5.089 2.302 7.336 1.774 2.281-.536 4.93-2.243 5.95-5.474l-13.351-4.213zm17.904-2.181c-2.604 1.477-5.227.649-6.622-.41a5.725 5.725 0 01-2.256-4.748l13.994.416c.086-2.903-1.352-5.359-3.268-6.816-2.006-1.524-5.427-2.506-8.753-.62l6.905 12.178zm3.408 4.021c2.778-.692 4.95.508 6.001 1.415a6.535 6.535 0 012.143 3.67l-13.725 2.761a7.468 7.468 0 002.441 4.173c1.201 1.034 3.558 2.304 6.522 1.566l-3.382-13.585zm1.501-7.583c.25.453.421.897.536 1.31l-13.486 3.757c.152.547.376 1.123.693 1.698l12.257-6.765zm1.881 21.168a7.226 7.226 0 002.202-.961c.085-.055.154-.103.199-.134l.08-.056c.036-.026-.065.047-.185.126l-7.693-11.697a9.646 9.646 0 00-.233.159l-.019.014c-.026.019.079-.058.211-.144a6.778 6.778 0 012.056-.892l3.382 13.585zm-18.469-20.225c-2.166-1.225-5.339-1.577-8.092.336-2.447 1.7-3.226 4.274-3.294 6.121l13.991.516a6.231 6.231 0 01-2.707 4.859c-2.409 1.675-5.12 1.298-6.788.354l6.89-12.186zm25.812 9.97c-1.375-3.468-4.702-5.153-7.813-4.951-2.79.181-5.24 1.793-6.574 4.156l12.19 6.884a5.817 5.817 0 01-4.71 2.93c-2.403.156-5.048-1.189-6.107-3.858l13.014-5.161z" fill="#FF7EC9" mask="url(#prefix__a)"/><path d="M223.134 315.208c-1.041 1.094-2.471 1.815-4.071 1.853-4.34.103-8.191-4.845-5.015-9.043 1.25-1.939 2.983-2.743 3.621-4.744.287-.77.339-1.764.249-2.373-.082-.227-.178-1.064-.18-1.141-.002-.076-.002-.076.074-.078l.075-.078.152-.003.468.447 1.013.968c.78.745 1.496 2.026 1.683 3.472.196 1.828-.225 3.365-1.572 4.39.615.214 1.224.2 1.904-.045 1.057-.407 1.651-1.032 1.86-1.877 0 0-.002-.076.074-.078l.076-.002c.615.215 1.322 1.114 1.449 3.249-.114 1.606-.299 3.443-1.86 5.083z" fill="#FFADDD"/><path d="M183.227 55.495l55.588 7.266 60.502 7.908c-3.72 28.432-12.099 66.785-17.788 93.203-5.69 26.418-8.112 34.56-13.76 53.109-10.066 33.057-37.247 34.662-53.818 32.261-35.019-4.812-41.997-30.337-43.036-45.709-.186-12.917-.396-41.777 1.306-63.916 2.822-36.713 7.129-66.65 11.006-84.122z" fill="#E9F0FF"/><path d="M231.66 168.221c-4.012-.258-7.789-1.288-11.066-2.625-3.903-1.592-8.667 1.218-6.461 4.809 3.343 5.44 9.096 7.682 12.526 8.131 3.654.79 7.018-.154 9.935-1.93 4.16-2.531-.075-8.073-4.934-8.385z" fill="#D7DDE9"/><path d="M213.571 148.582c6.63-4.015 22.189-8.816 31.384 4.102" stroke="#0F0967" stroke-width="3" stroke-linecap="round" stroke-linejoin="round"/><path d="M280.966 71.322c-39.164 3.71-71.915-8.187-80.936-11.25-9.021-3.062-10.973-6.319-14.959 6.35-3.986 12.667-12.258 67.036-12.258 67.036-1.446 11.055-10.081-13.407-9.625-16.901l-.541-25.596c4.265-32.603 8.92-51.347 32.897-68.61 29.45-21.205 78.31-11.385 101.693 16.43 14.25 16.951 10.403 51.926 8.319 65.997-2.084 14.071-7.018 29.471-7.018 29.471-4.017 12.116-16.202 24.38-13.709 14.617 2.494-9.763 7.755-56.48 7.696-67.184l-.001-.28c-.057-10.437-.061-11.17-11.558-10.08z" fill="#0F43EC"/><path d="M168.307 97.317l10.302 3.174 4.528 30.764-12.032-5.783c-10.097-4.363-12.139-12.855-11.763-18.737.46-7.192 4.36-10.144 8.965-9.418zM298.193 114.295l-10.772.418-12.291 28.566 13.115-2.496c10.881-1.621 15.038-9.303 16.188-15.084 1.406-7.068-1.603-10.922-6.24-11.404z" fill="#E9F0FF"/><path d="M221.907 83.02a1.749 1.749 0 10-2.928-1.917l2.928 1.917zm-19.212 2.912a1.75 1.75 0 00-.556 3.455l.556-3.455zm16.284-4.829c-1.261 1.926-3.777 3.403-6.936 4.262-3.12.85-6.576 1.013-9.348.567l-.556 3.455c3.281.528 7.24.33 10.822-.645 3.543-.964 7.015-2.772 8.946-5.722l-2.928-1.917zM254.424 86.563a1.75 1.75 0 113.392-.864l-3.392.864zm17.23 8.98a1.75 1.75 0 11-.594 3.449l.594-3.45zm-13.838-9.844c.568 2.23 2.469 4.442 5.179 6.28 2.676 1.813 5.893 3.087 8.659 3.564l-.594 3.449c-3.274-.564-6.956-2.034-10.029-4.117-3.038-2.06-5.736-4.895-6.607-8.312l3.392-.864z" fill="#0F0967"/><ellipse rx="4.151" ry="4.149" transform="rotate(7.446 -657.426 1677.577) skewX(-.007)" fill="#0F0967"/><ellipse rx="4.151" ry="4.149" transform="rotate(7.446 -680.403 2030.632) skewX(-.007)" fill="#0F0967"/><path d="M240.64 93.106l-.343 35.481a3 3 0 01-3.389 2.946l-13.622-1.78" stroke="#0F0967" stroke-width="3" stroke-linecap="round"/><path d="M190.695 1048.1c2.009 8.68 1.204 21.07 1.204 21.07l-.022 18.14c-.002 1.03-.403 2.02-1.193 2.69-2.351 1.98-8.33 6.42-19.236 10.85-14.669 5.95-27.734 10.31-46.3 11.68-19.254.92-31.402.92-45.154-.69-19.636-3.3-26.12-3.02-25.651-9.28l.227-20.33c.48-16.33 11.225-28.37 27.552-33.6 14.85-4.19 35.214-7.3 56.971 10.31" stroke="#fff" stroke-width="3" stroke-linecap="round"/><path d="M55.144 1086.97c19.578 9.53 102.379 12.07 136.756-17.81M93.022 1093.26l-.443 19.5M114.122 1093.96l-.088 18.36M134.963 1090.26l.039 22.02M151.445 1088.15l-.448 21M164.483 1083.84l-.236 19.99M175.738 1079.57l-.082 19.99M184.766 1074.67l.226 19.99M73.065 1091.91l-.489 18.39" stroke="#fff" stroke-width="3"/><path d="M228.44 1048.1c-2.009 8.68-1.205 21.07-1.205 21.07l.023 18.14c.001 1.03.403 2.02 1.193 2.69 2.351 1.98 8.33 6.42 19.235 10.85 14.67 5.95 27.735 10.31 46.301 11.68 19.253.92 31.401.92 45.154-.69 19.635-3.3 26.12-3.02 25.651-9.28l-.228-20.33c-.48-16.33-11.224-28.37-27.551-33.6-14.85-4.19-35.214-7.3-56.972 10.31" stroke="#fff" stroke-width="3" stroke-linecap="round"/><path d="M363.991 1086.97c-19.578 9.53-102.379 12.07-136.757-17.81M326.112 1093.26l.444 19.5M305.013 1093.96l.087 18.36M284.171 1090.26l-.038 22.02M267.69 1088.15l.448 21M254.652 1083.84l.235 19.99M243.396 1079.57l.083 19.99M234.368 1074.67l-.225 19.99M346.07 1091.91l.488 18.39" stroke="#fff" stroke-width="3"/><path d="M112.701 527.525c-.917 15.576-5.501 36.65-23.838 39.398" stroke="#fff" stroke-width="3" stroke-linecap="round"/><defs><linearGradient id="prefix__paint0_linear_328:53" x1="171.01" y1="487.705" x2="171.01" y2="1045.59" gradientUnits="userSpaceOnUse"><stop stop-color="#0B2CED"/><stop offset="1" stop-color="#0F0B6C"/></linearGradient><linearGradient id="prefix__paint1_linear_328:53" x1="329.841" y1="328.479" x2="343.796" y2="592.721" gradientUnits="userSpaceOnUse"><stop stop-color="#120F8A"/><stop offset="1" stop-color="#0339C6"/></linearGradient><linearGradient id="prefix__paint2_linear_328:53" x1="94.873" y1="327.575" x2="80.497" y2="593.385" gradientUnits="userSpaceOnUse"><stop stop-color="#120F8A"/><stop offset="1" stop-color="#0339C6"/></linearGradient></defs></svg>