<svg width="409" height="1136" viewBox="0 0 409 1136" fill="none" xmlns="http://www.w3.org/2000/svg">
<path fill-rule="evenodd" clip-rule="evenodd" d="M211.171 528.017C151.011 527.946 119.975 517.462 107.697 513.315C105.118 512.444 103.367 511.852 102.347 511.695C97.6325 510.97 94.7702 515.624 93.9284 518.043C90.4258 535.491 89.4956 560.818 87.5078 614.937C86.4379 644.068 85.0616 681.541 82.8127 730.618C76.9069 859.503 69.2571 1030.1 68.0558 1056.9C67.9567 1059.12 69.3301 1061.02 71.4396 1061.69C120.474 1077.39 174.53 1069.78 197.467 1063.16C199.514 1062.57 200.864 1060.73 200.893 1058.6C201.133 1041.26 202.162 962.858 202.162 893.703C202.162 815.595 204.202 693.117 204.211 692.577C204.211 692.561 204.211 692.567 204.211 692.55C204.214 680.583 206.252 674.659 208.386 668.458C209.162 666.2 213.179 666.2 213.956 668.458C216.09 674.659 218.128 680.583 218.131 692.55C218.131 692.567 218.13 692.561 218.131 692.577C218.14 693.117 220.18 815.595 220.18 893.703C220.18 962.858 221.209 1041.26 221.448 1058.6C221.478 1060.73 222.828 1062.57 224.875 1063.16C247.811 1069.78 301.868 1077.39 350.902 1061.69C353.012 1061.02 354.385 1059.12 354.286 1056.9C353.085 1030.1 345.435 859.503 339.529 730.618C337.28 681.541 335.904 644.068 334.834 614.937C332.846 560.818 331.916 535.491 328.413 518.043C327.572 515.624 324.709 510.97 319.995 511.695C318.975 511.852 317.224 512.444 314.645 513.315C302.367 517.462 271.331 527.946 211.171 528.017Z" fill="url(#paint0_linear)"/>
<path d="M308.558 553.555C309.49 569.397 314.152 590.831 332.801 593.627" stroke="white" stroke-width="3" stroke-linecap="round"/>
<path d="M369.828 622.059C376.018 609.934 380.972 591.372 379.204 564.533L335.697 560.604C335.697 560.604 332.64 576.714 331.801 585.995C330.962 595.277 328.186 613.038 336.523 614.077C335.61 639.831 330.269 644.123 332.708 648.454C334.659 651.918 340.936 651.35 343.831 650.633C356.913 649.935 363.575 633.826 369.828 622.059Z" fill="#E9F0FD"/>
<path d="M309.49 216.203L261.004 196.633C255.62 243.713 308.823 263.119 319.712 319.116C329.272 370.766 330.12 537.829 331.635 558.098C331.635 563.107 330.353 568.699 333.966 568.932L377.692 567.716C384.389 567.253 385.677 561.559 385.484 558.77C398.775 476.673 407.033 363.295 377.793 293.552C363.766 252.954 343.057 233.909 309.49 216.203Z" fill="url(#paint1_linear)"/>
<path d="M333.56 347.062C332.226 234.999 288.461 216.559 263.569 213.139C214.168 204.299 173.28 209.456 159.011 213.139C97.5073 231.06 90.1366 264.861 85.0297 340.981C81.6718 391.03 74.9545 483.678 82.3131 526.176C84.5266 538.958 94.3032 542.153 98.9148 542.153C179.158 555.847 265.895 550.825 315.271 543.419C327.745 541.548 331.609 534.687 332.543 526.176C336.861 486.821 333.081 384.014 333.56 347.062Z" fill="#120F8A"/>
<ellipse rx="20.032" ry="19.8198" transform="matrix(0.999718 -0.0237283 0.0237518 0.999718 206.575 316.476)" fill="#59F0E7" fill-opacity="0.3"/>
<ellipse rx="17.3003" ry="17.1171" transform="matrix(0.999718 -0.0237283 0.0237518 0.999718 206.682 316.473)" fill="#59F0E7" fill-opacity="0.4"/>
<ellipse rx="14.2045" ry="14.2342" transform="matrix(0.999718 -0.0237283 0.0237518 0.999718 206.576 316.477)" fill="#59F0E7"/>
<path d="M213.229 320.412L213.239 320.387L213.248 320.362C213.773 318.851 213.773 317.119 213.253 315.558C213.15 315.249 212.954 314.962 212.646 314.769C212.348 314.582 212.03 314.537 211.767 314.553C211.746 314.555 211.726 314.556 211.706 314.558C211.641 314.323 211.549 314.058 211.416 313.757C211.174 313.206 210.985 312.899 210.269 312.002L210.227 311.95L210.18 311.905C210.18 311.905 210.167 311.89 210.115 311.821C210.112 311.817 210.109 311.813 210.106 311.809C210.064 311.753 209.986 311.649 209.886 311.544C209.811 311.452 209.741 311.369 209.677 311.293C209.478 311.056 209.329 310.877 209.208 310.676C209.145 310.437 209.099 310.209 209.068 309.995C208.962 309.28 208.52 308.655 207.964 308.299C207.389 307.93 206.498 307.759 205.745 308.381C205.184 308.844 204.675 309.398 204.254 310.028C203.827 310.648 203.472 311.338 203.187 312.083C203.183 312.084 203.179 312.085 203.175 312.086C203.162 312.09 203.148 312.092 203.135 312.093C203.121 312.093 203.111 312.093 203.103 312.092C203.103 312.092 203.103 312.092 203.103 312.092L203.101 312.091C202.642 311.778 202.021 311.686 201.48 312.03C201 312.334 200.798 312.848 200.757 313.287C200.713 313.747 200.61 314.329 200.399 314.911C200.35 315.041 200.169 315.552 199.995 316.121C199.836 316.64 199.63 317.37 199.606 317.86C199.5 319.356 199.859 320.354 200.093 320.851C200.624 321.998 201.888 323.665 204.221 324.479C206.523 325.283 208.595 324.738 209.47 324.285C211.937 323.159 212.906 321.201 213.229 320.412ZM211.021 315.718L210.881 315.506L210.881 315.506L211.021 315.718ZM210.859 315.472L210.881 315.506L210.881 315.506L210.859 315.472Z" fill="#CA0D7B" stroke="#FF7EC9" stroke-width="2"/>
<path d="M208.449 321.497C207.992 321.977 207.364 322.293 206.662 322.31C204.756 322.355 203.066 320.183 204.46 318.34C205.008 317.489 205.769 317.136 206.05 316.257C206.175 315.919 206.198 315.483 206.159 315.216C206.123 315.116 206.081 314.748 206.08 314.715C206.079 314.681 206.079 314.681 206.113 314.68L206.145 314.646C206.179 314.645 206.179 314.645 206.212 314.645C206.28 314.71 206.349 314.775 206.417 314.841C206.554 314.972 206.725 315.135 206.862 315.266C207.205 315.593 207.519 316.155 207.601 316.79C207.687 317.593 207.502 318.268 206.911 318.717C207.181 318.812 207.448 318.805 207.747 318.698C208.211 318.519 208.472 318.245 208.563 317.874C208.563 317.874 208.563 317.84 208.596 317.839L208.629 317.839C208.899 317.933 209.21 318.328 209.265 319.265C209.215 319.97 209.134 320.776 208.449 321.497Z" fill="#FFADDD"/>
<path d="M114.616 553.555C113.683 569.397 109.021 590.831 90.373 593.627" stroke="white" stroke-width="3" stroke-linecap="round"/>
<path d="M53.0786 622.059C46.8882 609.934 41.9341 591.372 43.7022 564.533L87.209 560.604C87.209 560.604 90.2662 576.714 91.1053 585.995C91.9444 595.277 94.7204 613.038 86.3829 614.077C87.2962 639.831 92.637 644.123 90.1984 648.454C88.2475 651.918 81.9698 651.35 79.0748 650.633C65.9932 649.935 59.3309 633.826 53.0786 622.059Z" fill="#E9F0FD"/>
<path d="M113.416 216.203L161.902 196.633C167.286 243.713 114.083 263.119 103.194 319.116C93.6342 370.766 92.7866 537.829 91.2714 558.098C91.2714 563.107 92.5535 568.699 88.9404 568.932L45.2146 567.716C38.5172 567.253 37.2292 561.559 37.4223 558.77C24.131 476.673 15.8732 363.295 45.1128 293.552C59.1407 252.954 79.8493 233.909 113.416 216.203Z" fill="url(#paint2_linear)"/>
<path d="M85.2172 614.977C83.2895 615.229 78.8021 613.919 76.2735 606.662C74.2093 599.362 73.2046 588.269 68.3093 581.629" stroke="#0F0967" stroke-width="3" stroke-linecap="round"/>
<path d="M155.2 73.5621L211.394 73.0517L272.555 72.4962C272.816 101.236 269.832 140.472 267.858 167.487C265.885 194.502 264.613 202.92 261.585 222.118C256.19 256.332 229.431 261.701 212.646 261.62C177.213 261.709 166.736 237.34 163.567 222.225C161.586 209.429 157.363 180.809 155.974 158.597C153.67 121.761 153.782 91.4441 155.2 73.5621Z" fill="#E9F0FF"/>
<path d="M218.996 178.73C214.955 179.038 211.039 178.537 207.584 177.659C203.499 176.62 199.169 180.061 201.847 183.316C205.922 188.267 211.957 189.698 215.429 189.667C219.18 189.945 222.397 188.529 225.052 186.348C228.814 183.257 223.851 178.359 218.996 178.73Z" fill="#D7DDE9"/>
<path d="M254.429 75.6939C216.066 84.8185 181.899 77.5584 172.518 75.7717C163.137 73.985 160.746 71.0237 158.551 84.1523C156.356 97.281 155.706 152.4 155.706 152.4C155.807 163.576 143.834 140.493 143.8 136.961L139.703 111.627C139.403 78.6717 141.417 59.4182 162.818 38.9503C189.105 13.8097 238.974 16.7686 266.056 41.1318C282.559 55.9782 283.605 91.2313 283.492 105.488C283.38 119.745 280.624 135.718 280.624 135.718C278.321 148.303 267.931 162.171 269.048 152.133C270.166 142.095 268.891 94.9894 267.344 84.3724L267.304 84.0946C265.796 73.7422 265.69 73.0153 254.429 75.6939Z" fill="#0F43EC"/>
<path d="M146.206 117.152L156.874 118.87L165.648 148.78L152.899 144.711C142.269 141.783 139.061 133.636 138.617 127.745C138.073 120.542 141.534 117.071 146.206 117.152Z" fill="#E9F0FF"/>
<path d="M277.506 115.96L266.87 117.872L258.642 147.936L271.314 143.636C281.89 140.516 284.949 132.312 285.286 126.414C285.699 119.202 282.175 115.794 277.506 115.96Z" fill="#E9F0FF"/>
<path d="M248.101 97.2863C248.855 97.8904 248.977 98.9916 248.373 99.746C247.769 100.5 246.667 100.622 245.913 100.018L248.101 97.2863ZM229.325 100.173C228.64 100.855 227.532 100.853 226.85 100.168C226.167 99.4839 226.169 98.376 226.854 97.6938L229.325 100.173ZM245.913 100.018C243.998 98.4849 240.874 97.4381 237.611 97.3699C234.352 97.3017 231.292 98.2124 229.325 100.173L226.854 97.6938C229.713 94.8457 233.832 93.7904 237.685 93.871C241.534 93.9515 245.456 95.1685 248.101 97.2863L245.913 100.018Z" fill="#0F0967"/>
<path d="M179.299 97.2864C178.545 97.8904 178.423 98.9916 179.027 99.746C179.632 100.5 180.733 100.622 181.487 100.018L179.299 97.2864ZM198.076 100.173C198.76 100.855 199.869 100.853 200.551 100.168C201.233 99.4839 201.231 98.376 200.546 97.6938L198.076 100.173ZM181.487 100.018C183.402 98.4849 186.526 97.4381 189.789 97.3699C193.048 97.3017 196.108 98.2124 198.076 100.173L200.546 97.6938C197.688 94.8457 193.569 93.7904 189.716 93.871C185.866 93.9515 181.945 95.1685 179.299 97.2864L181.487 100.018Z" fill="#0F0967"/>
<ellipse rx="4.16076" ry="4.1587" transform="matrix(0.999983 -0.00908251 0.00909161 0.999935 189.749 113.117)" fill="#0F0967"/>
<ellipse rx="4.16076" ry="4.15871" transform="matrix(0.999983 -0.00908223 0.00909191 0.999935 235.81 112.699)" fill="#0F0967"/>
<path d="M217.425 102.922L222.021 138.198C222.253 139.983 220.873 141.569 219.073 141.585L205.295 141.71" stroke="#0F0967" stroke-width="3" stroke-linecap="round"/>
<path d="M201 155C202.132 157 205.475 161 214.469 161C221.849 161 226.18 158.246 227 155.492" stroke="#0F0967" stroke-width="3" stroke-linecap="round" stroke-linejoin="round"/>
<path d="M337.689 614.977C339.617 615.229 344.104 613.919 346.633 606.662C348.697 599.362 349.702 588.269 354.597 581.629" stroke="#0F0967" stroke-width="3" stroke-linecap="round"/>
<path d="M193.936 1066.04C195.979 1074.87 195.161 1087.47 195.161 1087.47L195.137 1105.95C195.136 1106.98 194.734 1107.97 193.945 1108.64C191.568 1110.65 185.484 1115.18 174.362 1119.69C159.443 1125.75 146.157 1130.18 127.275 1131.57C107.694 1132.5 95.3401 1132.51 81.3538 1130.87C61.3848 1127.52 54.7898 1127.8 55.2668 1121.43L55.4984 1100.75C55.9868 1084.14 66.9136 1071.9 83.5181 1066.57C98.62 1062.32 119.33 1059.16 141.457 1077.07" stroke="white" stroke-width="3" stroke-linecap="round"/>
<path d="M56.0795 1105.58C75.9908 1115.27 160.198 1117.85 195.16 1087.47" stroke="white" stroke-width="3"/>
<path d="M94.6032 1111.97L94.1518 1131.81" stroke="white" stroke-width="3"/>
<path d="M116.059 1112.68L115.97 1131.36" stroke="white" stroke-width="3"/>
<path d="M137.257 1108.93L137.296 1131.32" stroke="white" stroke-width="3"/>
<path d="M154.017 1106.78L153.562 1128.14" stroke="white" stroke-width="3"/>
<path d="M167.279 1102.39L167.039 1122.72" stroke="white" stroke-width="3"/>
<path d="M178.723 1098.04L178.64 1118.38" stroke="white" stroke-width="3"/>
<path d="M187.906 1093.06L188.135 1113.4" stroke="white" stroke-width="3"/>
<path d="M74.3046 1110.6L73.808 1129.31" stroke="white" stroke-width="3"/>
<path d="M232.32 1066.04C230.277 1074.87 231.095 1087.47 231.095 1087.47L231.118 1105.95C231.12 1106.98 231.522 1107.97 232.311 1108.64C234.687 1110.65 240.772 1115.18 251.894 1119.69C266.813 1125.75 280.099 1130.18 298.981 1131.57C318.562 1132.5 330.916 1132.51 344.902 1130.87C364.871 1127.52 371.466 1127.8 370.989 1121.43L370.757 1100.75C370.269 1084.14 359.342 1071.9 342.738 1066.57C327.636 1062.32 306.926 1059.16 284.798 1077.07" stroke="white" stroke-width="3" stroke-linecap="round"/>
<path d="M370.176 1105.58C350.265 1115.27 266.058 1117.85 231.096 1087.47" stroke="white" stroke-width="3"/>
<path d="M331.653 1111.97L332.104 1131.81" stroke="white" stroke-width="3"/>
<path d="M310.197 1112.68L310.285 1131.36" stroke="white" stroke-width="3"/>
<path d="M288.999 1108.93L288.96 1131.32" stroke="white" stroke-width="3"/>
<path d="M272.238 1106.78L272.693 1128.14" stroke="white" stroke-width="3"/>
<path d="M258.977 1102.39L259.217 1122.72" stroke="white" stroke-width="3"/>
<path d="M247.533 1098.04L247.616 1118.38" stroke="white" stroke-width="3"/>
<path d="M238.35 1093.06L238.121 1113.4" stroke="white" stroke-width="3"/>
<path d="M351.951 1110.6L352.448 1129.31" stroke="white" stroke-width="3"/>
<defs>
<linearGradient id="paint0_linear" x1="177.041" y1="511.619" x2="177.041" y2="1070.82" gradientUnits="userSpaceOnUse">
<stop stop-color="#1638FF"/>
<stop offset="1" stop-color="#0F0E78"/>
</linearGradient>
<linearGradient id="paint1_linear" x1="330.161" y1="355.291" x2="343.808" y2="614.739" gradientUnits="userSpaceOnUse">
<stop stop-color="#120F8A"/>
<stop offset="1" stop-color="#0339C6"/>
</linearGradient>
<linearGradient id="paint2_linear" x1="92.7455" y1="355.291" x2="79.0979" y2="614.739" gradientUnits="userSpaceOnUse">
<stop stop-color="#120F8A"/>
<stop offset="1" stop-color="#0339C6"/>
</linearGradient>
</defs>
</svg>
