<svg width="338" height="468" viewBox="0 0 338 468" fill="none" xmlns="http://www.w3.org/2000/svg">
<path d="M51.9821 259.315C56.2112 246.635 79.2947 257.113 87.2242 259.315L214.977 291.895C298.148 317.958 331.276 420.158 337.443 468H0C11.9823 364.45 39.6474 285.731 51.9821 259.315Z" fill="#0163FF"/>
<path d="M230.972 124.594C226.743 128.82 229.21 134.573 230.972 136.921L241.54 161.576C255.637 191.162 235.666 222.039 223.919 233.779V303.257C223.919 304.608 222.607 305.57 221.319 305.165L67.0915 256.673C72.728 224.269 69.44 197.384 67.0915 187.992C65.9167 183.883 61.4534 177.205 47.7096 175.664C35.1026 174.251 34.0919 165.083 33.6128 159.815C32.2031 144.318 42.071 143.966 47.7096 143.966H60.0458C48.7683 107.336 80.0163 85.2639 97.05 78.8067L162.248 54.1517C186.213 44.2898 202.776 58.2608 208.063 66.4791L236.256 108.744C241.895 115.788 239.193 120.118 236.256 121.292L230.972 124.594Z" fill="#EAF1FF"/>
<path d="M75.8014 143.952H47.6077C34.9206 125.638 37.6225 95.2298 40.5593 82.3154C46.1981 58.3651 69.9277 54.7256 81.0877 55.8996H93.4225C124.436 55.8996 162.732 25.3749 178.004 10.1126C197.739 -8.20231 212.071 2.4814 216.77 10.1126C236.505 35.4717 221.469 55.8999 211.484 62.9441C181.88 78.4414 135.713 91.708 116.33 96.4041C106.462 99.2218 106.345 109.318 107.519 114.015C110.339 126.694 121.616 140.43 126.902 145.714C139.237 159.802 161.557 156.28 170.955 152.758L233.817 133.562C234.17 133.454 234.556 133.55 234.815 133.814C252.788 152.117 257.298 178.673 257.298 189.74C261.527 226.37 221.469 236.701 200.911 237.288C148.753 242.923 114.568 192.675 103.995 166.846C96.0655 147.474 88.1362 143.952 75.8014 143.952Z" fill="#0A39D1"/>
<path d="M206.11 149.816C218.897 146.615 225.969 143.632 228.837 142.027C229.417 141.702 230.193 141.945 230.409 142.572C234.191 153.519 230.073 157.716 227.38 158.476C227.334 158.489 227.288 158.504 227.244 158.523C216.499 163.036 208.697 156.126 205.512 151.242C205.153 150.692 205.473 149.976 206.11 149.816Z" fill="#ECF1FD"/>
<path d="M59.0488 160.777C63.506 159.839 73.4057 160.355 77.3468 169.92" stroke="#060D34" stroke-width="4" stroke-linecap="round"/>
<path d="M194.549 106.778C197.326 103.377 202.866 102.356 207.106 102.279C208.06 102.262 208.588 101.028 207.888 100.377L205.964 98.5856C205.825 98.4561 205.725 98.2896 205.677 98.1056L205.17 96.1572C205.085 95.831 204.842 95.5655 204.516 95.4782C199.248 94.0665 192.581 97.6424 188.722 100.685C187.659 101.523 187.922 103.113 189.136 103.712L190.843 104.554C191.081 104.672 191.263 104.879 191.348 105.13L191.841 106.584C192.168 107.544 193.908 107.563 194.549 106.778Z" fill="#060D34"/>
<path d="M134.073 22.7235C133.842 21.9278 133.011 21.4694 132.215 21.6998C131.419 21.9301 130.961 22.762 131.191 23.5577L134.073 22.7235ZM89.6237 60.621C96.214 59.5441 108.594 55.2147 118.661 48.7464C123.7 45.5092 128.267 41.669 131.226 37.334C134.207 32.9669 135.604 28.0128 134.073 22.7235L131.191 23.5577C132.41 27.7685 131.369 31.8039 128.748 35.6426C126.106 39.5133 121.908 43.095 117.04 46.2224C107.295 52.4832 95.2996 56.6538 89.1399 57.6603L89.6237 60.621Z" fill="#0A39D1"/>
<path d="M208.517 55.3976C216.206 47.4349 222.58 29.9666 209.47 16.6104" stroke="#171460" stroke-width="3" stroke-linecap="round"/>
<path d="M54.7969 77.9468C51.1325 81.6264 47.7292 86.394 48.3829 95.1196" stroke="#171460" stroke-width="3" stroke-linecap="round"/>
<path d="M158.222 371.141C170.222 390.141 173.222 397.141 179.222 420.141" stroke="white" stroke-width="4" stroke-linecap="round"/>
</svg>
