<svg width="42" height="82" viewBox="0 0 42 82" fill="none" xmlns="http://www.w3.org/2000/svg">
<path d="M29.4098 11.8307C27.9741 13.7858 25.5509 13.73 24.5187 13.4577C22.3266 15.621 19.8889 14.1829 18.9441 13.1934C17.6151 11.4191 19.6974 7.56485 20.9046 5.85951C23.5155 1.29702 27.5789 2.6796 29.2842 3.94121C32.5169 6.0818 30.7149 10.0928 29.4098 11.8307Z" fill="#CA0D7B"/>
<path d="M37.5383 66.3904C37.3458 62.0854 33.341 61.0423 31.3626 61.059C28.4361 61.0835 26.4695 63.5527 25.6491 65.1802C22.8677 64.2737 20.0849 66.4768 19.9428 68.8767C19.5866 74.8948 24.5829 76.9303 26.9331 77.4263C35.717 78.5711 37.7174 70.2336 37.5383 66.3904Z" fill="#CA0D7B"/>
<path d="M12.235 49.8481C7.33886 47.7439 4.45421 43.6414 4.94025 39.3439C5.4263 35.0463 8.72376 31.734 8.72376 31.734C6.457 27.9933 9.85754 25.0513 12.3977 24.3444C15.5905 23.4559 18.2908 24.019 19.8918 25.5944C22.5761 23.9579 26.5222 26.5526 28.1036 27.6139C33.6678 33.0212 31.4328 38.3475 28.1329 40.5583C27.2605 44.5262 24.9856 46.9257 22.9174 48.2818C21.3966 49.6806 17.1311 51.9522 12.235 49.8481Z" fill="#CA0D7B"/>
</svg>
