<svg width="477" height="920" viewBox="0 0 477 920" fill="none" xmlns="http://www.w3.org/2000/svg">
<path fill-rule="evenodd" clip-rule="evenodd" d="M137.133 833.323C132.513 834.051 127.781 835.231 124.74 836.763C111.455 843.458 90.7631 848.694 79.3167 850.918C52.4999 855.902 41.3629 875.618 38.8407 885.976C38.6325 886.831 38.5816 887.679 38.6182 888.477L39.1407 899.874C39.3809 905.113 43.6146 909.291 48.8847 909.363C62.4481 909.549 92.6684 909.729 123.672 908.351C154.793 906.967 185.443 903.936 199.099 902.475C204.334 901.914 208.164 897.369 207.924 892.135L207.358 879.794C207.376 863.946 203.957 847.776 201.203 837.933C199.894 833.258 195.317 830.554 190.684 831.082C171.035 833.322 158.094 833.406 149.918 832.597C146.605 832.27 141.774 832.592 137.133 833.323ZM137.755 837.274C142.241 836.567 146.694 836.298 149.525 836.578C158.089 837.425 171.338 837.313 191.137 835.056C194.01 834.729 196.625 836.407 197.354 839.012C200.057 848.67 203.385 864.474 203.361 879.836L203.361 879.883L203.932 892.318C204.076 895.469 201.779 898.165 198.674 898.497C185.051 899.955 154.495 902.976 123.495 904.355C92.6028 905.728 62.4702 905.549 48.9393 905.364C45.8149 905.321 43.2779 902.846 43.1332 899.691L42.6107 888.294C42.5876 887.79 42.6237 887.334 42.7238 886.923C44.9626 877.729 55.1163 859.481 80.0542 854.85L80.0705 854.847C91.6054 852.605 112.744 847.287 126.538 840.336C129.012 839.089 133.249 837.984 137.755 837.274Z" fill="white"/>
<path fill-rule="evenodd" clip-rule="evenodd" d="M40.7289 886.095L40.6008 888.091C40.4726 890.087 40.4729 890.087 40.4733 890.087L40.4971 890.088L40.5643 890.093L40.8263 890.108C41.0576 890.122 41.4018 890.141 41.8577 890.164C42.7696 890.211 44.1284 890.276 45.9242 890.345C49.516 890.483 54.8563 890.642 61.8671 890.723C75.8887 890.886 96.5926 890.74 123.355 889.507C150.117 888.274 170.612 886.528 184.426 885.09C191.333 884.37 196.569 883.727 200.083 883.264C201.84 883.032 203.167 882.845 204.056 882.716C204.501 882.651 204.836 882.601 205.061 882.566L205.316 882.527L205.382 882.517L205.404 882.514C205.404 882.513 205.406 882.513 205.093 880.538L204.779 878.563L204.762 878.565L204.703 878.575L204.46 878.612C204.244 878.645 203.917 878.694 203.481 878.757C202.609 878.884 201.3 879.069 199.561 879.298C196.083 879.757 190.882 880.395 184.012 881.111C170.272 882.542 149.853 884.282 123.171 885.511C96.4889 886.741 75.8618 886.885 61.9134 886.724C54.9392 886.643 49.6348 886.485 46.0781 886.348C44.2997 886.279 42.9583 886.216 42.0635 886.17C41.6161 886.147 41.2804 886.128 41.0576 886.115L40.8082 886.1L40.7472 886.096L40.7289 886.095Z" fill="white"/>
<path fill-rule="evenodd" clip-rule="evenodd" d="M193.535 900.677L192.657 881.535L188.665 881.718L189.542 900.86L193.535 900.677Z" fill="white"/>
<path fill-rule="evenodd" clip-rule="evenodd" d="M132.572 905.28L131.695 886.139L127.702 886.322L128.58 905.463L132.572 905.28Z" fill="white"/>
<path fill-rule="evenodd" clip-rule="evenodd" d="M178.537 902.572L177.66 883.431L173.667 883.614L174.545 902.755L178.537 902.572Z" fill="white"/>
<path fill-rule="evenodd" clip-rule="evenodd" d="M117.695 905.964L116.817 886.822L112.825 887.006L113.702 906.147L117.695 905.964Z" fill="white"/>
<path fill-rule="evenodd" clip-rule="evenodd" d="M163.175 903.875L162.297 884.733L158.305 884.917L159.183 904.058L163.175 903.875Z" fill="white"/>
<path fill-rule="evenodd" clip-rule="evenodd" d="M102.395 906.667L101.517 887.525L97.5246 887.709L98.4022 906.85L102.395 906.667Z" fill="white"/>
<path fill-rule="evenodd" clip-rule="evenodd" d="M72.2653 907.559L71.3877 888.418L67.3952 888.601L68.2728 907.743L72.2653 907.559Z" fill="white"/>
<path fill-rule="evenodd" clip-rule="evenodd" d="M148.723 904.539L147.846 885.397L143.853 885.581L144.731 904.722L148.723 904.539Z" fill="white"/>
<path fill-rule="evenodd" clip-rule="evenodd" d="M87.943 907.329L87.0654 888.188L83.0729 888.371L83.9506 907.512L87.943 907.329Z" fill="white"/>
<path fill-rule="evenodd" clip-rule="evenodd" d="M57.946 906.902L57.0684 887.761L53.0759 887.944L53.9535 907.086L57.946 906.902Z" fill="white"/>
<path fill-rule="evenodd" clip-rule="evenodd" d="M52.3582 337.781C52.8927 336.815 54.1088 336.465 55.0743 337C58.7351 339.028 63.735 339.65 69.5823 340.022C70.6528 340.089 71.7504 340.149 72.8657 340.209C77.6637 340.469 82.7908 340.747 87.5127 341.797C88.5901 342.037 89.2694 343.105 89.03 344.183C88.7906 345.262 87.7231 345.942 86.6457 345.702C82.2784 344.731 77.5699 344.474 72.7943 344.213C71.6419 344.15 70.4856 344.087 69.3293 344.013C63.5526 343.647 57.6865 343.019 53.1387 340.499C52.1731 339.964 51.8237 338.747 52.3582 337.781Z" fill="#0F0967"/>
<path d="M41.1968 609.011C41.1968 524.438 92.9926 483.515 150.922 483.515L227.252 480.946H456.251C466.111 511.66 465.636 535.51 456.251 555.567C427.499 617.014 338.537 602.191 227.252 602.191C166.794 602.191 170.004 641.749 174.775 673.123L204.016 831.147C204.827 835.525 202.202 839.776 197.875 840.813C184.773 843.953 156.193 849.772 124.343 849.772C93.8187 849.772 72.6401 847.768 62.6756 846.564C58.8229 846.099 55.8961 843.004 55.4819 839.142C45.0403 741.796 40.7503 657.294 41.1968 609.011Z" fill="url(#paint0_linear)"/>
<path d="M301.617 241.548C328.657 209.813 373.219 196.305 407.9 189.394C414.636 188.051 421.503 191.014 425.117 196.859C493.327 307.176 478.543 423.034 462.543 474.751C461.449 478.288 458.152 480.605 454.453 480.605H263.363C258.506 480.605 254.598 476.626 254.695 471.766C254.984 457.422 255.514 429.568 255.514 418.526C255.514 403.844 257.784 379.838 257.931 378.305C257.936 378.252 257.94 378.199 257.943 378.146C262.867 295.519 286.38 260.368 301.617 241.548Z" fill="#2F72F4"/>
<path d="M121.668 516.11C141.233 509.373 170.405 496.908 170.405 496.908L168.775 458.699C168.775 458.699 140.693 453.875 133.449 454.218C126.205 454.562 122.107 457.458 111.247 460.275C100.387 463.092 91.0032 464.47 92.1179 471.974C93.2326 479.477 107.54 475.65 107.54 475.65C107.54 475.65 98.4558 481.417 90.8247 481.629C83.1937 481.841 67.0437 479.153 67.0437 479.153C67.0437 479.153 55.6683 478.306 54.5946 485.287C53.5209 492.268 68.7983 512.161 79.5165 514.944C90.2346 517.727 102.102 522.848 121.668 516.11Z" fill="#F1F1FC"/>
<path fill-rule="evenodd" clip-rule="evenodd" d="M52.2654 487.338C52.9534 486.474 54.2108 486.333 55.0739 487.022C58.2761 489.577 64.9062 492.507 73.0392 494.268C81.1244 496.018 90.409 496.547 98.8442 494.554C99.9183 494.3 100.995 494.966 101.249 496.041C101.504 497.116 100.839 498.193 99.765 498.447C90.5894 500.615 80.6763 500.012 72.1963 498.177C63.764 496.352 56.4614 493.244 52.5827 490.148C51.7195 489.459 51.5775 488.201 52.2654 487.338Z" fill="#0F0967"/>
<path fill-rule="evenodd" clip-rule="evenodd" d="M58.0081 500.96C58.696 500.096 59.9535 499.955 60.8166 500.644C64.0132 503.195 69.6069 505.506 76.2167 506.936C82.7827 508.356 90.1072 508.853 96.6296 507.961C97.7231 507.812 98.7312 508.578 98.8812 509.672C99.0311 510.766 98.2662 511.775 97.1727 511.924C90.106 512.89 82.3059 512.344 75.3743 510.845C68.4866 509.355 62.2097 506.87 58.3253 503.77C57.4622 503.081 57.3201 501.823 58.0081 500.96Z" fill="#0F0967"/>
<path d="M235.577 424.25C290.752 398.276 288.378 333.998 293.425 285.16C293.669 282.801 295.783 281.107 298.141 281.349L341.527 285.803C365.275 288.241 382.586 309.441 380.236 333.209L374.542 390.79C374.506 391.15 374.425 391.508 374.3 391.847C350.879 455.818 302.908 489.108 242.161 493.761L169.674 499.226C167.251 499.409 165.151 497.562 165.02 495.134L162.924 456.08C162.795 453.677 164.637 451.51 166.986 450.998C174.845 449.283 194.638 443.523 235.577 424.25Z" fill="url(#paint1_linear)"/>
<path d="M374.94 67.1961L290.291 66.0315C289.506 66.0207 288.813 66.5339 288.605 67.2915C285.666 78.0262 281.144 97.8998 280.254 111.304C280.199 112.138 279.572 112.818 278.738 112.846C274.609 112.984 268.212 112.454 268.97 121.272C269.362 125.818 272.888 129.096 279.831 129.004C280.788 128.991 281.628 129.685 281.724 130.638C282.756 140.895 285.847 157.54 297.758 168.254C315.938 184.607 347.869 197.191 393.981 169.176C394.541 168.836 394.87 168.198 394.814 167.546L392.574 141.515C392.532 141.027 392.698 140.545 393.031 140.186L407.542 124.551C407.875 124.192 408.041 123.709 407.999 123.222L403.306 68.6819C403.228 67.7828 402.475 67.0935 401.573 67.0968L374.94 67.1961Z" fill="#F1F1FC"/>
<path d="M298.848 102.812C299.009 104.688 300.66 106.079 302.535 105.917C304.41 105.755 305.799 104.103 305.638 102.227C305.476 100.35 303.825 98.9601 301.95 99.1217C300.075 99.2833 298.686 100.935 298.848 102.812Z" fill="#0F0967"/>
<path d="M276.988 79.9963L365.924 78.7398C368.101 78.709 369.962 80.3001 370.272 82.4566L373.547 105.226C374.01 108.45 377.728 110.03 380.367 108.124L386.957 103.368C394.25 99.0052 400.194 101.931 403.361 106.038C410.879 115.79 401.005 124.571 402.015 123.359L402.302 123.05C402.167 123.187 402.073 123.289 402.015 123.359L390.243 136.052C389.158 137.222 388.803 138.894 389.319 140.404L393.784 153.472C393.957 153.977 394.034 154.51 394.014 155.044L391.48 219.81C391.405 221.719 392.582 223.474 394.43 223.95C421.127 230.836 457.634 211.74 468.311 200.315C469.723 198.805 469.391 196.531 468.147 194.879C459.263 183.092 443.743 145.626 437.097 93.0565C431.275 47.0066 399.508 27.5181 374.01 21.4778C307.597 5.74508 273.407 69.7756 272.652 74.5083C272.093 78.0149 274.618 79.5207 276.241 79.9254C276.485 79.9862 276.737 79.9999 276.988 79.9963Z" fill="#0F43EC"/>
<path d="M94.8227 565.903C94.8227 570.451 91.1382 574.139 86.5932 574.139C82.0482 574.139 78.3638 570.451 78.3638 565.903C78.3638 561.354 82.0482 557.667 86.5932 557.667C91.1382 557.667 94.8227 561.354 94.8227 565.903Z" fill="white"/>
<path d="M261.145 508.686C261.145 513.234 257.461 516.922 252.915 516.922C248.37 516.922 244.686 513.234 244.686 508.686C244.686 504.137 248.37 500.45 252.915 500.45C257.461 500.45 261.145 504.137 261.145 508.686Z" fill="white"/>
<path d="M384.154 549.431C384.154 553.98 380.469 557.667 375.924 557.667C371.379 557.667 367.695 553.98 367.695 549.431C367.695 544.883 371.379 541.195 375.924 541.195C380.469 541.195 384.154 544.883 384.154 549.431Z" fill="white"/>
<path d="M237.756 573.705C237.756 578.253 234.071 581.94 229.526 581.94C224.981 581.94 221.297 578.253 221.297 573.705C221.297 569.156 224.981 565.469 229.526 565.469C234.071 565.469 237.756 569.156 237.756 573.705Z" fill="white"/>
<path d="M150.264 673.401C150.264 677.949 146.579 681.636 142.034 681.636C137.489 681.636 133.805 677.949 133.805 673.401C133.805 668.852 137.489 665.165 142.034 665.165C146.579 665.165 150.264 668.852 150.264 673.401Z" fill="white"/>
<path d="M92.2241 734.953C92.2241 739.501 88.5396 743.188 83.9946 743.188C79.4496 743.188 75.7651 739.501 75.7651 734.953C75.7651 730.404 79.4496 726.717 83.9946 726.717C88.5396 726.717 92.2241 730.404 92.2241 734.953Z" fill="white"/>
<path d="M166.723 812.109C166.723 816.657 163.038 820.345 158.493 820.345C153.948 820.345 150.264 816.657 150.264 812.109C150.264 807.56 153.948 803.873 158.493 803.873C163.038 803.873 166.723 807.56 166.723 812.109Z" fill="white"/>
<path fill-rule="evenodd" clip-rule="evenodd" d="M166.046 499.029C165.992 497.926 166.841 496.988 167.944 496.934L240.42 493.398C278.284 490.198 310.529 477.947 330.536 459.617L330.595 459.563L330.658 459.514C350.717 443.887 362.786 417.913 369.833 391.546C376.866 365.229 378.813 338.837 378.856 322.755C378.859 321.65 379.756 320.758 380.86 320.762C381.964 320.765 382.856 321.664 382.853 322.768C382.809 339.097 380.839 365.847 373.694 392.581C366.57 419.239 354.216 446.197 333.178 462.621C312.306 481.71 279.125 494.147 240.723 497.386L240.688 497.389L168.141 500.929C167.038 500.983 166.1 500.132 166.046 499.029Z" fill="white"/>
<path d="M319.339 93.0925C319.833 93.9237 319.559 94.9973 318.728 95.4906C317.897 95.984 316.823 95.7101 316.33 94.879L319.339 93.0925ZM298.262 88.6148C297.302 88.7262 296.434 88.0383 296.322 87.0783C296.211 86.1182 296.899 85.2496 297.859 85.1381L298.262 88.6148ZM316.33 94.879C314.986 92.6146 312.207 90.8273 308.714 89.7098C305.26 88.6048 301.395 88.251 298.262 88.6148L297.859 85.1381C301.504 84.7149 305.87 85.1251 309.78 86.3763C313.652 87.6149 317.371 89.7757 319.339 93.0925L316.33 94.879Z" fill="#0F0967"/>
<path d="M295 138H304.5C308.393 138 310.812 140.562 310.812 144.062C310.812 146.688 309.312 150.125 305 150.125C299.765 150.125 296.75 150.125 296.75 150.125" stroke="#0F0967" stroke-width="4" stroke-linecap="round" stroke-linejoin="round"/>
<defs>
<linearGradient id="paint0_linear" x1="252.317" y1="480.946" x2="252.317" y2="849.772" gradientUnits="userSpaceOnUse">
<stop stop-color="#081166"/>
<stop offset="1" stop-color="#1C22A2"/>
</linearGradient>
<linearGradient id="paint1_linear" x1="168.444" y1="443.059" x2="293.77" y2="317.287" gradientUnits="userSpaceOnUse">
<stop stop-color="#4483FD"/>
<stop offset="1" stop-color="#2F72F4"/>
</linearGradient>
</defs>
</svg>
