<svg width="477" height="920" viewBox="0 0 477 920" fill="none" xmlns="http://www.w3.org/2000/svg">
<path fill-rule="evenodd" clip-rule="evenodd" d="M137.134 833.323C132.513 834.051 127.781 835.231 124.74 836.763C111.456 843.458 90.7633 848.694 79.3168 850.918C52.5 855.902 41.363 875.618 38.8408 885.976C38.6326 886.831 38.5817 887.679 38.6183 888.477L39.1408 899.874C39.381 905.113 43.6147 909.291 48.8848 909.363C62.4482 909.549 92.6685 909.729 123.673 908.351C154.793 906.967 185.443 903.936 199.1 902.475C204.334 901.914 208.164 897.369 207.924 892.135L207.358 879.794C207.376 863.946 203.957 847.776 201.203 837.933C199.894 833.258 195.317 830.554 190.685 831.082C171.035 833.322 158.094 833.406 149.918 832.597C146.605 832.27 141.774 832.592 137.134 833.323ZM137.755 837.274C142.241 836.567 146.694 836.298 149.526 836.578C158.089 837.425 171.338 837.313 191.137 835.056C194.01 834.729 196.625 836.407 197.354 839.012C200.057 848.67 203.385 864.474 203.362 879.836L203.361 879.883L203.932 892.318C204.076 895.469 201.779 898.165 198.675 898.497C185.051 899.955 154.495 902.976 123.495 904.355C92.6029 905.728 62.4703 905.549 48.9394 905.364C45.815 905.321 43.278 902.846 43.1333 899.691L42.6108 888.294C42.5877 887.79 42.6239 887.334 42.7239 886.923C44.9627 877.729 55.1164 859.481 80.0543 854.85L80.0706 854.847C91.6055 852.605 112.745 847.287 126.538 840.336C129.013 839.089 133.249 837.984 137.755 837.274Z" fill="white"/>
<path fill-rule="evenodd" clip-rule="evenodd" d="M40.7291 886.095L40.6009 888.091C40.4727 890.087 40.473 890.087 40.4734 890.087L40.4972 890.088L40.5644 890.093L40.8264 890.108C41.0577 890.122 41.4019 890.141 41.8579 890.164C42.7697 890.211 44.1285 890.276 45.9243 890.345C49.5161 890.483 54.8564 890.642 61.8672 890.723C75.8888 890.886 96.5928 890.74 123.355 889.507C150.117 888.274 170.613 886.528 184.426 885.09C191.333 884.37 196.57 883.727 200.084 883.264C201.84 883.032 203.167 882.845 204.056 882.716C204.501 882.651 204.836 882.601 205.061 882.566L205.316 882.527L205.382 882.517L205.404 882.514C205.404 882.513 205.406 882.513 205.093 880.538L204.779 878.563L204.762 878.565L204.703 878.575L204.46 878.612C204.244 878.645 203.917 878.694 203.481 878.757C202.609 878.884 201.3 879.069 199.561 879.298C196.083 879.757 190.883 880.395 184.013 881.111C170.273 882.542 149.853 884.282 123.171 885.511C96.489 886.741 75.8619 886.885 61.9135 886.724C54.9394 886.643 49.6349 886.485 46.0782 886.348C44.2998 886.279 42.9584 886.216 42.0636 886.17C41.6162 886.147 41.2805 886.128 41.0577 886.115L40.8083 886.1L40.7474 886.096L40.7291 886.095Z" fill="white"/>
<path fill-rule="evenodd" clip-rule="evenodd" d="M193.535 900.677L192.657 881.535L188.665 881.718L189.543 900.86L193.535 900.677Z" fill="white"/>
<path fill-rule="evenodd" clip-rule="evenodd" d="M132.572 905.28L131.695 886.139L127.702 886.322L128.58 905.463L132.572 905.28Z" fill="white"/>
<path fill-rule="evenodd" clip-rule="evenodd" d="M178.537 902.572L177.66 883.431L173.667 883.614L174.545 902.755L178.537 902.572Z" fill="white"/>
<path fill-rule="evenodd" clip-rule="evenodd" d="M117.695 905.964L116.817 886.822L112.825 887.006L113.703 906.147L117.695 905.964Z" fill="white"/>
<path fill-rule="evenodd" clip-rule="evenodd" d="M163.175 903.875L162.298 884.733L158.305 884.917L159.183 904.058L163.175 903.875Z" fill="white"/>
<path fill-rule="evenodd" clip-rule="evenodd" d="M102.395 906.667L101.517 887.525L97.5249 887.709L98.4025 906.85L102.395 906.667Z" fill="white"/>
<path fill-rule="evenodd" clip-rule="evenodd" d="M72.2654 907.559L71.3878 888.418L67.3953 888.601L68.2729 907.743L72.2654 907.559Z" fill="white"/>
<path fill-rule="evenodd" clip-rule="evenodd" d="M148.723 904.539L147.846 885.397L143.853 885.581L144.731 904.722L148.723 904.539Z" fill="white"/>
<path fill-rule="evenodd" clip-rule="evenodd" d="M87.9431 907.329L87.0655 888.188L83.073 888.371L83.9506 907.512L87.9431 907.329Z" fill="white"/>
<path fill-rule="evenodd" clip-rule="evenodd" d="M57.9462 906.902L57.0686 887.761L53.0761 887.944L53.9537 907.086L57.9462 906.902Z" fill="white"/>
<path d="M41.1971 609.011C41.1971 524.438 92.9928 483.515 150.922 483.515L227.252 480.946H456.251C466.111 511.66 465.636 535.51 456.251 555.567C427.499 617.014 338.537 602.191 227.252 602.191C166.794 602.191 170.005 641.749 174.775 673.123L204.017 831.147C204.827 835.525 202.202 839.776 197.875 840.813C184.773 843.953 156.193 849.772 124.343 849.772C93.8189 849.772 72.6404 847.768 62.6758 846.564C58.8231 846.099 55.8963 843.004 55.4821 839.142C45.0406 741.796 40.7505 657.294 41.1971 609.011Z" fill="url(#paint0_linear_289:1570)"/>
<path d="M301.617 241.548C328.657 209.813 373.219 196.305 407.9 189.394C414.636 188.051 421.503 191.014 425.117 196.859C493.327 307.176 478.543 423.034 462.543 474.751C461.449 478.288 458.152 480.605 454.453 480.605H263.363C258.506 480.605 254.597 476.626 254.695 471.766C254.984 457.422 255.514 429.568 255.514 418.526C255.514 403.844 257.784 379.838 257.931 378.305C257.936 378.252 257.94 378.199 257.943 378.146C262.867 295.519 286.38 260.368 301.617 241.548Z" fill="#2F72F4"/>
<path d="M118.497 450.518C139.15 449.246 170.873 449.585 170.873 449.585L178.5 481C178.5 481 165.25 496.25 148.25 499C133.5 501.5 129.611 499.692 118.5 501.25C107.389 502.808 106 504.75 97.5 508.25C85.25 515.25 83.5 505 83.5 505L80.5 506C75 509.5 74 511.251 70 512.001C66 512.751 59.125 509.251 62.875 502.251C59.209 496.214 58 490.626 69.5 479.625C80.25 470.126 92.25 453.251 118.497 450.518Z" fill="#F1F1FC"/>
<path d="M60.5 504C66 496.25 83.85 479.7 111.25 475.5" stroke="#0F0967" stroke-width="3" stroke-linecap="round"/>
<path d="M82.25 505.75C88.75 499 95.5 494.25 114.25 489.5" stroke="#0F0967" stroke-width="3" stroke-linecap="round"/>
<path d="M61.25 487.25C66.75 479.5 84.6 462.95 112 458.75" stroke="#0F0967" stroke-width="3" stroke-linecap="round"/>
<path d="M239.206 417.428C294.319 391.323 291.791 327.05 296.722 278.2C296.96 275.841 299.07 274.142 301.428 274.378L344.825 278.728C368.579 281.11 385.941 302.269 383.647 326.042L378.09 383.637C378.056 383.996 377.975 384.355 377.851 384.694C354.583 448.721 306.691 482.125 245.955 486.923L173.481 492.561C171.059 492.749 168.954 490.908 168.818 488.48L166.628 449.431C166.494 447.028 168.33 444.857 170.679 444.339C178.534 442.606 198.312 436.798 239.206 417.428Z" fill="url(#paint1_linear_289:1570)"/>
<path d="M94.8229 565.903C94.8229 570.451 91.1385 574.139 86.5935 574.139C82.0485 574.139 78.364 570.451 78.364 565.903C78.364 561.354 82.0485 557.667 86.5935 557.667C91.1385 557.667 94.8229 561.354 94.8229 565.903Z" fill="white"/>
<path d="M261.145 508.686C261.145 513.234 257.46 516.922 252.915 516.922C248.37 516.922 244.686 513.234 244.686 508.686C244.686 504.137 248.37 500.45 252.915 500.45C257.46 500.45 261.145 504.137 261.145 508.686Z" fill="white"/>
<path d="M384.154 549.431C384.154 553.98 380.469 557.667 375.924 557.667C371.379 557.667 367.695 553.98 367.695 549.431C367.695 544.883 371.379 541.195 375.924 541.195C380.469 541.195 384.154 544.883 384.154 549.431Z" fill="white"/>
<path d="M237.756 573.705C237.756 578.253 234.072 581.94 229.526 581.94C224.981 581.94 221.297 578.253 221.297 573.705C221.297 569.156 224.981 565.469 229.526 565.469C234.072 565.469 237.756 569.156 237.756 573.705Z" fill="white"/>
<path d="M150.264 673.401C150.264 677.949 146.579 681.636 142.034 681.636C137.489 681.636 133.805 677.949 133.805 673.401C133.805 668.852 137.489 665.165 142.034 665.165C146.579 665.165 150.264 668.852 150.264 673.401Z" fill="white"/>
<path d="M92.2242 734.953C92.2242 739.501 88.5398 743.188 83.9947 743.188C79.4497 743.188 75.7653 739.501 75.7653 734.953C75.7653 730.404 79.4497 726.717 83.9947 726.717C88.5398 726.717 92.2242 730.404 92.2242 734.953Z" fill="white"/>
<path d="M166.723 812.109C166.723 816.657 163.038 820.345 158.493 820.345C153.948 820.345 150.264 816.657 150.264 812.109C150.264 807.56 153.948 803.873 158.493 803.873C163.038 803.873 166.723 807.56 166.723 812.109Z" fill="white"/>
<path fill-rule="evenodd" clip-rule="evenodd" d="M169.852 492.373C169.795 491.27 170.643 490.33 171.745 490.274L244.213 486.564C282.07 483.274 314.285 470.947 334.248 452.568L334.307 452.514L334.37 452.465C354.391 436.791 366.398 410.787 373.382 384.404C380.353 358.07 382.236 331.674 382.241 315.591C382.242 314.487 383.137 313.592 384.241 313.593C385.345 313.594 386.239 314.491 386.239 315.595C386.233 331.924 384.327 358.679 377.246 385.43C370.185 412.105 357.896 439.092 336.897 455.566C316.071 474.705 282.92 487.221 244.526 490.552L244.49 490.555L171.952 494.268C170.849 494.324 169.91 493.476 169.852 492.373Z" fill="white"/>
<path d="M296.558 87.7589C296.065 86.9274 296.34 85.8539 297.171 85.3613C298.003 84.8687 299.076 85.1435 299.569 85.975L296.558 87.7589ZM317.631 92.255C318.591 92.1443 319.459 92.833 319.57 93.7931C319.68 94.7533 318.992 95.6213 318.032 95.732L317.631 92.255ZM299.569 85.975C300.911 88.2406 303.688 90.0303 307.18 91.1509C310.633 92.2588 314.498 92.616 317.631 92.255L318.032 95.732C314.386 96.152 310.02 95.738 306.111 94.4835C302.241 93.2415 298.523 91.0774 296.558 87.7589L299.569 85.975Z" fill="#0F0967"/>
<path d="M295 138H304.5C308.393 138 310.812 140.562 310.812 144.062C310.812 146.688 309.312 150.125 305 150.125C299.765 150.125 296.75 150.125 296.75 150.125" stroke="#0F0967" stroke-width="4" stroke-linecap="round" stroke-linejoin="round"/>
<path d="M324.7 189.891C288.2 188.391 273.655 153.891 274.201 123.891C276.385 63.891 312.967 54.3906 343.543 52.8906C366.475 53.8902 405.24 64.8906 404.694 123.891C404.366 159.393 376.7 191.391 324.7 189.891Z" fill="#F1F1FC"/>
<path d="M295.449 148.142C300.5 146.25 309 145 318 149" stroke="#0F0967" stroke-width="3" stroke-linecap="round"/>
<path d="M306.2 121.891H301.2C299.367 121.891 295.5 121.441 294.7 126.641C293.9 131.841 300.2 133.141 302.45 133.391" stroke="#0F0967" stroke-width="3" stroke-linecap="round"/>
<circle cx="324.2" cy="107.391" r="3.5" fill="#0F0967"/>
<path d="M272.689 85.8869L361.624 84.6304C363.801 84.5997 365.663 86.1907 365.973 88.3472L369.247 111.117C369.71 114.341 373.428 115.92 376.068 114.015L382.658 109.258C389.95 104.896 395.894 107.822 399.061 111.929C406.579 121.68 396.705 130.462 397.715 129.25L398.002 128.94C397.867 129.077 397.773 129.18 397.715 129.25L385.943 141.943C384.858 143.113 384.503 144.784 385.019 146.294C385.2 173.891 380.2 203.391 372.18 225.701C372.105 227.61 373.282 229.364 375.13 229.841C405.7 240.891 453.2 228.891 464.011 206.206C465.423 204.695 465.092 202.421 463.847 200.77C454.964 188.982 439.443 151.517 432.797 98.9471C426.976 52.8972 395.209 33.4087 369.71 27.3684C303.297 11.6357 269.107 75.6663 268.353 80.3989C267.794 83.9055 270.318 85.4113 271.942 85.816C272.186 85.8769 272.437 85.8905 272.689 85.8869Z" fill="#0F43EC"/>
<circle cx="288.7" cy="105.891" r="3.5" fill="#0F0967"/>
<path d="M316.7 91.8906C319.692 96.3906 327.055 97.8906 336.95 97.8906" stroke="#0F0967" stroke-width="3" stroke-linecap="round"/>
<path d="M294.7 91.3906C292.078 95.8906 285.623 97.3906 276.95 97.3906" stroke="#0F0967" stroke-width="3" stroke-linecap="round"/>
<defs>
<linearGradient id="paint0_linear_289:1570" x1="252.317" y1="480.946" x2="252.317" y2="849.772" gradientUnits="userSpaceOnUse">
<stop stop-color="#081166"/>
<stop offset="1" stop-color="#1C22A2"/>
</linearGradient>
<linearGradient id="paint1_linear_289:1570" x1="172.118" y1="436.397" x2="297.144" y2="310.326" gradientUnits="userSpaceOnUse">
<stop stop-color="#4483FD"/>
<stop offset="1" stop-color="#2F72F4"/>
</linearGradient>
</defs>
</svg>
