<svg width="650" height="1269" viewBox="0 0 650 1269" fill="none" xmlns="http://www.w3.org/2000/svg">
<path fill-rule="evenodd" clip-rule="evenodd" d="M328.98 1179.74C333.554 1180.23 338.273 1181.22 341.363 1182.75C357.414 1190.69 384.257 1196.34 398.751 1198.53C430.986 1203.13 445.142 1226.2 448.542 1238.28C448.777 1239.12 448.864 1239.96 448.861 1240.76L448.804 1256.04C448.784 1261.28 444.743 1265.63 439.48 1265.93C424.101 1266.81 386.974 1268.65 348.774 1268.56C310.443 1268.46 272.616 1266.25 257.06 1265.23C251.805 1264.88 247.805 1260.5 247.825 1255.27L247.886 1239.04C247.041 1219.49 250.565 1199.33 253.413 1187.6C254.555 1182.89 259.008 1180 263.666 1180.34C290.185 1182.31 306.641 1181.48 316.298 1179.79C319.599 1179.21 324.381 1179.24 328.98 1179.74ZM328.551 1183.71C324.137 1183.23 319.771 1183.24 316.987 1183.73C306.867 1185.5 290.042 1186.31 263.371 1184.33C260.493 1184.12 257.939 1185.9 257.297 1188.54C254.496 1200.09 251.05 1219.87 251.881 1238.91L251.883 1238.96L251.822 1255.28C251.81 1258.44 254.209 1261.03 257.322 1261.24C272.846 1262.26 310.576 1264.46 348.783 1264.56C386.869 1264.65 423.905 1262.81 439.253 1261.94C442.371 1261.76 444.795 1259.18 444.807 1256.02L444.865 1240.74C444.866 1240.24 444.811 1239.78 444.695 1239.37C441.621 1228.45 428.511 1206.82 398.179 1202.49L398.163 1202.49C383.611 1200.29 356.238 1194.57 339.594 1186.34C337.144 1185.13 332.989 1184.19 328.551 1183.71Z" fill="white"/>
<path fill-rule="evenodd" clip-rule="evenodd" d="M446.652 1238.6L446.864 1240.59C447.076 1242.58 447.076 1242.58 447.075 1242.58L447.047 1242.58L446.968 1242.59L446.657 1242.62C446.383 1242.65 445.974 1242.69 445.432 1242.74C444.348 1242.84 442.732 1242.99 440.595 1243.16C436.32 1243.5 429.96 1243.96 421.604 1244.41C404.89 1245.31 380.19 1246.17 348.207 1246.04C316.225 1245.91 291.692 1244.86 275.147 1243.83C266.874 1243.32 260.598 1242.81 256.386 1242.44C254.28 1242.25 252.69 1242.09 251.624 1241.98C251.091 1241.93 250.689 1241.88 250.42 1241.85L250.114 1241.82L250.036 1241.81L250.011 1241.81C250.01 1241.81 250.008 1241.81 250.238 1239.82L250.468 1237.84L250.49 1237.84L250.562 1237.85L250.854 1237.88C251.115 1237.91 251.508 1237.95 252.032 1238C253.08 1238.11 254.653 1238.27 256.741 1238.45C260.917 1238.83 267.157 1239.33 275.393 1239.84C291.864 1240.86 316.32 1241.91 348.223 1242.04C380.125 1242.17 404.749 1241.31 421.389 1240.42C429.709 1239.97 436.033 1239.51 440.273 1239.17C442.393 1239 443.991 1238.86 445.058 1238.76C445.592 1238.71 445.992 1238.67 446.258 1238.64L446.556 1238.61L446.629 1238.6L446.652 1238.6Z" fill="white"/>
<path fill-rule="evenodd" clip-rule="evenodd" d="M265.427 1263.29L265.513 1240.39L269.509 1240.41L269.424 1263.31L265.427 1263.29Z" fill="white"/>
<path fill-rule="evenodd" clip-rule="evenodd" d="M338.389 1265.73L338.475 1242.83L342.471 1242.84L342.385 1265.75L338.389 1265.73Z" fill="white"/>
<path fill-rule="evenodd" clip-rule="evenodd" d="M283.414 1264.8L283.5 1241.9L287.497 1241.92L287.411 1264.82L283.414 1264.8Z" fill="white"/>
<path fill-rule="evenodd" clip-rule="evenodd" d="M356.171 1265.8L356.257 1242.9L360.254 1242.91L360.168 1265.81L356.171 1265.8Z" fill="white"/>
<path fill-rule="evenodd" clip-rule="evenodd" d="M301.807 1265.59L301.893 1242.69L305.889 1242.7L305.803 1265.6L301.807 1265.59Z" fill="white"/>
<path fill-rule="evenodd" clip-rule="evenodd" d="M374.462 1265.87L374.548 1242.97L378.545 1242.99L378.459 1265.89L374.462 1265.87Z" fill="white"/>
<path fill-rule="evenodd" clip-rule="evenodd" d="M410.452 1265.43L410.538 1242.52L414.535 1242.54L414.449 1265.44L410.452 1265.43Z" fill="white"/>
<path fill-rule="evenodd" clip-rule="evenodd" d="M319.082 1265.65L319.168 1242.75L323.165 1242.77L323.079 1265.67L319.082 1265.65Z" fill="white"/>
<path fill-rule="evenodd" clip-rule="evenodd" d="M391.737 1265.94L391.822 1243.04L395.819 1243.05L395.733 1265.95L391.737 1265.94Z" fill="white"/>
<path fill-rule="evenodd" clip-rule="evenodd" d="M427.503 1263.92L427.589 1241.02L431.586 1241.04L431.5 1263.94L427.503 1263.92Z" fill="white"/>
<path d="M417.184 768.791C416.727 767.491 417.692 766.129 419.071 766.129H598.982C600.36 766.129 601.325 767.491 600.869 768.791L594.892 785.816C594.189 787.82 592.297 789.16 590.174 789.16H427.878C425.755 789.16 423.864 787.82 423.16 785.816L417.184 768.791Z" fill="#2D81FF"/>
<path d="M408.501 963C408.501 827.819 408.501 852.5 408.501 737.5C408.501 699.02 406 635.363 406 625.363H209.48C197.5 657.5 199.396 709.37 220 746C247 794 254 817.5 259 858.5C264.2 901.137 266.025 946 263 1020L252 1182.09C251.212 1186.35 253.765 1190.49 257.975 1191.5C270.722 1194.56 301.1 1200.67 332 1203C355.25 1204.75 399.807 1200.9 409.501 1199.73C413.25 1199.27 416.097 1196.26 416.5 1192.5C409.501 1078 408.501 1003 408.501 963Z" fill="url(#paint0_linear_1215:4301)"/>
<path d="M320.108 137.992L420.398 147.963C421.129 148.036 421.728 148.574 421.88 149.294L434.786 210.56C435.822 215.477 432.364 220.208 427.37 220.706L414.836 221.957C414.032 222.037 413.397 222.684 413.321 223.489C408.472 274.489 395.455 315.04 388.894 340.861C388.518 342.341 386.506 342.642 385.689 341.352C374.784 324.138 345.944 289.443 287.079 263.698C286.366 263.387 285.943 262.623 286.075 261.855L293.274 219.86C293.354 219.391 293.233 218.91 292.94 218.535L276.012 199.046C275.719 198.671 275.598 198.189 275.678 197.72L288.159 136.751C288.307 135.885 289.094 135.277 289.968 135.354L320.108 137.992Z" fill="#F1F1FC"/>
<path d="M429.835 162.267L327.705 152.214C325.597 152.007 323.662 153.399 323.184 155.466L316.852 182.892C316.14 185.979 312.412 187.21 310.008 185.153L301.995 178.295C294.087 172.627 287.021 175.387 283.014 179.758C273.5 190.138 283.933 201.085 282.896 199.608L282.598 199.228C282.739 199.397 282.836 199.523 282.896 199.608L295.392 215.534C296.353 216.759 296.561 218.414 295.935 219.84L290.855 231.407C289.875 233.639 287.197 234.586 285.284 233.079C275.918 225.699 270.152 211.288 267.033 204.309C253.176 173.296 262.119 105.424 331.501 95.0818C400.883 84.7394 434.833 150.969 435.243 156.43C435.55 160.522 432.451 161.981 430.564 162.262C430.322 162.298 430.078 162.291 429.835 162.267Z" fill="#0F43EC"/>
<path d="M402.35 186.064C401.978 188.233 399.921 189.69 397.755 189.319C395.59 188.948 394.136 186.889 394.507 184.72C394.879 182.55 396.936 181.093 399.102 181.464C401.267 181.835 402.722 183.895 402.35 186.064Z" fill="#0F0967"/>
<path d="M399.625 338.489C373.384 301.449 316.791 269.096 278.707 259.377C271.519 257.543 265.425 261.801 260.736 267.623C193.793 331.453 182.737 474.979 204.273 616.314C205.209 619.969 207.204 623.833 210.971 623.822L408.333 622.434C412.988 622.42 415.99 611.132 416.615 606.512L416.706 605.843C418.722 590.98 425.125 543.757 423.422 491.118C421.293 425.322 414.5 360.582 399.625 338.489Z" fill="#120F8A"/>
<path d="M420.736 628.528L386.203 608.589L357.4 642.513C375.703 662.375 380.81 666.608 397.894 675.099C407.763 680.005 412.541 680.104 419.601 690.126L438.636 717.216C443.806 724.816 447.725 727.82 452.194 725.239C456.663 722.659 455.624 718.907 455.571 717.762L452.64 710.257L459.812 716.533C466.855 720.062 471.735 714.184 470.989 710.393C474.612 706.253 472.919 701.554 471.985 699.004C466.845 684.978 461.164 675.441 451.555 661.325L443.824 650.709C439.785 642.782 426.025 631.327 420.736 628.528Z" fill="#F1F1FC"/>
<path fill-rule="evenodd" clip-rule="evenodd" d="M436.919 659.191C437.706 658.416 438.972 658.426 439.746 659.212C450.803 670.448 457.362 679.313 462.014 687.25C465.469 693.144 467.873 698.54 470.253 703.883C471.057 705.688 471.858 707.486 472.696 709.296C473.16 710.298 472.724 711.487 471.723 711.952C470.721 712.416 469.533 711.981 469.069 710.98C468.183 709.067 467.354 707.207 466.534 705.367C464.178 700.078 461.898 694.96 458.565 689.274C454.104 681.663 447.758 673.056 436.895 662.018C436.121 661.232 436.132 659.966 436.919 659.191Z" fill="#060D34"/>
<path fill-rule="evenodd" clip-rule="evenodd" d="M427.728 671.233C428.575 670.524 429.835 670.636 430.544 671.482C437.493 679.79 441.983 686.188 446.009 693.065C446.026 693.095 446.043 693.125 446.059 693.156L454.843 710.126C455.35 711.106 454.966 712.313 453.986 712.821C453.005 713.33 451.799 712.947 451.292 711.967L442.532 695.043C438.642 688.403 434.291 682.196 427.476 674.05C426.768 673.203 426.881 671.942 427.728 671.233Z" fill="#060D34"/>
<path d="M369.29 478.919C371.929 458.396 372.923 432.487 385.181 389.636C394.215 363.662 399.259 337.814 354.156 319.024C318.074 303.992 293.088 337.05 285.742 351.343C253.561 413.959 253.56 475.626 257.243 502.669C263.711 550.164 295.063 585.322 354.291 644.882C356.015 646.616 358.761 646.865 360.752 645.447L400.358 617.242C402.247 615.896 402.96 613.43 402.107 611.273C389.395 579.1 380.824 544.299 371.627 513.565C369.109 505.148 368.238 487.101 369.29 478.919Z" fill="url(#paint1_linear_1215:4301)"/>
<path d="M404.376 173.675C405.042 172.975 405.015 171.867 404.315 171.201C403.615 170.534 402.508 170.561 401.841 171.261L404.376 173.675ZM382.831 173.33C381.92 173.007 380.919 173.483 380.596 174.394C380.273 175.305 380.749 176.305 381.66 176.628L382.831 173.33ZM401.841 171.261C400.025 173.168 396.917 174.289 393.263 174.598C389.649 174.903 385.803 174.384 382.831 173.33L381.66 176.628C385.119 177.855 389.466 178.431 393.557 178.085C397.608 177.743 401.715 176.468 404.376 173.675L401.841 171.261Z" fill="#0F0967"/>
<path fill-rule="evenodd" clip-rule="evenodd" d="M402.936 227.651C402.265 228.527 401.01 228.691 400.134 228.019C389.288 219.686 377.552 222.506 373.173 224.866C372.202 225.39 370.989 225.026 370.465 224.054C369.941 223.082 370.304 221.869 371.276 221.345C376.612 218.469 390.127 215.289 402.567 224.847C403.443 225.52 403.608 226.775 402.936 227.651Z" fill="#0F0967"/>
<ellipse cx="350.785" cy="396.324" rx="49.0541" ry="48.5586" transform="rotate(-1.36033 350.785 396.324)" fill="#59F0E7" fill-opacity="0.3"/>
<ellipse cx="351.051" cy="396.317" rx="42.3649" ry="41.9369" transform="rotate(-1.36033 351.051 396.317)" fill="#59F0E7" fill-opacity="0.4"/>
<ellipse cx="350.785" cy="396.323" rx="34.7838" ry="34.8739" transform="rotate(-1.36033 350.785 396.323)" fill="#59F0E7"/>
<mask id="path-28-outside-1_1215:4301" maskUnits="userSpaceOnUse" x="327.369" y="368.433" width="46.2455" height="54.0534" fill="black">
<rect fill="white" x="327.369" y="368.433" width="46.2455" height="54.0534"/>
<path d="M360.401 390.645C361.385 392.881 361.225 393.946 361.361 394.621C361.402 394.823 361.602 395.022 361.801 394.973C361.858 394.958 361.903 394.918 361.952 394.886C362.219 394.71 362.465 394.357 362.678 393.951C363.078 393.19 364.131 393.076 364.456 393.871C365.916 397.441 366.025 401.55 364.814 405.036C364.136 406.698 362.08 410.862 356.801 413.25C355.213 414.095 350.797 415.35 345.831 413.614C340.865 411.88 338.215 408.342 337.134 406.002C336.702 405.086 335.935 403.047 336.167 399.852C336.23 398.205 337.769 393.848 337.961 393.329C338.751 391.155 339.004 389.026 339.047 387.668C339.065 387.096 339.491 386.761 339.992 387.04C340.289 387.205 340.612 387.403 340.904 387.601C341.397 387.954 341.81 388.277 342.175 388.601C342.815 389.168 343.947 388.926 344.199 388.11C344.923 385.768 345.9 383.681 347.13 381.898C348.601 379.691 350.585 377.913 352.741 376.718C353.467 376.316 354.337 377.036 354.303 377.865C354.249 379.178 354.369 380.948 354.926 382.948C354.945 383.015 354.971 383.081 355.005 383.142C355.543 384.12 356.357 384.999 357.074 385.88C357.389 386.181 357.604 386.587 357.919 386.888C359.611 389.008 359.929 389.572 360.401 390.645Z"/>
</mask>
<path d="M360.401 390.645C361.385 392.881 361.225 393.946 361.361 394.621C361.402 394.823 361.602 395.022 361.801 394.973C361.858 394.958 361.903 394.918 361.952 394.886C362.219 394.71 362.465 394.357 362.678 393.951C363.078 393.19 364.131 393.076 364.456 393.871C365.916 397.441 366.025 401.55 364.814 405.036C364.136 406.698 362.08 410.862 356.801 413.25C355.213 414.095 350.797 415.35 345.831 413.614C340.865 411.88 338.215 408.342 337.134 406.002C336.702 405.086 335.935 403.047 336.167 399.852C336.23 398.205 337.769 393.848 337.961 393.329C338.751 391.155 339.004 389.026 339.047 387.668C339.065 387.096 339.491 386.761 339.992 387.04C340.289 387.205 340.612 387.403 340.904 387.601C341.397 387.954 341.81 388.277 342.175 388.601C342.815 389.168 343.947 388.926 344.199 388.11C344.923 385.768 345.9 383.681 347.13 381.898C348.601 379.691 350.585 377.913 352.741 376.718C353.467 376.316 354.337 377.036 354.303 377.865C354.249 379.178 354.369 380.948 354.926 382.948C354.945 383.015 354.971 383.081 355.005 383.142C355.543 384.12 356.357 384.999 357.074 385.88C357.389 386.181 357.604 386.587 357.919 386.888C359.611 389.008 359.929 389.572 360.401 390.645Z" fill="#CA0D7B"/>
<path d="M361.361 394.621L368.224 393.24L368.224 393.24L361.361 394.621ZM360.401 390.645L353.994 393.464L353.994 393.464L360.401 390.645ZM357.919 386.888L363.39 382.522L363.097 382.154L362.757 381.829L357.919 386.888ZM357.074 385.88L351.647 390.3L351.922 390.638L352.237 390.939L357.074 385.88ZM355.005 383.142L348.871 386.515L348.871 386.515L355.005 383.142ZM352.741 376.718L349.348 370.595L349.348 370.595L352.741 376.718ZM347.13 381.898L352.892 385.872L352.923 385.828L352.953 385.782L347.13 381.898ZM344.199 388.11L350.887 390.177L350.887 390.177L344.199 388.11ZM342.175 388.601L337.53 393.837L337.53 393.837L342.175 388.601ZM340.904 387.601L344.977 381.908L344.91 381.86L344.843 381.815L340.904 387.601ZM339.992 387.04L336.586 393.155L336.586 393.155L339.992 387.04ZM337.961 393.329L344.523 395.768L344.532 395.743L344.541 395.718L337.961 393.329ZM336.167 399.852L343.148 400.359L343.157 400.241L343.162 400.122L336.167 399.852ZM337.134 406.002L343.488 403.065L343.476 403.039L343.464 403.014L337.134 406.002ZM345.831 413.614L348.141 407.006L348.138 407.005L345.831 413.614ZM356.801 413.25L353.915 406.873L353.711 406.965L353.513 407.071L356.801 413.25ZM364.814 405.036L371.295 407.682L371.366 407.509L371.427 407.332L364.814 405.036ZM364.456 393.871L370.936 391.221L370.936 391.221L364.456 393.871ZM339.047 387.668L332.05 387.447L332.05 387.447L339.047 387.668ZM354.303 377.865L347.309 377.579L347.309 377.579L354.303 377.865ZM354.926 382.948L361.669 381.067L361.669 381.067L354.926 382.948ZM362.678 393.951L356.481 390.696L356.481 390.696L362.678 393.951ZM361.952 394.886L358.105 389.038L358.105 389.038L361.952 394.886ZM361.801 394.973L363.493 401.765L363.493 401.765L361.801 394.973ZM368.224 393.24C368.287 393.552 368.3 393.82 368.267 393.437C368.246 393.185 368.205 392.704 368.113 392.121C367.917 390.885 367.537 389.482 366.808 387.825L353.994 393.464C354.249 394.044 354.282 394.291 354.286 394.316C354.293 394.363 354.3 394.414 354.317 394.621C354.324 394.701 354.34 394.901 354.362 395.096C354.384 395.303 354.423 395.626 354.499 396.001L368.224 393.24ZM366.808 387.825C365.989 385.963 365.256 384.86 363.39 382.522L352.448 391.255C353.275 392.291 353.593 392.735 353.744 392.966C353.812 393.072 353.838 393.109 353.994 393.464L366.808 387.825ZM362.757 381.829C362.953 382.017 363.08 382.169 363.126 382.225C363.162 382.269 363.181 382.296 363.1 382.188C363.048 382.119 362.897 381.916 362.722 381.701C362.538 381.475 362.266 381.159 361.912 380.82L352.237 390.939C352.04 390.751 351.913 390.599 351.868 390.543C351.832 390.499 351.813 390.472 351.894 390.58C351.945 390.649 352.097 390.852 352.271 391.067C352.456 391.293 352.728 391.609 353.082 391.948L362.757 381.829ZM362.502 381.459C362.283 381.191 362.057 380.922 361.89 380.722C361.706 380.504 361.568 380.337 361.446 380.183C361.191 379.864 361.131 379.754 361.138 379.768L348.871 386.515C349.815 388.23 351.344 389.928 351.647 390.3L362.502 381.459ZM349.348 370.595C346.237 372.319 343.412 374.857 341.306 378.014L352.953 385.782C353.791 384.526 354.933 383.506 356.135 382.84L349.348 370.595ZM341.367 377.923C339.673 380.38 338.411 383.132 337.512 386.043L350.887 390.177C351.435 388.404 352.126 386.983 352.892 385.872L341.367 377.923ZM346.821 383.365C346.223 382.835 345.606 382.358 344.977 381.908L336.831 393.294C337.188 393.55 337.397 393.72 337.53 393.837L346.821 383.365ZM344.843 381.815C344.361 381.486 343.857 381.18 343.397 380.924L336.586 393.155C336.72 393.23 336.864 393.319 336.964 393.387L344.843 381.815ZM331.4 390.89C331.259 391.269 330.782 392.618 330.323 394.117C329.967 395.277 329.245 397.681 329.172 399.583L343.162 400.122C343.153 400.35 343.13 400.441 343.15 400.324C343.166 400.234 343.197 400.078 343.252 399.85C343.363 399.392 343.523 398.825 343.709 398.218C343.891 397.622 344.081 397.046 344.236 396.587C344.314 396.359 344.381 396.165 344.433 396.018C344.459 395.944 344.481 395.884 344.497 395.839C344.505 395.816 344.512 395.798 344.516 395.785C344.521 395.772 344.523 395.766 344.523 395.768L331.4 390.89ZM329.185 399.345C328.85 403.965 329.962 407.207 330.803 408.99L343.464 403.014C343.441 402.965 343.02 402.129 343.148 400.359L329.185 399.345ZM330.78 408.938C332.48 412.618 336.404 417.737 343.524 420.222L348.138 407.005C345.325 406.023 343.951 404.067 343.488 403.065L330.78 408.938ZM359.687 419.628C367.283 416.191 370.291 410.141 371.295 407.682L358.334 402.389C357.98 403.255 356.876 405.533 353.915 406.873L359.687 419.628ZM371.427 407.332C373.208 402.203 373.027 396.337 370.936 391.221L357.977 396.52C358.806 398.546 358.842 400.897 358.201 402.74L371.427 407.332ZM353.513 407.071C353.611 407.018 352.997 407.318 351.851 407.438C350.793 407.55 349.506 407.483 348.141 407.006L343.52 420.221C350.596 422.695 357.042 421.051 360.089 419.43L353.513 407.071ZM332.05 387.447C332.024 388.264 331.859 389.626 331.382 390.94L344.541 395.718C345.643 392.683 345.983 389.789 346.043 387.889L332.05 387.447ZM347.309 377.579C347.228 379.549 347.411 382.057 348.184 384.829L361.669 381.067C361.327 379.839 361.27 378.806 361.297 378.15L347.309 377.579ZM356.481 390.696C356.487 390.683 356.57 390.524 356.746 390.29C356.893 390.095 357.325 389.551 358.105 389.038L365.8 400.733C367.655 399.513 368.585 397.759 368.875 397.205L356.481 390.696ZM337.512 386.043C338.261 383.618 340.22 382.411 341.749 382.056C343.242 381.709 345.21 381.935 346.821 383.365L337.53 393.837C339.78 395.834 342.634 396.223 344.916 395.693C347.234 395.154 349.885 393.418 350.887 390.177L337.512 386.043ZM356.135 382.84C353.541 384.278 350.94 383.454 349.544 382.382C348.234 381.376 347.223 379.67 347.309 377.579L361.297 378.15C361.416 375.23 359.987 372.75 358.07 371.278C356.066 369.739 352.667 368.756 349.348 370.595L356.135 382.84ZM360.109 388.18C362.882 387.49 365.047 388.688 366.093 389.59C367.134 390.488 367.923 391.744 368.224 393.24L354.499 396.001C354.84 397.699 355.749 399.157 356.95 400.193C358.156 401.232 360.521 402.506 363.493 401.765L360.109 388.18ZM361.138 379.768C361.384 380.215 361.554 380.656 361.669 381.067L348.184 384.829C348.336 385.374 348.558 385.946 348.871 386.515L361.138 379.768ZM363.493 401.765C364.609 401.487 365.388 401.005 365.701 400.801C365.787 400.745 365.856 400.697 365.901 400.666C365.943 400.637 365.979 400.611 365.983 400.609C366.019 400.582 365.919 400.655 365.8 400.733L358.105 389.038C358.024 389.091 357.959 389.136 357.919 389.164C357.898 389.179 357.881 389.191 357.87 389.199C357.86 389.206 357.85 389.213 357.85 389.213C357.823 389.232 357.928 389.156 358.059 389.071C358.323 388.899 359.051 388.444 360.109 388.18L363.493 401.765ZM343.397 380.924C341.215 379.709 338.047 379.389 335.316 381.306C332.883 383.014 332.109 385.587 332.05 387.447L346.043 387.889C346.003 389.177 345.45 391.297 343.36 392.764C340.973 394.44 338.268 394.092 336.586 393.155L343.397 380.924ZM370.936 391.221C369.533 387.792 366.217 386.131 363.117 386.344C360.297 386.537 357.791 388.201 356.481 390.696L368.875 397.205C367.965 398.939 366.185 400.166 364.073 400.311C361.681 400.475 359.054 399.154 357.977 396.52L370.936 391.221Z" fill="#FF7EC9" mask="url(#path-28-outside-1_1215:4301)"/>
<path d="M355.373 408.62C354.254 409.796 352.717 410.572 350.997 410.612C346.331 410.723 342.191 405.401 345.606 400.885C346.949 398.8 348.812 397.935 349.498 395.783C349.806 394.955 349.863 393.886 349.766 393.231C349.678 392.987 349.575 392.086 349.573 392.004C349.571 391.922 349.571 391.922 349.652 391.92L349.732 391.836C349.814 391.834 349.814 391.834 349.896 391.832C350.064 391.992 350.231 392.153 350.399 392.313C350.734 392.633 351.153 393.034 351.489 393.355C352.327 394.156 353.097 395.534 353.297 397.089C353.508 399.055 353.056 400.709 351.607 401.811C352.268 402.041 352.923 402.026 353.654 401.762C354.79 401.324 355.43 400.652 355.654 399.743C355.654 399.743 355.652 399.661 355.734 399.659L355.816 399.658C356.477 399.888 357.237 400.856 357.373 403.152C357.25 404.879 357.052 406.855 355.373 408.62Z" fill="#FFADDD"/>
<defs>
<linearGradient id="paint0_linear_1215:4301" x1="305.443" y1="833.026" x2="305.443" y2="1192.17" gradientUnits="userSpaceOnUse">
<stop stop-color="#0B2BED"/>
<stop offset="1" stop-color="#0F0967"/>
</linearGradient>
<linearGradient id="paint1_linear_1215:4301" x1="390.006" y1="383.373" x2="434.502" y2="594.72" gradientUnits="userSpaceOnUse">
<stop stop-color="#110F89"/>
<stop offset="0.335202" stop-color="#0D1998"/>
<stop offset="1" stop-color="#0239C6"/>
</linearGradient>
</defs>
</svg>
