<svg width="561" height="1121" viewBox="0 0 561 1121" fill="none" xmlns="http://www.w3.org/2000/svg">
<path fill-rule="evenodd" clip-rule="evenodd" d="M352.05 1027.9C356.597 1028.6 361.267 1029.81 364.284 1031.48C379.959 1040.13 406.517 1047 420.896 1049.84C452.89 1055.91 465.984 1079.59 468.832 1091.82C469.029 1092.66 469.078 1093.5 469.039 1094.3L468.288 1109.57C468.031 1114.8 463.796 1118.97 458.524 1119.03C443.121 1119.2 405.95 1119.36 367.793 1117.53C329.505 1115.7 291.818 1111.77 276.325 1110.04C271.091 1109.46 267.294 1104.9 267.551 1099.67L268.348 1083.46C268.391 1063.9 272.827 1043.92 276.205 1032.33C277.56 1027.68 282.139 1024.99 286.776 1025.54C313.179 1028.71 329.655 1028.63 339.379 1027.38C342.703 1026.95 347.479 1027.2 352.05 1027.9ZM351.441 1031.85C347.054 1031.18 342.692 1030.98 339.889 1031.34C329.699 1032.66 312.854 1032.7 286.301 1029.51C283.435 1029.17 280.803 1030.84 280.042 1033.45C276.719 1044.85 272.38 1064.45 272.345 1083.52L272.345 1083.57L271.543 1099.87C271.388 1103.02 273.667 1105.72 276.767 1106.07C292.228 1107.79 329.82 1111.71 367.983 1113.53C406.026 1115.36 443.108 1115.2 458.479 1115.03C461.602 1114.99 464.141 1112.53 464.296 1109.37L465.047 1094.1C465.072 1093.6 465.037 1093.14 464.94 1092.72C462.365 1081.68 450.25 1059.47 420.146 1053.77L420.129 1053.77C405.692 1050.91 378.607 1043.95 362.354 1034.98C359.962 1033.66 355.853 1032.54 351.441 1031.85Z" fill="white"/>
<path fill-rule="evenodd" clip-rule="evenodd" d="M466.929 1092.05L467.05 1094.04C467.172 1096.04 467.172 1096.04 467.171 1096.04L467.144 1096.04L467.064 1096.05L466.752 1096.06C466.477 1096.08 466.067 1096.1 465.523 1096.13C464.435 1096.18 462.814 1096.25 460.671 1096.32C456.385 1096.48 450.011 1096.64 441.643 1096.71C424.906 1096.85 400.192 1096.59 368.248 1095.01C336.305 1093.43 311.845 1091.26 295.363 1089.49C287.122 1088.6 280.875 1087.81 276.685 1087.24C274.589 1086.96 273.008 1086.73 271.948 1086.57C271.419 1086.49 271.019 1086.43 270.751 1086.39L270.448 1086.34L270.37 1086.33L270.345 1086.33C270.344 1086.33 270.342 1086.33 270.662 1084.35L270.983 1082.38L271.004 1082.38L271.075 1082.39L271.366 1082.44C271.625 1082.48 272.016 1082.54 272.537 1082.62C273.579 1082.77 275.143 1083 277.221 1083.28C281.376 1083.84 287.586 1084.63 295.79 1085.51C312.199 1087.28 336.581 1089.44 368.445 1091.02C400.309 1092.59 424.946 1092.85 441.61 1092.71C449.941 1092.64 456.28 1092.48 460.531 1092.33C462.656 1092.25 464.26 1092.18 465.33 1092.13C465.865 1092.1 466.267 1092.08 466.534 1092.07L466.833 1092.05L466.906 1092.05L466.929 1092.05Z" fill="white"/>
<path fill-rule="evenodd" clip-rule="evenodd" d="M284.77 1108.49L285.896 1085.61L289.887 1085.81L288.762 1108.68L284.77 1108.49Z" fill="white"/>
<path fill-rule="evenodd" clip-rule="evenodd" d="M357.547 1114.23L358.672 1091.36L362.664 1091.56L361.539 1114.43L357.547 1114.23Z" fill="white"/>
<path fill-rule="evenodd" clip-rule="evenodd" d="M302.672 1110.81L303.797 1087.94L307.789 1088.14L306.664 1111.01L302.672 1110.81Z" fill="white"/>
<path fill-rule="evenodd" clip-rule="evenodd" d="M375.308 1115.11L376.433 1092.24L380.424 1092.43L379.299 1115.31L375.308 1115.11Z" fill="white"/>
<path fill-rule="evenodd" clip-rule="evenodd" d="M321.01 1112.43L322.135 1089.56L326.127 1089.76L325.002 1112.63L321.01 1112.43Z" fill="white"/>
<path fill-rule="evenodd" clip-rule="evenodd" d="M393.576 1116.01L394.701 1093.14L398.693 1093.34L397.568 1116.21L393.576 1116.01Z" fill="white"/>
<path fill-rule="evenodd" clip-rule="evenodd" d="M429.55 1117.2L430.675 1094.33L434.667 1094.52L433.542 1117.4L429.55 1117.2Z" fill="white"/>
<path fill-rule="evenodd" clip-rule="evenodd" d="M338.263 1113.28L339.388 1090.41L343.379 1090.61L342.254 1113.48L338.263 1113.28Z" fill="white"/>
<path fill-rule="evenodd" clip-rule="evenodd" d="M410.83 1116.86L411.955 1093.99L415.947 1094.19L414.822 1117.06L410.83 1116.86Z" fill="white"/>
<path fill-rule="evenodd" clip-rule="evenodd" d="M446.651 1116.47L447.776 1093.6L451.768 1093.8L450.643 1116.67L446.651 1116.47Z" fill="white"/>
<path fill-rule="evenodd" clip-rule="evenodd" d="M352.446 1027.9C356.993 1028.6 361.663 1029.81 364.68 1031.48C380.354 1040.13 406.913 1047 421.292 1049.84C453.286 1055.91 466.379 1079.59 469.227 1091.82C469.425 1092.66 469.474 1093.5 469.434 1094.3L468.683 1109.57C468.426 1114.8 464.191 1118.97 458.92 1119.03C443.517 1119.2 406.345 1119.36 368.188 1117.53C329.901 1115.7 292.213 1111.77 276.72 1110.04C271.486 1109.46 267.69 1104.9 267.947 1099.67L268.744 1083.46C268.787 1063.9 273.223 1043.92 276.601 1032.33C277.955 1027.68 282.535 1024.99 287.172 1025.54C313.575 1028.71 330.051 1028.63 339.775 1027.38C343.099 1026.95 347.875 1027.2 352.446 1027.9ZM351.837 1031.85C347.45 1031.18 343.088 1030.98 340.285 1031.34C330.095 1032.66 313.25 1032.7 286.696 1029.51C283.831 1029.17 281.198 1030.84 280.438 1033.45C277.115 1044.85 272.776 1064.45 272.74 1083.52L272.74 1083.57L271.939 1099.87C271.783 1103.02 274.063 1105.72 277.163 1106.07C292.624 1107.79 330.215 1111.71 368.379 1113.53C406.421 1115.36 443.503 1115.2 458.874 1115.03C461.998 1114.99 464.536 1112.53 464.692 1109.37L465.442 1094.1C465.467 1093.6 465.433 1093.14 465.335 1092.72C462.761 1081.68 450.646 1059.47 420.541 1053.77L420.525 1053.77C406.088 1050.91 379.003 1043.95 362.749 1034.98C360.357 1033.66 356.248 1032.54 351.837 1031.85Z" fill="white"/>
<path fill-rule="evenodd" clip-rule="evenodd" d="M467.324 1092.05L467.446 1094.04C467.568 1096.04 467.567 1096.04 467.567 1096.04L467.539 1096.04L467.459 1096.05L467.148 1096.06C466.872 1096.08 466.462 1096.1 465.918 1096.13C464.831 1096.18 463.21 1096.25 461.067 1096.32C456.781 1096.48 450.407 1096.64 442.038 1096.71C425.302 1096.85 400.587 1096.59 368.644 1095.01C336.7 1093.43 312.241 1091.26 295.759 1089.49C287.518 1088.6 281.271 1087.81 277.08 1087.24C274.985 1086.96 273.404 1086.73 272.344 1086.57C271.814 1086.49 271.415 1086.43 271.147 1086.39L270.843 1086.34L270.766 1086.33L270.74 1086.33C270.74 1086.33 270.738 1086.33 271.058 1084.35L271.378 1082.38L271.4 1082.38L271.471 1082.39L271.761 1082.44C272.021 1082.48 272.411 1082.54 272.932 1082.62C273.975 1082.77 275.539 1083 277.616 1083.28C281.771 1083.84 287.982 1084.63 296.186 1085.51C312.594 1087.28 336.977 1089.44 368.841 1091.02C400.704 1092.59 425.342 1092.85 442.005 1092.71C450.337 1092.64 456.675 1092.48 460.926 1092.33C463.052 1092.25 464.655 1092.18 465.726 1092.13C466.261 1092.1 466.662 1092.08 466.929 1092.07L467.228 1092.05L467.302 1092.05L467.324 1092.05Z" fill="white"/>
<path fill-rule="evenodd" clip-rule="evenodd" d="M285.166 1108.49L286.291 1085.61L290.283 1085.81L289.158 1108.68L285.166 1108.49Z" fill="white"/>
<path fill-rule="evenodd" clip-rule="evenodd" d="M357.942 1114.23L359.067 1091.36L363.059 1091.56L361.934 1114.43L357.942 1114.23Z" fill="white"/>
<path fill-rule="evenodd" clip-rule="evenodd" d="M303.067 1110.81L304.192 1087.94L308.184 1088.14L307.059 1111.01L303.067 1110.81Z" fill="white"/>
<path fill-rule="evenodd" clip-rule="evenodd" d="M375.703 1115.11L376.828 1092.24L380.82 1092.43L379.695 1115.31L375.703 1115.11Z" fill="white"/>
<path fill-rule="evenodd" clip-rule="evenodd" d="M321.405 1112.43L322.53 1089.56L326.522 1089.76L325.397 1112.63L321.405 1112.43Z" fill="white"/>
<path fill-rule="evenodd" clip-rule="evenodd" d="M393.972 1116.01L395.097 1093.14L399.089 1093.34L397.964 1116.21L393.972 1116.01Z" fill="white"/>
<path fill-rule="evenodd" clip-rule="evenodd" d="M429.945 1117.2L431.07 1094.33L435.062 1094.52L433.937 1117.4L429.945 1117.2Z" fill="white"/>
<path fill-rule="evenodd" clip-rule="evenodd" d="M338.658 1113.28L339.783 1090.41L343.775 1090.61L342.65 1113.48L338.658 1113.28Z" fill="white"/>
<path fill-rule="evenodd" clip-rule="evenodd" d="M411.226 1116.86L412.351 1093.99L416.342 1094.19L415.217 1117.06L411.226 1116.86Z" fill="white"/>
<path fill-rule="evenodd" clip-rule="evenodd" d="M447.047 1116.47L448.172 1093.6L452.164 1093.8L451.039 1116.67L447.047 1116.47Z" fill="white"/>
<path d="M423 829.363C422.048 726.363 407.987 654.363 279 555.363L83.0002 489.363C62.5003 515.863 48.2695 563.201 57 597.5C72.6168 658.852 128.246 669.635 225 722.5C294.618 760.539 296.567 844.606 291.926 875.156L263.477 1029.03C262.688 1033.29 265.242 1037.43 269.452 1038.44C282.199 1041.5 310.004 1047.17 340.992 1047.17C370.688 1047.17 391.293 1045.22 400.988 1044.04C404.736 1043.59 407.584 1040.58 407.987 1036.82C418.145 942.026 423.435 876.379 423 829.363Z" fill="url(#paint0_linear_1215:4299)"/>
<path d="M358.225 623.791C357.768 622.491 358.733 621.129 360.112 621.129H540.023C541.401 621.129 542.366 622.491 541.91 623.791L535.933 640.816C535.23 642.82 533.338 644.16 531.215 644.16H368.919C366.796 644.16 364.905 642.82 364.201 640.816L358.225 623.791Z" fill="#2D81FF"/>
<path d="M346.431 69.1759L438.001 111.276C438.669 111.583 439.06 112.287 438.969 113.017L431.212 175.145C430.589 180.131 425.778 183.478 420.895 182.322L408.637 179.421C407.85 179.234 407.04 179.639 406.705 180.376C385.506 227.014 359.988 261.112 345.373 283.386C344.535 284.664 342.535 284.293 342.183 282.807C337.481 262.979 321.517 220.781 274.251 177.264C273.678 176.737 273.527 175.878 273.902 175.194L294.389 137.835C294.618 137.418 294.661 136.923 294.506 136.474L284.85 112.533C284.696 112.083 284.738 111.588 284.967 111.171L316.629 57.5936C317.052 56.8232 317.994 56.5051 318.795 56.8621L346.431 69.1759Z" fill="#F1F1FC"/>
<path d="M442.262 127.874L348.979 85.0967C347.054 84.2138 344.771 84.8994 343.646 86.6983L328.724 110.565C327.045 113.252 323.12 113.201 321.517 110.473L316.175 101.379C310.545 93.444 302.966 93.7511 297.753 96.5788C285.376 103.292 291.674 117.041 291.175 115.307L291.017 114.851C291.095 115.056 291.146 115.207 291.175 115.307L297.8 134.435C298.31 135.906 297.968 137.539 296.911 138.683L288.34 147.964C286.686 149.755 283.846 149.778 282.529 147.73C276.078 137.701 275.32 122.198 274.646 114.583C271.648 80.7484 302.215 19.4928 371.181 32.3182C440.148 45.1436 450.669 118.82 449.277 124.117C448.234 128.086 444.829 128.455 442.953 128.106C442.713 128.062 442.484 127.976 442.262 127.874Z" fill="#0F43EC"/>
<path d="M408.525 141.418C407.467 143.348 405.048 144.056 403.121 142.999C401.195 141.943 400.491 139.522 401.549 137.593C402.607 135.663 405.027 134.955 406.953 136.012C408.88 137.068 409.583 139.489 408.525 141.418Z" fill="#0F0967"/>
<path d="M356.291 284.64C343.548 241.071 300.583 192.047 267.743 170.45C261.545 166.374 254.397 168.415 248.066 172.391C140.814 214.351 98.0046 341.981 81.0853 483.664C80.7796 487.425 81.4065 491.729 84.9722 492.946L287.681 559.202C292.086 560.705 296.19 556.269 297.696 551.856C299.357 527.112 318.338 467.997 325.65 433.422C339.271 369.015 363.156 310.374 356.291 284.64Z" fill="#120F8A"/>
<path d="M306.9 559.837L276.565 533.955L242.077 562.08C256.466 584.937 260.719 590.027 275.975 601.482C284.789 608.099 289.469 609.065 294.591 620.203L308.386 650.301C312.088 658.714 315.396 662.38 320.26 660.654C325.124 658.929 324.784 655.051 324.939 653.916L323.422 646.002L329.333 653.478C335.618 658.227 341.484 653.335 341.44 649.471C345.755 646.058 344.944 641.13 344.489 638.452C341.984 623.726 338.13 613.315 331.246 597.688L325.573 585.844C323.041 577.315 311.592 563.551 306.9 559.837Z" fill="#F1F1FC"/>
<path fill-rule="evenodd" clip-rule="evenodd" d="M317.241 592.93C318.156 592.311 319.398 592.551 320.017 593.465C328.848 606.522 333.687 616.432 336.82 625.083C339.146 631.506 340.529 637.249 341.899 642.935C342.361 644.856 342.822 646.771 343.318 648.703C343.592 649.772 342.947 650.862 341.878 651.137C340.808 651.412 339.719 650.768 339.445 649.699C338.921 647.657 338.444 645.677 337.972 643.72C336.616 638.09 335.304 632.643 333.06 626.446C330.056 618.151 325.38 608.534 316.704 595.706C316.086 594.792 316.326 593.549 317.241 592.93Z" fill="#060D34"/>
<path fill-rule="evenodd" clip-rule="evenodd" d="M306.016 603.102C306.977 602.559 308.197 602.898 308.739 603.859C314.064 613.292 317.316 620.399 320.025 627.893C320.037 627.925 320.048 627.958 320.058 627.991L325.612 646.275C325.932 647.331 325.336 648.448 324.279 648.77C323.223 649.091 322.106 648.496 321.786 647.44L316.247 629.206C313.628 621.97 310.478 615.076 305.257 605.826C304.714 604.865 305.054 603.646 306.016 603.102Z" fill="#060D34"/>
<path d="M283.497 403.369C289.822 383.668 295.508 358.371 315.348 318.461C328.952 294.561 338.609 270.06 297.671 243.387C264.921 222.048 234.344 250.015 224.523 262.736C181.5 318.461 170.293 379.101 169 406.363C166.73 454.244 191.171 494.513 238.59 563.844C239.97 565.862 242.625 566.606 244.841 565.574L288.912 545.035C291.014 544.055 292.164 541.76 291.717 539.484C285.063 505.536 282.959 469.757 279.5 437.863C278.553 429.129 280.976 411.225 283.497 403.369Z" fill="url(#paint1_linear_1215:4299)"/>
<path d="M414.475 130.365C415.333 129.92 415.669 128.864 415.224 128.006C414.78 127.148 413.724 126.812 412.865 127.257L414.475 130.365ZM394.218 123.019C393.462 122.417 392.361 122.542 391.759 123.297C391.157 124.053 391.281 125.154 392.037 125.757L394.218 123.019ZM412.865 127.257C410.527 128.468 407.223 128.515 403.668 127.617C400.152 126.728 396.685 124.985 394.218 123.019L392.037 125.757C394.907 128.044 398.83 130.004 402.81 131.01C406.751 132.006 411.05 132.139 414.475 130.365L412.865 127.257Z" fill="#0F0967"/>
<path fill-rule="evenodd" clip-rule="evenodd" d="M395.532 180.927C394.611 181.536 393.371 181.283 392.762 180.362C385.223 168.95 373.208 167.793 368.299 168.598C367.21 168.776 366.182 168.037 366.004 166.947C365.825 165.857 366.563 164.829 367.652 164.65C373.634 163.669 387.448 165.066 396.096 178.156C396.705 179.077 396.452 180.318 395.532 180.927Z" fill="#0F0967"/>
<ellipse cx="291.274" cy="323.407" rx="49.0541" ry="48.5586" transform="rotate(17.6528 291.274 323.407)" fill="#59F0E7" fill-opacity="0.3"/>
<ellipse cx="291.527" cy="323.488" rx="42.3649" ry="41.9369" transform="rotate(17.6528 291.527 323.488)" fill="#59F0E7" fill-opacity="0.4"/>
<ellipse cx="291.274" cy="323.407" rx="34.7838" ry="34.8739" transform="rotate(17.6528 291.274 323.407)" fill="#59F0E7"/>
<mask id="path-40-outside-1_1215:4299" maskUnits="userSpaceOnUse" x="261.801" y="290.419" width="58.9532" height="64.1505" fill="black">
<rect fill="white" x="261.801" y="290.419" width="58.9532" height="64.1505"/>
<path d="M302.215 321.17C302.417 323.605 301.919 324.56 301.827 325.242C301.8 325.446 301.924 325.7 302.129 325.718C302.188 325.723 302.243 325.7 302.3 325.685C302.609 325.606 302.956 325.352 303.291 325.038C303.916 324.449 304.95 324.684 304.998 325.542C305.215 329.393 303.979 333.312 301.699 336.214C300.516 337.564 297.216 340.831 291.447 341.37C289.671 341.651 285.086 341.399 280.957 338.139C276.826 334.882 275.474 330.674 275.214 328.109C275.104 327.103 275.043 324.925 276.303 321.98C276.9 320.444 279.774 316.825 280.125 316.397C281.58 314.599 282.512 312.669 282.995 311.399C283.199 310.864 283.711 310.687 284.093 311.113C284.32 311.366 284.562 311.658 284.773 311.941C285.125 312.435 285.41 312.875 285.65 313.3C286.069 314.045 287.218 314.185 287.723 313.495C289.17 311.517 290.773 309.863 292.517 308.577C294.628 306.97 297.082 305.935 299.51 305.508C300.327 305.364 300.915 306.328 300.613 307.101C300.135 308.325 299.671 310.037 299.547 312.11C299.542 312.18 299.546 312.25 299.558 312.318C299.748 313.419 300.231 314.515 300.622 315.581C300.822 315.969 300.893 316.423 301.092 316.81C302.001 319.366 302.118 320.002 302.215 321.17Z"/>
</mask>
<path d="M302.215 321.17C302.417 323.605 301.919 324.56 301.827 325.242C301.8 325.446 301.924 325.7 302.129 325.718C302.188 325.723 302.243 325.7 302.3 325.685C302.609 325.606 302.956 325.352 303.291 325.038C303.916 324.449 304.95 324.684 304.998 325.542C305.215 329.393 303.979 333.312 301.699 336.214C300.516 337.564 297.216 340.831 291.447 341.37C289.671 341.651 285.086 341.399 280.957 338.139C276.826 334.882 275.474 330.674 275.214 328.109C275.104 327.103 275.043 324.925 276.303 321.98C276.9 320.444 279.774 316.825 280.125 316.397C281.58 314.599 282.512 312.669 282.995 311.399C283.199 310.864 283.711 310.687 284.093 311.113C284.32 311.366 284.562 311.658 284.773 311.941C285.125 312.435 285.41 312.875 285.65 313.3C286.069 314.045 287.218 314.185 287.723 313.495C289.17 311.517 290.773 309.863 292.517 308.577C294.628 306.97 297.082 305.935 299.51 305.508C300.327 305.364 300.915 306.328 300.613 307.101C300.135 308.325 299.671 310.037 299.547 312.11C299.542 312.18 299.546 312.25 299.558 312.318C299.748 313.419 300.231 314.515 300.622 315.581C300.822 315.969 300.893 316.423 301.092 316.81C302.001 319.366 302.118 320.002 302.215 321.17Z" fill="#CA0D7B"/>
<path d="M301.827 325.242L308.765 326.173L308.765 326.173L301.827 325.242ZM302.215 321.17L295.239 321.749L295.239 321.749L302.215 321.17ZM301.092 316.81L307.688 314.464L307.53 314.021L307.314 313.603L301.092 316.81ZM300.622 315.581L294.051 317.993L294.201 318.402L294.4 318.789L300.622 315.581ZM299.558 312.318L292.66 313.51L292.66 313.51L299.558 312.318ZM299.51 305.508L298.297 298.614L298.297 298.614L299.51 305.508ZM292.517 308.577L296.67 314.212L296.714 314.18L296.758 314.147L292.517 308.577ZM287.723 313.495L293.373 317.628L293.373 317.628L287.723 313.495ZM285.65 313.3L279.552 316.738L279.552 316.738L285.65 313.3ZM284.773 311.941L290.478 307.885L290.431 307.819L290.382 307.753L284.773 311.941ZM284.093 311.113L278.881 315.785L278.881 315.785L284.093 311.113ZM280.125 316.397L285.534 320.841L285.551 320.82L285.568 320.8L280.125 316.397ZM276.303 321.98L282.739 324.734L282.786 324.625L282.829 324.514L276.303 321.98ZM275.214 328.109L282.178 327.403L282.175 327.375L282.172 327.347L275.214 328.109ZM280.957 338.139L285.294 332.645L285.291 332.643L280.957 338.139ZM291.447 341.37L290.796 334.4L290.573 334.421L290.351 334.456L291.447 341.37ZM301.699 336.214L306.964 340.827L307.087 340.686L307.203 340.539L301.699 336.214ZM304.998 325.542L311.987 325.147L311.987 325.147L304.998 325.542ZM282.995 311.399L276.452 308.911L276.452 308.911L282.995 311.399ZM300.613 307.101L294.093 304.552L294.093 304.552L300.613 307.101ZM299.547 312.11L306.534 312.529L306.534 312.528L299.547 312.11ZM303.291 325.038L298.492 319.941L298.492 319.941L303.291 325.038ZM302.3 325.685L300.568 318.903L300.568 318.903L302.3 325.685ZM302.129 325.718L301.516 332.691L301.516 332.691L302.129 325.718ZM308.765 326.173C308.723 326.488 308.648 326.746 308.742 326.373C308.804 326.128 308.923 325.66 309.025 325.078C309.242 323.846 309.341 322.396 309.191 320.592L295.239 321.749C295.291 322.38 295.242 322.624 295.238 322.649C295.229 322.696 295.219 322.746 295.168 322.948C295.148 323.026 295.099 323.22 295.055 323.411C295.008 323.614 294.941 323.932 294.89 324.312L308.765 326.173ZM309.191 320.592C309.023 318.565 308.69 317.283 307.688 314.464L294.497 319.156C294.941 320.405 295.098 320.928 295.164 321.196C295.195 321.319 295.207 321.362 295.239 321.749L309.191 320.592ZM307.314 313.603C307.439 313.844 307.509 314.03 307.534 314.098C307.554 314.151 307.563 314.183 307.522 314.054C307.495 313.972 307.419 313.73 307.323 313.471C307.223 313.197 307.069 312.809 306.844 312.374L294.4 318.789C294.276 318.547 294.205 318.362 294.18 318.294C294.161 318.24 294.152 318.209 294.193 318.337C294.219 318.419 294.296 318.661 294.391 318.921C294.492 319.195 294.646 319.582 294.87 320.018L307.314 313.603ZM307.194 313.17C307.075 312.845 306.948 312.517 306.855 312.274C306.753 312.008 306.677 311.805 306.611 311.62C306.474 311.236 306.453 311.112 306.455 311.127L292.66 313.51C292.993 315.438 293.885 317.542 294.051 317.993L307.194 313.17ZM298.297 298.614C294.794 299.23 291.296 300.709 288.277 303.008L296.758 314.147C297.959 313.232 299.371 312.64 300.724 312.402L298.297 298.614ZM288.364 302.942C285.962 304.713 283.872 306.904 282.074 309.362L293.373 317.628C294.468 316.131 295.584 315.012 296.67 314.212L288.364 302.942ZM291.747 309.863C291.355 309.167 290.927 308.516 290.478 307.885L279.067 315.996C279.322 316.354 279.465 316.583 279.552 316.738L291.747 309.863ZM290.382 307.753C290.034 307.286 289.657 306.832 289.306 306.441L278.881 315.785C278.984 315.9 279.091 316.031 279.163 316.128L290.382 307.753ZM274.716 311.954C274.46 312.267 273.569 313.386 272.646 314.654C271.932 315.635 270.467 317.673 269.778 319.447L282.829 324.514C282.746 324.727 282.694 324.806 282.752 324.702C282.796 324.621 282.877 324.484 283.003 324.287C283.257 323.889 283.593 323.405 283.966 322.892C284.333 322.388 284.699 321.906 284.996 321.522C285.144 321.332 285.271 321.171 285.368 321.048C285.416 320.987 285.456 320.937 285.487 320.9C285.502 320.881 285.513 320.866 285.522 320.855C285.531 320.844 285.535 320.84 285.534 320.841L274.716 311.954ZM269.868 319.227C268.045 323.485 268.041 326.912 268.256 328.872L282.172 327.347C282.166 327.293 282.041 326.365 282.739 324.734L269.868 319.227ZM268.25 328.816C268.659 332.848 270.701 338.966 276.622 343.636L285.291 332.643C282.952 330.798 282.29 328.501 282.178 327.403L268.25 328.816ZM292.097 348.339C300.399 347.564 305.214 342.824 306.964 340.827L296.434 331.601C295.818 332.304 294.032 334.098 290.796 334.4L292.097 348.339ZM307.203 340.539C310.558 336.27 312.298 330.665 311.987 325.147L298.009 325.936C298.132 328.121 297.401 330.355 296.195 331.889L307.203 340.539ZM290.351 334.456C290.461 334.439 289.783 334.522 288.66 334.262C287.624 334.023 286.428 333.54 285.294 332.645L276.62 343.634C282.503 348.278 289.133 348.824 292.542 348.283L290.351 334.456ZM276.452 308.911C276.162 309.674 275.561 310.909 274.683 311.995L285.568 320.8C287.598 318.289 288.863 315.664 289.538 313.887L276.452 308.911ZM294.093 304.552C293.375 306.389 292.731 308.819 292.559 311.692L306.534 312.528C306.61 311.256 306.894 310.26 307.132 309.649L294.093 304.552ZM298.492 319.941C298.502 319.932 298.632 319.808 298.875 319.645C299.078 319.508 299.663 319.134 300.568 318.903L304.033 332.467C306.184 331.918 307.635 330.562 308.09 330.134L298.492 319.941ZM282.074 309.362C283.572 307.314 285.817 306.811 287.378 306.973C288.903 307.132 290.69 307.987 291.747 309.863L279.552 316.738C281.029 319.358 283.6 320.656 285.931 320.898C288.297 321.144 291.369 320.367 293.373 317.628L282.074 309.362ZM300.724 312.402C297.804 312.916 295.612 311.289 294.642 309.821C293.731 308.444 293.331 306.501 294.093 304.552L307.132 309.649C308.197 306.927 307.654 304.117 306.321 302.1C304.927 299.993 302.034 297.956 298.297 298.614L300.724 312.402ZM302.742 318.745C305.589 318.996 307.245 320.834 307.94 322.027C308.632 323.215 308.968 324.66 308.765 326.173L294.89 324.312C294.659 326.029 295.044 327.702 295.842 329.073C296.643 330.449 298.464 332.423 301.516 332.691L302.742 318.745ZM306.455 311.127C306.542 311.63 306.56 312.102 306.534 312.529L292.559 311.692C292.525 312.257 292.549 312.87 292.66 313.51L306.455 311.127ZM301.516 332.691C302.661 332.792 303.555 332.59 303.917 332.499C304.016 332.474 304.098 332.452 304.15 332.437C304.2 332.423 304.242 332.41 304.246 332.409C304.289 332.396 304.171 332.432 304.033 332.467L300.568 318.903C300.474 318.927 300.398 318.948 300.35 318.962C300.326 318.969 300.306 318.975 300.293 318.979C300.281 318.982 300.27 318.985 300.269 318.986C300.238 318.995 300.362 318.957 300.513 318.919C300.819 318.843 301.656 318.65 302.742 318.745L301.516 332.691ZM289.306 306.441C287.639 304.581 284.748 303.246 281.541 304.169C278.685 304.991 277.114 307.171 276.452 308.911L289.538 313.887C289.08 315.092 287.867 316.916 285.414 317.622C282.61 318.429 280.166 317.219 278.881 315.785L289.306 306.441ZM311.987 325.147C311.778 321.449 309.184 318.798 306.184 317.989C303.455 317.253 300.543 318.01 298.492 319.941L308.09 330.134C306.664 331.476 304.582 332.057 302.538 331.506C300.223 330.881 298.169 328.777 298.009 325.936L311.987 325.147Z" fill="#FF7EC9" mask="url(#path-40-outside-1_1215:4299)"/>
<path d="M291.606 336.527C290.165 337.275 288.458 337.507 286.82 336.985C282.372 335.57 280.192 329.19 284.891 326.033C286.84 324.499 288.884 324.288 290.234 322.477C290.795 321.794 291.197 320.802 291.318 320.151C291.314 319.892 291.51 319.006 291.535 318.928C291.56 318.85 291.56 318.85 291.638 318.875L291.741 318.821C291.819 318.846 291.819 318.846 291.897 318.871C292.003 319.077 292.11 319.283 292.216 319.489C292.428 319.902 292.694 320.417 292.907 320.829C293.438 321.86 293.717 323.413 293.4 324.949C292.959 326.877 291.992 328.292 290.264 328.863C290.814 329.296 291.438 329.495 292.215 329.483C293.432 329.44 294.255 329.013 294.763 328.227C294.763 328.227 294.788 328.148 294.866 328.173L294.944 328.198C295.494 328.631 295.897 329.794 295.278 332.009C294.599 333.602 293.768 335.406 291.606 336.527Z" fill="#FFADDD"/>
<defs>
<linearGradient id="paint0_linear_1215:4299" x1="216.484" y1="688.026" x2="216.484" y2="1047.17" gradientUnits="userSpaceOnUse">
<stop stop-color="#0B2BED"/>
<stop offset="1" stop-color="#0F0967"/>
</linearGradient>
<linearGradient id="paint1_linear_1215:4299" x1="321.231" y1="313.179" x2="326.58" y2="529.093" gradientUnits="userSpaceOnUse">
<stop stop-color="#110F89"/>
<stop offset="0.335202" stop-color="#0D1998"/>
<stop offset="1" stop-color="#0239C6"/>
</linearGradient>
</defs>
</svg>
