<svg width="561" height="1024" viewBox="0 0 561 1024" fill="none" xmlns="http://www.w3.org/2000/svg">
<path fill-rule="evenodd" clip-rule="evenodd" d="M352.05 930.901C356.597 931.603 361.267 932.809 364.284 934.475C379.958 943.131 406.517 949.996 420.896 952.843C452.89 958.906 465.983 982.593 468.831 994.816C469.029 995.663 469.078 996.502 469.038 997.301L468.287 1012.57C468.03 1017.8 463.795 1021.97 458.524 1022.03C443.121 1022.2 405.949 1022.36 367.792 1020.53C329.505 1018.7 291.817 1014.77 276.324 1013.04C271.09 1012.46 267.294 1007.9 267.551 1002.67L268.348 986.463C268.391 966.899 272.827 946.922 276.205 935.328C277.559 930.679 282.139 927.987 286.776 928.543C313.179 931.712 329.655 931.629 339.379 930.377C342.703 929.949 347.479 930.195 352.05 930.901ZM351.441 934.854C347.054 934.177 342.692 933.984 339.889 934.345C329.699 935.657 312.854 935.702 286.3 932.515C283.435 932.171 280.802 933.837 280.042 936.448C276.719 947.851 272.38 967.454 272.344 986.519L272.344 986.566L271.543 1002.87C271.387 1006.02 273.667 1008.72 276.767 1009.07C292.228 1010.79 329.819 1014.71 367.983 1016.53C406.025 1018.36 443.107 1018.2 458.478 1018.03C461.602 1017.99 464.14 1015.53 464.296 1012.37L465.046 997.104C465.071 996.602 465.037 996.144 464.939 995.724C462.365 984.675 450.25 962.473 420.145 956.772L420.129 956.769C405.692 953.91 378.607 946.953 362.353 937.978C359.961 936.657 355.852 935.536 351.441 934.854Z" fill="white"/>
<path fill-rule="evenodd" clip-rule="evenodd" d="M466.929 995.046L467.05 997.043C467.172 999.039 467.172 999.039 467.171 999.039L467.144 999.041L467.064 999.045L466.752 999.063C466.477 999.078 466.067 999.099 465.523 999.126C464.435 999.178 462.814 999.249 460.671 999.325C456.385 999.476 450.011 999.644 441.643 999.712C424.906 999.85 400.192 999.592 368.248 998.011C336.305 996.43 311.845 994.262 295.363 992.487C287.122 991.6 280.875 990.811 276.685 990.243C274.589 989.959 273.008 989.731 271.948 989.573C271.419 989.494 271.019 989.432 270.751 989.391L270.448 989.343L270.37 989.331L270.345 989.326C270.344 989.326 270.342 989.326 270.662 987.352L270.983 985.378L271.004 985.381L271.075 985.392L271.366 985.438C271.625 985.479 272.016 985.539 272.537 985.616C273.579 985.772 275.143 985.998 277.221 986.279C281.376 986.842 287.586 987.627 295.79 988.51C312.199 990.277 336.581 992.439 368.445 994.016C400.309 995.593 424.946 995.85 441.61 995.713C449.941 995.644 456.28 995.477 460.531 995.327C462.656 995.252 464.26 995.182 465.33 995.13C465.865 995.104 466.267 995.083 466.534 995.069L466.833 995.052L466.906 995.048L466.929 995.046Z" fill="white"/>
<path fill-rule="evenodd" clip-rule="evenodd" d="M284.77 1011.49L285.895 988.613L289.887 988.81L288.762 1011.68L284.77 1011.49Z" fill="white"/>
<path fill-rule="evenodd" clip-rule="evenodd" d="M357.546 1017.23L358.671 994.361L362.663 994.558L361.538 1017.43L357.546 1017.23Z" fill="white"/>
<path fill-rule="evenodd" clip-rule="evenodd" d="M302.671 1013.81L303.796 990.939L307.788 991.136L306.663 1014.01L302.671 1013.81Z" fill="white"/>
<path fill-rule="evenodd" clip-rule="evenodd" d="M375.308 1018.11L376.433 995.237L380.424 995.434L379.299 1018.31L375.308 1018.11Z" fill="white"/>
<path fill-rule="evenodd" clip-rule="evenodd" d="M321.009 1015.43L322.134 992.559L326.126 992.756L325.001 1015.63L321.009 1015.43Z" fill="white"/>
<path fill-rule="evenodd" clip-rule="evenodd" d="M393.576 1019.01L394.701 996.14L398.693 996.337L397.568 1019.21L393.576 1019.01Z" fill="white"/>
<path fill-rule="evenodd" clip-rule="evenodd" d="M429.549 1020.2L430.674 997.327L434.666 997.524L433.541 1020.4L429.549 1020.2Z" fill="white"/>
<path fill-rule="evenodd" clip-rule="evenodd" d="M338.263 1016.28L339.388 993.409L343.379 993.606L342.254 1016.48L338.263 1016.28Z" fill="white"/>
<path fill-rule="evenodd" clip-rule="evenodd" d="M410.83 1019.86L411.955 996.99L415.946 997.187L414.821 1020.06L410.83 1019.86Z" fill="white"/>
<path fill-rule="evenodd" clip-rule="evenodd" d="M446.65 1019.47L447.775 996.601L451.767 996.798L450.642 1019.67L446.65 1019.47Z" fill="white"/>
<ellipse cx="160.235" cy="376.363" rx="49.0541" ry="48.5586" fill="#59F0E7" fill-opacity="0.3"/>
<ellipse cx="160.501" cy="376.364" rx="42.3649" ry="41.9369" fill="#59F0E7" fill-opacity="0.4"/>
<ellipse cx="160.235" cy="376.363" rx="34.7838" ry="34.8739" fill="#59F0E7"/>
<mask id="path-16-outside-1_284:5054" maskUnits="userSpaceOnUse" x="137.462" y="348.993" width="45" height="53" fill="black">
<rect fill="white" x="137.462" y="348.993" width="45" height="53"/>
<path d="M169.983 370.915C170.913 373.174 170.728 374.234 170.848 374.912C170.884 375.115 171.079 375.32 171.28 375.275C171.337 375.262 171.383 375.222 171.433 375.191C171.703 375.022 171.957 374.675 172.18 374.274C172.598 373.523 173.654 373.434 173.96 374.236C175.335 377.84 175.346 381.95 174.053 385.406C173.335 387.052 171.181 391.166 165.847 393.428C164.24 394.235 159.795 395.385 154.871 393.531C149.947 391.68 147.383 388.08 146.357 385.715C145.947 384.789 145.229 382.733 145.536 379.544C145.639 377.899 147.28 373.579 147.485 373.065C148.326 370.91 148.63 368.789 148.705 367.432C148.736 366.86 149.171 366.536 149.664 366.826C149.957 366.999 150.276 367.204 150.563 367.409C151.048 367.774 151.453 368.106 151.81 368.439C152.436 369.021 153.574 368.806 153.846 367.996C154.625 365.672 155.65 363.609 156.922 361.855C158.446 359.684 160.472 357.953 162.655 356.81C163.39 356.425 164.243 357.166 164.189 357.994C164.104 359.305 164.182 361.078 164.692 363.09C164.709 363.158 164.734 363.224 164.766 363.285C165.281 364.277 166.074 365.174 166.77 366.072C167.078 366.38 167.283 366.792 167.59 367.1C169.232 369.26 169.536 369.831 169.983 370.915Z"/>
</mask>
<path d="M169.983 370.915C170.913 373.174 170.728 374.234 170.848 374.912C170.884 375.115 171.079 375.32 171.28 375.275C171.337 375.262 171.383 375.222 171.433 375.191C171.703 375.022 171.957 374.675 172.18 374.274C172.598 373.523 173.654 373.434 173.96 374.236C175.335 377.84 175.346 381.95 174.053 385.406C173.335 387.052 171.181 391.166 165.847 393.428C164.24 394.235 159.795 395.385 154.871 393.531C149.947 391.68 147.383 388.08 146.357 385.715C145.947 384.789 145.229 382.733 145.536 379.544C145.639 377.899 147.28 373.579 147.485 373.065C148.326 370.91 148.63 368.789 148.705 367.432C148.736 366.86 149.171 366.536 149.664 366.826C149.957 366.999 150.276 367.204 150.563 367.409C151.048 367.774 151.453 368.106 151.81 368.439C152.436 369.021 153.574 368.806 153.846 367.996C154.625 365.672 155.65 363.609 156.922 361.855C158.446 359.684 160.472 357.953 162.655 356.81C163.39 356.425 164.243 357.166 164.189 357.994C164.104 359.305 164.182 361.078 164.692 363.09C164.709 363.158 164.734 363.224 164.766 363.285C165.281 364.277 166.074 365.174 166.77 366.072C167.078 366.38 167.283 366.792 167.59 367.1C169.232 369.26 169.536 369.831 169.983 370.915Z" fill="#CA0D7B"/>
<path d="M170.848 374.912L177.741 373.695L177.741 373.695L170.848 374.912ZM169.983 370.915L163.51 373.581L163.51 373.581L169.983 370.915ZM167.59 367.1L173.164 362.865L172.879 362.49L172.547 362.157L167.59 367.1ZM166.77 366.072L161.239 370.362L161.506 370.707L161.814 371.015L166.77 366.072ZM164.766 363.285L158.554 366.513L158.554 366.513L164.766 363.285ZM162.655 356.81L159.408 350.609L159.408 350.609L162.655 356.81ZM156.922 361.855L162.589 365.965L162.621 365.921L162.652 365.877L156.922 361.855ZM153.846 367.996L160.482 370.221L160.482 370.221L153.846 367.996ZM151.81 368.439L147.042 373.563L147.042 373.563L151.81 368.439ZM150.563 367.409L154.77 361.814L154.705 361.765L154.638 361.718L150.563 367.409ZM149.664 366.826L146.114 372.859L146.114 372.859L149.664 366.826ZM147.485 373.065L153.987 375.659L153.997 375.634L154.007 375.61L147.485 373.065ZM145.536 379.544L152.504 380.217L152.516 380.099L152.523 379.98L145.536 379.544ZM146.357 385.715L152.779 382.93L152.768 382.904L152.757 382.878L146.357 385.715ZM154.871 393.531L157.338 386.98L157.334 386.979L154.871 393.531ZM165.847 393.428L163.113 386.984L162.907 387.072L162.706 387.172L165.847 393.428ZM174.053 385.406L180.469 388.206L180.544 388.034L180.609 387.859L174.053 385.406ZM173.96 374.236L180.5 371.741L180.5 371.741L173.96 374.236ZM148.705 367.432L141.715 367.045V367.045L148.705 367.432ZM164.189 357.994L157.204 357.542L157.204 357.542L164.189 357.994ZM164.692 363.09L171.477 361.37L171.477 361.37L164.692 363.09ZM172.18 374.274L166.062 370.873V370.873L172.18 374.274ZM171.433 375.191L167.725 369.254L167.725 369.254L171.433 375.191ZM171.28 375.275L172.81 382.105L172.81 382.105L171.28 375.275ZM177.741 373.695C177.797 374.009 177.804 374.277 177.78 373.893C177.765 373.64 177.736 373.158 177.657 372.573C177.49 371.334 177.144 369.922 176.455 368.248L163.51 373.581C163.752 374.167 163.779 374.415 163.782 374.439C163.788 374.487 163.793 374.538 163.806 374.745C163.811 374.826 163.823 375.026 163.839 375.222C163.856 375.428 163.888 375.752 163.955 376.13L177.741 373.695ZM176.455 368.248C175.68 366.367 174.974 365.247 173.164 362.865L162.017 371.336C162.819 372.391 163.127 372.842 163.272 373.078C163.338 373.185 163.363 373.223 163.51 373.581L176.455 368.248ZM172.547 362.157C172.739 362.35 172.862 362.505 172.907 362.562C172.941 362.607 172.96 362.634 172.881 362.524C172.831 362.454 172.685 362.247 172.515 362.029C172.336 361.798 172.072 361.475 171.726 361.129L161.814 371.015C161.622 370.823 161.498 370.667 161.454 370.61C161.419 370.565 161.401 370.538 161.479 370.648C161.529 370.718 161.675 370.925 161.845 371.143C162.024 371.374 162.288 371.697 162.634 372.044L172.547 362.157ZM172.301 361.781C172.089 361.508 171.869 361.234 171.706 361.03C171.528 360.807 171.394 360.638 171.275 360.481C171.028 360.156 170.97 360.045 170.977 360.058L158.554 366.513C159.456 368.249 160.945 369.983 161.239 370.362L172.301 361.781ZM159.408 350.609C156.258 352.258 153.373 354.728 151.193 357.834L162.652 365.877C163.52 364.641 164.686 363.648 165.902 363.011L159.408 350.609ZM151.256 357.745C149.504 360.161 148.177 362.882 147.209 365.771L160.482 370.221C161.072 368.461 161.797 367.057 162.589 365.965L151.256 357.745ZM156.579 363.314C155.994 362.77 155.389 362.279 154.77 361.814L146.356 373.004C146.707 373.268 146.912 373.443 147.042 373.563L156.579 363.314ZM154.638 361.718C154.164 361.378 153.668 361.06 153.214 360.793L146.114 372.859C146.247 372.937 146.388 373.029 146.487 373.1L154.638 361.718ZM140.984 370.471C140.834 370.847 140.325 372.184 139.83 373.672C139.447 374.823 138.668 377.209 138.55 379.109L152.523 379.98C152.509 380.208 152.483 380.299 152.506 380.182C152.524 380.092 152.56 379.937 152.62 379.71C152.741 379.255 152.915 378.691 153.115 378.089C153.312 377.498 153.515 376.927 153.681 376.472C153.764 376.246 153.836 376.053 153.892 375.907C153.919 375.834 153.942 375.775 153.96 375.73C153.968 375.707 153.975 375.69 153.98 375.677C153.985 375.663 153.988 375.658 153.987 375.659L140.984 370.471ZM138.569 378.872C138.124 383.482 139.159 386.75 139.958 388.552L152.757 382.878C152.735 382.829 152.334 381.983 152.504 380.217L138.569 378.872ZM139.935 388.5C141.547 392.218 145.349 397.429 152.407 400.083L157.334 386.979C154.546 385.931 153.218 383.942 152.779 382.93L139.935 388.5ZM168.58 399.873C176.256 396.617 179.407 390.64 180.469 388.206L167.637 382.607C167.263 383.464 166.105 385.715 163.113 386.984L168.58 399.873ZM180.609 387.859C182.511 382.774 182.47 376.905 180.5 371.741L167.42 376.731C168.2 378.776 168.18 381.127 167.496 382.954L180.609 387.859ZM162.706 387.172C162.805 387.123 162.185 387.407 161.036 387.501C159.976 387.587 158.69 387.489 157.338 386.98L152.404 400.082C159.419 402.724 165.902 401.233 168.987 399.684L162.706 387.172ZM141.715 367.045C141.67 367.861 141.472 369.219 140.964 370.521L154.007 375.61C155.18 372.602 155.589 369.717 155.694 367.818L141.715 367.045ZM157.204 357.542C157.077 359.51 157.2 362.021 157.907 364.811L171.477 361.37C171.164 360.134 171.132 359.1 171.175 358.445L157.204 357.542ZM166.062 370.873C166.069 370.86 166.155 370.703 166.337 370.474C166.489 370.282 166.933 369.748 167.725 369.254L175.14 381.129C177.024 379.952 177.995 378.221 178.299 377.675L166.062 370.873ZM147.209 365.771C148.015 363.364 150.002 362.204 151.539 361.885C153.04 361.574 155.002 361.847 156.579 363.314L147.042 373.563C149.244 375.613 152.088 376.069 154.382 375.594C156.712 375.11 159.404 373.438 160.482 370.221L147.209 365.771ZM165.902 363.011C163.276 364.387 160.694 363.501 159.324 362.396C158.039 361.36 157.069 359.631 157.204 357.542L171.175 358.445C171.363 355.529 169.994 353.015 168.112 351.498C166.145 349.912 162.77 348.848 159.408 350.609L165.902 363.011ZM169.749 368.444C172.538 367.819 174.674 369.069 175.698 369.995C176.717 370.918 177.476 372.192 177.741 373.695L163.955 376.129C164.256 377.835 165.13 379.314 166.306 380.378C167.487 381.446 169.821 382.775 172.81 382.105L169.749 368.444ZM170.977 360.058C171.213 360.511 171.372 360.956 171.477 361.37L157.907 364.81C158.046 365.359 158.255 365.936 158.554 366.513L170.977 360.058ZM172.81 382.105C173.932 381.854 174.722 381.39 175.04 381.194C175.127 381.14 175.198 381.094 175.243 381.064C175.286 381.035 175.322 381.011 175.326 381.008C175.363 380.983 175.261 381.053 175.14 381.129L167.725 369.254C167.643 369.305 167.577 369.348 167.536 369.376C167.515 369.39 167.497 369.401 167.486 369.409C167.476 369.416 167.466 369.423 167.466 369.423C167.439 369.441 167.545 369.368 167.678 369.286C167.946 369.12 168.685 368.682 169.749 368.444L172.81 382.105ZM153.214 360.793C151.062 359.526 147.902 359.131 145.126 360.983C142.654 362.633 141.818 365.186 141.715 367.045L155.694 367.818C155.623 369.106 155.02 371.212 152.896 372.629C150.469 374.248 147.773 373.836 146.114 372.859L153.214 360.793ZM180.5 371.741C179.18 368.28 175.904 366.541 172.8 366.679C169.976 366.805 167.431 368.41 166.062 370.873L178.299 377.675C177.347 379.386 175.539 380.571 173.424 380.665C171.029 380.772 168.434 379.39 167.42 376.731L180.5 371.741Z" fill="#FF7EC9" mask="url(#path-16-outside-1_284:5054)"/>
<path d="M164.53 388.765C163.384 389.915 161.828 390.654 160.108 390.654C155.44 390.654 151.428 385.235 154.949 380.802C156.341 378.749 158.225 377.928 158.962 375.793C159.289 374.972 159.371 373.905 159.289 373.248C159.207 373.002 159.125 372.099 159.125 372.017C159.125 371.935 159.125 371.935 159.207 371.935L159.289 371.853C159.371 371.853 159.371 371.853 159.453 371.853C159.617 372.017 159.78 372.181 159.944 372.345C160.272 372.674 160.681 373.084 161.009 373.412C161.828 374.233 162.565 375.629 162.728 377.189C162.892 379.16 162.401 380.802 160.927 381.869C161.582 382.115 162.237 382.115 162.974 381.869C164.121 381.458 164.776 380.802 165.021 379.899C165.021 379.899 165.021 379.816 165.103 379.816H165.185C165.84 380.063 166.577 381.048 166.659 383.347C166.495 385.071 166.25 387.041 164.53 388.765Z" fill="#FFADDD"/>
<path fill-rule="evenodd" clip-rule="evenodd" d="M352.445 930.901C356.992 931.603 361.662 932.809 364.679 934.475C380.354 943.131 406.912 949.996 421.291 952.843C453.285 958.906 466.379 982.593 469.227 994.816C469.424 995.663 469.473 996.502 469.434 997.301L468.683 1012.57C468.426 1017.8 464.191 1021.97 458.92 1022.03C443.516 1022.2 406.345 1022.36 368.188 1020.53C329.9 1018.7 292.213 1014.77 276.72 1013.04C271.486 1012.46 267.689 1007.9 267.946 1002.67L268.743 986.463C268.787 966.899 273.222 946.922 276.6 935.328C277.955 930.679 282.534 927.987 287.171 928.543C313.574 931.712 330.05 931.629 339.774 930.377C343.098 929.949 347.874 930.195 352.445 930.901ZM351.836 934.854C347.449 934.177 343.087 933.984 340.284 934.345C330.094 935.657 313.249 935.702 286.696 932.515C283.83 932.171 281.198 933.837 280.437 936.448C277.114 947.851 272.775 967.454 272.74 986.519L272.74 986.566L271.938 1002.87C271.783 1006.02 274.062 1008.72 277.162 1009.07C292.624 1010.79 330.215 1014.71 368.378 1016.53C406.421 1018.36 443.503 1018.2 458.874 1018.03C461.997 1017.99 464.536 1015.53 464.691 1012.37L465.442 997.104C465.467 996.602 465.432 996.144 465.335 995.724C462.76 984.675 450.645 962.473 420.541 956.772L420.524 956.769C406.088 953.91 379.002 946.953 362.749 937.978C360.357 936.657 356.248 935.536 351.836 934.854Z" fill="white"/>
<path fill-rule="evenodd" clip-rule="evenodd" d="M467.324 995.046L467.446 997.043C467.568 999.039 467.567 999.039 467.567 999.039L467.539 999.041L467.459 999.045L467.148 999.063C466.872 999.078 466.462 999.099 465.918 999.126C464.831 999.178 463.21 999.249 461.067 999.325C456.781 999.476 450.407 999.644 442.038 999.712C425.302 999.85 400.587 999.592 368.644 998.011C336.7 996.43 312.241 994.262 295.759 992.487C287.518 991.6 281.271 990.811 277.08 990.243C274.985 989.959 273.404 989.731 272.344 989.573C271.814 989.494 271.415 989.432 271.147 989.391L270.843 989.343L270.766 989.331L270.74 989.326C270.74 989.326 270.738 989.326 271.058 987.352L271.378 985.378L271.4 985.381L271.471 985.392L271.761 985.438C272.021 985.479 272.411 985.539 272.932 985.616C273.975 985.772 275.539 985.998 277.616 986.279C281.771 986.842 287.982 987.627 296.186 988.51C312.594 990.277 336.977 992.439 368.841 994.016C400.704 995.593 425.342 995.85 442.005 995.713C450.337 995.644 456.675 995.477 460.926 995.327C463.052 995.252 464.655 995.182 465.726 995.13C466.261 995.104 466.662 995.083 466.929 995.069L467.228 995.052L467.302 995.048L467.324 995.046Z" fill="white"/>
<path fill-rule="evenodd" clip-rule="evenodd" d="M285.165 1011.49L286.291 988.613L290.282 988.81L289.157 1011.68L285.165 1011.49Z" fill="white"/>
<path fill-rule="evenodd" clip-rule="evenodd" d="M357.942 1017.23L359.067 994.361L363.059 994.558L361.934 1017.43L357.942 1017.23Z" fill="white"/>
<path fill-rule="evenodd" clip-rule="evenodd" d="M303.066 1013.81L304.191 990.939L308.183 991.136L307.058 1014.01L303.066 1013.81Z" fill="white"/>
<path fill-rule="evenodd" clip-rule="evenodd" d="M375.703 1018.11L376.828 995.237L380.82 995.434L379.695 1018.31L375.703 1018.11Z" fill="white"/>
<path fill-rule="evenodd" clip-rule="evenodd" d="M321.404 1015.43L322.529 992.559L326.521 992.756L325.396 1015.63L321.404 1015.43Z" fill="white"/>
<path fill-rule="evenodd" clip-rule="evenodd" d="M393.972 1019.01L395.097 996.14L399.089 996.337L397.964 1019.21L393.972 1019.01Z" fill="white"/>
<path fill-rule="evenodd" clip-rule="evenodd" d="M429.945 1020.2L431.07 997.327L435.062 997.524L433.937 1020.4L429.945 1020.2Z" fill="white"/>
<path fill-rule="evenodd" clip-rule="evenodd" d="M338.658 1016.28L339.783 993.409L343.775 993.606L342.65 1016.48L338.658 1016.28Z" fill="white"/>
<path fill-rule="evenodd" clip-rule="evenodd" d="M411.225 1019.86L412.35 996.99L416.342 997.187L415.217 1020.06L411.225 1019.86Z" fill="white"/>
<path fill-rule="evenodd" clip-rule="evenodd" d="M447.046 1019.47L448.171 996.601L452.163 996.798L451.038 1019.67L447.046 1019.47Z" fill="white"/>
<path d="M397.707 39.0794L483.044 92.6992C483.666 93.0899 483.963 93.8389 483.778 94.5508L468.029 155.148C466.765 160.012 461.561 162.706 456.869 160.927L445.09 156.46C444.335 156.174 443.479 156.47 443.051 157.157C415.983 200.652 386.258 231.153 368.879 251.344C367.882 252.501 365.947 251.874 365.79 250.356C363.7 230.085 353.343 186.174 312.119 136.894C311.62 136.297 311.582 135.426 312.042 134.797L337.201 100.41C337.482 100.026 337.588 99.5409 337.493 99.0748L331.024 74.084C330.929 73.6179 331.035 73.1331 331.316 72.7489L369.659 23.7301C370.178 23.021 371.153 22.8277 371.901 23.2856L397.707 39.0794Z" fill="#F1F1FC"/>
<path d="M485.117 109.709L398.169 55.196C396.375 54.0708 394.022 54.4546 392.674 56.0925L374.783 77.8228C372.769 80.2687 368.884 79.7097 367.648 76.7965L363.531 67.0869C358.977 58.4885 351.422 57.8101 345.887 59.9379C332.744 64.9897 337.205 79.4394 336.935 77.6546L336.838 77.1817C336.889 77.3961 336.92 77.5521 336.935 77.6546L341.024 97.4806C341.339 99.0051 340.788 100.58 339.592 101.578L329.89 109.669C328.018 111.23 325.198 110.884 324.158 108.683C319.062 97.9023 320.321 82.4317 320.64 74.7939C322.056 40.8558 360.308 -15.9185 427.029 5.74248C493.749 27.4035 494.627 101.822 492.56 106.893C491.011 110.694 487.587 110.619 485.772 110.029C485.54 109.954 485.324 109.839 485.117 109.709Z" fill="#0F43EC"/>
<path d="M449.908 118.764C448.608 120.54 446.117 120.928 444.344 119.631C442.571 118.333 442.187 115.842 443.486 114.066C444.786 112.289 447.277 111.901 449.05 113.199C450.823 114.496 451.207 116.988 449.908 118.764Z" fill="#0F0967"/>
<path d="M421.884 715.727C421.884 633.375 391.5 594.863 330.5 547.863L279 512.363L82.9996 421.363C62.4997 447.863 43.469 484.292 53.9996 521.5C76.4995 601 162 620.363 263.476 664.363C302 688.363 296.567 747.606 291.926 778.156L263.476 932.031C262.688 936.294 265.242 940.434 269.452 941.443C282.199 944.5 310.004 950.167 340.992 950.167C370.688 950.167 391.293 948.215 400.988 947.043C404.736 946.59 407.583 943.576 407.986 939.816C418.145 845.026 422.319 762.743 421.884 715.727Z" fill="url(#paint0_linear_284:5054)"/>
<path d="M379.541 254.002C372.556 209.149 336.312 154.966 306.549 129.293C300.932 124.448 293.58 125.544 286.787 128.666C175 156.363 116 277.363 80.8492 415.656C80.0583 419.345 80.1219 423.694 83.4997 425.363L275.904 517.348C280.077 519.409 284.722 515.543 286.787 511.363C291.644 487.043 318.13 430.889 329.864 397.554C351.723 335.457 383.011 280.409 379.541 254.002Z" fill="#120F8A"/>
<path d="M327.511 502.826L295.263 479.37L263.056 510.081C279.172 531.755 283.806 536.501 299.904 546.74C309.203 552.655 313.944 553.255 319.913 563.963L335.997 592.903C340.34 601.003 343.922 604.402 348.637 602.306C353.353 600.209 352.713 596.369 352.78 595.225L350.655 587.453L357.127 594.448C363.761 598.697 369.231 593.364 368.888 589.516C372.925 585.779 371.735 580.928 371.074 578.294C367.436 563.806 362.788 553.725 354.714 538.678L348.141 527.308C344.957 519.001 332.477 506.165 327.511 502.826Z" fill="#F1F1FC"/>
<path fill-rule="evenodd" clip-rule="evenodd" d="M340.383 535.019C341.247 534.331 342.505 534.473 343.192 535.336C353.008 547.671 358.6 557.176 362.393 565.558C365.209 571.782 367.033 577.401 368.839 582.964C369.449 584.844 370.057 586.717 370.7 588.605C371.057 589.649 370.498 590.786 369.453 591.143C368.408 591.5 367.272 590.942 366.916 589.897C366.236 587.903 365.607 585.966 364.985 584.05C363.197 578.542 361.467 573.214 358.75 567.209C355.113 559.172 349.706 549.946 340.063 537.828C339.376 536.964 339.519 535.707 340.383 535.019Z" fill="#060D34"/>
<path fill-rule="evenodd" clip-rule="evenodd" d="M329.979 546.029C330.896 545.413 332.138 545.656 332.753 546.572C338.792 555.564 342.585 562.398 345.866 569.66C345.88 569.692 345.893 569.724 345.906 569.756L352.859 587.555C353.26 588.583 352.752 589.743 351.724 590.145C350.695 590.547 349.536 590.04 349.134 589.012L342.201 571.262C339.029 564.25 335.354 557.621 329.433 548.804C328.818 547.887 329.062 546.645 329.979 546.029Z" fill="#060D34"/>
<path d="M283.042 361.121C291.867 342.407 309.71 319.228 334.559 282.227C351.147 260.294 363.9 237.252 326.767 205.495C297.061 180.09 264.318 205.208 251.727 215.195C184.185 268.765 166.801 323.571 161.984 350.435C153.5 397.747 188.663 455.625 262.311 512.178C264.128 513.572 266.678 513.548 268.464 512.115L302.32 484.965C304.058 483.571 304.664 481.197 303.806 479.141C290.8 447.969 276.554 413.299 277.261 381.198C277.455 372.415 279.523 368.583 283.042 361.121Z" fill="url(#paint1_linear_284:5054)"/>
<path d="M358.225 526.791C357.768 525.491 358.733 524.129 360.112 524.129H540.023C541.401 524.129 542.366 525.491 541.91 526.791L535.933 543.816C535.23 545.82 533.338 547.16 531.215 547.16H368.919C366.796 547.16 364.905 545.82 364.201 543.816L358.225 526.791Z" fill="#2D81FF"/>
<path d="M457.242 108.575C458.151 108.246 458.62 107.242 458.291 106.333C457.961 105.425 456.958 104.955 456.049 105.285L457.242 108.575ZM438.109 98.6647C437.437 97.9695 436.33 97.9502 435.634 98.6216C434.939 99.293 434.92 100.401 435.591 101.096L438.109 98.6647ZM456.049 105.285C453.573 106.183 450.291 105.801 446.882 104.449C443.512 103.112 440.3 100.933 438.109 98.6647L435.591 101.096C438.14 103.736 441.775 106.188 445.592 107.702C449.37 109.201 453.616 109.89 457.242 108.575L456.049 105.285Z" fill="#0F0967"/>
<path fill-rule="evenodd" clip-rule="evenodd" d="M431.901 156.254C430.909 156.739 429.712 156.327 429.228 155.334C423.232 143.041 411.469 140.336 406.497 140.497C405.394 140.533 404.471 139.667 404.435 138.563C404.399 137.459 405.264 136.535 406.368 136.5C412.426 136.303 425.942 139.479 432.82 153.58C433.304 154.572 432.892 155.77 431.901 156.254Z" fill="#0F0967"/>
<ellipse cx="310.046" cy="284.011" rx="49.0541" ry="48.5586" transform="rotate(25.1041 310.046 284.011)" fill="#59F0E7" fill-opacity="0.3"/>
<ellipse cx="310.286" cy="284.123" rx="42.3649" ry="41.9369" transform="rotate(25.1041 310.286 284.123)" fill="#59F0E7" fill-opacity="0.4"/>
<ellipse cx="310.046" cy="284.011" rx="34.7838" ry="34.8739" transform="rotate(25.1041 310.046 284.011)" fill="#59F0E7"/>
<mask id="path-46-outside-2_284:5054" maskUnits="userSpaceOnUse" x="278.551" y="249.564" width="63.2352" height="67.0854" fill="black">
<rect fill="white" x="278.551" y="249.564" width="63.2352" height="67.0854"/>
<path d="M321.185 283.212C321.069 285.653 320.452 286.534 320.272 287.199C320.219 287.398 320.308 287.666 320.51 287.711C320.567 287.723 320.625 287.707 320.684 287.7C321 287.662 321.377 287.455 321.75 287.186C322.446 286.683 323.441 287.051 323.377 287.907C323.093 291.754 321.359 295.48 318.722 298.062C317.374 299.247 313.678 302.059 307.888 301.844C306.09 301.893 301.577 301.049 297.905 297.281C294.232 293.516 293.437 289.168 293.512 286.591C293.533 285.579 293.755 283.411 295.387 280.655C296.178 279.209 299.496 275.993 299.9 275.615C301.576 274.02 302.751 272.228 303.394 271.031C303.666 270.527 304.197 270.417 304.52 270.889C304.713 271.17 304.914 271.491 305.087 271.798C305.371 272.334 305.597 272.808 305.78 273.26C306.099 274.053 307.221 274.341 307.81 273.722C309.502 271.949 311.306 270.516 313.202 269.468C315.503 268.148 318.071 267.44 320.534 267.331C321.363 267.294 321.82 268.327 321.421 269.054C320.788 270.205 320.106 271.843 319.714 273.882C319.701 273.951 319.695 274.021 319.698 274.09C319.743 275.206 320.08 276.356 320.33 277.464C320.478 277.874 320.489 278.333 320.637 278.743C321.207 281.395 321.24 282.041 321.185 283.212Z"/>
</mask>
<path d="M321.185 283.212C321.069 285.653 320.452 286.534 320.272 287.199C320.219 287.398 320.308 287.666 320.51 287.711C320.567 287.723 320.625 287.707 320.684 287.7C321 287.662 321.377 287.455 321.75 287.186C322.446 286.683 323.441 287.051 323.377 287.907C323.093 291.754 321.359 295.48 318.722 298.062C317.374 299.247 313.678 302.059 307.888 301.844C306.09 301.893 301.577 301.049 297.905 297.281C294.232 293.516 293.437 289.168 293.512 286.591C293.533 285.579 293.755 283.411 295.387 280.655C296.178 279.209 299.496 275.993 299.9 275.615C301.576 274.02 302.751 272.228 303.394 271.031C303.666 270.527 304.197 270.417 304.52 270.889C304.713 271.17 304.914 271.491 305.087 271.798C305.371 272.334 305.597 272.808 305.78 273.26C306.099 274.053 307.221 274.341 307.81 273.722C309.502 271.949 311.306 270.516 313.202 269.468C315.503 268.148 318.071 267.44 320.534 267.331C321.363 267.294 321.82 268.327 321.421 269.054C320.788 270.205 320.106 271.843 319.714 273.882C319.701 273.951 319.695 274.021 319.698 274.09C319.743 275.206 320.08 276.356 320.33 277.464C320.478 277.874 320.489 278.333 320.637 278.743C321.207 281.395 321.24 282.041 321.185 283.212Z" fill="#CA0D7B"/>
<path d="M320.272 287.199L327.031 289.022L327.031 289.022L320.272 287.199ZM321.185 283.212L314.193 282.881L314.193 282.881L321.185 283.212ZM320.637 278.743L327.481 277.272L327.382 276.812L327.222 276.37L320.637 278.743ZM320.33 277.464L313.501 279.002L313.597 279.427L313.745 279.837L320.33 277.464ZM319.698 274.09L312.703 274.377L312.703 274.377L319.698 274.09ZM320.534 267.331L320.225 260.338L320.225 260.338L320.534 267.331ZM313.202 269.468L316.589 275.593L316.637 275.567L316.684 275.54L313.202 269.468ZM307.81 273.722L312.876 278.553L312.876 278.553L307.81 273.722ZM305.78 273.26L299.287 275.878L299.287 275.878L305.78 273.26ZM305.087 271.798L311.27 268.517L311.232 268.445L311.192 268.374L305.087 271.798ZM304.52 270.889L298.746 274.846L298.746 274.846L304.52 270.889ZM299.9 275.615L304.687 280.722L304.707 280.704L304.726 280.686L299.9 275.615ZM295.387 280.655L301.411 284.22L301.471 284.118L301.528 284.014L295.387 280.655ZM293.512 286.591L300.509 286.794L300.51 286.765L300.51 286.737L293.512 286.591ZM297.905 297.281L302.918 292.395L302.916 292.393L297.905 297.281ZM307.888 301.844L308.147 294.849L307.922 294.841L307.698 294.847L307.888 301.844ZM318.722 298.062L323.344 303.319L323.485 303.195L323.619 303.064L318.722 298.062ZM323.377 287.907L330.358 288.423L330.358 288.423L323.377 287.907ZM303.394 271.031L297.229 267.715L297.229 267.715L303.394 271.031ZM321.421 269.054L315.287 265.681L315.287 265.681L321.421 269.054ZM319.714 273.882L326.588 275.203L326.588 275.203L319.714 273.882ZM321.75 287.186L317.653 281.511L317.653 281.511L321.75 287.186ZM320.684 287.7L319.845 280.75L319.845 280.75L320.684 287.7ZM320.51 287.711L318.997 294.545L318.997 294.545L320.51 287.711ZM327.031 289.022C326.948 289.329 326.841 289.575 326.982 289.218C327.075 288.982 327.254 288.533 327.431 287.97C327.806 286.777 328.091 285.351 328.177 283.543L314.193 282.881C314.163 283.513 314.082 283.749 314.074 283.773C314.06 283.819 314.043 283.867 313.967 284.06C313.937 284.135 313.862 284.321 313.794 284.506C313.722 284.7 313.613 285.007 313.514 285.377L327.031 289.022ZM328.177 283.543C328.273 281.511 328.109 280.197 327.481 277.272L313.793 280.214C314.072 281.51 314.159 282.049 314.19 282.324C314.204 282.449 314.211 282.494 314.193 282.881L328.177 283.543ZM327.222 276.37C327.314 276.625 327.36 276.818 327.376 276.889C327.389 276.945 327.394 276.977 327.369 276.844C327.354 276.76 327.309 276.51 327.248 276.24C327.184 275.955 327.082 275.551 326.915 275.09L313.745 279.837C313.653 279.581 313.607 279.389 313.591 279.318C313.578 279.262 313.573 279.23 313.598 279.363C313.613 279.447 313.658 279.697 313.719 279.967C313.783 280.252 313.885 280.656 314.052 281.117L327.222 276.37ZM327.159 275.925C327.083 275.588 327 275.246 326.939 274.993C326.873 274.715 326.823 274.505 326.782 274.313C326.696 273.914 326.691 273.788 326.692 273.803L312.703 274.377C312.784 276.332 313.396 278.534 313.501 279.002L327.159 275.925ZM320.225 260.338C316.671 260.495 313.012 261.507 309.72 263.395L316.684 275.54C317.994 274.789 319.471 274.385 320.843 274.324L320.225 260.338ZM309.815 263.342C307.203 264.786 304.847 266.687 302.745 268.892L312.876 278.553C314.157 277.21 315.409 276.246 316.589 275.593L309.815 263.342ZM312.272 270.643C311.973 269.902 311.633 269.201 311.27 268.517L298.904 275.08C299.11 275.468 299.221 275.713 299.287 275.878L312.272 270.643ZM311.192 268.374C310.907 267.865 310.592 267.366 310.295 266.933L298.746 274.846C298.833 274.973 298.922 275.117 298.982 275.223L311.192 268.374ZM295.113 270.507C294.818 270.784 293.79 271.779 292.711 272.916C291.876 273.797 290.158 275.627 289.245 277.297L301.528 284.014C301.419 284.214 301.357 284.285 301.428 284.19C301.482 284.116 301.58 283.99 301.731 283.811C302.034 283.449 302.43 283.013 302.867 282.552C303.296 282.1 303.722 281.67 304.066 281.328C304.237 281.159 304.383 281.015 304.496 280.906C304.552 280.852 304.598 280.808 304.633 280.774C304.65 280.758 304.664 280.745 304.674 280.735C304.684 280.725 304.688 280.721 304.687 280.722L295.113 270.507ZM289.362 277.09C287.003 281.076 286.554 284.474 286.513 286.445L300.51 286.737C300.511 286.684 300.507 285.747 301.411 284.22L289.362 277.09ZM286.515 286.388C286.397 290.439 287.629 296.771 292.895 302.169L302.916 292.393C300.836 290.26 300.477 287.897 300.509 286.794L286.515 286.388ZM307.629 308.84C315.961 309.148 321.35 305.072 323.344 303.319L314.1 292.805C313.398 293.422 311.395 294.969 308.147 294.849L307.629 308.84ZM323.619 303.064C327.498 299.266 329.951 293.934 330.358 288.423L316.396 287.392C316.235 289.575 315.22 291.695 313.825 293.06L323.619 303.064ZM307.698 294.847C307.809 294.844 307.126 294.838 306.046 294.435C305.05 294.064 303.927 293.43 302.918 292.395L292.892 302.166C298.124 307.535 304.627 308.935 308.078 308.842L307.698 294.847ZM297.229 267.715C296.843 268.435 296.087 269.581 295.075 270.544L304.726 280.686C307.065 278.46 308.659 276.021 309.56 274.346L297.229 267.715ZM315.287 265.681C314.337 267.409 313.383 269.735 312.839 272.561L326.588 275.203C326.828 273.951 327.239 273.001 327.555 272.426L315.287 265.681ZM317.653 281.511C317.664 281.503 317.809 281.397 318.07 281.266C318.29 281.157 318.918 280.862 319.845 280.75L321.522 294.649C323.727 294.384 325.341 293.228 325.847 292.862L317.653 281.511ZM302.745 268.892C304.496 267.055 306.788 266.847 308.314 267.211C309.806 267.566 311.467 268.646 312.272 270.643L299.287 275.878C300.412 278.668 302.794 280.288 305.073 280.83C307.388 281.381 310.535 281.009 312.876 278.553L302.745 268.892ZM320.843 274.324C317.881 274.455 315.919 272.558 315.147 270.976C314.423 269.493 314.278 267.515 315.287 265.681L327.555 272.426C328.963 269.865 328.789 267.008 327.729 264.835C326.621 262.565 324.015 260.17 320.225 260.338L320.843 274.324ZM322.022 280.876C324.812 281.493 326.216 283.531 326.75 284.804C327.282 286.072 327.428 287.548 327.031 289.022L313.514 285.377C313.063 287.049 313.227 288.759 313.841 290.222C314.457 291.69 316.006 293.883 318.997 294.545L322.022 280.876ZM326.692 273.803C326.713 274.313 326.669 274.784 326.588 275.203L312.839 272.561C312.733 273.117 312.677 273.728 312.703 274.377L326.692 273.803ZM318.997 294.545C320.12 294.794 321.032 294.709 321.403 294.666C321.505 294.654 321.588 294.642 321.642 294.634C321.693 294.627 321.737 294.62 321.741 294.619C321.785 294.612 321.664 294.632 321.522 294.649L319.845 280.75C319.749 280.762 319.671 280.773 319.622 280.781C319.597 280.784 319.576 280.787 319.563 280.79C319.551 280.791 319.539 280.793 319.539 280.793C319.506 280.799 319.634 280.777 319.789 280.759C320.102 280.723 320.957 280.64 322.022 280.876L318.997 294.545ZM310.295 266.933C308.883 264.872 306.189 263.174 302.89 263.673C299.951 264.118 298.111 266.076 297.229 267.715L309.56 274.346C308.949 275.482 307.51 277.133 304.985 277.515C302.1 277.952 299.834 276.434 298.746 274.846L310.295 266.933ZM330.358 288.423C330.631 284.728 328.402 281.764 325.533 280.572C322.922 279.488 319.937 279.862 317.653 281.511L325.847 292.862C324.259 294.008 322.12 294.314 320.164 293.502C317.95 292.583 316.187 290.23 316.396 287.392L330.358 288.423Z" fill="#FF7EC9" mask="url(#path-46-outside-2_284:5054)"/>
<path d="M308.674 297.063C307.148 297.617 305.426 297.626 303.868 296.897C299.642 294.917 298.307 288.307 303.377 285.787C305.508 284.519 307.562 284.574 309.135 282.954C309.78 282.349 310.307 281.418 310.512 280.788C310.542 280.53 310.851 279.678 310.886 279.603C310.921 279.529 310.921 279.529 310.995 279.564L311.104 279.524C311.178 279.559 311.178 279.559 311.252 279.594C311.331 279.812 311.409 280.03 311.488 280.248C311.645 280.685 311.842 281.23 311.999 281.666C312.392 282.757 312.467 284.334 311.954 285.816C311.266 287.67 310.125 288.948 308.337 289.289C308.826 289.79 309.419 290.068 310.191 290.158C311.403 290.273 312.275 289.956 312.881 289.242C312.881 289.242 312.916 289.168 312.99 289.202L313.064 289.237C313.553 289.738 313.802 290.943 312.901 293.059C312.021 294.551 310.963 296.231 308.674 297.063Z" fill="#FFADDD"/>
<defs>
<linearGradient id="paint0_linear_284:5054" x1="216.484" y1="591.026" x2="216.484" y2="950.167" gradientUnits="userSpaceOnUse">
<stop stop-color="#0B2BED"/>
<stop offset="1" stop-color="#0F0967"/>
</linearGradient>
<linearGradient id="paint1_linear_284:5054" x1="341.077" y1="277.753" x2="318.38" y2="492.538" gradientUnits="userSpaceOnUse">
<stop stop-color="#110F89"/>
<stop offset="0.335202" stop-color="#0D1998"/>
<stop offset="1" stop-color="#0239C6"/>
</linearGradient>
</defs>
</svg>
