<svg width="561" height="959" viewBox="0 0 561 959" fill="none" xmlns="http://www.w3.org/2000/svg">
<path fill-rule="evenodd" clip-rule="evenodd" d="M352.049 865.901C356.596 866.603 361.266 867.809 364.283 869.475C379.958 878.131 406.516 884.996 420.896 887.843C452.889 893.906 465.983 917.593 468.831 929.816C469.028 930.663 469.077 931.502 469.038 932.301L468.287 947.565C468.03 952.8 463.795 956.966 458.524 957.026C443.12 957.201 405.949 957.358 367.792 955.53C329.504 953.696 291.817 949.773 276.324 948.044C271.09 947.459 267.293 942.9 267.55 937.671L268.347 921.463C268.391 901.899 272.826 881.922 276.204 870.328C277.559 865.679 282.138 862.987 286.775 863.543C313.178 866.712 329.654 866.629 339.378 865.377C342.702 864.949 347.478 865.195 352.049 865.901ZM351.44 869.854C347.053 869.177 342.691 868.984 339.888 869.345C329.698 870.657 312.853 870.702 286.3 867.515C283.434 867.171 280.802 868.837 280.041 871.448C276.719 882.851 272.379 902.454 272.344 921.519L272.344 921.566L271.542 937.868C271.387 941.022 273.666 943.722 276.766 944.068C292.228 945.794 329.819 949.707 367.982 951.535C406.025 953.357 443.107 953.201 458.478 953.026C461.601 952.991 464.14 950.526 464.295 947.369L465.046 932.104C465.071 931.602 465.036 931.144 464.939 930.724C462.364 919.675 450.249 897.473 420.145 891.772L420.128 891.769C405.692 888.91 378.606 881.953 362.353 872.978C359.961 871.657 355.852 870.536 351.44 869.854Z" fill="white"/>
<path fill-rule="evenodd" clip-rule="evenodd" d="M466.928 930.046L467.05 932.043C467.172 934.039 467.171 934.039 467.171 934.039L467.143 934.041L467.063 934.045L466.752 934.063C466.476 934.078 466.066 934.099 465.522 934.126C464.435 934.178 462.814 934.249 460.671 934.325C456.385 934.476 450.011 934.644 441.642 934.712C424.906 934.85 400.191 934.592 368.248 933.011C336.304 931.43 311.845 929.262 295.363 927.487C287.122 926.6 280.875 925.811 276.684 925.243C274.589 924.959 273.008 924.731 271.948 924.573C271.418 924.494 271.019 924.432 270.751 924.391L270.447 924.343L270.37 924.331L270.344 924.326C270.344 924.326 270.342 924.326 270.662 922.352L270.982 920.378L271.004 920.381L271.075 920.392L271.365 920.438C271.625 920.479 272.015 920.539 272.536 920.616C273.579 920.772 275.143 920.998 277.22 921.279C281.375 921.842 287.586 922.627 295.79 923.51C312.198 925.277 336.581 927.439 368.445 929.016C400.308 930.593 424.946 930.85 441.609 930.713C449.941 930.644 456.279 930.477 460.53 930.327C462.656 930.252 464.259 930.182 465.33 930.13C465.865 930.104 466.266 930.083 466.533 930.069L466.832 930.052L466.906 930.048L466.928 930.046Z" fill="white"/>
<path fill-rule="evenodd" clip-rule="evenodd" d="M284.769 946.486L285.895 923.613L289.886 923.81L288.761 946.683L284.769 946.486Z" fill="white"/>
<path fill-rule="evenodd" clip-rule="evenodd" d="M357.546 952.234L358.671 929.361L362.663 929.558L361.538 952.431L357.546 952.234Z" fill="white"/>
<path fill-rule="evenodd" clip-rule="evenodd" d="M302.67 948.812L303.795 925.939L307.787 926.136L306.662 949.009L302.67 948.812Z" fill="white"/>
<path fill-rule="evenodd" clip-rule="evenodd" d="M375.307 953.11L376.432 930.237L380.424 930.434L379.299 953.307L375.307 953.11Z" fill="white"/>
<path fill-rule="evenodd" clip-rule="evenodd" d="M321.008 950.431L322.133 927.559L326.125 927.756L325 950.628L321.008 950.431Z" fill="white"/>
<path fill-rule="evenodd" clip-rule="evenodd" d="M393.576 954.012L394.701 931.14L398.693 931.337L397.568 954.209L393.576 954.012Z" fill="white"/>
<path fill-rule="evenodd" clip-rule="evenodd" d="M429.549 955.2L430.674 932.327L434.666 932.524L433.541 955.397L429.549 955.2Z" fill="white"/>
<path fill-rule="evenodd" clip-rule="evenodd" d="M338.262 951.282L339.387 928.409L343.379 928.606L342.254 951.479L338.262 951.282Z" fill="white"/>
<path fill-rule="evenodd" clip-rule="evenodd" d="M410.829 954.863L411.954 931.99L415.946 932.187L414.821 955.06L410.829 954.863Z" fill="white"/>
<path fill-rule="evenodd" clip-rule="evenodd" d="M446.65 954.474L447.775 931.601L451.767 931.798L450.642 954.671L446.65 954.474Z" fill="white"/>
<ellipse cx="160.234" cy="311.363" rx="49.0541" ry="48.5586" fill="#59F0E7" fill-opacity="0.3"/>
<ellipse cx="160.5" cy="311.364" rx="42.3649" ry="41.9369" fill="#59F0E7" fill-opacity="0.4"/>
<ellipse cx="160.234" cy="311.363" rx="34.7838" ry="34.8739" fill="#59F0E7"/>
<mask id="path-16-outside-1_284:4757" maskUnits="userSpaceOnUse" x="137.461" y="283.993" width="45" height="53" fill="black">
<rect fill="white" x="137.461" y="283.993" width="45" height="53"/>
<path d="M169.982 305.915C170.913 308.174 170.728 309.234 170.847 309.912C170.883 310.115 171.078 310.32 171.279 310.275C171.336 310.262 171.382 310.222 171.432 310.191C171.703 310.022 171.957 309.675 172.18 309.274C172.597 308.523 173.653 308.434 173.96 309.236C175.334 312.84 175.345 316.95 174.052 320.406C173.334 322.052 171.18 326.166 165.846 328.428C164.239 329.235 159.794 330.385 154.87 328.531C149.947 326.68 147.382 323.08 146.357 320.715C145.946 319.789 145.228 317.733 145.536 314.544C145.639 312.899 147.28 308.579 147.485 308.065C148.326 305.91 148.629 303.789 148.704 302.432C148.736 301.86 149.17 301.536 149.664 301.826C149.957 301.999 150.276 302.204 150.562 302.409C151.047 302.774 151.453 303.106 151.81 303.439C152.436 304.021 153.573 303.806 153.845 302.996C154.624 300.672 155.65 298.609 156.922 296.855C158.446 294.684 160.471 292.953 162.655 291.81C163.39 291.425 164.242 292.166 164.189 292.994C164.104 294.305 164.181 296.078 164.692 298.09C164.709 298.158 164.733 298.224 164.765 298.285C165.28 299.277 166.073 300.174 166.769 301.072C167.077 301.38 167.282 301.792 167.59 302.1C169.231 304.26 169.536 304.831 169.982 305.915Z"/>
</mask>
<path d="M169.982 305.915C170.913 308.174 170.728 309.234 170.847 309.912C170.883 310.115 171.078 310.32 171.279 310.275C171.336 310.262 171.382 310.222 171.432 310.191C171.703 310.022 171.957 309.675 172.18 309.274C172.597 308.523 173.653 308.434 173.96 309.236C175.334 312.84 175.345 316.95 174.052 320.406C173.334 322.052 171.18 326.166 165.846 328.428C164.239 329.235 159.794 330.385 154.87 328.531C149.947 326.68 147.382 323.08 146.357 320.715C145.946 319.789 145.228 317.733 145.536 314.544C145.639 312.899 147.28 308.579 147.485 308.065C148.326 305.91 148.629 303.789 148.704 302.432C148.736 301.86 149.17 301.536 149.664 301.826C149.957 301.999 150.276 302.204 150.562 302.409C151.047 302.774 151.453 303.106 151.81 303.439C152.436 304.021 153.573 303.806 153.845 302.996C154.624 300.672 155.65 298.609 156.922 296.855C158.446 294.684 160.471 292.953 162.655 291.81C163.39 291.425 164.242 292.166 164.189 292.994C164.104 294.305 164.181 296.078 164.692 298.09C164.709 298.158 164.733 298.224 164.765 298.285C165.28 299.277 166.073 300.174 166.769 301.072C167.077 301.38 167.282 301.792 167.59 302.1C169.231 304.26 169.536 304.831 169.982 305.915Z" fill="#CA0D7B"/>
<path d="M170.847 309.912L177.741 308.695L177.741 308.695L170.847 309.912ZM169.982 305.915L163.51 308.581L163.51 308.581L169.982 305.915ZM167.59 302.1L173.163 297.865L172.879 297.49L172.546 297.157L167.59 302.1ZM166.769 301.072L161.238 305.362L161.505 305.707L161.813 306.015L166.769 301.072ZM164.765 298.285L158.554 301.513L158.554 301.513L164.765 298.285ZM162.655 291.81L159.408 285.609L159.408 285.609L162.655 291.81ZM156.922 296.855L162.588 300.965L162.62 300.921L162.652 300.877L156.922 296.855ZM153.845 302.996L160.482 305.221L160.482 305.221L153.845 302.996ZM151.81 303.439L147.042 308.563L147.042 308.563L151.81 303.439ZM150.562 302.409L154.769 296.814L154.704 296.765L154.638 296.718L150.562 302.409ZM149.664 301.826L146.114 307.859L146.114 307.859L149.664 301.826ZM147.485 308.065L153.987 310.659L153.996 310.634L154.006 310.61L147.485 308.065ZM145.536 314.544L152.504 315.217L152.515 315.099L152.522 314.98L145.536 314.544ZM146.357 320.715L152.779 317.93L152.767 317.904L152.756 317.878L146.357 320.715ZM154.87 328.531L157.337 321.98L157.334 321.979L154.87 328.531ZM165.846 328.428L163.113 321.984L162.906 322.072L162.705 322.172L165.846 328.428ZM174.052 320.406L180.468 323.206L180.543 323.034L180.609 322.859L174.052 320.406ZM173.96 309.236L180.5 306.741L180.5 306.741L173.96 309.236ZM148.704 302.432L141.715 302.045V302.045L148.704 302.432ZM164.189 292.994L157.203 292.542L157.203 292.542L164.189 292.994ZM164.692 298.09L171.477 296.37L171.477 296.37L164.692 298.09ZM172.18 309.274L166.062 305.873V305.873L172.18 309.274ZM171.432 310.191L167.725 304.254L167.724 304.254L171.432 310.191ZM171.279 310.275L172.809 317.105L172.809 317.105L171.279 310.275ZM177.741 308.695C177.796 309.009 177.803 309.277 177.78 308.893C177.764 308.64 177.735 308.158 177.656 307.573C177.49 306.334 177.144 304.922 176.454 303.248L163.51 308.581C163.751 309.167 163.778 309.415 163.781 309.439C163.788 309.487 163.793 309.538 163.806 309.745C163.811 309.826 163.822 310.026 163.838 310.222C163.856 310.428 163.888 310.752 163.954 311.13L177.741 308.695ZM176.454 303.248C175.679 301.367 174.973 300.247 173.163 297.865L162.017 306.336C162.818 307.391 163.127 307.842 163.271 308.078C163.337 308.185 163.362 308.223 163.51 308.581L176.454 303.248ZM172.546 297.157C172.738 297.35 172.862 297.505 172.906 297.562C172.941 297.607 172.959 297.634 172.881 297.524C172.831 297.454 172.684 297.247 172.515 297.029C172.336 296.798 172.071 296.475 171.726 296.129L161.813 306.015C161.621 305.823 161.498 305.667 161.453 305.61C161.418 305.565 161.4 305.538 161.479 305.648C161.528 305.718 161.675 305.925 161.844 306.143C162.023 306.374 162.288 306.697 162.634 307.044L172.546 297.157ZM172.3 296.781C172.088 296.508 171.868 296.234 171.706 296.03C171.528 295.807 171.394 295.638 171.275 295.481C171.028 295.156 170.97 295.045 170.977 295.058L158.554 301.513C159.456 303.249 160.944 304.983 161.238 305.362L172.3 296.781ZM159.408 285.609C156.257 287.258 153.372 289.728 151.192 292.834L162.652 300.877C163.519 299.641 164.685 298.648 165.902 298.011L159.408 285.609ZM151.256 292.745C149.503 295.161 148.176 297.882 147.208 300.771L160.482 305.221C161.072 303.461 161.796 302.057 162.588 300.965L151.256 292.745ZM156.578 298.314C155.994 297.77 155.388 297.279 154.769 296.814L146.355 308.004C146.707 308.268 146.912 308.443 147.042 308.563L156.578 298.314ZM154.638 296.718C154.164 296.378 153.667 296.06 153.214 295.793L146.114 307.859C146.246 307.937 146.388 308.029 146.487 308.1L154.638 296.718ZM140.983 305.471C140.833 305.847 140.324 307.184 139.829 308.672C139.447 309.823 138.668 312.209 138.55 314.109L152.522 314.98C152.508 315.208 152.483 315.299 152.506 315.182C152.524 315.092 152.559 314.937 152.619 314.71C152.741 314.255 152.914 313.691 153.115 313.089C153.311 312.498 153.514 311.927 153.681 311.472C153.764 311.246 153.836 311.053 153.891 310.907C153.919 310.834 153.942 310.775 153.959 310.73C153.968 310.707 153.975 310.69 153.98 310.677C153.985 310.663 153.987 310.658 153.987 310.659L140.983 305.471ZM138.568 313.872C138.123 318.482 139.158 321.75 139.957 323.552L152.756 317.878C152.734 317.829 152.333 316.983 152.504 315.217L138.568 313.872ZM139.934 323.5C141.547 327.218 145.348 332.429 152.407 335.083L157.334 321.979C154.545 320.931 153.218 318.942 152.779 317.93L139.934 323.5ZM168.58 334.873C176.255 331.617 179.406 325.64 180.468 323.206L167.636 317.607C167.262 318.464 166.105 320.715 163.113 321.984L168.58 334.873ZM180.609 322.859C182.511 317.774 182.469 311.905 180.5 306.741L167.419 311.731C168.199 313.776 168.179 316.127 167.496 317.954L180.609 322.859ZM162.705 322.172C162.805 322.123 162.184 322.407 161.035 322.501C159.975 322.587 158.69 322.489 157.337 321.98L152.404 335.082C159.419 337.724 165.902 336.233 168.987 334.684L162.705 322.172ZM141.715 302.045C141.67 302.861 141.472 304.219 140.964 305.521L154.006 310.61C155.18 307.602 155.589 304.717 155.694 302.818L141.715 302.045ZM157.203 292.542C157.076 294.51 157.199 297.021 157.906 299.811L171.477 296.37C171.164 295.134 171.132 294.1 171.174 293.445L157.203 292.542ZM166.062 305.873C166.068 305.86 166.155 305.703 166.336 305.474C166.488 305.282 166.933 304.748 167.725 304.254L175.14 316.129C177.023 314.952 177.994 313.221 178.298 312.675L166.062 305.873ZM147.208 300.771C148.015 298.364 150.002 297.204 151.539 296.885C153.04 296.574 155.002 296.847 156.578 298.314L147.042 308.563C149.244 310.613 152.088 311.069 154.382 310.594C156.712 310.11 159.403 308.438 160.482 305.221L147.208 300.771ZM165.902 298.011C163.275 299.387 160.694 298.501 159.324 297.396C158.039 296.36 157.068 294.631 157.203 292.542L171.174 293.445C171.363 290.529 169.993 288.015 168.111 286.498C166.145 284.912 162.769 283.848 159.408 285.609L165.902 298.011ZM169.749 303.444C172.537 302.819 174.673 304.069 175.697 304.995C176.717 305.918 177.475 307.192 177.741 308.695L163.954 311.129C164.255 312.835 165.129 314.314 166.306 315.378C167.486 316.446 169.82 317.775 172.809 317.105L169.749 303.444ZM170.977 295.058C171.212 295.511 171.372 295.956 171.477 296.37L157.906 299.81C158.045 300.359 158.254 300.936 158.554 301.513L170.977 295.058ZM172.809 317.105C173.931 316.854 174.722 316.39 175.039 316.194C175.126 316.14 175.197 316.094 175.243 316.064C175.285 316.035 175.322 316.011 175.325 316.008C175.363 315.983 175.261 316.053 175.14 316.129L167.724 304.254C167.643 304.305 167.576 304.348 167.535 304.376C167.514 304.39 167.497 304.401 167.486 304.409C167.476 304.416 167.466 304.423 167.465 304.423C167.438 304.441 167.545 304.368 167.678 304.286C167.946 304.12 168.684 303.682 169.749 303.444L172.809 317.105ZM153.214 295.793C151.061 294.526 147.901 294.131 145.126 295.983C142.653 297.633 141.818 300.186 141.715 302.045L155.694 302.818C155.622 304.106 155.02 306.212 152.896 307.629C150.469 309.248 147.773 308.836 146.114 307.859L153.214 295.793ZM180.5 306.741C179.179 303.28 175.903 301.541 172.799 301.679C169.975 301.805 167.43 303.41 166.062 305.873L178.298 312.675C177.347 314.386 175.539 315.571 173.424 315.665C171.028 315.772 168.433 314.39 167.419 311.731L180.5 306.741Z" fill="#FF7EC9" mask="url(#path-16-outside-1_284:4757)"/>
<path d="M164.53 323.765C163.383 324.915 161.827 325.654 160.108 325.654C155.44 325.654 151.427 320.235 154.949 315.802C156.341 313.749 158.224 312.928 158.961 310.793C159.289 309.972 159.371 308.905 159.289 308.248C159.207 308.002 159.125 307.099 159.125 307.017C159.125 306.935 159.125 306.935 159.207 306.935L159.289 306.853C159.371 306.853 159.371 306.853 159.452 306.853C159.616 307.017 159.78 307.181 159.944 307.345C160.271 307.674 160.681 308.084 161.008 308.412C161.827 309.233 162.564 310.629 162.728 312.189C162.892 314.16 162.4 315.802 160.926 316.869C161.582 317.115 162.237 317.115 162.974 316.869C164.12 316.458 164.775 315.802 165.021 314.899C165.021 314.899 165.021 314.816 165.103 314.816H165.185C165.84 315.063 166.577 316.048 166.659 318.347C166.495 320.071 166.249 322.041 164.53 323.765Z" fill="#FFADDD"/>
<path fill-rule="evenodd" clip-rule="evenodd" d="M352.445 865.901C356.992 866.603 361.662 867.809 364.679 869.475C380.354 878.131 406.912 884.996 421.291 887.843C453.285 893.906 466.379 917.593 469.227 929.816C469.424 930.663 469.473 931.502 469.434 932.301L468.683 947.565C468.426 952.8 464.191 956.966 458.92 957.026C443.516 957.201 406.345 957.358 368.188 955.53C329.9 953.696 292.213 949.773 276.72 948.044C271.486 947.459 267.689 942.9 267.946 937.671L268.743 921.463C268.787 901.899 273.222 881.922 276.6 870.328C277.955 865.679 282.534 862.987 287.171 863.543C313.574 866.712 330.05 866.629 339.774 865.377C343.098 864.949 347.874 865.195 352.445 865.901ZM351.836 869.854C347.449 869.177 343.087 868.984 340.284 869.345C330.094 870.657 313.249 870.702 286.696 867.515C283.83 867.171 281.198 868.837 280.437 871.448C277.114 882.851 272.775 902.454 272.74 921.519L272.74 921.566L271.938 937.868C271.783 941.022 274.062 943.722 277.162 944.068C292.624 945.794 330.215 949.707 368.378 951.535C406.421 953.357 443.503 953.201 458.874 953.026C461.997 952.991 464.536 950.526 464.691 947.369L465.442 932.104C465.467 931.602 465.432 931.144 465.335 930.724C462.76 919.675 450.645 897.473 420.541 891.772L420.524 891.769C406.088 888.91 379.002 881.953 362.749 872.978C360.357 871.657 356.248 870.536 351.836 869.854Z" fill="white"/>
<path fill-rule="evenodd" clip-rule="evenodd" d="M467.324 930.046L467.446 932.043C467.568 934.039 467.567 934.039 467.567 934.039L467.539 934.041L467.459 934.045L467.148 934.063C466.872 934.078 466.462 934.099 465.918 934.126C464.831 934.178 463.21 934.249 461.067 934.325C456.781 934.476 450.407 934.644 442.038 934.712C425.302 934.85 400.587 934.592 368.644 933.011C336.7 931.43 312.241 929.262 295.759 927.487C287.518 926.6 281.271 925.811 277.08 925.243C274.985 924.959 273.404 924.731 272.344 924.573C271.814 924.494 271.415 924.432 271.147 924.391L270.843 924.343L270.766 924.331L270.74 924.326C270.74 924.326 270.738 924.326 271.058 922.352L271.378 920.378L271.4 920.381L271.471 920.392L271.761 920.438C272.021 920.479 272.411 920.539 272.932 920.616C273.975 920.772 275.539 920.998 277.616 921.279C281.771 921.842 287.982 922.627 296.186 923.51C312.594 925.277 336.977 927.439 368.841 929.016C400.704 930.593 425.342 930.85 442.005 930.713C450.337 930.644 456.675 930.477 460.926 930.327C463.052 930.252 464.655 930.182 465.726 930.13C466.261 930.104 466.662 930.083 466.929 930.069L467.228 930.052L467.302 930.048L467.324 930.046Z" fill="white"/>
<path fill-rule="evenodd" clip-rule="evenodd" d="M285.165 946.486L286.291 923.613L290.282 923.81L289.157 946.683L285.165 946.486Z" fill="white"/>
<path fill-rule="evenodd" clip-rule="evenodd" d="M357.942 952.234L359.067 929.361L363.059 929.558L361.934 952.431L357.942 952.234Z" fill="white"/>
<path fill-rule="evenodd" clip-rule="evenodd" d="M303.066 948.812L304.191 925.939L308.183 926.136L307.058 949.009L303.066 948.812Z" fill="white"/>
<path fill-rule="evenodd" clip-rule="evenodd" d="M375.703 953.11L376.828 930.237L380.82 930.434L379.695 953.307L375.703 953.11Z" fill="white"/>
<path fill-rule="evenodd" clip-rule="evenodd" d="M321.404 950.431L322.529 927.559L326.521 927.756L325.396 950.628L321.404 950.431Z" fill="white"/>
<path fill-rule="evenodd" clip-rule="evenodd" d="M393.972 954.012L395.097 931.14L399.089 931.337L397.964 954.209L393.972 954.012Z" fill="white"/>
<path fill-rule="evenodd" clip-rule="evenodd" d="M429.945 955.2L431.07 932.327L435.062 932.524L433.937 955.397L429.945 955.2Z" fill="white"/>
<path fill-rule="evenodd" clip-rule="evenodd" d="M338.658 951.282L339.783 928.409L343.775 928.606L342.65 951.479L338.658 951.282Z" fill="white"/>
<path fill-rule="evenodd" clip-rule="evenodd" d="M411.225 954.863L412.35 931.99L416.342 932.187L415.217 955.06L411.225 954.863Z" fill="white"/>
<path fill-rule="evenodd" clip-rule="evenodd" d="M447.046 954.474L448.171 931.601L452.163 931.798L451.038 954.671L447.046 954.474Z" fill="white"/>
<path d="M254.227 61.5441L348.412 97.4145C349.099 97.6759 349.536 98.3523 349.494 99.0865L345.917 161.595C345.63 166.612 341.054 170.273 336.104 169.447L323.679 167.373C322.882 167.24 322.1 167.698 321.816 168.456C303.789 216.41 280.613 252.141 267.523 275.344C266.773 276.675 264.752 276.438 264.301 274.98C258.282 255.511 239.527 214.478 189.451 174.225C188.844 173.738 188.636 172.891 188.964 172.184L206.902 133.536C207.103 133.104 207.112 132.608 206.927 132.169L195.69 108.929C195.505 108.491 195.514 107.995 195.715 107.563L223.716 51.9845C224.086 51.1876 225.004 50.8071 225.828 51.1096L254.227 61.5441Z" fill="#F1F1FC"/>
<path d="M353.776 113.689L257.836 77.258C255.856 76.5061 253.624 77.3431 252.623 79.2134L239.334 104.026C237.838 106.819 233.918 107.032 232.136 104.417L226.197 95.7019C220.048 88.1617 212.506 88.9759 207.495 92.1464C195.596 99.6741 202.8 112.97 202.186 111.273L201.998 110.828C202.09 111.029 202.151 111.176 202.186 111.273L210.078 129.914C210.685 131.348 210.454 133 209.476 134.213L201.546 144.047C200.016 145.945 197.183 146.158 195.732 144.202C188.623 134.629 186.829 119.211 185.646 111.659C180.388 78.1006 206.782 14.9346 276.453 23.1106C346.123 31.2865 361.557 104.093 360.523 109.47C359.748 113.5 356.376 114.097 354.481 113.875C354.239 113.846 354.004 113.776 353.776 113.689Z" fill="#0F43EC"/>
<path d="M321.021 129.463C320.094 131.459 317.728 132.328 315.735 131.403C313.742 130.478 312.877 128.11 313.804 126.113C314.73 124.117 317.097 123.249 319.09 124.174C321.083 125.099 321.947 127.467 321.021 129.463Z" fill="#0F0967"/>
<path d="M421.885 650.727C421.885 568.375 371.492 528.527 315.133 528.527L240.871 526.025H18.0768C8.48349 555.932 8.94602 579.156 18.0768 598.687C46.0496 658.52 132.601 644.086 240.871 644.086C299.691 644.086 296.567 682.606 291.926 713.156L263.477 867.031C262.689 871.294 265.242 875.434 269.452 876.443C282.199 879.5 310.005 885.167 340.992 885.167C370.689 885.167 391.293 883.215 400.988 882.043C404.736 881.59 407.584 878.576 407.987 874.816C418.145 780.026 422.319 697.743 421.885 650.727Z" fill="url(#paint0_linear_284:4757)"/>
<path d="M278.5 275.863C262.867 233.246 216.714 187.21 182.5 167.863C176.043 164.211 169.048 166.726 162.998 171.118C18.3959 255.363 11.0003 376.863 13.8959 517.363C13.8429 521.136 14.7567 525.388 18.3959 526.363L248.396 529.363C252.892 530.568 256.689 525.866 257.896 521.363C257.896 496.563 246.917 457.352 251.896 422.364C261.171 357.189 287.074 301.079 278.5 275.863Z" fill="#120F8A"/>
<path d="M308.255 497.209L268.52 493.864L256.895 536.821C281.911 547.004 288.334 548.66 307.407 549.073C318.426 549.311 322.792 547.367 333.446 553.431L362.201 569.844C370.113 574.52 374.938 575.57 377.884 571.333C380.83 567.096 378.293 564.144 377.757 563.13L371.911 557.586L381.072 560.213C388.948 560.408 390.862 553.013 388.573 549.899C390.089 544.611 386.558 541.08 384.627 539.17C374.006 528.665 364.806 522.453 350.102 513.769L338.588 507.453C331.56 501.999 314.233 497.49 308.255 497.209Z" fill="#F1F1FC"/>
<path fill-rule="evenodd" clip-rule="evenodd" d="M335.95 518.068C336.333 517.032 337.482 516.502 338.517 516.884C353.305 522.345 363.014 527.575 370.602 532.778C376.236 536.641 380.708 540.501 385.136 544.322C386.632 545.613 388.123 546.9 389.651 548.181C390.498 548.89 390.609 550.151 389.9 550.998C389.191 551.845 387.931 551.957 387.085 551.248C385.47 549.895 383.928 548.564 382.403 547.248C378.019 543.465 373.778 539.805 368.342 536.078C361.066 531.089 351.66 526.002 337.132 520.637C336.097 520.255 335.568 519.105 335.95 518.068Z" fill="#060D34"/>
<path fill-rule="evenodd" clip-rule="evenodd" d="M332.759 532.877C333.224 531.875 334.412 531.439 335.413 531.904C345.238 536.464 352.024 540.342 358.594 544.852C358.623 544.871 358.651 544.891 358.678 544.912L373.849 556.53C374.726 557.201 374.892 558.457 374.221 559.334C373.55 560.211 372.296 560.378 371.42 559.707L356.29 548.121C349.944 543.768 343.365 540.004 333.731 535.532C332.73 535.068 332.295 533.879 332.759 532.877Z" fill="#060D34"/>
<path d="M196.779 399.071C194.626 378.492 197.871 349.422 199.944 304.9C202.761 277.545 201.725 251.23 153.509 243.318C114.937 236.988 99.955 275.44 94.3633 290.506C64.3674 371.327 77.9077 427.208 87.7121 452.678C104.979 497.536 165.049 528.808 257.344 538.998C259.62 539.25 261.789 537.907 262.574 535.756L277.454 494.989C278.218 492.896 277.506 490.552 275.707 489.238C248.427 469.322 218.275 447.056 202.241 419.237C197.854 411.625 197.637 407.277 196.779 399.071Z" fill="url(#paint1_linear_284:4757)"/>
<path d="M358.225 461.791C357.768 460.491 358.733 459.129 360.112 459.129H540.023C541.401 459.129 542.366 460.491 541.91 461.791L535.933 478.816C535.23 480.82 533.338 482.16 531.215 482.16H368.919C366.796 482.16 364.905 480.82 364.201 478.816L358.225 461.791Z" fill="#2D81FF"/>
<path d="M326.218 118.035C327.045 117.534 327.309 116.458 326.808 115.632C326.307 114.805 325.23 114.541 324.404 115.042L326.218 118.035ZM305.515 112.064C304.72 111.513 303.63 111.711 303.08 112.506C302.529 113.3 302.727 114.391 303.522 114.941L305.515 112.064ZM324.404 115.042C322.152 116.407 318.859 116.676 315.251 116.018C311.684 115.367 308.107 113.859 305.515 112.064L303.522 114.941C306.539 117.03 310.584 118.724 314.623 119.461C318.622 120.191 322.92 120.035 326.218 118.035L324.404 115.042Z" fill="#0F0967"/>
<path fill-rule="evenodd" clip-rule="evenodd" d="M310.704 169.754C309.827 170.424 308.573 170.254 307.903 169.376C299.616 158.495 287.551 158.145 282.707 159.278C281.632 159.529 280.557 158.86 280.306 157.785C280.055 156.709 280.722 155.634 281.797 155.382C287.7 154.003 301.576 154.471 311.082 166.952C311.751 167.83 311.582 169.085 310.704 169.754Z" fill="#0F0967"/>
<ellipse cx="216.227" cy="318.899" rx="49.0541" ry="48.5586" transform="rotate(13.8111 216.227 318.899)" fill="#59F0E7" fill-opacity="0.3"/>
<ellipse cx="216.485" cy="318.963" rx="42.3649" ry="41.9369" transform="rotate(13.8111 216.485 318.963)" fill="#59F0E7" fill-opacity="0.4"/>
<ellipse cx="216.227" cy="318.899" rx="34.7838" ry="34.8739" transform="rotate(13.8111 216.227 318.899)" fill="#59F0E7"/>
<mask id="path-46-outside-2_284:4757" maskUnits="userSpaceOnUse" x="187.994" y="286.883" width="56.3512" height="62.2102" fill="black">
<rect fill="white" x="187.994" y="286.883" width="56.3512" height="62.2102"/>
<path d="M226.994 315.934C227.358 318.351 226.925 319.336 226.88 320.023C226.866 320.229 227.007 320.474 227.213 320.478C227.271 320.479 227.325 320.452 227.381 320.434C227.684 320.334 228.014 320.058 228.326 319.721C228.911 319.092 229.958 319.257 230.063 320.11C230.538 323.938 229.567 327.931 227.487 330.979C226.397 332.406 223.323 335.886 217.603 336.81C215.85 337.21 211.259 337.265 206.92 334.29C202.581 331.317 200.95 327.209 200.518 324.667C200.341 323.67 200.134 321.501 201.194 318.479C201.687 316.905 204.312 313.103 204.634 312.652C205.965 310.76 206.766 308.773 207.163 307.473C207.33 306.925 207.829 306.714 208.239 307.114C208.482 307.351 208.743 307.627 208.972 307.894C209.356 308.364 209.671 308.784 209.938 309.192C210.407 309.907 211.563 309.97 212.02 309.248C213.331 307.177 214.82 305.419 216.474 304.019C218.472 302.275 220.852 301.078 223.246 300.488C224.051 300.29 224.702 301.213 224.452 302.004C224.057 303.257 223.709 304.997 223.724 307.073C223.725 307.143 223.733 307.213 223.749 307.281C224.013 308.366 224.568 309.427 225.03 310.465C225.255 310.838 225.356 311.286 225.581 311.659C226.66 314.148 226.819 314.775 226.994 315.934Z"/>
</mask>
<path d="M226.994 315.934C227.358 318.351 226.925 319.336 226.88 320.023C226.866 320.229 227.007 320.474 227.213 320.478C227.271 320.479 227.325 320.452 227.381 320.434C227.684 320.334 228.014 320.058 228.326 319.721C228.911 319.092 229.958 319.257 230.063 320.11C230.538 323.938 229.567 327.931 227.487 330.979C226.397 332.406 223.323 335.886 217.603 336.81C215.85 337.21 211.259 337.265 206.92 334.29C202.581 331.317 200.95 327.209 200.518 324.667C200.341 323.67 200.134 321.501 201.194 318.479C201.687 316.905 204.312 313.103 204.634 312.652C205.965 310.76 206.766 308.773 207.163 307.473C207.33 306.925 207.829 306.714 208.239 307.114C208.482 307.351 208.743 307.627 208.972 307.894C209.356 308.364 209.671 308.784 209.938 309.192C210.407 309.907 211.563 309.97 212.02 309.248C213.331 307.177 214.82 305.419 216.474 304.019C218.472 302.275 220.852 301.078 223.246 300.488C224.051 300.29 224.702 301.213 224.452 302.004C224.057 303.257 223.709 304.997 223.724 307.073C223.725 307.143 223.733 307.213 223.749 307.281C224.013 308.366 224.568 309.427 225.03 310.465C225.255 310.838 225.356 311.286 225.581 311.659C226.66 314.148 226.819 314.775 226.994 315.934Z" fill="#CA0D7B"/>
<path d="M226.88 320.023L233.864 320.487L233.864 320.487L226.88 320.023ZM226.994 315.934L220.072 316.979L220.072 316.979L226.994 315.934ZM225.581 311.659L232.005 308.877L231.818 308.445L231.574 308.042L225.581 311.659ZM225.03 310.465L218.635 313.311L218.812 313.709L219.037 314.082L225.03 310.465ZM223.749 307.281L216.947 308.932L216.947 308.932L223.749 307.281ZM223.246 300.488L221.573 293.691L221.573 293.691L223.246 300.488ZM216.474 304.019L220.995 309.363L221.037 309.328L221.078 309.292L216.474 304.019ZM212.02 309.248L217.934 312.993L217.934 312.993L212.02 309.248ZM209.938 309.192L204.084 313.03L204.084 313.03L209.938 309.192ZM208.972 307.894L214.393 303.465L214.342 303.402L214.289 303.34L208.972 307.894ZM208.239 307.114L203.351 312.125L203.351 312.125L208.239 307.114ZM204.634 312.652L210.328 316.723L210.344 316.702L210.359 316.68L204.634 312.652ZM201.194 318.479L207.8 320.795L207.839 320.683L207.875 320.57L201.194 318.479ZM200.518 324.667L207.419 323.496L207.415 323.468L207.41 323.44L200.518 324.667ZM206.92 334.29L210.879 328.517L210.876 328.515L206.92 334.29ZM217.603 336.81L216.487 329.899L216.265 329.935L216.046 329.985L217.603 336.81ZM227.487 330.979L233.049 335.229L233.163 335.08L233.268 334.926L227.487 330.979ZM230.063 320.11L237.01 319.248L237.01 319.248L230.063 320.11ZM207.163 307.473L200.468 305.429L200.468 305.429L207.163 307.473ZM224.452 302.004L217.777 299.898L217.777 299.898L224.452 302.004ZM223.724 307.073L230.724 307.023L230.724 307.023L223.724 307.073ZM228.326 319.721L223.197 314.958L223.197 314.958L228.326 319.721ZM227.381 320.434L225.198 313.783L225.198 313.783L227.381 320.434ZM227.213 320.478L227.068 327.477L227.068 327.477L227.213 320.478ZM233.864 320.487C233.843 320.805 233.786 321.066 233.855 320.689C233.9 320.439 233.987 319.964 234.05 319.377C234.184 318.134 234.185 316.68 233.915 314.89L220.072 316.979C220.167 317.605 220.134 317.852 220.131 317.877C220.126 317.924 220.119 317.976 220.081 318.18C220.067 318.259 220.03 318.456 220 318.65C219.967 318.855 219.921 319.177 219.895 319.56L233.864 320.487ZM233.915 314.89C233.612 312.878 233.194 311.622 232.005 308.877L219.158 314.442C219.685 315.658 219.876 316.17 219.961 316.433C219.999 316.553 220.014 316.596 220.072 316.979L233.915 314.89ZM231.574 308.042C231.715 308.275 231.798 308.455 231.827 308.522C231.85 308.574 231.861 308.604 231.812 308.479C231.78 308.399 231.687 308.163 231.575 307.91C231.456 307.643 231.276 307.267 231.023 306.848L219.037 314.082C218.896 313.849 218.814 313.669 218.784 313.603C218.761 313.551 218.75 313.52 218.8 313.645C218.832 313.725 218.924 313.961 219.037 314.214C219.155 314.481 219.335 314.857 219.588 315.277L231.574 308.042ZM231.425 307.619C231.285 307.303 231.136 306.984 231.027 306.747C230.908 306.488 230.818 306.292 230.74 306.111C230.578 305.737 230.548 305.615 230.551 305.629L216.947 308.932C217.408 310.833 218.44 312.872 218.635 313.311L231.425 307.619ZM221.573 293.691C218.119 294.541 214.728 296.251 211.87 298.746L221.078 309.292C222.215 308.299 223.585 307.614 224.918 307.286L221.573 293.691ZM211.953 298.675C209.674 300.603 207.736 302.929 206.106 305.502L217.934 312.993C218.927 311.425 219.965 310.235 220.995 309.363L211.953 298.675ZM215.792 305.354C215.354 304.686 214.883 304.065 214.393 303.465L203.551 312.323C203.83 312.663 203.987 312.882 204.084 313.03L215.792 305.354ZM214.289 303.34C213.909 302.898 213.503 302.47 213.127 302.103L203.351 312.125C203.462 312.232 203.577 312.356 203.656 312.448L214.289 303.34ZM198.939 308.581C198.704 308.91 197.89 310.087 197.055 311.414C196.408 312.441 195.082 314.572 194.514 316.388L207.875 320.57C207.807 320.788 207.76 320.87 207.811 320.762C207.849 320.679 207.921 320.537 208.033 320.331C208.26 319.918 208.563 319.412 208.901 318.875C209.233 318.347 209.567 317.842 209.837 317.439C209.972 317.24 210.088 317.07 210.176 316.941C210.221 316.877 210.257 316.825 210.285 316.785C210.298 316.766 210.309 316.75 210.317 316.739C210.326 316.727 210.329 316.722 210.328 316.723L198.939 308.581ZM194.589 316.163C193.056 320.533 193.281 323.953 193.627 325.894L207.41 323.44C207.4 323.387 207.213 322.469 207.8 320.795L194.589 316.163ZM193.617 325.838C194.295 329.834 196.742 335.802 202.964 340.064L210.876 328.515C208.419 326.831 207.604 324.584 207.419 323.496L193.617 325.838ZM218.719 343.72C226.95 342.391 231.436 337.339 233.049 335.229L221.925 326.729C221.357 327.472 219.696 329.381 216.487 329.899L218.719 343.72ZM233.268 334.926C236.329 330.442 237.69 324.732 237.01 319.248L223.116 320.971C223.386 323.143 222.805 325.421 221.705 327.032L233.268 334.926ZM216.046 329.985C216.155 329.96 215.484 330.089 214.346 329.905C213.296 329.736 212.071 329.334 210.879 328.517L202.961 340.062C209.142 344.302 215.794 344.402 219.159 343.635L216.046 329.985ZM200.468 305.429C200.229 306.21 199.712 307.482 198.908 308.625L210.359 316.68C212.217 314.039 213.302 311.335 213.857 309.517L200.468 305.429ZM217.777 299.898C217.184 301.778 216.703 304.246 216.724 307.124L230.724 307.023C230.715 305.748 230.931 304.736 231.128 304.11L217.777 299.898ZM223.197 314.958C223.206 314.948 223.327 314.815 223.559 314.636C223.752 314.486 224.311 314.074 225.198 313.783L229.564 327.084C231.674 326.392 233.03 324.942 233.456 324.484L223.197 314.958ZM206.106 305.502C207.464 303.358 209.671 302.706 211.239 302.763C212.771 302.819 214.611 303.553 215.792 305.354L204.084 313.03C205.734 315.546 208.386 316.668 210.728 316.754C213.106 316.841 216.119 315.859 217.934 312.993L206.106 305.502ZM224.918 307.286C222.039 307.994 219.744 306.518 218.677 305.118C217.676 303.805 217.147 301.894 217.777 299.898L231.128 304.11C232.007 301.323 231.277 298.555 229.812 296.632C228.281 294.623 225.257 292.785 221.573 293.691L224.918 307.286ZM227.357 313.48C230.214 313.539 231.99 315.262 232.763 316.406C233.533 317.545 233.966 318.964 233.864 320.487L219.895 319.56C219.78 321.288 220.276 322.932 221.165 324.246C222.056 325.565 224.005 327.413 227.068 327.477L227.357 313.48ZM230.552 305.629C230.672 306.126 230.721 306.596 230.724 307.023L216.724 307.124C216.728 307.69 216.793 308.3 216.947 308.932L230.552 305.629ZM227.068 327.477C228.217 327.5 229.095 327.239 229.451 327.124C229.548 327.092 229.628 327.064 229.679 327.046C229.728 327.029 229.769 327.013 229.773 327.012C229.815 326.996 229.7 327.04 229.564 327.084L225.198 313.783C225.106 313.813 225.032 313.839 224.985 313.856C224.961 313.865 224.942 313.872 224.929 313.876C224.918 313.881 224.906 313.885 224.906 313.885C224.875 313.897 224.996 313.851 225.145 313.802C225.445 313.706 226.267 313.457 227.357 313.48L227.068 327.477ZM213.127 302.103C211.339 300.359 208.365 299.22 205.227 300.356C202.432 301.368 201.011 303.648 200.468 305.429L213.857 309.517C213.481 310.75 212.393 312.651 209.992 313.52C207.249 314.513 204.729 313.469 203.351 312.125L213.127 302.103ZM237.01 319.248C236.554 315.571 233.788 313.101 230.74 312.494C227.968 311.942 225.114 312.893 223.197 314.958L233.456 324.484C232.123 325.919 230.085 326.638 228.008 326.225C225.656 325.757 223.467 323.795 223.116 320.971L237.01 319.248Z" fill="#FF7EC9" mask="url(#path-46-outside-2_284:4757)"/>
<path d="M217.438 331.968C216.05 332.81 214.363 333.156 212.693 332.746C208.16 331.631 205.557 325.412 210.035 321.947C211.877 320.286 213.902 319.938 215.127 318.041C215.641 317.322 215.975 316.305 216.052 315.648C216.032 315.389 216.168 314.493 216.187 314.413C216.207 314.333 216.207 314.333 216.287 314.353L216.386 314.293C216.465 314.312 216.465 314.312 216.545 314.332C216.665 314.53 216.784 314.729 216.904 314.927C217.144 315.324 217.444 315.821 217.683 316.218C218.282 317.211 218.665 318.742 218.452 320.296C218.14 322.248 217.271 323.726 215.585 324.41C216.162 324.806 216.798 324.962 217.573 324.899C218.784 324.774 219.577 324.293 220.031 323.474C220.031 323.474 220.051 323.395 220.13 323.414L220.21 323.434C220.787 323.829 221.268 324.962 220.799 327.214C220.228 328.849 219.519 330.704 217.438 331.968Z" fill="#FFADDD"/>
<defs>
<linearGradient id="paint0_linear_284:4757" x1="216.485" y1="526.025" x2="216.485" y2="885.167" gradientUnits="userSpaceOnUse">
<stop stop-color="#0B2BED"/>
<stop offset="1" stop-color="#0F0967"/>
</linearGradient>
<linearGradient id="paint1_linear_284:4757" x1="203.199" y1="297.695" x2="295.114" y2="493.141" gradientUnits="userSpaceOnUse">
<stop stop-color="#110F89"/>
<stop offset="0.335202" stop-color="#0D1998"/>
<stop offset="1" stop-color="#0239C6"/>
</linearGradient>
</defs>
</svg>
