<svg width="163" height="122" viewBox="0 0 163 122" fill="none" xmlns="http://www.w3.org/2000/svg">
<path fill-rule="evenodd" clip-rule="evenodd" d="M60.9121 11.8574C73.2529 18.1096 92.4986 23.6173 111.859 16.9623C137.459 8.16228 155.525 13.2956 161.359 16.9623L162.238 16.1273C157.852 37.2339 149.821 55.5958 142.91 67.1864C108.115 127.028 54.7215 124.51 29.3146 117.634C1.88796 110.212 -1.0458 91.2499 1.17153 81.9722C1.86111 76.1114 7.49181 74.3938 15.1179 72.0675C16.5459 71.6319 18.0439 71.175 19.5925 70.6655C48.8702 61.0331 58.6781 33.7465 60.9121 11.8574Z" fill="#0041EA"/>
<path d="M79.7468 19.2462C78.3112 21.2013 75.8879 21.1455 74.8557 20.8732C72.6636 23.0366 70.226 21.5984 69.2812 20.6089C67.9522 18.8346 70.0344 14.9804 71.2417 13.275C73.8525 8.71254 77.9159 10.0951 79.6212 11.3567C82.8539 13.4973 81.0519 17.5083 79.7468 19.2462Z" fill="#CA0D7B"/>
<path d="M125.771 10.0398C125.578 5.7348 121.574 4.69176 119.595 4.70837C116.669 4.73293 114.702 7.20207 113.882 8.82964C111.1 7.92308 108.317 10.1262 108.175 12.5261C107.819 18.5442 112.815 20.5797 115.166 21.0757C123.95 22.2206 125.95 13.883 125.771 10.0398Z" fill="#CA0D7B"/>
<path d="M89.8606 57.857C85.1736 60.3929 80.1663 60.1116 77.0965 57.0651C74.0266 54.0185 73.4732 49.3776 73.4732 49.3776C69.133 48.8359 68.934 44.3438 69.9548 41.9127C71.2379 38.857 73.3543 37.0879 75.583 36.8091C75.964 33.6884 80.4467 32.2019 82.26 31.6196C89.9526 30.6081 92.7449 35.6647 92.4326 39.6244C95.0042 42.7696 95.4757 46.0422 95.2569 48.5057C95.4111 50.5662 94.5477 55.3211 89.8606 57.857Z" fill="#CA0D7B"/>
<circle cx="71.0189" cy="73.4677" r="2.57606" fill="#CA0D7B"/>
<circle cx="85.621" cy="70.8915" r="2.57606" fill="#CA0D7B"/>
<circle cx="64.4769" cy="65.8763" r="3.96611" fill="#CA0D7B"/>
<circle cx="119.337" cy="39.7567" r="2.57606" fill="#CA0D7B"/>
<circle cx="109.545" cy="32.4788" r="3.96611" fill="#CA0D7B"/>
<circle cx="129.508" cy="28.513" r="3.96611" fill="#CA0D7B"/>
</svg>
