<svg xmlns="http://www.w3.org/2000/svg" xmlns:xlink="http://www.w3.org/1999/xlink" width="1920" height="428" fill="none"
    xmlns:v="https://vecta.io/nano">
    <path fill-rule="evenodd"
        d="M1412.28 52.919c-5.94 4.549-16.35 6.765-23.52 4.61-12.78-3.845-26.14.667-32.03 7.226-9.89 11.014-13 23.183-12.45 34.758.04.854 1.12 1.192 1.7.56 8.81-9.687 21.1-12.846 27.44-7.056 6.35 5.79 4.34 18.336-4.48 28.023a35.41 35.41 0 0 1-3.58 3.43c-5.1 4.249-8.5 11.884-4.44 17.144a71.57 71.57 0 0 0 1.21 1.533c11.61 14.173 29.59 27.758 44 35.743l2.66 105.252c-4.94-18.521-12.16-37.773-22.46-52.814.75-3.022-.1-6.214-2.15-8.577l-46.89-54.078c-4.17-4.807-11.65-4.472-14.28 1.323-1.59 3.513-3.05 7.509-4.19 11.897-1.75 6.728 5.3 11.491 11.79 13.978 2.25.861 4.07 2.25 5.28 4.168 4.42 7.059-1.26 18.609-12.69 25.799-1.23.773-1.81 2.287-1.27 3.635 2.43 6.087 5.77 12.306 10.21 18.559 2.27 2.684 5.03 5.426 8.11 7.84.2.158.5.024.52-.231.68-7.699 4.95-13.609 9.52-13.202s7.73 6.979 7.04 14.677c-.28 3.206 1.7 6.616 4.87 6.061 7.63-1.334 15.1-7.55 20.88-22.093 7.94 13.274 13.87 29.559 18.15 45.769 5.65 21.394 8.3 42.183 9.01 54.705l7.96-.086.03.002v-.002-.001-.026-.057l.01-.066c0-.113.01-.289.02-.524l.15-2.104a135.24 135.24 0 0 1 .9-7.953c.95-6.789 2.7-16.282 5.94-27.047 5.95-19.81 16.82-43.703 36.62-63.065l1.56.86c2.85 1.547 6.3 1.51 9.16-.003l82.2-43.459c5.62-2.968 7.01-10.328 2.12-14.382-6.04-5-13.93-10.075-23.39-13.993-.6-.251-1.29.078-1.5.699-5.33 15.898-17.59 26.118-27.37 22.826-6.13-2.059-9.83-8.915-10.45-17.651-.46-6.561-5.3-12.764-11.79-11.72-7.82 1.257-16.02 3.515-24.55 7.015-9.1 4.658-19.34 12.509-24.1 22.282-2.67 5.499 2.95 10.438 8.96 11.583 9.4 1.793 16.4 6.55 15.62 10.626-.77 4.075-9.03 5.925-18.43 4.132-1.54-.293-2.76 1.387-1.78 2.608 3.77 4.677 9.2 9.477 16.67 14.325-20.15 20.345-31.18 44.915-37.21 65.015l-.34 1.12-3.01-119.559c5.61 2.476 10.12 3.642 12.65 3.054 4.51-1.048 9.64-6.341 14.18-12.326 3.55-4.682 1.4-11.386-2.52-15.764-7.23-8.084-8.81-18.488-3.51-23.239 5.29-4.751 15.45-2.049 22.68 6.035.61.681 1.74.533 2.1-.31 2.31-5.491 4.16-10.754 5.6-15.781 1.76-6.139-3.43-11.895-9.47-13.965-12.1-4.144-19.71-13.945-17-21.891s14.72-11.029 26.82-6.885c1.15.395 2.36-.583 2.08-1.769-3.55-15.217-11.75-24.876-19.24-28.348-16.98-7.873-28.85-4.571-36.33 1.155z"
        fill="url(#A)" />
    <path
        d="M1476.38 326.406h-121.77c-3.06 0-5.98 1.375-7.75 3.87-5.4 7.61-10.41 17.566-10.11 30.887.54 23.527 23.03 50.129 38.71 50.129h80.76c15.68 0 37.71-25.733 38.04-50.129.22-15.701-5.46-24.956-10-30.934-1.86-2.447-4.81-3.823-7.88-3.823z"
        fill="url(#B)" />
    <path
        d="M609.523 153.2c0-53.13-43.07-96.2-96.199-96.2H48.25c-53.13 0-96.2 43.07-96.2 96.2h0c0 53.129 43.07 96.2 96.2 96.2h465.074c53.129 0 96.199-43.071 96.199-96.2h0z"
        fill="url(#C)" />
    <path
        d="M433.995 111.78c30.968-7.676 124.78-6.256 130.993 6.355 6.241 12.668 0 131.996 0 131.996h-183.06c7.569-72.267 36.826-130.729 51.281-138.067.262-.133.501-.214.786-.284z"
        fill="url(#D)" />
    <path
        d="M459.552 154.234c-41.232-8.553-82.368-2.771-98.426 1.416-22.189 24.454-29.123 73.177-29.816 94.481h134.521c5.851-35.66 3.559-70.355 1.035-88.138-.55-3.88-3.477-6.963-7.314-7.759z"
        fill="url(#E)" />
    <path
        d="M-20.904 144.51c48.217-11.79 97.876-4.913 116.678 0C120.5 171.813 128.227 226.213 129 250H-20.904c-7.418-45.299-3.091-89.201 0-105.49z"
        fill="url(#F)" />
    <path
        d="M601.046 269.437c0-11.046-8.954-20-20-20H-37c-11.046 0-20 8.954-20 20v66.986c0 11.046 8.954 20 20 20h618.046c11.046 0 20-8.954 20-20v-66.986z"
        fill="url(#G)" />
    <path
        d="M601.119 376.288c0-11.046-8.954-20-20-20H-37c-11.046 0-20 8.954-20 20V392c0 11.045 8.954 20 20 20h618.119c11.046 0 20-8.955 20-20v-15.712z"
        fill="url(#H)" />
    <path
        d="M553.926 163.123c0-31.777 25.76-57.537 57.537-57.537h0c31.777 0 57.537 25.76 57.537 57.537V362c0 27.614-22.386 50-50 50h-55.074a10 10 0 0 1-10-10V163.123z"
        fill="#263ebc" />
    <path d="M1583 11c0-5.523 4.48-10 10-10h327v410h-327c-5.52 0-10-4.477-10-10V11z" fill="#17238e" />
    <path
        d="M1612 230c0-5.523 4.48-10 10-10h298v161h-298c-5.52 0-10-4.477-10-10V230zm0-189c0-5.523 4.48-10 10-10h298v161h-298c-5.52 0-10-4.477-10-10V41z"
        fill="#0d197c" />
    <rect x="1622.69" y="97.324" width="28" height="95" rx="2" transform="rotate(359.785 1622.69 97.324)"
        fill="#17238e" />
    <g fill="#1f2ca5">
        <rect x="1650.26" y="97.105" width="28" height="95" rx="2" transform="rotate(359.785 1650.26 97.105)" />
        <rect x="1879" y="74" width="41" height="117" rx="2" />
    </g>
    <rect x="1861" y="89" width="18" height="102" rx="2" fill="#17238e" />
    <g fill="#1f2ca5">
        <rect x="1843" y="89" width="18" height="102" rx="2" />
        <rect x="1821.02" y="105.327" width="18" height="85.097" rx="2" transform="rotate(15 1821.02 105.327)" />
        <rect x="1678" y="264" width="93" height="117" rx="2" />
    </g>
    <rect x="1688" y="274" width="74" height="97" rx="2" fill="#17238e" />
    <path stroke="#000" d="M1583 1h337v410h-337z" />
    <defs>
        <linearGradient id="A" x1="1448.65" y1="48.314" x2="1428.62" y2="342.808" xlink:href="#I">
            <stop stop-color="#2d3dca" />
            <stop offset="1" stop-color="#2d3dca" stop-opacity="0" />
        </linearGradient>
        <linearGradient id="B" x1="1415.5" y1="326.406" x2="1415.5" y2="411.292" xlink:href="#I">
            <stop stop-color="#1d2dac" />
            <stop offset="1" stop-color="#0d1d8c" />
        </linearGradient>
        <linearGradient id="C" x1="280.787" y1="57" x2="280.787" y2="249.4" xlink:href="#I">
            <stop stop-color="#1e2ca2" />
            <stop offset="1" stop-color="#1e2ca2" stop-opacity="0" />
        </linearGradient>
        <linearGradient id="D" x1="474.845" y1="107.068" x2="474.845" y2="250.131" xlink:href="#I">
            <stop stop-color="#466ed3" />
            <stop offset="1" stop-color="#1745bb" />
        </linearGradient>
        <linearGradient id="E" x1="400.408" y1="149.819" x2="400.408" y2="250.131" xlink:href="#I">
            <stop stop-color="#1b3fbd" />
            <stop offset="1" stop-color="#0c288c" />
        </linearGradient>
        <linearGradient id="F" x1="52" y1="138" x2="52" y2="250" xlink:href="#I">
            <stop stop-color="#1b3fbd" />
            <stop offset="1" stop-color="#0c288c" />
        </linearGradient>
        <radialGradient id="G" cx="0" cy="0" r="1" gradientTransform="translate(246.713 302.93) scale(307.874 1900.8)"
            xlink:href="#I">
            <stop stop-color="#253fc6" />
            <stop offset="1" stop-color="#142998" />
        </radialGradient>
        <linearGradient id="H" x1="272.06" y1="356.422" x2="272.06" y2="412" xlink:href="#I">
            <stop stop-color="#101f9d" />
            <stop offset="1" stop-color="#1124a7" />
        </linearGradient>
        <linearGradient id="I" gradientUnits="userSpaceOnUse" />
    </defs>
</svg>