<svg width="2062" height="1227" viewBox="0 0 2062 1227" fill="none" xmlns="http://www.w3.org/2000/svg">
<circle cx="1590.5" cy="90.5" r="90.5" fill="url(#paint0_linear)"/>
<circle cx="1590.5" cy="90.5003" r="76.1634" fill="url(#paint1_linear)"/>
<path d="M1588 41.3866C1588.06 39.7903 1589.37 38.5293 1590.97 38.5293C1592.59 38.5293 1593.91 39.8242 1593.95 41.4435L1594.89 86.4153C1594.94 88.6569 1593.14 90.4996 1590.89 90.4996H1590.18C1587.91 90.4996 1586.1 88.6092 1586.19 86.3388L1588 41.3866Z" fill="#CBDDFF"/>
<path d="M1572.91 126.453C1572.04 127.796 1570.27 128.224 1568.89 127.425C1567.48 126.613 1566.98 124.827 1567.75 123.399L1584.96 91.7626C1586.04 89.787 1588.53 89.0852 1590.48 90.2097L1591.05 90.5388C1593.03 91.6815 1593.65 94.2473 1592.41 96.1687L1572.91 126.453Z" fill="#CBDDFF"/>
<ellipse cx="1590.5" cy="90.5004" rx="8.96039" ry="8.9604" fill="#CBDDFF"/>
<ellipse cx="1590.5" cy="90.5003" rx="5.37624" ry="5.37624" fill="#1323B7"/>
<path fill-rule="evenodd" clip-rule="evenodd" d="M1857.8 428.199C1852.43 433.408 1842.32 435.565 1835.42 432.665C1818.08 425.377 1798.86 431.335 1790.78 440.344C1778.26 454.29 1774.32 469.697 1775.02 484.353C1775.08 485.434 1776.44 485.861 1777.17 485.061C1788.33 472.796 1803.88 468.797 1811.91 476.128C1819.94 483.459 1817.4 499.344 1806.24 511.608C1803.95 514.128 1801.47 516.299 1798.91 518.094C1793.47 521.907 1790.12 529.42 1793.98 534.825C1795.24 536.591 1796.47 538.19 1797.62 539.599C1812.6 557.9 1835.98 575.426 1854.39 585.447L1857.98 727.63L1867.56 790.672L1867.56 790.667L1867.56 790.632L1867.57 790.59L1867.57 790.47C1867.58 790.38 1867.58 790.259 1867.59 790.109C1867.59 790.015 1867.6 789.91 1867.61 789.794C1867.64 789.19 1867.7 788.283 1867.8 787.103C1867.99 784.743 1868.34 781.29 1868.94 776.974C1870.15 768.336 1872.38 756.262 1876.49 742.57C1884.03 717.458 1897.81 687.127 1922.91 662.482C1924.24 663.239 1925.61 663.997 1927.03 664.755C1929.88 666.283 1933.37 666.266 1936.23 664.753L2044.38 607.552C2050 604.584 2051.41 597.222 2046.66 593.011C2038.75 586.013 2027.88 578.679 2014.56 573.159C2013.79 572.842 2012.93 573.258 2012.66 574.044C2005.91 594.174 1990.4 607.113 1978.01 602.945C1969.47 600.072 1964.64 589.817 1964.68 577.128C1964.7 570.551 1959.81 564.387 1953.29 565.254C1942.38 566.705 1930.85 569.692 1918.79 574.639C1906.45 580.959 1892.44 591.923 1887.11 605.549C1884.85 611.325 1890.57 616.242 1896.71 617.049C1897.67 617.174 1898.64 617.33 1899.62 617.517C1911.52 619.787 1920.38 625.811 1919.4 630.971C1918.42 636.131 1907.97 638.474 1896.07 636.203C1894.12 635.832 1892.58 637.96 1893.82 639.504C1898.73 645.617 1905.9 651.892 1915.84 658.231C1890.39 683.857 1876.46 714.866 1868.83 740.267C1867.98 743.096 1867.21 745.857 1866.51 748.537L1862.5 589.518C1870.1 592.982 1876.23 594.648 1879.59 593.867C1885.83 592.416 1893.02 584.541 1899.13 576.118C1902.67 571.242 1900.51 564.422 1896.19 560.223C1895.57 559.612 1894.95 558.971 1894.35 558.301C1885.19 548.066 1883.2 534.892 1889.9 528.877C1896.6 522.861 1909.45 526.282 1918.61 536.517C1919.38 537.38 1920.82 537.192 1921.27 536.125C1924.67 528.034 1927.28 520.335 1929.22 513.041C1930.87 506.815 1925.67 501.043 1919.44 499.396C1918.42 499.126 1917.4 498.815 1916.37 498.463C1901.05 493.216 1891.42 480.806 1894.85 470.744C1898.29 460.683 1913.49 456.78 1928.81 462.027C1930.26 462.526 1931.79 461.289 1931.44 459.788C1926.94 440.52 1916.56 428.29 1907.08 423.895C1882.9 412.68 1866.9 419.373 1857.8 428.199ZM1746.73 648.9C1746.04 647.194 1746.79 645.277 1748.34 644.299C1762.81 635.195 1770 620.571 1764.4 611.633C1762.27 608.232 1758.59 606.144 1754.05 605.365C1747.2 604.188 1740.42 599.155 1741.91 592.363C1743.73 584.016 1746.5 576.658 1749.51 570.632C1752.35 564.941 1759.86 564.629 1764.03 569.438L1826.43 641.425C1828.55 643.866 1829.37 647.22 1828.51 650.335C1820.84 678.375 1809.42 689.525 1797.71 691.575C1793.7 692.278 1791.18 687.961 1791.55 683.901C1792.41 674.154 1788.42 665.834 1782.63 665.318C1776.84 664.802 1771.45 672.286 1770.58 682.033C1770.55 682.357 1770.18 682.526 1769.92 682.326C1766.02 679.27 1762.53 675.798 1759.66 672.399C1754.04 664.482 1749.81 656.608 1746.73 648.9Z" fill="url(#paint2_linear)"/>
<path d="M1943.52 771.634H1786.81C1783.75 771.634 1780.84 773.015 1779.04 775.488C1771.93 785.252 1765.1 798.157 1765.5 815.641C1766.17 845.43 1794.64 879.112 1814.49 879.112H1916.71C1936.56 879.112 1964.44 846.53 1964.87 815.641C1965.15 794.842 1957.28 782.976 1951.42 775.45C1949.53 773.024 1946.6 771.634 1943.52 771.634Z" fill="url(#paint3_linear)"/>
<path fill-rule="evenodd" clip-rule="evenodd" d="M1307.17 619.017C1247.01 618.946 1215.98 608.462 1203.7 604.315C1201.12 603.444 1199.37 602.852 1198.35 602.695C1193.63 601.97 1190.77 606.624 1189.93 609.043C1186.43 626.491 1185.5 651.818 1183.51 705.937C1182.44 735.068 1181.06 772.541 1178.81 821.618C1172.91 950.503 1165.26 1121.1 1164.06 1147.9C1163.96 1150.12 1165.33 1152.02 1167.44 1152.69C1216.47 1168.39 1270.53 1160.78 1293.47 1154.16C1295.51 1153.57 1296.86 1151.73 1296.89 1149.6C1297.13 1132.26 1298.16 1053.86 1298.16 984.703C1298.16 906.595 1300.2 784.117 1300.21 783.577C1300.21 783.561 1300.21 783.567 1300.21 783.55C1300.22 771.583 1302.25 765.659 1304.39 759.458C1305.16 757.2 1309.18 757.2 1309.96 759.458C1312.09 765.659 1314.13 771.583 1314.13 783.55C1314.13 783.567 1314.13 783.561 1314.13 783.577C1314.14 784.117 1316.18 906.595 1316.18 984.703C1316.18 1053.86 1317.21 1132.26 1317.45 1149.6C1317.48 1151.73 1318.83 1153.57 1320.88 1154.16C1343.81 1160.78 1397.87 1168.39 1446.9 1152.69C1449.01 1152.02 1450.39 1150.12 1450.29 1147.9C1449.09 1121.1 1441.44 950.503 1435.53 821.618C1433.28 772.541 1431.9 735.068 1430.83 705.937C1428.85 651.818 1427.92 626.491 1424.41 609.043C1423.57 606.624 1420.71 601.97 1416 602.695C1414.98 602.852 1413.22 603.444 1410.65 604.315C1398.37 608.462 1367.33 618.946 1307.17 619.017Z" fill="url(#paint4_linear)"/>
<path d="M1404.56 644.555C1405.49 660.397 1410.15 681.831 1428.8 684.627" stroke="white" stroke-width="3" stroke-linecap="round"/>
<path d="M1465.83 713.058C1472.02 700.933 1476.97 682.371 1475.21 655.532L1431.7 651.603C1431.7 651.603 1428.64 667.713 1427.8 676.994C1426.96 686.276 1424.19 704.037 1432.52 705.076C1431.61 730.83 1426.27 735.122 1428.71 739.453C1430.66 742.917 1436.94 742.349 1439.83 741.632C1452.91 740.934 1459.58 724.825 1465.83 713.058Z" fill="#E9F0FD"/>
<path d="M1405.49 307.203L1357.01 287.633C1351.62 334.713 1404.82 354.119 1415.71 410.116C1425.27 461.766 1426.12 628.829 1427.64 649.098C1427.64 654.107 1426.35 659.699 1429.97 659.932L1473.69 658.716C1480.39 658.253 1481.68 652.559 1481.48 649.77C1494.78 567.673 1503.03 454.295 1473.79 384.552C1459.77 343.954 1439.06 324.909 1405.49 307.203Z" fill="url(#paint5_linear)"/>
<path d="M1429.78 438.062C1428.45 325.999 1384.68 307.559 1359.79 304.139C1310.39 295.299 1269.5 300.456 1255.23 304.139C1193.73 322.06 1186.36 355.861 1181.25 431.981C1177.89 482.03 1171.18 574.678 1178.54 617.176C1180.75 629.958 1190.53 633.153 1195.14 633.153C1275.38 646.847 1362.12 641.825 1411.49 634.419C1423.97 632.548 1427.83 625.687 1428.77 617.176C1433.08 577.821 1429.3 475.014 1429.78 438.062Z" fill="#120F8A"/>
<ellipse rx="45.7387" ry="45.2523" transform="matrix(0.999718 -0.0237272 0.0237529 0.999718 1368.75 418.257)" fill="#59F0E7" fill-opacity="0.3"/>
<ellipse rx="39.5016" ry="39.0815" transform="matrix(0.999718 -0.0237272 0.0237529 0.999718 1369 418.251)" fill="#59F0E7" fill-opacity="0.4"/>
<ellipse rx="32.4329" ry="32.4994" transform="matrix(0.999718 -0.0237272 0.0237529 0.999718 1368.76 418.257)" fill="#59F0E7"/>
<path d="M1385.08 427.7L1385.11 427.613L1385.14 427.524C1386.54 423.509 1386.42 418.875 1384.81 414.817C1384.14 413.131 1382.66 412.21 1381.14 412.077C1381.07 411.905 1381 411.73 1380.92 411.554L1377.72 412.965L1380.92 411.554C1380.31 410.16 1379.81 409.365 1378.14 407.28L1377.99 407.096L1377.89 406.995C1377.87 406.975 1377.85 406.945 1377.81 406.895L1377.8 406.883C1377.75 406.807 1377.65 406.675 1377.54 406.539C1377.45 406.437 1377.35 406.315 1377.23 406.184C1377.03 405.944 1376.86 405.739 1376.71 405.559C1376.34 405.12 1376.1 404.827 1375.9 404.528C1375.58 403.241 1375.5 402.12 1375.53 401.298C1375.58 399.639 1374.75 398.216 1373.64 397.372C1372.49 396.494 1370.58 395.964 1368.73 397.008C1366.31 398.379 1364.1 400.377 1362.45 402.848C1361.66 403.996 1360.98 405.235 1360.4 406.549C1359.19 405.903 1357.53 405.763 1356.1 406.757C1354.79 407.667 1354.35 409.067 1354.31 410.134C1354.27 411.133 1354.08 412.699 1353.51 414.261C1353.39 414.585 1352.97 415.769 1352.57 417.086C1352.22 418.232 1351.7 420.037 1351.63 421.34C1351.37 424.991 1352.25 427.472 1352.85 428.757C1354.18 431.607 1357.28 435.685 1362.98 437.674C1368.57 439.628 1373.63 438.339 1375.9 437.178C1381.91 434.421 1384.28 429.637 1385.08 427.7Z" fill="#CA0D7B" stroke="#FF7EC9" stroke-width="7"/>
<path d="M1373.03 429.716C1371.99 430.812 1370.56 431.535 1368.95 431.573C1364.6 431.676 1360.74 426.716 1363.93 422.508C1365.18 420.565 1366.92 419.758 1367.56 417.753C1367.84 416.981 1367.9 415.985 1367.8 415.375C1367.72 415.147 1367.63 414.308 1367.62 414.231C1367.62 414.155 1367.62 414.155 1367.7 414.153L1367.77 414.075C1367.85 414.073 1367.85 414.073 1367.93 414.071C1368.08 414.22 1368.24 414.37 1368.39 414.519C1368.71 414.818 1369.1 415.191 1369.41 415.49C1370.19 416.237 1370.91 417.521 1371.1 418.97C1371.29 420.802 1370.87 422.343 1369.52 423.37C1370.14 423.585 1370.75 423.571 1371.43 423.325C1372.49 422.917 1373.09 422.291 1373.29 421.444C1373.29 421.444 1373.29 421.367 1373.37 421.365L1373.45 421.364C1374.06 421.579 1374.77 422.48 1374.9 424.62C1374.78 426.23 1374.6 428.071 1373.03 429.716Z" fill="#FFADDD"/>
<path d="M1285.11 460.968C1279.53 467.141 1266.69 484.228 1266.69 484.228L1275.52 520.89C1275.52 520.89 1318.13 507.588 1324.28 505.129C1330.43 502.671 1340.97 496.997 1346.83 492.728C1352.69 488.459 1364.11 477.976 1365.86 475.646C1367.61 473.316 1369.94 471.219 1368.08 467.957C1366.21 464.696 1363.76 465.977 1363.76 465.977L1373.32 456.542C1373.32 456.542 1378.8 452.464 1376.12 447.688C1373.44 442.912 1367.38 446.407 1367.38 446.407C1367.38 446.407 1373.67 441.049 1374.84 439.185C1376 437.321 1376.47 434.292 1373.79 431.846C1371.11 429.4 1368.63 431.001 1367.38 431.613C1366.12 432.225 1363.07 434.176 1363.07 434.176C1363.07 434.176 1363.94 428.872 1360.73 427.07C1357.53 425.268 1353.97 428.468 1352.11 429.633C1350.24 430.798 1343.48 436.972 1343.48 436.972C1343.48 436.972 1334.86 444.194 1330.33 446.989C1325.8 449.784 1318.28 452.815 1317.13 451.65C1315.98 450.484 1331.14 440.181 1333.76 437.645C1336.38 435.108 1332.88 430.099 1327.87 431.613C1322.85 433.127 1310.72 437.904 1304.67 441.864C1298.63 445.825 1290.69 454.794 1285.11 460.968Z" fill="#ECF1FD"/>
<path d="M1205.85 300.68C1240.35 290.43 1267.39 287.633 1267.39 287.633C1264.13 353.169 1204.28 338.889 1192.16 432.08C1182.84 502.904 1204.32 490.324 1265.4 474.015C1269.82 472.618 1274.49 468.191 1280.55 477.743C1286.61 487.295 1298.5 507.797 1298.5 507.797C1298.5 507.797 1303.86 513.622 1295.7 519.679C1287.54 525.737 1199.19 606.347 1131.26 549.5C1096.76 515.952 1092.7 461.75 1121.94 392.007C1135.96 351.408 1171.35 310.931 1205.85 300.68Z" fill="url(#paint6_linear)"/>
<path d="M1251.2 164.562L1307.39 164.052L1368.55 163.496C1368.82 192.236 1365.83 231.472 1363.86 258.487C1361.88 285.502 1360.61 293.92 1357.58 313.118C1352.19 347.332 1325.43 352.701 1308.65 352.62C1273.21 352.709 1262.74 328.34 1259.57 313.225C1257.59 300.429 1253.36 271.809 1251.97 249.597C1249.67 212.761 1249.78 182.444 1251.2 164.562Z" fill="#E9F0FF"/>
<path d="M1314.99 269.73C1310.95 270.038 1307.04 269.537 1303.58 268.659C1299.5 267.62 1295.17 271.061 1297.85 274.316C1301.92 279.267 1307.96 280.698 1311.43 280.667C1315.18 280.945 1318.4 279.529 1321.05 277.348C1324.81 274.257 1319.85 269.359 1314.99 269.73Z" fill="#D7DDE9"/>
<path d="M1294.27 252.751C1300.29 247.845 1315.07 240.918 1325.99 252.463" stroke="#0F0967" stroke-width="3" stroke-linecap="round" stroke-linejoin="round"/>
<path d="M1350.43 166.693C1312.07 175.818 1277.9 168.557 1268.52 166.771C1259.14 164.984 1256.75 162.023 1254.55 175.151C1252.36 188.28 1251.71 243.399 1251.71 243.399C1251.81 254.575 1239.83 231.492 1239.8 227.96L1235.7 202.626C1235.4 169.671 1237.42 150.417 1258.82 129.949C1285.1 104.809 1334.97 107.768 1362.06 132.131C1378.56 146.977 1379.6 182.23 1379.49 196.487C1379.38 210.744 1376.62 226.717 1376.62 226.717C1374.32 239.302 1363.93 253.17 1365.05 243.132C1366.17 233.094 1364.89 185.988 1363.34 175.371L1363.3 175.094C1361.8 164.741 1361.69 164.014 1350.43 166.693Z" fill="#0F43EC"/>
<path d="M1242.2 208.151L1252.87 209.869L1261.65 239.779L1248.9 235.71C1238.27 232.782 1235.06 224.635 1234.62 218.744C1234.07 211.541 1237.53 208.07 1242.2 208.151Z" fill="#E9F0FF"/>
<path d="M1373.51 206.958L1362.87 208.87L1354.64 238.934L1367.31 234.634C1377.89 231.514 1380.95 223.31 1381.29 217.412C1381.7 210.2 1378.18 206.792 1373.51 206.958Z" fill="#E9F0FF"/>
<path d="M1293.42 186.51C1293.84 185.636 1293.46 184.593 1292.59 184.181C1291.71 183.769 1290.67 184.143 1290.26 185.018L1293.42 186.51ZM1274.76 192.076C1273.79 192.056 1272.99 192.824 1272.97 193.79C1272.95 194.756 1273.72 195.555 1274.69 195.575L1274.76 192.076ZM1290.26 185.018C1289.27 187.106 1286.98 188.922 1283.96 190.214C1280.98 191.49 1277.57 192.133 1274.76 192.076L1274.69 195.575C1278.02 195.643 1281.92 194.896 1285.34 193.431C1288.72 191.982 1291.92 189.705 1293.42 186.51L1290.26 185.018Z" fill="#0F0967"/>
<path d="M1326.2 185.509C1325.84 184.614 1326.27 183.592 1327.16 183.226C1328.05 182.86 1329.08 183.288 1329.44 184.182L1326.2 185.509ZM1344.55 192.034C1345.52 192.065 1346.28 192.872 1346.25 193.838C1346.22 194.804 1345.41 195.563 1344.44 195.532L1344.55 192.034ZM1329.44 184.182C1330.32 186.319 1332.51 188.251 1335.46 189.698C1338.37 191.127 1341.74 191.945 1344.55 192.034L1344.44 195.532C1341.11 195.427 1337.26 194.48 1333.92 192.84C1330.61 191.218 1327.54 188.778 1326.2 185.509L1329.44 184.182Z" fill="#0F0967"/>
<ellipse rx="4.16076" ry="4.1587" transform="matrix(0.999983 -0.00908251 0.00909161 0.999935 1285.75 204.117)" fill="#0F0967"/>
<ellipse rx="4.16076" ry="4.15871" transform="matrix(0.999983 -0.00908223 0.00909191 0.999935 1331.81 203.699)" fill="#0F0967"/>
<path d="M1313.43 193.922L1318.02 229.198C1318.25 230.983 1316.87 232.569 1315.07 232.585L1301.3 232.71" stroke="#0F0967" stroke-width="3" stroke-linecap="round"/>
<path d="M1433.69 705.977C1435.62 706.229 1440.1 704.919 1442.63 697.662C1444.7 690.362 1445.7 679.269 1450.6 672.629" stroke="#0F0967" stroke-width="3" stroke-linecap="round"/>
<path d="M1210.62 644.555C1209.68 660.397 1205.02 681.831 1186.37 684.627" stroke="white" stroke-width="3" stroke-linecap="round"/>
<path d="M1364.93 465.861C1359.8 470.987 1355.14 474.016 1348.38 478.908" stroke="#0F0967" stroke-width="3" stroke-linecap="round"/>
<path d="M1363.76 434.409C1359.1 439.612 1347.68 450.252 1338.12 456.076" stroke="#0F0967" stroke-width="3" stroke-linecap="round"/>
<path d="M1366.33 447.688C1361.43 453.047 1353.28 460.735 1343.49 467.026" stroke="#0F0967" stroke-width="3" stroke-linecap="round"/>
<path d="M1289.94 1157.04C1291.98 1165.87 1291.16 1178.47 1291.16 1178.47L1291.14 1196.95C1291.14 1197.98 1290.73 1198.97 1289.94 1199.64C1287.57 1201.65 1281.48 1206.18 1270.36 1210.69C1255.44 1216.75 1242.16 1221.18 1223.27 1222.57C1203.69 1223.51 1191.34 1223.51 1177.35 1221.88C1157.38 1218.52 1150.79 1218.8 1151.27 1212.43L1151.5 1191.75C1151.99 1175.15 1162.91 1162.9 1179.52 1157.58C1194.62 1153.32 1215.33 1150.16 1237.46 1168.07" stroke="white" stroke-width="3" stroke-linecap="round"/>
<path d="M1152.08 1196.58C1171.99 1206.27 1256.2 1208.85 1291.16 1178.47" stroke="white" stroke-width="3"/>
<path d="M1190.6 1202.98L1190.15 1222.81" stroke="white" stroke-width="3"/>
<path d="M1212.06 1203.68L1211.97 1222.36" stroke="white" stroke-width="3"/>
<path d="M1233.26 1199.93L1233.3 1222.32" stroke="white" stroke-width="3"/>
<path d="M1250.02 1197.78L1249.56 1219.14" stroke="white" stroke-width="3"/>
<path d="M1263.28 1193.39L1263.04 1213.72" stroke="white" stroke-width="3"/>
<path d="M1274.72 1189.04L1274.64 1209.38" stroke="white" stroke-width="3"/>
<path d="M1283.91 1184.06L1284.14 1204.4" stroke="white" stroke-width="3"/>
<path d="M1170.31 1201.61L1169.81 1220.31" stroke="white" stroke-width="3"/>
<path d="M1328.32 1157.04C1326.28 1165.87 1327.1 1178.47 1327.1 1178.47L1327.12 1196.95C1327.12 1197.98 1327.52 1198.97 1328.31 1199.64C1330.69 1201.65 1336.77 1206.18 1347.89 1210.69C1362.81 1216.75 1376.1 1221.18 1394.98 1222.57C1414.56 1223.51 1426.92 1223.51 1440.9 1221.88C1460.87 1218.52 1467.47 1218.8 1466.99 1212.43L1466.76 1191.75C1466.27 1175.15 1455.34 1162.9 1438.74 1157.58C1423.64 1153.32 1402.93 1150.16 1380.8 1168.07" stroke="white" stroke-width="3" stroke-linecap="round"/>
<path d="M1466.18 1196.58C1446.26 1206.27 1362.06 1208.85 1327.09 1178.47" stroke="white" stroke-width="3"/>
<path d="M1427.65 1202.98L1428.11 1222.81" stroke="white" stroke-width="3"/>
<path d="M1406.2 1203.68L1406.28 1222.36" stroke="white" stroke-width="3"/>
<path d="M1385 1199.93L1384.96 1222.32" stroke="white" stroke-width="3"/>
<path d="M1368.24 1197.78L1368.69 1219.14" stroke="white" stroke-width="3"/>
<path d="M1354.98 1193.39L1355.22 1213.72" stroke="white" stroke-width="3"/>
<path d="M1343.53 1189.04L1343.62 1209.38" stroke="white" stroke-width="3"/>
<path d="M1334.35 1184.06L1334.12 1204.4" stroke="white" stroke-width="3"/>
<path d="M1447.95 1201.61L1448.45 1220.31" stroke="white" stroke-width="3"/>
<path d="M844.63 531C844.63 475.772 799.859 431 744.63 431H111.469C56.2406 431 11.4692 475.772 11.4692 531V574.345C11.4692 629.573 56.2407 674.345 111.469 674.345H744.63C799.859 674.345 844.63 629.573 844.63 574.345V531Z" fill="url(#paint7_linear)"/>
<path d="M622.087 500.313C661.217 490.573 780.314 492.357 788.195 508.323C796.103 524.345 788.195 675.271 788.195 675.271H556.218C565.827 583.698 603.022 509.651 621.304 500.594C621.567 500.463 621.803 500.383 622.087 500.313Z" fill="url(#paint8_linear)"/>
<path d="M662.541 555.771C607.71 542.415 551.239 550.206 529.857 555.771C501.738 586.7 492.951 648.324 492.073 675.27H662.541C670.976 623.956 666.056 574.223 662.541 555.771Z" fill="url(#paint9_linear)"/>
<path d="M833.887 694.392C833.887 683.346 824.933 674.392 813.887 674.392H19.9999C8.95416 674.392 -0.000183105 683.346 -0.000183105 694.392V789.707C-0.000183105 800.752 8.95416 809.707 19.9998 809.707H813.887C824.933 809.707 833.887 800.752 833.887 789.707V694.392Z" fill="url(#paint10_radial)"/>
<path d="M833.98 829.536C833.98 818.49 825.026 809.536 813.98 809.536H20.0001C8.95441 809.536 0.00012207 818.49 0.00012207 829.536V860C0.00012207 871.045 8.95441 880 20.0001 880H813.98C825.026 880 833.98 871.045 833.98 860V829.536Z" fill="url(#paint11_linear)"/>
<path d="M774.176 565.362C774.176 525.094 806.82 492.45 847.088 492.45C887.356 492.45 920 525.094 920 565.362V829.999C920 857.614 897.614 879.999 870 879.999H784.176C778.653 879.999 774.176 875.522 774.176 869.999V565.362Z" fill="#263EBC"/>
<defs>
<linearGradient id="paint0_linear" x1="1548.39" y1="13.4406" x2="1635.3" y2="175.624" gradientUnits="userSpaceOnUse">
<stop stop-color="#E9F0FF"/>
<stop offset="1" stop-color="#A3BBE9"/>
</linearGradient>
<linearGradient id="paint1_linear" x1="1540.32" y1="30.4656" x2="1625.45" y2="166.664" gradientUnits="userSpaceOnUse">
<stop stop-color="#081A79"/>
<stop offset="1" stop-color="#0F43EC"/>
</linearGradient>
<linearGradient id="paint2_linear" x1="1907.66" y1="419.562" x2="1882.36" y2="791.678" gradientUnits="userSpaceOnUse">
<stop stop-color="#2D3DCA"/>
<stop offset="1" stop-color="#2D3DCA" stop-opacity="0"/>
</linearGradient>
<linearGradient id="paint3_linear" x1="1865.18" y1="771.634" x2="1865.18" y2="879.112" gradientUnits="userSpaceOnUse">
<stop stop-color="#1D2DAC"/>
<stop offset="1" stop-color="#0D1D8C"/>
</linearGradient>
<linearGradient id="paint4_linear" x1="1273.04" y1="602.619" x2="1273.04" y2="1161.82" gradientUnits="userSpaceOnUse">
<stop stop-color="#1638FF"/>
<stop offset="1" stop-color="#0F0E78"/>
</linearGradient>
<linearGradient id="paint5_linear" x1="1426.16" y1="446.291" x2="1439.81" y2="705.739" gradientUnits="userSpaceOnUse">
<stop stop-color="#120F8A"/>
<stop offset="1" stop-color="#0339C6"/>
</linearGradient>
<linearGradient id="paint6_linear" x1="1210.81" y1="393.871" x2="1262.04" y2="638.043" gradientUnits="userSpaceOnUse">
<stop stop-color="#120F8A"/>
<stop offset="1" stop-color="#0339C6"/>
</linearGradient>
<linearGradient id="paint7_linear" x1="428.05" y1="431" x2="428.05" y2="674.345" gradientUnits="userSpaceOnUse">
<stop stop-color="#1E2CA2"/>
<stop offset="1" stop-color="#1E2CA2" stop-opacity="0"/>
</linearGradient>
<linearGradient id="paint8_linear" x1="673.964" y1="494.326" x2="673.964" y2="675.271" gradientUnits="userSpaceOnUse">
<stop stop-color="#466ED3"/>
<stop offset="1" stop-color="#1745BB"/>
</linearGradient>
<linearGradient id="paint9_linear" x1="579.636" y1="548.396" x2="579.636" y2="675.27" gradientUnits="userSpaceOnUse">
<stop stop-color="#1B3FBD"/>
<stop offset="1" stop-color="#0C288C"/>
</linearGradient>
<radialGradient id="paint10_radial" cx="0" cy="0" r="1" gradientUnits="userSpaceOnUse" gradientTransform="translate(384.871 742.049) scale(390.143 2404.11)">
<stop stop-color="#253FC6"/>
<stop offset="1" stop-color="#142998"/>
</radialGradient>
<linearGradient id="paint11_linear" x1="416.99" y1="809.706" x2="416.99" y2="880" gradientUnits="userSpaceOnUse">
<stop stop-color="#101F9D"/>
<stop offset="1" stop-color="#1124A7"/>
</linearGradient>
</defs>
</svg>
