<svg width="287" height="751" viewBox="0 0 287 751" fill="none" xmlns="http://www.w3.org/2000/svg">
<path d="M268.846 22.5936C255.902 21.6338 239.603 19.7141 221.864 12.0356C221.385 29.7922 235.767 48.5085 266.45 51.388" stroke="#0F0967" stroke-width="4" stroke-linecap="round" stroke-linejoin="round"/>
<path d="M174.306 44.3473H213.618V0.0380859H165.197C111.503 0.0380859 100.796 49.2705 102.394 76.6561V482.824H147.459V73.8867C147.459 50.2552 164.079 44.3473 174.306 44.3473Z" fill="url(#paint0_linear_263:531)"/>
<path d="M157.181 587.423C149.812 528.045 169.559 509.935 183.789 501.604C208.35 487.223 230.864 503.343 239.051 513.201C279.987 563.764 256.108 633.618 239.051 662.224C204.256 722.065 150.863 719.547 125.456 712.672C98.0294 705.249 95.0956 686.288 97.3129 677.01C98.1316 670.052 105.915 668.934 115.734 665.703C154.918 652.812 159.228 608.297 157.181 587.423Z" fill="#D2268A"/>
<path fill-rule="evenodd" clip-rule="evenodd" d="M102.403 427.875H147.456V467.467C147.456 478.632 150 485.914 154.858 491.558C160.815 485.264 166.981 480.984 172.193 477.932C191.314 466.737 210.171 467.436 225.172 472.782C239.463 477.875 250.656 487.228 257.235 495.149L257.34 495.276L257.443 495.403C283.805 527.965 288.748 566.478 285.187 599.126C281.691 631.168 269.913 659.593 259.705 676.756C216.795 750.417 149.919 746.954 119.555 738.737C101.206 733.771 87.4456 723.839 79.4121 709.719C72.0031 696.696 70.9794 682.671 73.2072 671.767C75.8237 655.74 87.0336 648.33 93.3759 645.323C97.3467 643.44 103.225 641.653 106.61 640.623L106.61 640.623L106.61 640.623C107.484 640.358 108.191 640.143 108.656 639.989C119.874 636.299 125.714 628.708 129.173 619.425C132.928 609.349 133.456 597.876 132.79 590.605C131.519 580.229 130.949 570.629 131.034 561.747C130 556.981 128.583 554.466 126.46 551.09C124.424 547.853 122.521 544.92 120.75 542.191C108.333 523.054 102.403 513.914 102.403 479.944V427.875ZM183.789 501.603C208.35 487.223 230.864 503.343 239.051 513.2C279.987 563.764 256.108 633.617 239.051 662.224C204.256 722.065 150.863 719.547 125.456 712.671C98.0294 705.249 95.0956 686.287 97.313 677.009C98.0025 671.149 103.633 669.431 111.259 667.105C112.687 666.669 114.185 666.212 115.734 665.703C154.918 652.811 159.228 608.297 157.181 587.422C149.812 528.045 169.559 509.935 183.789 501.603Z" fill="#00D7D7"/>
<path d="M157.181 587.423C149.812 528.045 169.559 509.935 183.789 501.604C208.35 487.223 230.864 503.343 239.051 513.201C279.987 563.764 256.108 633.618 239.051 662.224C204.256 722.065 150.863 719.547 125.456 712.672C98.0294 705.249 95.0956 686.288 97.3129 677.01C98.1316 670.052 105.915 668.934 115.734 665.703C154.918 652.812 159.228 608.297 157.181 587.423Z" fill="#009393"/>
<path d="M131.41 104.831C129.974 106.786 127.551 106.73 126.519 106.458C124.327 108.621 121.889 107.183 120.944 106.193C119.615 104.419 121.697 100.565 122.905 98.8595C125.516 94.297 129.579 95.6796 131.284 96.9412C134.517 99.0818 132.715 103.093 131.41 104.831Z" fill="#CA0D7B"/>
<path d="M139.538 159.39C139.346 155.085 135.341 154.042 133.363 154.059C130.436 154.084 128.47 156.553 127.649 158.18C124.868 157.274 122.085 159.477 121.943 161.877C121.587 167.895 126.583 169.93 128.933 170.426C137.717 171.571 139.717 163.234 139.538 159.39Z" fill="#CA0D7B"/>
<path d="M114.235 142.848C109.339 140.744 106.454 136.641 106.94 132.344C107.426 128.046 110.724 124.734 110.724 124.734C108.457 120.993 111.858 118.051 114.398 117.344C117.59 116.456 120.291 117.019 121.892 118.594C124.576 116.958 128.522 119.553 130.104 120.614C135.668 126.021 133.433 131.348 130.133 133.558C129.26 137.526 126.986 139.926 124.917 141.282C123.397 142.681 119.131 144.952 114.235 142.848Z" fill="#CA0D7B"/>
<path d="M57.7906 645.956C84.6618 649.783 113.485 639.167 120.827 633.995L90.78 670.061L81.8067 713.613L70.1142 698.37C66.5793 694.073 58.4887 688.453 51.216 691.292C41.8125 694.964 41.6701 701.409 41.377 706.69V750.455H0.342957V694.073C1.98432 644.782 37.5864 643.078 57.7906 645.956Z" fill="url(#paint1_linear_263:531)"/>
<defs>
<linearGradient id="paint0_linear_263:531" x1="157.932" y1="31" x2="213.618" y2="31" gradientUnits="userSpaceOnUse">
<stop stop-color="#00D7D7"/>
<stop offset="1" stop-color="#00D7D7" stop-opacity="0"/>
</linearGradient>
<linearGradient id="paint1_linear_263:531" x1="22.5" y1="709.5" x2="21" y2="750.455" gradientUnits="userSpaceOnUse">
<stop stop-color="#00D7D7"/>
<stop offset="1" stop-color="#00D7D7" stop-opacity="0"/>
</linearGradient>
</defs>
</svg>
