<svg width="287" height="751" viewBox="0 0 287 751" fill="none" xmlns="http://www.w3.org/2000/svg">
<path d="M174.165 44.3092H213.477V0H165.056C111.362 0 100.655 49.2324 102.253 76.618V482.785H147.318V73.8486C147.318 50.2171 163.937 44.3092 174.165 44.3092Z" fill="url(#paint0_linear)"/>
<path d="M157.039 587.384C149.671 528.007 169.417 509.897 183.647 501.566C208.208 487.185 230.722 503.305 238.91 513.163C279.845 563.726 255.966 633.58 238.91 662.186C204.115 722.027 150.721 719.509 125.314 712.634C97.8875 705.211 94.9537 686.25 97.171 676.972C97.9897 670.014 105.773 668.895 115.592 665.665C154.776 652.774 159.086 608.259 157.039 587.384Z" fill="#D2268A"/>
<path fill-rule="evenodd" clip-rule="evenodd" d="M102.262 427.836H147.315V467.428C147.315 478.594 149.858 485.876 154.717 491.519C160.674 485.225 166.839 480.945 172.052 477.893C191.173 466.698 210.029 467.398 225.031 472.744C239.322 477.837 250.515 487.189 257.094 495.111L257.199 495.237L257.302 495.365C283.664 527.927 288.607 566.44 285.045 599.088C281.55 631.129 269.771 659.554 259.564 676.718C216.654 750.379 149.778 746.915 119.413 738.698C101.065 733.733 87.3043 723.8 79.2709 709.68C71.8619 696.657 70.8381 682.633 73.066 671.728C75.6825 655.702 86.8924 648.291 93.2347 645.284C97.2054 643.401 103.084 641.614 106.468 640.585L106.469 640.585L106.469 640.585C107.342 640.319 108.049 640.104 108.515 639.951C119.732 636.26 125.573 628.67 129.032 619.387C132.787 609.31 133.314 597.837 132.649 590.567C131.378 580.19 130.807 570.591 130.893 561.709C129.859 556.943 128.442 554.427 126.319 551.052C124.282 547.815 122.38 544.882 120.609 542.152C108.192 523.015 102.262 513.875 102.262 479.906V427.836ZM183.648 501.565C208.209 487.184 230.723 503.304 238.91 513.162C279.845 563.725 255.967 633.579 238.91 662.185C204.115 722.026 150.722 719.508 125.315 712.632C97.8882 705.21 94.9544 686.249 97.1717 676.971C97.8613 671.11 103.492 669.392 111.118 667.066C112.546 666.631 114.044 666.174 115.593 665.664C154.777 652.773 159.086 608.258 157.04 587.383C149.671 528.006 169.418 509.896 183.648 501.565Z" fill="#00D7D7"/>
<path d="M157.039 587.384C149.671 528.007 169.417 509.897 183.647 501.566C208.208 487.185 230.722 503.305 238.91 513.163C279.845 563.726 255.966 633.58 238.91 662.186C204.115 722.027 150.721 719.509 125.314 712.634C97.8875 705.211 94.9537 686.25 97.171 676.972C97.9897 670.014 105.773 668.895 115.592 665.665C154.776 652.774 159.086 608.259 157.039 587.384Z" fill="#009393"/>
<path d="M185.86 652.857C181.173 655.393 176.166 655.112 173.096 652.065C170.026 649.019 169.473 644.378 169.473 644.378C165.132 643.836 164.934 639.344 165.954 636.913C167.237 633.857 169.354 632.088 171.583 631.809C171.964 628.688 176.446 627.202 178.26 626.62C185.952 625.608 188.744 630.665 188.432 634.624C191.004 637.77 191.475 641.042 191.256 643.506C191.411 645.566 190.547 650.321 185.86 652.857Z" fill="#CA0D7B"/>
<path d="M57.6488 645.918C84.52 649.744 113.343 639.129 120.685 633.957L90.6382 670.023L81.6649 713.575L69.9724 698.332C66.4375 694.035 58.3469 688.415 51.0742 691.254C41.6707 694.926 41.5283 701.371 41.2352 706.652V750.417H0.201172V694.035C1.84253 644.744 37.4447 643.04 57.6488 645.918Z" fill="url(#paint1_linear)"/>
<path fill-rule="evenodd" clip-rule="evenodd" d="M247.448 525.5C236.044 526.826 223.231 525.866 210.873 520.12C195.056 512.765 181.477 510.831 171.471 511.164C160.684 522.798 151.675 544.153 157.04 587.384C159.087 608.259 154.777 652.773 115.593 665.664C114.045 666.174 112.547 666.631 111.12 667.066L111.118 667.067C103.492 669.393 97.8616 671.11 97.172 676.971C94.9547 686.249 97.8885 705.211 125.315 712.633C150.722 719.508 204.116 722.027 238.911 662.185C254.617 635.843 276.109 574.525 247.448 525.5ZM195.93 532.551C195.93 537.886 191.605 542.212 186.269 542.212C180.934 542.212 176.609 537.886 176.609 532.551C176.609 527.216 180.934 522.891 186.269 522.891C191.605 522.891 195.93 527.216 195.93 532.551ZM200.644 559.961C203.248 559.961 205.359 557.85 205.359 555.246C205.359 552.643 203.248 550.532 200.644 550.532C198.04 550.532 195.93 552.643 195.93 555.246C195.93 557.85 198.04 559.961 200.644 559.961ZM195.93 582.208C195.93 583.952 194.516 585.365 192.773 585.365C191.03 585.365 189.616 583.952 189.616 582.208C189.616 580.465 191.03 579.051 192.773 579.051C194.516 579.051 195.93 580.465 195.93 582.208ZM176.203 571.212C179.983 571.212 183.048 568.147 183.048 564.367C183.048 560.587 179.983 557.523 176.203 557.523C172.423 557.523 169.359 560.587 169.359 564.367C169.359 568.147 172.423 571.212 176.203 571.212Z" fill="#CA0D7B"/>
<circle cx="121.859" cy="317.705" r="62.7427" fill="#59F0E7"/>
<mask id="path-9-outside-1" maskUnits="userSpaceOnUse" x="87.2119" y="274.056" width="69" height="84" fill="black">
<rect fill="white" x="87.2119" y="274.056" width="69" height="84"/>
<path d="M139.442 307.901C141.12 311.964 140.787 313.872 141.003 315.093C141.067 315.458 141.419 315.827 141.782 315.746C141.885 315.722 141.968 315.651 142.058 315.595C142.89 315.077 143.634 313.627 144.167 312.349C144.497 311.557 145.574 311.467 145.932 312.247C149.076 319.098 149.314 327.228 146.784 333.974C145.489 336.935 141.603 344.336 131.982 348.406C129.083 349.858 121.065 351.927 112.184 348.591C103.303 345.261 98.6769 338.785 96.8266 334.529C96.0865 332.864 94.7913 329.163 95.3464 323.427C95.5314 320.467 98.4919 312.696 98.8619 311.771C100.566 307.414 101.046 303.133 101.094 300.795C101.105 300.223 101.546 299.87 102.054 300.135C102.736 300.49 103.64 301.042 104.413 301.594C105.889 302.701 106.956 303.644 107.886 304.696C108.452 305.336 109.561 305.131 109.806 304.313C111.263 299.449 113.29 295.17 115.884 291.602C118.971 287.215 123.2 283.827 127.693 281.814C128.45 281.474 129.271 282.217 129.155 283.038C128.816 285.45 128.746 289.338 129.92 293.906C129.937 293.973 129.962 294.039 129.994 294.101C130.921 295.914 132.374 297.551 133.647 299.189C134.202 299.744 134.572 300.484 135.127 301.039C138.088 304.924 138.637 305.951 139.442 307.901Z"/>
</mask>
<path d="M139.442 307.901C141.12 311.964 140.787 313.872 141.003 315.093C141.067 315.458 141.419 315.827 141.782 315.746C141.885 315.722 141.968 315.651 142.058 315.595C142.89 315.077 143.634 313.627 144.167 312.349C144.497 311.557 145.574 311.467 145.932 312.247C149.076 319.098 149.314 327.228 146.784 333.974C145.489 336.935 141.603 344.336 131.982 348.406C129.083 349.858 121.065 351.927 112.184 348.591C103.303 345.261 98.6769 338.785 96.8266 334.529C96.0865 332.864 94.7913 329.163 95.3464 323.427C95.5314 320.467 98.4919 312.696 98.8619 311.771C100.566 307.414 101.046 303.133 101.094 300.795C101.105 300.223 101.546 299.87 102.054 300.135C102.736 300.49 103.64 301.042 104.413 301.594C105.889 302.701 106.956 303.644 107.886 304.696C108.452 305.336 109.561 305.131 109.806 304.313C111.263 299.449 113.29 295.17 115.884 291.602C118.971 287.215 123.2 283.827 127.693 281.814C128.45 281.474 129.271 282.217 129.155 283.038C128.816 285.45 128.746 289.338 129.92 293.906C129.937 293.973 129.962 294.039 129.994 294.101C130.921 295.914 132.374 297.551 133.647 299.189C134.202 299.744 134.572 300.484 135.127 301.039C138.088 304.924 138.637 305.951 139.442 307.901Z" fill="#CA0D7B"/>
<path d="M141.003 315.093L147.896 313.875L147.896 313.875L141.003 315.093ZM139.442 307.901L145.912 305.229L145.912 305.229L139.442 307.901ZM135.127 301.039L140.695 296.797L140.41 296.422L140.077 296.089L135.127 301.039ZM133.647 299.189L128.121 303.486L128.389 303.83L128.697 304.138L133.647 299.189ZM129.994 294.101L136.225 290.912L136.225 290.912L129.994 294.101ZM127.693 281.814L130.556 288.201V288.201L127.693 281.814ZM115.884 291.602L121.546 295.72L121.578 295.675L121.609 295.631L115.884 291.602ZM109.806 304.313L103.1 302.304L103.1 302.304L109.806 304.313ZM107.886 304.696L113.129 300.059V300.059L107.886 304.696ZM104.413 301.594L108.613 295.994L108.548 295.945L108.481 295.898L104.413 301.594ZM102.054 300.135L105.288 293.927L105.288 293.927L102.054 300.135ZM98.8619 311.771L105.361 314.37L105.371 314.346L105.381 314.321L98.8619 311.771ZM95.3464 323.427L102.314 324.102L102.325 323.983L102.333 323.864L95.3464 323.427ZM96.8266 334.529L103.246 331.738L103.235 331.712L103.223 331.686L96.8266 334.529ZM112.184 348.591L114.645 342.038L114.642 342.037L112.184 348.591ZM131.982 348.406L129.254 341.96L129.048 342.047L128.848 342.147L131.982 348.406ZM146.784 333.974L153.197 336.78L153.272 336.608L153.338 336.432L146.784 333.974ZM145.932 312.247L139.57 315.167L139.57 315.167L145.932 312.247ZM101.094 300.795L108.092 300.936V300.936L101.094 300.795ZM129.155 283.038L122.223 282.065L122.223 282.065L129.155 283.038ZM129.92 293.906L123.14 295.648L123.14 295.648L129.92 293.906ZM144.167 312.349L150.629 315.041L150.629 315.041L144.167 312.349ZM142.058 315.595L138.357 309.654L138.357 309.654L142.058 315.595ZM141.782 315.746L140.256 308.914L141.782 315.746ZM147.896 313.875C148.002 314.473 147.951 310.165 145.912 305.229L132.972 310.574C133.586 312.061 133.763 312.97 133.834 313.499C133.874 313.798 133.893 314.062 133.917 314.453C133.933 314.713 133.97 315.522 134.11 316.31L147.896 313.875ZM145.912 305.229C144.777 302.481 143.825 300.904 140.695 296.797L129.559 305.281C131.021 307.199 131.719 308.196 132.134 308.87C132.47 309.415 132.646 309.783 132.972 310.574L145.912 305.229ZM140.077 296.089C140.208 296.22 140.275 296.308 140.265 296.296C140.246 296.272 140.213 296.227 140.083 296.045C139.982 295.903 139.784 295.624 139.56 295.336C139.326 295.036 139.005 294.647 138.597 294.239L128.697 304.138C128.566 304.008 128.5 303.919 128.509 303.931C128.528 303.956 128.561 304.001 128.691 304.182C128.792 304.324 128.99 304.603 129.214 304.891C129.448 305.191 129.769 305.58 130.177 305.989L140.077 296.089ZM139.172 294.891C137.488 292.726 136.755 291.948 136.225 290.912L123.762 297.29C125.088 299.88 127.259 302.377 128.121 303.486L139.172 294.891ZM124.83 275.426C119.203 277.948 113.98 282.144 110.16 287.574L121.609 295.631C123.963 292.286 127.197 289.707 130.556 288.201L124.83 275.426ZM110.223 287.485C107.085 291.8 104.743 296.823 103.1 302.304L116.511 306.322C117.784 302.074 119.494 298.54 121.546 295.72L110.223 287.485ZM113.129 300.059C111.787 298.541 110.328 297.28 108.613 295.994L100.213 307.194C101.45 308.122 102.125 308.748 102.642 309.333L113.129 300.059ZM108.481 295.898C107.459 295.167 106.276 294.442 105.288 293.927L98.8198 306.343C99.1959 306.539 99.822 306.917 100.344 307.29L108.481 295.898ZM92.3626 309.171C92.1301 309.752 91.2497 312.055 90.394 314.622C89.6509 316.851 88.52 320.431 88.36 322.991L102.333 323.864C102.329 323.929 102.333 323.822 102.4 323.485C102.462 323.175 102.556 322.775 102.685 322.292C102.944 321.322 103.295 320.191 103.676 319.049C104.439 316.759 105.224 314.714 105.361 314.37L92.3626 309.171ZM88.379 322.753C87.6859 329.915 89.2998 334.829 90.4299 337.372L103.223 331.686C102.873 330.899 101.897 328.411 102.314 324.102L88.379 322.753ZM90.4071 337.32C92.8471 342.932 98.7125 351.016 109.726 355.146L114.642 342.037C107.893 339.506 104.507 334.638 103.246 331.738L90.4071 337.32ZM134.709 354.853C146.671 349.792 151.555 340.532 153.197 336.78L140.371 331.168C139.422 333.337 136.535 338.879 129.254 341.96L134.709 354.853ZM153.338 336.432C156.525 327.933 156.213 317.867 152.294 309.327L139.57 315.167C141.939 320.329 142.102 326.523 140.23 331.516L153.338 336.432ZM128.848 342.147C127.425 342.86 121.44 344.59 114.645 342.038L109.723 355.144C120.69 359.264 130.741 356.856 135.116 354.666L128.848 342.147ZM94.0951 300.654C94.0604 302.374 93.6796 305.804 92.343 309.22L105.381 314.321C107.453 309.024 108.033 303.892 108.092 300.936L94.0951 300.654ZM122.223 282.065C121.769 285.297 121.718 290.113 123.14 295.648L136.7 292.163C135.775 288.563 135.864 285.604 136.087 284.012L122.223 282.065ZM137.705 309.657C137.612 309.88 137.522 310.082 137.436 310.258C137.348 310.438 137.282 310.557 137.242 310.623C137.196 310.698 137.224 310.641 137.338 310.507C137.399 310.435 137.505 310.318 137.66 310.177C137.813 310.038 138.044 309.849 138.357 309.654L145.759 321.537C147.612 320.382 148.705 318.719 149.207 317.891C149.821 316.881 150.296 315.84 150.629 315.041L137.705 309.657ZM103.1 302.304C103.832 299.863 105.843 298.526 107.634 298.179C109.392 297.838 111.58 298.307 113.129 300.059L102.642 309.333C106.524 313.722 114.554 312.855 116.511 306.322L103.1 302.304ZM130.556 288.201C128.028 289.334 125.573 288.492 124.182 287.294C122.856 286.151 121.916 284.252 122.223 282.065L136.087 284.012C136.51 281.002 135.217 278.322 133.32 276.687C131.359 274.997 128.115 273.954 124.83 275.426L130.556 288.201ZM140.256 308.914C142.958 308.31 145.011 309.523 145.973 310.392C146.931 311.258 147.645 312.451 147.896 313.875L134.11 316.31C134.426 318.1 135.348 319.66 136.588 320.781C137.833 321.906 140.243 323.262 143.308 322.577L140.256 308.914ZM136.225 290.912C136.441 291.335 136.595 291.756 136.7 292.163L123.14 295.648C123.279 296.19 123.483 296.744 123.762 297.29L136.225 290.912ZM143.308 322.577C144.45 322.322 145.261 321.85 145.599 321.641C145.766 321.538 145.907 321.441 145.914 321.437C145.961 321.405 145.87 321.468 145.759 321.537L138.357 309.654C138.27 309.708 138.199 309.754 138.153 309.785C138.111 309.813 138.072 309.839 138.068 309.842C138.031 309.867 138.128 309.8 138.251 309.724C138.499 309.571 139.216 309.146 140.256 308.914L143.308 322.577ZM105.288 293.927C102.989 292.729 99.8743 292.609 97.2881 294.477C94.9521 296.165 94.1348 298.685 94.0951 300.654L108.092 300.936C108.064 302.332 107.473 304.39 105.487 305.825C103.251 307.441 100.611 307.276 98.8198 306.343L105.288 293.927ZM152.294 309.327C150.809 306.093 147.596 304.521 144.57 304.724C141.66 304.92 138.928 306.722 137.705 309.657L150.629 315.041C149.736 317.184 147.707 318.545 145.508 318.693C143.192 318.848 140.696 317.621 139.57 315.167L152.294 309.327Z" fill="#FF7EC9" mask="url(#path-9-outside-1)"/>
<path d="M129.607 340.017C127.539 342.085 124.732 343.415 121.63 343.415C113.211 343.415 105.973 333.666 112.325 325.689C114.836 321.997 118.233 320.52 119.562 316.679C120.153 315.202 120.301 313.282 120.153 312.1C120.006 311.657 119.858 310.032 119.858 309.884C119.858 309.737 119.858 309.737 120.006 309.737L120.153 309.589C120.301 309.589 120.301 309.589 120.449 309.589C120.744 309.884 121.04 310.18 121.335 310.475C121.926 311.066 122.664 311.805 123.255 312.395C124.732 313.873 126.062 316.384 126.357 319.19C126.652 322.735 125.766 325.689 123.107 327.61C124.289 328.053 125.471 328.053 126.8 327.61C128.868 326.871 130.05 325.689 130.493 324.065C130.493 324.065 130.493 323.917 130.641 323.917H130.788C131.97 324.36 133.299 326.133 133.447 330.269C133.152 333.37 132.709 336.916 129.607 340.017Z" fill="#FFADDD"/>
<defs>
<linearGradient id="paint0_linear" x1="157.791" y1="30.9619" x2="213.477" y2="30.9619" gradientUnits="userSpaceOnUse">
<stop stop-color="#00D7D7"/>
<stop offset="1" stop-color="#00D7D7" stop-opacity="0"/>
</linearGradient>
<linearGradient id="paint1_linear" x1="22.3582" y1="709.462" x2="20.8582" y2="750.417" gradientUnits="userSpaceOnUse">
<stop stop-color="#00D7D7"/>
<stop offset="1" stop-color="#00D7D7" stop-opacity="0"/>
</linearGradient>
</defs>
</svg>
