<svg width="287" height="751" viewBox="0 0 287 751" fill="none" xmlns="http://www.w3.org/2000/svg">
<path d="M174.165 44.3092H213.477V0H165.056C111.361 0 100.654 49.2324 102.253 76.618V482.785H147.317V73.8486C147.317 50.2171 163.937 44.3092 174.165 44.3092Z" fill="url(#paint0_linear)"/>
<path d="M157.039 587.384C149.671 528.007 169.417 509.897 183.647 501.566C208.208 487.185 230.723 503.305 238.91 513.163C279.845 563.726 255.966 633.58 238.91 662.186C204.115 722.027 150.721 719.509 125.314 712.634C97.8877 705.211 94.954 686.25 97.1713 676.972C97.99 670.014 105.774 668.895 115.592 665.665C154.777 652.774 159.086 608.259 157.039 587.384Z" fill="#D2268A"/>
<path fill-rule="evenodd" clip-rule="evenodd" d="M102.262 427.836H147.314V467.428C147.314 478.594 149.858 485.876 154.717 491.519C160.674 485.225 166.839 480.945 172.052 477.893C191.173 466.698 210.029 467.398 225.031 472.744C239.322 477.837 250.514 487.189 257.093 495.111L257.198 495.237L257.302 495.365C283.663 527.927 288.607 566.44 285.045 599.088C281.549 631.129 269.771 659.554 259.563 676.718C216.653 750.379 149.778 746.915 119.413 738.698C101.065 733.733 87.3039 723.8 79.2705 709.68C71.8615 696.657 70.8378 682.633 73.0656 671.728C75.6821 655.702 86.892 648.291 93.2343 645.284C97.2051 643.401 103.083 641.614 106.468 640.585L106.468 640.585L106.469 640.585C107.342 640.319 108.049 640.104 108.515 639.951C119.732 636.26 125.572 628.67 129.031 619.387C132.786 609.31 133.314 597.837 132.648 590.567C131.377 580.19 130.807 570.591 130.892 561.709C129.858 556.943 128.442 554.427 126.318 551.052C124.282 547.815 122.379 544.882 120.608 542.152C108.192 523.015 102.262 513.875 102.262 479.906V427.836ZM183.647 501.565C208.208 487.184 230.723 503.304 238.91 513.162C279.845 563.725 255.966 633.579 238.91 662.185C204.115 722.026 150.721 719.508 125.314 712.632C97.8878 705.21 94.954 686.249 97.1714 676.971C97.8609 671.11 103.492 669.392 111.118 667.066C112.546 666.631 114.044 666.174 115.592 665.664C154.777 652.773 159.086 608.258 157.039 587.383C149.671 528.006 169.417 509.896 183.647 501.565Z" fill="#00D7D7"/>
<path d="M157.039 587.384C149.671 528.007 169.417 509.897 183.647 501.566C208.208 487.185 230.723 503.305 238.91 513.163C279.845 563.726 255.966 633.58 238.91 662.186C204.115 722.027 150.721 719.509 125.314 712.634C97.8877 705.211 94.954 686.25 97.1713 676.972C97.99 670.014 105.774 668.895 115.592 665.665C154.777 652.774 159.086 608.259 157.039 587.384Z" fill="#009393"/>
<path d="M136.133 472.032C134.697 473.987 132.274 473.932 131.242 473.659C129.05 475.823 126.612 474.385 125.667 473.395C124.338 471.621 126.421 467.767 127.628 466.061C130.239 461.499 134.302 462.881 136.007 464.143C139.24 466.283 137.438 470.294 136.133 472.032Z" fill="#CA0D7B"/>
<path d="M171.286 534.221C171.093 529.916 167.088 528.873 165.11 528.89C162.184 528.915 160.217 531.384 159.397 533.011C156.615 532.105 153.832 534.308 153.69 536.708C153.334 542.726 158.33 544.761 160.681 545.257C169.464 546.402 171.465 538.065 171.286 534.221Z" fill="#CA0D7B"/>
<path d="M140.97 519.05C136.282 521.586 131.275 521.305 128.205 518.258C125.136 515.212 124.582 510.571 124.582 510.571C120.242 510.029 120.043 505.537 121.064 503.106C122.347 500.05 124.463 498.281 126.692 498.002C127.073 494.882 131.556 493.395 133.369 492.813C141.061 491.801 143.854 496.858 143.541 500.818C146.113 503.963 146.585 507.236 146.366 509.699C146.52 511.76 145.657 516.515 140.97 519.05Z" fill="#CA0D7B"/>
<path d="M57.6491 645.918C84.5203 649.744 113.344 639.129 120.685 633.957L90.6384 670.023L81.6651 713.575L69.9727 698.332C66.4378 694.035 58.3471 688.415 51.0744 691.254C41.6709 694.926 41.5286 701.371 41.2355 706.652V750.417H0.201416V694.035C1.84278 644.744 37.4449 643.04 57.6491 645.918Z" fill="url(#paint1_linear)"/>
<defs>
<linearGradient id="paint0_linear" x1="157.79" y1="30.9619" x2="213.477" y2="30.9619" gradientUnits="userSpaceOnUse">
<stop stop-color="#00D7D7"/>
<stop offset="1" stop-color="#00D7D7" stop-opacity="0"/>
</linearGradient>
<linearGradient id="paint1_linear" x1="22.3585" y1="709.462" x2="20.8585" y2="750.417" gradientUnits="userSpaceOnUse">
<stop stop-color="#00D7D7"/>
<stop offset="1" stop-color="#00D7D7" stop-opacity="0"/>
</linearGradient>
</defs>
</svg>
