<svg width="287" height="770" viewBox="0 0 287 770" fill="none" xmlns="http://www.w3.org/2000/svg">
<path d="M174.306 63.3473H213.618V19.0381H165.197C111.503 19.0381 100.796 68.2705 102.394 95.6561V501.824H147.459V92.8867C147.459 69.2552 164.079 63.3473 174.306 63.3473Z" fill="url(#paint0_linear_311_2692)"/>
<path d="M157.181 606.423C149.812 547.045 169.559 528.935 183.788 520.604C208.35 506.223 230.864 522.343 239.051 532.201C279.986 582.764 256.107 652.618 239.051 681.224C204.256 741.065 150.863 738.547 125.456 731.672C98.0291 724.249 95.0953 705.288 97.3126 696.01C98.1313 689.052 105.915 687.934 115.734 684.703C154.918 671.812 159.227 627.297 157.181 606.423Z" fill="#D2268A"/>
<path fill-rule="evenodd" clip-rule="evenodd" d="M102.403 446.875H147.456V486.467C147.456 497.632 150 504.914 154.859 510.558C160.816 504.264 166.981 499.984 172.194 496.932C191.315 485.737 210.171 486.436 225.172 491.782C239.464 496.875 250.656 506.228 257.235 514.149L257.34 514.276L257.444 514.403C283.805 546.965 288.749 585.478 285.187 618.126C281.691 650.168 269.913 678.593 259.705 695.756C216.795 769.417 149.92 765.954 119.555 757.737C101.207 752.771 87.4459 742.839 79.4125 728.719C72.0035 715.696 70.9797 701.671 73.2076 690.767C75.8241 674.74 87.034 667.33 93.3763 664.323C97.347 662.44 103.225 660.653 106.61 659.623L106.61 659.623L106.611 659.623C107.484 659.358 108.191 659.143 108.657 658.989C119.874 655.299 125.714 647.708 129.173 638.425C132.928 628.349 133.456 616.876 132.79 609.605C131.519 599.229 130.949 589.629 131.034 580.747C130 575.981 128.584 573.466 126.46 570.09C124.424 566.853 122.521 563.92 120.75 561.191C108.334 542.054 102.403 532.914 102.403 498.944V446.875ZM183.789 520.603C208.35 506.223 230.865 522.343 239.052 532.2C279.987 582.764 256.108 652.617 239.052 681.224C204.257 741.065 150.863 738.547 125.456 731.671C98.0298 724.249 95.096 705.287 97.3133 696.009C98.0029 690.149 103.634 688.431 111.26 686.105C112.688 685.669 114.186 685.212 115.734 684.703C154.919 671.811 159.228 627.297 157.181 606.422C149.813 547.045 169.559 528.935 183.789 520.603Z" fill="#00D7D7"/>
<path d="M157.181 606.423C149.812 547.045 169.559 528.935 183.788 520.604C208.35 506.223 230.864 522.343 239.051 532.201C279.986 582.764 256.107 652.618 239.051 681.224C204.256 741.065 150.863 738.547 125.456 731.672C98.0291 724.249 95.0953 705.288 97.3126 696.01C98.1313 689.052 105.915 687.934 115.734 684.703C154.918 671.812 159.227 627.297 157.181 606.423Z" fill="#009393"/>
<path d="M186.002 671.895C181.315 674.431 176.307 674.15 173.238 671.103C170.168 668.057 169.614 663.416 169.614 663.416C165.274 662.874 165.075 658.382 166.096 655.951C167.379 652.895 169.495 651.126 171.724 650.847C172.105 647.726 176.588 646.24 178.401 645.658C186.094 644.646 188.886 649.703 188.574 653.663C191.145 656.808 191.617 660.08 191.398 662.544C191.552 664.604 190.689 669.359 186.002 671.895Z" fill="#CA0D7B"/>
<path d="M57.7904 664.956C84.6616 668.783 113.485 658.167 120.827 652.995L90.7798 689.061L81.8065 732.613L70.114 717.37C66.5791 713.073 58.4885 707.453 51.2158 710.292C41.8123 713.964 41.6699 720.409 41.3768 725.69V769.455H0.342773V713.073C1.98414 663.782 37.5863 662.078 57.7904 664.956Z" fill="url(#paint1_linear_311_2692)"/>
<path fill-rule="evenodd" clip-rule="evenodd" d="M247.588 544.539C236.184 545.865 223.372 544.904 211.014 539.158C195.197 531.803 181.618 529.87 171.612 530.203C160.824 541.836 151.816 563.192 157.181 606.422C159.227 627.297 154.918 671.811 115.734 684.703C114.185 685.212 112.688 685.669 111.26 686.105L111.259 686.105C103.633 688.431 98.0022 690.149 97.3126 696.01C95.0953 705.287 98.0291 724.249 125.456 731.671C150.863 738.547 204.256 741.065 239.051 681.224C254.758 654.882 276.249 593.563 247.588 544.539ZM196.07 551.59C196.07 556.925 191.745 561.25 186.41 561.25C181.075 561.25 176.75 556.925 176.75 551.59C176.75 546.254 181.075 541.929 186.41 541.929C191.745 541.929 196.07 546.254 196.07 551.59ZM200.785 579C203.389 579 205.5 576.889 205.5 574.285C205.5 571.681 203.389 569.57 200.785 569.57C198.181 569.57 196.07 571.681 196.07 574.285C196.07 576.889 198.181 579 200.785 579ZM196.07 601.247C196.07 602.99 194.657 604.404 192.914 604.404C191.17 604.404 189.757 602.99 189.757 601.247C189.757 599.503 191.17 598.09 192.914 598.09C194.657 598.09 196.07 599.503 196.07 601.247ZM176.344 590.25C180.124 590.25 183.188 587.186 183.188 583.406C183.188 579.626 180.124 576.561 176.344 576.561C172.564 576.561 169.5 579.626 169.5 583.406C169.5 587.186 172.564 590.25 176.344 590.25Z" fill="#CA0D7B"/>
<circle cx="122" cy="336.743" r="62.7427" fill="#59F0E7"/>
<mask id="path-9-outside-1_311_2692" maskUnits="userSpaceOnUse" x="87.3535" y="293.094" width="69" height="84" fill="black">
<rect fill="white" x="87.3535" y="293.094" width="69" height="84"/>
<path d="M139.584 326.939C141.262 331.002 140.929 332.91 141.144 334.131C141.209 334.496 141.561 334.865 141.923 334.784C142.027 334.761 142.109 334.689 142.199 334.633C143.032 334.115 143.776 332.665 144.308 331.387C144.638 330.595 145.716 330.506 146.074 331.286C149.218 338.136 149.455 346.266 146.925 353.012C145.63 355.973 141.745 363.374 132.123 367.444C129.225 368.896 121.207 370.965 112.325 367.63C103.444 364.299 98.8185 357.823 96.9682 353.567C96.2281 351.902 94.9329 348.201 95.488 342.465C95.673 339.505 98.6335 331.734 99.0035 330.809C100.708 326.452 101.188 322.171 101.235 319.833C101.247 319.261 101.688 318.909 102.195 319.173C102.878 319.528 103.782 320.08 104.554 320.632C106.03 321.739 107.097 322.682 108.028 323.734C108.593 324.374 109.702 324.169 109.947 323.351C111.405 318.487 113.431 314.208 116.026 310.64C119.113 306.253 123.342 302.865 127.834 300.852C128.592 300.512 129.412 301.255 129.297 302.076C128.958 304.488 128.888 308.376 130.062 312.944C130.079 313.011 130.104 313.077 130.135 313.139C131.063 314.952 132.515 316.589 133.789 318.227C134.344 318.782 134.714 319.522 135.269 320.077C138.229 323.963 138.778 324.99 139.584 326.939Z"/>
</mask>
<path d="M139.584 326.939C141.262 331.002 140.929 332.91 141.144 334.131C141.209 334.496 141.561 334.865 141.923 334.784C142.027 334.761 142.109 334.689 142.199 334.633C143.032 334.115 143.776 332.665 144.308 331.387C144.638 330.595 145.716 330.506 146.074 331.286C149.218 338.136 149.455 346.266 146.925 353.012C145.63 355.973 141.745 363.374 132.123 367.444C129.225 368.896 121.207 370.965 112.325 367.63C103.444 364.299 98.8185 357.823 96.9682 353.567C96.2281 351.902 94.9329 348.201 95.488 342.465C95.673 339.505 98.6335 331.734 99.0035 330.809C100.708 326.452 101.188 322.171 101.235 319.833C101.247 319.261 101.688 318.909 102.195 319.173C102.878 319.528 103.782 320.08 104.554 320.632C106.03 321.739 107.097 322.682 108.028 323.734C108.593 324.374 109.702 324.169 109.947 323.351C111.405 318.487 113.431 314.208 116.026 310.64C119.113 306.253 123.342 302.865 127.834 300.852C128.592 300.512 129.412 301.255 129.297 302.076C128.958 304.488 128.888 308.376 130.062 312.944C130.079 313.011 130.104 313.077 130.135 313.139C131.063 314.952 132.515 316.589 133.789 318.227C134.344 318.782 134.714 319.522 135.269 320.077C138.229 323.963 138.778 324.99 139.584 326.939Z" fill="#CA0D7B"/>
<path d="M141.144 334.131L148.038 332.913L148.038 332.913L141.144 334.131ZM139.584 326.939L146.053 324.267L146.053 324.267L139.584 326.939ZM135.269 320.077L140.837 315.835L140.551 315.46L140.219 315.127L135.269 320.077ZM133.789 318.227L128.263 322.524L128.531 322.868L128.839 323.176L133.789 318.227ZM130.135 313.139L136.367 309.951L136.367 309.95L130.135 313.139ZM127.834 300.852L130.697 307.239V307.239L127.834 300.852ZM116.026 310.64L121.687 314.758L121.719 314.713L121.751 314.669L116.026 310.64ZM109.947 323.351L103.242 321.342L103.242 321.342L109.947 323.351ZM108.028 323.734L113.271 319.097V319.097L108.028 323.734ZM104.554 320.632L108.754 315.032L108.689 314.983L108.623 314.936L104.554 320.632ZM102.195 319.173L105.429 312.965L105.429 312.965L102.195 319.173ZM99.0035 330.809L105.503 333.408L105.513 333.384L105.522 333.359L99.0035 330.809ZM95.488 342.465L102.455 343.14L102.467 343.021L102.474 342.902L95.488 342.465ZM96.9682 353.567L103.388 350.776L103.376 350.75L103.365 350.724L96.9682 353.567ZM112.325 367.63L114.787 361.076L114.783 361.075L112.325 367.63ZM132.123 367.444L129.396 360.998L129.189 361.085L128.989 361.185L132.123 367.444ZM146.925 353.012L153.339 355.818L153.414 355.646L153.48 355.47L146.925 353.012ZM146.074 331.286L139.712 334.205L139.712 334.205L146.074 331.286ZM101.235 319.833L108.234 319.974V319.974L101.235 319.833ZM129.297 302.076L122.365 301.103L122.365 301.103L129.297 302.076ZM130.062 312.944L123.282 314.686L123.282 314.686L130.062 312.944ZM144.308 331.387L150.77 334.079L150.77 334.079L144.308 331.387ZM142.199 334.633L138.498 328.692L138.498 328.692L142.199 334.633ZM141.923 334.784L140.397 327.952L141.923 334.784ZM148.038 332.913C148.143 333.511 148.092 329.203 146.053 324.267L133.114 329.612C133.728 331.099 133.904 332.009 133.975 332.537C134.016 332.836 134.035 333.1 134.059 333.491C134.075 333.751 134.112 334.56 134.251 335.348L148.038 332.913ZM146.053 324.267C144.918 321.519 143.966 319.942 140.837 315.835L129.701 324.319C131.162 326.237 131.861 327.234 132.276 327.908C132.612 328.453 132.787 328.821 133.114 329.612L146.053 324.267ZM140.219 315.127C140.349 315.258 140.416 315.346 140.407 315.334C140.388 315.31 140.355 315.265 140.225 315.083C140.123 314.941 139.925 314.662 139.701 314.374C139.468 314.074 139.146 313.685 138.738 313.277L128.839 323.176C128.708 323.046 128.641 322.957 128.65 322.969C128.669 322.994 128.703 323.039 128.832 323.22C128.934 323.362 129.132 323.641 129.356 323.929C129.589 324.23 129.911 324.618 130.319 325.027L140.219 315.127ZM139.314 313.929C137.63 311.764 136.897 310.986 136.367 309.951L123.904 316.328C125.229 318.919 127.401 321.415 128.263 322.524L139.314 313.929ZM124.972 294.464C119.345 296.986 114.122 301.182 110.301 306.612L121.751 314.669C124.104 311.324 127.339 308.745 130.697 307.239L124.972 294.464ZM110.365 306.523C107.227 310.838 104.884 315.861 103.242 321.342L116.653 325.361C117.926 321.112 119.636 317.578 121.687 314.758L110.365 306.523ZM113.271 319.097C111.929 317.579 110.469 316.318 108.754 315.032L100.354 326.232C101.591 327.16 102.266 327.786 102.784 328.371L113.271 319.097ZM108.623 314.936C107.6 314.205 106.418 313.48 105.429 312.965L98.9614 325.381C99.3375 325.577 99.9636 325.955 100.486 326.328L108.623 314.936ZM92.5042 328.209C92.2717 328.79 91.3913 331.093 90.5356 333.66C89.7925 335.889 88.6616 339.469 88.5016 342.029L102.474 342.902C102.47 342.967 102.474 342.861 102.541 342.523C102.604 342.213 102.698 341.814 102.827 341.33C103.086 340.36 103.437 339.229 103.817 338.087C104.58 335.797 105.365 333.752 105.503 333.408L92.5042 328.209ZM88.5206 341.791C87.8275 348.953 89.4414 353.867 90.5715 356.41L103.365 350.724C103.015 349.937 102.038 347.45 102.455 343.14L88.5206 341.791ZM90.5487 356.358C92.9887 361.97 98.8541 370.054 109.868 374.184L114.783 361.075C108.034 358.544 104.648 353.676 103.388 350.776L90.5487 356.358ZM134.851 373.891C146.812 368.83 151.697 359.57 153.339 355.818L140.512 350.206C139.563 352.375 136.677 357.917 129.396 360.998L134.851 373.891ZM153.48 355.47C156.667 346.971 156.355 336.905 152.435 328.366L139.712 334.205C142.081 339.367 142.243 345.561 140.371 350.554L153.48 355.47ZM128.989 361.185C127.566 361.898 121.581 363.628 114.787 361.076L109.864 374.183C120.832 378.302 130.883 375.894 135.257 373.704L128.989 361.185ZM94.2367 319.692C94.202 321.412 93.8212 324.842 92.4846 328.258L105.522 333.359C107.595 328.062 108.174 322.931 108.234 319.974L94.2367 319.692ZM122.365 301.103C121.911 304.335 121.86 309.151 123.282 314.686L136.841 311.201C135.916 307.601 136.005 304.642 136.229 303.05L122.365 301.103ZM137.847 328.695C137.754 328.918 137.663 329.12 137.578 329.296C137.49 329.476 137.424 329.595 137.384 329.661C137.338 329.736 137.365 329.679 137.479 329.545C137.541 329.473 137.647 329.356 137.802 329.215C137.955 329.076 138.186 328.887 138.498 328.692L145.901 340.575C147.754 339.42 148.846 337.757 149.349 336.93C149.963 335.919 150.437 334.878 150.77 334.079L137.847 328.695ZM103.242 321.342C103.973 318.901 105.984 317.564 107.775 317.217C109.534 316.876 111.722 317.345 113.271 319.097L102.784 328.371C106.665 332.76 114.696 331.893 116.653 325.361L103.242 321.342ZM130.697 307.239C128.17 308.372 125.715 307.53 124.324 306.332C122.997 305.189 122.058 303.291 122.365 301.103L136.229 303.05C136.651 300.04 135.359 297.36 133.462 295.725C131.5 294.035 128.256 292.992 124.972 294.464L130.697 307.239ZM140.397 327.952C143.099 327.349 145.152 328.561 146.115 329.43C147.072 330.296 147.786 331.489 148.038 332.913L134.251 335.348C134.567 337.138 135.489 338.698 136.73 339.819C137.975 340.944 140.385 342.3 143.449 341.615L140.397 327.952ZM136.367 309.95C136.583 310.373 136.737 310.795 136.841 311.201L123.282 314.686C123.421 315.228 123.624 315.782 123.904 316.328L136.367 309.95ZM143.449 341.615C144.592 341.36 145.402 340.888 145.74 340.679C145.908 340.576 146.049 340.479 146.056 340.475C146.103 340.443 146.011 340.506 145.901 340.575L138.498 328.692C138.411 328.746 138.34 328.793 138.295 328.823C138.252 328.851 138.213 328.878 138.21 328.88C138.173 328.905 138.27 328.838 138.393 328.762C138.641 328.609 139.358 328.184 140.397 327.952L143.449 341.615ZM105.429 312.965C103.131 311.767 100.016 311.647 97.4297 313.515C95.0937 315.203 94.2764 317.723 94.2367 319.692L108.234 319.974C108.206 321.37 107.615 323.428 105.629 324.863C103.393 326.479 100.752 326.314 98.9614 325.381L105.429 312.965ZM152.435 328.366C150.951 325.132 147.738 323.559 144.712 323.762C141.802 323.958 139.069 325.76 137.847 328.695L150.77 334.079C149.877 336.222 147.848 337.583 145.649 337.731C143.334 337.886 140.838 336.66 139.712 334.205L152.435 328.366Z" fill="#FF7EC9" mask="url(#path-9-outside-1_311_2692)"/>
<path d="M129.748 359.055C127.68 361.123 124.874 362.452 121.772 362.452C113.353 362.452 106.115 352.703 112.466 344.727C114.977 341.034 118.375 339.557 119.704 335.717C120.295 334.24 120.443 332.319 120.295 331.138C120.147 330.694 119.999 329.07 119.999 328.922C119.999 328.774 119.999 328.774 120.147 328.774L120.295 328.626C120.443 328.626 120.443 328.626 120.59 328.626C120.886 328.922 121.181 329.217 121.477 329.513C122.067 330.104 122.806 330.842 123.397 331.433C124.874 332.91 126.203 335.421 126.499 338.228C126.794 341.773 125.908 344.727 123.249 346.647C124.431 347.09 125.612 347.09 126.942 346.647C129.01 345.909 130.191 344.727 130.635 343.102C130.635 343.102 130.635 342.955 130.782 342.955H130.93C132.112 343.398 133.441 345.17 133.589 349.306C133.293 352.408 132.85 355.953 129.748 359.055Z" fill="#FFADDD"/>
<circle cx="202.5" cy="44.5" r="44.5" fill="#D5169F" fill-opacity="0.3"/>
<ellipse cx="202.5" cy="43.3877" rx="38.9375" ry="38.9375" fill="#FF64D4" fill-opacity="0.3"/>
<circle cx="202.5" cy="44.5" r="33.375" fill="#FF64D4" fill-opacity="0.5"/>
<circle cx="202.5" cy="43.3873" r="8.9" fill="#63E9E9"/>
<defs>
<linearGradient id="paint0_linear_311_2692" x1="157.932" y1="50" x2="213.618" y2="50" gradientUnits="userSpaceOnUse">
<stop stop-color="#00D7D7"/>
<stop offset="1" stop-color="#00D7D7" stop-opacity="0"/>
</linearGradient>
<linearGradient id="paint1_linear_311_2692" x1="22.4998" y1="728.5" x2="20.9998" y2="769.455" gradientUnits="userSpaceOnUse">
<stop stop-color="#00D7D7"/>
<stop offset="1" stop-color="#00D7D7" stop-opacity="0"/>
</linearGradient>
</defs>
</svg>
