<svg width="287" height="751" viewBox="0 0 287 751" fill="none" xmlns="http://www.w3.org/2000/svg">
<path d="M174.165 44.3092H213.477V0H165.056C111.362 0 100.655 49.2324 102.253 76.618V482.785H147.318V73.8486C147.318 50.2171 163.937 44.3092 174.165 44.3092Z" fill="url(#paint0_linear)"/>
<path d="M157.039 587.384C149.671 528.007 169.418 509.897 183.647 501.566C208.208 487.185 230.723 503.305 238.91 513.163C279.845 563.726 255.966 633.58 238.91 662.186C204.115 722.027 150.722 719.509 125.315 712.634C97.888 705.211 94.9542 686.25 97.1715 676.972C97.9902 670.014 105.774 668.895 115.592 665.665C154.777 652.774 159.086 608.259 157.039 587.384Z" fill="#D2268A"/>
<path fill-rule="evenodd" clip-rule="evenodd" d="M102.261 427.836H147.314V467.428C147.314 478.594 149.858 485.876 154.716 491.519C160.674 485.225 166.839 480.945 172.052 477.893C191.172 466.698 210.029 467.398 225.03 472.744C239.322 477.837 250.514 487.189 257.093 495.111L257.198 495.237L257.301 495.365C283.663 527.927 288.607 566.44 285.045 599.088C281.549 631.129 269.771 659.554 259.563 676.718C216.653 750.379 149.777 746.915 119.413 738.698C101.065 733.733 87.3038 723.8 79.2704 709.68C71.8614 696.657 70.8376 682.633 73.0655 671.728C75.682 655.702 86.8919 648.291 93.2342 645.284C97.2049 643.401 103.083 641.614 106.468 640.585L106.468 640.585L106.469 640.585C107.342 640.319 108.049 640.104 108.515 639.951C119.732 636.26 125.572 628.67 129.031 619.387C132.786 609.31 133.314 597.837 132.648 590.567C131.377 580.19 130.807 570.591 130.892 561.709C129.858 556.943 128.442 554.427 126.318 551.052C124.282 547.815 122.379 544.882 120.608 542.152C108.191 523.015 102.261 513.875 102.261 479.906V427.836ZM183.647 501.565C208.208 487.184 230.723 503.304 238.91 513.162C279.845 563.725 255.966 633.579 238.91 662.185C204.115 722.026 150.721 719.508 125.314 712.632C97.8877 705.21 94.9539 686.249 97.1712 676.971C97.8608 671.11 103.492 669.392 111.118 667.066C112.546 666.631 114.044 666.174 115.592 665.664C154.776 652.773 159.086 608.258 157.039 587.383C149.671 528.006 169.417 509.896 183.647 501.565Z" fill="#00D7D7"/>
<path d="M157.039 587.384C149.671 528.007 169.418 509.897 183.647 501.566C208.208 487.185 230.723 503.305 238.91 513.163C279.845 563.726 255.966 633.58 238.91 662.186C204.115 722.027 150.722 719.509 125.315 712.634C97.888 705.211 94.9542 686.25 97.1715 676.972C97.9902 670.014 105.774 668.895 115.592 665.665C154.777 652.774 159.086 608.259 157.039 587.384Z" fill="#009393"/>
<path d="M185.861 652.857C181.174 655.393 176.166 655.112 173.096 652.065C170.027 649.019 169.473 644.378 169.473 644.378C165.133 643.836 164.934 639.344 165.955 636.913C167.238 633.857 169.354 632.088 171.583 631.809C171.964 628.688 176.447 627.202 178.26 626.62C185.953 625.608 188.745 630.665 188.433 634.624C191.004 637.77 191.476 641.042 191.257 643.506C191.411 645.566 190.548 650.321 185.861 652.857Z" fill="#CA0D7B"/>
<path d="M57.6488 645.918C84.52 649.744 113.343 639.129 120.685 633.957L90.6382 670.023L81.6649 713.575L69.9724 698.332C66.4375 694.035 58.3469 688.415 51.0742 691.254C41.6707 694.926 41.5283 701.371 41.2352 706.652V750.417H0.201172V694.035C1.84253 644.744 37.4447 643.04 57.6488 645.918Z" fill="url(#paint1_linear)"/>
<path fill-rule="evenodd" clip-rule="evenodd" d="M261.184 571.286C245.825 569.951 224.994 564.005 210.641 546.99C205.714 541.15 200.739 536.435 195.929 532.65C195.876 537.94 191.571 542.212 186.269 542.212C180.934 542.212 176.608 537.887 176.608 532.552C176.608 528.713 178.848 525.397 182.091 523.839C175.468 520.57 169.764 519.08 165.78 518.643C157.857 531.39 152.661 552.102 157.039 587.385C159.086 608.259 154.777 652.774 115.592 665.665C114.044 666.175 112.546 666.632 111.118 667.067C103.492 669.393 97.8611 671.111 97.1715 676.972C94.9542 686.25 97.888 705.211 125.315 712.634C150.722 719.509 204.115 722.027 238.91 662.186C249.943 643.682 263.83 607.921 261.184 571.286ZM200.644 559.962C203.248 559.962 205.358 557.851 205.358 555.247C205.358 552.643 203.248 550.533 200.644 550.533C198.04 550.533 195.929 552.643 195.929 555.247C195.929 557.851 198.04 559.962 200.644 559.962ZM195.929 582.209C195.929 583.952 194.516 585.366 192.773 585.366C191.029 585.366 189.616 583.952 189.616 582.209C189.616 580.465 191.029 579.052 192.773 579.052C194.516 579.052 195.929 580.465 195.929 582.209ZM176.203 571.212C179.983 571.212 183.047 568.148 183.047 564.368C183.047 560.588 179.983 557.523 176.203 557.523C172.423 557.523 169.358 560.588 169.358 564.368C169.358 568.148 172.423 571.212 176.203 571.212Z" fill="#CA0D7B"/>
<defs>
<linearGradient id="paint0_linear" x1="157.791" y1="30.9619" x2="213.477" y2="30.9619" gradientUnits="userSpaceOnUse">
<stop stop-color="#00D7D7"/>
<stop offset="1" stop-color="#00D7D7" stop-opacity="0"/>
</linearGradient>
<linearGradient id="paint1_linear" x1="22.3582" y1="709.462" x2="20.8582" y2="750.417" gradientUnits="userSpaceOnUse">
<stop stop-color="#00D7D7"/>
<stop offset="1" stop-color="#00D7D7" stop-opacity="0"/>
</linearGradient>
</defs>
</svg>
