<svg width="287" height="751" viewBox="0 0 287 751" fill="none" xmlns="http://www.w3.org/2000/svg">
<path d="M174.306 44.3473H213.618V0.0380859H165.197C111.503 0.0380859 100.796 49.2705 102.394 76.6561V482.824H147.459V73.8867C147.459 50.2552 164.079 44.3473 174.306 44.3473Z" fill="url(#paint0_linear_311_1322)"/>
<path d="M157.181 587.423C149.812 528.045 169.559 509.935 183.788 501.604C208.35 487.223 230.864 503.343 239.051 513.201C279.986 563.764 256.107 633.618 239.051 662.224C204.256 722.065 150.863 719.547 125.456 712.672C98.0291 705.249 95.0953 686.288 97.3126 677.01C98.1313 670.052 105.915 668.934 115.734 665.703C154.918 652.812 159.227 608.297 157.181 587.423Z" fill="#D2268A"/>
<path fill-rule="evenodd" clip-rule="evenodd" d="M102.403 427.875H147.456V467.467C147.456 478.632 150 485.914 154.859 491.558C160.816 485.264 166.981 480.984 172.194 477.932C191.315 466.737 210.171 467.436 225.172 472.782C239.464 477.875 250.656 487.228 257.235 495.149L257.34 495.276L257.444 495.403C283.805 527.965 288.749 566.478 285.187 599.126C281.691 631.168 269.913 659.593 259.705 676.756C216.795 750.417 149.92 746.954 119.555 738.737C101.207 733.771 87.4459 723.839 79.4125 709.719C72.0035 696.696 70.9797 682.671 73.2076 671.767C75.8241 655.74 87.034 648.33 93.3763 645.323C97.347 643.44 103.225 641.653 106.61 640.623L106.61 640.623L106.611 640.623C107.484 640.358 108.191 640.143 108.657 639.989C119.874 636.299 125.714 628.708 129.173 619.425C132.928 609.349 133.456 597.876 132.79 590.605C131.519 580.229 130.949 570.629 131.034 561.747C130 556.981 128.584 554.466 126.46 551.09C124.424 547.853 122.521 544.92 120.75 542.191C108.334 523.054 102.403 513.914 102.403 479.944V427.875ZM183.789 501.603C208.35 487.223 230.865 503.343 239.052 513.2C279.987 563.764 256.108 633.617 239.052 662.224C204.257 722.065 150.863 719.547 125.456 712.671C98.0298 705.249 95.096 686.287 97.3133 677.009C98.0029 671.149 103.634 669.431 111.26 667.105C112.688 666.669 114.186 666.212 115.734 665.703C154.919 652.811 159.228 608.297 157.181 587.422C149.813 528.045 169.559 509.935 183.789 501.603Z" fill="#00D7D7"/>
<path d="M157.181 587.423C149.812 528.045 169.559 509.935 183.788 501.604C208.35 487.223 230.864 503.343 239.051 513.201C279.986 563.764 256.107 633.618 239.051 662.224C204.256 722.065 150.863 719.547 125.456 712.672C98.0291 705.249 95.0953 686.288 97.3126 677.01C98.1313 670.052 105.915 668.934 115.734 665.703C154.918 652.812 159.227 608.297 157.181 587.423Z" fill="#009393"/>
<path d="M186.002 652.895C181.315 655.431 176.307 655.15 173.238 652.103C170.168 649.057 169.614 644.416 169.614 644.416C165.274 643.874 165.075 639.382 166.096 636.951C167.379 633.895 169.495 632.126 171.724 631.847C172.105 628.726 176.588 627.24 178.401 626.658C186.094 625.646 188.886 630.703 188.574 634.663C191.145 637.808 191.617 641.08 191.398 643.544C191.552 645.604 190.689 650.359 186.002 652.895Z" fill="#CA0D7B"/>
<path d="M57.7904 645.956C84.6616 649.783 113.485 639.167 120.827 633.995L90.7798 670.061L81.8065 713.613L70.114 698.37C66.5791 694.073 58.4885 688.453 51.2158 691.292C41.8123 694.964 41.6699 701.409 41.3768 706.69V750.455H0.342773V694.073C1.98414 644.782 37.5863 643.078 57.7904 645.956Z" fill="url(#paint1_linear_311_1322)"/>
<path fill-rule="evenodd" clip-rule="evenodd" d="M247.588 525.539C236.184 526.865 223.372 525.904 211.014 520.158C195.197 512.803 181.618 510.87 171.612 511.203C160.824 522.836 151.816 544.192 157.181 587.422C159.227 608.297 154.918 652.811 115.734 665.703C114.185 666.212 112.688 666.669 111.26 667.105L111.259 667.105C103.633 669.431 98.0022 671.149 97.3126 677.01C95.0953 686.287 98.0291 705.249 125.456 712.671C150.863 719.547 204.256 722.065 239.051 662.224C254.758 635.882 276.249 574.563 247.588 525.539ZM196.07 532.59C196.07 537.925 191.745 542.25 186.41 542.25C181.075 542.25 176.75 537.925 176.75 532.59C176.75 527.254 181.075 522.929 186.41 522.929C191.745 522.929 196.07 527.254 196.07 532.59ZM200.785 560C203.389 560 205.5 557.889 205.5 555.285C205.5 552.681 203.389 550.57 200.785 550.57C198.181 550.57 196.07 552.681 196.07 555.285C196.07 557.889 198.181 560 200.785 560ZM196.07 582.247C196.07 583.99 194.657 585.404 192.914 585.404C191.17 585.404 189.757 583.99 189.757 582.247C189.757 580.503 191.17 579.09 192.914 579.09C194.657 579.09 196.07 580.503 196.07 582.247ZM176.344 571.25C180.124 571.25 183.188 568.186 183.188 564.406C183.188 560.626 180.124 557.561 176.344 557.561C172.564 557.561 169.5 560.626 169.5 564.406C169.5 568.186 172.564 571.25 176.344 571.25Z" fill="#CA0D7B"/>
<circle cx="120.5" cy="320.5" r="85.5" fill="#D5169F" fill-opacity="0.3"/>
<circle cx="120.5" cy="318.363" r="74.8125" fill="#FF64D4" fill-opacity="0.3"/>
<circle cx="120.5" cy="320.5" r="64.125" fill="#FF64D4" fill-opacity="0.5"/>
<ellipse cx="120.499" cy="318.362" rx="17.1" ry="17.1" fill="#63E9E9"/>
<circle cx="122" cy="317.743" r="62.7427" fill="#59F0E7"/>
<mask id="path-13-outside-1_311_1322" maskUnits="userSpaceOnUse" x="87.3535" y="274.094" width="69" height="84" fill="black">
<rect fill="white" x="87.3535" y="274.094" width="69" height="84"/>
<path d="M139.584 307.939C141.262 312.002 140.929 313.91 141.144 315.131C141.209 315.496 141.561 315.865 141.923 315.784C142.027 315.761 142.109 315.689 142.199 315.633C143.032 315.115 143.776 313.665 144.308 312.387C144.638 311.595 145.716 311.506 146.074 312.286C149.218 319.136 149.455 327.266 146.925 334.012C145.63 336.973 141.745 344.374 132.123 348.444C129.225 349.896 121.207 351.965 112.325 348.63C103.444 345.299 98.8185 338.823 96.9682 334.567C96.2281 332.902 94.9329 329.201 95.488 323.465C95.673 320.505 98.6335 312.734 99.0035 311.809C100.708 307.452 101.188 303.171 101.235 300.833C101.247 300.261 101.688 299.909 102.195 300.173C102.878 300.528 103.782 301.08 104.554 301.632C106.03 302.739 107.097 303.682 108.028 304.734C108.593 305.374 109.702 305.169 109.947 304.351C111.405 299.487 113.431 295.208 116.026 291.64C119.113 287.253 123.342 283.865 127.834 281.852C128.592 281.512 129.412 282.255 129.297 283.076C128.958 285.488 128.888 289.376 130.062 293.944C130.079 294.011 130.104 294.077 130.135 294.139C131.063 295.952 132.515 297.589 133.789 299.227C134.344 299.782 134.714 300.522 135.269 301.077C138.229 304.963 138.778 305.99 139.584 307.939Z"/>
</mask>
<path d="M139.584 307.939C141.262 312.002 140.929 313.91 141.144 315.131C141.209 315.496 141.561 315.865 141.923 315.784C142.027 315.761 142.109 315.689 142.199 315.633C143.032 315.115 143.776 313.665 144.308 312.387C144.638 311.595 145.716 311.506 146.074 312.286C149.218 319.136 149.455 327.266 146.925 334.012C145.63 336.973 141.745 344.374 132.123 348.444C129.225 349.896 121.207 351.965 112.325 348.63C103.444 345.299 98.8185 338.823 96.9682 334.567C96.2281 332.902 94.9329 329.201 95.488 323.465C95.673 320.505 98.6335 312.734 99.0035 311.809C100.708 307.452 101.188 303.171 101.235 300.833C101.247 300.261 101.688 299.909 102.195 300.173C102.878 300.528 103.782 301.08 104.554 301.632C106.03 302.739 107.097 303.682 108.028 304.734C108.593 305.374 109.702 305.169 109.947 304.351C111.405 299.487 113.431 295.208 116.026 291.64C119.113 287.253 123.342 283.865 127.834 281.852C128.592 281.512 129.412 282.255 129.297 283.076C128.958 285.488 128.888 289.376 130.062 293.944C130.079 294.011 130.104 294.077 130.135 294.139C131.063 295.952 132.515 297.589 133.789 299.227C134.344 299.782 134.714 300.522 135.269 301.077C138.229 304.963 138.778 305.99 139.584 307.939Z" fill="#CA0D7B"/>
<path d="M141.144 315.131L148.038 313.913L148.038 313.913L141.144 315.131ZM139.584 307.939L146.053 305.267L146.053 305.267L139.584 307.939ZM135.269 301.077L140.837 296.835L140.551 296.46L140.219 296.127L135.269 301.077ZM133.789 299.227L128.263 303.524L128.531 303.868L128.839 304.176L133.789 299.227ZM130.135 294.139L136.367 290.951L136.367 290.95L130.135 294.139ZM127.834 281.852L130.697 288.239V288.239L127.834 281.852ZM116.026 291.64L121.687 295.758L121.719 295.713L121.751 295.669L116.026 291.64ZM109.947 304.351L103.242 302.342L103.242 302.342L109.947 304.351ZM108.028 304.734L113.271 300.097V300.097L108.028 304.734ZM104.554 301.632L108.754 296.032L108.689 295.983L108.623 295.936L104.554 301.632ZM102.195 300.173L105.429 293.965L105.429 293.965L102.195 300.173ZM99.0035 311.809L105.503 314.408L105.513 314.384L105.522 314.359L99.0035 311.809ZM95.488 323.465L102.455 324.14L102.467 324.021L102.474 323.902L95.488 323.465ZM96.9682 334.567L103.388 331.776L103.376 331.75L103.365 331.724L96.9682 334.567ZM112.325 348.63L114.787 342.076L114.783 342.075L112.325 348.63ZM132.123 348.444L129.396 341.998L129.189 342.085L128.989 342.185L132.123 348.444ZM146.925 334.012L153.339 336.818L153.414 336.646L153.48 336.47L146.925 334.012ZM146.074 312.286L139.712 315.205L139.712 315.205L146.074 312.286ZM101.235 300.833L108.234 300.974V300.974L101.235 300.833ZM129.297 283.076L122.365 282.103L122.365 282.103L129.297 283.076ZM130.062 293.944L123.282 295.686L123.282 295.686L130.062 293.944ZM144.308 312.387L150.77 315.079L150.77 315.079L144.308 312.387ZM142.199 315.633L138.498 309.692L138.498 309.692L142.199 315.633ZM141.923 315.784L140.397 308.952L141.923 315.784ZM148.038 313.913C148.143 314.511 148.092 310.203 146.053 305.267L133.114 310.612C133.728 312.099 133.904 313.009 133.975 313.537C134.016 313.836 134.035 314.1 134.059 314.491C134.075 314.751 134.112 315.56 134.251 316.348L148.038 313.913ZM146.053 305.267C144.918 302.519 143.966 300.942 140.837 296.835L129.701 305.319C131.162 307.237 131.861 308.234 132.276 308.908C132.612 309.453 132.787 309.821 133.114 310.612L146.053 305.267ZM140.219 296.127C140.349 296.258 140.416 296.346 140.407 296.334C140.388 296.31 140.355 296.265 140.225 296.083C140.123 295.941 139.925 295.662 139.701 295.374C139.468 295.074 139.146 294.685 138.738 294.277L128.839 304.176C128.708 304.046 128.641 303.957 128.65 303.969C128.669 303.994 128.703 304.039 128.832 304.22C128.934 304.362 129.132 304.641 129.356 304.929C129.589 305.23 129.911 305.618 130.319 306.027L140.219 296.127ZM139.314 294.929C137.63 292.764 136.897 291.986 136.367 290.951L123.904 297.328C125.229 299.919 127.401 302.415 128.263 303.524L139.314 294.929ZM124.972 275.464C119.345 277.986 114.122 282.182 110.301 287.612L121.751 295.669C124.104 292.324 127.339 289.745 130.697 288.239L124.972 275.464ZM110.365 287.523C107.227 291.838 104.884 296.861 103.242 302.342L116.653 306.361C117.926 302.112 119.636 298.578 121.687 295.758L110.365 287.523ZM113.271 300.097C111.929 298.579 110.469 297.318 108.754 296.032L100.354 307.232C101.591 308.16 102.266 308.786 102.784 309.371L113.271 300.097ZM108.623 295.936C107.6 295.205 106.418 294.48 105.429 293.965L98.9614 306.381C99.3375 306.577 99.9636 306.955 100.486 307.328L108.623 295.936ZM92.5042 309.209C92.2717 309.79 91.3913 312.093 90.5356 314.66C89.7925 316.889 88.6616 320.469 88.5016 323.029L102.474 323.902C102.47 323.967 102.474 323.861 102.541 323.523C102.604 323.213 102.698 322.814 102.827 322.33C103.086 321.36 103.437 320.229 103.817 319.087C104.58 316.797 105.365 314.752 105.503 314.408L92.5042 309.209ZM88.5206 322.791C87.8275 329.953 89.4414 334.867 90.5715 337.41L103.365 331.724C103.015 330.937 102.038 328.45 102.455 324.14L88.5206 322.791ZM90.5487 337.358C92.9887 342.97 98.8541 351.054 109.868 355.184L114.783 342.075C108.034 339.544 104.648 334.676 103.388 331.776L90.5487 337.358ZM134.851 354.891C146.812 349.83 151.697 340.57 153.339 336.818L140.512 331.206C139.563 333.375 136.677 338.917 129.396 341.998L134.851 354.891ZM153.48 336.47C156.667 327.971 156.355 317.905 152.435 309.366L139.712 315.205C142.081 320.367 142.243 326.561 140.371 331.554L153.48 336.47ZM128.989 342.185C127.566 342.898 121.581 344.628 114.787 342.076L109.864 355.183C120.832 359.302 130.883 356.894 135.257 354.704L128.989 342.185ZM94.2367 300.692C94.202 302.412 93.8212 305.842 92.4846 309.258L105.522 314.359C107.595 309.062 108.174 303.931 108.234 300.974L94.2367 300.692ZM122.365 282.103C121.911 285.335 121.86 290.151 123.282 295.686L136.841 292.201C135.916 288.601 136.005 285.642 136.229 284.05L122.365 282.103ZM137.847 309.695C137.754 309.918 137.663 310.12 137.578 310.296C137.49 310.476 137.424 310.595 137.384 310.661C137.338 310.736 137.365 310.679 137.479 310.545C137.541 310.473 137.647 310.356 137.802 310.215C137.955 310.076 138.186 309.887 138.498 309.692L145.901 321.575C147.754 320.42 148.846 318.757 149.349 317.93C149.963 316.919 150.437 315.878 150.77 315.079L137.847 309.695ZM103.242 302.342C103.973 299.901 105.984 298.564 107.775 298.217C109.534 297.876 111.722 298.345 113.271 300.097L102.784 309.371C106.665 313.76 114.696 312.893 116.653 306.361L103.242 302.342ZM130.697 288.239C128.17 289.372 125.715 288.53 124.324 287.332C122.997 286.189 122.058 284.291 122.365 282.103L136.229 284.05C136.651 281.04 135.359 278.36 133.462 276.725C131.5 275.035 128.256 273.992 124.972 275.464L130.697 288.239ZM140.397 308.952C143.099 308.349 145.152 309.561 146.115 310.43C147.072 311.296 147.786 312.489 148.038 313.913L134.251 316.348C134.567 318.138 135.489 319.698 136.73 320.819C137.975 321.944 140.385 323.3 143.449 322.615L140.397 308.952ZM136.367 290.95C136.583 291.373 136.737 291.795 136.841 292.201L123.282 295.686C123.421 296.228 123.624 296.782 123.904 297.328L136.367 290.95ZM143.449 322.615C144.592 322.36 145.402 321.888 145.74 321.679C145.908 321.576 146.049 321.479 146.056 321.475C146.103 321.443 146.011 321.506 145.901 321.575L138.498 309.692C138.411 309.746 138.34 309.793 138.295 309.823C138.252 309.851 138.213 309.878 138.21 309.88C138.173 309.905 138.27 309.838 138.393 309.762C138.641 309.609 139.358 309.184 140.397 308.952L143.449 322.615ZM105.429 293.965C103.131 292.767 100.016 292.647 97.4297 294.515C95.0937 296.203 94.2764 298.723 94.2367 300.692L108.234 300.974C108.206 302.37 107.615 304.428 105.629 305.863C103.393 307.479 100.752 307.314 98.9614 306.381L105.429 293.965ZM152.435 309.366C150.951 306.132 147.738 304.559 144.712 304.762C141.802 304.958 139.069 306.76 137.847 309.695L150.77 315.079C149.877 317.222 147.848 318.583 145.649 318.731C143.334 318.886 140.838 317.66 139.712 315.205L152.435 309.366Z" fill="#FF7EC9" mask="url(#path-13-outside-1_311_1322)"/>
<path d="M129.748 340.055C127.68 342.123 124.874 343.452 121.772 343.452C113.353 343.452 106.115 333.703 112.466 325.727C114.977 322.034 118.375 320.557 119.704 316.717C120.295 315.24 120.443 313.319 120.295 312.138C120.147 311.694 119.999 310.07 119.999 309.922C119.999 309.774 119.999 309.774 120.147 309.774L120.295 309.626C120.443 309.626 120.443 309.626 120.59 309.626C120.886 309.922 121.181 310.217 121.477 310.513C122.067 311.104 122.806 311.842 123.397 312.433C124.874 313.91 126.203 316.421 126.499 319.228C126.794 322.773 125.908 325.727 123.249 327.647C124.431 328.09 125.612 328.09 126.942 327.647C129.01 326.909 130.191 325.727 130.635 324.102C130.635 324.102 130.635 323.955 130.782 323.955H130.93C132.112 324.398 133.441 326.17 133.589 330.306C133.293 333.408 132.85 336.953 129.748 340.055Z" fill="#FFADDD"/>
<defs>
<linearGradient id="paint0_linear_311_1322" x1="157.932" y1="31" x2="213.618" y2="31" gradientUnits="userSpaceOnUse">
<stop stop-color="#00D7D7"/>
<stop offset="1" stop-color="#00D7D7" stop-opacity="0"/>
</linearGradient>
<linearGradient id="paint1_linear_311_1322" x1="22.4998" y1="709.5" x2="20.9998" y2="750.455" gradientUnits="userSpaceOnUse">
<stop stop-color="#00D7D7"/>
<stop offset="1" stop-color="#00D7D7" stop-opacity="0"/>
</linearGradient>
</defs>
</svg>
