<svg width="287" height="751" viewBox="0 0 287 751" fill="none" xmlns="http://www.w3.org/2000/svg">
<path d="M174.165 44.3092H213.477V0H165.056C111.362 0 100.655 49.2324 102.253 76.618V482.785H147.318V73.8486C147.318 50.2171 163.937 44.3092 174.165 44.3092Z" fill="url(#paint0_linear)"/>
<path d="M157.039 587.384C149.671 528.007 169.418 509.897 183.647 501.566C208.208 487.185 230.723 503.305 238.91 513.163C279.845 563.726 255.966 633.58 238.91 662.186C204.115 722.027 150.722 719.509 125.315 712.634C97.888 705.211 94.9542 686.25 97.1715 676.972C97.9902 670.014 105.774 668.895 115.592 665.665C154.777 652.774 159.086 608.259 157.039 587.384Z" fill="#D2268A"/>
<path fill-rule="evenodd" clip-rule="evenodd" d="M102.261 427.836H147.314V467.428C147.314 478.594 149.858 485.876 154.716 491.519C160.674 485.225 166.839 480.945 172.052 477.893C191.172 466.698 210.029 467.398 225.03 472.744C239.322 477.837 250.514 487.189 257.093 495.111L257.198 495.237L257.301 495.365C283.663 527.927 288.607 566.44 285.045 599.088C281.549 631.129 269.771 659.554 259.563 676.718C216.653 750.379 149.777 746.915 119.413 738.698C101.065 733.733 87.3038 723.8 79.2704 709.68C71.8614 696.657 70.8376 682.633 73.0655 671.728C75.682 655.702 86.8919 648.291 93.2342 645.284C97.2049 643.401 103.083 641.614 106.468 640.585L106.468 640.585L106.469 640.585C107.342 640.319 108.049 640.104 108.515 639.951C119.732 636.26 125.572 628.67 129.031 619.387C132.786 609.31 133.314 597.837 132.648 590.567C131.377 580.19 130.807 570.591 130.892 561.709C129.858 556.943 128.442 554.427 126.318 551.052C124.282 547.815 122.379 544.882 120.608 542.152C108.191 523.015 102.261 513.875 102.261 479.906V427.836ZM183.647 501.565C208.208 487.184 230.723 503.304 238.91 513.162C279.845 563.725 255.966 633.579 238.91 662.185C204.115 722.026 150.721 719.508 125.314 712.632C97.8877 705.21 94.9539 686.249 97.1712 676.971C97.8608 671.11 103.492 669.392 111.118 667.066C112.546 666.631 114.044 666.174 115.592 665.664C154.776 652.773 159.086 608.258 157.039 587.383C149.671 528.006 169.417 509.896 183.647 501.565Z" fill="#00D7D7"/>
<path d="M157.039 587.384C149.671 528.007 169.418 509.897 183.647 501.566C208.208 487.185 230.723 503.305 238.91 513.163C279.845 563.726 255.966 633.58 238.91 662.186C204.115 722.027 150.722 719.509 125.315 712.634C97.888 705.211 94.9542 686.25 97.1715 676.972C97.9902 670.014 105.774 668.895 115.592 665.665C154.777 652.774 159.086 608.259 157.039 587.384Z" fill="#009393"/>
<path d="M185.861 652.857C181.174 655.393 176.166 655.112 173.096 652.065C170.027 649.019 169.473 644.378 169.473 644.378C165.133 643.836 164.934 639.344 165.955 636.913C167.238 633.857 169.354 632.088 171.583 631.809C171.964 628.688 176.447 627.202 178.26 626.62C185.953 625.608 188.745 630.665 188.433 634.624C191.004 637.77 191.476 641.042 191.257 643.506C191.411 645.566 190.548 650.321 185.861 652.857Z" fill="#CA0D7B"/>
<path d="M57.6488 645.918C84.52 649.744 113.343 639.129 120.685 633.957L90.6382 670.023L81.6649 713.575L69.9724 698.332C66.4375 694.035 58.3469 688.415 51.0742 691.254C41.6707 694.926 41.5283 701.371 41.2352 706.652V750.417H0.201172V694.035C1.84253 644.744 37.4447 643.04 57.6488 645.918Z" fill="url(#paint1_linear)"/>
<circle cx="167.019" cy="668.468" r="2.57606" fill="#CA0D7B"/>
<circle cx="181.621" cy="665.891" r="2.57606" fill="#CA0D7B"/>
<circle cx="160.477" cy="660.876" r="3.96611" fill="#CA0D7B"/>
<circle cx="215.337" cy="634.757" r="2.57606" fill="#CA0D7B"/>
<circle cx="205.545" cy="627.479" r="3.96611" fill="#CA0D7B"/>
<circle cx="225.508" cy="623.513" r="3.96611" fill="#CA0D7B"/>
<path fill-rule="evenodd" clip-rule="evenodd" d="M156.912 606.857C169.253 613.11 188.499 618.617 207.859 611.962C233.459 603.162 251.525 608.296 257.359 611.962L258.238 611.127C253.852 632.234 245.821 650.596 238.91 662.186C204.115 722.028 150.722 719.51 125.315 712.634C97.888 705.212 94.9542 686.25 97.1715 676.972C97.8611 671.111 103.492 669.394 111.118 667.068L111.118 667.067L111.119 667.067C112.547 666.632 114.044 666.175 115.592 665.665C144.87 656.033 154.678 628.747 156.912 606.857ZM222.145 621.163C222.145 624.651 219.316 627.479 215.828 627.479C212.339 627.479 209.511 624.651 209.511 621.163C209.511 617.674 212.339 614.846 215.828 614.846C219.316 614.846 222.145 617.674 222.145 621.163ZM200.737 641.796C203.392 641.796 205.545 639.644 205.545 636.988C205.545 634.333 203.392 632.181 200.737 632.181C198.082 632.181 195.929 634.333 195.929 636.988C195.929 639.644 198.082 641.796 200.737 641.796ZM227.024 645.379C227.024 647.358 225.42 648.962 223.441 648.962C221.463 648.962 219.858 647.358 219.858 645.379C219.858 643.4 221.463 641.796 223.441 641.796C225.42 641.796 227.024 643.4 227.024 645.379ZM161.374 652.545C163.352 652.545 164.957 650.941 164.957 648.962C164.957 646.983 163.352 645.379 161.374 645.379C159.395 645.379 157.791 646.983 157.791 648.962C157.791 650.941 159.395 652.545 161.374 652.545Z" fill="#CA0D7B"/>
<defs>
<linearGradient id="paint0_linear" x1="157.791" y1="30.9619" x2="213.477" y2="30.9619" gradientUnits="userSpaceOnUse">
<stop stop-color="#00D7D7"/>
<stop offset="1" stop-color="#00D7D7" stop-opacity="0"/>
</linearGradient>
<linearGradient id="paint1_linear" x1="22.3582" y1="709.462" x2="20.8582" y2="750.417" gradientUnits="userSpaceOnUse">
<stop stop-color="#00D7D7"/>
<stop offset="1" stop-color="#00D7D7" stop-opacity="0"/>
</linearGradient>
</defs>
</svg>
