<svg width="630" height="483" viewBox="0 0 630 483" fill="none" xmlns="http://www.w3.org/2000/svg">
<g filter="url(#filter0_f)">
<path d="M127.467 212V214.5H131.11L129.8 211.101L127.467 212ZM103.257 149.18L105.59 148.281L104.973 146.68H103.257V149.18ZM82.737 149.18V146.68H81.012L80.3998 148.293L82.737 149.18ZM58.887 212L56.5498 211.113L55.2637 214.5H58.887V212ZM75.897 212V214.5H77.6391L78.2423 212.866L75.897 212ZM80.847 198.59V196.09H79.1049L78.5017 197.724L80.847 198.59ZM104.427 198.59L106.787 197.766L106.202 196.09H104.427V198.59ZM109.107 212L106.747 212.824L107.332 214.5H109.107V212ZM100.467 186.71V189.21H103.84L102.859 185.983L100.467 186.71ZM84.717 186.71L82.3427 185.927L81.2605 189.21H84.717V186.71ZM92.817 162.14V159.64H91.0088L90.4427 161.357L92.817 162.14ZM92.997 162.14L95.3889 161.413L94.8499 159.64H92.997V162.14ZM129.8 211.101L105.59 148.281L100.924 150.079L125.134 212.899L129.8 211.101ZM103.257 146.68H82.737V151.68H103.257V146.68ZM80.3998 148.293L56.5498 211.113L61.2242 212.887L85.0742 150.067L80.3998 148.293ZM58.887 214.5H75.897V209.5H58.887V214.5ZM78.2423 212.866L83.1923 199.456L78.5017 197.724L73.5517 211.134L78.2423 212.866ZM80.847 201.09H104.427V196.09H80.847V201.09ZM102.067 199.414L106.747 212.824L111.467 211.176L106.787 197.766L102.067 199.414ZM109.107 214.5H127.467V209.5H109.107V214.5ZM100.467 184.21H84.717V189.21H100.467V184.21ZM87.0913 187.493L95.1913 162.923L90.4427 161.357L82.3427 185.927L87.0913 187.493ZM92.817 164.64H92.997V159.64H92.817V164.64ZM90.6051 162.867L98.0751 187.437L102.859 185.983L95.3889 161.413L90.6051 162.867ZM176.726 212V214.5H179.226V212H176.726ZM176.726 199.58H179.226V197.08H176.726V199.58ZM150.806 199.58H148.306V202.08H150.806V199.58ZM150.806 149.18H153.306V146.68H150.806V149.18ZM134.066 149.18V146.68H131.566V149.18H134.066ZM134.066 212H131.566V214.5H134.066V212ZM179.226 212V199.58H174.226V212H179.226ZM176.726 197.08H150.806V202.08H176.726V197.08ZM153.306 199.58V149.18H148.306V199.58H153.306ZM150.806 146.68H134.066V151.68H150.806V146.68ZM131.566 149.18V212H136.566V149.18H131.566ZM134.066 214.5H176.726V209.5H134.066V214.5ZM226.736 212V214.5H229.236V212H226.736ZM226.736 199.58H229.236V197.08H226.736V199.58ZM200.816 199.58H198.316V202.08H200.816V199.58ZM200.816 149.18H203.316V146.68H200.816V149.18ZM184.076 149.18V146.68H181.576V149.18H184.076ZM184.076 212H181.576V214.5H184.076V212ZM229.236 212V199.58H224.236V212H229.236ZM226.736 197.08H200.816V202.08H226.736V197.08ZM203.316 199.58V149.18H198.316V199.58H203.316ZM200.816 146.68H184.076V151.68H200.816V146.68ZM181.576 149.18V212H186.576V149.18H181.576ZM184.076 214.5H226.736V209.5H184.076V214.5ZM325.045 212V214.5H328.688L327.378 211.101L325.045 212ZM300.835 149.18L303.168 148.281L302.551 146.68H300.835V149.18ZM280.315 149.18V146.68H278.59L277.978 148.293L280.315 149.18ZM256.465 212L254.128 211.113L252.842 214.5H256.465V212ZM273.475 212V214.5H275.217L275.82 212.866L273.475 212ZM278.425 198.59V196.09H276.683L276.08 197.724L278.425 198.59ZM302.005 198.59L304.366 197.766L303.781 196.09H302.005V198.59ZM306.685 212L304.325 212.824L304.91 214.5H306.685V212ZM298.045 186.71V189.21H301.418L300.437 185.983L298.045 186.71ZM282.295 186.71L279.921 185.927L278.839 189.21H282.295V186.71ZM290.395 162.14V159.64H288.587L288.021 161.357L290.395 162.14ZM290.575 162.14L292.967 161.413L292.428 159.64H290.575V162.14ZM327.378 211.101L303.168 148.281L298.502 150.079L322.712 212.899L327.378 211.101ZM300.835 146.68H280.315V151.68H300.835V146.68ZM277.978 148.293L254.128 211.113L258.802 212.887L282.652 150.067L277.978 148.293ZM256.465 214.5H273.475V209.5H256.465V214.5ZM275.82 212.866L280.77 199.456L276.08 197.724L271.13 211.134L275.82 212.866ZM278.425 201.09H302.005V196.09H278.425V201.09ZM299.645 199.414L304.325 212.824L309.046 211.176L304.366 197.766L299.645 199.414ZM306.685 214.5H325.045V209.5H306.685V214.5ZM298.045 184.21H282.295V189.21H298.045V184.21ZM284.669 187.493L292.769 162.923L288.021 161.357L279.921 185.927L284.669 187.493ZM290.395 164.64H290.575V159.64H290.395V164.64ZM288.183 162.867L295.653 187.437L300.437 185.983L292.967 161.413L288.183 162.867ZM369.444 179.96H366.944V182.001L368.944 182.409L369.444 179.96ZM369.444 179.78L368.672 177.402L366.944 177.963V179.78H369.444ZM331.194 149.18V146.68H328.694V149.18H331.194ZM331.194 212H328.694V214.5H331.194V212ZM347.934 174.02H345.434V176.52H347.934V174.02ZM347.934 161.06V158.56H345.434V161.06H347.934ZM347.934 200.12H345.434V202.62H347.934V200.12ZM347.934 185.36V182.86H345.434V185.36H347.934ZM357.654 214.5C365.404 214.5 372.119 213.097 376.961 209.719C381.954 206.236 384.634 200.877 384.634 193.82H379.634C379.634 199.453 377.589 203.184 374.1 205.618C370.459 208.158 364.934 209.5 357.654 209.5V214.5ZM384.634 193.82C384.634 189.498 383.399 185.81 380.762 182.963C378.164 180.159 374.443 178.43 369.944 177.511L368.944 182.409C372.815 183.2 375.439 184.576 377.094 186.362C378.709 188.105 379.634 190.492 379.634 193.82H384.634ZM371.944 179.96V179.78H366.944V179.96H371.944ZM370.216 182.158C373.997 180.93 377.243 179.016 379.536 176.125C381.85 173.209 383.014 169.527 383.014 165.11H378.014C378.014 168.613 377.108 171.141 375.619 173.017C374.11 174.919 371.821 176.38 368.672 177.402L370.216 182.158ZM383.014 165.11C383.014 159.319 380.772 154.572 376.554 151.346C372.427 148.188 366.668 146.68 359.904 146.68V151.68C366.01 151.68 370.556 153.052 373.516 155.317C376.386 157.513 378.014 160.731 378.014 165.11H383.014ZM359.904 146.68H331.194V151.68H359.904V146.68ZM328.694 149.18V212H333.694V149.18H328.694ZM331.194 214.5H357.654V209.5H331.194V214.5ZM350.434 174.02V161.06H345.434V174.02H350.434ZM347.934 163.56H352.614V158.56H347.934V163.56ZM352.614 163.56C355.508 163.56 357.817 163.699 359.381 164.333C360.096 164.623 360.518 164.966 360.777 165.338C361.031 165.702 361.274 166.299 361.274 167.36H366.274C366.274 165.496 365.831 163.843 364.878 162.477C363.931 161.119 362.625 160.253 361.259 159.699C358.66 158.646 355.39 158.56 352.614 158.56V163.56ZM361.274 167.36C361.274 168.21 361.062 168.774 360.779 169.186C360.482 169.618 360 170.034 359.249 170.399C357.68 171.163 355.323 171.52 352.524 171.52V176.52C355.575 176.52 358.843 176.157 361.436 174.896C362.766 174.249 364.001 173.325 364.899 172.019C365.81 170.694 366.274 169.12 366.274 167.36H361.274ZM352.524 171.52H347.934V176.52H352.524V171.52ZM350.434 200.12V185.36H345.434V200.12H350.434ZM347.934 187.86H353.244V182.86H347.934V187.86ZM353.244 187.86C356.789 187.86 359.299 188.235 360.864 189.051C361.588 189.428 362.05 189.87 362.352 190.384C362.658 190.906 362.894 191.668 362.894 192.83H367.894C367.894 190.977 367.512 189.298 366.664 187.854C365.812 186.401 364.588 185.353 363.174 184.617C360.464 183.205 356.899 182.86 353.244 182.86V187.86ZM362.894 192.83C362.894 194.048 362.644 195.003 361.763 195.759C360.766 196.614 358.499 197.62 353.424 197.62V202.62C358.969 202.62 362.686 201.556 365.019 199.553C367.469 197.452 367.894 194.762 367.894 192.83H362.894ZM353.424 197.62H347.934V202.62H353.424V197.62ZM420.833 215.58C431.368 215.58 439.96 212.427 445.908 206.267C451.844 200.119 454.833 191.302 454.833 180.59H449.833C449.833 190.398 447.108 197.826 442.311 202.793C437.527 207.748 430.368 210.58 420.833 210.58V215.58ZM454.833 180.59C454.833 169.84 451.87 161.02 445.942 154.88C440.001 148.726 431.406 145.6 420.833 145.6V150.6C430.421 150.6 437.576 153.414 442.345 158.353C447.126 163.305 449.833 170.73 449.833 180.59H454.833ZM420.833 145.6C410.261 145.6 401.666 148.726 395.725 154.88C389.796 161.02 386.833 169.84 386.833 180.59H391.833C391.833 170.73 394.54 163.305 399.322 158.353C404.091 153.414 411.246 150.6 420.833 150.6V145.6ZM386.833 180.59C386.833 191.312 389.873 200.127 395.83 206.27C401.796 212.424 410.383 215.58 420.833 215.58V210.58C411.394 210.58 404.23 207.751 399.419 202.79C394.598 197.818 391.833 190.388 391.833 180.59H386.833ZM420.923 198.16C416.987 198.16 414.176 196.455 412.242 193.532C410.232 190.493 409.113 186.016 409.113 180.59H404.113C404.113 186.594 405.335 192.152 408.072 196.29C410.886 200.545 415.229 203.16 420.923 203.16V198.16ZM409.113 180.59C409.113 174.537 410.366 170.097 412.388 167.241C414.333 164.496 417.114 163.02 420.833 163.02V158.02C415.552 158.02 411.224 160.234 408.308 164.351C405.471 168.358 404.113 173.953 404.113 180.59H409.113ZM420.833 163.02C424.623 163.02 427.403 164.546 429.333 167.324C431.343 170.218 432.553 174.666 432.553 180.59H437.553C437.553 174.094 436.243 168.507 433.439 164.471C430.554 160.319 426.224 158.02 420.833 158.02V163.02ZM432.553 180.59C432.553 186.174 431.353 190.648 429.326 193.646C427.366 196.545 424.587 198.16 420.923 198.16V203.16C426.349 203.16 430.636 200.635 433.468 196.447C436.233 192.357 437.553 186.796 437.553 180.59H432.553ZM477.562 149.18H480.062V146.68H477.562V149.18ZM460.822 149.18V146.68H458.322V149.18H460.822ZM515.902 149.18H518.402V146.68H515.902V149.18ZM499.162 149.18V146.68H496.662V149.18H499.162ZM496.662 185.63C496.662 190.399 495.789 193.54 494.431 195.434C493.181 197.175 491.306 198.16 488.362 198.16V203.16C492.618 203.16 496.143 201.624 498.493 198.349C500.735 195.225 501.662 190.851 501.662 185.63H496.662ZM488.362 198.16C485.382 198.16 483.514 197.16 482.273 195.396C480.917 193.469 480.062 190.278 480.062 185.45H475.062C475.062 190.702 475.962 195.116 478.184 198.274C480.52 201.595 484.053 203.16 488.362 203.16V198.16ZM480.062 185.45V149.18H475.062V185.45H480.062ZM477.562 146.68H460.822V151.68H477.562V146.68ZM458.322 149.18V188.33H463.322V149.18H458.322ZM458.322 188.33C458.322 196.595 460.884 203.519 466.152 208.352C471.389 213.157 478.957 215.58 488.362 215.58V210.58C479.767 210.58 473.566 208.368 469.532 204.668C465.53 200.996 463.322 195.545 463.322 188.33H458.322ZM488.362 215.58C497.622 215.58 505.186 213.229 510.457 208.466C515.766 203.669 518.402 196.739 518.402 188.33H513.402C513.402 195.671 511.133 201.116 507.105 204.756C503.038 208.431 496.832 210.58 488.362 210.58V215.58ZM518.402 188.33V149.18H513.402V188.33H518.402ZM515.902 146.68H499.162V151.68H515.902V146.68ZM496.662 149.18V185.63H501.662V149.18H496.662ZM554.213 212V214.5H556.713V212H554.213ZM554.213 161.6V159.1H551.713V161.6H554.213ZM569.693 161.6V164.1H572.193V161.6H569.693ZM569.693 149.18H572.193V146.68H569.693V149.18ZM521.993 149.18V146.68H519.493V149.18H521.993ZM521.993 161.6H519.493V164.1H521.993V161.6ZM537.473 161.6H539.973V159.1H537.473V161.6ZM537.473 212H534.973V214.5H537.473V212ZM556.713 212V161.6H551.713V212H556.713ZM554.213 164.1H569.693V159.1H554.213V164.1ZM572.193 161.6V149.18H567.193V161.6H572.193ZM569.693 146.68H521.993V151.68H569.693V146.68ZM519.493 149.18V161.6H524.493V149.18H519.493ZM521.993 164.1H537.473V159.1H521.993V164.1ZM534.973 161.6V212H539.973V161.6H534.973ZM537.473 214.5H554.213V209.5H537.473V214.5ZM82.467 307V309.5H86.1097L84.7998 306.101L82.467 307ZM58.257 244.18L60.5898 243.281L59.9728 241.68H58.257V244.18ZM37.737 244.18V241.68H36.012L35.3998 243.293L37.737 244.18ZM13.887 307L11.5498 306.113L10.2637 309.5H13.887V307ZM30.897 307V309.5H32.6391L33.2423 307.866L30.897 307ZM35.847 293.59V291.09H34.1049L33.5017 292.724L35.847 293.59ZM59.427 293.59L61.7874 292.766L61.2024 291.09H59.427V293.59ZM64.107 307L61.7466 307.824L62.3316 309.5H64.107V307ZM55.467 281.71V284.21H58.8401L57.8589 280.983L55.467 281.71ZM39.717 281.71L37.3427 280.927L36.2605 284.21H39.717V281.71ZM47.817 257.14V254.64H46.0088L45.4427 256.357L47.817 257.14ZM47.997 257.14L50.3889 256.413L49.8499 254.64H47.997V257.14ZM84.7998 306.101L60.5898 243.281L55.9242 245.079L80.1342 307.899L84.7998 306.101ZM58.257 241.68H37.737V246.68H58.257V241.68ZM35.3998 243.293L11.5498 306.113L16.2242 307.887L40.0742 245.067L35.3998 243.293ZM13.887 309.5H30.897V304.5H13.887V309.5ZM33.2423 307.866L38.1923 294.456L33.5017 292.724L28.5517 306.134L33.2423 307.866ZM35.847 296.09H59.427V291.09H35.847V296.09ZM57.0666 294.414L61.7466 307.824L66.4674 306.176L61.7874 292.766L57.0666 294.414ZM64.107 309.5H82.467V304.5H64.107V309.5ZM55.467 279.21H39.717V284.21H55.467V279.21ZM42.0913 282.493L50.1913 257.923L45.4427 256.357L37.3427 280.927L42.0913 282.493ZM47.817 259.64H47.997V254.64H47.817V259.64ZM45.6051 257.867L53.0751 282.437L57.8589 280.983L50.3889 256.413L45.6051 257.867ZM140.636 292.42L143.131 292.266L142.92 288.839L139.723 290.093L140.636 292.42ZM140.006 259.93L138.801 262.121L142.119 263.946L142.494 260.177L140.006 259.93ZM141.356 246.34L143.844 246.587L144.047 244.534L142.071 243.944L141.356 246.34ZM141.446 305.56L142.074 307.98L144.068 307.462L143.941 305.406L141.446 305.56ZM139.723 290.093C135.325 291.817 129.972 293.16 124.976 293.16V298.16C130.779 298.16 136.767 296.623 141.549 294.747L139.723 290.093ZM124.976 293.16C119.112 293.16 114.526 291.331 111.424 288.372C108.331 285.423 106.506 281.156 106.506 275.86H101.506C101.506 282.354 103.775 287.987 107.973 291.99C112.161 295.984 118.06 298.16 124.976 298.16V293.16ZM106.506 275.86C106.506 270.433 108.293 265.998 111.241 262.935C114.18 259.881 118.435 258.02 123.716 258.02V253.02C117.206 253.02 111.607 255.344 107.638 259.468C103.678 263.582 101.506 269.317 101.506 275.86H106.506ZM123.716 258.02C128.917 258.02 133.726 259.329 138.801 262.121L141.211 257.739C135.485 254.591 129.854 253.02 123.716 253.02V258.02ZM142.494 260.177L143.844 246.587L138.868 246.093L137.518 259.683L142.494 260.177ZM142.071 243.944C135.96 242.12 129.567 240.6 122.636 240.6V245.6C128.845 245.6 134.691 246.96 140.641 248.736L142.071 243.944ZM122.636 240.6C111.073 240.6 101.436 243.81 94.6627 249.969C87.8596 256.155 84.2258 265.062 84.2258 275.86H89.2258C89.2258 266.228 92.432 258.755 98.0264 253.668C103.65 248.555 111.968 245.6 122.636 245.6V240.6ZM84.2258 275.86C84.2258 287.268 88.5958 296.052 95.772 301.936C102.884 307.767 112.538 310.58 122.906 310.58V305.58C113.384 305.58 104.947 302.993 98.9422 298.069C93.0009 293.198 89.2258 285.872 89.2258 275.86H84.2258ZM122.906 310.58C129.352 310.58 134.964 309.827 142.074 307.98L140.817 303.14C134.068 304.893 128.879 305.58 122.906 305.58V310.58ZM143.941 305.406L143.131 292.266L138.141 292.574L138.951 305.714L143.941 305.406ZM166.645 307V309.5H169.145V307H166.645ZM166.645 244.18H169.145V241.68H166.645V244.18ZM149.905 244.18V241.68H147.405V244.18H149.905ZM149.905 307H147.405V309.5H149.905V307ZM169.145 307V244.18H164.145V307H169.145ZM166.645 241.68H149.905V246.68H166.645V241.68ZM147.405 244.18V307H152.405V244.18H147.405ZM149.905 309.5H166.645V304.5H149.905V309.5ZM179.154 244.18V241.68H176.654V244.18H179.154ZM179.154 307H176.654V309.5H179.154V307ZM195.894 294.58H193.394V297.08H195.894V294.58ZM195.894 256.6V254.1H193.394V256.6H195.894ZM202.104 309.5C214.47 309.5 224.415 306.831 231.299 301.038C238.261 295.178 241.684 286.468 241.684 275.32H236.684C236.684 285.412 233.627 292.542 228.079 297.212C222.452 301.949 213.858 304.5 202.104 304.5V309.5ZM241.684 275.32C241.684 264.361 238.768 255.744 231.975 249.95C225.271 244.233 215.261 241.68 202.014 241.68V246.68C214.776 246.68 223.352 249.167 228.73 253.755C234.019 258.266 236.684 265.219 236.684 275.32H241.684ZM202.014 241.68H179.154V246.68H202.014V241.68ZM176.654 244.18V307H181.654V244.18H176.654ZM179.154 309.5H202.104V304.5H179.154V309.5ZM198.394 294.58V256.6H193.394V294.58H198.394ZM195.894 259.1H202.374V254.1H195.894V259.1ZM202.374 259.1C208.196 259.1 212.373 260.666 215.09 263.3C217.795 265.922 219.404 269.944 219.404 275.59H224.404C224.404 268.996 222.503 263.523 218.57 259.71C214.65 255.909 209.061 254.1 202.374 254.1V259.1ZM219.404 275.59C219.404 281.457 217.73 285.467 215.03 288.031C212.308 290.615 208.173 292.08 202.554 292.08V297.08C208.995 297.08 214.535 295.395 218.472 291.657C222.432 287.898 224.404 282.413 224.404 275.59H219.404ZM202.554 292.08H195.894V297.08H202.554V292.08ZM329.362 307V309.5H332.911L331.716 306.158L329.362 307ZM322.702 288.37L325.056 287.528L325.055 287.524L322.702 288.37ZM314.332 276.04H311.832V277.963L313.691 278.456L314.332 276.04ZM314.332 275.86L313.77 273.424L311.832 273.871V275.86H314.332ZM276.262 244.18V241.68H273.762V244.18H276.262ZM276.262 307H273.762V309.5H276.262V307ZM293.002 307V309.5H295.502V307H293.002ZM293.002 282.16V279.66H290.502V282.16H293.002ZM307.942 294.58L305.557 295.33L305.56 295.339L307.942 294.58ZM311.902 307L309.52 307.759L310.075 309.5H311.902V307ZM293.002 270.28H290.502V272.78H293.002V270.28ZM293.002 256.06V253.56H290.502V256.06H293.002ZM331.716 306.158L325.056 287.528L320.348 289.212L327.008 307.842L331.716 306.158ZM325.055 287.524C323.658 283.638 322.572 280.545 321.225 278.337C319.729 275.887 317.838 274.384 314.973 273.624L313.691 278.456C315.236 278.866 316.091 279.523 316.957 280.943C317.972 282.605 318.867 285.092 320.35 289.216L325.055 287.524ZM316.832 276.04V275.86H311.832V276.04H316.832ZM314.894 278.296C319.458 277.243 323.035 275.076 325.443 271.824C327.834 268.595 328.892 264.541 328.892 260.02H323.892C323.892 263.779 323.016 266.7 321.425 268.848C319.85 270.974 317.397 272.587 313.77 273.424L314.894 278.296ZM328.892 260.02C328.892 254.297 326.612 249.583 322.41 246.368C318.292 243.217 312.562 241.68 305.872 241.68V246.68C311.872 246.68 316.403 248.068 319.372 250.339C322.258 252.547 323.892 255.753 323.892 260.02H328.892ZM305.872 241.68H276.262V246.68H305.872V241.68ZM273.762 244.18V307H278.762V244.18H273.762ZM276.262 309.5H293.002V304.5H276.262V309.5ZM295.502 307V282.16H290.502V307H295.502ZM293.002 284.66H296.242V279.66H293.002V284.66ZM296.242 284.66C298.765 284.66 299.99 284.969 301.085 286.003C302.387 287.232 303.811 289.776 305.557 295.33L310.327 293.83C308.564 288.224 306.837 284.558 304.517 282.367C301.99 279.981 299.119 279.66 296.242 279.66V284.66ZM305.56 295.339L309.52 307.759L314.284 306.241L310.324 293.821L305.56 295.339ZM311.902 309.5H329.362V304.5H311.902V309.5ZM295.502 270.28V256.06H290.502V270.28H295.502ZM293.002 258.56H297.322V253.56H293.002V258.56ZM297.322 258.56C301.158 258.56 303.734 258.997 305.282 259.792C306.003 260.162 306.429 260.574 306.691 261.005C306.954 261.436 307.152 262.052 307.152 262.99H312.152C312.152 261.318 311.789 259.763 310.963 258.405C310.136 257.047 308.947 256.053 307.565 255.343C304.906 253.978 301.317 253.56 297.322 253.56V258.56ZM307.152 262.99C307.152 264.182 306.913 264.946 306.618 265.455C306.328 265.952 305.893 266.365 305.226 266.711C303.769 267.468 301.471 267.78 298.312 267.78V272.78C301.543 272.78 304.915 272.507 307.531 271.149C308.901 270.437 310.102 269.41 310.941 267.967C311.773 266.535 312.152 264.858 312.152 262.99H307.152ZM298.312 267.78H293.002V272.78H298.312V267.78ZM381.562 307V309.5H384.062V307H381.562ZM381.562 295.12H384.062V292.62H381.562V295.12ZM353.032 295.12H350.532V297.62H353.032V295.12ZM353.032 280.9V278.4H350.532V280.9H353.032ZM379.042 280.9V283.4H381.542V280.9H379.042ZM379.042 269.02H381.542V266.52H379.042V269.02ZM353.032 269.02H350.532V271.52H353.032V269.02ZM353.032 256.06V253.56H350.532V256.06H353.032ZM380.572 256.06V258.56H383.072V256.06H380.572ZM380.572 244.18H383.072V241.68H380.572V244.18ZM336.292 244.18V241.68H333.792V244.18H336.292ZM336.292 307H333.792V309.5H336.292V307ZM384.062 307V295.12H379.062V307H384.062ZM381.562 292.62H353.032V297.62H381.562V292.62ZM355.532 295.12V280.9H350.532V295.12H355.532ZM353.032 283.4H379.042V278.4H353.032V283.4ZM381.542 280.9V269.02H376.542V280.9H381.542ZM379.042 266.52H353.032V271.52H379.042V266.52ZM355.532 269.02V256.06H350.532V269.02H355.532ZM353.032 258.56H380.572V253.56H353.032V258.56ZM383.072 256.06V244.18H378.072V256.06H383.072ZM380.572 241.68H336.292V246.68H380.572V241.68ZM333.792 244.18V307H338.792V244.18H333.792ZM336.292 309.5H381.562V304.5H336.292V309.5ZM408.051 307V309.5H410.551V307H408.051ZM408.051 281.71V279.21H405.551V281.71H408.051ZM432.261 281.71V284.21H434.761V281.71H432.261ZM432.261 269.83H434.761V267.33H432.261V269.83ZM408.051 269.83H405.551V272.33H408.051V269.83ZM408.051 256.06V253.56H405.551V256.06H408.051ZM433.341 256.06V258.56H435.841V256.06H433.341ZM433.341 244.18H435.841V241.68H433.341V244.18ZM391.311 244.18V241.68H388.811V244.18H391.311ZM391.311 307H388.811V309.5H391.311V307ZM410.551 307V281.71H405.551V307H410.551ZM408.051 284.21H432.261V279.21H408.051V284.21ZM434.761 281.71V269.83H429.761V281.71H434.761ZM432.261 267.33H408.051V272.33H432.261V267.33ZM410.551 269.83V256.06H405.551V269.83H410.551ZM408.051 258.56H433.341V253.56H408.051V258.56ZM435.841 256.06V244.18H430.841V256.06H435.841ZM433.341 241.68H391.311V246.68H433.341V241.68ZM388.811 244.18V307H393.811V244.18H388.811ZM391.311 309.5H408.051V304.5H391.311V309.5ZM484.431 307V309.5H486.931V307H484.431ZM484.431 294.58H486.931V292.08H484.431V294.58ZM458.511 294.58H456.011V297.08H458.511V294.58ZM458.511 244.18H461.011V241.68H458.511V244.18ZM441.771 244.18V241.68H439.271V244.18H441.771ZM441.771 307H439.271V309.5H441.771V307ZM486.931 307V294.58H481.931V307H486.931ZM484.431 292.08H458.511V297.08H484.431V292.08ZM461.011 294.58V244.18H456.011V294.58H461.011ZM458.511 241.68H441.771V246.68H458.511V241.68ZM439.271 244.18V307H444.271V244.18H439.271ZM441.771 309.5H484.431V304.5H441.771V309.5ZM507.621 244.18H510.121V241.68H507.621V244.18ZM490.881 244.18V241.68H488.381V244.18H490.881ZM545.961 244.18H548.461V241.68H545.961V244.18ZM529.221 244.18V241.68H526.721V244.18H529.221ZM526.721 280.63C526.721 285.399 525.848 288.54 524.489 290.434C523.24 292.176 521.365 293.16 518.421 293.16V298.16C522.677 298.16 526.202 296.624 528.552 293.349C530.793 290.225 531.721 285.851 531.721 280.63H526.721ZM518.421 293.16C515.44 293.16 513.572 292.16 512.332 290.396C510.976 288.469 510.121 285.278 510.121 280.45H505.121C505.121 285.702 506.021 290.116 508.242 293.274C510.579 296.595 514.111 298.16 518.421 298.16V293.16ZM510.121 280.45V244.18H505.121V280.45H510.121ZM507.621 241.68H490.881V246.68H507.621V241.68ZM488.381 244.18V283.33H493.381V244.18H488.381ZM488.381 283.33C488.381 291.595 490.943 298.519 496.211 303.352C501.447 308.157 509.016 310.58 518.421 310.58V305.58C509.825 305.58 503.624 303.368 499.591 299.668C495.588 295.996 493.381 290.545 493.381 283.33H488.381ZM518.421 310.58C527.681 310.58 535.245 308.229 540.516 303.466C545.825 298.669 548.461 291.739 548.461 283.33H543.461C543.461 290.671 541.192 296.116 537.163 299.756C533.097 303.431 526.89 305.58 518.421 305.58V310.58ZM548.461 283.33V244.18H543.461V283.33H548.461ZM545.961 241.68H529.221V246.68H545.961V241.68ZM526.721 244.18V280.63H531.721V244.18H526.721ZM614.962 307V309.5H619.417L617.096 305.698L614.962 307ZM594.802 273.97L592.674 272.658L591.869 273.964L592.668 275.272L594.802 273.97ZM613.162 244.18L615.29 245.492L617.639 241.68H613.162V244.18ZM594.802 244.18V241.68H593.286L592.585 243.024L594.802 244.18ZM584.002 264.88L581.774 266.014L583.974 270.339L586.218 266.036L584.002 264.88ZM573.472 244.18L575.7 243.046L575.005 241.68H573.472V244.18ZM553.942 244.18V241.68H549.487L551.808 245.482L553.942 244.18ZM572.122 273.97L574.251 275.281L575.054 273.976L574.256 272.668L572.122 273.97ZM551.782 307L549.653 305.689L547.306 309.5H551.782V307ZM570.772 307V309.5H572.288L572.989 308.156L570.772 307ZM582.832 283.87L585.045 282.707L582.824 278.478L580.615 282.714L582.832 283.87ZM594.982 307L592.769 308.163L593.471 309.5H594.982V307ZM617.096 305.698L596.936 272.668L592.668 275.272L612.828 308.302L617.096 305.698ZM596.93 275.282L615.29 245.492L611.034 242.868L592.674 272.658L596.93 275.282ZM613.162 241.68H594.802V246.68H613.162V241.68ZM592.585 243.024L581.785 263.724L586.218 266.036L597.018 245.336L592.585 243.024ZM586.23 263.746L575.7 243.046L571.244 245.314L581.774 266.014L586.23 263.746ZM573.472 241.68H553.942V246.68H573.472V241.68ZM551.808 245.482L569.988 275.272L574.256 272.668L556.076 242.878L551.808 245.482ZM569.993 272.659L549.653 305.689L553.911 308.311L574.251 275.281L569.993 272.659ZM551.782 309.5H570.772V304.5H551.782V309.5ZM572.989 308.156L585.049 285.026L580.615 282.714L568.555 305.844L572.989 308.156ZM580.619 285.033L592.769 308.163L597.195 305.837L585.045 282.707L580.619 285.033ZM594.982 309.5H614.962V304.5H594.982V309.5Z" fill="#00D7D7"/>
</g>
<path d="M127.467 212V214.5H131.11L129.8 211.101L127.467 212ZM103.257 149.18L105.59 148.281L104.973 146.68H103.257V149.18ZM82.737 149.18V146.68H81.012L80.3998 148.293L82.737 149.18ZM58.887 212L56.5498 211.113L55.2637 214.5H58.887V212ZM75.897 212V214.5H77.6391L78.2423 212.866L75.897 212ZM80.847 198.59V196.09H79.1049L78.5017 197.724L80.847 198.59ZM104.427 198.59L106.787 197.766L106.202 196.09H104.427V198.59ZM109.107 212L106.747 212.824L107.332 214.5H109.107V212ZM100.467 186.71V189.21H103.84L102.859 185.983L100.467 186.71ZM84.717 186.71L82.3427 185.927L81.2605 189.21H84.717V186.71ZM92.817 162.14V159.64H91.0088L90.4427 161.357L92.817 162.14ZM92.997 162.14L95.3889 161.413L94.8499 159.64H92.997V162.14ZM129.8 211.101L105.59 148.281L100.924 150.079L125.134 212.899L129.8 211.101ZM103.257 146.68H82.737V151.68H103.257V146.68ZM80.3998 148.293L56.5498 211.113L61.2242 212.887L85.0742 150.067L80.3998 148.293ZM58.887 214.5H75.897V209.5H58.887V214.5ZM78.2423 212.866L83.1923 199.456L78.5017 197.724L73.5517 211.134L78.2423 212.866ZM80.847 201.09H104.427V196.09H80.847V201.09ZM102.067 199.414L106.747 212.824L111.467 211.176L106.787 197.766L102.067 199.414ZM109.107 214.5H127.467V209.5H109.107V214.5ZM100.467 184.21H84.717V189.21H100.467V184.21ZM87.0913 187.493L95.1913 162.923L90.4427 161.357L82.3427 185.927L87.0913 187.493ZM92.817 164.64H92.997V159.64H92.817V164.64ZM90.6051 162.867L98.0751 187.437L102.859 185.983L95.3889 161.413L90.6051 162.867ZM176.726 212V214.5H179.226V212H176.726ZM176.726 199.58H179.226V197.08H176.726V199.58ZM150.806 199.58H148.306V202.08H150.806V199.58ZM150.806 149.18H153.306V146.68H150.806V149.18ZM134.066 149.18V146.68H131.566V149.18H134.066ZM134.066 212H131.566V214.5H134.066V212ZM179.226 212V199.58H174.226V212H179.226ZM176.726 197.08H150.806V202.08H176.726V197.08ZM153.306 199.58V149.18H148.306V199.58H153.306ZM150.806 146.68H134.066V151.68H150.806V146.68ZM131.566 149.18V212H136.566V149.18H131.566ZM134.066 214.5H176.726V209.5H134.066V214.5ZM226.736 212V214.5H229.236V212H226.736ZM226.736 199.58H229.236V197.08H226.736V199.58ZM200.816 199.58H198.316V202.08H200.816V199.58ZM200.816 149.18H203.316V146.68H200.816V149.18ZM184.076 149.18V146.68H181.576V149.18H184.076ZM184.076 212H181.576V214.5H184.076V212ZM229.236 212V199.58H224.236V212H229.236ZM226.736 197.08H200.816V202.08H226.736V197.08ZM203.316 199.58V149.18H198.316V199.58H203.316ZM200.816 146.68H184.076V151.68H200.816V146.68ZM181.576 149.18V212H186.576V149.18H181.576ZM184.076 214.5H226.736V209.5H184.076V214.5ZM325.045 212V214.5H328.688L327.378 211.101L325.045 212ZM300.835 149.18L303.168 148.281L302.551 146.68H300.835V149.18ZM280.315 149.18V146.68H278.59L277.978 148.293L280.315 149.18ZM256.465 212L254.128 211.113L252.842 214.5H256.465V212ZM273.475 212V214.5H275.217L275.82 212.866L273.475 212ZM278.425 198.59V196.09H276.683L276.08 197.724L278.425 198.59ZM302.005 198.59L304.366 197.766L303.781 196.09H302.005V198.59ZM306.685 212L304.325 212.824L304.91 214.5H306.685V212ZM298.045 186.71V189.21H301.418L300.437 185.983L298.045 186.71ZM282.295 186.71L279.921 185.927L278.839 189.21H282.295V186.71ZM290.395 162.14V159.64H288.587L288.021 161.357L290.395 162.14ZM290.575 162.14L292.967 161.413L292.428 159.64H290.575V162.14ZM327.378 211.101L303.168 148.281L298.502 150.079L322.712 212.899L327.378 211.101ZM300.835 146.68H280.315V151.68H300.835V146.68ZM277.978 148.293L254.128 211.113L258.802 212.887L282.652 150.067L277.978 148.293ZM256.465 214.5H273.475V209.5H256.465V214.5ZM275.82 212.866L280.77 199.456L276.08 197.724L271.13 211.134L275.82 212.866ZM278.425 201.09H302.005V196.09H278.425V201.09ZM299.645 199.414L304.325 212.824L309.046 211.176L304.366 197.766L299.645 199.414ZM306.685 214.5H325.045V209.5H306.685V214.5ZM298.045 184.21H282.295V189.21H298.045V184.21ZM284.669 187.493L292.769 162.923L288.021 161.357L279.921 185.927L284.669 187.493ZM290.395 164.64H290.575V159.64H290.395V164.64ZM288.183 162.867L295.653 187.437L300.437 185.983L292.967 161.413L288.183 162.867ZM369.444 179.96H366.944V182.001L368.944 182.409L369.444 179.96ZM369.444 179.78L368.672 177.402L366.944 177.963V179.78H369.444ZM331.194 149.18V146.68H328.694V149.18H331.194ZM331.194 212H328.694V214.5H331.194V212ZM347.934 174.02H345.434V176.52H347.934V174.02ZM347.934 161.06V158.56H345.434V161.06H347.934ZM347.934 200.12H345.434V202.62H347.934V200.12ZM347.934 185.36V182.86H345.434V185.36H347.934ZM357.654 214.5C365.404 214.5 372.119 213.097 376.961 209.719C381.954 206.236 384.634 200.877 384.634 193.82H379.634C379.634 199.453 377.589 203.184 374.1 205.618C370.459 208.158 364.934 209.5 357.654 209.5V214.5ZM384.634 193.82C384.634 189.498 383.399 185.81 380.762 182.963C378.164 180.159 374.443 178.43 369.944 177.511L368.944 182.409C372.815 183.2 375.439 184.576 377.094 186.362C378.709 188.105 379.634 190.492 379.634 193.82H384.634ZM371.944 179.96V179.78H366.944V179.96H371.944ZM370.216 182.158C373.997 180.93 377.243 179.016 379.536 176.125C381.85 173.209 383.014 169.527 383.014 165.11H378.014C378.014 168.613 377.108 171.141 375.619 173.017C374.11 174.919 371.821 176.38 368.672 177.402L370.216 182.158ZM383.014 165.11C383.014 159.319 380.772 154.572 376.554 151.346C372.427 148.188 366.668 146.68 359.904 146.68V151.68C366.01 151.68 370.556 153.052 373.516 155.317C376.386 157.513 378.014 160.731 378.014 165.11H383.014ZM359.904 146.68H331.194V151.68H359.904V146.68ZM328.694 149.18V212H333.694V149.18H328.694ZM331.194 214.5H357.654V209.5H331.194V214.5ZM350.434 174.02V161.06H345.434V174.02H350.434ZM347.934 163.56H352.614V158.56H347.934V163.56ZM352.614 163.56C355.508 163.56 357.817 163.699 359.381 164.333C360.096 164.623 360.518 164.966 360.777 165.338C361.031 165.702 361.274 166.299 361.274 167.36H366.274C366.274 165.496 365.831 163.843 364.878 162.477C363.931 161.119 362.625 160.253 361.259 159.699C358.66 158.646 355.39 158.56 352.614 158.56V163.56ZM361.274 167.36C361.274 168.21 361.062 168.774 360.779 169.186C360.482 169.618 360 170.034 359.249 170.399C357.68 171.163 355.323 171.52 352.524 171.52V176.52C355.575 176.52 358.843 176.157 361.436 174.896C362.766 174.249 364.001 173.325 364.899 172.019C365.81 170.694 366.274 169.12 366.274 167.36H361.274ZM352.524 171.52H347.934V176.52H352.524V171.52ZM350.434 200.12V185.36H345.434V200.12H350.434ZM347.934 187.86H353.244V182.86H347.934V187.86ZM353.244 187.86C356.789 187.86 359.299 188.235 360.864 189.051C361.588 189.428 362.05 189.87 362.352 190.384C362.658 190.906 362.894 191.668 362.894 192.83H367.894C367.894 190.977 367.512 189.298 366.664 187.854C365.812 186.401 364.588 185.353 363.174 184.617C360.464 183.205 356.899 182.86 353.244 182.86V187.86ZM362.894 192.83C362.894 194.048 362.644 195.003 361.763 195.759C360.766 196.614 358.499 197.62 353.424 197.62V202.62C358.969 202.62 362.686 201.556 365.019 199.553C367.469 197.452 367.894 194.762 367.894 192.83H362.894ZM353.424 197.62H347.934V202.62H353.424V197.62ZM420.833 215.58C431.368 215.58 439.96 212.427 445.908 206.267C451.844 200.119 454.833 191.302 454.833 180.59H449.833C449.833 190.398 447.108 197.826 442.311 202.793C437.527 207.748 430.368 210.58 420.833 210.58V215.58ZM454.833 180.59C454.833 169.84 451.87 161.02 445.942 154.88C440.001 148.726 431.406 145.6 420.833 145.6V150.6C430.421 150.6 437.576 153.414 442.345 158.353C447.126 163.305 449.833 170.73 449.833 180.59H454.833ZM420.833 145.6C410.261 145.6 401.666 148.726 395.725 154.88C389.796 161.02 386.833 169.84 386.833 180.59H391.833C391.833 170.73 394.54 163.305 399.322 158.353C404.091 153.414 411.246 150.6 420.833 150.6V145.6ZM386.833 180.59C386.833 191.312 389.873 200.127 395.83 206.27C401.796 212.424 410.383 215.58 420.833 215.58V210.58C411.394 210.58 404.23 207.751 399.419 202.79C394.598 197.818 391.833 190.388 391.833 180.59H386.833ZM420.923 198.16C416.987 198.16 414.176 196.455 412.242 193.532C410.232 190.493 409.113 186.016 409.113 180.59H404.113C404.113 186.594 405.335 192.152 408.072 196.29C410.886 200.545 415.229 203.16 420.923 203.16V198.16ZM409.113 180.59C409.113 174.537 410.366 170.097 412.388 167.241C414.333 164.496 417.114 163.02 420.833 163.02V158.02C415.552 158.02 411.224 160.234 408.308 164.351C405.471 168.358 404.113 173.953 404.113 180.59H409.113ZM420.833 163.02C424.623 163.02 427.403 164.546 429.333 167.324C431.343 170.218 432.553 174.666 432.553 180.59H437.553C437.553 174.094 436.243 168.507 433.439 164.471C430.554 160.319 426.224 158.02 420.833 158.02V163.02ZM432.553 180.59C432.553 186.174 431.353 190.648 429.326 193.646C427.366 196.545 424.587 198.16 420.923 198.16V203.16C426.349 203.16 430.636 200.635 433.468 196.447C436.233 192.357 437.553 186.796 437.553 180.59H432.553ZM477.562 149.18H480.062V146.68H477.562V149.18ZM460.822 149.18V146.68H458.322V149.18H460.822ZM515.902 149.18H518.402V146.68H515.902V149.18ZM499.162 149.18V146.68H496.662V149.18H499.162ZM496.662 185.63C496.662 190.399 495.789 193.54 494.431 195.434C493.181 197.175 491.306 198.16 488.362 198.16V203.16C492.618 203.16 496.143 201.624 498.493 198.349C500.735 195.225 501.662 190.851 501.662 185.63H496.662ZM488.362 198.16C485.382 198.16 483.514 197.16 482.273 195.396C480.917 193.469 480.062 190.278 480.062 185.45H475.062C475.062 190.702 475.962 195.116 478.184 198.274C480.52 201.595 484.053 203.16 488.362 203.16V198.16ZM480.062 185.45V149.18H475.062V185.45H480.062ZM477.562 146.68H460.822V151.68H477.562V146.68ZM458.322 149.18V188.33H463.322V149.18H458.322ZM458.322 188.33C458.322 196.595 460.884 203.519 466.152 208.352C471.389 213.157 478.957 215.58 488.362 215.58V210.58C479.767 210.58 473.566 208.368 469.532 204.668C465.53 200.996 463.322 195.545 463.322 188.33H458.322ZM488.362 215.58C497.622 215.58 505.186 213.229 510.457 208.466C515.766 203.669 518.402 196.739 518.402 188.33H513.402C513.402 195.671 511.133 201.116 507.105 204.756C503.038 208.431 496.832 210.58 488.362 210.58V215.58ZM518.402 188.33V149.18H513.402V188.33H518.402ZM515.902 146.68H499.162V151.68H515.902V146.68ZM496.662 149.18V185.63H501.662V149.18H496.662ZM554.213 212V214.5H556.713V212H554.213ZM554.213 161.6V159.1H551.713V161.6H554.213ZM569.693 161.6V164.1H572.193V161.6H569.693ZM569.693 149.18H572.193V146.68H569.693V149.18ZM521.993 149.18V146.68H519.493V149.18H521.993ZM521.993 161.6H519.493V164.1H521.993V161.6ZM537.473 161.6H539.973V159.1H537.473V161.6ZM537.473 212H534.973V214.5H537.473V212ZM556.713 212V161.6H551.713V212H556.713ZM554.213 164.1H569.693V159.1H554.213V164.1ZM572.193 161.6V149.18H567.193V161.6H572.193ZM569.693 146.68H521.993V151.68H569.693V146.68ZM519.493 149.18V161.6H524.493V149.18H519.493ZM521.993 164.1H537.473V159.1H521.993V164.1ZM534.973 161.6V212H539.973V161.6H534.973ZM537.473 214.5H554.213V209.5H537.473V214.5ZM82.467 307V309.5H86.1097L84.7998 306.101L82.467 307ZM58.257 244.18L60.5898 243.281L59.9728 241.68H58.257V244.18ZM37.737 244.18V241.68H36.012L35.3998 243.293L37.737 244.18ZM13.887 307L11.5498 306.113L10.2637 309.5H13.887V307ZM30.897 307V309.5H32.6391L33.2423 307.866L30.897 307ZM35.847 293.59V291.09H34.1049L33.5017 292.724L35.847 293.59ZM59.427 293.59L61.7874 292.766L61.2024 291.09H59.427V293.59ZM64.107 307L61.7466 307.824L62.3316 309.5H64.107V307ZM55.467 281.71V284.21H58.8401L57.8589 280.983L55.467 281.71ZM39.717 281.71L37.3427 280.927L36.2605 284.21H39.717V281.71ZM47.817 257.14V254.64H46.0088L45.4427 256.357L47.817 257.14ZM47.997 257.14L50.3889 256.413L49.8499 254.64H47.997V257.14ZM84.7998 306.101L60.5898 243.281L55.9242 245.079L80.1342 307.899L84.7998 306.101ZM58.257 241.68H37.737V246.68H58.257V241.68ZM35.3998 243.293L11.5498 306.113L16.2242 307.887L40.0742 245.067L35.3998 243.293ZM13.887 309.5H30.897V304.5H13.887V309.5ZM33.2423 307.866L38.1923 294.456L33.5017 292.724L28.5517 306.134L33.2423 307.866ZM35.847 296.09H59.427V291.09H35.847V296.09ZM57.0666 294.414L61.7466 307.824L66.4674 306.176L61.7874 292.766L57.0666 294.414ZM64.107 309.5H82.467V304.5H64.107V309.5ZM55.467 279.21H39.717V284.21H55.467V279.21ZM42.0913 282.493L50.1913 257.923L45.4427 256.357L37.3427 280.927L42.0913 282.493ZM47.817 259.64H47.997V254.64H47.817V259.64ZM45.6051 257.867L53.0751 282.437L57.8589 280.983L50.3889 256.413L45.6051 257.867ZM140.636 292.42L143.131 292.266L142.92 288.839L139.723 290.093L140.636 292.42ZM140.006 259.93L138.801 262.121L142.119 263.946L142.494 260.177L140.006 259.93ZM141.356 246.34L143.844 246.587L144.047 244.534L142.071 243.944L141.356 246.34ZM141.446 305.56L142.074 307.98L144.068 307.462L143.941 305.406L141.446 305.56ZM139.723 290.093C135.325 291.817 129.972 293.16 124.976 293.16V298.16C130.779 298.16 136.767 296.623 141.549 294.747L139.723 290.093ZM124.976 293.16C119.112 293.16 114.526 291.331 111.424 288.372C108.331 285.423 106.506 281.156 106.506 275.86H101.506C101.506 282.354 103.775 287.987 107.973 291.99C112.161 295.984 118.06 298.16 124.976 298.16V293.16ZM106.506 275.86C106.506 270.433 108.293 265.998 111.241 262.935C114.18 259.881 118.435 258.02 123.716 258.02V253.02C117.206 253.02 111.607 255.344 107.638 259.468C103.678 263.582 101.506 269.317 101.506 275.86H106.506ZM123.716 258.02C128.917 258.02 133.726 259.329 138.801 262.121L141.211 257.739C135.485 254.591 129.854 253.02 123.716 253.02V258.02ZM142.494 260.177L143.844 246.587L138.868 246.093L137.518 259.683L142.494 260.177ZM142.071 243.944C135.96 242.12 129.567 240.6 122.636 240.6V245.6C128.845 245.6 134.691 246.96 140.641 248.736L142.071 243.944ZM122.636 240.6C111.073 240.6 101.436 243.81 94.6627 249.969C87.8596 256.155 84.2258 265.062 84.2258 275.86H89.2258C89.2258 266.228 92.432 258.755 98.0264 253.668C103.65 248.555 111.968 245.6 122.636 245.6V240.6ZM84.2258 275.86C84.2258 287.268 88.5958 296.052 95.772 301.936C102.884 307.767 112.538 310.58 122.906 310.58V305.58C113.384 305.58 104.947 302.993 98.9422 298.069C93.0009 293.198 89.2258 285.872 89.2258 275.86H84.2258ZM122.906 310.58C129.352 310.58 134.964 309.827 142.074 307.98L140.817 303.14C134.068 304.893 128.879 305.58 122.906 305.58V310.58ZM143.941 305.406L143.131 292.266L138.141 292.574L138.951 305.714L143.941 305.406ZM166.645 307V309.5H169.145V307H166.645ZM166.645 244.18H169.145V241.68H166.645V244.18ZM149.905 244.18V241.68H147.405V244.18H149.905ZM149.905 307H147.405V309.5H149.905V307ZM169.145 307V244.18H164.145V307H169.145ZM166.645 241.68H149.905V246.68H166.645V241.68ZM147.405 244.18V307H152.405V244.18H147.405ZM149.905 309.5H166.645V304.5H149.905V309.5ZM179.154 244.18V241.68H176.654V244.18H179.154ZM179.154 307H176.654V309.5H179.154V307ZM195.894 294.58H193.394V297.08H195.894V294.58ZM195.894 256.6V254.1H193.394V256.6H195.894ZM202.104 309.5C214.47 309.5 224.415 306.831 231.299 301.038C238.261 295.178 241.684 286.468 241.684 275.32H236.684C236.684 285.412 233.627 292.542 228.079 297.212C222.452 301.949 213.858 304.5 202.104 304.5V309.5ZM241.684 275.32C241.684 264.361 238.768 255.744 231.975 249.95C225.271 244.233 215.261 241.68 202.014 241.68V246.68C214.776 246.68 223.352 249.167 228.73 253.755C234.019 258.266 236.684 265.219 236.684 275.32H241.684ZM202.014 241.68H179.154V246.68H202.014V241.68ZM176.654 244.18V307H181.654V244.18H176.654ZM179.154 309.5H202.104V304.5H179.154V309.5ZM198.394 294.58V256.6H193.394V294.58H198.394ZM195.894 259.1H202.374V254.1H195.894V259.1ZM202.374 259.1C208.196 259.1 212.373 260.666 215.09 263.3C217.795 265.922 219.404 269.944 219.404 275.59H224.404C224.404 268.996 222.503 263.523 218.57 259.71C214.65 255.909 209.061 254.1 202.374 254.1V259.1ZM219.404 275.59C219.404 281.457 217.73 285.467 215.03 288.031C212.308 290.615 208.173 292.08 202.554 292.08V297.08C208.995 297.08 214.535 295.395 218.472 291.657C222.432 287.898 224.404 282.413 224.404 275.59H219.404ZM202.554 292.08H195.894V297.08H202.554V292.08ZM329.362 307V309.5H332.911L331.716 306.158L329.362 307ZM322.702 288.37L325.056 287.528L325.055 287.524L322.702 288.37ZM314.332 276.04H311.832V277.963L313.691 278.456L314.332 276.04ZM314.332 275.86L313.77 273.424L311.832 273.871V275.86H314.332ZM276.262 244.18V241.68H273.762V244.18H276.262ZM276.262 307H273.762V309.5H276.262V307ZM293.002 307V309.5H295.502V307H293.002ZM293.002 282.16V279.66H290.502V282.16H293.002ZM307.942 294.58L305.557 295.33L305.56 295.339L307.942 294.58ZM311.902 307L309.52 307.759L310.075 309.5H311.902V307ZM293.002 270.28H290.502V272.78H293.002V270.28ZM293.002 256.06V253.56H290.502V256.06H293.002ZM331.716 306.158L325.056 287.528L320.348 289.212L327.008 307.842L331.716 306.158ZM325.055 287.524C323.658 283.638 322.572 280.545 321.225 278.337C319.729 275.887 317.838 274.384 314.973 273.624L313.691 278.456C315.236 278.866 316.091 279.523 316.957 280.943C317.972 282.605 318.867 285.092 320.35 289.216L325.055 287.524ZM316.832 276.04V275.86H311.832V276.04H316.832ZM314.894 278.296C319.458 277.243 323.035 275.076 325.443 271.824C327.834 268.595 328.892 264.541 328.892 260.02H323.892C323.892 263.779 323.016 266.7 321.425 268.848C319.85 270.974 317.397 272.587 313.77 273.424L314.894 278.296ZM328.892 260.02C328.892 254.297 326.612 249.583 322.41 246.368C318.292 243.217 312.562 241.68 305.872 241.68V246.68C311.872 246.68 316.403 248.068 319.372 250.339C322.258 252.547 323.892 255.753 323.892 260.02H328.892ZM305.872 241.68H276.262V246.68H305.872V241.68ZM273.762 244.18V307H278.762V244.18H273.762ZM276.262 309.5H293.002V304.5H276.262V309.5ZM295.502 307V282.16H290.502V307H295.502ZM293.002 284.66H296.242V279.66H293.002V284.66ZM296.242 284.66C298.765 284.66 299.99 284.969 301.085 286.003C302.387 287.232 303.811 289.776 305.557 295.33L310.327 293.83C308.564 288.224 306.837 284.558 304.517 282.367C301.99 279.981 299.119 279.66 296.242 279.66V284.66ZM305.56 295.339L309.52 307.759L314.284 306.241L310.324 293.821L305.56 295.339ZM311.902 309.5H329.362V304.5H311.902V309.5ZM295.502 270.28V256.06H290.502V270.28H295.502ZM293.002 258.56H297.322V253.56H293.002V258.56ZM297.322 258.56C301.158 258.56 303.734 258.997 305.282 259.792C306.003 260.162 306.429 260.574 306.691 261.005C306.954 261.436 307.152 262.052 307.152 262.99H312.152C312.152 261.318 311.789 259.763 310.963 258.405C310.136 257.047 308.947 256.053 307.565 255.343C304.906 253.978 301.317 253.56 297.322 253.56V258.56ZM307.152 262.99C307.152 264.182 306.913 264.946 306.618 265.455C306.328 265.952 305.893 266.365 305.226 266.711C303.769 267.468 301.471 267.78 298.312 267.78V272.78C301.543 272.78 304.915 272.507 307.531 271.149C308.901 270.437 310.102 269.41 310.941 267.967C311.773 266.535 312.152 264.858 312.152 262.99H307.152ZM298.312 267.78H293.002V272.78H298.312V267.78ZM381.562 307V309.5H384.062V307H381.562ZM381.562 295.12H384.062V292.62H381.562V295.12ZM353.032 295.12H350.532V297.62H353.032V295.12ZM353.032 280.9V278.4H350.532V280.9H353.032ZM379.042 280.9V283.4H381.542V280.9H379.042ZM379.042 269.02H381.542V266.52H379.042V269.02ZM353.032 269.02H350.532V271.52H353.032V269.02ZM353.032 256.06V253.56H350.532V256.06H353.032ZM380.572 256.06V258.56H383.072V256.06H380.572ZM380.572 244.18H383.072V241.68H380.572V244.18ZM336.292 244.18V241.68H333.792V244.18H336.292ZM336.292 307H333.792V309.5H336.292V307ZM384.062 307V295.12H379.062V307H384.062ZM381.562 292.62H353.032V297.62H381.562V292.62ZM355.532 295.12V280.9H350.532V295.12H355.532ZM353.032 283.4H379.042V278.4H353.032V283.4ZM381.542 280.9V269.02H376.542V280.9H381.542ZM379.042 266.52H353.032V271.52H379.042V266.52ZM355.532 269.02V256.06H350.532V269.02H355.532ZM353.032 258.56H380.572V253.56H353.032V258.56ZM383.072 256.06V244.18H378.072V256.06H383.072ZM380.572 241.68H336.292V246.68H380.572V241.68ZM333.792 244.18V307H338.792V244.18H333.792ZM336.292 309.5H381.562V304.5H336.292V309.5ZM408.051 307V309.5H410.551V307H408.051ZM408.051 281.71V279.21H405.551V281.71H408.051ZM432.261 281.71V284.21H434.761V281.71H432.261ZM432.261 269.83H434.761V267.33H432.261V269.83ZM408.051 269.83H405.551V272.33H408.051V269.83ZM408.051 256.06V253.56H405.551V256.06H408.051ZM433.341 256.06V258.56H435.841V256.06H433.341ZM433.341 244.18H435.841V241.68H433.341V244.18ZM391.311 244.18V241.68H388.811V244.18H391.311ZM391.311 307H388.811V309.5H391.311V307ZM410.551 307V281.71H405.551V307H410.551ZM408.051 284.21H432.261V279.21H408.051V284.21ZM434.761 281.71V269.83H429.761V281.71H434.761ZM432.261 267.33H408.051V272.33H432.261V267.33ZM410.551 269.83V256.06H405.551V269.83H410.551ZM408.051 258.56H433.341V253.56H408.051V258.56ZM435.841 256.06V244.18H430.841V256.06H435.841ZM433.341 241.68H391.311V246.68H433.341V241.68ZM388.811 244.18V307H393.811V244.18H388.811ZM391.311 309.5H408.051V304.5H391.311V309.5ZM484.431 307V309.5H486.931V307H484.431ZM484.431 294.58H486.931V292.08H484.431V294.58ZM458.511 294.58H456.011V297.08H458.511V294.58ZM458.511 244.18H461.011V241.68H458.511V244.18ZM441.771 244.18V241.68H439.271V244.18H441.771ZM441.771 307H439.271V309.5H441.771V307ZM486.931 307V294.58H481.931V307H486.931ZM484.431 292.08H458.511V297.08H484.431V292.08ZM461.011 294.58V244.18H456.011V294.58H461.011ZM458.511 241.68H441.771V246.68H458.511V241.68ZM439.271 244.18V307H444.271V244.18H439.271ZM441.771 309.5H484.431V304.5H441.771V309.5ZM507.621 244.18H510.121V241.68H507.621V244.18ZM490.881 244.18V241.68H488.381V244.18H490.881ZM545.961 244.18H548.461V241.68H545.961V244.18ZM529.221 244.18V241.68H526.721V244.18H529.221ZM526.721 280.63C526.721 285.399 525.848 288.54 524.489 290.434C523.24 292.176 521.365 293.16 518.421 293.16V298.16C522.677 298.16 526.202 296.624 528.552 293.349C530.793 290.225 531.721 285.851 531.721 280.63H526.721ZM518.421 293.16C515.44 293.16 513.572 292.16 512.332 290.396C510.976 288.469 510.121 285.278 510.121 280.45H505.121C505.121 285.702 506.021 290.116 508.242 293.274C510.579 296.595 514.111 298.16 518.421 298.16V293.16ZM510.121 280.45V244.18H505.121V280.45H510.121ZM507.621 241.68H490.881V246.68H507.621V241.68ZM488.381 244.18V283.33H493.381V244.18H488.381ZM488.381 283.33C488.381 291.595 490.943 298.519 496.211 303.352C501.447 308.157 509.016 310.58 518.421 310.58V305.58C509.825 305.58 503.624 303.368 499.591 299.668C495.588 295.996 493.381 290.545 493.381 283.33H488.381ZM518.421 310.58C527.681 310.58 535.245 308.229 540.516 303.466C545.825 298.669 548.461 291.739 548.461 283.33H543.461C543.461 290.671 541.192 296.116 537.163 299.756C533.097 303.431 526.89 305.58 518.421 305.58V310.58ZM548.461 283.33V244.18H543.461V283.33H548.461ZM545.961 241.68H529.221V246.68H545.961V241.68ZM526.721 244.18V280.63H531.721V244.18H526.721ZM614.962 307V309.5H619.417L617.096 305.698L614.962 307ZM594.802 273.97L592.674 272.658L591.869 273.964L592.668 275.272L594.802 273.97ZM613.162 244.18L615.29 245.492L617.639 241.68H613.162V244.18ZM594.802 244.18V241.68H593.286L592.585 243.024L594.802 244.18ZM584.002 264.88L581.774 266.014L583.974 270.339L586.218 266.036L584.002 264.88ZM573.472 244.18L575.7 243.046L575.005 241.68H573.472V244.18ZM553.942 244.18V241.68H549.487L551.808 245.482L553.942 244.18ZM572.122 273.97L574.251 275.281L575.054 273.976L574.256 272.668L572.122 273.97ZM551.782 307L549.653 305.689L547.306 309.5H551.782V307ZM570.772 307V309.5H572.288L572.989 308.156L570.772 307ZM582.832 283.87L585.045 282.707L582.824 278.478L580.615 282.714L582.832 283.87ZM594.982 307L592.769 308.163L593.471 309.5H594.982V307ZM617.096 305.698L596.936 272.668L592.668 275.272L612.828 308.302L617.096 305.698ZM596.93 275.282L615.29 245.492L611.034 242.868L592.674 272.658L596.93 275.282ZM613.162 241.68H594.802V246.68H613.162V241.68ZM592.585 243.024L581.785 263.724L586.218 266.036L597.018 245.336L592.585 243.024ZM586.23 263.746L575.7 243.046L571.244 245.314L581.774 266.014L586.23 263.746ZM573.472 241.68H553.942V246.68H573.472V241.68ZM551.808 245.482L569.988 275.272L574.256 272.668L556.076 242.878L551.808 245.482ZM569.993 272.659L549.653 305.689L553.911 308.311L574.251 275.281L569.993 272.659ZM551.782 309.5H570.772V304.5H551.782V309.5ZM572.989 308.156L585.049 285.026L580.615 282.714L568.555 305.844L572.989 308.156ZM580.619 285.033L592.769 308.163L597.195 305.837L585.045 282.707L580.619 285.033ZM594.982 309.5H614.962V304.5H594.982V309.5Z" fill="#80F0F0"/>
<g filter="url(#filter1_f)">
<path d="M335.579 53.8292C335.311 53.2931 334.75 52.9681 334.151 53.0025C333.553 53.0369 333.032 53.4241 332.828 53.9874C331.431 57.8274 328.221 60.1032 324.946 60.1147C326.491 58.2892 327.52 56.0112 328.115 53.6841C328.977 50.3098 328.982 46.6331 328.188 43.6183C325.957 35.141 320.152 29.6231 312.966 28.5174C312.441 28.4367 311.912 28.6395 311.576 29.0508C311.24 29.462 311.146 30.0203 311.33 30.5186C313.017 35.096 313.438 39.0845 312.977 42.0844C312.546 44.8843 311.391 46.6455 309.962 47.4587C307.988 47.1798 307.05 46.2709 306.516 45.2041C305.874 43.9196 305.737 42.2334 305.737 40.5C305.737 39.9271 305.411 39.4042 304.896 39.1525C304.381 38.9008 303.768 38.9643 303.316 39.316C298.672 42.9282 294.476 47.1517 291.817 55.0196C286.155 71.7668 299.644 86.8448 314.197 86.4996C320.341 86.3538 325.067 84.7437 328.611 82.2017C332.152 79.6619 334.416 76.2618 335.757 72.6928C337.094 69.1337 337.521 65.3878 337.391 62.0811C337.262 58.796 336.577 55.8247 335.579 53.8292Z" stroke="#80F0F0" stroke-width="3" stroke-linejoin="round"/>
</g>
<g filter="url(#filter2_f)">
<circle cx="314" cy="58" r="48" stroke="#FF7BF9" stroke-width="4"/>
</g>
<circle cx="314" cy="58" r="48" stroke="#FF7BF9" stroke-width="4"/>
<path d="M335.579 53.8292C335.311 53.2931 334.75 52.9681 334.151 53.0025C333.553 53.0369 333.032 53.4241 332.828 53.9874C331.431 57.8274 328.221 60.1032 324.946 60.1147C326.491 58.2892 327.52 56.0112 328.115 53.6841C328.977 50.3098 328.982 46.6331 328.188 43.6183C325.957 35.141 320.152 29.6231 312.966 28.5174C312.441 28.4367 311.912 28.6395 311.576 29.0508C311.24 29.462 311.146 30.0203 311.33 30.5186C313.017 35.096 313.438 39.0845 312.977 42.0844C312.546 44.8843 311.391 46.6455 309.962 47.4587C307.988 47.1798 307.05 46.2709 306.516 45.2041C305.874 43.9196 305.737 42.2334 305.737 40.5C305.737 39.9271 305.411 39.4042 304.896 39.1525C304.381 38.9008 303.768 38.9643 303.316 39.316C298.672 42.9282 294.476 47.1517 291.817 55.0196C286.155 71.7668 299.644 86.8448 314.197 86.4996C320.341 86.3538 325.067 84.7437 328.611 82.2017C332.152 79.6619 334.416 76.2618 335.757 72.6928C337.094 69.1337 337.521 65.3878 337.391 62.0811C337.262 58.796 336.577 55.8247 335.579 53.8292Z" stroke="#80F0F0" stroke-width="3" stroke-linejoin="round"/>
<g filter="url(#filter3_f)">
<path d="M283.529 379H235H161C158.239 379 156 381.239 156 384V466C156 468.761 158.239 471 161 471H467C469.761 471 472 468.761 472 466V384C472 381.239 469.761 379 467 379H393H344.471" stroke="#FF7BF9" stroke-width="4" stroke-linecap="round" stroke-linejoin="round"/>
</g>
<path d="M283.529 379H235H161C158.239 379 156 381.239 156 384V466C156 468.761 158.239 471 161 471H467C469.761 471 472 468.761 472 466V384C472 381.239 469.761 379 467 379H393H344.471" stroke="#FF7BF9" stroke-width="4" stroke-linecap="round" stroke-linejoin="round"/>
<g filter="url(#filter4_f)">
<path d="M212.31 443.05L213.036 445.442L214.447 445.014L214.755 443.572L212.31 443.05ZM216.46 423.6L218.905 424.122L219.55 421.1H216.46V423.6ZM201.81 423.6V421.1H199.77L199.361 423.099L201.81 423.6ZM200.46 430.2L198.011 429.699L197.397 432.7H200.46V430.2ZM206.01 430.2L208.449 430.748L209.134 427.7H206.01V430.2ZM204.46 437.1L205.188 439.492L206.58 439.068L206.899 437.648L204.46 437.1ZM215.26 417.3L214.217 419.572L216.874 420.792L217.666 417.978L215.26 417.3ZM217.26 410.2L219.666 410.878L220.354 408.438L217.904 407.784L217.26 410.2ZM205.56 406C197.692 406 191.251 407.899 186.746 411.813C182.186 415.773 179.96 421.49 179.96 428.35H184.96C184.96 422.61 186.784 418.402 190.024 415.587C193.319 412.726 198.428 411 205.56 411V406ZM179.96 428.35C179.96 433.837 181.837 438.6 185.461 441.979C189.068 445.341 194.154 447.1 200.16 447.1V442.1C195.116 442.1 191.352 440.634 188.871 438.321C186.408 436.025 184.96 432.663 184.96 428.35H179.96ZM200.16 447.1C204.131 447.1 209.938 446.383 213.036 445.442L211.584 440.658C209.082 441.417 203.789 442.1 200.16 442.1V447.1ZM214.755 443.572L218.905 424.122L214.015 423.078L209.865 442.528L214.755 443.572ZM216.46 421.1H201.81V426.1H216.46V421.1ZM199.361 423.099L198.011 429.699L202.909 430.701L204.259 424.101L199.361 423.099ZM200.46 432.7H206.01V427.7H200.46V432.7ZM203.571 429.652L202.021 436.552L206.899 437.648L208.449 430.748L203.571 429.652ZM203.732 434.708C202.747 435.008 201.698 435.2 200.76 435.2V440.2C202.321 440.2 203.873 439.892 205.188 439.492L203.732 434.708ZM200.76 435.2C198.901 435.2 197.388 434.64 196.361 433.673C195.364 432.735 194.56 431.168 194.56 428.6H189.56C189.56 432.282 190.756 435.265 192.934 437.314C195.082 439.335 197.919 440.2 200.76 440.2V435.2ZM194.56 428.6C194.56 425.648 195.408 422.981 197.052 421.091C198.647 419.258 201.208 417.9 205.21 417.9V412.9C199.962 412.9 195.948 414.742 193.28 417.809C190.662 420.819 189.56 424.752 189.56 428.6H194.56ZM205.21 417.9C208.783 417.9 211.597 418.369 214.217 419.572L216.303 415.028C212.823 413.431 209.237 412.9 205.21 412.9V417.9ZM217.666 417.978L219.666 410.878L214.854 409.522L212.854 416.622L217.666 417.978ZM217.904 407.784C214.034 406.752 210.204 406 205.56 406V411C209.616 411 212.986 411.648 216.616 412.616L217.904 407.784ZM236.826 409.1V406.6H235.404L234.677 407.822L236.826 409.1ZM216.076 444L213.927 442.722L211.681 446.5H216.076V444ZM226.176 444V446.5H227.645L228.36 445.217L226.176 444ZM230.326 436.55V434.05H228.857L228.142 435.333L230.326 436.55ZM243.876 436.55L246.356 436.234L246.077 434.05H243.876V436.55ZM244.826 444L242.346 444.316L242.625 446.5H244.826V444ZM254.226 444V446.5H257.167L256.693 443.597L254.226 444ZM248.526 409.1L250.993 408.697L250.651 406.6H248.526V409.1ZM241.476 416.3L243.961 416.027L243.716 413.8H241.476V416.3ZM242.976 429.95V432.45H245.766L245.461 429.677L242.976 429.95ZM233.976 429.95L231.778 428.759L229.777 432.45H233.976V429.95ZM241.376 416.3V413.8H239.888L239.178 415.109L241.376 416.3ZM234.677 407.822L213.927 442.722L218.225 445.278L238.975 410.378L234.677 407.822ZM216.076 446.5H226.176V441.5H216.076V446.5ZM228.36 445.217L232.51 437.767L228.142 435.333L223.992 442.783L228.36 445.217ZM230.326 439.05H243.876V434.05H230.326V439.05ZM241.396 436.866L242.346 444.316L247.306 443.684L246.356 436.234L241.396 436.866ZM244.826 446.5H254.226V441.5H244.826V446.5ZM256.693 443.597L250.993 408.697L246.059 409.503L251.759 444.403L256.693 443.597ZM248.526 406.6H236.826V411.6H248.526V406.6ZM238.991 416.573L240.491 430.223L245.461 429.677L243.961 416.027L238.991 416.573ZM242.976 427.45H233.976V432.45H242.976V427.45ZM236.174 431.141L243.574 417.491L239.178 415.109L231.778 428.759L236.174 431.141ZM241.376 418.8H241.476V413.8H241.376V418.8ZM259.558 409.1V406.6H256.711L257.079 409.423L259.558 409.1ZM264.108 444L261.629 444.323L261.912 446.5H264.108V444ZM275.608 444V446.5H277.082L277.795 445.21L275.608 444ZM294.908 409.1L297.095 410.31L299.147 406.6H294.908V409.1ZM284.858 409.1V406.6H283.328L282.632 407.962L284.858 409.1ZM271.358 435.5V438H272.887L273.583 436.638L271.358 435.5ZM271.258 435.5L268.767 435.722L268.97 438H271.258V435.5ZM268.908 409.1L271.398 408.878L271.195 406.6H268.908V409.1ZM257.079 409.423L261.629 444.323L266.587 443.677L262.037 408.777L257.079 409.423ZM264.108 446.5H275.608V441.5H264.108V446.5ZM277.795 445.21L297.095 410.31L292.72 407.89L273.42 442.79L277.795 445.21ZM294.908 406.6H284.858V411.6H294.908V406.6ZM282.632 407.962L269.132 434.362L273.583 436.638L287.083 410.238L282.632 407.962ZM271.358 433H271.258V438H271.358V433ZM273.748 435.278L271.398 408.878L266.417 409.322L268.767 435.722L273.748 435.278ZM268.908 406.6H259.558V411.6H268.908V406.6ZM298.792 409.1V406.6H296.758L296.344 408.592L298.792 409.1ZM291.542 444L289.094 443.492L288.469 446.5H291.542V444ZM300.942 444V446.5H302.976L303.389 444.508L300.942 444ZM308.192 409.1L310.639 409.608L311.264 406.6H308.192V409.1ZM296.344 408.592L289.094 443.492L293.989 444.508L301.239 409.608L296.344 408.592ZM291.542 446.5H300.942V441.5H291.542V446.5ZM303.389 444.508L310.639 409.608L305.744 408.592L298.494 443.492L303.389 444.508ZM308.192 406.6H298.792V411.6H308.192V406.6ZM319.792 428.8L318.887 431.131L318.899 431.135L319.792 428.8ZM309.692 435.7L311.044 433.597L308.277 431.819L307.304 434.96L309.692 435.7ZM307.492 442.8L305.104 442.06L304.366 444.442L306.746 445.186L307.492 442.8ZM327.042 422.85L327.97 420.529L327.964 420.526L327.957 420.524L327.042 422.85ZM336.192 417L335.122 419.259L337.694 420.478L338.57 417.77L336.192 417ZM338.442 410.05L340.82 410.82L341.495 408.735L339.517 407.793L338.442 410.05ZM327.792 406C322.617 406 318.122 407.081 314.856 409.479C311.482 411.956 309.692 415.646 309.692 420.15H314.692C314.692 417.104 315.827 414.969 317.815 413.509C319.912 411.969 323.217 411 327.792 411V406ZM309.692 420.15C309.692 423.322 310.783 425.73 312.659 427.546C314.414 429.245 316.726 430.291 318.887 431.131L320.697 426.469C318.608 425.659 317.12 424.905 316.137 423.954C315.276 423.12 314.692 422.028 314.692 420.15H309.692ZM318.899 431.135C320.688 431.819 321.869 432.292 322.641 432.814C323.282 433.248 323.242 433.431 323.242 433.55H328.242C328.242 431.219 326.927 429.677 325.443 428.673C324.09 427.758 322.296 427.081 320.685 426.465L318.899 431.135ZM323.242 433.55C323.242 433.904 323.165 434.153 322.599 434.463C321.865 434.864 320.492 435.2 318.292 435.2V440.2C320.842 440.2 323.194 439.836 324.998 438.85C326.969 437.772 328.242 435.946 328.242 433.55H323.242ZM318.292 435.2C317.148 435.2 315.697 435.057 314.306 434.761C312.876 434.457 311.726 434.036 311.044 433.597L308.34 437.803C309.758 438.714 311.583 439.293 313.265 439.651C314.987 440.018 316.786 440.2 318.292 440.2V435.2ZM307.304 434.96L305.104 442.06L309.88 443.54L312.08 436.44L307.304 434.96ZM306.746 445.186C310.116 446.239 314.474 447.1 318.342 447.1V442.1C315.11 442.1 311.268 441.361 308.238 440.414L306.746 445.186ZM318.342 447.1C323.215 447.1 328.002 446.26 331.652 443.984C335.466 441.606 337.842 437.77 337.842 432.45H332.842C332.842 436.03 331.368 438.269 329.007 439.741C326.482 441.315 322.769 442.1 318.342 442.1V447.1ZM337.842 432.45C337.842 428.744 336.469 426.08 334.385 424.161C332.432 422.362 329.949 421.32 327.97 420.529L326.114 425.171C328.135 425.98 329.802 426.738 330.999 427.839C332.065 428.82 332.842 430.156 332.842 432.45H337.842ZM327.957 420.524C326.352 419.892 325.325 419.466 324.666 419.024C324.369 418.824 324.281 418.706 324.269 418.688C324.267 418.684 324.277 418.699 324.285 418.727C324.294 418.755 324.292 418.767 324.292 418.75H319.292C319.292 420.906 320.577 422.301 321.88 423.176C323.084 423.984 324.682 424.608 326.127 425.176L327.957 420.524ZM324.292 418.75C324.292 418.525 324.341 418.516 324.308 418.56C324.297 418.574 324.364 418.475 324.687 418.345C325.417 418.051 326.668 417.9 328.492 417.9V412.9C326.616 412.9 324.517 413.024 322.822 413.705C321.933 414.063 321.018 414.626 320.329 415.531C319.618 416.465 319.292 417.575 319.292 418.75H324.292ZM328.492 417.9C331.466 417.9 333.551 418.515 335.122 419.259L337.262 414.741C335.033 413.685 332.218 412.9 328.492 412.9V417.9ZM338.57 417.77L340.82 410.82L336.064 409.28L333.814 416.23L338.57 417.77ZM339.517 407.793C336.879 406.537 332.445 406 327.792 406V411C332.339 411 335.805 411.563 337.367 412.307L339.517 407.793ZM367.858 443.25L368.633 445.627L370.129 445.139L370.336 443.58L367.858 443.25ZM368.858 435.75L371.336 436.08L371.966 431.358L367.722 433.523L368.858 435.75ZM372.258 417.5L371.018 419.671L373.729 421.22L374.648 418.235L372.258 417.5ZM374.458 410.35L376.848 411.085L377.54 408.836L375.336 408.009L374.458 410.35ZM362.158 406C355.005 406 349.021 408.25 344.809 412.289C340.592 416.334 338.358 421.977 338.358 428.35H343.358C343.358 423.173 345.15 418.891 348.27 415.898C351.396 412.9 356.062 411 362.158 411V406ZM338.358 428.35C338.358 433.837 340.236 438.6 343.86 441.979C347.467 445.341 352.552 447.1 358.558 447.1V442.1C353.515 442.1 349.75 440.634 347.269 438.321C344.806 436.025 343.358 432.663 343.358 428.35H338.358ZM358.558 447.1C361.987 447.1 366.053 446.468 368.633 445.627L367.083 440.873C365.064 441.532 361.529 442.1 358.558 442.1V447.1ZM370.336 443.58L371.336 436.08L366.38 435.42L365.38 442.92L370.336 443.58ZM367.722 433.523C365.673 434.568 362.973 435.2 360.058 435.2V440.2C363.644 440.2 367.143 439.432 369.995 437.977L367.722 433.523ZM360.058 435.2C357.442 435.2 355.732 434.497 354.689 433.509C353.667 432.541 352.958 430.991 352.958 428.6H347.958C347.958 432.009 349 435.009 351.252 437.141C353.484 439.253 356.575 440.2 360.058 440.2V435.2ZM352.958 428.6C352.958 425.739 353.774 423.065 355.41 421.148C356.99 419.297 359.546 417.9 363.608 417.9V412.9C358.271 412.9 354.252 414.803 351.607 417.902C349.018 420.935 347.958 424.861 347.958 428.6H352.958ZM363.608 417.9C366.921 417.9 368.985 418.509 371.018 419.671L373.499 415.329C370.632 413.691 367.696 412.9 363.608 412.9V417.9ZM374.648 418.235L376.848 411.085L372.069 409.615L369.869 416.765L374.648 418.235ZM375.336 408.009C371.772 406.673 367.304 406 362.158 406V411C366.913 411 370.745 411.627 373.581 412.691L375.336 408.009ZM394.108 406C386.985 406 381.157 408.279 377.133 412.674C373.138 417.038 371.208 423.173 371.208 430.35H376.208C376.208 424.027 377.903 419.237 380.821 416.051C383.709 412.896 388.081 411 394.108 411V406ZM371.208 430.35C371.208 434.912 372.624 439.167 375.757 442.285C378.896 445.408 383.467 447.1 389.208 447.1V442.1C384.449 442.1 381.27 440.717 379.284 438.74C377.292 436.758 376.208 433.888 376.208 430.35H371.208ZM389.208 447.1C396.245 447.1 402.069 444.878 406.115 440.52C410.137 436.187 412.108 430.059 412.108 422.8H407.108C407.108 429.191 405.379 433.963 402.451 437.118C399.547 440.247 395.171 442.1 389.208 442.1V447.1ZM412.108 422.8C412.108 418.302 410.738 414.039 407.63 410.893C404.51 407.735 399.932 406 394.108 406V411C398.934 411 402.106 412.415 404.073 414.407C406.053 416.411 407.108 419.298 407.108 422.8H412.108ZM385.808 429.65C385.808 426.917 386.525 423.817 387.922 421.484C389.29 419.198 391.121 417.9 393.458 417.9V412.9C388.845 412.9 385.601 415.627 383.632 418.916C381.691 422.158 380.808 426.183 380.808 429.65H385.808ZM393.458 417.9C394.52 417.9 395.195 418.129 395.637 418.39C396.08 418.651 396.427 419.026 396.707 419.526C397.311 420.606 397.508 422.111 397.508 423.5H402.508C402.508 421.839 402.305 419.294 401.072 417.087C400.432 415.943 399.501 414.864 398.177 414.083C396.852 413.302 395.271 412.9 393.458 412.9V417.9ZM397.508 423.5C397.508 426.096 396.835 429.19 395.452 431.547C394.102 433.848 392.262 435.2 389.808 435.2V440.2C394.554 440.2 397.814 437.402 399.764 434.078C401.681 430.81 402.508 426.804 402.508 423.5H397.508ZM389.808 435.2C388.262 435.2 387.423 434.701 386.895 434.028C386.289 433.253 385.808 431.874 385.808 429.65H380.808C380.808 432.476 381.402 435.122 382.958 437.11C384.593 439.199 387.004 440.2 389.808 440.2V435.2ZM417.974 409.1V406.6H415.951L415.529 408.578L417.974 409.1ZM410.524 444L408.079 443.478L407.434 446.5H410.524V444ZM419.324 444V446.5H421.372L421.775 444.492L419.324 444ZM424.174 419.85V417.35H422.126L421.723 419.358L424.174 419.85ZM424.274 419.85L426.667 419.127L426.13 417.35H424.274V419.85ZM431.574 444L429.181 444.723L429.718 446.5H431.574V444ZM443.174 444V446.5H445.2L445.62 444.519L443.174 444ZM450.574 409.1L453.02 409.619L453.66 406.6H450.574V409.1ZM441.774 409.1V406.6H439.729L439.324 408.604L441.774 409.1ZM436.874 433.3V435.8H438.919L439.324 433.796L436.874 433.3ZM436.774 433.3L434.376 434.008L434.906 435.8H436.774V433.3ZM429.624 409.1L432.022 408.392L431.492 406.6H429.624V409.1ZM415.529 408.578L408.079 443.478L412.969 444.522L420.419 409.622L415.529 408.578ZM410.524 446.5H419.324V441.5H410.524V446.5ZM421.775 444.492L426.625 420.342L421.723 419.358L416.873 443.508L421.775 444.492ZM424.174 422.35H424.274V417.35H424.174V422.35ZM421.881 420.573L429.181 444.723L433.967 443.277L426.667 419.127L421.881 420.573ZM431.574 446.5H443.174V441.5H431.574V446.5ZM445.62 444.519L453.02 409.619L448.128 408.581L440.728 443.481L445.62 444.519ZM450.574 406.6H441.774V411.6H450.574V406.6ZM439.324 408.604L434.424 432.804L439.324 433.796L444.224 409.596L439.324 408.604ZM436.874 430.8H436.774V435.8H436.874V430.8ZM439.172 432.592L432.022 408.392L427.226 409.808L434.376 434.008L439.172 432.592ZM429.624 406.6H417.974V411.6H429.624V406.6Z" fill="#00D7D7"/>
</g>
<path d="M212.31 443.05L213.036 445.442L214.447 445.014L214.755 443.572L212.31 443.05ZM216.46 423.6L218.905 424.122L219.55 421.1H216.46V423.6ZM201.81 423.6V421.1H199.77L199.361 423.099L201.81 423.6ZM200.46 430.2L198.011 429.699L197.397 432.7H200.46V430.2ZM206.01 430.2L208.449 430.748L209.134 427.7H206.01V430.2ZM204.46 437.1L205.188 439.492L206.58 439.068L206.899 437.648L204.46 437.1ZM215.26 417.3L214.217 419.572L216.874 420.792L217.666 417.978L215.26 417.3ZM217.26 410.2L219.666 410.878L220.354 408.438L217.904 407.784L217.26 410.2ZM205.56 406C197.692 406 191.251 407.899 186.746 411.813C182.186 415.773 179.96 421.49 179.96 428.35H184.96C184.96 422.61 186.784 418.402 190.024 415.587C193.319 412.726 198.428 411 205.56 411V406ZM179.96 428.35C179.96 433.837 181.837 438.6 185.461 441.979C189.068 445.341 194.154 447.1 200.16 447.1V442.1C195.116 442.1 191.352 440.634 188.871 438.321C186.408 436.025 184.96 432.663 184.96 428.35H179.96ZM200.16 447.1C204.131 447.1 209.938 446.383 213.036 445.442L211.584 440.658C209.082 441.417 203.789 442.1 200.16 442.1V447.1ZM214.755 443.572L218.905 424.122L214.015 423.078L209.865 442.528L214.755 443.572ZM216.46 421.1H201.81V426.1H216.46V421.1ZM199.361 423.099L198.011 429.699L202.909 430.701L204.259 424.101L199.361 423.099ZM200.46 432.7H206.01V427.7H200.46V432.7ZM203.571 429.652L202.021 436.552L206.899 437.648L208.449 430.748L203.571 429.652ZM203.732 434.708C202.747 435.008 201.698 435.2 200.76 435.2V440.2C202.321 440.2 203.873 439.892 205.188 439.492L203.732 434.708ZM200.76 435.2C198.901 435.2 197.388 434.64 196.361 433.673C195.364 432.735 194.56 431.168 194.56 428.6H189.56C189.56 432.282 190.756 435.265 192.934 437.314C195.082 439.335 197.919 440.2 200.76 440.2V435.2ZM194.56 428.6C194.56 425.648 195.408 422.981 197.052 421.091C198.647 419.258 201.208 417.9 205.21 417.9V412.9C199.962 412.9 195.948 414.742 193.28 417.809C190.662 420.819 189.56 424.752 189.56 428.6H194.56ZM205.21 417.9C208.783 417.9 211.597 418.369 214.217 419.572L216.303 415.028C212.823 413.431 209.237 412.9 205.21 412.9V417.9ZM217.666 417.978L219.666 410.878L214.854 409.522L212.854 416.622L217.666 417.978ZM217.904 407.784C214.034 406.752 210.204 406 205.56 406V411C209.616 411 212.986 411.648 216.616 412.616L217.904 407.784ZM236.826 409.1V406.6H235.404L234.677 407.822L236.826 409.1ZM216.076 444L213.927 442.722L211.681 446.5H216.076V444ZM226.176 444V446.5H227.645L228.36 445.217L226.176 444ZM230.326 436.55V434.05H228.857L228.142 435.333L230.326 436.55ZM243.876 436.55L246.356 436.234L246.077 434.05H243.876V436.55ZM244.826 444L242.346 444.316L242.625 446.5H244.826V444ZM254.226 444V446.5H257.167L256.693 443.597L254.226 444ZM248.526 409.1L250.993 408.697L250.651 406.6H248.526V409.1ZM241.476 416.3L243.961 416.027L243.716 413.8H241.476V416.3ZM242.976 429.95V432.45H245.766L245.461 429.677L242.976 429.95ZM233.976 429.95L231.778 428.759L229.777 432.45H233.976V429.95ZM241.376 416.3V413.8H239.888L239.178 415.109L241.376 416.3ZM234.677 407.822L213.927 442.722L218.225 445.278L238.975 410.378L234.677 407.822ZM216.076 446.5H226.176V441.5H216.076V446.5ZM228.36 445.217L232.51 437.767L228.142 435.333L223.992 442.783L228.36 445.217ZM230.326 439.05H243.876V434.05H230.326V439.05ZM241.396 436.866L242.346 444.316L247.306 443.684L246.356 436.234L241.396 436.866ZM244.826 446.5H254.226V441.5H244.826V446.5ZM256.693 443.597L250.993 408.697L246.059 409.503L251.759 444.403L256.693 443.597ZM248.526 406.6H236.826V411.6H248.526V406.6ZM238.991 416.573L240.491 430.223L245.461 429.677L243.961 416.027L238.991 416.573ZM242.976 427.45H233.976V432.45H242.976V427.45ZM236.174 431.141L243.574 417.491L239.178 415.109L231.778 428.759L236.174 431.141ZM241.376 418.8H241.476V413.8H241.376V418.8ZM259.558 409.1V406.6H256.711L257.079 409.423L259.558 409.1ZM264.108 444L261.629 444.323L261.912 446.5H264.108V444ZM275.608 444V446.5H277.082L277.795 445.21L275.608 444ZM294.908 409.1L297.095 410.31L299.147 406.6H294.908V409.1ZM284.858 409.1V406.6H283.328L282.632 407.962L284.858 409.1ZM271.358 435.5V438H272.887L273.583 436.638L271.358 435.5ZM271.258 435.5L268.767 435.722L268.97 438H271.258V435.5ZM268.908 409.1L271.398 408.878L271.195 406.6H268.908V409.1ZM257.079 409.423L261.629 444.323L266.587 443.677L262.037 408.777L257.079 409.423ZM264.108 446.5H275.608V441.5H264.108V446.5ZM277.795 445.21L297.095 410.31L292.72 407.89L273.42 442.79L277.795 445.21ZM294.908 406.6H284.858V411.6H294.908V406.6ZM282.632 407.962L269.132 434.362L273.583 436.638L287.083 410.238L282.632 407.962ZM271.358 433H271.258V438H271.358V433ZM273.748 435.278L271.398 408.878L266.417 409.322L268.767 435.722L273.748 435.278ZM268.908 406.6H259.558V411.6H268.908V406.6ZM298.792 409.1V406.6H296.758L296.344 408.592L298.792 409.1ZM291.542 444L289.094 443.492L288.469 446.5H291.542V444ZM300.942 444V446.5H302.976L303.389 444.508L300.942 444ZM308.192 409.1L310.639 409.608L311.264 406.6H308.192V409.1ZM296.344 408.592L289.094 443.492L293.989 444.508L301.239 409.608L296.344 408.592ZM291.542 446.5H300.942V441.5H291.542V446.5ZM303.389 444.508L310.639 409.608L305.744 408.592L298.494 443.492L303.389 444.508ZM308.192 406.6H298.792V411.6H308.192V406.6ZM319.792 428.8L318.887 431.131L318.899 431.135L319.792 428.8ZM309.692 435.7L311.044 433.597L308.277 431.819L307.304 434.96L309.692 435.7ZM307.492 442.8L305.104 442.06L304.366 444.442L306.746 445.186L307.492 442.8ZM327.042 422.85L327.97 420.529L327.964 420.526L327.957 420.524L327.042 422.85ZM336.192 417L335.122 419.259L337.694 420.478L338.57 417.77L336.192 417ZM338.442 410.05L340.82 410.82L341.495 408.735L339.517 407.793L338.442 410.05ZM327.792 406C322.617 406 318.122 407.081 314.856 409.479C311.482 411.956 309.692 415.646 309.692 420.15H314.692C314.692 417.104 315.827 414.969 317.815 413.509C319.912 411.969 323.217 411 327.792 411V406ZM309.692 420.15C309.692 423.322 310.783 425.73 312.659 427.546C314.414 429.245 316.726 430.291 318.887 431.131L320.697 426.469C318.608 425.659 317.12 424.905 316.137 423.954C315.276 423.12 314.692 422.028 314.692 420.15H309.692ZM318.899 431.135C320.688 431.819 321.869 432.292 322.641 432.814C323.282 433.248 323.242 433.431 323.242 433.55H328.242C328.242 431.219 326.927 429.677 325.443 428.673C324.09 427.758 322.296 427.081 320.685 426.465L318.899 431.135ZM323.242 433.55C323.242 433.904 323.165 434.153 322.599 434.463C321.865 434.864 320.492 435.2 318.292 435.2V440.2C320.842 440.2 323.194 439.836 324.998 438.85C326.969 437.772 328.242 435.946 328.242 433.55H323.242ZM318.292 435.2C317.148 435.2 315.697 435.057 314.306 434.761C312.876 434.457 311.726 434.036 311.044 433.597L308.34 437.803C309.758 438.714 311.583 439.293 313.265 439.651C314.987 440.018 316.786 440.2 318.292 440.2V435.2ZM307.304 434.96L305.104 442.06L309.88 443.54L312.08 436.44L307.304 434.96ZM306.746 445.186C310.116 446.239 314.474 447.1 318.342 447.1V442.1C315.11 442.1 311.268 441.361 308.238 440.414L306.746 445.186ZM318.342 447.1C323.215 447.1 328.002 446.26 331.652 443.984C335.466 441.606 337.842 437.77 337.842 432.45H332.842C332.842 436.03 331.368 438.269 329.007 439.741C326.482 441.315 322.769 442.1 318.342 442.1V447.1ZM337.842 432.45C337.842 428.744 336.469 426.08 334.385 424.161C332.432 422.362 329.949 421.32 327.97 420.529L326.114 425.171C328.135 425.98 329.802 426.738 330.999 427.839C332.065 428.82 332.842 430.156 332.842 432.45H337.842ZM327.957 420.524C326.352 419.892 325.325 419.466 324.666 419.024C324.369 418.824 324.281 418.706 324.269 418.688C324.267 418.684 324.277 418.699 324.285 418.727C324.294 418.755 324.292 418.767 324.292 418.75H319.292C319.292 420.906 320.577 422.301 321.88 423.176C323.084 423.984 324.682 424.608 326.127 425.176L327.957 420.524ZM324.292 418.75C324.292 418.525 324.341 418.516 324.308 418.56C324.297 418.574 324.364 418.475 324.687 418.345C325.417 418.051 326.668 417.9 328.492 417.9V412.9C326.616 412.9 324.517 413.024 322.822 413.705C321.933 414.063 321.018 414.626 320.329 415.531C319.618 416.465 319.292 417.575 319.292 418.75H324.292ZM328.492 417.9C331.466 417.9 333.551 418.515 335.122 419.259L337.262 414.741C335.033 413.685 332.218 412.9 328.492 412.9V417.9ZM338.57 417.77L340.82 410.82L336.064 409.28L333.814 416.23L338.57 417.77ZM339.517 407.793C336.879 406.537 332.445 406 327.792 406V411C332.339 411 335.805 411.563 337.367 412.307L339.517 407.793ZM367.858 443.25L368.633 445.627L370.129 445.139L370.336 443.58L367.858 443.25ZM368.858 435.75L371.336 436.08L371.966 431.358L367.722 433.523L368.858 435.75ZM372.258 417.5L371.018 419.671L373.729 421.22L374.648 418.235L372.258 417.5ZM374.458 410.35L376.848 411.085L377.54 408.836L375.336 408.009L374.458 410.35ZM362.158 406C355.005 406 349.021 408.25 344.809 412.289C340.592 416.334 338.358 421.977 338.358 428.35H343.358C343.358 423.173 345.15 418.891 348.27 415.898C351.396 412.9 356.062 411 362.158 411V406ZM338.358 428.35C338.358 433.837 340.236 438.6 343.86 441.979C347.467 445.341 352.552 447.1 358.558 447.1V442.1C353.515 442.1 349.75 440.634 347.269 438.321C344.806 436.025 343.358 432.663 343.358 428.35H338.358ZM358.558 447.1C361.987 447.1 366.053 446.468 368.633 445.627L367.083 440.873C365.064 441.532 361.529 442.1 358.558 442.1V447.1ZM370.336 443.58L371.336 436.08L366.38 435.42L365.38 442.92L370.336 443.58ZM367.722 433.523C365.673 434.568 362.973 435.2 360.058 435.2V440.2C363.644 440.2 367.143 439.432 369.995 437.977L367.722 433.523ZM360.058 435.2C357.442 435.2 355.732 434.497 354.689 433.509C353.667 432.541 352.958 430.991 352.958 428.6H347.958C347.958 432.009 349 435.009 351.252 437.141C353.484 439.253 356.575 440.2 360.058 440.2V435.2ZM352.958 428.6C352.958 425.739 353.774 423.065 355.41 421.148C356.99 419.297 359.546 417.9 363.608 417.9V412.9C358.271 412.9 354.252 414.803 351.607 417.902C349.018 420.935 347.958 424.861 347.958 428.6H352.958ZM363.608 417.9C366.921 417.9 368.985 418.509 371.018 419.671L373.499 415.329C370.632 413.691 367.696 412.9 363.608 412.9V417.9ZM374.648 418.235L376.848 411.085L372.069 409.615L369.869 416.765L374.648 418.235ZM375.336 408.009C371.772 406.673 367.304 406 362.158 406V411C366.913 411 370.745 411.627 373.581 412.691L375.336 408.009ZM394.108 406C386.985 406 381.157 408.279 377.133 412.674C373.138 417.038 371.208 423.173 371.208 430.35H376.208C376.208 424.027 377.903 419.237 380.821 416.051C383.709 412.896 388.081 411 394.108 411V406ZM371.208 430.35C371.208 434.912 372.624 439.167 375.757 442.285C378.896 445.408 383.467 447.1 389.208 447.1V442.1C384.449 442.1 381.27 440.717 379.284 438.74C377.292 436.758 376.208 433.888 376.208 430.35H371.208ZM389.208 447.1C396.245 447.1 402.069 444.878 406.115 440.52C410.137 436.187 412.108 430.059 412.108 422.8H407.108C407.108 429.191 405.379 433.963 402.451 437.118C399.547 440.247 395.171 442.1 389.208 442.1V447.1ZM412.108 422.8C412.108 418.302 410.738 414.039 407.63 410.893C404.51 407.735 399.932 406 394.108 406V411C398.934 411 402.106 412.415 404.073 414.407C406.053 416.411 407.108 419.298 407.108 422.8H412.108ZM385.808 429.65C385.808 426.917 386.525 423.817 387.922 421.484C389.29 419.198 391.121 417.9 393.458 417.9V412.9C388.845 412.9 385.601 415.627 383.632 418.916C381.691 422.158 380.808 426.183 380.808 429.65H385.808ZM393.458 417.9C394.52 417.9 395.195 418.129 395.637 418.39C396.08 418.651 396.427 419.026 396.707 419.526C397.311 420.606 397.508 422.111 397.508 423.5H402.508C402.508 421.839 402.305 419.294 401.072 417.087C400.432 415.943 399.501 414.864 398.177 414.083C396.852 413.302 395.271 412.9 393.458 412.9V417.9ZM397.508 423.5C397.508 426.096 396.835 429.19 395.452 431.547C394.102 433.848 392.262 435.2 389.808 435.2V440.2C394.554 440.2 397.814 437.402 399.764 434.078C401.681 430.81 402.508 426.804 402.508 423.5H397.508ZM389.808 435.2C388.262 435.2 387.423 434.701 386.895 434.028C386.289 433.253 385.808 431.874 385.808 429.65H380.808C380.808 432.476 381.402 435.122 382.958 437.11C384.593 439.199 387.004 440.2 389.808 440.2V435.2ZM417.974 409.1V406.6H415.951L415.529 408.578L417.974 409.1ZM410.524 444L408.079 443.478L407.434 446.5H410.524V444ZM419.324 444V446.5H421.372L421.775 444.492L419.324 444ZM424.174 419.85V417.35H422.126L421.723 419.358L424.174 419.85ZM424.274 419.85L426.667 419.127L426.13 417.35H424.274V419.85ZM431.574 444L429.181 444.723L429.718 446.5H431.574V444ZM443.174 444V446.5H445.2L445.62 444.519L443.174 444ZM450.574 409.1L453.02 409.619L453.66 406.6H450.574V409.1ZM441.774 409.1V406.6H439.729L439.324 408.604L441.774 409.1ZM436.874 433.3V435.8H438.919L439.324 433.796L436.874 433.3ZM436.774 433.3L434.376 434.008L434.906 435.8H436.774V433.3ZM429.624 409.1L432.022 408.392L431.492 406.6H429.624V409.1ZM415.529 408.578L408.079 443.478L412.969 444.522L420.419 409.622L415.529 408.578ZM410.524 446.5H419.324V441.5H410.524V446.5ZM421.775 444.492L426.625 420.342L421.723 419.358L416.873 443.508L421.775 444.492ZM424.174 422.35H424.274V417.35H424.174V422.35ZM421.881 420.573L429.181 444.723L433.967 443.277L426.667 419.127L421.881 420.573ZM431.574 446.5H443.174V441.5H431.574V446.5ZM445.62 444.519L453.02 409.619L448.128 408.581L440.728 443.481L445.62 444.519ZM450.574 406.6H441.774V411.6H450.574V406.6ZM439.324 408.604L434.424 432.804L439.324 433.796L444.224 409.596L439.324 408.604ZM436.874 430.8H436.774V435.8H436.874V430.8ZM439.172 432.592L432.022 408.392L427.226 409.808L434.376 434.008L439.172 432.592ZM429.624 406.6H417.974V411.6H429.624V406.6Z" fill="#80F0F0"/>
<path d="M300.413 386H305.953C310.793 386 312.513 383.92 312.513 381.52C312.513 380.08 311.533 379.08 309.813 378.82V378.78C312.053 378.52 313.473 377.08 313.473 375.24C313.473 373.02 311.653 372.04 309.453 372.04H303.333L300.413 386ZM307.593 374.68C309.273 374.68 309.753 375.14 309.753 375.98C309.753 376.96 308.793 377.56 307.273 377.56H305.873L306.473 374.68H307.593ZM305.333 380.08H306.393C308.233 380.08 308.793 380.46 308.793 381.48C308.793 382.76 307.673 383.36 305.693 383.36H304.653L305.333 380.08ZM315.613 372.04L318.873 380.84L317.793 386H321.593L322.673 380.84L329.713 372.04H325.133L321.273 377.66L319.533 372.04H315.613Z" fill="#FF7BF9"/>
<defs>
<filter id="filter0_f" x="0.263672" y="135.6" width="629.153" height="184.98" filterUnits="userSpaceOnUse" color-interpolation-filters="sRGB">
<feFlood flood-opacity="0" result="BackgroundImageFix"/>
<feBlend mode="normal" in="SourceGraphic" in2="BackgroundImageFix" result="shape"/>
<feGaussianBlur stdDeviation="5" result="effect1_foregroundBlur"/>
</filter>
<filter id="filter1_f" x="281.991" y="20" width="63.9223" height="75.0054" filterUnits="userSpaceOnUse" color-interpolation-filters="sRGB">
<feFlood flood-opacity="0" result="BackgroundImageFix"/>
<feBlend mode="normal" in="SourceGraphic" in2="BackgroundImageFix" result="shape"/>
<feGaussianBlur stdDeviation="3.5" result="effect1_foregroundBlur"/>
</filter>
<filter id="filter2_f" x="256" y="0" width="116" height="116" filterUnits="userSpaceOnUse" color-interpolation-filters="sRGB">
<feFlood flood-opacity="0" result="BackgroundImageFix"/>
<feBlend mode="normal" in="SourceGraphic" in2="BackgroundImageFix" result="shape"/>
<feGaussianBlur stdDeviation="4" result="effect1_foregroundBlur"/>
</filter>
<filter id="filter3_f" x="144" y="367" width="340" height="116" filterUnits="userSpaceOnUse" color-interpolation-filters="sRGB">
<feFlood flood-opacity="0" result="BackgroundImageFix"/>
<feBlend mode="normal" in="SourceGraphic" in2="BackgroundImageFix" result="shape"/>
<feGaussianBlur stdDeviation="5" result="effect1_foregroundBlur"/>
</filter>
<filter id="filter4_f" x="175.96" y="402" width="281.7" height="49.1" filterUnits="userSpaceOnUse" color-interpolation-filters="sRGB">
<feFlood flood-opacity="0" result="BackgroundImageFix"/>
<feBlend mode="normal" in="SourceGraphic" in2="BackgroundImageFix" result="shape"/>
<feGaussianBlur stdDeviation="2" result="effect1_foregroundBlur"/>
</filter>
</defs>
</svg>
