<svg width="1920" height="817" viewBox="0 0 1920 817" fill="none" xmlns="http://www.w3.org/2000/svg">
<rect y="643" width="1920" height="174" fill="url(#paint0_linear)"/>
<g opacity="0.5">
<path d="M49 589.859L49 817" stroke="#0A0555" stroke-width="3"/>
<path d="M332.713 589.859L332.713 817" stroke="#0A0555" stroke-width="3"/>
<path d="M616.713 589.859L616.713 817" stroke="#0A0555" stroke-width="3"/>
<path d="M901.081 589.859L901.081 817" stroke="#0A0555" stroke-width="3"/>
<path d="M1185.08 589.859L1185.08 817" stroke="#0A0555" stroke-width="3"/>
<path d="M1469.26 589.859L1469.26 817" stroke="#0A0555" stroke-width="3"/>
<path d="M1753.45 589.859L1753.45 817" stroke="#0A0555" stroke-width="3"/>
<path d="M221 589.859L221 817" stroke="#0A0555" stroke-width="3"/>
<path d="M504.713 589.859L504.713 817" stroke="#0A0555" stroke-width="3"/>
<path d="M788.713 589.859L788.713 817" stroke="#0A0555" stroke-width="3"/>
<path d="M1073.08 589.859L1073.08 817" stroke="#0A0555" stroke-width="3"/>
<path d="M1357.08 589.859L1357.08 817" stroke="#0A0555" stroke-width="3"/>
<path d="M1641.26 589.859L1641.26 817" stroke="#0A0555" stroke-width="3"/>
<path d="M277 589.859L277 817" stroke="#0A0555" stroke-width="3"/>
<path d="M560.713 589.859L560.713 817" stroke="#0A0555" stroke-width="3"/>
<path d="M844.713 589.859L844.713 817" stroke="#0A0555" stroke-width="3"/>
<path d="M1129.08 589.859L1129.08 817" stroke="#0A0555" stroke-width="3"/>
<path d="M1413.08 589.859L1413.08 817" stroke="#0A0555" stroke-width="3"/>
<path d="M1697.26 589.859L1697.26 817" stroke="#0A0555" stroke-width="3"/>
<path d="M108 589.859L108 817" stroke="#0A0555" stroke-width="3"/>
<path d="M391.713 589.859L391.713 817" stroke="#0A0555" stroke-width="3"/>
<path d="M675.713 589.859L675.713 817" stroke="#0A0555" stroke-width="3"/>
<path d="M960.081 589.859L960.081 817" stroke="#0A0555" stroke-width="3"/>
<path d="M1244.08 589.859L1244.08 817" stroke="#0A0555" stroke-width="3"/>
<path d="M1528.26 589.859L1528.26 817" stroke="#0A0555" stroke-width="3"/>
<path d="M1812.45 589.859L1812.45 817" stroke="#0A0555" stroke-width="3"/>
<path d="M166 589.859L166 817" stroke="#0A0555" stroke-width="3"/>
<path d="M449.713 589.859L449.713 817" stroke="#0A0555" stroke-width="3"/>
<path d="M733.713 589.859L733.713 817" stroke="#0A0555" stroke-width="3"/>
<path d="M1018.08 589.859L1018.08 817" stroke="#0A0555" stroke-width="3"/>
<path d="M1302.08 589.859L1302.08 817" stroke="#0A0555" stroke-width="3"/>
<path d="M1586.26 589.859L1586.26 817" stroke="#0A0555" stroke-width="3"/>
<path d="M1870.45 589.859L1870.45 817" stroke="#0A0555" stroke-width="3"/>
<path d="M52 589.859L52 817" stroke="#3D63C6" stroke-width="2"/>
<path d="M335.713 589.859L335.713 817" stroke="#3D63C6" stroke-width="2"/>
<path d="M619.713 589.859L619.713 817" stroke="#3D63C6" stroke-width="2"/>
<path d="M904.081 589.859L904.081 817" stroke="#3D63C6" stroke-width="2"/>
<path d="M1188.08 589.859L1188.08 817" stroke="#3D63C6" stroke-width="2"/>
<path d="M1472.26 589.859L1472.26 817" stroke="#3D63C6" stroke-width="2"/>
<path d="M1756.45 589.859L1756.45 817" stroke="#3D63C6" stroke-width="2"/>
<path d="M224 589.859L224 817" stroke="#3D63C6" stroke-width="2"/>
<path d="M507.713 589.859L507.713 817" stroke="#3D63C6" stroke-width="2"/>
<path d="M791.713 589.859L791.713 817" stroke="#3D63C6" stroke-width="2"/>
<path d="M1076.08 589.859L1076.08 817" stroke="#3D63C6" stroke-width="2"/>
<path d="M1360.08 589.859L1360.08 817" stroke="#3D63C6" stroke-width="2"/>
<path d="M1644.26 589.859L1644.26 817" stroke="#3D63C6" stroke-width="2"/>
<path d="M280 589.859L280 817" stroke="#3D63C6" stroke-width="2"/>
<path d="M563.713 589.859L563.713 817" stroke="#3D63C6" stroke-width="2"/>
<path d="M847.713 589.859L847.713 817" stroke="#3D63C6" stroke-width="2"/>
<path d="M1132.08 589.859L1132.08 817" stroke="#3D63C6" stroke-width="2"/>
<path d="M1416.08 589.859L1416.08 817" stroke="#3D63C6" stroke-width="2"/>
<path d="M1700.26 589.859L1700.26 817" stroke="#3D63C6" stroke-width="2"/>
<path d="M111 589.859L111 817" stroke="#3D63C6" stroke-width="2"/>
<path d="M394.713 589.859L394.713 817" stroke="#3D63C6" stroke-width="2"/>
<path d="M678.713 589.859L678.713 817" stroke="#3D63C6" stroke-width="2"/>
<path d="M963.081 589.859L963.081 817" stroke="#3D63C6" stroke-width="2"/>
<path d="M1247.08 589.859L1247.08 817" stroke="#3D63C6" stroke-width="2"/>
<path d="M1531.26 589.859L1531.26 817" stroke="#3D63C6" stroke-width="2"/>
<path d="M1815.45 589.859L1815.45 817" stroke="#3D63C6" stroke-width="2"/>
<path d="M169 589.859L169 817" stroke="#3D63C6" stroke-width="2"/>
<path d="M452.713 589.859L452.713 817" stroke="#3D63C6" stroke-width="2"/>
<path d="M736.713 589.859L736.713 817" stroke="#3D63C6" stroke-width="2"/>
<path d="M1021.08 589.859L1021.08 817" stroke="#3D63C6" stroke-width="2"/>
<path d="M1305.08 589.859L1305.08 817" stroke="#3D63C6" stroke-width="2"/>
<path d="M1589.26 589.859L1589.26 817" stroke="#3D63C6" stroke-width="2"/>
<path d="M1873.45 589.859L1873.45 817" stroke="#3D63C6" stroke-width="2"/>
</g>
<rect y="539" width="1920" height="104" fill="url(#paint1_linear)"/>
<rect y="609" width="1920" height="34" fill="#2643AA"/>
<path d="M500.819 189.387C497.844 189.36 495.551 186.756 495.9 183.802L508.027 80.9815C508.375 78.027 511.211 76.0285 514.11 76.6938L658.738 109.875C661.226 110.446 662.885 112.799 662.586 115.334L654.211 186.349C653.912 188.884 651.751 190.787 649.199 190.763L500.819 189.387Z" fill="url(#paint2_linear)" stroke="white" stroke-width="4"/>
<path d="M500.819 189.387C497.844 189.36 495.551 186.756 495.9 183.802L508.027 80.9815C508.375 78.027 511.211 76.0285 514.11 76.6938L658.738 109.875C661.226 110.446 662.885 112.799 662.586 115.334L654.211 186.349C653.912 188.884 651.751 190.787 649.199 190.763L500.819 189.387Z" stroke="white" stroke-width="4"/>
<path d="M631.245 190.069L641 107.361" stroke="white" stroke-width="4"/>
<ellipse cx="615.405" cy="174.184" rx="1.95858" ry="1.95858" transform="rotate(-50.0203 615.405 174.184)" fill="url(#paint3_linear)"/>
<path d="M614.468 175.025C614.015 174.646 613.956 173.972 614.335 173.52" stroke="white" stroke-linecap="round"/>
<path d="M645.012 196.129L649.386 237.191L652.776 255.845L579.941 263.914L573.108 252.659C568.136 243.072 561.914 234.671 553.62 222.399C546.077 212.508 543.742 210.15 541.896 198.012C542.976 192.194 545.747 191.348 549.516 191.691L558.182 190.982C558.605 190.948 558.96 190.651 559.067 190.24L562.999 175.282C565.677 161.286 583.926 163.077 592.082 162.626L617.697 165.376C639.38 165.142 642.413 181.827 645.012 196.129Z" fill="#EAF1FF"/>
<path d="M447.167 142.042C442.33 146.86 445.151 153.419 447.167 156.095L459.254 184.203C475.376 217.932 452.536 253.133 439.1 266.517V346.238C439.1 347.549 437.86 348.506 436.592 348.173L259.734 301.703C266.18 264.762 262.42 225.026 259.734 214.318C258.39 209.634 253.285 202.021 237.566 200.264C223.147 198.653 221.991 188.201 221.443 182.195C219.831 164.528 231.117 164.127 237.566 164.127H251.675C238.777 122.367 274.516 97.2043 293.998 89.8429L368.566 61.7352C395.975 50.4923 414.919 66.4198 420.965 75.7889L453.211 123.973C459.66 132.004 456.57 136.939 453.211 138.278L447.167 142.042Z" fill="#EAF1FF"/>
<path d="M269.696 164.111H237.45C222.939 143.232 226.03 108.566 229.389 93.8427C235.838 66.5384 262.978 62.3892 275.742 63.7277H289.849C325.319 63.7277 369.12 28.9284 386.586 11.5288C409.158 -9.35095 425.55 2.82889 430.924 11.5288C453.496 40.4392 436.298 63.7281 424.878 71.7587C391.02 89.4262 338.218 104.551 316.049 109.904C304.763 113.117 304.628 124.627 305.972 129.981C309.197 144.436 322.095 160.096 328.141 166.119C338.959 176.896 360.86 170 378.86 166.119L444.552 147.784C446.287 147.299 448.159 147.777 449.382 149.099C468.897 170.196 477.277 204.012 477.277 216.311C482.114 258.07 436.298 269.848 412.786 270.518C353.131 276.942 314.033 219.657 301.941 190.211C292.872 168.126 283.803 164.111 269.696 164.111Z" fill="#0F43EC"/>
<path d="M423.598 165.598C431.032 163.572 436.433 161.677 440.114 160.152C443.177 158.883 447.247 160.265 447.86 163.523C449.473 172.089 445.943 175.752 443.323 176.655C443.097 176.733 442.865 176.809 442.643 176.899C433.209 180.723 425.781 176.876 421.238 172.377C418.901 170.064 420.425 166.462 423.598 165.598Z" fill="#ECF1FD"/>
<path d="M250.536 183.292C255.633 182.223 266.956 182.811 271.463 193.716" stroke="#0F0967" stroke-width="4" stroke-linecap="round"/>
<path d="M405.192 122.142C408.331 117.818 415.225 116.625 420.286 116.597C421.242 116.592 421.768 115.364 421.068 114.713L418.535 112.364C418.395 112.234 418.295 112.067 418.247 111.883L417.637 109.55C417.552 109.223 417.309 108.959 416.984 108.869C410.81 107.168 402.928 111.49 398.548 115.02C397.492 115.871 397.757 117.468 398.975 118.067L401.324 119.222C401.562 119.339 401.744 119.546 401.829 119.797L402.58 122C402.906 122.959 404.597 122.962 405.192 122.142Z" fill="#0F0967"/>
<path d="M336.615 25.8231C336.306 24.7624 335.197 24.1522 334.136 24.4603C333.075 24.7683 332.465 25.8779 332.773 26.9387L336.615 25.8231ZM285.55 69.3963C293.127 68.1621 307.322 63.2117 318.867 55.818C324.645 52.1173 329.904 47.7147 333.319 42.7278C336.764 37.6981 338.397 31.9597 336.615 25.8231L332.773 26.9387C334.136 31.6325 332.981 36.1426 330.019 40.4677C327.028 44.8357 322.261 48.8943 316.71 52.4495C305.595 59.5675 291.912 64.3074 284.907 65.4483L285.55 69.3963Z" fill="#0A39D1"/>
<path d="M421.485 63.1556C430.278 54.0777 437.568 34.1632 422.574 18.9366" stroke="#171460" stroke-width="4" stroke-linecap="round"/>
<path d="M245.672 88.8624C241.481 93.0573 237.588 98.4926 238.336 108.44" stroke="#171460" stroke-width="4" stroke-linecap="round"/>
<path d="M242.453 306.061C247.29 291.923 273.691 303.606 282.76 306.061L433.266 338.923C504.316 351.348 556.648 485.411 563.702 538.758H183C196.704 423.293 228.345 335.517 242.453 306.061Z" fill="url(#paint4_linear)"/>
<path d="M578.471 260.372C569.583 262.169 565.621 264.75 563.057 291.706C560.493 318.662 563.02 437.367 550.36 435C537.699 432.634 424.41 351.137 336.36 373C298.811 382.323 280.36 406 280.36 459C280.36 545.63 397.323 555.911 488.156 563.894L489.36 564C580.36 572 641.36 577 675.36 539C709.36 501 686.171 326.679 666.023 266.227C661.042 251.283 656.987 244.497 650.074 245.895L578.471 260.372Z" fill="url(#paint5_linear)"/>
<path d="M572.654 132.61C573.698 128.026 578.081 125.007 582.736 125.665C587.768 126.377 591.224 131.095 590.386 136.107L581.411 189.789C580.465 195.451 575.191 199.336 569.504 198.563C563.322 197.723 559.192 191.763 560.577 185.681L572.654 132.61Z" fill="#EAF1FF"/>
<path d="M597.357 125.328C598.565 120.069 603.626 116.635 608.959 117.455C614.526 118.312 618.372 123.483 617.591 129.061L610.269 181.363C609.296 188.314 602.825 193.127 595.888 192.06C588.658 190.947 583.895 183.928 585.533 176.799L597.357 125.328Z" fill="#EAF1FF"/>
<path d="M622.977 141.069C624.383 136.852 628.884 134.515 633.142 135.792C637.284 137.035 639.756 141.274 638.798 145.492L627.972 193.122C626.627 199.042 620.603 202.633 614.755 201.001C608.904 199.368 605.61 193.17 607.531 187.407L622.977 141.069Z" fill="#EAF1FF"/>
<path d="M640.278 164.457C642.132 161.317 645.999 160 649.384 161.354C653.076 162.83 654.936 166.964 653.594 170.707L643.295 199.419C641.256 205.103 634.779 207.812 629.3 205.273C623.785 202.717 621.681 195.959 624.771 190.724L640.278 164.457Z" fill="#EAF1FF"/>
<defs>
<linearGradient id="paint0_linear" x1="960" y1="817" x2="960" y2="643" gradientUnits="userSpaceOnUse">
<stop stop-color="#253EB0"/>
<stop offset="0.765625" stop-color="#182C8C"/>
<stop offset="1" stop-color="#112275"/>
</linearGradient>
<linearGradient id="paint1_linear" x1="960" y1="539" x2="960" y2="683" gradientUnits="userSpaceOnUse">
<stop stop-color="#5B82E8"/>
<stop offset="1" stop-color="#27419A"/>
</linearGradient>
<linearGradient id="paint2_linear" x1="508.393" y1="187.94" x2="535.894" y2="86.7944" gradientUnits="userSpaceOnUse">
<stop stop-color="white" stop-opacity="0.88"/>
<stop offset="1" stop-color="white" stop-opacity="0.28"/>
</linearGradient>
<linearGradient id="paint3_linear" x1="616.989" y1="175.959" x2="614.091" y2="173.48" gradientUnits="userSpaceOnUse">
<stop stop-color="#4B0C07"/>
<stop offset="1" stop-color="#83251A"/>
</linearGradient>
<linearGradient id="paint4_linear" x1="375.97" y1="299.196" x2="375.97" y2="538.758" gradientUnits="userSpaceOnUse">
<stop stop-color="#0B2AE7"/>
<stop offset="1" stop-color="#181369"/>
</linearGradient>
<linearGradient id="paint5_linear" x1="782.154" y1="465.787" x2="345.333" y2="571.996" gradientUnits="userSpaceOnUse">
<stop stop-color="#0F14C9"/>
<stop offset="1" stop-color="#001A75"/>
</linearGradient>
</defs>
</svg>
