<svg width="1048" height="804" viewBox="0 0 1048 804" fill="none" xmlns="http://www.w3.org/2000/svg">
<path d="M735.656 81.5991C739.044 87.4598 740.727 91.5067 742.979 95.1509L775.103 85.7908C775.103 85.7908 781.641 53.1781 780.221 42.5914C778.801 32.0047 774.877 24.9639 769.948 20.348C765.02 15.7321 747.503 6.49345 747.503 6.49345C742.892 3.81296 738.24 6.99138 738.24 6.99138C738.24 6.99138 735.193 7.15518 733.399 10.5985C731.234 14.7543 736.103 18.6811 739.085 22.7045C742.067 26.7278 742.975 27.7947 745.53 35.7457C747.681 42.4402 746.861 49.9863 746.549 52.2042C746.493 52.5974 746.198 52.9104 745.801 52.9018C744.544 52.8746 741.873 52.1356 741.565 46.4178C741.162 38.909 740.695 32.1008 734.573 32.4298C728.45 32.7589 727.138 41.3363 727.505 48.1499L728.297 62.8894C729.798 73.6766 733.963 78.6713 735.656 81.5991Z" fill="#ECF1FD"/>
<path d="M737.343 4.80853C743.821 7.74485 757.353 15.5865 759.375 34.7226" stroke="#0F0967" stroke-width="3" stroke-linecap="round"/>
<path d="M749 5.29755C759.682 11.4171 766.767 17.2205 770.069 27.8722" stroke="#0F0967" stroke-width="3" stroke-linecap="round"/>
<path d="M821.668 146.819C848.26 174.97 858.949 174.778 889.015 182.769C906.127 187.317 918.703 208.835 915.041 224.873C906.168 263.737 873.425 273.26 848.302 266.377C807.166 255.108 789.252 234.092 777.052 215.377C759.161 187.933 742.037 112.321 737.727 92.435C737.621 91.9481 737.9 91.4999 738.368 91.3284L778.059 76.7727C778.576 76.5832 779.151 76.8527 779.345 77.3679C791.612 109.866 806.613 130.881 821.668 146.819Z" fill="url(#paint0_linear)"/>
<path d="M841.353 92.2476C845.762 78.6155 851.273 67.5119 853.478 63.6641C861.855 50.9115 895.546 51.0214 911.345 52.6705C946.175 57.0679 960.762 84.9185 963.701 98.2942C967.669 121.601 967.559 136.955 967.008 141.719L871.665 192.29L865.602 187.343C834.299 158.759 831.617 129.626 834.189 118.632L829.78 116.983C824.048 114.785 824.085 109.471 824.82 107.089C826.143 101.372 831.617 100.676 834.189 101.043C838.157 100.163 840.618 94.8128 841.353 92.2476Z" fill="#E9F0FD"/>
<path d="M761.928 297.603L796.631 305.369L798.387 334.578C798.387 334.578 781.074 337.17 771.898 336.17C762.723 335.171 760.35 335.121 750.047 335.281C740.889 335.423 729.94 340.624 726.073 334.598C723.807 336.156 718.348 338.601 714.643 335.918C710.938 333.235 712.994 327.949 714.485 325.642L735.921 304.752C744.953 296.389 756.835 296.243 761.928 297.603Z" fill="#F1F1FC"/>
<path d="M1043.08 468C1052.11 435.87 1041.58 407 1036.08 394L840.077 395.75C762.077 401.35 760.076 439.5 753.076 453C747.076 479.5 749.576 498 756.077 544.5C762.577 591 775 621.836 775 621.836H834C839.5 586.336 840.077 538.5 840.077 500C903.076 506.5 972.41 504.333 1000.58 500C1020.08 497 1037.61 487.446 1043.08 468Z" fill="url(#paint1_linear)"/>
<path d="M868.577 530.122C868.577 514.313 881.393 501.497 897.202 501.497H988.452C1004.26 501.497 1017.08 514.313 1017.08 530.122V542.497C1017.08 545.258 1014.84 547.497 1012.08 547.497H873.577C870.815 547.497 868.577 545.258 868.577 542.497V530.122Z" fill="#0A0555"/>
<rect x="929.077" y="548.25" width="28.5" height="71.75" fill="url(#paint2_linear)"/>
<path d="M833.358 269.795C847.466 218.345 862.383 198.886 868.078 195.588L977.75 143.368L982.71 147.216C1052.64 195.588 1050.68 326.229 1043.33 382.48C1042.45 391.715 1031.94 396.222 1026.8 397.322C969.924 409.195 865.323 402.269 831.153 397.322C823.217 396.882 821.233 383.58 821.233 376.983C820.352 334.768 828.949 287.935 833.358 269.795Z" fill="url(#paint3_linear)"/>
<path d="M922.575 27.3851C931.834 22.5479 938.19 30.4999 940.211 35.0806C941.974 39.4781 946.09 42.7762 947.927 43.8755C963.799 53.9897 970.523 90.0489 972.176 107.089C972.496 110.387 972.176 111.487 969.42 113.136L961.705 118.083L929.189 136.222C924.78 138.861 920.371 136.955 918.718 135.673C913.868 131.275 910.818 126.145 909.9 124.129C916.954 121.491 922.024 117.533 923.678 115.884C927.536 111.487 929.189 105.99 924.78 102.142C921.253 99.0637 917.064 101.226 915.411 102.692C910.561 106.21 907.144 107.089 906.042 107.089C902.074 107.969 900.347 100.493 899.98 96.6451L899.429 85.6514C895.461 85.6514 883.079 83.4527 877.384 82.3533C841.231 76.6366 834.397 58.3505 835.499 49.922C835.499 42.4464 841.745 42.0433 844.868 42.7762C855.449 44.0954 868.75 43.3258 874.077 42.7762C898.326 40.5774 916.513 31.5993 922.575 27.3851Z" fill="#0F43EC"/>
<path d="M913.86 113.044C912.691 113.875 909.361 115.843 905.389 117.075" stroke="#0F0967" stroke-width="3" stroke-linecap="round"/>
<path d="M842.113 125.229L849.277 124.129C850.563 123.763 853.135 123.909 853.135 127.427C853.135 131.825 850.931 137.322 844.868 140.07" stroke="#0F0967" stroke-width="3" stroke-linecap="round" stroke-linejoin="round"/>
<path d="M860.574 275.461C894.198 256.183 896.49 245.768 911.26 218.448C919.665 202.899 943.333 196.182 958.36 202.952C992.75 218.448 990.141 252.255 977.6 275.035C957.065 312.337 933.504 322.171 912.423 329.672C881.533 340.662 805.544 337.878 785.119 337.396C784.598 337.384 784.216 336.976 784.184 336.457L782.083 301.494C782.051 300.967 782.441 300.505 782.965 300.439C817.536 296.071 841.527 286.381 860.574 275.461Z" fill="url(#paint4_linear)"/>
<ellipse cx="857.656" cy="97.8569" rx="2.86834" ry="2.86089" fill="#0F0967"/>
<path d="M863.631 190.924C912.587 172.028 954.932 144.458 970.151 132.893C971.914 131.576 973.825 133.077 974.56 133.992C977.315 137.425 981.173 142.237 982.826 144.986C983.708 146.745 983.194 147.918 982.826 148.284C968.277 161.916 895.934 195.74 861.581 210.948C857.172 212.597 856.621 212.597 854.968 212.047C853.645 211.607 854.417 209.299 854.968 208.199L860.765 193.744C861.285 192.447 862.327 191.428 863.631 190.924Z" fill="#3375F5"/>
<path d="M331.519 700.447C329.013 592.517 307.805 426.176 297.899 368.601L241.412 370.396L244.964 482.216C241.848 558.475 228.841 664.859 222.343 696.414C220.762 704.773 225.759 707.076 228.454 707.183C253.047 718.518 313.495 714.29 323.257 712.826C331.067 711.654 332.019 704.085 331.519 700.447Z" fill="url(#paint5_linear)"/>
<path d="M34.3809 676.461C42.8621 704.371 58.9504 749.244 80.8882 793.53" stroke="white" stroke-width="3"/>
<path d="M80.7301 666.716C79.3603 659.348 70.9705 661.24 66.7193 663.195C66.5592 663.269 66.3955 663.33 66.2258 663.377C48.3697 668.339 33.5004 675.157 26.5692 678.845C25.3466 679.495 24.7782 680.909 25.1745 682.236C38.07 725.407 60.7002 776.538 70.5356 796.469C71.2223 797.861 72.8534 798.46 74.2955 797.887L85.4551 793.454C101.748 786.981 101.59 772.699 96.1355 752.931C90.864 733.826 93.0318 721.407 95.2358 716.747C95.3809 716.441 95.5984 716.176 95.833 715.931C99.8115 711.775 94.544 707.502 91.3156 705.846L81.0049 699.864C72.1445 693.155 75.0847 684.125 77.8247 680.167C77.957 679.975 78.1178 679.811 78.2814 679.646C79.7858 678.128 82.0487 673.81 80.7301 666.716Z" stroke="white" stroke-width="3"/>
<path d="M274.667 565.341L290.507 404.886L289.567 375.272L163.845 379.266C143.561 424.327 162.746 512.996 174.658 544.902L60.7838 630.568C56.4561 634.161 57.2395 641.991 58.1722 645.457C63.2753 681.816 105.011 721.7 125.242 737.097C130.837 742.348 136.612 738.997 138.8 736.666L261.174 588.422C269.258 578.789 272.026 576.681 274.667 565.341Z" fill="url(#paint6_linear)"/>
<path d="M435.998 165.781C435.835 176 438.464 184.271 439.799 187.13L439.475 190.957L463.493 197.019L467.659 193.342C474.811 188.34 482.632 177.904 485.649 173.312C488.498 167.806 499.759 161.869 503.969 157.67C509.392 153.222 508.257 149.797 507.011 148.64C504.161 145.876 501.532 148.177 499.239 149.385L487.93 157.067C487.296 157.497 486.531 156.743 486.951 156.103L501.809 133.502C504.111 129.492 503.088 126.098 501.313 124.875C498.531 122.957 495.281 125.065 494.003 126.359L477.543 150.326C476.883 151.287 475.391 150.532 475.775 149.43L485.236 122.288C487.146 116.282 484.802 113.607 483.392 113.02C479.879 111.461 476.851 114.394 475.776 116.055L464.587 144.684C464.161 145.775 462.53 145.371 462.662 144.208L465.579 118.522C465.923 112.804 462.172 111.166 460.253 111.062C455.323 111.346 454.211 115.515 454.271 117.565L450.961 145.299C450.107 155.39 448.669 157.897 446.875 154.24L440.441 138.122C438.093 132.737 432.795 134.613 430.439 136.224C427.453 140.037 430.565 147.858 432.494 151.292C435.049 157.536 435.895 163.553 435.998 165.781Z" fill="#ECF1FD"/>
<path d="M111.799 446.081C108.766 431.094 100.061 419.285 96.745 418.603L65.751 418.603C64.0775 429.914 60.2491 449.083 62.185 461.339C63.8378 471.806 70.5225 476.305 70.5225 476.305C70.5225 476.305 74.0827 484.084 76.884 487.052C79.6853 490.02 84.5028 489.172 84.5028 489.172C84.5028 489.172 85.0988 489.859 88.4997 494.948C90.7621 498.333 92.8532 500.324 95.512 498.869C101.228 495.74 98.6564 489.752 94.275 481.412C91.455 476.044 91.7182 471.198 91.6871 467.813C91.6018 458.535 93.3293 451.443 96.438 453.535C100.094 455.996 98.4322 459.711 102.485 468.063C104.28 472.868 109.001 474.265 111.784 472.915C116.626 471.452 115.601 467.199 115.042 464.414C115.042 464.414 114.832 461.068 111.799 446.081Z" fill="#EAF1FF"/>
<path d="M87.5781 496.429C86.1728 494.383 76.9795 479.131 77.7212 468.556" stroke="#0F0967" stroke-width="3" stroke-linecap="round"/>
<path d="M71.6966 482.12C69.4955 477.584 68.3957 472.513 67.7232 464.043" stroke="#0F0967" stroke-width="3" stroke-linecap="round"/>
<path d="M304.647 194.057L302.234 199.279C307.615 206.31 309.259 217.491 309.409 222.203L314.732 389.777C314.895 394.917 309.007 398.962 306.042 400.343C275.456 411.604 214.48 399.712 189.857 395.778C182.644 396.007 180.651 390.068 180.555 387.07L192.198 225.926C192.51 203.279 205.387 194.638 211.786 193.149L236.218 191.086L245.991 174.055C248.919 168.817 253.195 170.825 254.967 172.484C275.935 183.136 294.943 186.22 301.826 186.43C305.98 187.327 305.437 191.888 304.647 194.057Z" fill="#2F72F4"/>
<path d="M267.246 241.769C262.378 215.687 245.082 196.902 236.476 190.281C236.093 189.986 235.611 189.857 235.129 189.897C135.962 198.304 81.6148 274.773 68.7182 308.615C50.0573 357.583 56.9697 391.727 57.9791 420.878C57.9932 421.285 58.129 421.681 58.3844 421.998C67.8405 433.736 91.4844 427.987 102.658 426.68C103.699 426.559 104.499 425.686 104.505 424.638C104.699 391.416 110.076 362.471 118.511 348.554C132.873 324.86 146.232 319.329 162.324 315.578C167.452 314.382 166.373 321.043 165.192 324.523C157.818 352.643 140.257 419.225 126.641 451.501C124.74 456.726 127.789 460.502 129.55 461.737C141.3 473.757 167.576 479.463 179.245 480.814C200.057 485.317 222.194 477.298 230.661 472.726C261.207 458.329 270.209 389.277 270.892 356.55C272.121 297.643 268.973 255.484 267.246 241.769Z" fill="url(#paint7_linear)"/>
<path d="M267.246 241.769C262.378 215.687 245.082 196.902 236.476 190.281C236.093 189.986 235.611 189.857 235.129 189.897C135.962 198.304 81.6148 274.773 68.7182 308.615C50.0573 357.583 56.9697 391.727 57.9791 420.878C57.9932 421.285 58.129 421.681 58.3844 421.998C67.8405 433.736 91.4844 427.987 102.658 426.68C103.699 426.559 104.499 425.686 104.505 424.638C104.699 391.416 110.076 362.471 118.511 348.554C132.873 324.86 146.232 319.329 162.324 315.578C167.452 314.382 166.373 321.043 165.192 324.523C157.818 352.643 140.257 419.225 126.641 451.501C124.74 456.726 127.789 460.502 129.55 461.737C141.3 473.757 167.576 479.463 179.245 480.814C200.057 485.317 222.194 477.298 230.661 472.726C261.207 458.329 270.209 389.277 270.892 356.55C272.121 297.643 268.973 255.484 267.246 241.769Z" fill="url(#paint8_radial)" fill-opacity="0.3"/>
<path d="M294.844 223.699C297.115 206.853 300.617 199.934 302.522 198.083C302.847 197.768 303.32 197.701 303.764 197.791C317.883 200.663 325.129 212.166 329.621 218.728C348.616 246.481 364.572 246.404 374.468 245.66C403.448 243.742 427.163 205.719 436.301 185.108C436.78 184.028 438.074 183.574 439.126 184.11C449.939 189.621 461.654 193.069 467.869 194.501C468.975 194.756 469.677 195.866 469.409 196.969C457.534 245.775 439.77 280.536 427.41 293.219C396.532 331.322 356.052 314.56 324.933 315.548C325.731 373.268 330.632 427.076 332.983 446.766C334.278 454.974 329.459 458.048 326.888 458.56L315.336 461.505C288.525 462.356 287.422 416.777 288.826 393.101C290.096 335.316 291.988 256.014 294.844 223.699Z" fill="url(#paint9_linear)"/>
<path d="M294.844 223.699C297.115 206.853 300.617 199.934 302.522 198.083C302.847 197.768 303.32 197.701 303.764 197.791C317.883 200.663 325.129 212.166 329.621 218.728C348.616 246.481 364.572 246.404 374.468 245.66C403.448 243.742 427.163 205.719 436.301 185.108C436.78 184.028 438.074 183.574 439.126 184.11C449.939 189.621 461.654 193.069 467.869 194.501C468.975 194.756 469.677 195.866 469.409 196.969C457.534 245.775 439.77 280.536 427.41 293.219C396.532 331.322 356.052 314.56 324.933 315.548C325.731 373.268 330.632 427.076 332.983 446.766C334.278 454.974 329.459 458.048 326.888 458.56L315.336 461.505C288.525 462.356 287.422 416.777 288.826 393.101C290.096 335.316 291.988 256.014 294.844 223.699Z" fill="url(#paint10_radial)" fill-opacity="0.3"/>
<path d="M252.288 169.711C243.355 182.9 219.598 195.767 197.872 188.949C182.522 184.132 170.47 174.902 151.07 152.994" stroke="#003BF9" stroke-width="3"/>
<path d="M346.435 130.274C347.474 104.09 338.116 89.2879 333.307 85.16C322.811 73.8187 293.586 57.0014 260.651 80.4631C227.716 103.925 232.932 140.495 239.657 155.848C256.375 181.468 283.92 187.131 295.603 186.76C329.22 184.758 340.802 161.586 342.391 150.25C349.868 150.012 353.27 146.402 353.852 142.881C355.209 134.665 349.198 131.354 346.435 130.274Z" fill="#ECF1FD"/>
<path d="M267.292 128.275C270.679 129.919 274.478 134.05 272.46 141.368" stroke="#0F0967" stroke-width="3" stroke-linecap="round" stroke-linejoin="round"/>
<path d="M346.162 74.5633C353.009 84.5917 345.6 93.5981 341.04 96.8478C333.382 83.1195 317.164 86.4055 309.298 88.5417C288.291 94.2469 283.833 114.586 282.722 125.98C282.645 126.77 281.728 127.173 281.098 126.691L269.42 117.752C260.828 111.505 255.745 115.469 254.278 118.233C250.758 124.865 253.107 130.301 254.722 132.19L263.133 140.073C267.75 145.748 263.872 163.336 255.941 170.574C215.83 199.791 176.888 177.742 162.431 163.065C151.827 152.225 144.347 151.462 135.273 152.285C119.462 153.719 111.723 152.049 108.225 144.994C104.246 136.97 111.638 129.75 115.75 124.962C130.148 108.204 166.819 105.487 183.951 106.495C203.548 106.804 213.656 94.4926 219.281 80.9224C231.41 51.6623 258.638 42.4144 277.273 41.8225C326.772 42.0153 337.678 59.9512 336.955 69.8113C336.902 70.5435 337.563 71.1852 338.296 71.1418C342.16 70.913 345.088 73.2246 346.162 74.5633Z" fill="#0F43EC"/>
<path d="M332 86.2499C309.5 84.7501 301.616 93.8156 296 106C291.819 115.071 289.5 125.34 281.484 125.34" stroke="#003BF9" stroke-width="3"/>
<ellipse cx="330.488" cy="121.098" rx="3.27667" ry="3.28075" transform="rotate(-1.81941 330.488 121.098)" fill="#0F0967"/>
<path d="M330.369 151.738C327.322 151.47 320.092 150.97 315.366 145.649C314.39 150.786 315.135 159.88 321.646 164.05" stroke="#0F0967" stroke-width="3" stroke-linecap="round" stroke-linejoin="round"/>
<path d="M182.275 314.444C160.786 315.127 118 320 107 384C104.33 394.424 102.5 411.5 102.5 426C93 429.5 72.5 433.5 59 422.5" stroke="white" stroke-width="3" stroke-linecap="round" stroke-linejoin="round"/>
<path d="M203.125 360.929C204.414 358.487 207.438 357.551 209.88 358.839L231.771 370.387C234.214 371.675 235.149 374.7 233.861 377.142L215.833 411.318C214.545 413.76 211.521 414.696 209.078 413.408L187.187 401.86C184.745 400.572 183.809 397.547 185.098 395.105L203.125 360.929Z" fill="#C3CFE1"/>
<circle cx="208.983" cy="371.506" r="4.62182" transform="rotate(27.8115 208.983 371.506)" fill="#7F9AC1"/>
<circle cx="203.059" cy="382.737" r="4.62182" transform="rotate(27.8115 203.059 382.737)" fill="#7F9AC1"/>
<circle cx="197.135" cy="393.968" r="4.62182" transform="rotate(27.8115 197.135 393.968)" fill="#7F9AC1"/>
<circle cx="221.587" cy="378.154" r="4.62182" transform="rotate(27.8115 221.587 378.154)" fill="#7F9AC1"/>
<circle cx="215.663" cy="389.385" r="4.62182" transform="rotate(27.8115 215.663 389.385)" fill="#7F9AC1"/>
<circle cx="209.739" cy="400.617" r="4.62182" transform="rotate(27.8115 209.739 400.617)" fill="#7F9AC1"/>
<circle cx="208.776" cy="370.835" r="4.125" transform="rotate(27.8115 208.776 370.835)" fill="white"/>
<circle cx="202.851" cy="382.066" r="4.125" transform="rotate(27.8115 202.851 382.066)" fill="white"/>
<circle cx="196.927" cy="393.297" r="4.125" transform="rotate(27.8115 196.927 393.297)" fill="white"/>
<circle cx="221.38" cy="377.483" r="4.125" transform="rotate(27.8115 221.38 377.483)" fill="white"/>
<circle cx="215.455" cy="388.714" r="4.125" transform="rotate(27.8115 215.455 388.714)" fill="white"/>
<circle cx="209.531" cy="399.945" r="4.125" transform="rotate(27.8115 209.531 399.945)" fill="white"/>
<path d="M240.729 368.03L188.306 360.927C185.733 360.578 183.319 362.257 182.767 364.794C172.92 410.035 174.866 422.281 203.471 425.811C233.664 429.536 239.664 405.764 244.984 373.79C245.445 371.016 243.516 368.408 240.729 368.03Z" fill="#2418D9"/>
<path d="M352.048 530.122C352.048 514.313 364.864 501.497 380.673 501.497H471.923C487.732 501.497 500.548 514.313 500.548 530.122V542.497C500.548 545.258 498.309 547.497 495.548 547.497H357.048C354.286 547.497 352.048 545.258 352.048 542.497V530.122Z" fill="#0A0555"/>
<rect x="412.548" y="545.497" width="28.5" height="71.75" fill="url(#paint11_linear)"/>
<path fill-rule="evenodd" clip-rule="evenodd" d="M482.762 337.629C471.716 337.629 462.762 346.583 462.762 357.629V360.836C462.762 361.941 463.657 362.836 464.762 362.836H642.737C643.289 362.836 643.737 363.284 643.737 363.836V726.074C643.737 726.627 644.185 727.074 644.737 727.074H669.237C669.789 727.074 670.237 726.627 670.237 726.074V363.836C670.237 363.284 670.684 362.836 671.237 362.836H851.15C852.255 362.836 853.15 361.941 853.15 360.836V357.629C853.15 346.583 844.196 337.629 833.15 337.629H482.762Z" fill="url(#paint12_linear)"/>
<defs>
<linearGradient id="paint0_linear" x1="767.905" y1="88.0164" x2="846.13" y2="268.919" gradientUnits="userSpaceOnUse">
<stop stop-color="#6699FB"/>
<stop offset="1" stop-color="#2449A8"/>
</linearGradient>
<linearGradient id="paint1_linear" x1="904.529" y1="394" x2="904.529" y2="620.5" gradientUnits="userSpaceOnUse">
<stop stop-color="#0315B5"/>
<stop offset="1" stop-color="#0C1672"/>
</linearGradient>
<linearGradient id="paint2_linear" x1="943.327" y1="498" x2="943.327" y2="620" gradientUnits="userSpaceOnUse">
<stop stop-color="#344FAD"/>
<stop offset="1" stop-color="#344FAD" stop-opacity="0"/>
</linearGradient>
<linearGradient id="paint3_linear" x1="933.986" y1="143.368" x2="933.986" y2="403.877" gradientUnits="userSpaceOnUse">
<stop stop-color="#1209A2"/>
<stop offset="1" stop-color="#0A0555"/>
</linearGradient>
<linearGradient id="paint4_linear" x1="744.104" y1="312.016" x2="931.39" y2="214.864" gradientUnits="userSpaceOnUse">
<stop offset="0.0208333" stop-color="#2F65E7"/>
<stop offset="1" stop-color="#6B9EFF"/>
</linearGradient>
<linearGradient id="paint5_linear" x1="266.315" y1="369.605" x2="277.294" y2="715.254" gradientUnits="userSpaceOnUse">
<stop offset="0.442708" stop-color="#09054F"/>
<stop offset="1" stop-color="#0D1974"/>
</linearGradient>
<linearGradient id="paint6_linear" x1="169.421" y1="379.089" x2="217.622" y2="819.717" gradientUnits="userSpaceOnUse">
<stop stop-color="#030037"/>
<stop offset="1" stop-color="#0823C4"/>
</linearGradient>
<linearGradient id="paint7_linear" x1="158.647" y1="191.747" x2="167.897" y2="482.951" gradientUnits="userSpaceOnUse">
<stop stop-color="#1F13CB"/>
<stop offset="1" stop-color="#140B90"/>
</linearGradient>
<radialGradient id="paint8_radial" cx="0" cy="0" r="1" gradientUnits="userSpaceOnUse" gradientTransform="translate(233 171) rotate(156.383) scale(134.79 100.765)">
<stop stop-color="#5177FF"/>
<stop offset="1" stop-color="#6877FF" stop-opacity="0"/>
</radialGradient>
<linearGradient id="paint9_linear" x1="373.548" y1="185.109" x2="382.261" y2="459.395" gradientUnits="userSpaceOnUse">
<stop stop-color="#1F13C7"/>
<stop offset="1" stop-color="#140B91"/>
</linearGradient>
<radialGradient id="paint10_radial" cx="0" cy="0" r="1" gradientUnits="userSpaceOnUse" gradientTransform="translate(315.5 200) rotate(93.8607) scale(81.6854 56.0121)">
<stop stop-color="#4A4EEC"/>
<stop offset="1" stop-color="#3439DE" stop-opacity="0"/>
</radialGradient>
<linearGradient id="paint11_linear" x1="426.798" y1="495.247" x2="426.798" y2="617.247" gradientUnits="userSpaceOnUse">
<stop stop-color="#344FAD"/>
<stop offset="1" stop-color="#344FAD" stop-opacity="0"/>
</linearGradient>
<linearGradient id="paint12_linear" x1="657.956" y1="409.076" x2="657.956" y2="727.075" gradientUnits="userSpaceOnUse">
<stop stop-color="#4D82EA"/>
<stop offset="1" stop-color="#191768"/>
</linearGradient>
</defs>
</svg>
