<svg width="163" height="111" viewBox="0 0 163 111" fill="none" xmlns="http://www.w3.org/2000/svg">
<path fill-rule="evenodd" clip-rule="evenodd" d="M61.0537 0.895508C73.3945 7.14766 92.6402 12.6554 112 6.00037C137.6 -2.79963 155.667 2.3337 161.5 6.00037L162.379 5.16536C157.993 26.272 149.962 44.6339 143.052 56.2244C108.257 116.066 54.8631 113.548 29.4562 106.672C2.02956 99.2498 -0.904198 80.288 1.31313 71.0103C2.00271 65.1495 7.63341 63.4319 15.2595 61.1056L15.2598 61.1055L15.2607 61.1052C16.6883 60.6697 18.1859 60.2129 19.7341 59.7036C49.0118 50.0712 58.8197 22.7846 61.0537 0.895508ZM126.286 15.2007C126.286 18.6894 123.458 21.5176 119.969 21.5176C116.481 21.5176 113.652 18.6894 113.652 15.2007C113.652 11.712 116.481 8.88379 119.969 8.88379C123.458 8.88379 126.286 11.712 126.286 15.2007ZM104.879 35.8344C107.534 35.8344 109.686 33.6819 109.686 31.0266C109.686 28.3713 107.534 26.2188 104.879 26.2188C102.223 26.2188 100.071 28.3713 100.071 31.0266C100.071 33.6819 102.223 35.8344 104.879 35.8344ZM131.166 39.417C131.166 41.3958 129.562 43 127.583 43C125.604 43 124 41.3958 124 39.417C124 37.4382 125.604 35.834 127.583 35.834C129.562 35.834 131.166 37.4382 131.166 39.417ZM65.5151 46.583C67.494 46.583 69.0981 44.9788 69.0981 43C69.0981 41.0212 67.494 39.417 65.5151 39.417C63.5363 39.417 61.9321 41.0212 61.9321 43C61.9321 44.9788 63.5363 46.583 65.5151 46.583Z" fill="#CA0D7B"/>
</svg>
