<svg width="620" height="917" viewBox="0 0 620 917" fill="none" xmlns="http://www.w3.org/2000/svg">
<path d="M1 20C1 9.50657 9.50659 1 20 1H600C610.493 1 619 9.50659 619 20V897C619 907.493 610.493 916 600 916H20C9.50661 916 1 907.493 1 897V20Z" stroke="#4055A0" stroke-width="2"/>
<g clip-path="url(#clip0)">
<path d="M181.616 591.226C181.616 584.258 176.244 577.161 169.209 574.71C165.244 573.29 160.384 572.645 154.884 572.645C149.256 572.645 144.523 573.29 140.558 574.71C133.523 577.161 128.151 584.258 128.151 591.226V616.516C128.151 619.226 130.326 621.29 133.012 621.29C135.698 621.29 137.872 619.097 137.872 616.387V589.936C137.872 589.161 138.512 588.645 139.151 588.645C139.919 588.645 140.43 589.29 140.43 589.936V626.839V628.903V663.871C140.43 666.194 142.093 668 144.139 668H149.128C150.023 668 150.919 667.613 151.558 666.968C152.326 666.194 152.837 665.032 152.837 663.871L152.709 626.968C152.709 625.807 153.605 624.903 154.756 624.903C155.907 624.903 156.802 625.807 156.802 626.968L156.93 663.871C156.93 666.194 158.593 668 160.639 668H165.5C167.546 668 169.209 666.194 169.209 663.871V628.903V589.936C169.209 589.161 169.849 588.645 170.488 588.645C171.256 588.645 171.767 589.29 171.767 589.936V616.258C171.767 616.258 171.767 616.258 171.767 616.387C171.767 616.387 171.767 616.387 171.767 616.516C171.767 619.226 173.942 621.419 176.628 621.419C177.395 621.419 178.163 621.161 178.802 620.903C180.081 620.387 181.105 619.226 181.36 617.548C181.36 617.419 181.36 617.419 181.36 617.29C181.36 617.161 181.36 617.161 181.36 617.032C181.36 616.774 181.36 616.645 181.36 616.387V591.226H181.616Z" fill="#FF7BF9"/>
<path d="M154.884 569.935C160.888 569.935 165.756 565.025 165.756 558.968C165.756 552.91 160.888 548 154.884 548C148.879 548 144.012 552.91 144.012 558.968C144.012 565.025 148.879 569.935 154.884 569.935Z" fill="#FF7BF9"/>
</g>
<g clip-path="url(#clip1)">
<path d="M385.637 591.226C385.637 584.258 380.558 577.161 373.907 574.71C370.158 573.29 365.563 572.645 360.363 572.645C355.042 572.645 350.567 573.29 346.819 574.71C340.167 577.161 335.088 584.258 335.088 591.226V616.516C335.088 619.226 337.144 621.29 339.684 621.29C342.223 621.29 344.279 619.097 344.279 616.387V589.936C344.279 589.161 344.884 588.645 345.488 588.645C346.214 588.645 346.698 589.29 346.698 589.936V626.839V628.903V663.871C346.698 666.194 348.27 668 350.205 668H354.921C355.767 668 356.614 667.613 357.219 666.968C357.944 666.194 358.428 665.032 358.428 663.871L358.307 626.968C358.307 625.807 359.153 624.903 360.242 624.903C361.33 624.903 362.177 625.807 362.177 626.968L362.298 663.871C362.298 666.194 363.87 668 365.805 668H370.4C372.335 668 373.907 666.194 373.907 663.871V628.903V589.936C373.907 589.161 374.512 588.645 375.116 588.645C375.842 588.645 376.326 589.29 376.326 589.936V616.258C376.326 616.258 376.326 616.258 376.326 616.387C376.326 616.387 376.326 616.387 376.326 616.516C376.326 619.226 378.381 621.419 380.921 621.419C381.647 621.419 382.372 621.161 382.977 620.903C384.186 620.387 385.154 619.226 385.395 617.548C385.395 617.419 385.395 617.419 385.395 617.29C385.395 617.161 385.395 617.161 385.395 617.032C385.395 616.774 385.395 616.645 385.395 616.387V591.226H385.637Z" fill="#2A4AAC"/>
<path d="M360.363 569.935C366.04 569.935 370.642 565.025 370.642 558.968C370.642 552.91 366.04 548 360.363 548C354.686 548 350.084 552.91 350.084 558.968C350.084 565.025 354.686 569.935 360.363 569.935Z" fill="#2A4AAC"/>
</g>
<path d="M288.666 608.771L279.866 582.958C278.799 580.004 276.799 577.436 274.132 575.381C270.532 572.813 265.999 571.4 261.332 571.4H253.999C249.332 571.4 244.799 572.813 241.199 575.381C238.399 577.436 236.399 580.004 235.332 582.958L226.399 608.771C225.732 610.44 225.999 612.366 226.932 613.908C227.066 614.036 227.066 614.164 227.199 614.293C229.332 616.733 233.599 615.834 234.666 612.752L242.932 589.379C243.066 588.865 243.732 588.48 244.266 588.737C244.799 588.865 245.199 589.508 244.932 590.021L232.266 629.19C231.999 630.217 232.799 631.116 233.866 631.116H244.666C245.599 631.116 246.266 631.886 246.266 632.657V664.249C246.266 666.303 248.399 667.973 250.932 667.973C253.466 667.973 255.599 666.303 255.599 664.249V633.042C255.599 631.886 256.532 630.988 257.732 630.988C258.932 630.988 259.866 631.886 259.866 633.042V664.249C259.866 666.303 261.999 667.973 264.532 667.973C267.066 667.973 269.199 666.303 269.199 664.249V632.785C269.199 631.886 269.999 631.244 270.799 631.244H281.599C282.666 631.244 283.466 630.217 283.199 629.318L270.399 590.15C270.266 589.636 270.532 588.994 271.066 588.865C271.599 588.609 272.266 588.994 272.532 589.508L280.666 613.009C281.732 616.091 285.999 617.118 288.132 614.55C288.266 614.421 288.266 614.293 288.399 614.164C289.199 612.238 289.332 610.44 288.666 608.771Z" fill="#2A4AAC"/>
<path d="M257.6 547C251.467 547 246.4 551.88 246.4 557.787C246.4 563.695 251.467 568.575 257.6 568.575C263.733 568.575 268.8 563.695 268.8 557.787C268.8 551.88 263.733 547 257.6 547Z" fill="#2A4AAC"/>
<path d="M491.688 608.771L483.025 582.958C481.975 580.004 480.006 577.436 477.381 575.381C473.838 572.813 469.375 571.4 464.781 571.4H457.563C452.969 571.4 448.506 572.813 444.963 575.381C442.206 577.436 440.238 580.004 439.188 582.958L430.394 608.771C429.738 610.44 430 612.366 430.919 613.908C431.05 614.036 431.05 614.164 431.181 614.293C433.281 616.733 437.481 615.834 438.531 612.752L446.669 589.379C446.8 588.865 447.456 588.48 447.981 588.737C448.506 588.865 448.9 589.508 448.638 590.021L436.169 629.19C435.906 630.217 436.694 631.116 437.744 631.116H448.375C449.294 631.116 449.95 631.886 449.95 632.657V664.249C449.95 666.303 452.05 667.973 454.544 667.973C457.038 667.973 459.138 666.303 459.138 664.249V633.042C459.138 631.886 460.056 630.988 461.238 630.988C462.419 630.988 463.338 631.886 463.338 633.042V664.249C463.338 666.303 465.438 667.973 467.931 667.973C470.425 667.973 472.525 666.303 472.525 664.249V632.785C472.525 631.886 473.313 631.244 474.1 631.244H484.731C485.781 631.244 486.569 630.217 486.306 629.318L473.706 590.15C473.575 589.636 473.838 588.994 474.363 588.865C474.888 588.609 475.544 588.994 475.806 589.508L483.813 613.009C484.863 616.091 489.063 617.118 491.163 614.55C491.294 614.421 491.294 614.293 491.425 614.164C492.213 612.238 492.344 610.44 491.688 608.771Z" fill="#00D7D7"/>
<path d="M461.106 547C455.069 547 450.081 551.88 450.081 557.787C450.081 563.695 455.069 568.575 461.106 568.575C467.144 568.575 472.131 563.695 472.131 557.787C472.131 551.88 467.144 547 461.106 547Z" fill="#00D7D7"/>
<g clip-path="url(#clip2)">
<path d="M181.616 738.226C181.616 731.258 176.244 724.161 169.209 721.71C165.244 720.29 160.384 719.645 154.884 719.645C149.256 719.645 144.523 720.29 140.558 721.71C133.523 724.161 128.151 731.258 128.151 738.226V763.516C128.151 766.226 130.326 768.29 133.012 768.29C135.698 768.29 137.872 766.097 137.872 763.387V736.936C137.872 736.161 138.512 735.645 139.151 735.645C139.919 735.645 140.43 736.29 140.43 736.936V773.839V775.903V810.871C140.43 813.194 142.093 815 144.139 815H149.128C150.023 815 150.919 814.613 151.558 813.968C152.326 813.194 152.837 812.032 152.837 810.871L152.709 773.968C152.709 772.807 153.605 771.903 154.756 771.903C155.907 771.903 156.802 772.807 156.802 773.968L156.93 810.871C156.93 813.194 158.593 815 160.639 815H165.5C167.546 815 169.209 813.194 169.209 810.871V775.903V736.936C169.209 736.161 169.849 735.645 170.488 735.645C171.256 735.645 171.767 736.29 171.767 736.936V763.258C171.767 763.258 171.767 763.258 171.767 763.387C171.767 763.387 171.767 763.387 171.767 763.516C171.767 766.226 173.942 768.419 176.628 768.419C177.395 768.419 178.163 768.161 178.802 767.903C180.081 767.387 181.105 766.226 181.36 764.548C181.36 764.419 181.36 764.419 181.36 764.29C181.36 764.161 181.36 764.161 181.36 764.032C181.36 763.774 181.36 763.645 181.36 763.387V738.226H181.616Z" fill="#2A4AAC"/>
<path d="M154.884 716.935C160.888 716.935 165.756 712.025 165.756 705.968C165.756 699.91 160.888 695 154.884 695C148.879 695 144.012 699.91 144.012 705.968C144.012 712.025 148.879 716.935 154.884 716.935Z" fill="#2A4AAC"/>
</g>
<g clip-path="url(#clip3)">
<path d="M385.637 738.226C385.637 731.258 380.558 724.161 373.907 721.71C370.158 720.29 365.563 719.645 360.363 719.645C355.042 719.645 350.567 720.29 346.819 721.71C340.167 724.161 335.088 731.258 335.088 738.226V763.516C335.088 766.226 337.144 768.29 339.684 768.29C342.223 768.29 344.279 766.097 344.279 763.387V736.936C344.279 736.161 344.884 735.645 345.488 735.645C346.214 735.645 346.698 736.29 346.698 736.936V773.839V775.903V810.871C346.698 813.194 348.27 815 350.205 815H354.921C355.767 815 356.614 814.613 357.219 813.968C357.944 813.194 358.428 812.032 358.428 810.871L358.307 773.968C358.307 772.807 359.153 771.903 360.242 771.903C361.33 771.903 362.177 772.807 362.177 773.968L362.298 810.871C362.298 813.194 363.87 815 365.805 815H370.4C372.335 815 373.907 813.194 373.907 810.871V775.903V736.936C373.907 736.161 374.512 735.645 375.116 735.645C375.842 735.645 376.326 736.29 376.326 736.936V763.258C376.326 763.258 376.326 763.258 376.326 763.387C376.326 763.387 376.326 763.387 376.326 763.516C376.326 766.226 378.381 768.419 380.921 768.419C381.647 768.419 382.372 768.161 382.977 767.903C384.186 767.387 385.154 766.226 385.395 764.548C385.395 764.419 385.395 764.419 385.395 764.29C385.395 764.161 385.395 764.161 385.395 764.032C385.395 763.774 385.395 763.645 385.395 763.387V738.226H385.637Z" fill="#2A4AAC"/>
<path d="M360.363 716.935C366.04 716.935 370.642 712.025 370.642 705.968C370.642 699.91 366.04 695 360.363 695C354.686 695 350.084 699.91 350.084 705.968C350.084 712.025 354.686 716.935 360.363 716.935Z" fill="#2A4AAC"/>
</g>
<path d="M288.666 755.771L279.866 729.958C278.799 727.004 276.799 724.436 274.132 722.381C270.532 719.813 265.999 718.4 261.332 718.4H253.999C249.332 718.4 244.799 719.813 241.199 722.381C238.399 724.436 236.399 727.004 235.332 729.958L226.399 755.771C225.732 757.44 225.999 759.366 226.932 760.908C227.066 761.036 227.066 761.164 227.199 761.293C229.332 763.733 233.599 762.834 234.666 759.752L242.932 736.379C243.066 735.865 243.732 735.48 244.266 735.737C244.799 735.865 245.199 736.508 244.932 737.021L232.266 776.19C231.999 777.217 232.799 778.116 233.866 778.116H244.666C245.599 778.116 246.266 778.886 246.266 779.657V811.249C246.266 813.303 248.399 814.973 250.932 814.973C253.466 814.973 255.599 813.303 255.599 811.249V780.042C255.599 778.886 256.532 777.988 257.732 777.988C258.932 777.988 259.866 778.886 259.866 780.042V811.249C259.866 813.303 261.999 814.973 264.532 814.973C267.066 814.973 269.199 813.303 269.199 811.249V779.785C269.199 778.886 269.999 778.244 270.799 778.244H281.599C282.666 778.244 283.466 777.217 283.199 776.318L270.399 737.15C270.266 736.636 270.532 735.994 271.066 735.865C271.599 735.609 272.266 735.994 272.532 736.508L280.666 760.009C281.732 763.091 285.999 764.118 288.132 761.55C288.266 761.421 288.266 761.293 288.399 761.164C289.199 759.238 289.332 757.44 288.666 755.771Z" fill="#00D7D7"/>
<path d="M257.6 694C251.467 694 246.4 698.88 246.4 704.787C246.4 710.695 251.467 715.575 257.6 715.575C263.733 715.575 268.8 710.695 268.8 704.787C268.8 698.88 263.733 694 257.6 694Z" fill="#00D7D7"/>
<path d="M491.688 755.771L483.025 729.958C481.975 727.004 480.006 724.436 477.381 722.381C473.838 719.813 469.375 718.4 464.781 718.4H457.563C452.969 718.4 448.506 719.813 444.963 722.381C442.206 724.436 440.238 727.004 439.188 729.958L430.394 755.771C429.738 757.44 430 759.366 430.919 760.908C431.05 761.036 431.05 761.164 431.181 761.293C433.281 763.733 437.481 762.834 438.531 759.752L446.669 736.379C446.8 735.865 447.456 735.48 447.981 735.737C448.506 735.865 448.9 736.508 448.638 737.021L436.169 776.19C435.906 777.217 436.694 778.116 437.744 778.116H448.375C449.294 778.116 449.95 778.886 449.95 779.657V811.249C449.95 813.303 452.05 814.973 454.544 814.973C457.038 814.973 459.138 813.303 459.138 811.249V780.042C459.138 778.886 460.056 777.988 461.238 777.988C462.419 777.988 463.338 778.886 463.338 780.042V811.249C463.338 813.303 465.438 814.973 467.931 814.973C470.425 814.973 472.525 813.303 472.525 811.249V779.785C472.525 778.886 473.313 778.244 474.1 778.244H484.731C485.781 778.244 486.569 777.217 486.306 776.318L473.706 737.15C473.575 736.636 473.838 735.994 474.363 735.865C474.888 735.609 475.544 735.994 475.806 736.508L483.813 760.009C484.863 763.091 489.063 764.118 491.163 761.55C491.294 761.421 491.294 761.293 491.425 761.164C492.213 759.238 492.344 757.44 491.688 755.771Z" fill="#2A4AAC"/>
<path d="M461.106 694C455.069 694 450.081 698.88 450.081 704.787C450.081 710.695 455.069 715.575 461.106 715.575C467.144 715.575 472.131 710.695 472.131 704.787C472.131 698.88 467.144 694 461.106 694Z" fill="#2A4AAC"/>
<g clip-path="url(#clip4)">
<path d="M184.616 293.946C184.616 286.863 179.244 279.648 172.209 277.155C168.244 275.712 163.384 275.056 157.884 275.056C152.256 275.056 147.523 275.712 143.558 277.155C136.523 279.648 131.151 286.863 131.151 293.946V319.658C131.151 322.413 133.326 324.512 136.012 324.512C138.698 324.512 140.872 322.282 140.872 319.527V292.635C140.872 291.848 141.512 291.323 142.151 291.323C142.919 291.323 143.43 291.979 143.43 292.635V330.153V332.252V367.802C143.43 370.164 145.093 372 147.139 372H152.128C153.023 372 153.919 371.607 154.558 370.951C155.326 370.164 155.837 368.983 155.837 367.802L155.709 330.284C155.709 329.103 156.605 328.185 157.756 328.185C158.907 328.185 159.802 329.103 159.802 330.284L159.93 367.802C159.93 370.164 161.593 372 163.639 372H168.5C170.546 372 172.209 370.164 172.209 367.802V332.252V292.635C172.209 291.848 172.849 291.323 173.488 291.323C174.256 291.323 174.767 291.979 174.767 292.635V319.396C174.767 319.396 174.767 319.396 174.767 319.527C174.767 319.527 174.767 319.527 174.767 319.658C174.767 322.413 176.942 324.643 179.628 324.643C180.395 324.643 181.163 324.381 181.802 324.118C183.081 323.594 184.105 322.413 184.36 320.708C184.36 320.577 184.36 320.577 184.36 320.445C184.36 320.314 184.36 320.314 184.36 320.183C184.36 319.921 184.36 319.789 184.36 319.527V293.946H184.616Z" fill="#00D7D7"/>
<path d="M157.884 272.301C163.888 272.301 168.756 267.309 168.756 261.151C168.756 254.992 163.888 250 157.884 250C151.879 250 147.012 254.992 147.012 261.151C147.012 267.309 151.879 272.301 157.884 272.301Z" fill="#00D7D7"/>
</g>
<g clip-path="url(#clip5)">
<path d="M388.616 293.946C388.616 286.863 383.244 279.648 376.21 277.155C372.244 275.712 367.384 275.056 361.884 275.056C356.256 275.056 351.523 275.712 347.558 277.155C340.523 279.648 335.151 286.863 335.151 293.946V319.658C335.151 322.413 337.326 324.512 340.012 324.512C342.698 324.512 344.872 322.282 344.872 319.527V292.635C344.872 291.848 345.512 291.323 346.151 291.323C346.919 291.323 347.43 291.979 347.43 292.635V330.153V332.252V367.802C347.43 370.164 349.093 372 351.14 372H356.128C357.023 372 357.919 371.607 358.558 370.951C359.326 370.164 359.837 368.983 359.837 367.802L359.71 330.284C359.71 329.103 360.605 328.185 361.756 328.185C362.907 328.185 363.803 329.103 363.803 330.284L363.93 367.802C363.93 370.164 365.593 372 367.64 372H372.5C374.547 372 376.21 370.164 376.21 367.802V332.252V292.635C376.21 291.848 376.849 291.323 377.489 291.323C378.256 291.323 378.768 291.979 378.768 292.635V319.396C378.768 319.396 378.768 319.396 378.768 319.527C378.768 319.527 378.768 319.527 378.768 319.658C378.768 322.413 380.942 324.643 383.628 324.643C384.396 324.643 385.163 324.381 385.803 324.118C387.082 323.594 388.105 322.413 388.361 320.708C388.361 320.577 388.361 320.577 388.361 320.445C388.361 320.314 388.361 320.314 388.361 320.183C388.361 319.921 388.361 319.789 388.361 319.527V293.946H388.616Z" fill="#2A4AAC"/>
<path d="M361.884 272.301C367.888 272.301 372.756 267.309 372.756 261.151C372.756 254.992 367.888 250 361.884 250C355.879 250 351.012 254.992 351.012 261.151C351.012 267.309 355.879 272.301 361.884 272.301Z" fill="#2A4AAC"/>
</g>
<path d="M289.688 311.783L281.025 285.548C279.975 282.546 278.006 279.935 275.381 277.847C271.838 275.236 267.375 273.8 262.781 273.8H255.563C250.969 273.8 246.506 275.236 242.963 277.847C240.206 279.935 238.238 282.546 237.188 285.548L228.394 311.783C227.738 313.48 228 315.438 228.919 317.004C229.05 317.135 229.05 317.266 229.181 317.396C231.281 319.876 235.481 318.962 236.531 315.83L244.669 292.074C244.8 291.552 245.456 291.16 245.981 291.421C246.506 291.552 246.9 292.205 246.638 292.727L234.169 332.537C233.906 333.581 234.694 334.495 235.744 334.495H246.375C247.294 334.495 247.95 335.278 247.95 336.061V368.171C247.95 370.259 250.05 371.956 252.544 371.956C255.038 371.956 257.138 370.259 257.138 368.171V336.453C257.138 335.278 258.056 334.364 259.238 334.364C260.419 334.364 261.338 335.278 261.338 336.453V368.171C261.338 370.259 263.438 371.956 265.931 371.956C268.425 371.956 270.525 370.259 270.525 368.171V336.192C270.525 335.278 271.313 334.626 272.1 334.626H282.731C283.781 334.626 284.569 333.581 284.306 332.668L271.706 292.857C271.575 292.335 271.838 291.682 272.363 291.552C272.888 291.291 273.544 291.682 273.806 292.204L281.813 316.091C282.863 319.223 287.063 320.268 289.163 317.657C289.294 317.527 289.294 317.396 289.425 317.266C290.213 315.308 290.344 313.48 289.688 311.783Z" fill="#2A4AAC"/>
<path d="M259.106 249C253.069 249 248.081 253.96 248.081 259.964C248.081 265.968 253.069 270.928 259.106 270.928C265.144 270.928 270.131 265.968 270.131 259.964C270.131 253.96 265.144 249 259.106 249Z" fill="#2A4AAC"/>
<path d="M492.708 311.783L484.183 285.548C483.15 282.546 481.213 279.935 478.629 277.847C475.142 275.236 470.75 273.8 466.229 273.8H459.125C454.604 273.8 450.213 275.236 446.725 277.847C444.013 279.935 442.075 282.546 441.042 285.548L432.388 311.783C431.742 313.48 432 315.438 432.904 317.004C433.033 317.135 433.033 317.266 433.163 317.396C435.229 319.876 439.363 318.962 440.396 315.83L448.404 292.074C448.533 291.552 449.179 291.16 449.696 291.421C450.213 291.552 450.6 292.205 450.342 292.727L438.071 332.537C437.813 333.581 438.588 334.495 439.621 334.495H450.083C450.988 334.495 451.633 335.278 451.633 336.061V368.171C451.633 370.259 453.7 371.956 456.154 371.956C458.608 371.956 460.675 370.259 460.675 368.171V336.453C460.675 335.278 461.579 334.364 462.742 334.364C463.904 334.364 464.808 335.278 464.808 336.453V368.171C464.808 370.259 466.875 371.956 469.329 371.956C471.783 371.956 473.85 370.259 473.85 368.171V336.192C473.85 335.278 474.625 334.626 475.4 334.626H485.863C486.896 334.626 487.671 333.581 487.413 332.668L475.013 292.857C474.883 292.335 475.142 291.682 475.658 291.552C476.175 291.291 476.821 291.682 477.079 292.204L484.958 316.091C485.992 319.223 490.125 320.268 492.192 317.657C492.321 317.527 492.321 317.396 492.45 317.266C493.225 315.308 493.354 313.48 492.708 311.783Z" fill="#2A4AAC"/>
<path d="M462.613 249C456.671 249 451.763 253.96 451.763 259.964C451.763 265.968 456.671 270.928 462.613 270.928C468.554 270.928 473.463 265.968 473.463 259.964C473.463 253.96 468.554 249 462.613 249Z" fill="#2A4AAC"/>
<g clip-path="url(#clip6)">
<path d="M184.616 144.946C184.616 137.863 179.244 130.648 172.209 128.155C168.244 126.712 163.384 126.056 157.884 126.056C152.256 126.056 147.523 126.712 143.558 128.155C136.523 130.648 131.151 137.863 131.151 144.946V170.658C131.151 173.413 133.326 175.512 136.012 175.512C138.698 175.512 140.872 173.282 140.872 170.527V143.635C140.872 142.848 141.512 142.323 142.151 142.323C142.919 142.323 143.43 142.979 143.43 143.635V181.153V183.252V218.802C143.43 221.164 145.093 223 147.139 223H152.128C153.023 223 153.919 222.607 154.558 221.951C155.326 221.164 155.837 219.983 155.837 218.802L155.709 181.284C155.709 180.103 156.605 179.185 157.756 179.185C158.907 179.185 159.802 180.103 159.802 181.284L159.93 218.802C159.93 221.164 161.593 223 163.639 223H168.5C170.546 223 172.209 221.164 172.209 218.802V183.252V143.635C172.209 142.848 172.849 142.323 173.488 142.323C174.256 142.323 174.767 142.979 174.767 143.635V170.396C174.767 170.396 174.767 170.396 174.767 170.527C174.767 170.527 174.767 170.527 174.767 170.658C174.767 173.413 176.942 175.643 179.628 175.643C180.395 175.643 181.163 175.381 181.802 175.118C183.081 174.594 184.105 173.413 184.36 171.708C184.36 171.577 184.36 171.577 184.36 171.445C184.36 171.314 184.36 171.314 184.36 171.183C184.36 170.921 184.36 170.789 184.36 170.527V144.946H184.616Z" fill="#2A4AAC"/>
<path d="M157.884 123.301C163.888 123.301 168.756 118.309 168.756 112.151C168.756 105.992 163.888 101 157.884 101C151.879 101 147.012 105.992 147.012 112.151C147.012 118.309 151.879 123.301 157.884 123.301Z" fill="#2A4AAC"/>
</g>
<g clip-path="url(#clip7)">
<path d="M388.616 144.946C388.616 137.863 383.244 130.648 376.21 128.155C372.244 126.712 367.384 126.056 361.884 126.056C356.256 126.056 351.523 126.712 347.558 128.155C340.523 130.648 335.151 137.863 335.151 144.946V170.658C335.151 173.413 337.326 175.512 340.012 175.512C342.698 175.512 344.872 173.282 344.872 170.527V143.635C344.872 142.848 345.512 142.323 346.151 142.323C346.919 142.323 347.43 142.979 347.43 143.635V181.153V183.252V218.802C347.43 221.164 349.093 223 351.14 223H356.128C357.023 223 357.919 222.607 358.558 221.951C359.326 221.164 359.837 219.983 359.837 218.802L359.71 181.284C359.71 180.103 360.605 179.185 361.756 179.185C362.907 179.185 363.803 180.103 363.803 181.284L363.93 218.802C363.93 221.164 365.593 223 367.64 223H372.5C374.547 223 376.21 221.164 376.21 218.802V183.252V143.635C376.21 142.848 376.849 142.323 377.489 142.323C378.256 142.323 378.768 142.979 378.768 143.635V170.396C378.768 170.396 378.768 170.396 378.768 170.527C378.768 170.527 378.768 170.527 378.768 170.658C378.768 173.413 380.942 175.643 383.628 175.643C384.396 175.643 385.163 175.381 385.803 175.118C387.082 174.594 388.105 173.413 388.361 171.708C388.361 171.577 388.361 171.577 388.361 171.445C388.361 171.314 388.361 171.314 388.361 171.183C388.361 170.921 388.361 170.789 388.361 170.527V144.946H388.616Z" fill="#2A4AAC"/>
<path d="M361.884 123.301C367.888 123.301 372.756 118.309 372.756 112.151C372.756 105.992 367.888 101 361.884 101C355.879 101 351.012 105.992 351.012 112.151C351.012 118.309 355.879 123.301 361.884 123.301Z" fill="#2A4AAC"/>
</g>
<path d="M289.688 162.783L281.025 136.548C279.975 133.546 278.006 130.935 275.381 128.847C271.838 126.236 267.375 124.8 262.781 124.8H255.563C250.969 124.8 246.506 126.236 242.963 128.847C240.206 130.935 238.238 133.546 237.188 136.548L228.394 162.783C227.738 164.48 228 166.438 228.919 168.004C229.05 168.135 229.05 168.266 229.181 168.396C231.281 170.876 235.481 169.962 236.531 166.83L244.669 143.074C244.8 142.552 245.456 142.16 245.981 142.421C246.506 142.552 246.9 143.205 246.638 143.727L234.169 183.537C233.906 184.581 234.694 185.495 235.744 185.495H246.375C247.294 185.495 247.95 186.278 247.95 187.061V219.171C247.95 221.259 250.05 222.956 252.544 222.956C255.038 222.956 257.138 221.259 257.138 219.171V187.453C257.138 186.278 258.056 185.364 259.238 185.364C260.419 185.364 261.338 186.278 261.338 187.453V219.171C261.338 221.259 263.438 222.956 265.931 222.956C268.425 222.956 270.525 221.259 270.525 219.171V187.192C270.525 186.278 271.313 185.626 272.1 185.626H282.731C283.781 185.626 284.569 184.581 284.306 183.668L271.706 143.857C271.575 143.335 271.838 142.682 272.363 142.552C272.888 142.291 273.544 142.682 273.806 143.204L281.813 167.091C282.863 170.223 287.063 171.268 289.163 168.657C289.294 168.527 289.294 168.396 289.425 168.266C290.213 166.308 290.344 164.48 289.688 162.783Z" fill="#00D7D7"/>
<path d="M259.106 100C253.069 100 248.081 104.96 248.081 110.964C248.081 116.968 253.069 121.928 259.106 121.928C265.144 121.928 270.131 116.968 270.131 110.964C270.131 104.96 265.144 100 259.106 100Z" fill="#00D7D7"/>
<path d="M492.708 162.783L484.183 136.548C483.15 133.546 481.213 130.935 478.629 128.847C475.142 126.236 470.75 124.8 466.229 124.8H459.125C454.604 124.8 450.213 126.236 446.725 128.847C444.013 130.935 442.075 133.546 441.042 136.548L432.388 162.783C431.742 164.48 432 166.438 432.904 168.004C433.033 168.135 433.033 168.266 433.163 168.396C435.229 170.876 439.363 169.962 440.396 166.83L448.404 143.074C448.533 142.552 449.179 142.16 449.696 142.421C450.213 142.552 450.6 143.205 450.342 143.727L438.071 183.537C437.813 184.581 438.588 185.495 439.621 185.495H450.083C450.988 185.495 451.633 186.278 451.633 187.061V219.171C451.633 221.259 453.7 222.956 456.154 222.956C458.608 222.956 460.675 221.259 460.675 219.171V187.453C460.675 186.278 461.579 185.364 462.742 185.364C463.904 185.364 464.808 186.278 464.808 187.453V219.171C464.808 221.259 466.875 222.956 469.329 222.956C471.783 222.956 473.85 221.259 473.85 219.171V187.192C473.85 186.278 474.625 185.626 475.4 185.626H485.863C486.896 185.626 487.671 184.581 487.413 183.668L475.013 143.857C474.883 143.335 475.142 142.682 475.658 142.552C476.175 142.291 476.821 142.682 477.079 143.204L484.958 167.091C485.992 170.223 490.125 171.268 492.192 168.657C492.321 168.527 492.321 168.396 492.45 168.266C493.225 166.308 493.354 164.48 492.708 162.783Z" fill="#FF7BF9"/>
<path d="M462.613 100C456.671 100 451.763 104.96 451.763 110.964C451.763 116.968 456.671 121.928 462.613 121.928C468.554 121.928 473.463 116.968 473.463 110.964C473.463 104.96 468.554 100 462.613 100Z" fill="#FF7BF9"/>
<g clip-path="url(#clip8)">
<path d="M184.616 442.946C184.616 435.862 179.244 428.647 172.209 426.155C168.244 424.712 163.384 424.056 157.884 424.056C152.256 424.056 147.523 424.712 143.558 426.155C136.523 428.647 131.151 435.862 131.151 442.946V468.658C131.151 471.413 133.326 473.512 136.012 473.512C138.698 473.512 140.872 471.282 140.872 468.527V441.634C140.872 440.847 141.512 440.323 142.151 440.323C142.919 440.323 143.43 440.978 143.43 441.634V479.153V481.252V516.802C143.43 519.163 145.093 521 147.139 521H152.128C153.023 521 153.919 520.606 154.558 519.95C155.326 519.163 155.837 517.983 155.837 516.802L155.709 479.284C155.709 478.103 156.605 477.185 157.756 477.185C158.907 477.185 159.802 478.103 159.802 479.284L159.93 516.802C159.93 519.163 161.593 521 163.639 521H168.5C170.546 521 172.209 519.163 172.209 516.802V481.252V441.634C172.209 440.847 172.849 440.323 173.488 440.323C174.256 440.323 174.767 440.978 174.767 441.634V468.396C174.767 468.396 174.767 468.396 174.767 468.527C174.767 468.527 174.767 468.527 174.767 468.658C174.767 471.413 176.942 473.643 179.628 473.643C180.395 473.643 181.163 473.381 181.802 473.118C183.081 472.594 184.105 471.413 184.36 469.707C184.36 469.576 184.36 469.576 184.36 469.445C184.36 469.314 184.36 469.314 184.36 469.183C184.36 468.92 184.36 468.789 184.36 468.527V442.946H184.616Z" fill="#00D7D7"/>
<path d="M157.884 421.301C163.888 421.301 168.756 416.309 168.756 410.151C168.756 403.992 163.888 399 157.884 399C151.879 399 147.012 403.992 147.012 410.151C147.012 416.309 151.879 421.301 157.884 421.301Z" fill="#00D7D7"/>
</g>
<g clip-path="url(#clip9)">
<path d="M388.616 442.946C388.616 435.862 383.244 428.647 376.21 426.155C372.244 424.712 367.384 424.056 361.884 424.056C356.256 424.056 351.523 424.712 347.558 426.155C340.523 428.647 335.151 435.862 335.151 442.946V468.658C335.151 471.413 337.326 473.512 340.012 473.512C342.698 473.512 344.872 471.282 344.872 468.527V441.634C344.872 440.847 345.512 440.323 346.151 440.323C346.919 440.323 347.43 440.978 347.43 441.634V479.153V481.252V516.802C347.43 519.163 349.093 521 351.14 521H356.128C357.023 521 357.919 520.606 358.558 519.95C359.326 519.163 359.837 517.983 359.837 516.802L359.71 479.284C359.71 478.103 360.605 477.185 361.756 477.185C362.907 477.185 363.803 478.103 363.803 479.284L363.93 516.802C363.93 519.163 365.593 521 367.64 521H372.5C374.547 521 376.21 519.163 376.21 516.802V481.252V441.634C376.21 440.847 376.849 440.323 377.489 440.323C378.256 440.323 378.768 440.978 378.768 441.634V468.396C378.768 468.396 378.768 468.396 378.768 468.527C378.768 468.527 378.768 468.527 378.768 468.658C378.768 471.413 380.942 473.643 383.628 473.643C384.396 473.643 385.163 473.381 385.803 473.118C387.082 472.594 388.105 471.413 388.361 469.707C388.361 469.576 388.361 469.576 388.361 469.445C388.361 469.314 388.361 469.314 388.361 469.183C388.361 468.92 388.361 468.789 388.361 468.527V442.946H388.616Z" fill="#00D7D7"/>
<path d="M361.884 421.301C367.888 421.301 372.756 416.309 372.756 410.151C372.756 403.992 367.888 399 361.884 399C355.879 399 351.012 403.992 351.012 410.151C351.012 416.309 355.879 421.301 361.884 421.301Z" fill="#00D7D7"/>
</g>
<path d="M289.688 460.783L281.025 434.547C279.975 431.545 278.006 428.935 275.381 426.846C271.838 424.236 267.375 422.8 262.781 422.8H255.563C250.969 422.8 246.506 424.236 242.963 426.846C240.206 428.935 238.238 431.545 237.188 434.547L228.394 460.783C227.738 462.48 228 464.438 228.919 466.004C229.05 466.135 229.05 466.265 229.181 466.396C231.281 468.876 235.481 467.962 236.531 464.83L244.669 441.074C244.8 440.552 245.456 440.16 245.981 440.421C246.506 440.552 246.9 441.204 246.638 441.726L234.169 481.537C233.906 482.581 234.694 483.495 235.744 483.495H246.375C247.294 483.495 247.95 484.278 247.95 485.061V517.171C247.95 519.259 250.05 520.956 252.544 520.956C255.038 520.956 257.138 519.259 257.138 517.171V485.453C257.138 484.278 258.056 483.364 259.238 483.364C260.419 483.364 261.338 484.278 261.338 485.453V517.171C261.338 519.259 263.438 520.956 265.931 520.956C268.425 520.956 270.525 519.259 270.525 517.171V485.192C270.525 484.278 271.313 483.625 272.1 483.625H282.731C283.781 483.625 284.569 482.581 284.306 481.667L271.706 441.857C271.575 441.335 271.838 440.682 272.363 440.552C272.888 440.291 273.544 440.682 273.806 441.204L281.813 465.091C282.863 468.223 287.063 469.267 289.163 466.657C289.294 466.526 289.294 466.396 289.425 466.265C290.213 464.307 290.344 462.48 289.688 460.783Z" fill="#2A4AAC"/>
<path d="M259.106 398C253.069 398 248.081 402.96 248.081 408.964C248.081 414.968 253.069 419.928 259.106 419.928C265.144 419.928 270.131 414.968 270.131 408.964C270.131 402.96 265.144 398 259.106 398Z" fill="#2A4AAC"/>
<path d="M492.708 460.783L484.183 434.547C483.15 431.545 481.213 428.935 478.629 426.846C475.142 424.236 470.75 422.8 466.229 422.8H459.125C454.604 422.8 450.213 424.236 446.725 426.846C444.013 428.935 442.075 431.545 441.042 434.547L432.388 460.783C431.742 462.48 432 464.438 432.904 466.004C433.033 466.135 433.033 466.265 433.163 466.396C435.229 468.876 439.363 467.962 440.396 464.83L448.404 441.074C448.533 440.552 449.179 440.16 449.696 440.421C450.213 440.552 450.6 441.204 450.342 441.726L438.071 481.537C437.813 482.581 438.588 483.495 439.621 483.495H450.083C450.988 483.495 451.633 484.278 451.633 485.061V517.171C451.633 519.259 453.7 520.956 456.154 520.956C458.608 520.956 460.675 519.259 460.675 517.171V485.453C460.675 484.278 461.579 483.364 462.742 483.364C463.904 483.364 464.808 484.278 464.808 485.453V517.171C464.808 519.259 466.875 520.956 469.329 520.956C471.783 520.956 473.85 519.259 473.85 517.171V485.192C473.85 484.278 474.625 483.625 475.4 483.625H485.863C486.896 483.625 487.671 482.581 487.413 481.667L475.013 441.857C474.883 441.335 475.142 440.682 475.658 440.552C476.175 440.291 476.821 440.682 477.079 441.204L484.958 465.091C485.992 468.223 490.125 469.267 492.192 466.657C492.321 466.526 492.321 466.396 492.45 466.265C493.225 464.307 493.354 462.48 492.708 460.783Z" fill="#2A4AAC"/>
<path d="M462.613 398C456.671 398 451.763 402.96 451.763 408.964C451.763 414.968 456.671 419.928 462.613 419.928C468.554 419.928 473.463 414.968 473.463 408.964C473.463 402.96 468.554 398 462.613 398Z" fill="#2A4AAC"/>
<defs>
<clipPath id="clip0">
<rect width="55" height="120" fill="white" transform="translate(127 548)"/>
</clipPath>
<clipPath id="clip1">
<rect width="52" height="120" fill="white" transform="translate(334 548)"/>
</clipPath>
<clipPath id="clip2">
<rect width="55" height="120" fill="white" transform="translate(127 695)"/>
</clipPath>
<clipPath id="clip3">
<rect width="52" height="120" fill="white" transform="translate(334 695)"/>
</clipPath>
<clipPath id="clip4">
<rect width="55" height="122" fill="white" transform="translate(130 250)"/>
</clipPath>
<clipPath id="clip5">
<rect width="55" height="122" fill="white" transform="translate(334 250)"/>
</clipPath>
<clipPath id="clip6">
<rect width="55" height="122" fill="white" transform="translate(130 101)"/>
</clipPath>
<clipPath id="clip7">
<rect width="55" height="122" fill="white" transform="translate(334 101)"/>
</clipPath>
<clipPath id="clip8">
<rect width="55" height="122" fill="white" transform="translate(130 399)"/>
</clipPath>
<clipPath id="clip9">
<rect width="55" height="122" fill="white" transform="translate(334 399)"/>
</clipPath>
</defs>
</svg>
