<svg width="686" height="931" viewBox="0 0 686 931" fill="none" xmlns="http://www.w3.org/2000/svg">
<path d="M1 20C1 9.5066 9.50659 1 20 1H666C676.493 1 685 9.50659 685 20V911C685 921.493 676.493 930 666 930H20C9.5066 930 1 921.493 1 911V20Z" stroke="#1C358B" stroke-width="2"/>
<g clip-path="url(#clip0)">
<path d="M161.616 159.946C161.616 152.863 156.244 145.648 149.209 143.155C145.244 141.712 140.384 141.056 134.884 141.056C129.256 141.056 124.523 141.712 120.558 143.155C113.523 145.648 108.151 152.863 108.151 159.946V185.658C108.151 188.413 110.326 190.512 113.012 190.512C115.698 190.512 117.872 188.282 117.872 185.527V158.635C117.872 157.848 118.512 157.323 119.151 157.323C119.919 157.323 120.43 157.979 120.43 158.635V196.153V198.252V233.802C120.43 236.164 122.093 238 124.139 238H129.128C130.023 238 130.919 237.607 131.558 236.951C132.326 236.164 132.837 234.983 132.837 233.802L132.709 196.284C132.709 195.103 133.605 194.185 134.756 194.185C135.907 194.185 136.802 195.103 136.802 196.284L136.93 233.802C136.93 236.164 138.593 238 140.639 238H145.5C147.546 238 149.209 236.164 149.209 233.802V198.252V158.635C149.209 157.848 149.849 157.323 150.488 157.323C151.256 157.323 151.767 157.979 151.767 158.635V185.396C151.767 185.396 151.767 185.396 151.767 185.527C151.767 185.527 151.767 185.527 151.767 185.658C151.767 188.413 153.942 190.643 156.628 190.643C157.395 190.643 158.163 190.381 158.802 190.118C160.081 189.594 161.105 188.413 161.36 186.708C161.36 186.577 161.36 186.577 161.36 186.445C161.36 186.314 161.36 186.314 161.36 186.183C161.36 185.921 161.36 185.789 161.36 185.527V159.946H161.616Z" fill="#00D7D7"/>
<path d="M134.884 138.301C140.888 138.301 145.756 133.309 145.756 127.151C145.756 120.992 140.888 116 134.884 116C128.879 116 124.012 120.992 124.012 127.151C124.012 133.309 128.879 138.301 134.884 138.301Z" fill="#00D7D7"/>
</g>
<g clip-path="url(#clip1)">
<path d="M161.616 351.946C161.616 344.863 156.244 337.648 149.209 335.155C145.244 333.712 140.384 333.056 134.884 333.056C129.256 333.056 124.523 333.712 120.558 335.155C113.523 337.648 108.151 344.863 108.151 351.946V377.658C108.151 380.413 110.326 382.512 113.012 382.512C115.698 382.512 117.872 380.282 117.872 377.527V350.635C117.872 349.848 118.512 349.323 119.151 349.323C119.919 349.323 120.43 349.979 120.43 350.635V388.153V390.252V425.802C120.43 428.164 122.093 430 124.139 430H129.128C130.023 430 130.919 429.607 131.558 428.951C132.326 428.164 132.837 426.983 132.837 425.802L132.709 388.284C132.709 387.103 133.605 386.185 134.756 386.185C135.907 386.185 136.802 387.103 136.802 388.284L136.93 425.802C136.93 428.164 138.593 430 140.639 430H145.5C147.546 430 149.209 428.164 149.209 425.802V390.252V350.635C149.209 349.848 149.849 349.323 150.488 349.323C151.256 349.323 151.767 349.979 151.767 350.635V377.396C151.767 377.396 151.767 377.396 151.767 377.527C151.767 377.527 151.767 377.527 151.767 377.658C151.767 380.413 153.942 382.643 156.628 382.643C157.395 382.643 158.163 382.381 158.802 382.118C160.081 381.594 161.105 380.413 161.36 378.708C161.36 378.577 161.36 378.577 161.36 378.445C161.36 378.314 161.36 378.314 161.36 378.183C161.36 377.921 161.36 377.789 161.36 377.527V351.946H161.616Z" fill="#2A4AAC"/>
<path d="M134.884 330.301C140.888 330.301 145.756 325.309 145.756 319.151C145.756 312.992 140.888 308 134.884 308C128.879 308 124.012 312.992 124.012 319.151C124.012 325.309 128.879 330.301 134.884 330.301Z" fill="#2A4AAC"/>
</g>
<g clip-path="url(#clip2)">
<path d="M267.616 351.946C267.616 344.863 262.244 337.648 255.209 335.155C251.244 333.712 246.384 333.056 240.884 333.056C235.256 333.056 230.523 333.712 226.558 335.155C219.523 337.648 214.151 344.863 214.151 351.946V377.658C214.151 380.413 216.326 382.512 219.012 382.512C221.698 382.512 223.872 380.282 223.872 377.527V350.635C223.872 349.848 224.512 349.323 225.151 349.323C225.919 349.323 226.43 349.979 226.43 350.635V388.153V390.252V425.802C226.43 428.164 228.093 430 230.139 430H235.128C236.023 430 236.919 429.607 237.558 428.951C238.326 428.164 238.837 426.983 238.837 425.802L238.709 388.284C238.709 387.103 239.605 386.185 240.756 386.185C241.907 386.185 242.802 387.103 242.802 388.284L242.93 425.802C242.93 428.164 244.593 430 246.639 430H251.5C253.546 430 255.209 428.164 255.209 425.802V390.252V350.635C255.209 349.848 255.849 349.323 256.488 349.323C257.256 349.323 257.767 349.979 257.767 350.635V377.396C257.767 377.396 257.767 377.396 257.767 377.527C257.767 377.527 257.767 377.527 257.767 377.658C257.767 380.413 259.942 382.643 262.628 382.643C263.395 382.643 264.163 382.381 264.802 382.118C266.081 381.594 267.105 380.413 267.36 378.708C267.36 378.577 267.36 378.577 267.36 378.445C267.36 378.314 267.36 378.314 267.36 378.183C267.36 377.921 267.36 377.789 267.36 377.527V351.946H267.616Z" fill="#00D7D7"/>
<path d="M240.884 330.301C246.888 330.301 251.756 325.309 251.756 319.151C251.756 312.992 246.888 308 240.884 308C234.879 308 230.012 312.992 230.012 319.151C230.012 325.309 234.879 330.301 240.884 330.301Z" fill="#00D7D7"/>
</g>
<g clip-path="url(#clip3)">
<path d="M267.616 159.946C267.616 152.863 262.244 145.648 255.209 143.155C251.244 141.712 246.384 141.056 240.884 141.056C235.256 141.056 230.523 141.712 226.558 143.155C219.523 145.648 214.151 152.863 214.151 159.946V185.658C214.151 188.413 216.326 190.512 219.012 190.512C221.698 190.512 223.872 188.282 223.872 185.527V158.635C223.872 157.848 224.512 157.323 225.151 157.323C225.919 157.323 226.43 157.979 226.43 158.635V196.153V198.252V233.802C226.43 236.164 228.093 238 230.139 238H235.128C236.023 238 236.919 237.607 237.558 236.951C238.326 236.164 238.837 234.983 238.837 233.802L238.709 196.284C238.709 195.103 239.605 194.185 240.756 194.185C241.907 194.185 242.802 195.103 242.802 196.284L242.93 233.802C242.93 236.164 244.593 238 246.639 238H251.5C253.546 238 255.209 236.164 255.209 233.802V198.252V158.635C255.209 157.848 255.849 157.323 256.488 157.323C257.256 157.323 257.767 157.979 257.767 158.635V185.396C257.767 185.396 257.767 185.396 257.767 185.527C257.767 185.527 257.767 185.527 257.767 185.658C257.767 188.413 259.942 190.643 262.628 190.643C263.395 190.643 264.163 190.381 264.802 190.118C266.081 189.594 267.105 188.413 267.36 186.708C267.36 186.577 267.36 186.577 267.36 186.445C267.36 186.314 267.36 186.314 267.36 186.183C267.36 185.921 267.36 185.789 267.36 185.527V159.946H267.616Z" fill="#2A4AAC"/>
<path d="M240.884 138.301C246.888 138.301 251.756 133.309 251.756 127.151C251.756 120.992 246.888 116 240.884 116C234.879 116 230.012 120.992 230.012 127.151C230.012 133.309 234.879 138.301 240.884 138.301Z" fill="#2A4AAC"/>
</g>
<g clip-path="url(#clip4)">
<path d="M370.616 159.946C370.616 152.863 365.244 145.648 358.209 143.155C354.244 141.712 349.384 141.056 343.884 141.056C338.256 141.056 333.523 141.712 329.558 143.155C322.523 145.648 317.151 152.863 317.151 159.946V185.658C317.151 188.413 319.326 190.512 322.012 190.512C324.698 190.512 326.872 188.282 326.872 185.527V158.635C326.872 157.848 327.512 157.323 328.151 157.323C328.919 157.323 329.43 157.979 329.43 158.635V196.153V198.252V233.802C329.43 236.164 331.093 238 333.139 238H338.128C339.023 238 339.919 237.607 340.558 236.951C341.326 236.164 341.837 234.983 341.837 233.802L341.709 196.284C341.709 195.103 342.605 194.185 343.756 194.185C344.907 194.185 345.802 195.103 345.802 196.284L345.93 233.802C345.93 236.164 347.593 238 349.639 238H354.5C356.546 238 358.209 236.164 358.209 233.802V198.252V158.635C358.209 157.848 358.849 157.323 359.488 157.323C360.256 157.323 360.767 157.979 360.767 158.635V185.396C360.767 185.396 360.767 185.396 360.767 185.527C360.767 185.527 360.767 185.527 360.767 185.658C360.767 188.413 362.942 190.643 365.628 190.643C366.395 190.643 367.163 190.381 367.802 190.118C369.081 189.594 370.105 188.413 370.36 186.708C370.36 186.577 370.36 186.577 370.36 186.445C370.36 186.314 370.36 186.314 370.36 186.183C370.36 185.921 370.36 185.789 370.36 185.527V159.946H370.616Z" fill="#00D7D7"/>
<path d="M343.884 138.301C349.888 138.301 354.756 133.309 354.756 127.151C354.756 120.992 349.888 116 343.884 116C337.879 116 333.012 120.992 333.012 127.151C333.012 133.309 337.879 138.301 343.884 138.301Z" fill="#00D7D7"/>
</g>
<g clip-path="url(#clip5)">
<path d="M370.616 351.946C370.616 344.863 365.244 337.648 358.209 335.155C354.244 333.712 349.384 333.056 343.884 333.056C338.256 333.056 333.523 333.712 329.558 335.155C322.523 337.648 317.151 344.863 317.151 351.946V377.658C317.151 380.413 319.326 382.512 322.012 382.512C324.698 382.512 326.872 380.282 326.872 377.527V350.635C326.872 349.848 327.512 349.323 328.151 349.323C328.919 349.323 329.43 349.979 329.43 350.635V388.153V390.252V425.802C329.43 428.164 331.093 430 333.139 430H338.128C339.023 430 339.919 429.607 340.558 428.951C341.326 428.164 341.837 426.983 341.837 425.802L341.709 388.284C341.709 387.103 342.605 386.185 343.756 386.185C344.907 386.185 345.802 387.103 345.802 388.284L345.93 425.802C345.93 428.164 347.593 430 349.639 430H354.5C356.546 430 358.209 428.164 358.209 425.802V390.252V350.635C358.209 349.848 358.849 349.323 359.488 349.323C360.256 349.323 360.767 349.979 360.767 350.635V377.396C360.767 377.396 360.767 377.396 360.767 377.527C360.767 377.527 360.767 377.527 360.767 377.658C360.767 380.413 362.942 382.643 365.628 382.643C366.395 382.643 367.163 382.381 367.802 382.118C369.081 381.594 370.105 380.413 370.36 378.708C370.36 378.577 370.36 378.577 370.36 378.445C370.36 378.314 370.36 378.314 370.36 378.183C370.36 377.921 370.36 377.789 370.36 377.527V351.946H370.616Z" fill="#2A4AAC"/>
<path d="M343.884 330.301C349.888 330.301 354.756 325.309 354.756 319.151C354.756 312.992 349.888 308 343.884 308C337.879 308 333.012 312.992 333.012 319.151C333.012 325.309 337.879 330.301 343.884 330.301Z" fill="#2A4AAC"/>
</g>
<g clip-path="url(#clip6)">
<path d="M474.616 351.946C474.616 344.863 469.244 337.648 462.209 335.155C458.244 333.712 453.384 333.056 447.884 333.056C442.256 333.056 437.523 333.712 433.558 335.155C426.523 337.648 421.151 344.863 421.151 351.946V377.658C421.151 380.413 423.326 382.512 426.012 382.512C428.698 382.512 430.872 380.282 430.872 377.527V350.635C430.872 349.848 431.512 349.323 432.151 349.323C432.919 349.323 433.43 349.979 433.43 350.635V388.153V390.252V425.802C433.43 428.164 435.093 430 437.139 430H442.128C443.023 430 443.919 429.607 444.558 428.951C445.326 428.164 445.837 426.983 445.837 425.802L445.709 388.284C445.709 387.103 446.605 386.185 447.756 386.185C448.907 386.185 449.802 387.103 449.802 388.284L449.93 425.802C449.93 428.164 451.593 430 453.639 430H458.5C460.546 430 462.209 428.164 462.209 425.802V390.252V350.635C462.209 349.848 462.849 349.323 463.488 349.323C464.256 349.323 464.767 349.979 464.767 350.635V377.396C464.767 377.396 464.767 377.396 464.767 377.527C464.767 377.527 464.767 377.527 464.767 377.658C464.767 380.413 466.942 382.643 469.628 382.643C470.395 382.643 471.163 382.381 471.802 382.118C473.081 381.594 474.105 380.413 474.36 378.708C474.36 378.577 474.36 378.577 474.36 378.445C474.36 378.314 474.36 378.314 474.36 378.183C474.36 377.921 474.36 377.789 474.36 377.527V351.946H474.616Z" fill="#00D7D7"/>
<path d="M447.884 330.301C453.888 330.301 458.756 325.309 458.756 319.151C458.756 312.992 453.888 308 447.884 308C441.879 308 437.012 312.992 437.012 319.151C437.012 325.309 441.879 330.301 447.884 330.301Z" fill="#00D7D7"/>
</g>
<g clip-path="url(#clip7)">
<path d="M474.616 159.946C474.616 152.863 469.244 145.648 462.209 143.155C458.244 141.712 453.384 141.056 447.884 141.056C442.256 141.056 437.523 141.712 433.558 143.155C426.523 145.648 421.151 152.863 421.151 159.946V185.658C421.151 188.413 423.326 190.512 426.012 190.512C428.698 190.512 430.872 188.282 430.872 185.527V158.635C430.872 157.848 431.512 157.323 432.151 157.323C432.919 157.323 433.43 157.979 433.43 158.635V196.153V198.252V233.802C433.43 236.164 435.093 238 437.139 238H442.128C443.023 238 443.919 237.607 444.558 236.951C445.326 236.164 445.837 234.983 445.837 233.802L445.709 196.284C445.709 195.103 446.605 194.185 447.756 194.185C448.907 194.185 449.802 195.103 449.802 196.284L449.93 233.802C449.93 236.164 451.593 238 453.639 238H458.5C460.546 238 462.209 236.164 462.209 233.802V198.252V158.635C462.209 157.848 462.849 157.323 463.488 157.323C464.256 157.323 464.767 157.979 464.767 158.635V185.396C464.767 185.396 464.767 185.396 464.767 185.527C464.767 185.527 464.767 185.527 464.767 185.658C464.767 188.413 466.942 190.643 469.628 190.643C470.395 190.643 471.163 190.381 471.802 190.118C473.081 189.594 474.105 188.413 474.36 186.708C474.36 186.577 474.36 186.577 474.36 186.445C474.36 186.314 474.36 186.314 474.36 186.183C474.36 185.921 474.36 185.789 474.36 185.527V159.946H474.616Z" fill="#2A4AAC"/>
<path d="M447.884 138.301C453.888 138.301 458.756 133.309 458.756 127.151C458.756 120.992 453.888 116 447.884 116C441.879 116 437.012 120.992 437.012 127.151C437.012 133.309 441.879 138.301 447.884 138.301Z" fill="#2A4AAC"/>
</g>
<g clip-path="url(#clip8)">
<path d="M578.616 159.946C578.616 152.863 573.244 145.648 566.209 143.155C562.244 141.712 557.384 141.056 551.884 141.056C546.256 141.056 541.523 141.712 537.558 143.155C530.523 145.648 525.151 152.863 525.151 159.946V185.658C525.151 188.413 527.326 190.512 530.012 190.512C532.698 190.512 534.872 188.282 534.872 185.527V158.635C534.872 157.848 535.512 157.323 536.151 157.323C536.919 157.323 537.43 157.979 537.43 158.635V196.153V198.252V233.802C537.43 236.164 539.093 238 541.139 238H546.128C547.023 238 547.919 237.607 548.558 236.951C549.326 236.164 549.837 234.983 549.837 233.802L549.709 196.284C549.709 195.103 550.605 194.185 551.756 194.185C552.907 194.185 553.802 195.103 553.802 196.284L553.93 233.802C553.93 236.164 555.593 238 557.639 238H562.5C564.546 238 566.209 236.164 566.209 233.802V198.252V158.635C566.209 157.848 566.849 157.323 567.488 157.323C568.256 157.323 568.767 157.979 568.767 158.635V185.396C568.767 185.396 568.767 185.396 568.767 185.527C568.767 185.527 568.767 185.527 568.767 185.658C568.767 188.413 570.942 190.643 573.628 190.643C574.395 190.643 575.163 190.381 575.802 190.118C577.081 189.594 578.105 188.413 578.36 186.708C578.36 186.577 578.36 186.577 578.36 186.445C578.36 186.314 578.36 186.314 578.36 186.183C578.36 185.921 578.36 185.789 578.36 185.527V159.946H578.616Z" fill="#00D7D7"/>
<path d="M551.884 138.301C557.888 138.301 562.756 133.309 562.756 127.151C562.756 120.992 557.888 116 551.884 116C545.879 116 541.012 120.992 541.012 127.151C541.012 133.309 545.879 138.301 551.884 138.301Z" fill="#00D7D7"/>
</g>
<g clip-path="url(#clip9)">
<path d="M578.616 351.946C578.616 344.863 573.244 337.648 566.209 335.155C562.244 333.712 557.384 333.056 551.884 333.056C546.256 333.056 541.523 333.712 537.558 335.155C530.523 337.648 525.151 344.863 525.151 351.946V377.658C525.151 380.413 527.326 382.512 530.012 382.512C532.698 382.512 534.872 380.282 534.872 377.527V350.635C534.872 349.848 535.512 349.323 536.151 349.323C536.919 349.323 537.43 349.979 537.43 350.635V388.153V390.252V425.802C537.43 428.164 539.093 430 541.139 430H546.128C547.023 430 547.919 429.607 548.558 428.951C549.326 428.164 549.837 426.983 549.837 425.802L549.709 388.284C549.709 387.103 550.605 386.185 551.756 386.185C552.907 386.185 553.802 387.103 553.802 388.284L553.93 425.802C553.93 428.164 555.593 430 557.639 430H562.5C564.546 430 566.209 428.164 566.209 425.802V390.252V350.635C566.209 349.848 566.849 349.323 567.488 349.323C568.256 349.323 568.767 349.979 568.767 350.635V377.396C568.767 377.396 568.767 377.396 568.767 377.527C568.767 377.527 568.767 377.527 568.767 377.658C568.767 380.413 570.942 382.643 573.628 382.643C574.395 382.643 575.163 382.381 575.802 382.118C577.081 381.594 578.105 380.413 578.36 378.708C578.36 378.577 578.36 378.577 578.36 378.445C578.36 378.314 578.36 378.314 578.36 378.183C578.36 377.921 578.36 377.789 578.36 377.527V351.946H578.616Z" fill="#2A4AAC"/>
<path d="M551.884 330.301C557.888 330.301 562.756 325.309 562.756 319.151C562.756 312.992 557.888 308 551.884 308C545.879 308 541.012 312.992 541.012 319.151C541.012 325.309 545.879 330.301 551.884 330.301Z" fill="#2A4AAC"/>
</g>
<path d="M270.666 561.771L261.866 535.958C260.799 533.004 258.799 530.436 256.132 528.381C252.532 525.813 247.999 524.4 243.332 524.4H235.999C231.332 524.4 226.799 525.813 223.199 528.381C220.399 530.436 218.399 533.004 217.332 535.958L208.399 561.771C207.732 563.44 207.999 565.366 208.932 566.908C209.066 567.036 209.066 567.164 209.199 567.293C211.332 569.733 215.599 568.834 216.666 565.752L224.932 542.379C225.066 541.865 225.732 541.48 226.266 541.737C226.799 541.865 227.199 542.508 226.932 543.021L214.266 582.19C213.999 583.217 214.799 584.116 215.866 584.116H226.666C227.599 584.116 228.266 584.886 228.266 585.657V617.249C228.266 619.303 230.399 620.973 232.932 620.973C235.466 620.973 237.599 619.303 237.599 617.249V586.042C237.599 584.886 238.532 583.988 239.732 583.988C240.932 583.988 241.866 584.886 241.866 586.042V617.249C241.866 619.303 243.999 620.973 246.532 620.973C249.066 620.973 251.199 619.303 251.199 617.249V585.785C251.199 584.886 251.999 584.244 252.799 584.244H263.599C264.666 584.244 265.466 583.217 265.199 582.318L252.399 543.15C252.266 542.636 252.532 541.994 253.066 541.865C253.599 541.609 254.266 541.994 254.532 542.508L262.666 566.009C263.732 569.091 267.999 570.118 270.132 567.55C270.266 567.421 270.266 567.293 270.399 567.164C271.199 565.238 271.332 563.44 270.666 561.771Z" fill="#2A4AAC"/>
<path d="M239.6 500C233.467 500 228.4 504.88 228.4 510.787C228.4 516.695 233.467 521.575 239.6 521.575C245.733 521.575 250.8 516.695 250.8 510.787C250.8 504.88 245.733 500 239.6 500Z" fill="#2A4AAC"/>
<path d="M270.666 753.771L261.866 727.958C260.799 725.004 258.799 722.436 256.132 720.381C252.532 717.813 247.999 716.4 243.332 716.4H235.999C231.332 716.4 226.799 717.813 223.199 720.381C220.399 722.436 218.399 725.004 217.332 727.958L208.399 753.771C207.732 755.44 207.999 757.366 208.932 758.908C209.066 759.036 209.066 759.164 209.199 759.293C211.332 761.733 215.599 760.834 216.666 757.752L224.932 734.379C225.066 733.865 225.732 733.48 226.266 733.737C226.799 733.865 227.199 734.508 226.932 735.021L214.266 774.19C213.999 775.217 214.799 776.116 215.866 776.116H226.666C227.599 776.116 228.266 776.886 228.266 777.657V809.249C228.266 811.303 230.399 812.973 232.932 812.973C235.466 812.973 237.599 811.303 237.599 809.249V778.042C237.599 776.886 238.532 775.988 239.732 775.988C240.932 775.988 241.866 776.886 241.866 778.042V809.249C241.866 811.303 243.999 812.973 246.532 812.973C249.066 812.973 251.199 811.303 251.199 809.249V777.785C251.199 776.886 251.999 776.244 252.799 776.244H263.599C264.666 776.244 265.466 775.217 265.199 774.318L252.399 735.15C252.266 734.636 252.532 733.994 253.066 733.865C253.599 733.609 254.266 733.994 254.532 734.508L262.666 758.009C263.732 761.091 267.999 762.118 270.132 759.55C270.266 759.421 270.266 759.293 270.399 759.164C271.199 757.238 271.332 755.44 270.666 753.771Z" fill="#FF7BF9"/>
<path d="M239.6 692C233.467 692 228.4 696.88 228.4 702.787C228.4 708.695 233.467 713.575 239.6 713.575C245.733 713.575 250.8 708.695 250.8 702.787C250.8 696.88 245.733 692 239.6 692Z" fill="#FF7BF9"/>
<path d="M374.666 753.771L365.866 727.958C364.799 725.004 362.799 722.436 360.132 720.381C356.532 717.813 351.999 716.4 347.332 716.4H339.999C335.332 716.4 330.799 717.813 327.199 720.381C324.399 722.436 322.399 725.004 321.332 727.958L312.399 753.771C311.732 755.44 311.999 757.366 312.932 758.908C313.066 759.036 313.066 759.164 313.199 759.293C315.332 761.733 319.599 760.834 320.666 757.752L328.932 734.379C329.066 733.865 329.732 733.48 330.266 733.737C330.799 733.865 331.199 734.508 330.932 735.021L318.266 774.19C317.999 775.217 318.799 776.116 319.866 776.116H330.666C331.599 776.116 332.266 776.886 332.266 777.657V809.249C332.266 811.303 334.399 812.973 336.932 812.973C339.466 812.973 341.599 811.303 341.599 809.249V778.042C341.599 776.886 342.532 775.988 343.732 775.988C344.932 775.988 345.866 776.886 345.866 778.042V809.249C345.866 811.303 347.999 812.973 350.532 812.973C353.066 812.973 355.199 811.303 355.199 809.249V777.785C355.199 776.886 355.999 776.244 356.799 776.244H367.599C368.666 776.244 369.466 775.217 369.199 774.318L356.399 735.15C356.266 734.636 356.532 733.994 357.066 733.865C357.599 733.609 358.266 733.994 358.532 734.508L366.666 758.009C367.732 761.091 371.999 762.118 374.132 759.55C374.266 759.421 374.266 759.293 374.399 759.164C375.199 757.238 375.332 755.44 374.666 753.771Z" fill="#2A4AAC"/>
<path d="M343.6 692C337.467 692 332.4 696.88 332.4 702.787C332.4 708.695 337.467 713.575 343.6 713.575C349.733 713.575 354.8 708.695 354.8 702.787C354.8 696.88 349.733 692 343.6 692Z" fill="#2A4AAC"/>
<path d="M165.666 753.771L156.866 727.958C155.799 725.004 153.799 722.436 151.132 720.381C147.532 717.813 142.999 716.4 138.332 716.4H130.999C126.332 716.4 121.799 717.813 118.199 720.381C115.399 722.436 113.399 725.004 112.332 727.958L103.399 753.771C102.732 755.44 102.999 757.366 103.932 758.908C104.066 759.036 104.066 759.164 104.199 759.293C106.332 761.733 110.599 760.834 111.666 757.752L119.932 734.379C120.066 733.865 120.732 733.48 121.266 733.737C121.799 733.865 122.199 734.508 121.932 735.021L109.266 774.19C108.999 775.217 109.799 776.116 110.866 776.116H121.666C122.599 776.116 123.266 776.886 123.266 777.657V809.249C123.266 811.303 125.399 812.973 127.932 812.973C130.466 812.973 132.599 811.303 132.599 809.249V778.042C132.599 776.886 133.532 775.988 134.732 775.988C135.932 775.988 136.866 776.886 136.866 778.042V809.249C136.866 811.303 138.999 812.973 141.532 812.973C144.066 812.973 146.199 811.303 146.199 809.249V777.785C146.199 776.886 146.999 776.244 147.799 776.244H158.599C159.666 776.244 160.466 775.217 160.199 774.318L147.399 735.15C147.266 734.636 147.532 733.994 148.066 733.865C148.599 733.609 149.266 733.994 149.532 734.508L157.666 758.009C158.732 761.091 162.999 762.118 165.132 759.55C165.266 759.421 165.266 759.293 165.399 759.164C166.199 757.238 166.332 755.44 165.666 753.771Z" fill="#2A4AAC"/>
<path d="M134.6 692C128.467 692 123.4 696.88 123.4 702.787C123.4 708.695 128.467 713.575 134.6 713.575C140.733 713.575 145.8 708.695 145.8 702.787C145.8 696.88 140.733 692 134.6 692Z" fill="#2A4AAC"/>
<path d="M477.688 561.771L469.025 535.958C467.975 533.004 466.006 530.436 463.381 528.381C459.838 525.813 455.375 524.4 450.781 524.4H443.563C438.969 524.4 434.506 525.813 430.963 528.381C428.206 530.436 426.238 533.004 425.188 535.958L416.394 561.771C415.738 563.44 416 565.366 416.919 566.908C417.05 567.036 417.05 567.164 417.181 567.293C419.281 569.733 423.481 568.834 424.531 565.752L432.669 542.379C432.8 541.865 433.456 541.48 433.981 541.737C434.506 541.865 434.9 542.508 434.638 543.021L422.169 582.19C421.906 583.217 422.694 584.116 423.744 584.116H434.375C435.294 584.116 435.95 584.886 435.95 585.657V617.249C435.95 619.303 438.05 620.973 440.544 620.973C443.038 620.973 445.138 619.303 445.138 617.249V586.042C445.138 584.886 446.056 583.988 447.238 583.988C448.419 583.988 449.338 584.886 449.338 586.042V617.249C449.338 619.303 451.438 620.973 453.931 620.973C456.425 620.973 458.525 619.303 458.525 617.249V585.785C458.525 584.886 459.313 584.244 460.1 584.244H470.731C471.781 584.244 472.569 583.217 472.306 582.318L459.706 543.15C459.575 542.636 459.838 541.994 460.363 541.865C460.888 541.609 461.544 541.994 461.806 542.508L469.813 566.009C470.863 569.091 475.063 570.118 477.163 567.55C477.294 567.421 477.294 567.293 477.425 567.164C478.213 565.238 478.344 563.44 477.688 561.771Z" fill="#FF7BF9"/>
<path d="M447.106 500C441.069 500 436.081 504.88 436.081 510.787C436.081 516.695 441.069 521.575 447.106 521.575C453.144 521.575 458.131 516.695 458.131 510.787C458.131 504.88 453.144 500 447.106 500Z" fill="#FF7BF9"/>
<path d="M477.688 753.771L469.025 727.958C467.975 725.004 466.006 722.436 463.381 720.381C459.838 717.813 455.375 716.4 450.781 716.4H443.563C438.969 716.4 434.506 717.813 430.963 720.381C428.206 722.436 426.238 725.004 425.188 727.958L416.394 753.771C415.738 755.44 416 757.366 416.919 758.908C417.05 759.036 417.05 759.164 417.181 759.293C419.281 761.733 423.481 760.834 424.531 757.752L432.669 734.379C432.8 733.865 433.456 733.48 433.981 733.737C434.506 733.865 434.9 734.508 434.638 735.021L422.169 774.19C421.906 775.217 422.694 776.116 423.744 776.116H434.375C435.294 776.116 435.95 776.886 435.95 777.657V809.249C435.95 811.303 438.05 812.973 440.544 812.973C443.038 812.973 445.138 811.303 445.138 809.249V778.042C445.138 776.886 446.056 775.988 447.238 775.988C448.419 775.988 449.338 776.886 449.338 778.042V809.249C449.338 811.303 451.438 812.973 453.931 812.973C456.425 812.973 458.525 811.303 458.525 809.249V777.785C458.525 776.886 459.313 776.244 460.1 776.244H470.731C471.781 776.244 472.569 775.217 472.306 774.318L459.706 735.15C459.575 734.636 459.838 733.994 460.363 733.865C460.888 733.609 461.544 733.994 461.806 734.508L469.813 758.009C470.863 761.091 475.063 762.118 477.163 759.55C477.294 759.421 477.294 759.293 477.425 759.164C478.213 757.238 478.344 755.44 477.688 753.771Z" fill="#2A4AAC"/>
<path d="M447.106 692C441.069 692 436.081 696.88 436.081 702.787C436.081 708.695 441.069 713.575 447.106 713.575C453.144 713.575 458.131 708.695 458.131 702.787C458.131 696.88 453.144 692 447.106 692Z" fill="#2A4AAC"/>
<path d="M581.688 753.771L573.025 727.958C571.975 725.004 570.006 722.436 567.381 720.381C563.838 717.813 559.375 716.4 554.781 716.4H547.563C542.969 716.4 538.506 717.813 534.963 720.381C532.206 722.436 530.238 725.004 529.188 727.958L520.394 753.771C519.738 755.44 520 757.366 520.919 758.908C521.05 759.036 521.05 759.164 521.181 759.293C523.281 761.733 527.481 760.834 528.531 757.752L536.669 734.379C536.8 733.865 537.456 733.48 537.981 733.737C538.506 733.865 538.9 734.508 538.638 735.021L526.169 774.19C525.906 775.217 526.694 776.116 527.744 776.116H538.375C539.294 776.116 539.95 776.886 539.95 777.657V809.249C539.95 811.303 542.05 812.973 544.544 812.973C547.038 812.973 549.138 811.303 549.138 809.249V778.042C549.138 776.886 550.056 775.988 551.238 775.988C552.419 775.988 553.338 776.886 553.338 778.042V809.249C553.338 811.303 555.438 812.973 557.931 812.973C560.425 812.973 562.525 811.303 562.525 809.249V777.785C562.525 776.886 563.313 776.244 564.1 776.244H574.731C575.781 776.244 576.569 775.217 576.306 774.318L563.706 735.15C563.575 734.636 563.838 733.994 564.363 733.865C564.888 733.609 565.544 733.994 565.806 734.508L573.813 758.009C574.863 761.091 579.063 762.118 581.163 759.55C581.294 759.421 581.294 759.293 581.425 759.164C582.213 757.238 582.344 755.44 581.688 753.771Z" fill="#FF7BF9"/>
<path d="M551.106 692C545.069 692 540.081 696.88 540.081 702.787C540.081 708.695 545.069 713.575 551.106 713.575C557.144 713.575 562.131 708.695 562.131 702.787C562.131 696.88 557.144 692 551.106 692Z" fill="#FF7BF9"/>
<path d="M374.666 560.771L365.866 534.958C364.799 532.004 362.799 529.436 360.132 527.381C356.532 524.813 351.999 523.4 347.332 523.4H339.999C335.332 523.4 330.799 524.813 327.199 527.381C324.399 529.436 322.399 532.004 321.332 534.958L312.399 560.771C311.732 562.44 311.999 564.366 312.932 565.908C313.066 566.036 313.066 566.164 313.199 566.293C315.332 568.733 319.599 567.834 320.666 564.752L328.932 541.379C329.066 540.865 329.732 540.48 330.266 540.737C330.799 540.865 331.199 541.508 330.932 542.021L318.266 581.19C317.999 582.217 318.799 583.116 319.866 583.116H330.666C331.599 583.116 332.266 583.886 332.266 584.657V616.249C332.266 618.303 334.399 619.973 336.932 619.973C339.466 619.973 341.599 618.303 341.599 616.249V585.042C341.599 583.886 342.532 582.988 343.732 582.988C344.932 582.988 345.866 583.886 345.866 585.042V616.249C345.866 618.303 347.999 619.973 350.532 619.973C353.066 619.973 355.199 618.303 355.199 616.249V584.785C355.199 583.886 355.999 583.244 356.799 583.244H367.599C368.666 583.244 369.466 582.217 369.199 581.318L356.399 542.15C356.266 541.636 356.532 540.994 357.066 540.865C357.599 540.609 358.266 540.994 358.532 541.508L366.666 565.009C367.732 568.091 371.999 569.118 374.132 566.55C374.266 566.421 374.266 566.293 374.399 566.164C375.199 564.238 375.332 562.44 374.666 560.771Z" fill="#2A4AAC"/>
<path d="M343.6 499C337.467 499 332.4 503.88 332.4 509.787C332.4 515.695 337.467 520.575 343.6 520.575C349.733 520.575 354.8 515.695 354.8 509.787C354.8 503.88 349.733 499 343.6 499Z" fill="#2A4AAC"/>
<path d="M165.666 560.771L156.866 534.958C155.799 532.004 153.799 529.436 151.132 527.381C147.532 524.813 142.999 523.4 138.332 523.4H130.999C126.332 523.4 121.799 524.813 118.199 527.381C115.399 529.436 113.399 532.004 112.332 534.958L103.399 560.771C102.732 562.44 102.999 564.366 103.932 565.908C104.066 566.036 104.066 566.164 104.199 566.293C106.332 568.733 110.599 567.834 111.666 564.752L119.932 541.379C120.066 540.865 120.732 540.48 121.266 540.737C121.799 540.865 122.199 541.508 121.932 542.021L109.266 581.19C108.999 582.217 109.799 583.116 110.866 583.116H121.666C122.599 583.116 123.266 583.886 123.266 584.657V616.249C123.266 618.303 125.399 619.973 127.932 619.973C130.466 619.973 132.599 618.303 132.599 616.249V585.042C132.599 583.886 133.532 582.988 134.732 582.988C135.932 582.988 136.866 583.886 136.866 585.042V616.249C136.866 618.303 138.999 619.973 141.532 619.973C144.066 619.973 146.199 618.303 146.199 616.249V584.785C146.199 583.886 146.999 583.244 147.799 583.244H158.599C159.666 583.244 160.466 582.217 160.199 581.318L147.399 542.15C147.266 541.636 147.532 540.994 148.066 540.865C148.599 540.609 149.266 540.994 149.532 541.508L157.666 565.009C158.732 568.091 162.999 569.118 165.132 566.55C165.266 566.421 165.266 566.293 165.399 566.164C166.199 564.238 166.332 562.44 165.666 560.771Z" fill="#FF7BF9"/>
<path d="M134.6 499C128.467 499 123.4 503.88 123.4 509.787C123.4 515.695 128.467 520.575 134.6 520.575C140.733 520.575 145.8 515.695 145.8 509.787C145.8 503.88 140.733 499 134.6 499Z" fill="#FF7BF9"/>
<path d="M581.688 560.771L573.025 534.958C571.975 532.004 570.006 529.436 567.381 527.381C563.838 524.813 559.375 523.4 554.781 523.4H547.563C542.969 523.4 538.506 524.813 534.963 527.381C532.206 529.436 530.238 532.004 529.188 534.958L520.394 560.771C519.738 562.44 520 564.366 520.919 565.908C521.05 566.036 521.05 566.164 521.181 566.293C523.281 568.733 527.481 567.834 528.531 564.752L536.669 541.379C536.8 540.865 537.456 540.48 537.981 540.737C538.506 540.865 538.9 541.508 538.638 542.021L526.169 581.19C525.906 582.217 526.694 583.116 527.744 583.116H538.375C539.294 583.116 539.95 583.886 539.95 584.657V616.249C539.95 618.303 542.05 619.973 544.544 619.973C547.038 619.973 549.138 618.303 549.138 616.249V585.042C549.138 583.886 550.056 582.988 551.238 582.988C552.419 582.988 553.338 583.886 553.338 585.042V616.249C553.338 618.303 555.438 619.973 557.931 619.973C560.425 619.973 562.525 618.303 562.525 616.249V584.785C562.525 583.886 563.313 583.244 564.1 583.244H574.731C575.781 583.244 576.569 582.217 576.306 581.318L563.706 542.15C563.575 541.636 563.838 540.994 564.363 540.865C564.888 540.609 565.544 540.994 565.806 541.508L573.813 565.009C574.863 568.091 579.063 569.118 581.163 566.55C581.294 566.421 581.294 566.293 581.425 566.164C582.213 564.238 582.344 562.44 581.688 560.771Z" fill="#2A4AAC"/>
<path d="M551.106 499C545.069 499 540.081 503.88 540.081 509.787C540.081 515.695 545.069 520.575 551.106 520.575C557.144 520.575 562.131 515.695 562.131 509.787C562.131 503.88 557.144 499 551.106 499Z" fill="#2A4AAC"/>
<defs>
<clipPath id="clip0">
<rect width="55" height="122" fill="white" transform="translate(107 116)"/>
</clipPath>
<clipPath id="clip1">
<rect width="55" height="122" fill="white" transform="translate(107 308)"/>
</clipPath>
<clipPath id="clip2">
<rect width="55" height="122" fill="white" transform="translate(213 308)"/>
</clipPath>
<clipPath id="clip3">
<rect width="55" height="122" fill="white" transform="translate(213 116)"/>
</clipPath>
<clipPath id="clip4">
<rect width="55" height="122" fill="white" transform="translate(316 116)"/>
</clipPath>
<clipPath id="clip5">
<rect width="55" height="122" fill="white" transform="translate(316 308)"/>
</clipPath>
<clipPath id="clip6">
<rect width="55" height="122" fill="white" transform="translate(420 308)"/>
</clipPath>
<clipPath id="clip7">
<rect width="55" height="122" fill="white" transform="translate(420 116)"/>
</clipPath>
<clipPath id="clip8">
<rect width="55" height="122" fill="white" transform="translate(524 116)"/>
</clipPath>
<clipPath id="clip9">
<rect width="55" height="122" fill="white" transform="translate(524 308)"/>
</clipPath>
</defs>
</svg>
