<svg width="686" height="847" viewBox="0 0 686 847" fill="none" xmlns="http://www.w3.org/2000/svg">
<path d="M1 20C1 9.50658 9.50659 1 20 1H666C676.493 1 685 9.50659 685 20V827C685 837.493 676.493 846 666 846H20C9.5066 846 1 837.493 1 827V20Z" stroke="#4055A0" stroke-width="2"/>
<path d="M119.768 445V428.248H116.792L111.896 432.184L113.576 434.368L116.408 432.064V445H119.768ZM134.96 430.384V427.312H131.744V430.384H134.96ZM134.96 445V432.64H131.744V445H134.96ZM149.703 445V437.2C149.703 434.296 148.335 432.352 145.503 432.352C143.799 432.352 142.431 432.928 141.447 434.32H141.399V432.64H138.351V445H141.567V439C141.567 436.816 142.359 434.848 144.399 434.848C146.103 434.848 146.487 436.216 146.487 438.064V445H149.703ZM167.815 445V428.248H164.839L159.943 432.184L161.623 434.368L164.455 432.064V445H167.815ZM178.031 445.288C181.871 445.288 183.887 442.24 183.887 436.672C183.887 430.984 181.871 427.96 178.031 427.96C174.119 427.96 172.223 431.392 172.223 436.672C172.223 442.552 174.215 445.288 178.031 445.288ZM178.031 442.792C175.679 442.792 175.583 439.288 175.583 436.6C175.583 434.008 175.727 430.456 178.007 430.456C180.455 430.456 180.527 434.152 180.527 436.672C180.527 439.168 180.455 442.792 178.031 442.792ZM192.382 444.76C193.558 445.072 194.83 445.288 196.006 445.288C198.886 445.288 201.214 443.968 201.214 441.256C201.214 439.192 200.062 438.16 197.758 437.512C196.294 437.104 195.622 436.768 195.622 436.072C195.622 435.16 196.414 434.704 197.542 434.704C198.55 434.704 199.294 434.848 200.398 435.232L200.614 432.808C199.078 432.448 198.118 432.352 197.134 432.352C194.35 432.352 192.262 433.696 192.262 436.192C192.262 438.256 193.39 439.144 195.55 439.72C196.846 440.08 197.854 440.392 197.854 441.424C197.854 442.6 196.606 442.936 195.742 442.936C194.638 442.936 193.582 442.624 192.574 442.12L192.382 444.76ZM215.071 445V432.64H211.855V438.616C211.855 440.992 210.967 442.792 209.023 442.792C207.847 442.792 206.935 442.168 206.935 439.696V432.64H203.719V440.44C203.719 443.44 205.159 445.288 207.919 445.288C209.527 445.288 210.919 444.592 211.975 443.32H212.023V445H215.071ZM222.782 445V434.992H225.59V432.64H222.782V431.104C222.782 429.928 223.262 429.208 224.198 429.208C224.702 429.208 225.086 429.328 225.59 429.64L225.854 426.976C225.23 426.832 224.294 426.712 223.55 426.712C220.646 426.712 219.566 428.8 219.566 430.888V432.64H217.19V434.992H219.566V445H222.782ZM231.689 445V434.992H234.497V432.64H231.689V431.104C231.689 429.928 232.169 429.208 233.105 429.208C233.609 429.208 233.993 429.328 234.497 429.64L234.761 426.976C234.137 426.832 233.201 426.712 232.457 426.712C229.553 426.712 228.473 428.8 228.473 430.888V432.64H226.097V434.992H228.473V445H231.689ZM246.537 441.688C245.337 442.36 243.993 442.936 242.457 442.936C240.369 442.936 239.049 441.76 238.905 439.816H247.449C247.449 434.944 245.769 432.352 241.569 432.352C237.633 432.352 235.833 435.424 235.833 438.88C235.833 442.936 238.209 445.288 242.313 445.288C244.017 445.288 245.361 444.952 246.537 444.304V441.688ZM238.905 437.608C239.073 435.76 240.129 434.704 241.737 434.704C243.417 434.704 244.257 435.832 244.377 437.608H238.905ZM253.249 445V439.912C253.249 436.072 254.665 435.424 255.865 435.424C256.441 435.424 257.017 435.52 257.305 435.688V432.448C257.209 432.424 257.017 432.352 256.345 432.352C254.473 432.352 253.129 434.152 252.937 435.448H252.889V432.64H250.033V445H253.249ZM258.617 444.76C259.793 445.072 261.065 445.288 262.241 445.288C265.121 445.288 267.449 443.968 267.449 441.256C267.449 439.192 266.297 438.16 263.993 437.512C262.529 437.104 261.857 436.768 261.857 436.072C261.857 435.16 262.649 434.704 263.777 434.704C264.785 434.704 265.529 434.848 266.633 435.232L266.849 432.808C265.313 432.448 264.353 432.352 263.369 432.352C260.585 432.352 258.497 433.696 258.497 436.192C258.497 438.256 259.625 439.144 261.785 439.72C263.081 440.08 264.089 440.392 264.089 441.424C264.089 442.6 262.841 442.936 261.977 442.936C260.873 442.936 259.817 442.624 258.809 442.12L258.617 444.76ZM281.025 445V434.992H283.833V432.64H281.025V431.104C281.025 429.928 281.505 429.208 282.441 429.208C282.945 429.208 283.329 429.328 283.833 429.64L284.097 426.976C283.473 426.832 282.537 426.712 281.793 426.712C278.889 426.712 277.809 428.8 277.809 430.888V432.64H275.433V434.992H277.809V445H281.025ZM289.249 445V439.912C289.249 436.072 290.665 435.424 291.865 435.424C292.441 435.424 293.017 435.52 293.305 435.688V432.448C293.209 432.424 293.017 432.352 292.345 432.352C290.473 432.352 289.129 434.152 288.937 435.448H288.889V432.64H286.033V445H289.249ZM307.011 438.904C307.011 434.92 304.299 432.352 300.531 432.352C296.763 432.352 294.075 434.944 294.075 438.904C294.075 442.552 296.547 445.288 300.531 445.288C304.515 445.288 307.011 442.576 307.011 438.904ZM300.531 442.792C298.443 442.792 297.435 441.136 297.435 438.52C297.435 436.576 298.515 434.848 300.531 434.848C302.595 434.848 303.651 436.552 303.651 438.52C303.651 441.184 302.619 442.792 300.531 442.792ZM327.635 445V437.152C327.635 433.936 326.363 432.352 323.747 432.352C322.043 432.352 320.531 433.168 319.859 434.536C319.163 433 317.939 432.352 316.235 432.352C314.675 432.352 313.379 433.12 312.539 434.368H312.491V432.64H309.491V445H312.707V438.928C312.707 436.432 313.427 434.848 315.107 434.848C316.307 434.848 316.955 435.496 316.955 437.296V445H320.171V438.952C320.171 436.36 320.939 434.848 322.571 434.848C323.723 434.848 324.419 435.448 324.419 437.296V445H327.635ZM337.547 444.64C339.155 445.048 340.091 445.288 341.819 445.288C345.827 445.288 348.131 443.464 348.131 440.224C348.131 437.104 345.875 436.072 343.619 435.232C342.227 434.68 340.787 434.2 340.787 432.928C340.787 431.176 342.179 430.6 343.427 430.6C344.555 430.6 345.707 430.84 346.835 431.32L347.147 428.56C345.923 428.152 344.579 427.96 343.163 427.96C339.995 427.96 337.283 429.472 337.283 433.072C337.283 436.216 339.611 437.152 341.843 438.016C343.499 438.664 344.627 439.216 344.627 440.488C344.627 442.024 342.875 442.648 341.651 442.648C340.379 442.648 339.059 442.264 337.859 441.616L337.547 444.64ZM350.259 449.992C351.003 450.208 351.771 450.328 352.491 450.328C355.131 450.328 356.187 448.816 357.123 446.368L362.307 432.64H359.043L356.067 441.664H356.019L353.043 432.64H349.491L354.219 445.624C354.219 446.896 353.475 447.832 352.107 447.832C351.459 447.832 350.955 447.784 350.475 447.616L350.259 449.992ZM382.315 445V437.152C382.315 433.936 381.043 432.352 378.427 432.352C376.723 432.352 375.211 433.168 374.539 434.536C373.843 433 372.619 432.352 370.915 432.352C369.355 432.352 368.059 433.12 367.219 434.368H367.171V432.64H364.171V445H367.387V438.928C367.387 436.432 368.107 434.848 369.787 434.848C370.987 434.848 371.635 435.496 371.635 437.296V445H374.851V438.952C374.851 436.36 375.619 434.848 377.251 434.848C378.403 434.848 379.099 435.448 379.099 437.296V445H382.315ZM388.763 450.04V443.584H388.811C389.795 444.76 390.779 445.288 392.435 445.288C396.131 445.288 397.691 442.408 397.691 438.784C397.691 435.112 396.107 432.352 392.507 432.352C390.779 432.352 389.483 433.048 388.667 434.392H388.619V432.64H385.547V450.04H388.763ZM391.619 442.792C389.531 442.792 388.787 440.608 388.787 438.784C388.787 437.08 389.579 434.848 391.667 434.848C393.731 434.848 394.331 437.08 394.331 438.784C394.331 440.536 393.707 442.792 391.619 442.792ZM407.467 442.456C407.131 442.672 406.579 442.792 406.027 442.792C404.898 442.792 404.491 442.024 404.491 440.728V434.992H407.347V432.64H404.491V429.136L401.275 430.168V432.64H398.899V434.992H401.275V441.28C401.275 443.656 402.595 445.288 405.211 445.288C406.147 445.288 406.891 445.192 407.563 445L407.467 442.456ZM421.691 438.904C421.691 434.92 418.979 432.352 415.211 432.352C411.443 432.352 408.755 434.944 408.755 438.904C408.755 442.552 411.227 445.288 415.211 445.288C419.195 445.288 421.691 442.576 421.691 438.904ZM415.211 442.792C413.123 442.792 412.115 441.136 412.115 438.52C412.115 436.576 413.195 434.848 415.211 434.848C417.275 434.848 418.331 436.552 418.331 438.52C418.331 441.184 417.299 442.792 415.211 442.792ZM442.315 445V437.152C442.315 433.936 441.043 432.352 438.427 432.352C436.723 432.352 435.211 433.168 434.539 434.536C433.843 433 432.619 432.352 430.915 432.352C429.355 432.352 428.059 433.12 427.219 434.368H427.171V432.64H424.171V445H427.387V438.928C427.387 436.432 428.107 434.848 429.787 434.848C430.987 434.848 431.635 435.496 431.635 437.296V445H434.851V438.952C434.851 436.36 435.619 434.848 437.251 434.848C438.403 434.848 439.099 435.448 439.099 437.296V445H442.315ZM444.875 444.76C446.051 445.072 447.323 445.288 448.499 445.288C451.379 445.288 453.707 443.968 453.707 441.256C453.707 439.192 452.555 438.16 450.251 437.512C448.787 437.104 448.115 436.768 448.115 436.072C448.115 435.16 448.907 434.704 450.035 434.704C451.043 434.704 451.787 434.848 452.891 435.232L453.107 432.808C451.571 432.448 450.611 432.352 449.627 432.352C446.843 432.352 444.755 433.696 444.755 436.192C444.755 438.256 445.883 439.144 448.043 439.72C449.339 440.08 450.347 440.392 450.347 441.424C450.347 442.6 449.099 442.936 448.235 442.936C447.131 442.936 446.075 442.624 445.067 442.12L444.875 444.76ZM472.802 441.688C471.602 442.36 470.258 442.936 468.722 442.936C466.634 442.936 465.314 441.76 465.17 439.816H473.714C473.714 434.944 472.034 432.352 467.834 432.352C463.898 432.352 462.098 435.424 462.098 438.88C462.098 442.936 464.474 445.288 468.578 445.288C470.282 445.288 471.626 444.952 472.802 444.304V441.688ZM465.17 437.608C465.338 435.76 466.394 434.704 468.002 434.704C469.682 434.704 470.522 435.832 470.642 437.608H465.17ZM483.066 445L487.626 432.64H484.41L481.434 441.64H481.386L478.314 432.64H474.858L479.442 445H483.066ZM499.474 441.688C498.274 442.36 496.93 442.936 495.394 442.936C493.306 442.936 491.986 441.76 491.842 439.816H500.386C500.386 434.944 498.706 432.352 494.506 432.352C490.57 432.352 488.77 435.424 488.77 438.88C488.77 442.936 491.146 445.288 495.25 445.288C496.954 445.288 498.298 444.952 499.474 444.304V441.688ZM491.842 437.608C492.01 435.76 493.066 434.704 494.674 434.704C496.354 434.704 497.194 435.832 497.314 437.608H491.842ZM506.186 445V439.912C506.186 436.072 507.602 435.424 508.802 435.424C509.378 435.424 509.954 435.52 510.242 435.688V432.448C510.146 432.424 509.954 432.352 509.282 432.352C507.41 432.352 506.066 434.152 505.874 435.448H505.826V432.64H502.97V445H506.186ZM511.602 449.992C512.346 450.208 513.114 450.328 513.834 450.328C516.474 450.328 517.53 448.816 518.466 446.368L523.65 432.64H520.386L517.41 441.664H517.362L514.386 432.64H510.834L515.562 445.624C515.562 446.896 514.818 447.832 513.45 447.832C512.802 447.832 512.298 447.784 511.818 447.616L511.602 449.992ZM543.594 445V427H540.378V434.08H540.33C539.37 432.904 538.242 432.352 536.634 432.352C533.082 432.352 531.45 435.04 531.45 438.784C531.45 442.216 532.866 445.288 536.634 445.288C538.146 445.288 539.466 444.808 540.426 443.608H540.474V445H543.594ZM537.522 442.792C535.434 442.792 534.81 440.536 534.81 438.784C534.81 436.864 535.53 434.848 537.474 434.848C539.538 434.848 540.354 437.056 540.354 438.784C540.354 440.584 539.634 442.792 537.522 442.792ZM557.282 445C557.138 443.344 557.09 440.752 557.09 440.104V437.56C557.09 433.84 555.458 432.352 551.762 432.352C550.274 432.352 548.618 432.76 547.466 433.288L547.562 436.048C548.642 435.232 550.01 434.704 551.378 434.704C553.106 434.704 554.162 435.256 554.162 437.32V437.368H552.17C547.346 437.368 546.122 439.456 546.122 441.592C546.122 443.944 548.21 445.288 550.442 445.288C551.978 445.288 553.538 444.472 554.258 443.152H554.306C554.33 443.704 554.354 444.544 554.45 445H557.282ZM554.162 439.432C554.162 441.952 552.674 442.936 551.234 442.936C549.938 442.936 549.194 442.384 549.194 441.424C549.194 439.96 550.466 439.288 552.746 439.288H554.162V439.432ZM559.626 449.992C560.37 450.208 561.138 450.328 561.858 450.328C564.498 450.328 565.554 448.816 566.49 446.368L571.674 432.64H568.41L565.434 441.664H565.386L562.41 432.64H558.858L563.586 445.624C563.586 446.896 562.842 447.832 561.474 447.832C560.826 447.832 560.322 447.784 559.842 447.616L559.626 449.992Z" fill="white"/>
<g clip-path="url(#clip0)">
<path d="M164.616 541.226C164.616 534.258 159.244 527.161 152.209 524.71C148.244 523.29 143.384 522.645 137.884 522.645C132.256 522.645 127.523 523.29 123.558 524.71C116.523 527.161 111.151 534.258 111.151 541.226V566.516C111.151 569.226 113.326 571.29 116.012 571.29C118.698 571.29 120.872 569.097 120.872 566.387V539.936C120.872 539.161 121.512 538.645 122.151 538.645C122.919 538.645 123.43 539.29 123.43 539.936V576.839V578.903V613.871C123.43 616.194 125.093 618 127.139 618H132.128C133.023 618 133.919 617.613 134.558 616.968C135.326 616.194 135.837 615.032 135.837 613.871L135.709 576.968C135.709 575.807 136.605 574.903 137.756 574.903C138.907 574.903 139.802 575.807 139.802 576.968L139.93 613.871C139.93 616.194 141.593 618 143.639 618H148.5C150.546 618 152.209 616.194 152.209 613.871V578.903V539.936C152.209 539.161 152.849 538.645 153.488 538.645C154.256 538.645 154.767 539.29 154.767 539.936V566.258C154.767 566.258 154.767 566.258 154.767 566.387C154.767 566.387 154.767 566.387 154.767 566.516C154.767 569.226 156.942 571.419 159.628 571.419C160.395 571.419 161.163 571.161 161.802 570.903C163.081 570.387 164.105 569.226 164.36 567.548C164.36 567.419 164.36 567.419 164.36 567.29C164.36 567.161 164.36 567.161 164.36 567.032C164.36 566.774 164.36 566.645 164.36 566.387V541.226H164.616Z" fill="#00D7D7"/>
<path d="M137.884 519.935C143.888 519.935 148.756 515.025 148.756 508.968C148.756 502.91 143.888 498 137.884 498C131.879 498 127.012 502.91 127.012 508.968C127.012 515.025 131.879 519.935 137.884 519.935Z" fill="#00D7D7"/>
</g>
<g clip-path="url(#clip1)">
<path d="M368.637 541.226C368.637 534.258 363.558 527.161 356.907 524.71C353.158 523.29 348.563 522.645 343.363 522.645C338.042 522.645 333.567 523.29 329.819 524.71C323.167 527.161 318.088 534.258 318.088 541.226V566.516C318.088 569.226 320.144 571.29 322.684 571.29C325.223 571.29 327.279 569.097 327.279 566.387V539.936C327.279 539.161 327.884 538.645 328.488 538.645C329.214 538.645 329.698 539.29 329.698 539.936V576.839V578.903V613.871C329.698 616.194 331.27 618 333.205 618H337.921C338.767 618 339.614 617.613 340.219 616.968C340.944 616.194 341.428 615.032 341.428 613.871L341.307 576.968C341.307 575.807 342.153 574.903 343.242 574.903C344.33 574.903 345.177 575.807 345.177 576.968L345.298 613.871C345.298 616.194 346.87 618 348.805 618H353.4C355.335 618 356.907 616.194 356.907 613.871V578.903V539.936C356.907 539.161 357.512 538.645 358.116 538.645C358.842 538.645 359.326 539.29 359.326 539.936V566.258C359.326 566.258 359.326 566.258 359.326 566.387C359.326 566.387 359.326 566.387 359.326 566.516C359.326 569.226 361.381 571.419 363.921 571.419C364.647 571.419 365.372 571.161 365.977 570.903C367.186 570.387 368.154 569.226 368.395 567.548C368.395 567.419 368.395 567.419 368.395 567.29C368.395 567.161 368.395 567.161 368.395 567.032C368.395 566.774 368.395 566.645 368.395 566.387V541.226H368.637Z" fill="#2A4AAC"/>
<path d="M343.363 519.935C349.04 519.935 353.642 515.025 353.642 508.968C353.642 502.91 349.04 498 343.363 498C337.686 498 333.084 502.91 333.084 508.968C333.084 515.025 337.686 519.935 343.363 519.935Z" fill="#2A4AAC"/>
</g>
<g clip-path="url(#clip2)">
<path d="M574.616 541.226C574.616 534.258 569.244 527.161 562.21 524.71C558.244 523.29 553.384 522.645 547.884 522.645C542.256 522.645 537.523 523.29 533.558 524.71C526.523 527.161 521.151 534.258 521.151 541.226V566.516C521.151 569.226 523.326 571.29 526.012 571.29C528.698 571.29 530.872 569.097 530.872 566.387V539.936C530.872 539.161 531.512 538.645 532.151 538.645C532.919 538.645 533.43 539.29 533.43 539.936V576.839V578.903V613.871C533.43 616.194 535.093 618 537.14 618H542.128C543.023 618 543.919 617.613 544.558 616.968C545.326 616.194 545.837 615.032 545.837 613.871L545.71 576.968C545.71 575.807 546.605 574.903 547.756 574.903C548.907 574.903 549.803 575.807 549.803 576.968L549.93 613.871C549.93 616.194 551.593 618 553.64 618H558.5C560.547 618 562.21 616.194 562.21 613.871V578.903V539.936C562.21 539.161 562.849 538.645 563.489 538.645C564.256 538.645 564.768 539.29 564.768 539.936V566.258C564.768 566.258 564.768 566.258 564.768 566.387C564.768 566.387 564.768 566.387 564.768 566.516C564.768 569.226 566.942 571.419 569.628 571.419C570.396 571.419 571.163 571.161 571.803 570.903C573.082 570.387 574.105 569.226 574.361 567.548C574.361 567.419 574.361 567.419 574.361 567.29C574.361 567.161 574.361 567.161 574.361 567.032C574.361 566.774 574.361 566.645 574.361 566.387V541.226H574.616Z" fill="#2A4AAC"/>
<path d="M547.884 519.935C553.888 519.935 558.756 515.025 558.756 508.968C558.756 502.91 553.888 498 547.884 498C541.879 498 537.012 502.91 537.012 508.968C537.012 515.025 541.879 519.935 547.884 519.935Z" fill="#2A4AAC"/>
</g>
<path d="M271.666 558.771L262.866 532.958C261.799 530.004 259.799 527.436 257.132 525.381C253.532 522.813 248.999 521.4 244.332 521.4H236.999C232.332 521.4 227.799 522.813 224.199 525.381C221.399 527.436 219.399 530.004 218.332 532.958L209.399 558.771C208.732 560.44 208.999 562.366 209.932 563.908C210.066 564.036 210.066 564.164 210.199 564.293C212.332 566.733 216.599 565.834 217.666 562.752L225.932 539.379C226.066 538.865 226.732 538.48 227.266 538.737C227.799 538.865 228.199 539.508 227.932 540.021L215.266 579.19C214.999 580.217 215.799 581.116 216.866 581.116H227.666C228.599 581.116 229.266 581.886 229.266 582.657V614.249C229.266 616.303 231.399 617.973 233.932 617.973C236.466 617.973 238.599 616.303 238.599 614.249V583.042C238.599 581.886 239.532 580.988 240.732 580.988C241.932 580.988 242.866 581.886 242.866 583.042V614.249C242.866 616.303 244.999 617.973 247.532 617.973C250.066 617.973 252.199 616.303 252.199 614.249V582.785C252.199 581.886 252.999 581.244 253.799 581.244H264.599C265.666 581.244 266.466 580.217 266.199 579.318L253.399 540.15C253.266 539.636 253.532 538.994 254.066 538.865C254.599 538.609 255.266 538.994 255.532 539.508L263.666 563.009C264.732 566.091 268.999 567.118 271.132 564.55C271.266 564.421 271.266 564.293 271.399 564.164C272.199 562.238 272.332 560.44 271.666 558.771Z" fill="#2A4AAC"/>
<path d="M240.6 497C234.467 497 229.4 501.88 229.4 507.787C229.4 513.695 234.467 518.575 240.6 518.575C246.733 518.575 251.8 513.695 251.8 507.787C251.8 501.88 246.733 497 240.6 497Z" fill="#2A4AAC"/>
<path d="M474.688 558.771L466.025 532.958C464.975 530.004 463.006 527.436 460.381 525.381C456.838 522.813 452.375 521.4 447.781 521.4H440.563C435.969 521.4 431.506 522.813 427.963 525.381C425.206 527.436 423.238 530.004 422.188 532.958L413.394 558.771C412.738 560.44 413 562.366 413.919 563.908C414.05 564.036 414.05 564.164 414.181 564.293C416.281 566.733 420.481 565.834 421.531 562.752L429.669 539.379C429.8 538.865 430.456 538.48 430.981 538.737C431.506 538.865 431.9 539.508 431.638 540.021L419.169 579.19C418.906 580.217 419.694 581.116 420.744 581.116H431.375C432.294 581.116 432.95 581.886 432.95 582.657V614.249C432.95 616.303 435.05 617.973 437.544 617.973C440.038 617.973 442.138 616.303 442.138 614.249V583.042C442.138 581.886 443.056 580.988 444.238 580.988C445.419 580.988 446.338 581.886 446.338 583.042V614.249C446.338 616.303 448.438 617.973 450.931 617.973C453.425 617.973 455.525 616.303 455.525 614.249V582.785C455.525 581.886 456.313 581.244 457.1 581.244H467.731C468.781 581.244 469.569 580.217 469.306 579.318L456.706 540.15C456.575 539.636 456.838 538.994 457.363 538.865C457.888 538.609 458.544 538.994 458.806 539.508L466.813 563.009C467.863 566.091 472.063 567.118 474.163 564.55C474.294 564.421 474.294 564.293 474.425 564.164C475.213 562.238 475.344 560.44 474.688 558.771Z" fill="#2A4AAC"/>
<path d="M444.106 497C438.069 497 433.081 501.88 433.081 507.787C433.081 513.695 438.069 518.575 444.106 518.575C450.144 518.575 455.131 513.695 455.131 507.787C455.131 501.88 450.144 497 444.106 497Z" fill="#2A4AAC"/>
<g clip-path="url(#clip3)">
<path d="M164.616 687.226C164.616 680.258 159.244 673.161 152.209 670.71C148.244 669.29 143.384 668.645 137.884 668.645C132.256 668.645 127.523 669.29 123.558 670.71C116.523 673.161 111.151 680.258 111.151 687.226V712.516C111.151 715.226 113.326 717.29 116.012 717.29C118.698 717.29 120.872 715.097 120.872 712.387V685.936C120.872 685.161 121.512 684.645 122.151 684.645C122.919 684.645 123.43 685.29 123.43 685.936V722.839V724.903V759.871C123.43 762.194 125.093 764 127.139 764H132.128C133.023 764 133.919 763.613 134.558 762.968C135.326 762.194 135.837 761.032 135.837 759.871L135.709 722.968C135.709 721.807 136.605 720.903 137.756 720.903C138.907 720.903 139.802 721.807 139.802 722.968L139.93 759.871C139.93 762.194 141.593 764 143.639 764H148.5C150.546 764 152.209 762.194 152.209 759.871V724.903V685.936C152.209 685.161 152.849 684.645 153.488 684.645C154.256 684.645 154.767 685.29 154.767 685.936V712.258C154.767 712.258 154.767 712.258 154.767 712.387C154.767 712.387 154.767 712.387 154.767 712.516C154.767 715.226 156.942 717.419 159.628 717.419C160.395 717.419 161.163 717.161 161.802 716.903C163.081 716.387 164.105 715.226 164.36 713.548C164.36 713.419 164.36 713.419 164.36 713.29C164.36 713.161 164.36 713.161 164.36 713.032C164.36 712.774 164.36 712.645 164.36 712.387V687.226H164.616Z" fill="#2A4AAC"/>
<path d="M137.884 665.935C143.888 665.935 148.756 661.025 148.756 654.968C148.756 648.91 143.888 644 137.884 644C131.879 644 127.012 648.91 127.012 654.968C127.012 661.025 131.879 665.935 137.884 665.935Z" fill="#2A4AAC"/>
</g>
<g clip-path="url(#clip4)">
<path d="M368.637 687.226C368.637 680.258 363.558 673.161 356.907 670.71C353.158 669.29 348.563 668.645 343.363 668.645C338.042 668.645 333.567 669.29 329.819 670.71C323.167 673.161 318.088 680.258 318.088 687.226V712.516C318.088 715.226 320.144 717.29 322.684 717.29C325.223 717.29 327.279 715.097 327.279 712.387V685.936C327.279 685.161 327.884 684.645 328.488 684.645C329.214 684.645 329.698 685.29 329.698 685.936V722.839V724.903V759.871C329.698 762.194 331.27 764 333.205 764H337.921C338.767 764 339.614 763.613 340.219 762.968C340.944 762.194 341.428 761.032 341.428 759.871L341.307 722.968C341.307 721.807 342.153 720.903 343.242 720.903C344.33 720.903 345.177 721.807 345.177 722.968L345.298 759.871C345.298 762.194 346.87 764 348.805 764H353.4C355.335 764 356.907 762.194 356.907 759.871V724.903V685.936C356.907 685.161 357.512 684.645 358.116 684.645C358.842 684.645 359.326 685.29 359.326 685.936V712.258C359.326 712.258 359.326 712.258 359.326 712.387C359.326 712.387 359.326 712.387 359.326 712.516C359.326 715.226 361.381 717.419 363.921 717.419C364.647 717.419 365.372 717.161 365.977 716.903C367.186 716.387 368.154 715.226 368.395 713.548C368.395 713.419 368.395 713.419 368.395 713.29C368.395 713.161 368.395 713.161 368.395 713.032C368.395 712.774 368.395 712.645 368.395 712.387V687.226H368.637Z" fill="#2A4AAC"/>
<path d="M343.363 665.935C349.04 665.935 353.642 661.025 353.642 654.968C353.642 648.91 349.04 644 343.363 644C337.686 644 333.084 648.91 333.084 654.968C333.084 661.025 337.686 665.935 343.363 665.935Z" fill="#2A4AAC"/>
</g>
<g clip-path="url(#clip5)">
<path d="M574.616 687.226C574.616 680.258 569.244 673.161 562.21 670.71C558.244 669.29 553.384 668.645 547.884 668.645C542.256 668.645 537.523 669.29 533.558 670.71C526.523 673.161 521.151 680.258 521.151 687.226V712.516C521.151 715.226 523.326 717.29 526.012 717.29C528.698 717.29 530.872 715.097 530.872 712.387V685.936C530.872 685.161 531.512 684.645 532.151 684.645C532.919 684.645 533.43 685.29 533.43 685.936V722.839V724.903V759.871C533.43 762.194 535.093 764 537.14 764H542.128C543.023 764 543.919 763.613 544.558 762.968C545.326 762.194 545.837 761.032 545.837 759.871L545.71 722.968C545.71 721.807 546.605 720.903 547.756 720.903C548.907 720.903 549.803 721.807 549.803 722.968L549.93 759.871C549.93 762.194 551.593 764 553.64 764H558.5C560.547 764 562.21 762.194 562.21 759.871V724.903V685.936C562.21 685.161 562.849 684.645 563.489 684.645C564.256 684.645 564.768 685.29 564.768 685.936V712.258C564.768 712.258 564.768 712.258 564.768 712.387C564.768 712.387 564.768 712.387 564.768 712.516C564.768 715.226 566.942 717.419 569.628 717.419C570.396 717.419 571.163 717.161 571.803 716.903C573.082 716.387 574.105 715.226 574.361 713.548C574.361 713.419 574.361 713.419 574.361 713.29C574.361 713.161 574.361 713.161 574.361 713.032C574.361 712.774 574.361 712.645 574.361 712.387V687.226H574.616Z" fill="#2A4AAC"/>
<path d="M547.884 665.935C553.888 665.935 558.756 661.025 558.756 654.968C558.756 648.91 553.888 644 547.884 644C541.879 644 537.012 648.91 537.012 654.968C537.012 661.025 541.879 665.935 547.884 665.935Z" fill="#2A4AAC"/>
</g>
<path d="M271.666 704.771L262.866 678.958C261.799 676.004 259.799 673.436 257.132 671.381C253.532 668.813 248.999 667.4 244.332 667.4H236.999C232.332 667.4 227.799 668.813 224.199 671.381C221.399 673.436 219.399 676.004 218.332 678.958L209.399 704.771C208.732 706.44 208.999 708.366 209.932 709.908C210.066 710.036 210.066 710.164 210.199 710.293C212.332 712.733 216.599 711.834 217.666 708.752L225.932 685.379C226.066 684.865 226.732 684.48 227.266 684.737C227.799 684.865 228.199 685.508 227.932 686.021L215.266 725.19C214.999 726.217 215.799 727.116 216.866 727.116H227.666C228.599 727.116 229.266 727.886 229.266 728.657V760.249C229.266 762.303 231.399 763.973 233.932 763.973C236.466 763.973 238.599 762.303 238.599 760.249V729.042C238.599 727.886 239.532 726.988 240.732 726.988C241.932 726.988 242.866 727.886 242.866 729.042V760.249C242.866 762.303 244.999 763.973 247.532 763.973C250.066 763.973 252.199 762.303 252.199 760.249V728.785C252.199 727.886 252.999 727.244 253.799 727.244H264.599C265.666 727.244 266.466 726.217 266.199 725.318L253.399 686.15C253.266 685.636 253.532 684.994 254.066 684.865C254.599 684.609 255.266 684.994 255.532 685.508L263.666 709.009C264.732 712.091 268.999 713.118 271.132 710.55C271.266 710.421 271.266 710.293 271.399 710.164C272.199 708.238 272.332 706.44 271.666 704.771Z" fill="#2A4AAC"/>
<path d="M240.6 643C234.467 643 229.4 647.88 229.4 653.787C229.4 659.695 234.467 664.575 240.6 664.575C246.733 664.575 251.8 659.695 251.8 653.787C251.8 647.88 246.733 643 240.6 643Z" fill="#2A4AAC"/>
<path d="M474.688 704.771L466.025 678.958C464.975 676.004 463.006 673.436 460.381 671.381C456.838 668.813 452.375 667.4 447.781 667.4H440.563C435.969 667.4 431.506 668.813 427.963 671.381C425.206 673.436 423.238 676.004 422.188 678.958L413.394 704.771C412.738 706.44 413 708.366 413.919 709.908C414.05 710.036 414.05 710.164 414.181 710.293C416.281 712.733 420.481 711.834 421.531 708.752L429.669 685.379C429.8 684.865 430.456 684.48 430.981 684.737C431.506 684.865 431.9 685.508 431.638 686.021L419.169 725.19C418.906 726.217 419.694 727.116 420.744 727.116H431.375C432.294 727.116 432.95 727.886 432.95 728.657V760.249C432.95 762.303 435.05 763.973 437.544 763.973C440.038 763.973 442.138 762.303 442.138 760.249V729.042C442.138 727.886 443.056 726.988 444.238 726.988C445.419 726.988 446.338 727.886 446.338 729.042V760.249C446.338 762.303 448.438 763.973 450.931 763.973C453.425 763.973 455.525 762.303 455.525 760.249V728.785C455.525 727.886 456.313 727.244 457.1 727.244H467.731C468.781 727.244 469.569 726.217 469.306 725.318L456.706 686.15C456.575 685.636 456.838 684.994 457.363 684.865C457.888 684.609 458.544 684.994 458.806 685.508L466.813 709.009C467.863 712.091 472.063 713.118 474.163 710.55C474.294 710.421 474.294 710.293 474.425 710.164C475.213 708.238 475.344 706.44 474.688 704.771Z" fill="#2A4AAC"/>
<path d="M444.106 643C438.069 643 433.081 647.88 433.081 653.787C433.081 659.695 438.069 664.575 444.106 664.575C450.144 664.575 455.131 659.695 455.131 653.787C455.131 647.88 450.144 643 444.106 643Z" fill="#2A4AAC"/>
<g clip-path="url(#clip6)">
<path d="M167.616 244.946C167.616 237.863 162.244 230.648 155.209 228.155C151.244 226.712 146.384 226.056 140.884 226.056C135.256 226.056 130.523 226.712 126.558 228.155C119.523 230.648 114.151 237.863 114.151 244.946V270.658C114.151 273.413 116.326 275.512 119.012 275.512C121.698 275.512 123.872 273.282 123.872 270.527V243.635C123.872 242.848 124.512 242.323 125.151 242.323C125.919 242.323 126.43 242.979 126.43 243.635V281.153V283.252V318.802C126.43 321.164 128.093 323 130.139 323H135.128C136.023 323 136.919 322.607 137.558 321.951C138.326 321.164 138.837 319.983 138.837 318.802L138.709 281.284C138.709 280.103 139.605 279.185 140.756 279.185C141.907 279.185 142.802 280.103 142.802 281.284L142.93 318.802C142.93 321.164 144.593 323 146.639 323H151.5C153.546 323 155.209 321.164 155.209 318.802V283.252V243.635C155.209 242.848 155.849 242.323 156.488 242.323C157.256 242.323 157.767 242.979 157.767 243.635V270.396C157.767 270.396 157.767 270.396 157.767 270.527C157.767 270.527 157.767 270.527 157.767 270.658C157.767 273.413 159.942 275.643 162.628 275.643C163.395 275.643 164.163 275.381 164.802 275.118C166.081 274.594 167.105 273.413 167.36 271.708C167.36 271.577 167.36 271.577 167.36 271.445C167.36 271.314 167.36 271.314 167.36 271.183C167.36 270.921 167.36 270.789 167.36 270.527V244.946H167.616Z" fill="#00D7D7"/>
<path d="M140.884 223.301C146.888 223.301 151.756 218.309 151.756 212.151C151.756 205.992 146.888 201 140.884 201C134.879 201 130.012 205.992 130.012 212.151C130.012 218.309 134.879 223.301 140.884 223.301Z" fill="#00D7D7"/>
</g>
<g clip-path="url(#clip7)">
<path d="M351.616 244.946C351.616 237.863 346.244 230.648 339.21 228.155C335.244 226.712 330.384 226.056 324.884 226.056C319.256 226.056 314.523 226.712 310.558 228.155C303.523 230.648 298.151 237.863 298.151 244.946V270.658C298.151 273.413 300.326 275.512 303.012 275.512C305.698 275.512 307.872 273.282 307.872 270.527V243.635C307.872 242.848 308.512 242.323 309.151 242.323C309.919 242.323 310.43 242.979 310.43 243.635V281.153V283.252V318.802C310.43 321.164 312.093 323 314.14 323H319.128C320.023 323 320.919 322.607 321.558 321.951C322.326 321.164 322.837 319.983 322.837 318.802L322.71 281.284C322.71 280.103 323.605 279.185 324.756 279.185C325.907 279.185 326.803 280.103 326.803 281.284L326.93 318.802C326.93 321.164 328.593 323 330.64 323H335.5C337.547 323 339.21 321.164 339.21 318.802V283.252V243.635C339.21 242.848 339.849 242.323 340.489 242.323C341.256 242.323 341.768 242.979 341.768 243.635V270.396C341.768 270.396 341.768 270.396 341.768 270.527C341.768 270.527 341.768 270.527 341.768 270.658C341.768 273.413 343.942 275.643 346.628 275.643C347.396 275.643 348.163 275.381 348.803 275.118C350.082 274.594 351.105 273.413 351.361 271.708C351.361 271.577 351.361 271.577 351.361 271.445C351.361 271.314 351.361 271.314 351.361 271.183C351.361 270.921 351.361 270.789 351.361 270.527V244.946H351.616Z" fill="#2A4AAC"/>
<path d="M324.884 223.301C330.888 223.301 335.756 218.309 335.756 212.151C335.756 205.992 330.888 201 324.884 201C318.879 201 314.012 205.992 314.012 212.151C314.012 218.309 318.879 223.301 324.884 223.301Z" fill="#2A4AAC"/>
</g>
<path d="M263.688 262.783L255.025 236.548C253.975 233.546 252.006 230.935 249.381 228.847C245.838 226.236 241.375 224.8 236.781 224.8H229.563C224.969 224.8 220.506 226.236 216.963 228.847C214.206 230.935 212.238 233.546 211.188 236.548L202.394 262.783C201.738 264.48 202 266.438 202.919 268.004C203.05 268.135 203.05 268.266 203.181 268.396C205.281 270.876 209.481 269.962 210.531 266.83L218.669 243.074C218.8 242.552 219.456 242.16 219.981 242.421C220.506 242.552 220.9 243.205 220.638 243.727L208.169 283.537C207.906 284.581 208.694 285.495 209.744 285.495H220.375C221.294 285.495 221.95 286.278 221.95 287.061V319.171C221.95 321.259 224.05 322.956 226.544 322.956C229.038 322.956 231.138 321.259 231.138 319.171V287.453C231.138 286.278 232.056 285.364 233.238 285.364C234.419 285.364 235.338 286.278 235.338 287.453V319.171C235.338 321.259 237.438 322.956 239.931 322.956C242.425 322.956 244.525 321.259 244.525 319.171V287.192C244.525 286.278 245.313 285.626 246.1 285.626H256.731C257.781 285.626 258.569 284.581 258.306 283.668L245.706 243.857C245.575 243.335 245.838 242.682 246.363 242.552C246.888 242.291 247.544 242.682 247.806 243.204L255.813 267.091C256.863 270.223 261.063 271.268 263.163 268.657C263.294 268.527 263.294 268.396 263.425 268.266C264.213 266.308 264.344 264.48 263.688 262.783Z" fill="#2A4AAC"/>
<path d="M233.106 200C227.069 200 222.081 204.96 222.081 210.964C222.081 216.968 227.069 221.928 233.106 221.928C239.144 221.928 244.131 216.968 244.131 210.964C244.131 204.96 239.144 200 233.106 200Z" fill="#2A4AAC"/>
<path d="M445.708 262.783L437.183 236.548C436.15 233.546 434.213 230.935 431.629 228.847C428.142 226.236 423.75 224.8 419.229 224.8H412.125C407.604 224.8 403.213 226.236 399.725 228.847C397.013 230.935 395.075 233.546 394.042 236.548L385.388 262.783C384.742 264.48 385 266.438 385.904 268.004C386.033 268.135 386.033 268.266 386.163 268.396C388.229 270.876 392.363 269.962 393.396 266.83L401.404 243.074C401.533 242.552 402.179 242.16 402.696 242.421C403.213 242.552 403.6 243.205 403.342 243.727L391.071 283.537C390.813 284.581 391.588 285.495 392.621 285.495H403.083C403.988 285.495 404.633 286.278 404.633 287.061V319.171C404.633 321.259 406.7 322.956 409.154 322.956C411.608 322.956 413.675 321.259 413.675 319.171V287.453C413.675 286.278 414.579 285.364 415.742 285.364C416.904 285.364 417.808 286.278 417.808 287.453V319.171C417.808 321.259 419.875 322.956 422.329 322.956C424.783 322.956 426.85 321.259 426.85 319.171V287.192C426.85 286.278 427.625 285.626 428.4 285.626H438.863C439.896 285.626 440.671 284.581 440.413 283.668L428.013 243.857C427.883 243.335 428.142 242.682 428.658 242.552C429.175 242.291 429.821 242.682 430.079 243.204L437.958 267.091C438.992 270.223 443.125 271.268 445.192 268.657C445.321 268.527 445.321 268.396 445.45 268.266C446.225 266.308 446.354 264.48 445.708 262.783Z" fill="#2A4AAC"/>
<path d="M415.613 200C409.671 200 404.763 204.96 404.763 210.964C404.763 216.968 409.671 221.928 415.613 221.928C421.554 221.928 426.463 216.968 426.463 210.964C426.463 204.96 421.554 200 415.613 200Z" fill="#2A4AAC"/>
<path d="M122.768 111V94.248H119.792L114.896 98.184L116.576 100.368L119.408 98.064V111H122.768ZM137.96 96.384V93.312H134.744V96.384H137.96ZM137.96 111V98.64H134.744V111H137.96ZM152.703 111V103.2C152.703 100.296 151.335 98.352 148.503 98.352C146.799 98.352 145.431 98.928 144.447 100.32H144.399V98.64H141.351V111H144.567V105C144.567 102.816 145.359 100.848 147.399 100.848C149.103 100.848 149.487 102.216 149.487 104.064V111H152.703ZM171.871 111V107.52H174.007V105.024H171.871V94.248H167.695L161.431 104.808V107.52H168.655V111H171.871ZM168.655 105.024H164.455L168.607 97.752H168.655V105.024ZM182.047 110.76C183.223 111.072 184.495 111.288 185.671 111.288C188.551 111.288 190.879 109.968 190.879 107.256C190.879 105.192 189.727 104.16 187.423 103.512C185.959 103.104 185.287 102.768 185.287 102.072C185.287 101.16 186.079 100.704 187.207 100.704C188.215 100.704 188.959 100.848 190.063 101.232L190.279 98.808C188.743 98.448 187.783 98.352 186.799 98.352C184.015 98.352 181.927 99.696 181.927 102.192C181.927 104.256 183.055 105.144 185.215 105.72C186.511 106.08 187.519 106.392 187.519 107.424C187.519 108.6 186.271 108.936 185.407 108.936C184.303 108.936 183.247 108.624 182.239 108.12L182.047 110.76ZM204.735 111V98.64H201.519V104.616C201.519 106.992 200.631 108.792 198.687 108.792C197.511 108.792 196.599 108.168 196.599 105.696V98.64H193.383V106.44C193.383 109.44 194.823 111.288 197.583 111.288C199.191 111.288 200.583 110.592 201.639 109.32H201.687V111H204.735ZM212.446 111V100.992H215.254V98.64H212.446V97.104C212.446 95.928 212.926 95.208 213.862 95.208C214.366 95.208 214.75 95.328 215.254 95.64L215.518 92.976C214.894 92.832 213.958 92.712 213.214 92.712C210.31 92.712 209.23 94.8 209.23 96.888V98.64H206.854V100.992H209.23V111H212.446ZM221.353 111V100.992H224.161V98.64H221.353V97.104C221.353 95.928 221.833 95.208 222.769 95.208C223.273 95.208 223.657 95.328 224.161 95.64L224.425 92.976C223.801 92.832 222.865 92.712 222.121 92.712C219.217 92.712 218.137 94.8 218.137 96.888V98.64H215.761V100.992H218.137V111H221.353ZM236.201 107.688C235.001 108.36 233.657 108.936 232.121 108.936C230.033 108.936 228.713 107.76 228.569 105.816H237.113C237.113 100.944 235.433 98.352 231.233 98.352C227.297 98.352 225.497 101.424 225.497 104.88C225.497 108.936 227.873 111.288 231.977 111.288C233.681 111.288 235.025 110.952 236.201 110.304V107.688ZM228.569 103.608C228.737 101.76 229.793 100.704 231.401 100.704C233.081 100.704 233.921 101.832 234.041 103.608H228.569ZM242.913 111V105.912C242.913 102.072 244.329 101.424 245.529 101.424C246.105 101.424 246.681 101.52 246.969 101.688V98.448C246.873 98.424 246.681 98.352 246.009 98.352C244.137 98.352 242.793 100.152 242.601 101.448H242.553V98.64H239.697V111H242.913ZM248.281 110.76C249.457 111.072 250.729 111.288 251.905 111.288C254.785 111.288 257.113 109.968 257.113 107.256C257.113 105.192 255.961 104.16 253.657 103.512C252.193 103.104 251.521 102.768 251.521 102.072C251.521 101.16 252.313 100.704 253.441 100.704C254.449 100.704 255.193 100.848 256.297 101.232L256.513 98.808C254.977 98.448 254.017 98.352 253.033 98.352C250.249 98.352 248.161 99.696 248.161 102.192C248.161 104.256 249.289 105.144 251.449 105.72C252.745 106.08 253.753 106.392 253.753 107.424C253.753 108.6 252.505 108.936 251.641 108.936C250.537 108.936 249.481 108.624 248.473 108.12L248.281 110.76ZM270.689 111V100.992H273.497V98.64H270.689V97.104C270.689 95.928 271.169 95.208 272.105 95.208C272.609 95.208 272.993 95.328 273.497 95.64L273.761 92.976C273.137 92.832 272.201 92.712 271.457 92.712C268.553 92.712 267.473 94.8 267.473 96.888V98.64H265.097V100.992H267.473V111H270.689ZM278.913 111V105.912C278.913 102.072 280.329 101.424 281.529 101.424C282.105 101.424 282.681 101.52 282.969 101.688V98.448C282.873 98.424 282.681 98.352 282.009 98.352C280.137 98.352 278.793 100.152 278.601 101.448H278.553V98.64H275.697V111H278.913ZM296.675 104.904C296.675 100.92 293.963 98.352 290.195 98.352C286.427 98.352 283.739 100.944 283.739 104.904C283.739 108.552 286.211 111.288 290.195 111.288C294.179 111.288 296.675 108.576 296.675 104.904ZM290.195 108.792C288.107 108.792 287.099 107.136 287.099 104.52C287.099 102.576 288.179 100.848 290.195 100.848C292.259 100.848 293.315 102.552 293.315 104.52C293.315 107.184 292.283 108.792 290.195 108.792ZM317.299 111V103.152C317.299 99.936 316.027 98.352 313.411 98.352C311.707 98.352 310.195 99.168 309.523 100.536C308.827 99 307.603 98.352 305.899 98.352C304.339 98.352 303.043 99.12 302.203 100.368H302.155V98.64H299.155V111H302.371V104.928C302.371 102.432 303.091 100.848 304.771 100.848C305.971 100.848 306.619 101.496 306.619 103.296V111H309.835V104.952C309.835 102.36 310.603 100.848 312.235 100.848C313.387 100.848 314.083 101.448 314.083 103.296V111H317.299ZM337.123 107.688C335.923 108.36 334.579 108.936 333.043 108.936C330.955 108.936 329.635 107.76 329.491 105.816H338.035C338.035 100.944 336.355 98.352 332.155 98.352C328.219 98.352 326.419 101.424 326.419 104.88C326.419 108.936 328.795 111.288 332.899 111.288C334.603 111.288 335.947 110.952 337.123 110.304V107.688ZM329.491 103.608C329.659 101.76 330.715 100.704 332.323 100.704C334.003 100.704 334.843 101.832 334.963 103.608H329.491ZM343.763 116.04V109.584H343.811C344.795 110.76 345.779 111.288 347.435 111.288C351.131 111.288 352.691 108.408 352.691 104.784C352.691 101.112 351.107 98.352 347.507 98.352C345.779 98.352 344.483 99.048 343.667 100.392H343.619V98.64H340.547V116.04H343.763ZM346.619 108.792C344.531 108.792 343.787 106.608 343.787 104.784C343.787 103.08 344.579 100.848 346.667 100.848C348.731 100.848 349.331 103.08 349.331 104.784C349.331 106.536 348.707 108.792 346.619 108.792ZM358.507 96.384V93.312H355.291V96.384H358.507ZM358.507 111V98.64H355.291V111H358.507ZM361.226 110.76C362.402 111.072 363.674 111.288 364.85 111.288C367.73 111.288 370.058 109.968 370.058 107.256C370.058 105.192 368.906 104.16 366.602 103.512C365.138 103.104 364.466 102.768 364.466 102.072C364.466 101.16 365.258 100.704 366.386 100.704C367.394 100.704 368.138 100.848 369.242 101.232L369.458 98.808C367.922 98.448 366.962 98.352 365.978 98.352C363.194 98.352 361.106 99.696 361.106 102.192C361.106 104.256 362.234 105.144 364.394 105.72C365.69 106.08 366.698 106.392 366.698 107.424C366.698 108.6 365.45 108.936 364.586 108.936C363.482 108.936 362.426 108.624 361.418 108.12L361.226 110.76ZM384.706 104.904C384.706 100.92 381.994 98.352 378.226 98.352C374.458 98.352 371.77 100.944 371.77 104.904C371.77 108.552 374.242 111.288 378.226 111.288C382.21 111.288 384.706 108.576 384.706 104.904ZM378.226 108.792C376.138 108.792 375.13 107.136 375.13 104.52C375.13 102.576 376.21 100.848 378.226 100.848C380.29 100.848 381.346 102.552 381.346 104.52C381.346 107.184 380.314 108.792 378.226 108.792ZM398.586 111V93H395.37V100.08H395.322C394.362 98.904 393.234 98.352 391.626 98.352C388.074 98.352 386.442 101.04 386.442 104.784C386.442 108.216 387.858 111.288 391.626 111.288C393.138 111.288 394.458 110.808 395.418 109.608H395.466V111H398.586ZM392.514 108.792C390.426 108.792 389.802 106.536 389.802 104.784C389.802 102.864 390.522 100.848 392.466 100.848C394.53 100.848 395.346 103.056 395.346 104.784C395.346 106.584 394.626 108.792 392.514 108.792ZM411.818 107.688C410.618 108.36 409.274 108.936 407.738 108.936C405.65 108.936 404.33 107.76 404.186 105.816H412.73C412.73 100.944 411.05 98.352 406.85 98.352C402.914 98.352 401.114 101.424 401.114 104.88C401.114 108.936 403.49 111.288 407.594 111.288C409.298 111.288 410.642 110.952 411.818 110.304V107.688ZM404.186 103.608C404.354 101.76 405.41 100.704 407.018 100.704C408.698 100.704 409.538 101.832 409.658 103.608H404.186ZM414.57 110.76C415.746 111.072 417.018 111.288 418.194 111.288C421.074 111.288 423.402 109.968 423.402 107.256C423.402 105.192 422.25 104.16 419.946 103.512C418.482 103.104 417.81 102.768 417.81 102.072C417.81 101.16 418.602 100.704 419.73 100.704C420.738 100.704 421.482 100.848 422.586 101.232L422.802 98.808C421.266 98.448 420.306 98.352 419.322 98.352C416.538 98.352 414.45 99.696 414.45 102.192C414.45 104.256 415.578 105.144 417.738 105.72C419.034 106.08 420.042 106.392 420.042 107.424C420.042 108.6 418.794 108.936 417.93 108.936C416.826 108.936 415.77 108.624 414.762 108.12L414.57 110.76ZM442.954 111C442.81 109.344 442.762 106.752 442.762 106.104V103.56C442.762 99.84 441.13 98.352 437.434 98.352C435.946 98.352 434.29 98.76 433.138 99.288L433.234 102.048C434.314 101.232 435.682 100.704 437.05 100.704C438.778 100.704 439.834 101.256 439.834 103.32V103.368H437.842C433.018 103.368 431.794 105.456 431.794 107.592C431.794 109.944 433.882 111.288 436.114 111.288C437.65 111.288 439.21 110.472 439.93 109.152H439.978C440.002 109.704 440.026 110.544 440.122 111H442.954ZM439.834 105.432C439.834 107.952 438.346 108.936 436.906 108.936C435.61 108.936 434.866 108.384 434.866 107.424C434.866 105.96 436.138 105.288 438.418 105.288H439.834V105.432ZM456.993 111V100.992H459.801V98.64H456.993V97.104C456.993 95.928 457.473 95.208 458.409 95.208C458.913 95.208 459.297 95.328 459.801 95.64L460.065 92.976C459.441 92.832 458.505 92.712 457.761 92.712C454.857 92.712 453.777 94.8 453.777 96.888V98.64H451.401V100.992H453.777V111H456.993ZM471.841 107.688C470.641 108.36 469.297 108.936 467.761 108.936C465.673 108.936 464.353 107.76 464.209 105.816H472.753C472.753 100.944 471.073 98.352 466.873 98.352C462.937 98.352 461.137 101.424 461.137 104.88C461.137 108.936 463.513 111.288 467.617 111.288C469.321 111.288 470.665 110.952 471.841 110.304V107.688ZM464.209 103.608C464.377 101.76 465.433 100.704 467.041 100.704C468.721 100.704 469.561 101.832 469.681 103.608H464.209ZM490.889 111L494.681 98.64H491.609L489.041 107.784H488.993L486.305 98.64H482.561L480.065 107.784H480.017L477.281 98.64H473.873L478.049 111H481.721L484.361 101.568H484.409L487.097 111H490.889ZM510.521 108.456C510.185 108.672 509.633 108.792 509.081 108.792C507.953 108.792 507.545 108.024 507.545 106.728V100.992H510.401V98.64H507.545V95.136L504.329 96.168V98.64H501.953V100.992H504.329V107.28C504.329 109.656 505.649 111.288 508.265 111.288C509.201 111.288 509.945 111.192 510.617 111L510.521 108.456ZM515.889 96.384V93.312H512.673V96.384H515.889ZM515.889 111V98.64H512.673V111H515.889ZM537.377 111V103.152C537.377 99.936 536.105 98.352 533.489 98.352C531.785 98.352 530.273 99.168 529.601 100.536C528.905 99 527.681 98.352 525.977 98.352C524.417 98.352 523.121 99.12 522.281 100.368H522.233V98.64H519.233V111H522.449V104.928C522.449 102.432 523.169 100.848 524.849 100.848C526.049 100.848 526.697 101.496 526.697 103.296V111H529.913V104.952C529.913 102.36 530.681 100.848 532.313 100.848C533.465 100.848 534.161 101.448 534.161 103.296V111H537.377ZM550.521 107.688C549.321 108.36 547.977 108.936 546.441 108.936C544.353 108.936 543.033 107.76 542.889 105.816H551.433C551.433 100.944 549.753 98.352 545.553 98.352C541.617 98.352 539.817 101.424 539.817 104.88C539.817 108.936 542.193 111.288 546.297 111.288C548.001 111.288 549.345 110.952 550.521 110.304V107.688ZM542.889 103.608C543.057 101.76 544.113 100.704 545.721 100.704C547.401 100.704 548.241 101.832 548.361 103.608H542.889ZM553.273 110.76C554.449 111.072 555.721 111.288 556.897 111.288C559.777 111.288 562.105 109.968 562.105 107.256C562.105 105.192 560.953 104.16 558.649 103.512C557.185 103.104 556.513 102.768 556.513 102.072C556.513 101.16 557.305 100.704 558.433 100.704C559.441 100.704 560.185 100.848 561.289 101.232L561.505 98.808C559.969 98.448 559.009 98.352 558.025 98.352C555.241 98.352 553.153 99.696 553.153 102.192C553.153 104.256 554.281 105.144 556.441 105.72C557.737 106.08 558.745 106.392 558.745 107.424C558.745 108.6 557.497 108.936 556.633 108.936C555.529 108.936 554.473 108.624 553.465 108.12L553.273 110.76ZM124.568 146.688C123.368 147.36 122.024 147.936 120.488 147.936C118.4 147.936 117.08 146.76 116.936 144.816H125.48C125.48 139.944 123.8 137.352 119.6 137.352C115.664 137.352 113.864 140.424 113.864 143.88C113.864 147.936 116.24 150.288 120.344 150.288C122.048 150.288 123.392 149.952 124.568 149.304V146.688ZM116.936 142.608C117.104 140.76 118.16 139.704 119.768 139.704C121.448 139.704 122.288 140.832 122.408 142.608H116.936ZM134.832 150L139.392 137.64H136.176L133.2 146.64H133.152L130.08 137.64H126.624L131.208 150H134.832ZM151.24 146.688C150.04 147.36 148.696 147.936 147.16 147.936C145.072 147.936 143.752 146.76 143.608 144.816H152.152C152.152 139.944 150.472 137.352 146.272 137.352C142.336 137.352 140.536 140.424 140.536 143.88C140.536 147.936 142.912 150.288 147.016 150.288C148.72 150.288 150.064 149.952 151.24 149.304V146.688ZM143.608 142.608C143.776 140.76 144.832 139.704 146.44 139.704C148.12 139.704 148.96 140.832 149.08 142.608H143.608ZM157.952 150V144.912C157.952 141.072 159.368 140.424 160.568 140.424C161.144 140.424 161.72 140.52 162.008 140.688V137.448C161.912 137.424 161.72 137.352 161.048 137.352C159.176 137.352 157.832 139.152 157.64 140.448H157.592V137.64H154.736V150H157.952ZM163.368 154.992C164.112 155.208 164.88 155.328 165.6 155.328C168.24 155.328 169.296 153.816 170.232 151.368L175.416 137.64H172.152L169.176 146.664H169.128L166.152 137.64H162.6L167.328 150.624C167.328 151.896 166.584 152.832 165.216 152.832C164.568 152.832 164.064 152.784 163.584 152.616L163.368 154.992ZM199.632 150L203.424 137.64H200.352L197.784 146.784H197.736L195.048 137.64H191.304L188.808 146.784H188.76L186.024 137.64H182.616L186.792 150H190.464L193.104 140.568H193.152L195.84 150H199.632ZM215.248 146.688C214.048 147.36 212.704 147.936 211.168 147.936C209.08 147.936 207.76 146.76 207.616 144.816H216.16C216.16 139.944 214.48 137.352 210.28 137.352C206.344 137.352 204.544 140.424 204.544 143.88C204.544 147.936 206.92 150.288 211.024 150.288C212.728 150.288 214.072 149.952 215.248 149.304V146.688ZM207.616 142.608C207.784 140.76 208.84 139.704 210.448 139.704C212.128 139.704 212.968 140.832 213.088 142.608H207.616ZM228.584 146.688C227.384 147.36 226.04 147.936 224.504 147.936C222.416 147.936 221.096 146.76 220.952 144.816H229.496C229.496 139.944 227.816 137.352 223.616 137.352C219.68 137.352 217.88 140.424 217.88 143.88C217.88 147.936 220.256 150.288 224.36 150.288C226.064 150.288 227.408 149.952 228.584 149.304V146.688ZM220.952 142.608C221.12 140.76 222.176 139.704 223.784 139.704C225.464 139.704 226.304 140.832 226.424 142.608H220.952ZM243.552 150L238.368 143.16L242.976 137.64H239.184L235.344 142.584H235.296V132H232.08V150H235.296V144H235.344L239.472 150H243.552Z" fill="white"/>
<path d="M110 376L577 376" stroke="#4055A0"/>
<defs>
<clipPath id="clip0">
<rect width="55" height="120" fill="white" transform="translate(110 498)"/>
</clipPath>
<clipPath id="clip1">
<rect width="52" height="120" fill="white" transform="translate(317 498)"/>
</clipPath>
<clipPath id="clip2">
<rect width="55" height="120" fill="white" transform="translate(520 498)"/>
</clipPath>
<clipPath id="clip3">
<rect width="55" height="120" fill="white" transform="translate(110 644)"/>
</clipPath>
<clipPath id="clip4">
<rect width="52" height="120" fill="white" transform="translate(317 644)"/>
</clipPath>
<clipPath id="clip5">
<rect width="55" height="120" fill="white" transform="translate(520 644)"/>
</clipPath>
<clipPath id="clip6">
<rect width="55" height="122" fill="white" transform="translate(113 201)"/>
</clipPath>
<clipPath id="clip7">
<rect width="55" height="122" fill="white" transform="translate(297 201)"/>
</clipPath>
</defs>
</svg>
