<svg width="87" height="111" viewBox="0 0 87 111" fill="none" xmlns="http://www.w3.org/2000/svg">
<g filter="url(#filter0_f_1265_4302)">
<path d="M20.9629 43.2667C20.9629 30.679 31.1609 20.4746 43.7407 20.4746C56.3206 20.4746 66.5186 30.679 66.5186 43.2667V68.1308C66.5186 80.7185 56.3206 90.9229 43.7407 90.9229C31.1609 90.9229 20.9629 80.7185 20.9629 68.1308V43.2667Z" fill="#86F8FF"/>
</g>
<g filter="url(#filter1_f_1265_4302)">
<path d="M20.9629 43.2667C20.9629 30.679 31.1609 20.4746 43.7407 20.4746V20.4746C56.3206 20.4746 66.5186 30.679 66.5186 43.2667V68.1308C66.5186 80.7185 56.3206 90.9228 43.7407 90.9228V90.9228C31.1609 90.9228 20.9629 80.7185 20.9629 68.1308V43.2667Z" fill="#77EFFF"/>
</g>
<defs>
<filter id="filter0_f_1265_4302" x="0.962891" y="0.474609" width="85.5557" height="110.448" filterUnits="userSpaceOnUse" color-interpolation-filters="sRGB">
<feFlood flood-opacity="0" result="BackgroundImageFix"/>
<feBlend mode="normal" in="SourceGraphic" in2="BackgroundImageFix" result="shape"/>
<feGaussianBlur stdDeviation="10" result="effect1_foregroundBlur_1265_4302"/>
</filter>
<filter id="filter1_f_1265_4302" x="15.9629" y="15.4746" width="55.5557" height="80.4482" filterUnits="userSpaceOnUse" color-interpolation-filters="sRGB">
<feFlood flood-opacity="0" result="BackgroundImageFix"/>
<feBlend mode="normal" in="SourceGraphic" in2="BackgroundImageFix" result="shape"/>
<feGaussianBlur stdDeviation="2.5" result="effect1_foregroundBlur_1265_4302"/>
</filter>
</defs>
</svg>
