<?xml version="1.0" encoding="UTF-8"?>
<svg width="295px" height="585px" viewBox="0 0 295 585" version="1.1" xmlns="http://www.w3.org/2000/svg" xmlns:xlink="http://www.w3.org/1999/xlink">
    <title>0A9E94C5-1934-4EFB-B598-11180233D96A</title>
    <g id="Design-" stroke="none" stroke-width="1" fill="none" fill-rule="evenodd">
        <g id="v2.Summary/5" transform="translate(-572.000000, -313.000000)" fill="#FFFFFF">
            <g id="Icon" transform="translate(572.000000, 313.000000)">
                <path d="M147.15888,88.48854 L147.15888,368.64204 C146.73648,368.60244 146.50878,368.57604 146.50878,368.57604 L146.50878,368.57604 L146.50878,368.71464 C145.35048,368.80374 143.45298,368.92584 140.50938,369.04794 C133.02168,369.36474 119.39928,368.82024 114.67368,361.46454 C111.19218,356.03604 112.36698,350.59764 111.28458,343.17594 C109.58838,333.85014 97.91958,327.60654 89.21418,323.01294 C75.78978,315.93114 64.90308,301.87974 57.33288,283.65714 C50.08938,266.21664 40.97148,231.27294 36.66168,202.63224 C35.09088,162.77814 39.72738,128.01594 50.08938,100.29594 C60.68568,114.61794 78.25488,114.41334 89.29008,112.62804 C100.147755,110.87079 116.876333,103.139525 134.454824,94.6476191 L135.942241,93.9282991 C136.935051,93.4477007 137.930111,92.9651541 138.926521,92.4815916 L140.422037,91.7556024 C141.170189,91.3923434 141.918849,91.0287751 142.667637,90.6652909 L144.165273,89.938551 C145.163662,89.4542877 146.16183,88.97064 147.15888,88.48854 L147.15888,88.48854 Z M12.0219,185.39304 C17.3943,182.72004 25.6377,190.65324 31.0497,199.15734 C31.3863,199.68204 31.911,199.99554 32.4786,200.10114 C32.8647,214.54194 35.5641,235.73784 38.9301,256.76544 C35.3859,253.86144 28.7133,248.22174 22.7502,242.26524 C13.4178,232.92954 8.1378,225.48144 5.1744,210.66114 C3.2571,201.09444 4.5837,189.10884 12.0219,185.39304 Z" id="Combined-Shape" opacity="0.15"></path>
                <path d="M173.00877,76.58478 C199.51437,65.46708 232.38897,87.62658 241.46067,97.14708 C241.44747,97.19328 241.43427,97.22958 241.42107,97.27908 C241.94577,97.93578 242.49027,98.80368 243.04467,99.77718 C254.45277,129.99198 259.00347,168.65148 256.10277,213.18168 C255.041579,219.075702 253.823741,225.104708 252.500898,231.084562 L252.100946,232.87686 C247.600797,252.870272 241.980179,272.105442 237.18057,283.65978 C229.61367,301.88238 218.72367,315.93048 205.30257,323.01228 C196.59717,327.60588 184.92507,333.85278 183.22887,343.17528 C182.14647,350.59698 183.32457,356.03538 179.83977,361.46388 C175.11747,368.81958 161.49177,369.36408 154.00407,369.05058 C151.06047,368.92518 149.16627,368.80308 148.00797,368.71398 C148.01127,368.63148 148.01127,368.57868 148.01127,368.57868 C148.01127,368.57868 147.76707,368.60508 147.25887,368.65128 C147.21267,368.64798 147.19617,368.64798 147.15987,368.64138 L147.15987,368.64138 L147.15987,88.48788 C156.07977,84.17478 164.91387,79.98048 173.00877,76.58478 Z M263.46408,199.15833 C268.87608,190.65093 277.14258,182.70783 282.49188,185.39073 C289.92678,189.10653 291.25338,201.09543 289.33938,210.66213 C286.37928,225.48243 281.09598,232.93053 271.76028,242.26293 C267.87948,246.14373 263.696444,249.888803 260.272643,252.8312 L259.550979,253.449184 C258.014229,254.760478 256.657485,255.888477 255.58698,256.76643 C258.95298,235.73883 261.64908,214.53963 262.03848,200.10213 C262.60608,199.99983 263.13408,199.68303 263.46408,199.15833 Z" id="Combined-Shape" opacity="0.25"></path>
                <path d="M164.78055,288.94374 C167.13015,287.77224 168.73065,287.37294 170.18595,287.64354 C171.32115,287.83164 172.46625,287.08254 172.67745,285.91434 C172.88535,284.74944 172.11315,283.63404 170.94495,283.42284 C167.87265,282.86514 165.01815,284.03004 162.86325,285.10584 C161.43765,285.81864 160.14405,286.67004 158.88675,287.49174 C155.70885,289.57404 152.70915,291.54084 147.53145,291.54084 L146.98035,291.54084 C141.80595,291.54084 138.80625,289.57404 135.62835,287.49174 C134.37105,286.67004 133.07745,285.81864 131.64855,285.10584 C129.49695,284.03004 126.62265,282.87834 123.56685,283.42284 C122.39865,283.63404 121.62645,284.74944 121.83435,285.91434 C122.04555,287.07924 123.15435,287.85144 124.32585,287.64354 C125.75805,287.37954 127.38165,287.77224 129.73125,288.94374 C130.93245,289.54434 132.07095,290.29014 133.27545,291.07884 C136.67445,293.30634 140.52555,295.82754 146.98035,295.82754 L147.53145,295.82754 C153.98625,295.82754 157.83735,293.30634 161.23965,291.07884 C162.44415,290.29014 163.58265,289.54434 164.78055,288.94374" id="Fill-13"></path>
                <path d="M284.985522,181.371638 C283.914558,180.836156 282.807234,180.568415 281.686689,180.475863 C281.594136,180.465947 281.494973,180.462641 281.402421,180.45603 C281.108236,180.439503 280.817357,180.429587 280.519867,180.442808 C280.16949,180.446114 279.815807,180.465947 279.458819,180.505612 C279.468736,180.462641 279.488568,180.422976 279.495179,180.38331 C280.949575,170.192626 279.858778,108.513036 272.216591,92.8650623 C267.883154,83.9899444 261.497035,80.3506502 256.36368,80.3142904 C252.19882,62.6235526 237.436706,32.6365621 192.839652,29.7476038 C196.482252,27.9097767 200.164517,26.6801515 206.712602,26.0884769 C195.725305,22.9945811 192.44961,18.6280892 185.197465,16.3175837 C165.688733,10.1066539 145.155313,11.5412167 138.118022,12.9890013 C139.393924,10.0306286 143.955437,5.46581009 145.307363,5.66413674 C127.768676,3.07266843 116.536776,-1.29712891 103.98931,0.368815006 C87.5976117,2.54379734 74.3857509,8.94313747 68.6144452,13.1708007 C49.6213623,27.0768048 38.5051532,49.3918591 41.9824806,76.9195991 C33.6725937,79.2234937 22.0407353,96.0448997 18.943534,110.512829 C14.5737366,130.894199 14.5737366,150.54176 16.0314376,165.826134 L16.8809367,180.700633 C16.2066261,180.545277 15.5356209,180.469252 14.8679212,180.432892 C14.8546994,180.432892 14.8381722,180.436198 14.8282558,180.432892 C14.3489664,180.413059 13.869677,180.409754 13.4003039,180.45603 C12.2533147,180.551888 11.1261582,180.842767 10.0287507,181.391471 C0.512376665,186.148005 -1.42130824,199.888737 0.87928098,211.391683 C4.0458966,227.221456 9.92297653,235.501594 19.6575099,245.239433 C28.4136318,253.992249 38.6737309,262.070755 38.7795051,262.150086 C39.0736896,262.381467 39.4207613,262.497157 39.7678329,262.55335 C39.4108449,261.307197 38.9910535,257.072923 38.9910535,257.072923 C38.9712209,256.967149 38.9579991,256.861375 38.9381664,256.758906 C35.4046465,253.860031 28.6945946,248.191194 22.6985187,242.201729 C13.3507222,232.850628 8.0620114,225.39024 5.09372244,210.548795 C4.28388859,206.499626 4.06242382,202.020749 4.62765479,197.912081 C4.69045823,197.918692 4.75326168,197.918692 4.81606512,197.925303 C5.58623363,192.302743 7.83724119,187.37102 12.1475405,185.21587 C12.7689641,184.905158 13.4399692,184.749802 14.1341125,184.713442 C19.3864635,184.587836 26.2783148,191.585461 31.011711,199.022711 C31.3819208,199.607774 31.9967334,199.915181 32.6346842,199.974679 C32.6346842,200.040788 32.6412951,200.116813 32.6446005,200.189533 C32.6512114,200.32175 32.6578223,200.457274 32.6611277,200.58288 L36.6739371,200.58288 L36.7830167,200.58288 C35.4377009,161.469558 40.0620175,127.297875 50.2725349,99.9783784 C60.8863164,114.327312 78.4845018,114.122374 89.5379075,112.334129 C108.501241,109.263371 145.347029,87.9961429 173.397029,76.2287612 C199.943052,65.0927194 232.875193,87.2887778 241.96186,96.8249845 C241.948638,96.8712608 241.935416,96.9109261 241.922194,96.9572023 C242.44776,97.6149857 242.993158,98.4843176 243.548473,99.4594236 C253.725936,126.415322 258.403139,160.124242 257.259456,198.675639 C257.239623,199.320201 257.252845,199.938319 257.233012,200.58288 L262.45892,200.58288 L262.544861,200.58288 C262.551472,200.381248 262.567999,200.149867 262.57461,199.951541 C263.143146,199.845766 263.668712,199.531749 264.002562,199.002878 C268.395497,192.097805 274.669231,185.566247 279.739782,184.769635 C280.853717,184.624195 281.908154,184.753108 282.866732,185.235703 C290.313898,188.954328 291.645992,200.966312 289.728835,210.548795 C286.760546,225.39024 281.471835,232.853933 272.117428,242.201729 C266.26018,248.058977 259.70879,253.615429 256.115772,256.56719 C255.666232,259.61481 255.329076,261.736905 255.163804,262.536823 C255.47121,262.470714 255.775311,262.358329 256.043052,262.150086 C256.145521,262.070755 266.40562,253.992249 275.158436,245.239433 C284.899581,235.501594 290.776661,227.224761 293.943276,211.391683 C294.468842,208.753939 294.759721,206.003809 294.802692,203.266901 C294.865495,203.276818 294.931604,203.276818 294.994408,203.286734 C295.143153,194.06785 292.330219,185.043987 284.985522,181.371638" id="Fill-1"></path>
                <path d="M256.181202,213.714561 C251.455679,239.949136 243.634805,268.846768 237.262609,284.191519 C229.692531,302.417124 218.806008,316.464996 205.378525,323.546681 C196.676566,328.140207 185.007956,334.387006 183.311783,343.712654 C182.229401,351.134234 183.404182,356.569246 179.919438,361.997658 C175.197215,369.353239 161.571735,369.89773 154.084157,369.584235 C151.140605,369.458837 149.246435,369.336739 148.088154,369.24764 L148.088154,369.112343 C148.088154,369.112343 147.850558,369.142042 147.339066,369.184941 C146.827574,369.142042 146.586678,369.112343 146.586678,369.112343 C146.586678,369.112343 146.586678,369.165142 146.589978,369.24764 C145.428397,369.336739 143.534228,369.458837 140.590676,369.584235 C133.103097,369.89773 119.477618,369.353239 114.758694,361.997658 C111.270651,356.569246 112.445432,351.134234 111.366349,343.712654 C109.673477,334.387006 97.9982659,328.140207 89.296307,323.546681 C75.8721246,316.464996 64.985601,302.417124 57.4188237,284.191519 C50.1721412,266.754602 41.0543889,231.808168 36.7413589,203.167932 C36.6951596,201.979952 36.7050594,200.84147 36.66876,199.660089 C34.946188,199.927385 32.045535,200.544475 32.5603266,200.640173 C32.9497203,215.077439 35.6457766,236.276296 39.0084221,257.300255 C39.0084221,257.300255 39.5793129,263.085061 39.9621067,263.131261 C44.6183312,291.213805 50.178741,317.765175 52.6372012,325.876443 C59.8145849,349.573359 68.4769445,368.280756 82.5776159,382.711422 C83.9371939,375.177644 85.1218747,367.366671 85.534368,360.64138 C85.6267665,359.100305 86.9203455,357.922224 87.6826332,357.357933 C88.4713204,356.777143 90.0156953,355.859757 91.5567704,356.229351 C101.793204,358.714211 106.782724,364.284521 108.84849,367.379871 C112.699528,373.161377 113.616913,380.926151 111.722743,391.825874 C111.29045,394.310734 110.241068,398.165072 109.234584,401.620116 C119.421519,406.540336 128.826366,409.087895 137.360028,410.308875 C138.713006,409.236392 140.072584,408.16061 141.405762,407.104627 C154.146856,397.006791 165.148878,388.288332 167.821834,386.704358 L168.745819,386.149966 C188.730295,374.124961 193.845212,372.804983 196.062776,372.96998 C200.943397,373.369274 208.223079,379.939467 209.826853,384.938886 C225.287103,370.227725 234.487354,350.817439 242.040931,325.876443 C244.496091,317.765175 250.056501,291.213805 254.719326,263.131261 C255.09552,263.085061 261.728412,215.077439 262.117806,200.640173 C262.685397,200.534575 259.243552,199.0001 256.864291,199.0001 C256.725693,203.834522 256.507897,208.731642 256.181202,213.714561 Z" id="Fill-1" opacity="0.7"></path>
                <path d="M220.800278,475.081756 C219.345583,472.693303 217.320804,470.960119 215.161695,470.154139 C219.91239,465.550879 221.458823,459.656741 219.407833,453.893657 C217.805702,449.39524 214.195174,445.765054 210.194761,444.392267 C216.272374,438.209811 215.875937,430.336763 212.42595,424.783364 C208.802316,418.944924 201.060322,414.754483 193.858924,418.460025 C191.44426,419.705035 187.561796,421.919842 183.915228,424.042911 C184.016794,423.888923 184.124913,423.741487 184.180611,423.574394 L195.998374,409.908774 C200.215026,404.289849 209.97197,390.755283 209.578809,386.437065 C209.126674,381.404605 200.863741,373.580702 195.549516,373.144949 C193.347814,372.977855 188.266209,374.288392 168.427962,386.227379 L167.50731,386.781081 C164.85675,388.350449 153.933428,397.009819 141.280198,407.035423 C133.082792,413.532408 124.305474,420.488081 117.048378,426.093901 C113.709786,417.382109 109.086868,410.475582 107.376618,408.067471 C108.330033,405.046684 111.042844,396.269366 111.809508,391.862686 C113.693404,381.044207 112.782581,373.3317 108.955815,367.594826 C106.904825,364.518342 101.954273,358.991154 91.7910625,356.520793 C90.2610111,356.153842 88.7244071,357.064665 87.9446378,357.644578 C87.187803,358.204832 85.9034772,359.37121 85.8117396,360.904537 C85.0909445,372.653497 82.0079074,387.757431 79.7570609,398.788872 C79.2459516,401.295273 78.7774348,403.57233 78.4039319,405.521753 C77.1032244,412.234977 74.9473918,416.042085 72.8669151,419.724693 C71.0813091,422.876533 69.3972696,425.851451 68.6535402,430.087761 C66.8810395,440.228037 67.1005544,448.415614 69.4038223,458.346204 C71.6907086,468.237479 74.757364,491.741951 74.757364,502.232796 C74.757364,510.577638 56.010139,540.398896 48.7858064,551.184612 C48.1305382,552.160962 48.3926455,553.484604 49.3722715,554.139872 C50.3486212,554.798416 51.6755395,554.533033 52.324255,553.556683 C55.0567237,549.477638 79.0198841,513.37891 79.0198841,502.232796 C79.0198841,491.296369 75.9368469,467.696883 73.5516704,457.386236 C71.3860088,448.05194 71.186152,440.355814 72.8538097,430.821661 C73.4664856,427.309423 74.9080757,424.766982 76.5724571,421.824828 C78.7184607,418.027548 81.1527823,413.725712 82.5812671,406.33101 C82.9613227,404.394692 83.4200105,402.134017 83.9311197,399.640721 C86.1885189,388.576516 89.2715561,373.456201 90.0447726,361.451686 C90.2610111,361.199408 90.7426333,360.852116 91.0506094,360.727615 C99.628071,362.880171 103.726774,367.424457 105.410813,369.957068 C108.598693,374.730698 109.296554,381.457026 107.612515,391.132062 C106.744284,396.102272 103.03219,407.684139 102.992873,407.798811 L102.652134,408.857069 L103.32706,409.738405 C103.389311,409.826866 109.706097,418.233958 113.545969,428.924659 C108.179322,433.147863 101.122083,438.262232 101.036898,438.324483 C100.083482,439.015791 99.8705202,440.345985 100.561828,441.299401 C100.977924,441.87276 101.626639,442.180736 102.28846,442.180736 C102.720937,442.180736 103.156691,442.046406 103.53347,441.77447 C103.965947,441.463218 114.116052,434.104555 119.394238,429.671665 C119.404067,429.665113 119.407343,429.652007 119.417173,429.642178 C126.736519,423.997042 135.61868,416.959461 143.927482,410.374015 C155.935273,400.856243 167.277966,391.869239 169.676248,390.444031 L170.623111,389.877224 C190.304093,378.03325 194.353651,377.319007 195.2055,377.391087 C198.776712,377.682681 205.080393,383.986362 205.335947,386.794186 C205.319565,389.01227 198.711185,399.195138 192.685993,407.238556 L178.345447,423.813567 L168.735938,433.855553 C167.923406,434.704126 167.952893,436.053978 168.804742,436.866511 C169.217561,437.262948 169.748328,437.456252 170.275819,437.456252 C170.836073,437.456252 171.396327,437.236737 171.815699,436.797708 L177.837615,430.503856 C179.488891,431.555562 181.618512,430.326934 182.358966,429.89118 C186.739434,427.309423 192.627019,423.888923 195.811623,422.247476 C200.798214,419.682101 206.128822,422.70944 208.808869,427.030934 C211.570825,431.476929 212.045894,438.04927 205.113156,443.166915 L205.070564,443.209508 C205.057458,443.219337 205.041076,443.222613 205.031247,443.232442 L190.749676,454.90277 C189.838853,455.646499 189.704523,456.989799 190.448252,457.897346 C190.867624,458.415008 191.483576,458.680391 192.096252,458.680391 C192.574598,458.680391 193.049667,458.523127 193.442828,458.202045 L206.066571,447.884847 C206.3811,447.983137 206.741498,448.05194 207.164146,448.074874 C210.450316,448.255073 213.988765,451.370874 215.397591,455.322141 C216.28548,457.828543 217.006275,462.739778 211.796892,467.474091 L211.4496,467.883634 C211.302165,468.106425 211.187493,468.303006 211.062992,468.509415 C210.915556,468.574942 210.764845,468.620811 210.630515,468.725654 L204.136806,473.774496 C203.209602,474.498567 203.042508,475.835314 203.76658,476.762519 C204.185951,477.303115 204.811733,477.584881 205.444066,477.584881 C205.902754,477.584881 206.364718,477.440722 206.754603,477.136022 L211.013847,473.823641 L211.102308,473.951418 L212.396463,473.915378 C214.057568,473.820365 215.879214,475.193152 217.163539,477.296563 C218.673933,479.780029 218.949145,482.650104 217.8614,484.60608 C211.1449,496.699056 182.88318,529.885117 172.064701,539.311151 C162.320862,547.803428 138.51169,554.621494 133.302307,555.597844 L132.447182,555.758384 L131.949178,556.469351 C130.062005,559.172332 116.268609,580.245759 115.682143,581.140201 C115.039981,582.123103 115.315193,583.443469 116.298096,584.088908 C116.658493,584.324804 117.061483,584.4362 117.461197,584.4362 C118.155781,584.4362 118.83726,584.095461 119.246803,583.472956 C119.381133,583.266546 131.916415,564.113055 134.973241,559.591704 C140.638035,558.290996 164.306325,551.728485 174.862697,542.521966 C185.183172,533.528409 214.090331,500.165425 221.583324,486.676728 C223.43118,483.351241 223.129757,478.908523 220.800278,475.081756" id="Fill-24" opacity="0.2"></path>
            </g>
        </g>
    </g>
</svg>