<svg width="563" height="1477" viewBox="0 0 563 1477" fill="none" xmlns="http://www.w3.org/2000/svg">
<path d="M342.614 87.211H420.037V0H324.674C218.926 0 197.839 96.9012 200.986 150.802V950.237H289.74V145.352C289.74 98.8392 322.471 87.211 342.614 87.211Z" fill="url(#paint0_linear)"/>
<path fill-rule="evenodd" clip-rule="evenodd" d="M201.004 842.084H289.733V920.011C289.733 941.987 294.743 956.32 304.311 967.427C316.044 955.039 328.186 946.615 338.453 940.608C376.11 918.573 413.247 919.95 442.792 930.472C470.938 940.496 492.981 958.905 505.938 974.496L506.145 974.744L506.349 974.996C558.267 1039.09 568.003 1114.89 560.988 1179.15C554.103 1242.21 530.907 1298.16 510.803 1331.94C426.294 1476.92 294.584 1470.11 234.783 1453.93C198.647 1444.16 171.545 1424.61 155.724 1396.82C141.132 1371.19 139.116 1343.58 143.503 1322.12C148.657 1290.58 170.734 1275.99 183.225 1270.07C191.045 1266.37 202.622 1262.85 209.288 1260.82L209.289 1260.82C211.009 1260.3 212.402 1259.88 213.319 1259.58C235.411 1252.31 246.913 1237.37 253.726 1219.1C261.121 1199.27 262.16 1176.69 260.849 1162.38C258.346 1141.95 257.223 1123.06 257.391 1105.58C255.354 1096.2 252.565 1091.25 248.383 1084.6C244.372 1078.23 240.624 1072.46 237.137 1067.09C212.683 1029.42 201.004 1011.43 201.004 944.57V842.084ZM361.289 987.199C409.661 958.895 454.003 990.623 470.127 1010.02C550.747 1109.55 503.719 1247.03 470.127 1303.34C401.599 1421.12 296.443 1416.16 246.405 1402.63C192.39 1388.02 186.612 1350.7 190.979 1332.44C192.337 1320.9 203.426 1317.52 218.445 1312.95C221.258 1312.09 224.208 1311.19 227.258 1310.19C304.43 1284.81 312.917 1197.2 308.886 1156.11C294.374 1039.24 333.264 1003.6 361.289 987.199Z" fill="#00D7D7"/>
<path d="M308.886 1156.11C294.374 1039.24 333.264 1003.6 361.289 987.2C409.661 958.896 454.002 990.624 470.126 1010.03C550.747 1109.55 503.718 1247.04 470.126 1303.34C401.599 1421.12 296.443 1416.16 246.405 1402.63C192.389 1388.02 186.611 1350.7 190.978 1332.44C192.591 1318.75 207.92 1316.54 227.258 1310.19C304.429 1284.81 312.917 1197.2 308.886 1156.11Z" fill="#009393"/>
<path d="M113.141 1271.32C166.062 1278.85 222.829 1257.96 237.288 1247.78L178.112 1318.77L160.439 1404.49L137.412 1374.48C130.45 1366.03 114.516 1354.96 100.192 1360.55C81.6725 1367.78 81.3921 1380.47 80.8148 1390.86V1477H0V1366.03C3.23259 1269.01 73.3495 1265.66 113.141 1271.32Z" fill="url(#paint1_linear)"/>
<path fill-rule="evenodd" clip-rule="evenodd" d="M514.241 1130.06C485.71 1140.5 443.373 1147.31 403.447 1128.74C359.859 1108.48 324.906 1109.12 305.801 1113.65C305.993 1126.46 306.978 1140.56 308.906 1156.1C312.935 1197.19 304.453 1284.81 227.324 1310.18C224.276 1311.18 221.328 1312.08 218.517 1312.94C203.506 1317.52 192.423 1320.9 191.066 1332.44C186.701 1350.7 192.476 1388.02 246.461 1402.63C296.47 1416.16 401.567 1421.12 470.056 1303.33C491.205 1267.86 517.683 1200.17 514.241 1130.06Z" fill="#0041EA"/>
<path d="M349.25 1104.5C364 1104.75 378.25 1107.75 395 1114.25C410.25 1120 417 1128.75 445.5 1127.25C461.064 1126.43 480 1126.42 490.25 1125.5C504.75 1123.5 508.5 1126.75 508.5 1132.5C508.75 1140.75 496.5 1142.5 483 1147.25C470.75 1151.5 462.75 1156.5 453.75 1166C442.711 1177.65 431.5 1184 416.25 1183.75C384 1182.75 376 1170.08 373.25 1158.25C368.917 1149.67 358.75 1137 344.5 1130.5C332.944 1125.23 330.25 1120 329.5 1115.75C329.75 1111 328.207 1104.14 349.25 1104.5Z" fill="white"/>
<defs>
<linearGradient id="paint0_linear" x1="236" y1="850" x2="236" y2="438" gradientUnits="userSpaceOnUse">
<stop stop-color="#00D7D7"/>
<stop offset="1" stop-color="#00D7D7" stop-opacity="0"/>
</linearGradient>
<linearGradient id="paint1_linear" x1="43.6374" y1="1396.39" x2="40.6868" y2="1477" gradientUnits="userSpaceOnUse">
<stop stop-color="#00D7D7"/>
<stop offset="1" stop-color="#00D7D7" stop-opacity="0"/>
</linearGradient>
</defs>
</svg>
