<svg width="1920" height="610" viewBox="0 0 1920 610" fill="none" xmlns="http://www.w3.org/2000/svg">
<path d="M321.905 135.601C313.869 132.783 309.629 123.993 312.428 115.95V115.95C313.019 114.246 311.632 112.307 310.084 113.231C306.514 115.363 303.954 118.988 303.245 123.257C302.245 129.276 305.137 135.273 310.47 138.238C314.252 140.34 318.682 140.594 322.573 139.128C324.26 138.492 323.606 136.199 321.905 135.601V135.601Z" fill="#304FBD"/>
<circle cx="1288" cy="135" r="2" fill="#304FBD"/>
<circle cx="966" cy="141" r="2" fill="#2B32A0"/>
<circle cx="1092" cy="186" r="2" fill="#2B32A0"/>
<circle cx="1084" cy="171" r="2" fill="#2B32A0"/>
<circle cx="1162" cy="99" r="2" fill="#2B32A0"/>
<circle opacity="0.5" cx="740" cy="75" r="2" fill="#304FBD"/>
<circle cx="785" cy="162" r="2" fill="#304FBD"/>
<circle cx="620" cy="144" r="2" fill="#304FBD"/>
<circle cx="449" cy="150" r="2" fill="#304FBD"/>
<circle opacity="0.5" cx="475" cy="34" r="2" fill="#304FBD"/>
<circle cx="591" cy="111" r="2" fill="#304FBD"/>
<circle cx="366" cy="194" r="2" fill="#304FBD"/>
<circle cx="180" cy="74" r="2" fill="#304FBD"/>
<circle cx="270" cy="95" r="2" fill="#304FBD"/>
<circle cx="908" cy="76" r="2" fill="#304FBD"/>
<circle opacity="0.5" cx="627" cy="68" r="2" fill="#304FBD"/>
<mask id="mask0_1445_4301" style="mask-type:alpha" maskUnits="userSpaceOnUse" x="0" y="0" width="1920" height="610">
<rect width="1920" height="610" fill="url(#paint0_radial_1445_4301)"/>
</mask>
<g mask="url(#mask0_1445_4301)">
<path d="M59 257.332V421H1550V310.583H1517.18V238.538L1453.88 190.769V251.068H1431.22V281.608H1403.09V154.746H1324.94V211.13H1256.96V297.27H1244.45V271.428H1228.04V177.456H1210.85V154.746H1161.62V251.068H1116.3V316.065H1052.22V288.656V168.059L993.61 201.732V288.656H952.975V182.938H908.432V163.361H889.678V143H845.917V228.358L817.003 257.332V301.969H783.401V251.068H738.077V220.527H677.906V271.428H642.741V335.642H611.483V211.13H594.291V190.769H552.093V281.608H521.616V352.87H482.544V257.332H439.564V201.732L382.519 236.189V323.896H338.758V216.611H278.586V175.107H231.7V266.73L202.786 293.355V335.642H168.403V288.656H122.297V257.332H59Z" fill="#090540"/>
<path d="M125 -1H103C97.4772 -1 93 3.47715 93 9V416C93 421.523 97.4772 426 103 426H125C130.523 426 135 421.523 135 416V9C135 3.47715 130.523 -1 125 -1Z" fill="#2637AF"/>
<rect x="565" y="227" width="4" height="7" rx="2" fill="#0D2294"/>
<rect x="565" y="241" width="4" height="7" rx="2" fill="#0D2294"/>
<rect x="565" y="255" width="4" height="7" rx="2" fill="#0D2294"/>
<rect x="565" y="282" width="4" height="7" rx="2" fill="#0D2294"/>
<rect x="579" y="227" width="4" height="7" rx="2" fill="#0D2294"/>
<rect x="579" y="255" width="4" height="7" rx="2" fill="#0D2294"/>
<rect x="579" y="268" width="4" height="7" rx="2" fill="#0D2294"/>
<rect x="579" y="282" width="4" height="7" rx="2" fill="#0D2294"/>
<rect x="594" y="227" width="4" height="7" rx="2" fill="#0D2294"/>
<rect x="594" y="241" width="4" height="7" rx="2" fill="#0D2294"/>
<rect x="594" y="255" width="4" height="7" rx="2" fill="#0D2294"/>
<rect x="594" y="268" width="4" height="7" rx="2" fill="#0D2294"/>
<rect x="594" y="282" width="4" height="7" rx="2" fill="#0D2294"/>
<rect x="1183" y="194" width="4" height="7" rx="2" fill="#0D2294"/>
<rect x="1183" y="222" width="4" height="7" rx="2" fill="#0D2294"/>
<rect x="1183" y="249" width="4" height="7" rx="2" fill="#0D2294"/>
<rect x="1197" y="194" width="4" height="7" rx="2" fill="#0D2294"/>
<rect x="1197" y="222" width="4" height="7" rx="2" fill="#0D2294"/>
<rect x="1197" y="235" width="4" height="7" rx="2" fill="#0D2294"/>
<rect x="1197" y="249" width="4" height="7" rx="2" fill="#0D2294"/>
<rect x="1212" y="194" width="4" height="7" rx="2" fill="#0D2294"/>
<rect x="1212" y="208" width="4" height="7" rx="2" fill="#0D2294"/>
<rect x="1212" y="222" width="4" height="7" rx="2" fill="#0D2294"/>
<rect x="1212" y="249" width="4" height="7" rx="2" fill="#0D2294"/>
<rect x="1273" y="227" width="4" height="7" rx="2" fill="#0D2294"/>
<rect x="1273" y="241" width="4" height="7" rx="2" fill="#0D2294"/>
<rect x="1273" y="255" width="4" height="7" rx="2" fill="#0D2294"/>
<rect x="1273" y="282" width="4" height="7" rx="2" fill="#0D2294"/>
<rect x="1287" y="227" width="4" height="7" rx="2" fill="#0D2294"/>
<rect x="1287" y="227" width="4" height="7" rx="2" fill="#0D2294"/>
<rect x="1287" y="241" width="4" height="7" rx="2" fill="#0D2294"/>
<rect x="1287" y="255" width="4" height="7" rx="2" fill="#0D2294"/>
<rect x="1287" y="268" width="4" height="7" rx="2" fill="#0D2294"/>
<rect x="1287" y="282" width="4" height="7" rx="2" fill="#0D2294"/>
<rect x="1302" y="227" width="4" height="7" rx="2" fill="#0D2294"/>
<rect x="1302" y="241" width="4" height="7" rx="2" fill="#0D2294"/>
<rect x="1302" y="255" width="4" height="7" rx="2" fill="#0D2294"/>
<rect x="1302" y="268" width="4" height="7" rx="2" fill="#0D2294"/>
<rect x="1302" y="282" width="4" height="7" rx="2" fill="#0D2294"/>
<rect x="912" y="201" width="4" height="7" rx="2" fill="#0D2294"/>
<rect x="912" y="215" width="4" height="7" rx="2" fill="#0D2294"/>
<rect x="912" y="229" width="4" height="7" rx="2" fill="#0D2294"/>
<rect x="912" y="256" width="4" height="7" rx="2" fill="#0D2294"/>
<rect x="926" y="201" width="4" height="7" rx="2" fill="#0D2294"/>
<rect x="926" y="229" width="4" height="7" rx="2" fill="#0D2294"/>
<rect x="926" y="242" width="4" height="7" rx="2" fill="#0D2294"/>
<rect x="926" y="256" width="4" height="7" rx="2" fill="#0D2294"/>
<rect x="941" y="201" width="4" height="7" rx="2" fill="#0D2294"/>
<rect x="941" y="215" width="4" height="7" rx="2" fill="#0D2294"/>
<rect x="941" y="229" width="4" height="7" rx="2" fill="#0D2294"/>
<rect x="941" y="242" width="4" height="7" rx="2" fill="#0D2294"/>
<rect x="941" y="256" width="4" height="7" rx="2" fill="#0D2294"/>
<rect x="393" y="278" width="6" height="7" rx="3" fill="#0D2294"/>
<rect x="393" y="305" width="6" height="7" rx="3" fill="#0D2294"/>
<rect x="393" y="250" width="6" height="7" rx="3" fill="#0D2294"/>
<rect x="393" y="319" width="6" height="7" rx="3" fill="#0D2294"/>
<rect x="393" y="264" width="6" height="7" rx="3" fill="#0D2294"/>
<rect x="393" y="332" width="6" height="7" rx="3" fill="#0D2294"/>
<rect x="409" y="278" width="6" height="7" rx="3" fill="#0D2294"/>
<rect x="409" y="237" width="6" height="7" rx="3" fill="#0D2294"/>
<rect x="409" y="305" width="6" height="7" rx="3" fill="#0D2294"/>
<rect x="409" y="264" width="6" height="7" rx="3" fill="#0D2294"/>
<rect x="409" y="332" width="6" height="7" rx="3" fill="#0D2294"/>
<rect x="426" y="223" width="6" height="7" rx="3" fill="#0D2294"/>
<rect x="426" y="291" width="6" height="7" rx="3" fill="#0D2294"/>
<rect x="426" y="237" width="6" height="7" rx="3" fill="#0D2294"/>
<rect x="426" y="250" width="6" height="7" rx="3" fill="#0D2294"/>
<rect x="426" y="319" width="6" height="7" rx="3" fill="#0D2294"/>
<rect x="426" y="264" width="6" height="7" rx="3" fill="#0D2294"/>
<rect x="426" y="332" width="6" height="7" rx="3" fill="#0D2294"/>
<rect x="565" y="297" width="4" height="7" rx="2" fill="#0D2294"/>
<rect x="565" y="311" width="4" height="7" rx="2" fill="#0D2294"/>
<rect x="565" y="325" width="4" height="7" rx="2" fill="#0D2294"/>
<rect x="565" y="338" width="4" height="7" rx="2" fill="#0D2294"/>
<rect x="565" y="352" width="4" height="7" rx="2" fill="#0D2294"/>
<rect x="579" y="297" width="4" height="7" rx="2" fill="#0D2294"/>
<rect x="579" y="338" width="4" height="7" rx="2" fill="#0D2294"/>
<rect x="579" y="352" width="4" height="7" rx="2" fill="#0D2294"/>
<rect x="594" y="297" width="4" height="7" rx="2" fill="#0D2294"/>
<rect x="594" y="311" width="4" height="7" rx="2" fill="#0D2294"/>
<rect x="594" y="325" width="4" height="7" rx="2" fill="#0D2294"/>
<rect x="594" y="338" width="4" height="7" rx="2" fill="#0D2294"/>
<rect x="594" y="352" width="4" height="7" rx="2" fill="#0D2294"/>
<rect x="539" y="297" width="5" height="7" rx="2.5" fill="#0D2294"/>
<rect x="539" y="311" width="5" height="7" rx="2.5" fill="#0D2294"/>
<rect x="539" y="325" width="5" height="7" rx="2.5" fill="#0D2294"/>
<rect x="539" y="338" width="5" height="7" rx="2.5" fill="#0D2294"/>
<rect x="539" y="352" width="5" height="7" rx="2.5" fill="#0D2294"/>
<rect x="553" y="311" width="5" height="7" rx="2.5" fill="#0D2294"/>
<rect x="553" y="338" width="5" height="7" rx="2.5" fill="#0D2294"/>
<rect x="553" y="352" width="5" height="7" rx="2.5" fill="#0D2294"/>
<circle cx="348" cy="163" r="2" fill="#2B32A0"/>
<circle cx="543" cy="67" r="2" fill="#2B32A0"/>
<circle cx="523" cy="75" r="2" fill="#304FBD"/>
</g>
<defs>
<radialGradient id="paint0_radial_1445_4301" cx="0" cy="0" r="1" gradientUnits="userSpaceOnUse" gradientTransform="translate(960 305) rotate(90) scale(254.601 751.567)">
<stop stop-color="#C4C4C4"/>
<stop offset="0.395833" stop-color="#C4C4C4" stop-opacity="0.520833"/>
<stop offset="1" stop-color="#C4C4C4" stop-opacity="0"/>
</radialGradient>
</defs>
</svg>
