<svg width="165" height="198" viewBox="0 0 165 198" fill="none" xmlns="http://www.w3.org/2000/svg">
<path fill-rule="evenodd" clip-rule="evenodd" d="M164.603 52.643C149.243 51.3087 128.412 45.3624 114.059 28.3477C109.133 22.5077 104.158 17.7919 99.3472 14.0072C99.2947 19.2974 94.9899 23.5697 89.6873 23.5697C84.352 23.5697 80.0269 19.2445 80.0269 13.9092C80.0269 10.0702 82.2662 6.75424 85.5099 5.19624C78.8869 1.92746 73.1824 0.437281 69.1982 0C61.2751 12.7474 56.0795 33.4591 60.4578 68.7419C62.5046 89.6168 58.1952 134.131 19.0109 147.023C17.4623 147.532 15.9644 147.989 14.5364 148.425C6.91028 150.751 1.27956 152.468 0.589983 158.329C-1.62734 167.607 1.30642 186.569 28.733 193.991C54.14 200.867 107.534 203.385 142.328 143.543C153.361 125.04 167.248 89.2785 164.603 52.643ZM104.062 41.3192C106.666 41.3192 108.777 39.2084 108.777 36.6046C108.777 34.0008 106.666 31.89 104.062 31.89C101.458 31.89 99.3477 34.0008 99.3477 36.6046C99.3477 39.2084 101.458 41.3192 104.062 41.3192ZM99.3477 63.5663C99.3477 65.3097 97.9344 66.723 96.191 66.723C94.4476 66.723 93.0343 65.3097 93.0343 63.5663C93.0343 61.8229 94.4476 60.4096 96.191 60.4096C97.9344 60.4096 99.3477 61.8229 99.3477 63.5663ZM79.6213 52.5697C83.4014 52.5697 86.4658 49.5053 86.4658 45.7252C86.4658 41.9451 83.4014 38.8807 79.6213 38.8807C75.8412 38.8807 72.7769 41.9451 72.7769 45.7252C72.7769 49.5053 75.8412 52.5697 79.6213 52.5697Z" fill="#CA0D7B"/>
</svg>
