<svg width="280" height="390" viewBox="0 0 280 390" fill="none" xmlns="http://www.w3.org/2000/svg">
<path d="M135.002 371.576C135.019 361.915 137.216 352.014 138.893 346.263C139.423 344.448 141.227 343.358 143.104 343.583C156.354 345.172 164.692 345.14 169.674 344.499C172.74 344.105 178.82 344.938 181.526 346.432C189.516 350.84 202.939 354.296 210.149 355.722C225.688 358.662 231.996 370.135 233.353 375.953C233.426 376.27 233.447 376.595 233.431 376.92L233.055 384.552C232.952 386.65 231.257 388.308 229.157 388.332C221.457 388.419 202.878 388.497 183.813 387.585C164.684 386.669 145.849 384.71 138.104 383.847C136.019 383.614 134.498 381.799 134.602 379.703L135.002 371.576Z" stroke="white" stroke-width="2"/>
<path d="M233.435 376.84C233.435 376.84 215.972 377.905 184.042 376.326C152.112 374.746 135.16 371.995 135.16 371.995" stroke="white" stroke-width="2"/>
<path d="M143.781 372.674L143.218 384.111" stroke="white" stroke-width="2"/>
<path d="M180.2 375.549L179.637 386.985" stroke="white" stroke-width="2"/>
<path d="M152.739 373.838L152.176 385.274" stroke="white" stroke-width="2"/>
<path d="M189.087 375.987L188.524 387.423" stroke="white" stroke-width="2"/>
<path d="M161.916 374.647L161.353 386.083" stroke="white" stroke-width="2"/>
<path d="M198.229 376.438L197.667 387.874" stroke="white" stroke-width="2"/>
<path d="M216.231 377.031L215.668 388.468" stroke="white" stroke-width="2"/>
<path d="M170.55 375.073L169.987 386.509" stroke="white" stroke-width="2"/>
<path d="M206.863 376.863L206.3 388.299" stroke="white" stroke-width="2"/>
<path d="M224.789 376.668L224.226 388.105" stroke="white" stroke-width="2"/>
<path d="M210.636 236.182C210.636 195.006 185.419 175.082 157.215 175.082L120.054 173.831H8.56449C3.76387 188.784 3.99533 200.396 8.56452 210.162C22.5625 240.078 65.8741 232.861 120.054 232.861C149.488 232.861 147.925 252.121 145.602 267.396L131.366 344.334C130.972 346.465 132.249 348.535 134.356 349.04C140.735 350.568 154.649 353.401 170.156 353.401C185.016 353.401 195.327 352.426 200.179 351.84C202.054 351.613 203.479 350.106 203.681 348.226C208.764 300.831 210.853 259.69 210.636 236.182Z" fill="url(#paint0_linear)"/>
<path d="M233.107 103.199L213.527 107.044L213.83 129.293C227.267 130.756 230.585 130.671 239.82 128.252C245.155 126.854 246.989 125.321 252.948 126.774L269.039 130.719C273.488 131.882 275.954 131.725 276.79 129.283C277.626 126.842 276 125.77 275.603 125.357L272.028 123.493L276.797 123.499C280.614 122.512 280.52 118.694 278.991 117.511C278.994 114.76 276.81 113.547 275.619 112.894C269.066 109.3 263.786 107.576 255.518 105.419L249.11 103.962C244.979 102.304 236.022 102.514 233.107 103.199Z" fill="#CEE2FF"/>
<path d="M278.867 117.45C271.524 114.179 265.888 110.685 250.295 109.503" stroke="#060D34" stroke-width="2" stroke-linecap="round" stroke-linejoin="round"/>
<path d="M272.449 123.65L263.554 120.146C259.834 118.9 256.091 117.978 250.783 117.141" stroke="#060D34" stroke-width="2" stroke-linecap="round" stroke-linejoin="round"/>
<path d="M99.482 36.6099C86.4058 18.0506 54.2532 6.09797 35.2099 1.1814C31.6158 0.253476 27.8999 1.97261 26.2047 5.27733C-7.25397 70.5057 -1.92324 140.354 5.75426 170.681C6.2173 172.51 7.87834 173.753 9.76368 173.753H120.481C122.811 173.753 124.699 171.864 124.699 169.533V137.802V130.585C122.31 81.9702 106.892 47.6787 99.482 36.6099Z" fill="#110F89"/>
<path d="M208.197 104.513C146.68 105.019 96.2219 67.5348 75.5281 45.6115C74.2812 44.2906 72.0257 44.9995 71.784 46.8005L63.8186 106.134C63.7464 106.672 63.8832 107.22 64.2101 107.653C91.6481 143.992 170.821 136.735 208.759 128.214C209.716 127.999 210.362 127.153 210.362 126.171V106.639C210.362 105.454 209.38 104.504 208.197 104.513Z" fill="url(#paint1_linear)"/>
<path d="M213.954 105.68V122.641C213.954 127.292 210.756 131.345 206.195 132.253C163.562 140.741 84.7762 146.024 57.3433 108.336" stroke="white" stroke-width="2"/>
<path d="M125.189 168.976C72.9525 172.443 49.275 142.807 57.2882 108.618C77.1102 132.255 109.478 138.241 125.189 138.53V168.976Z" fill="url(#paint2_linear)"/>
<defs>
<linearGradient id="paint0_linear" x1="107.851" y1="173.831" x2="107.851" y2="353.401" gradientUnits="userSpaceOnUse">
<stop stop-color="#0A39D1"/>
<stop offset="1" stop-color="#0F0967"/>
</linearGradient>
<linearGradient id="paint1_linear" x1="99.4627" y1="108.618" x2="226.83" y2="99.3475" gradientUnits="userSpaceOnUse">
<stop stop-color="#110F89"/>
<stop offset="1" stop-color="#1C18D1"/>
</linearGradient>
<linearGradient id="paint2_linear" x1="112.958" y1="118.326" x2="86.7834" y2="153.339" gradientUnits="userSpaceOnUse">
<stop offset="0.0985544" stop-color="#03013C"/>
<stop offset="1" stop-color="#0D0C6B" stop-opacity="0"/>
</linearGradient>
</defs>
</svg>
