<svg width="199" height="231" viewBox="0 0 199 231" fill="none" xmlns="http://www.w3.org/2000/svg">
<path fill-rule="evenodd" clip-rule="evenodd" d="M99.3674 181.457C149.201 181.457 189.598 141.089 189.598 91.2923C189.598 41.4959 149.201 1.12793 99.3674 1.12793C49.5341 1.12793 9.13623 41.4959 9.13623 91.2923C9.13623 141.089 49.5341 181.457 99.3674 181.457ZM120.664 182.384L104.047 203.278C101.65 206.293 97.0847 206.293 94.6873 203.278L78.0699 182.384H120.664Z" fill="#27B5BC"/>
<path fill-rule="evenodd" clip-rule="evenodd" d="M163.977 135.049C172.483 122.583 177.456 107.518 177.456 91.2923C177.456 48.3429 142.613 13.5256 99.6315 13.5256C56.6503 13.5256 21.8071 48.3429 21.8071 91.2923C21.8071 107.518 26.78 122.583 35.2858 135.049H163.977Z" fill="#030F80"/>
<rect x="27" y="135.048" width="145" height="48" rx="15" fill="#27B5BC"/>
<path d="M75.1284 151.968C73.4484 151.968 71.7084 152.148 70.1684 152.448V166.048H73.6084V161.368L75.3084 161.328C78.6884 161.248 81.1084 159.688 81.1084 156.648C81.1084 154.008 79.7084 151.968 75.1284 151.968ZM73.6084 158.688V154.888C74.1684 154.788 74.6484 154.728 75.4684 154.728C76.8484 154.728 77.6684 155.288 77.6684 156.588C77.6684 157.908 76.6484 158.588 74.8084 158.648L73.6084 158.688ZM87.3912 166.048V152.048H83.9512V166.048H87.3912ZM100.286 154.968V152.048H90.5255V154.968H96.4855L90.2855 163.128V166.048H100.526V163.128H94.0855L100.286 154.968ZM113.17 154.968V152.048H103.41V154.968H109.37L103.17 163.128V166.048H113.41V163.128H106.97L113.17 154.968ZM129.614 166.048L124.774 152.048H120.414L115.574 166.048H119.254L119.994 163.648H125.194L125.934 166.048H129.614ZM122.594 155.328L124.354 161.008H120.834L122.594 155.328Z" fill="white"/>
<path d="M75.2424 110.077C67.6124 111.358 61.4394 103.952 64.144 96.763L84.5311 42.5678C86.1498 38.2646 90.5362 35.6647 94.9621 37.0303C102.922 39.4862 115.615 45.0847 125.865 57.3811C136.116 69.6774 139.272 83.0923 140.207 91.3059C140.726 95.873 137.326 99.6554 132.759 100.422L75.2424 110.077Z" fill="#D93D75"/>
<path fill-rule="evenodd" clip-rule="evenodd" d="M130.58 100.715C130.622 100.206 130.615 99.6831 130.554 99.1492C129.62 90.9355 126.463 77.5206 116.213 65.2243C105.963 52.928 93.2694 47.3295 85.3098 44.8736C84.7924 44.7139 84.2755 44.6085 83.7635 44.5536L84.5383 42.4941C86.157 38.1909 90.5434 35.591 94.9693 36.9566C102.929 39.4126 115.622 45.0111 125.872 57.3074C136.123 69.6037 139.279 83.0186 140.214 91.2322C140.734 95.7994 137.333 99.5817 132.766 100.348L130.58 100.715Z" fill="url(#paint0_linear)"/>
<path d="M84.3535 48.4206C89.3809 48.2727 98.2281 52.8412 100.856 55.0931C118.178 65.8858 126.824 80.891 131.453 95.618C132.452 100.322 129.133 103.25 127.888 104.969C126.644 106.688 126.607 109.947 126.491 112.127C126.376 114.307 126.642 116.459 124.898 116.585C122.066 116.791 121.512 115.203 120.617 114.182C119.721 113.162 116.48 110.004 114.592 108.513C112.704 107.022 110.456 106.235 108.414 106.383C106.371 106.532 102.372 107.33 101.768 110.394C100.358 117.553 100.505 123.785 97.7809 123.983C95.0572 124.18 93.7412 119.255 92.6212 117.029C91.5013 114.804 89.915 113.697 87.7556 114.126C85.5963 114.554 86.5712 118.554 83.439 118.782C80.3067 119.009 78.8752 116.263 76.8117 114.242C74.7483 112.22 72.8391 113.58 68.8639 114.14C62.747 114.367 63.6932 110.807 64.8525 107.918C65.7538 105.247 69.9511 86.3779 71.9371 77.2772L78.773 54.5254C79.9533 49.6629 82.9851 48.4295 84.3535 48.4206Z" fill="url(#paint1_linear)"/>
<ellipse cx="77.7503" cy="76.4818" rx="11.5899" ry="11.4882" transform="rotate(-4.15322 77.7503 76.4818)" fill="#C91D72"/>
<ellipse cx="113.045" cy="94.9569" rx="8.11501" ry="8.04385" transform="rotate(-4.15322 113.045 94.9569)" fill="#C91D72"/>
<ellipse cx="76.8851" cy="75.2613" rx="11.5899" ry="11.4882" transform="rotate(-4.15322 76.8851 75.2613)" fill="#E6308A"/>
<path d="M93.7108 61.8298C94.4573 61.7755 95.0363 61.1129 94.7726 60.4124C94.5489 59.8181 94.2057 59.2701 93.7588 58.8036C92.9955 58.007 91.9768 57.4977 90.8763 57.3625C89.7757 57.2274 88.6615 57.4748 87.7234 58.0625C86.7854 58.6503 86.0815 59.542 85.7317 60.5858C85.3819 61.6296 85.4079 62.7609 85.8052 63.7869C86.2026 64.8129 86.9466 65.6701 87.9107 66.2125C88.8747 66.755 89.9991 66.949 91.0922 66.7616C91.7326 66.6518 92.3391 66.415 92.8776 66.0703C93.5092 65.6661 93.4411 64.7869 92.8717 64.2989C92.3094 63.817 91.4473 63.9396 90.7235 64.0964C90.6937 64.1029 90.6637 64.1087 90.6335 64.1139C90.1585 64.1953 89.6698 64.111 89.2509 63.8753C88.8319 63.6396 88.5085 63.267 88.3359 62.8211C88.1632 62.3752 88.1519 61.8836 88.3039 61.43C88.4559 60.9763 88.7618 60.5888 89.1695 60.3334C89.5772 60.0779 90.0614 59.9704 90.5397 60.0292C91.018 60.0879 91.4607 60.3092 91.7924 60.6554C91.8076 60.6713 91.8225 60.6874 91.8371 60.7036C92.3376 61.2603 92.9642 61.884 93.7108 61.8298Z" fill="#161499"/>
<path d="M77.023 97.8508C76.6658 98.4808 76.8902 99.2978 77.5972 99.4615C77.913 99.5346 78.2368 99.5751 78.5635 99.5817C79.3307 99.5971 80.0901 99.4247 80.7745 99.0798C81.4588 98.7349 82.0471 98.228 82.487 97.6042C82.927 96.9804 83.2051 96.2589 83.2967 95.5035C83.3884 94.7482 83.2907 93.9823 83.0124 93.2737C82.7341 92.5652 82.2837 91.9359 81.7012 91.4415C81.1186 90.9471 80.4219 90.6029 79.6727 90.4394C79.3564 90.3704 79.0348 90.3344 78.7133 90.3315C77.9837 90.3248 77.5659 91.0704 77.7628 91.7673L77.8487 92.0712C77.9972 92.5967 78.5654 92.8765 79.1023 92.9937C79.4279 93.0647 79.7307 93.2143 79.9839 93.4291C80.2371 93.644 80.4328 93.9175 80.5538 94.2254C80.6747 94.5334 80.7172 94.8662 80.6773 95.1945C80.6375 95.5228 80.5166 95.8363 80.3254 96.1074C80.1342 96.3785 79.8786 96.5988 79.5812 96.7487C79.2838 96.8986 78.9537 96.9735 78.6203 96.9668C78.0704 96.9558 77.4506 97.0968 77.1802 97.5737L77.023 97.8508Z" fill="#161499"/>
<ellipse cx="112.439" cy="94.1024" rx="8.11501" ry="8.04385" transform="rotate(-4.15322 112.439 94.1024)" fill="#E6308A"/>
<path d="M98.9567 81.1764C107.582 81.5536 107.808 74.4819 107.18 69.8218C107.02 68.6407 105.803 67.9212 104.709 68.3931C98.052 71.2662 96.8765 76.2767 97.2683 79.5281C97.3169 79.9314 99.1806 77.3676 100.333 75.9646C100.826 75.3635 101.21 75.5956 100.915 76.3155C100.193 78.0772 98.6474 81.1629 98.9567 81.1764Z" fill="#007C84"/>
<path d="M100.126 99.0312C94.5056 92.5821 89.1772 97.3186 86.2002 100.992C85.4487 101.92 85.7654 103.293 86.8676 103.754C93.5066 106.528 97.9669 103.908 100.075 101.382C100.336 101.068 97.19 101.504 95.3767 101.648C94.5993 101.71 94.5033 101.276 95.2288 100.99C97.0089 100.29 100.328 99.2625 100.126 99.0312Z" fill="#007C84"/>
<defs>
<linearGradient id="paint0_linear" x1="127.389" y1="52.9823" x2="101.596" y2="77.566" gradientUnits="userSpaceOnUse">
<stop stop-color="#FDE69B"/>
<stop offset="1" stop-color="#EAA657"/>
</linearGradient>
<linearGradient id="paint1_linear" x1="93.7163" y1="47.7353" x2="99.4022" y2="126.039" gradientUnits="userSpaceOnUse">
<stop stop-color="#FFF6BE"/>
<stop offset="0.671875" stop-color="#FFF174"/>
<stop offset="0.994792" stop-color="#C7A11A"/>
</linearGradient>
</defs>
</svg>
