<svg width="200" height="231" viewBox="0 0 200 231" fill="none" xmlns="http://www.w3.org/2000/svg">
<path fill-rule="evenodd" clip-rule="evenodd" d="M99.8776 181.457C149.711 181.457 190.109 141.089 190.109 91.2923C190.109 41.4959 149.711 1.12793 99.8776 1.12793C50.0443 1.12793 9.64648 41.4959 9.64648 91.2923C9.64648 141.089 50.0443 181.457 99.8776 181.457ZM121.175 204.384L104.557 225.278C102.16 228.293 97.5949 228.293 95.1975 225.278L78.5801 204.384H121.175Z" fill="#27B5BC"/>
<path fill-rule="evenodd" clip-rule="evenodd" d="M164.486 135.049C172.992 122.583 177.965 107.518 177.965 91.2923C177.965 48.3429 143.122 13.5256 100.141 13.5256C57.1596 13.5256 22.3164 48.3429 22.3164 91.2923C22.3164 107.518 27.2893 122.583 35.7951 135.049H164.486Z" fill="#030F81"/>
<rect x="1.00977" y="135.048" width="198" height="70" rx="15" fill="#27B5BC"/>
<path d="M66.6566 152.048H55.4166V154.968H59.3166V166.048H62.7566V154.968H66.6566V152.048ZM75.3647 166.288C79.6247 166.288 82.3847 163.248 82.3847 159.048C82.3847 154.848 79.6247 151.808 75.3647 151.808C71.1047 151.808 68.3447 154.848 68.3447 159.048C68.3447 163.248 71.1047 166.288 75.3647 166.288ZM75.3647 163.288C73.2847 163.288 71.7847 161.708 71.7847 159.048C71.7847 156.388 73.2847 154.808 75.3647 154.808C77.4447 154.808 78.9447 156.388 78.9447 159.048C78.9447 161.708 77.4447 163.288 75.3647 163.288ZM99.4242 152.048H95.2042L92.7242 161.368L90.2442 152.048H86.0242L84.8442 166.048H88.0842L88.7842 157.428L91.2842 166.048H94.1642L96.6642 157.428L97.3642 166.048H100.604L99.4242 152.048ZM116.891 166.048L112.051 152.048H107.691L102.851 166.048H106.531L107.271 163.648H112.471L113.211 166.048H116.891ZM109.871 155.328L111.631 161.008H108.111L109.871 155.328ZM128.682 152.048H117.442V154.968H121.342V166.048H124.782V154.968H128.682V152.048ZM137.39 166.288C141.65 166.288 144.41 163.248 144.41 159.048C144.41 154.848 141.65 151.808 137.39 151.808C133.13 151.808 130.37 154.848 130.37 159.048C130.37 163.248 133.13 166.288 137.39 166.288ZM137.39 163.288C135.31 163.288 133.81 161.708 133.81 159.048C133.81 156.388 135.31 154.808 137.39 154.808C139.47 154.808 140.97 156.388 140.97 159.048C140.97 161.708 139.47 163.288 137.39 163.288ZM48.2114 188.288C51.5514 188.288 53.5114 186.648 53.5114 183.808C53.5114 181.508 52.1714 180.408 50.0314 179.688C48.1314 179.048 47.3914 178.528 47.3914 177.748C47.3914 177.048 48.0714 176.648 49.0914 176.648C50.1314 176.648 51.2114 177.048 52.2714 177.568L52.9914 174.648C51.6114 174.028 50.5914 173.808 49.1114 173.808C46.0914 173.808 44.0314 175.348 44.0314 177.868C44.0314 179.868 45.2114 181.248 47.5714 182.088C49.5314 182.788 50.0714 183.208 50.0714 184.068C50.0714 184.848 49.3914 185.368 48.2714 185.368C47.0114 185.368 45.3914 184.808 44.4314 183.868L43.6514 187.008C44.5914 187.708 46.3914 188.288 48.2114 188.288ZM61.2498 173.968C59.5698 173.968 57.8298 174.148 56.2898 174.448V188.048H59.7298V183.368L61.4298 183.328C64.8098 183.248 67.2298 181.688 67.2298 178.648C67.2298 176.008 65.8298 173.968 61.2498 173.968ZM59.7298 180.688V176.888C60.2898 176.788 60.7698 176.728 61.5898 176.728C62.9698 176.728 63.7898 177.288 63.7898 178.588C63.7898 179.908 62.7698 180.588 60.9298 180.648L59.7298 180.688ZM81.7311 188.048L76.8911 174.048H72.5311L67.6911 188.048H71.3711L72.1111 185.648H77.3111L78.0511 188.048H81.7311ZM74.7111 177.328L76.4711 183.008H72.9511L74.7111 177.328ZM90.2877 188.288C92.2477 188.288 93.9677 187.748 94.9677 186.968V180.208H89.8277L89.1677 182.848H92.0477V184.908C91.6877 185.128 91.0677 185.288 90.2877 185.288C88.2077 185.288 86.5277 183.748 86.5277 181.048C86.5277 178.348 88.2077 176.808 90.4677 176.808C91.7877 176.808 92.9277 177.228 93.8477 177.788L94.6677 174.788C93.3477 174.008 91.6677 173.808 90.4677 173.808C86.0877 173.808 83.0877 176.828 83.0877 181.048C83.0877 185.268 85.7477 188.288 90.2877 188.288ZM106.268 179.368H101.508V174.048H98.068V188.048H101.508V182.288H106.268V188.048H109.708V174.048H106.268V179.368ZM122.405 174.048H112.905V188.048H122.405V185.248H116.345V182.268H120.385L121.045 179.568H116.345V176.848H122.405V174.048ZM136.316 174.048H125.076V176.968H128.976V188.048H132.416V176.968H136.316V174.048ZM149.845 174.048H138.605V176.968H142.505V188.048H145.945V176.968H149.845V174.048ZM156.034 188.048V174.048H152.594V188.048H156.034Z" fill="white"/>
<path d="M48.3574 91.5973H149.379C148.745 89.7968 148.021 88.4099 146.667 86.2735C145.032 83.3492 141.268 80.2744 139.591 79.1026C139.591 79.1026 138.983 76.8989 137.769 75.6245C136.554 74.3501 134.873 74.2035 134.506 73.9069C123.836 65.2905 112.66 63.2747 104.97 63.4289C90.9357 63.2636 79.7944 67.6871 68.6127 75.1941C67.4262 74.6788 65.4694 75.8418 64.2904 76.7399C63.1114 77.638 62.5954 79.7457 61.8327 81.0339C59.8834 82.4938 60.2422 80.6602 57.2562 82.9232C54.2702 85.1863 55.6311 85.8363 54.4594 86.9596C52.1906 89.1346 48.9844 90.9463 48.3574 91.5973Z" fill="url(#paint0_linear)"/>
<path d="M120.343 94.2965C119.728 91.6989 118.817 84.1628 112.786 80.2984" stroke="#CCB069" stroke-width="2" stroke-linecap="round"/>
<path d="M116.563 99.1084C115.948 96.5108 115.038 88.9746 109.006 85.1103" stroke="#CCB069" stroke-width="2" stroke-linecap="round"/>
<path d="M133.834 74.3564C134.654 76.7462 134.041 85.0184 126.412 86.0158" stroke="#CCB069" stroke-width="2" stroke-linecap="round"/>
<path d="M139.209 79.8325C138.824 83.0275 136.371 91.2017 128.742 92.1991" stroke="#CCB069" stroke-width="2" stroke-linecap="round"/>
<path d="M136.176 88.5245L138.021 92.1091" stroke="#CCB069" stroke-width="2" stroke-linecap="round"/>
<path d="M138.286 84.2238C138.286 84.2238 141.243 86.1876 144.04 91.7697" stroke="#CCB069" stroke-width="2" stroke-linecap="round"/>
<path d="M113.614 76.1397C112.258 82.8383 103.478 91.2958 96.834 92.5426" stroke="#CCB069" stroke-width="2" stroke-linecap="round"/>
<path d="M57.68 89.3651C56.4496 90.3002 55.5205 91.9911 54.29 93.4873" stroke="#CCB069" stroke-width="2" stroke-linecap="round"/>
<path d="M62.0869 81.8936C65.6757 85.8419 83.4834 90.8186 95.0188 78.0385" stroke="#CCB069" stroke-width="2" stroke-linecap="round"/>
<path d="M128.239 92.0274C127.727 89.9493 124.765 79.9184 120.121 76.4836" stroke="#CCB069" stroke-width="2" stroke-linecap="round"/>
<path d="M55.0518 87.3899C60.3632 93.2334 91.7485 102.075 105.817 76.4832" stroke="#CCB069" stroke-width="2" stroke-linecap="round"/>
<path d="M122.768 77.6853C132.124 78.6472 135.141 74.1929 135.48 71.8455C135.48 70.4713 134.35 69.212 133.785 68.7541C126.599 63.3954 114.971 60.5095 104.462 60.5095C87.9188 60.2347 73.8389 67.9523 68.8669 71.8455C67.5109 73.6318 68.3019 74.9944 68.8669 75.4525C79.4437 81.9106 95.3089 79.6319 101.919 77.6853C108.835 74.9372 118.7 76.5403 122.768 77.6853Z" fill="url(#paint1_linear)"/>
<ellipse rx="7.20663" ry="7.28527" transform="matrix(0.952757 0.303735 -0.296505 0.955031 85.1406 65.8989)" fill="url(#paint2_linear)"/>
<path d="M92.7656 67.274C94.2572 66.8618 93.4012 64.2696 95.1386 64.5259C96.876 64.7822 98.8676 63.6671 98.8676 63.6671C98.8676 63.6671 98.8676 66.4146 97.8506 67.274C96.8336 68.1335 93.7826 68.1901 92.7656 67.274Z" fill="#00D7D7"/>
<path d="M68.5631 69.1621C69.5766 69.9827 70.887 68.1126 71.5749 69.4326C72.2629 70.7526 73.9938 71.5689 73.9938 71.5689C73.9938 71.5689 72.1562 72.9278 71.0783 72.6545C70.0004 72.3812 68.4534 70.3137 68.5631 69.1621Z" fill="#00D7D7"/>
<path d="M106.308 73.5257C107.434 74.4372 108.89 72.3598 109.654 73.8262C110.418 75.2925 112.341 76.1993 112.341 76.1993C112.341 76.1993 110.3 77.7089 109.102 77.4053C107.905 77.1016 106.186 74.805 106.308 73.5257Z" fill="#00D7D7"/>
<ellipse rx="9.46239" ry="9.57148" transform="matrix(0.965059 0.262033 -0.255639 0.966772 117.495 59.7329)" fill="url(#paint3_linear)"/>
<path d="M35.449 93.1366C34.9904 91.8355 35.9557 90.4717 37.3352 90.4717H162.684C164.064 90.4717 165.029 91.8355 164.571 93.1366L160.978 103.329C160.273 105.329 158.383 106.667 156.262 106.667H43.757C41.6363 106.667 39.7463 105.329 39.0414 103.329L35.449 93.1366Z" fill="url(#paint4_linear)"/>
<path d="M99.1702 58.2891C100.288 59.182 101.734 57.1471 102.493 58.5834C103.252 60.0198 105.162 60.908 105.162 60.908C105.162 60.908 103.135 62.3867 101.945 62.0893C100.756 61.7919 99.0492 59.5422 99.1702 58.2891Z" fill="#00D7D7"/>
<defs>
<linearGradient id="paint0_linear" x1="98.8684" y1="77.5091" x2="98.8684" y2="91.5973" gradientUnits="userSpaceOnUse">
<stop stop-color="#F5E8B9"/>
<stop offset="1" stop-color="#DCCC90"/>
</linearGradient>
<linearGradient id="paint1_linear" x1="101.799" y1="60.5023" x2="101.799" y2="79.7207" gradientUnits="userSpaceOnUse">
<stop stop-color="#E4217F"/>
<stop offset="0.713542" stop-color="#BF0F64"/>
<stop offset="0.947917" stop-color="#96034A"/>
</linearGradient>
<linearGradient id="paint2_linear" x1="7.20663" y1="0" x2="7.20663" y2="14.5705" gradientUnits="userSpaceOnUse">
<stop stop-color="#FF4789"/>
<stop offset="1" stop-color="#65072E"/>
</linearGradient>
<linearGradient id="paint3_linear" x1="9.46239" y1="0" x2="9.46239" y2="19.143" gradientUnits="userSpaceOnUse">
<stop stop-color="#FF4694"/>
<stop offset="1" stop-color="#620924"/>
</linearGradient>
<linearGradient id="paint4_linear" x1="100.01" y1="82" x2="100.01" y2="106.667" gradientUnits="userSpaceOnUse">
<stop stop-color="#2986F2"/>
<stop offset="1" stop-color="#1F43B7"/>
</linearGradient>
</defs>
</svg>
