<svg width="15872" height="2866" viewBox="0 0 15872 2866" fill="none" xmlns="http://www.w3.org/2000/svg">
<g filter="url(#filter0_d)">
<path d="M4 1175.23V2857.59H15868V1722.6H15530.1V982.045L14878.5 491.023V1110.84H14645.2V1424.77H14355.6V120.743H13551.2V700.311H12851.3V1585.76H12722.6V1320.13H12553.6V354.18H12376.6V120.743H11869.8V1110.84H11403.3V1778.95H10743.6V1497.22V257.586L10140.3 603.716V1497.22H9721.95V410.527H9263.41V209.288H9070.34V0H8619.85V877.401L8322.2 1175.23V1634.06H7976.29V1110.84H7509.7V796.905H6890.27V1320.13H6528.27V1980.19H6206.49V700.311H6029.51V491.023H5595.1V1424.77H5281.37V2157.28H4879.14V1175.23H4436.69V603.716L3849.44 957.896V1859.45H3398.94V756.658H2779.51V330.032H2296.84V1271.83L1999.19 1545.51V1980.19H1645.24V1497.22H655.607V1175.23H4Z" fill="#06033D"/>
</g>
<path d="M3953.43 1420.47C3953.43 1402.65 3967.87 1388.2 3985.68 1388.2C4003.49 1388.2 4017.93 1402.65 4017.93 1420.47V1426.38C4017.93 1444.2 4003.49 1458.65 3985.68 1458.65C3967.87 1458.65 3953.43 1444.2 3953.43 1426.38V1420.47Z" fill="#0D2294"/>
<path d="M3953.43 1702.27C3953.43 1684.45 3967.87 1670 3985.68 1670C4003.49 1670 4017.93 1684.45 4017.93 1702.27V1708.18C4017.93 1726 4003.49 1740.45 3985.68 1740.45C3967.87 1740.45 3953.43 1726 3953.43 1708.18V1702.27Z" fill="#0D2294"/>
<path d="M3953.43 1138.68C3953.43 1120.86 3967.87 1106.41 3985.68 1106.41C4003.49 1106.41 4017.93 1120.86 4017.93 1138.68V1144.59C4017.93 1162.41 4003.49 1176.86 3985.68 1176.86C3967.87 1176.86 3953.43 1162.41 3953.43 1144.59V1138.68Z" fill="#0D2294"/>
<path d="M3953.43 1843.17C3953.43 1825.34 3967.87 1810.9 3985.68 1810.9C4003.49 1810.9 4017.93 1825.34 4017.93 1843.17V1849.08C4017.93 1866.9 4003.49 1881.35 3985.68 1881.35C3967.87 1881.35 3953.43 1866.9 3953.43 1849.08V1843.17Z" fill="#0D2294"/>
<path d="M3953.43 1279.57C3953.43 1261.75 3967.87 1247.3 3985.68 1247.3C4003.49 1247.3 4017.93 1261.75 4017.93 1279.57V1285.48C4017.93 1303.31 4003.49 1317.75 3985.68 1317.75C3967.87 1317.75 3953.43 1303.31 3953.43 1285.48V1279.57Z" fill="#0D2294"/>
<path d="M3953.43 1984.06C3953.43 1966.24 3967.87 1951.79 3985.68 1951.79C4003.49 1951.79 4017.93 1966.24 4017.93 1984.06V1989.97C4017.93 2007.79 4003.49 2022.24 3985.68 2022.24C3967.87 2022.24 3953.43 2007.79 3953.43 1989.97V1984.06Z" fill="#0D2294"/>
<path d="M4122.04 1420.47C4122.04 1402.65 4136.48 1388.2 4154.29 1388.2C4172.1 1388.2 4186.54 1402.65 4186.54 1420.47V1426.38C4186.54 1444.2 4172.1 1458.65 4154.29 1458.65C4136.48 1458.65 4122.04 1444.2 4122.04 1426.38V1420.47Z" fill="#0D2294"/>
<path d="M4122.04 997.78C4122.04 979.958 4136.48 965.51 4154.29 965.51C4172.1 965.51 4186.54 979.958 4186.54 997.78V1003.69C4186.54 1021.51 4172.1 1035.96 4154.29 1035.96C4136.48 1035.96 4122.04 1021.51 4122.04 1003.69V997.78Z" fill="#0D2294"/>
<path d="M4122.04 1702.27C4122.04 1684.45 4136.48 1670 4154.29 1670C4172.1 1670 4186.54 1684.45 4186.54 1702.27V1708.18C4186.54 1726 4172.1 1740.45 4154.29 1740.45C4136.48 1740.45 4122.04 1726 4122.04 1708.18V1702.27Z" fill="#0D2294"/>
<path d="M4122.04 1279.57C4122.04 1261.75 4136.48 1247.3 4154.29 1247.3C4172.1 1247.3 4186.54 1261.75 4186.54 1279.57V1285.48C4186.54 1303.31 4172.1 1317.75 4154.29 1317.75C4136.48 1317.75 4122.04 1303.31 4122.04 1285.48V1279.57Z" fill="#0D2294"/>
<path d="M4122.04 1984.06C4122.04 1966.24 4136.48 1951.79 4154.29 1951.79C4172.1 1951.79 4186.54 1966.24 4186.54 1984.06V1989.97C4186.54 2007.79 4172.1 2022.24 4154.29 2022.24C4136.48 2022.24 4122.04 2007.79 4122.04 1989.97V1984.06Z" fill="#0D2294"/>
<path d="M4290.65 856.884C4290.65 839.061 4305.09 824.613 4322.9 824.613C4340.71 824.613 4355.15 839.061 4355.15 856.884V862.792C4355.15 880.614 4340.71 895.062 4322.9 895.062C4305.09 895.062 4290.65 880.614 4290.65 862.792V856.884Z" fill="#0D2294"/>
<path d="M4290.65 1561.37C4290.65 1543.55 4305.09 1529.1 4322.9 1529.1C4340.71 1529.1 4355.15 1543.55 4355.15 1561.37V1567.28C4355.15 1585.1 4340.71 1599.55 4322.9 1599.55C4305.09 1599.55 4290.65 1585.1 4290.65 1567.28V1561.37Z" fill="#0D2294"/>
<path d="M4290.65 997.78C4290.65 979.958 4305.09 965.51 4322.9 965.51C4340.71 965.51 4355.15 979.958 4355.15 997.78V1003.69C4355.15 1021.51 4340.71 1035.96 4322.9 1035.96C4305.09 1035.96 4290.65 1021.51 4290.65 1003.69V997.78Z" fill="#0D2294"/>
<path d="M4290.65 1138.68C4290.65 1120.86 4305.09 1106.41 4322.9 1106.41C4340.71 1106.41 4355.15 1120.86 4355.15 1138.68V1144.59C4355.15 1162.41 4340.71 1176.86 4322.9 1176.86C4305.09 1176.86 4290.65 1162.41 4290.65 1144.59V1138.68Z" fill="#0D2294"/>
<path d="M4290.65 1843.17C4290.65 1825.34 4305.09 1810.9 4322.9 1810.9C4340.71 1810.9 4355.15 1825.34 4355.15 1843.17V1849.08C4355.15 1866.9 4340.71 1881.35 4322.9 1881.35C4305.09 1881.35 4290.65 1866.9 4290.65 1849.08V1843.17Z" fill="#0D2294"/>
<path d="M4290.65 1279.57C4290.65 1261.75 4305.09 1247.3 4322.9 1247.3C4340.71 1247.3 4355.15 1261.75 4355.15 1279.57V1285.48C4355.15 1303.31 4340.71 1317.75 4322.9 1317.75C4305.09 1317.75 4290.65 1303.31 4290.65 1285.48V1279.57Z" fill="#0D2294"/>
<path d="M4290.65 1984.06C4290.65 1966.24 4305.09 1951.79 4322.9 1951.79C4340.71 1951.79 4355.15 1966.24 4355.15 1984.06V1989.97C4355.15 2007.79 4340.71 2022.24 4322.9 2022.24C4305.09 2022.24 4290.65 2007.79 4290.65 1989.97V1984.06Z" fill="#0D2294"/>
<path d="M5723.4 888.847C5723.4 876.259 5733.6 866.055 5746.17 866.055C5758.75 866.055 5768.95 876.259 5768.95 888.847V913.711C5768.95 926.299 5758.75 936.503 5746.17 936.503C5733.6 936.503 5723.4 926.299 5723.4 913.711V888.847Z" fill="#0D2294"/>
<path d="M5723.4 1029.74C5723.4 1017.16 5733.6 1006.95 5746.18 1006.95C5758.76 1006.95 5768.95 1017.16 5768.95 1029.74V1054.61C5768.95 1067.19 5758.76 1077.4 5746.18 1077.4C5733.6 1077.4 5723.4 1067.19 5723.4 1054.61V1029.74Z" fill="#0D2294"/>
<path d="M5723.4 1170.64C5723.4 1158.05 5733.6 1147.85 5746.18 1147.85C5758.76 1147.85 5768.95 1158.05 5768.95 1170.64V1195.51C5768.95 1208.09 5758.76 1218.3 5746.18 1218.3C5733.6 1218.3 5723.4 1208.09 5723.4 1195.51V1170.64Z" fill="#0D2294"/>
<path d="M5723.4 1452.44C5723.4 1439.85 5733.6 1429.64 5746.18 1429.64C5758.76 1429.64 5768.95 1439.85 5768.95 1452.44V1477.3C5768.95 1489.89 5758.76 1500.09 5746.18 1500.09C5733.6 1500.09 5723.4 1489.89 5723.4 1477.3V1452.44Z" fill="#0D2294"/>
<path d="M5868.35 888.847C5868.35 876.259 5878.55 866.055 5891.13 866.055C5903.71 866.055 5913.91 876.259 5913.91 888.847V913.711C5913.91 926.299 5903.71 936.503 5891.13 936.503C5878.55 936.503 5868.35 926.299 5868.35 913.711V888.847Z" fill="#0D2294"/>
<path d="M5868.35 1170.64C5868.35 1158.05 5878.55 1147.85 5891.13 1147.85C5903.71 1147.85 5913.91 1158.05 5913.91 1170.64V1195.51C5913.91 1208.09 5903.71 1218.3 5891.13 1218.3C5878.55 1218.3 5868.35 1208.09 5868.35 1195.51V1170.64Z" fill="#0D2294"/>
<path d="M5868.35 1311.54C5868.35 1298.95 5878.55 1288.74 5891.13 1288.74C5903.71 1288.74 5913.91 1298.95 5913.91 1311.54V1336.4C5913.91 1348.99 5903.71 1359.19 5891.13 1359.19C5878.55 1359.19 5868.35 1348.99 5868.35 1336.4V1311.54Z" fill="#0D2294"/>
<path d="M5868.35 1452.44C5868.35 1439.85 5878.55 1429.64 5891.13 1429.64C5903.71 1429.64 5913.91 1439.85 5913.91 1452.44V1477.3C5913.91 1489.89 5903.71 1500.09 5891.13 1500.09C5878.55 1500.09 5868.35 1489.89 5868.35 1477.3V1452.44Z" fill="#0D2294"/>
<path d="M6013.3 888.847C6013.3 876.259 6023.5 866.055 6036.08 866.055C6048.65 866.055 6058.85 876.259 6058.85 888.847V913.711C6058.85 926.299 6048.65 936.503 6036.08 936.503C6023.5 936.503 6013.3 926.299 6013.3 913.711V888.847Z" fill="#0D2294"/>
<path d="M6013.3 1029.74C6013.3 1017.16 6023.5 1006.95 6036.08 1006.95C6048.65 1006.95 6058.85 1017.16 6058.85 1029.74V1054.61C6058.85 1067.19 6048.65 1077.4 6036.08 1077.4C6023.5 1077.4 6013.3 1067.19 6013.3 1054.61V1029.74Z" fill="#0D2294"/>
<path d="M6013.3 1170.64C6013.3 1158.05 6023.5 1147.85 6036.08 1147.85C6048.65 1147.85 6058.85 1158.05 6058.85 1170.64V1195.51C6058.85 1208.09 6048.65 1218.3 6036.08 1218.3C6023.5 1218.3 6013.3 1208.09 6013.3 1195.51V1170.64Z" fill="#0D2294"/>
<path d="M6013.3 1311.54C6013.3 1298.95 6023.5 1288.74 6036.08 1288.74C6048.65 1288.74 6058.85 1298.95 6058.85 1311.54V1336.4C6058.85 1348.99 6048.65 1359.19 6036.08 1359.19C6023.5 1359.19 6013.3 1348.99 6013.3 1336.4V1311.54Z" fill="#0D2294"/>
<path d="M6013.3 1452.44C6013.3 1439.85 6023.5 1429.64 6036.08 1429.64C6048.65 1429.64 6058.85 1439.85 6058.85 1452.44V1477.3C6058.85 1489.89 6048.65 1500.09 6036.08 1500.09C6023.5 1500.09 6013.3 1489.89 6013.3 1477.3V1452.44Z" fill="#0D2294"/>
<path d="M5723.4 1609.91C5723.4 1597.32 5733.59 1587.12 5746.17 1587.12C5758.75 1587.12 5768.95 1597.32 5768.95 1609.91V1634.78C5768.95 1647.36 5758.75 1657.57 5746.17 1657.57C5733.59 1657.57 5723.4 1647.36 5723.4 1634.78V1609.91Z" fill="#0D2294"/>
<path d="M5723.4 1750.8C5723.4 1738.22 5733.59 1728.01 5746.17 1728.01C5758.75 1728.01 5768.95 1738.22 5768.95 1750.8V1775.67C5768.95 1788.26 5758.75 1798.46 5746.17 1798.46C5733.59 1798.46 5723.4 1788.26 5723.4 1775.67V1750.8Z" fill="#0D2294"/>
<path d="M5723.4 1891.7C5723.4 1879.11 5733.59 1868.91 5746.17 1868.91C5758.75 1868.91 5768.95 1879.11 5768.95 1891.7V1916.56C5768.95 1929.15 5758.75 1939.36 5746.17 1939.36C5733.59 1939.36 5723.4 1929.15 5723.4 1916.56V1891.7Z" fill="#0D2294"/>
<path d="M5723.4 2032.6C5723.4 2020.01 5733.59 2009.81 5746.17 2009.81C5758.75 2009.81 5768.95 2020.01 5768.95 2032.6V2057.46C5768.95 2070.05 5758.75 2080.26 5746.17 2080.26C5733.59 2080.26 5723.4 2070.05 5723.4 2057.46V2032.6Z" fill="#0D2294"/>
<path d="M5723.4 2173.5C5723.4 2160.91 5733.59 2150.7 5746.17 2150.7C5758.75 2150.7 5768.95 2160.91 5768.95 2173.5V2198.36C5768.95 2210.95 5758.75 2221.15 5746.17 2221.15C5733.59 2221.15 5723.4 2210.95 5723.4 2198.36V2173.5Z" fill="#0D2294"/>
<path d="M5868.35 1609.91C5868.35 1597.32 5878.55 1587.12 5891.13 1587.12C5903.71 1587.12 5913.91 1597.32 5913.91 1609.91V1634.77C5913.91 1647.36 5903.71 1657.56 5891.13 1657.56C5878.55 1657.56 5868.35 1647.36 5868.35 1634.77V1609.91Z" fill="#0D2294"/>
<path d="M5868.35 2032.6C5868.35 2020.01 5878.55 2009.81 5891.13 2009.81C5903.71 2009.81 5913.91 2020.01 5913.91 2032.6V2057.46C5913.91 2070.05 5903.71 2080.26 5891.13 2080.26C5878.55 2080.26 5868.35 2070.05 5868.35 2057.46V2032.6Z" fill="#0D2294"/>
<path d="M5868.35 2173.5C5868.35 2160.91 5878.55 2150.7 5891.13 2150.7C5903.71 2150.7 5913.91 2160.91 5913.91 2173.5V2198.36C5913.91 2210.95 5903.71 2221.15 5891.13 2221.15C5878.55 2221.15 5868.35 2210.95 5868.35 2198.36V2173.5Z" fill="#0D2294"/>
<path d="M6013.3 1609.91C6013.3 1597.32 6023.49 1587.12 6036.07 1587.12C6048.65 1587.12 6058.85 1597.32 6058.85 1609.91V1634.77C6058.85 1647.36 6048.65 1657.56 6036.07 1657.56C6023.49 1657.56 6013.3 1647.36 6013.3 1634.77V1609.91Z" fill="#0D2294"/>
<path d="M6013.3 1750.8C6013.3 1738.22 6023.49 1728.01 6036.07 1728.01C6048.65 1728.01 6058.85 1738.22 6058.85 1750.8V1775.67C6058.85 1788.26 6048.65 1798.46 6036.07 1798.46C6023.49 1798.46 6013.3 1788.26 6013.3 1775.67V1750.8Z" fill="#0D2294"/>
<path d="M6013.3 1891.7C6013.3 1879.11 6023.49 1868.91 6036.07 1868.91C6048.65 1868.91 6058.85 1879.11 6058.85 1891.7V1916.56C6058.85 1929.15 6048.65 1939.36 6036.07 1939.36C6023.49 1939.36 6013.3 1929.15 6013.3 1916.56V1891.7Z" fill="#0D2294"/>
<path d="M6013.3 2032.6C6013.3 2020.01 6023.49 2009.81 6036.07 2009.81C6048.65 2009.81 6058.85 2020.01 6058.85 2032.6V2057.46C6058.85 2070.05 6048.65 2080.26 6036.07 2080.26C6023.49 2080.26 6013.3 2070.05 6013.3 2057.46V2032.6Z" fill="#0D2294"/>
<path d="M6013.3 2173.5C6013.3 2160.91 6023.49 2150.7 6036.07 2150.7C6048.65 2150.7 6058.85 2160.91 6058.85 2173.5V2198.36C6058.85 2210.95 6048.65 2221.15 6036.07 2221.15C6023.49 2221.15 6013.3 2210.95 6013.3 2198.36V2173.5Z" fill="#0D2294"/>
<path d="M5454.2 1609.91C5454.2 1597.32 5464.4 1587.12 5476.98 1587.12C5489.56 1587.12 5499.76 1597.32 5499.76 1609.91V1634.77C5499.76 1647.36 5489.56 1657.57 5476.98 1657.57C5464.4 1657.57 5454.2 1647.36 5454.2 1634.77V1609.91Z" fill="#0D2294"/>
<path d="M5454.2 1750.8C5454.2 1738.22 5464.39 1728.01 5476.97 1728.01C5489.55 1728.01 5499.75 1738.22 5499.75 1750.8V1775.67C5499.75 1788.26 5489.55 1798.46 5476.97 1798.46C5464.39 1798.46 5454.2 1788.26 5454.2 1775.67V1750.8Z" fill="#0D2294"/>
<path d="M5454.2 1891.7C5454.2 1879.11 5464.39 1868.91 5476.97 1868.91C5489.55 1868.91 5499.75 1879.11 5499.75 1891.7V1916.57C5499.75 1929.15 5489.55 1939.36 5476.97 1939.36C5464.39 1939.36 5454.2 1929.15 5454.2 1916.57V1891.7Z" fill="#0D2294"/>
<path d="M5454.2 2032.6C5454.2 2020.01 5464.39 2009.81 5476.97 2009.81C5489.55 2009.81 5499.75 2020.01 5499.75 2032.6V2057.46C5499.75 2070.05 5489.55 2080.26 5476.97 2080.26C5464.39 2080.26 5454.2 2070.05 5454.2 2057.46V2032.6Z" fill="#0D2294"/>
<path d="M5454.2 2173.5C5454.2 2160.91 5464.39 2150.7 5476.97 2150.7C5489.55 2150.7 5499.75 2160.91 5499.75 2173.5V2198.36C5499.75 2210.95 5489.55 2221.15 5476.97 2221.15C5464.39 2221.15 5454.2 2210.95 5454.2 2198.36V2173.5Z" fill="#0D2294"/>
<path d="M5599.15 1750.8C5599.15 1738.22 5609.35 1728.01 5621.93 1728.01C5634.51 1728.01 5644.71 1738.22 5644.71 1750.8V1775.67C5644.71 1788.26 5634.51 1798.46 5621.93 1798.46C5609.35 1798.46 5599.15 1788.26 5599.15 1775.67V1750.8Z" fill="#0D2294"/>
<path d="M5599.15 2032.6C5599.15 2020.01 5609.35 2009.81 5621.93 2009.81C5634.51 2009.81 5644.71 2020.01 5644.71 2032.6V2057.46C5644.71 2070.05 5634.51 2080.26 5621.93 2080.26C5609.35 2080.26 5599.15 2070.05 5599.15 2057.46V2032.6Z" fill="#0D2294"/>
<path d="M5599.15 2173.5C5599.15 2160.91 5609.35 2150.7 5621.93 2150.7C5634.51 2150.7 5644.71 2160.91 5644.71 2173.5V2198.36C5644.71 2210.95 5634.51 2221.15 5621.93 2221.15C5609.35 2221.15 5599.15 2210.95 5599.15 2198.36V2173.5Z" fill="#0D2294"/>
<defs>
<filter id="filter0_d" x="0" y="0" width="15872" height="2865.59" filterUnits="userSpaceOnUse" color-interpolation-filters="sRGB">
<feFlood flood-opacity="0" result="BackgroundImageFix"/>
<feColorMatrix in="SourceAlpha" type="matrix" values="0 0 0 0 0 0 0 0 0 0 0 0 0 0 0 0 0 0 127 0"/>
<feOffset dy="4"/>
<feGaussianBlur stdDeviation="2"/>
<feColorMatrix type="matrix" values="0 0 0 0 0 0 0 0 0 0 0 0 0 0 0 0 0 0 0.25 0"/>
<feBlend mode="normal" in2="BackgroundImageFix" result="effect1_dropShadow"/>
<feBlend mode="normal" in="SourceGraphic" in2="effect1_dropShadow" result="shape"/>
</filter>
</defs>
</svg>
