<svg xmlns="http://www.w3.org/2000/svg" width="409" height="1136" fill="none" xmlns:v="https://vecta.io/nano">
    <style>
        <![CDATA[
        .B {
            stroke: #fff
        }

        .C {
            stroke-linecap: round
        }

        .D {
            stroke-width: 3
        }

        .E {
            stroke: #0f0967
        }
        ]]>
    </style>
    <path fill-rule="evenodd"
        d="M211.172 528.017c-60.16-.071-91.196-10.555-103.474-14.702-2.579-.871-4.33-1.463-5.35-1.62-4.715-.725-7.577 3.929-8.419 6.348-3.502 17.448-4.433 42.775-6.421 96.894l-4.695 115.681L68.057 1056.9c-.099 2.22 1.274 4.12 3.384 4.79 49.034 15.7 103.09 8.09 126.027 1.47 2.047-.59 3.397-2.43 3.426-4.56l1.269-164.897 2.049-201.126v-.027c.003-11.967 2.041-17.891 4.175-24.092.776-2.258 4.793-2.258 5.57 0 2.134 6.201 4.172 12.125 4.175 24.092 0 .017-.001.011 0 .027l2.049 201.126 1.268 164.897c.03 2.13 1.38 3.97 3.427 4.56 22.936 6.62 76.993 14.23 126.027-1.47 2.11-.67 3.483-2.57 3.384-4.79L339.53 730.618l-4.695-115.681c-1.988-54.119-2.918-79.446-6.421-96.894-.841-2.419-3.704-7.073-8.418-6.348-1.02.157-2.771.749-5.35 1.62-12.278 4.147-43.314 14.631-103.474 14.702z"
        fill="url(#A)" />
    <path d="M308.558 553.555c.932 15.842 5.594 37.276 24.243 40.072" class="B C D" />
    <path
        d="M333.56 347.062c-1.334-112.063-45.099-130.503-69.991-133.923-49.401-8.84-90.289-3.683-104.558 0-61.504 17.921-68.874 51.722-73.981 127.842-3.358 50.049-10.075 142.697-2.717 185.195 2.213 12.782 11.99 15.977 16.602 15.977 80.243 13.694 166.98 8.672 216.356 1.266 12.474-1.871 16.338-8.732 17.272-17.243 4.318-39.355.538-142.162 1.017-179.114z"
        fill="#120f8a" />
    <path
        d="M370.464 622.458c6.252-12.245 11.256-30.993 9.47-58.098l-43.94-3.968s-3.087 16.27-3.935 25.644-3.651 27.312 4.769 28.36c-.922 26.011-6.316 30.346-3.853 34.72 1.97 3.499 8.311 2.925 11.234 2.201 13.212-.705 19.941-16.975 26.255-28.859z"
        fill="#e9f0fd" />
    <path
        d="M309.525 212.561l-48.968-19.765c-5.438 47.549 48.294 67.148 59.292 123.702 9.655 52.165 10.511 220.891 12.041 241.362 0 5.059-1.294 10.706 2.355 10.941l44.161-1.227c6.764-.468 8.065-6.219 7.87-9.036 13.423-82.914 21.763-197.421-7.767-267.858-14.168-41.002-35.083-60.236-68.984-78.119z"
        fill="url(#B)" />
    <path
        d="M50.562 622.458c-6.252-12.245-11.255-30.993-9.47-58.098l43.94-3.968s3.088 16.27 3.935 25.644 3.651 27.312-4.769 28.36c.922 26.011 6.316 30.346 3.853 34.72-1.97 3.499-8.31 2.925-11.234 2.201-13.212-.705-19.94-16.975-26.255-28.859z"
        fill="#e9f0fd" />
    <path
        d="M118.414 210.887l53.212-19.61c6.195 47.883-52.206 67.299-63.857 124.151-10.214 52.442-10.177 222.24-11.725 242.833.029 5.091 1.472 10.782-2.501 10.998l-48.098-1.489c-7.369-.51-8.818-6.305-8.622-9.138-15.095-83.521-24.835-198.806 6.918-269.523 15.193-41.184 37.858-60.42 74.673-78.222z"
        fill="url(#C)" />
    <path
        d="M83.02 615.305c-1.947.254-6.479-1.069-9.033-8.398-2.085-7.372-3.099-18.576-8.043-25.282m272.062 33.68c1.947.254 6.479-1.069 9.033-8.398 2.085-7.372 3.099-18.576 8.043-25.282"
        class="C D E" />
    <g fill="#59f0e7">
        <ellipse rx="45.739" ry="45.252" transform="matrix(.999718 -.023727 .023753 .999718 206.978 327.257)"
            fill-opacity=".3" />
        <ellipse rx="39.502" ry="39.082" transform="matrix(.999718 -.023727 .023753 .999718 207.226 327.251)"
            fill-opacity=".4" />
        <ellipse rx="32.433" ry="32.499" transform="matrix(.999718 -.023727 .023753 .999718 206.978 327.257)" />
    </g>
    <path
        d="M223.299 336.7l.036-.087.031-.089c1.395-4.015 1.279-8.649-.332-12.707a4.31 4.31 0 0 0-3.668-2.74 15.81 15.81 0 0 0-.218-.523l-3.203 1.411 3.203-1.411c-.614-1.394-1.118-2.189-2.783-4.274l-.146-.184-.106-.101-.076-.1-.009-.012c-.056-.076-.156-.208-.267-.344-.083-.102-.186-.224-.31-.355l-.519-.625c-.367-.439-.613-.732-.807-1.031-.324-1.287-.398-2.408-.373-3.23.05-1.659-.775-3.082-1.886-3.926-1.156-.878-3.065-1.408-4.909-.364-2.421 1.371-4.628 3.369-6.283 5.84a22.81 22.81 0 0 0-2.055 3.701c-1.202-.646-2.862-.786-4.292.208-1.309.91-1.755 2.31-1.794 3.377a14.13 14.13 0 0 1-.798 4.127c-.12.324-.538 1.508-.942 2.825-.351 1.146-.873 2.951-.939 4.254-.256 3.651.62 6.132 1.225 7.417 1.321 2.85 4.428 6.928 10.125 8.917 5.594 1.954 10.652.665 12.918-.496 6.013-2.757 8.386-7.541 9.177-9.478z"
        fill="#ca0d7b" stroke="#ff7ec9" stroke-width="7" />
    <path
        d="M211.257 338.716c-1.043 1.096-2.477 1.819-4.08 1.857-4.351.103-8.211-4.857-5.027-9.065 1.252-1.943 2.99-2.75 3.629-4.755.288-.772.34-1.768.249-2.378-.081-.228-.178-1.067-.18-1.144s-.001-.076.075-.078l.075-.078.152-.004.469.448 1.016.971c.782.747 1.499 2.031 1.687 3.48.196 1.832-.226 3.373-1.576 4.4.616.215 1.227.201 1.908-.045 1.06-.408 1.656-1.034 1.865-1.881 0 0-.002-.077.074-.079l.077-.001c.616.215 1.325 1.116 1.452 3.256-.115 1.61-.3 3.451-1.865 5.096z"
        fill="#ffaddd" />
    <path
        d="M155.2 73.562l56.194-.51 61.16-.555c.261 28.74-2.723 67.976-4.696 94.991s-3.246 35.433-6.273 54.631c-5.396 34.214-32.155 39.583-48.94 39.502-35.432.089-45.91-24.28-49.079-39.395-1.981-12.796-6.203-41.416-7.593-63.628-2.304-36.836-2.192-67.153-.773-85.035z"
        fill="#e9f0ff" />
    <path
        d="M218.995 178.73c-4.041.308-7.957-.193-11.412-1.071-4.085-1.039-8.415 2.402-5.737 5.657 4.075 4.951 10.11 6.382 13.582 6.351 3.751.278 6.968-1.138 9.623-3.319 3.762-3.091-1.201-7.989-6.056-7.618z"
        fill="#d7dde9" />
    <path d="M198.269 161.751c6.024-4.906 20.802-11.833 31.726-.288" stroke-linejoin="round" class="C D E" />
    <path
        d="M254.428 75.693c-38.363 9.125-72.53 1.865-81.911.078s-11.771-4.748-13.966 8.381-2.846 68.248-2.846 68.248c.102 11.176-11.872-11.907-11.905-15.439l-4.098-25.334c-.3-32.955 1.715-52.209 23.116-72.677 26.287-25.141 76.156-22.182 103.237 2.181 16.503 14.846 17.549 50.1 17.437 64.356s-2.868 30.23-2.868 30.23c-2.303 12.585-12.694 26.453-11.576 16.415s-.157-57.144-1.704-67.761l-.041-.278c-1.507-10.352-1.613-11.079-12.875-8.401z"
        fill="#0f43ec" />
    <path
        d="M146.204 117.151l10.669 1.718 8.774 29.91-12.749-4.069c-10.631-2.928-13.838-11.075-14.283-16.966-.544-7.203 2.917-10.674 7.589-10.593zm131.302-1.193l-10.636 1.912-8.228 30.064 12.672-4.3c10.576-3.12 13.635-11.324 13.972-17.222.413-7.212-3.111-10.62-7.78-10.454z"
        fill="#e9f0ff" />
    <g fill="#0f0967">
        <path
            d="M197.424 95.51a1.75 1.75 0 1 0-3.166-1.492l3.166 1.492zm-18.664 5.566a1.75 1.75 0 0 0-1.785 1.714 1.75 1.75 0 0 0 1.714 1.785l.071-3.499zm15.498-7.058c-.985 2.088-3.278 3.904-6.295 5.197-2.98 1.276-6.389 1.919-9.203 1.862l-.071 3.499c3.329.068 7.232-.679 10.652-2.144 3.382-1.449 6.576-3.726 8.083-6.921l-3.166-1.492zm35.945.491a1.75 1.75 0 1 1 3.239-1.326l-3.239 1.326zm18.35 6.525a1.75 1.75 0 0 1 1.694 1.804 1.75 1.75 0 0 1-1.804 1.694l.11-3.498zm-15.111-7.852c.875 2.136 3.071 4.069 6.017 5.516 2.909 1.429 6.281 2.247 9.094 2.336l-.11 3.498c-3.329-.105-7.187-1.052-10.527-2.692-3.302-1.622-6.374-4.062-7.713-7.331l3.239-1.326z" />
        <ellipse rx="4.161" ry="4.159" transform="matrix(.999983 -.009083 .009092 .999935 189.748 113.117)" />
        <ellipse rx="4.161" ry="4.159" transform="matrix(.999983 -.009082 .009092 .999935 235.809 112.699)" />
    </g>
    <g class="D">
        <g class="C">
            <path d="M217.425 102.922l4.596 35.276a3 3 0 0 1-2.948 3.387l-13.778.125" class="E" />
            <path
                d="M114.616 553.555c-.933 15.842-5.595 37.276-24.243 40.072m103.562 472.413c2.043 8.83 1.225 21.43 1.225 21.43l-.023 18.48c-.001 1.03-.404 2.02-1.193 2.69-2.376 2.01-8.46 6.54-19.582 11.05-14.919 6.06-28.206 10.49-47.087 11.88-19.581.94-31.935.94-45.922-.69-19.969-3.36-26.564-3.08-26.087-9.45l.232-20.68c.488-16.6 11.415-28.85 28.02-34.17 15.102-4.26 35.811-7.42 57.939 10.49"
                class="B" />
        </g>
        <path d="M56.081 1105.58c19.911 9.69 104.118 12.27 139.08-18.11" class="B" />
        <path
            d="M94.603 1111.98l-.451 19.83m21.908-19.13l-.089 18.68m21.285-22.43l.04 22.39m16.721-24.54l-.455 21.36m13.716-25.75l-.239 20.33m11.685-24.68l-.083 20.34m9.265-25.32l.229 20.34m-113.829-2.79l-.497 18.7"
            class="B" />
        <path
            d="M232.321 1066.04c-2.043 8.83-1.225 21.43-1.225 21.43l.023 18.48c.002 1.03.404 2.02 1.193 2.69 2.376 2.01 8.461 6.54 19.583 11.05 14.919 6.06 28.205 10.49 47.087 11.88 19.581.94 31.935.94 45.921-.69 19.969-3.36 26.564-3.08 26.087-9.45l-.232-20.68c-.488-16.6-11.415-28.85-28.019-34.17-15.102-4.26-35.812-7.42-57.94 10.49"
            class="B C" />
        <path d="M370.175 1105.58c-19.911 9.69-104.118 12.27-139.08-18.11" class="B" />
        <path
            d="M331.654 1111.98l.451 19.83m-21.909-19.13l.089 18.68M289 1108.93l-.04 22.39m-16.721-24.54l.455 21.36m-13.716-25.75l.24 20.33m-11.686-24.68l.084 20.34m-9.266-25.32l-.229 20.34m113.829-2.79l.497 18.7"
            class="B" />
    </g>
    <defs>
        <linearGradient id="A" x1="177.042" y1="511.619" x2="177.042" y2="1070.82" gradientUnits="userSpaceOnUse">
            <stop stop-color="#1638ff" />
            <stop offset="1" stop-color="#0f0e78" />
        </linearGradient>
        <linearGradient id="B" x1="330.402" y1="353.033" x2="344.185" y2="615.065" gradientUnits="userSpaceOnUse">
            <stop stop-color="#120f8a" />
            <stop offset="1" stop-color="#0339c6" />
        </linearGradient>
        <linearGradient id="C" x1="96.487" y1="352.136" x2="82.288" y2="615.723" gradientUnits="userSpaceOnUse">
            <stop stop-color="#120f8a" />
            <stop offset="1" stop-color="#0339c6" />
        </linearGradient>
    </defs>
</svg>