<svg width="710" height="605" viewBox="0 0 710 605" fill="none" xmlns="http://www.w3.org/2000/svg">
<path d="M264.167 142.042C259.33 146.86 262.151 153.419 264.167 156.095L276.254 184.203C292.376 217.932 269.536 253.133 256.1 266.517V346.238C256.1 347.549 254.86 348.506 253.592 348.173L76.7336 301.703C83.1802 264.762 79.4197 225.026 76.7336 214.318C75.39 209.634 70.2853 202.021 54.5662 200.264C40.1473 198.653 38.9914 188.201 38.4434 182.195C36.8311 164.528 48.1172 164.127 54.5662 164.127H68.6753C55.7771 122.367 91.516 97.2043 110.998 89.8429L185.566 61.7352C212.975 50.4923 231.919 66.4198 237.965 75.7889L270.211 123.973C276.66 132.004 273.57 136.939 270.211 138.278L264.167 142.042Z" fill="#EAF1FF"/>
<path d="M86.6956 164.111H54.45C39.9394 143.232 43.0296 108.566 46.3885 93.8427C52.8377 66.5384 79.9778 62.3892 92.7417 63.7277H106.849C142.319 63.7277 186.12 28.9284 203.586 11.5288C226.158 -9.35095 242.55 2.82889 247.924 11.5288C270.496 40.4392 253.298 63.7281 241.878 71.7587C208.02 89.4262 155.218 104.551 133.049 109.904C121.763 113.117 121.628 124.627 122.972 129.981C126.197 144.436 139.095 160.096 145.141 166.119C155.959 176.896 177.86 170 195.86 166.119L261.552 147.784C263.287 147.299 265.159 147.777 266.382 149.099C285.897 170.196 294.277 204.012 294.277 216.311C299.114 258.07 253.298 269.848 229.786 270.518C170.131 276.942 131.033 219.657 118.941 190.211C109.872 168.126 100.803 164.111 86.6956 164.111Z" fill="#0F43EC"/>
<path d="M240.598 165.598C248.032 163.572 253.433 161.677 257.114 160.152C260.177 158.883 264.247 160.265 264.86 163.523C266.473 172.089 262.943 175.752 260.323 176.655C260.097 176.733 259.865 176.809 259.643 176.899C250.209 180.723 242.781 176.876 238.238 172.377C235.901 170.064 237.425 166.462 240.598 165.598Z" fill="#ECF1FD"/>
<path d="M67.5356 183.292C72.6334 182.223 83.9559 182.811 88.4634 193.716" stroke="#0F0967" stroke-width="4" stroke-linecap="round"/>
<path d="M222.192 122.142C225.331 117.818 232.225 116.625 237.286 116.597C238.242 116.592 238.768 115.364 238.068 114.713L235.535 112.364C235.395 112.234 235.295 112.067 235.247 111.883L234.637 109.55C234.552 109.223 234.309 108.959 233.984 108.869C227.81 107.168 219.928 111.49 215.548 115.02C214.492 115.871 214.757 117.468 215.975 118.067L218.324 119.222C218.562 119.339 218.744 119.546 218.829 119.797L219.58 122C219.906 122.959 221.597 122.962 222.192 122.142Z" fill="#0F0967"/>
<path d="M153.615 25.8231C153.306 24.7624 152.197 24.1522 151.136 24.4603C150.075 24.7683 149.465 25.8779 149.773 26.9387L153.615 25.8231ZM102.55 69.3963C110.127 68.1621 124.322 63.2117 135.867 55.818C141.645 52.1173 146.904 47.7147 150.319 42.7278C153.764 37.6981 155.397 31.9597 153.615 25.8231L149.773 26.9387C151.136 31.6325 149.981 36.1426 147.019 40.4677C144.028 44.8357 139.261 48.8943 133.71 52.4495C122.595 59.5675 108.912 64.3074 101.907 65.4483L102.55 69.3963Z" fill="#0A39D1"/>
<path d="M238.485 63.1556C247.278 54.0777 254.568 34.1632 239.574 18.9366" stroke="#171460" stroke-width="4" stroke-linecap="round"/>
<path d="M62.6719 88.8624C58.4809 93.0573 54.5885 98.4926 55.3361 108.44" stroke="#171460" stroke-width="4" stroke-linecap="round"/>
<path d="M59.4529 306.061C64.2898 291.923 90.6909 303.606 99.76 306.061L250.266 338.923C321.316 351.348 373.648 485.411 380.702 538.758H0C13.7044 423.293 45.3455 335.517 59.4529 306.061Z" fill="url(#paint0_linear)"/>
<path d="M533.479 526.349L470.252 540.498L467.053 593.715C467.053 593.715 498.596 598.437 515.314 596.616C532.031 594.795 536.354 594.704 555.125 594.996C571.81 595.255 591.758 604.731 598.803 593.752C602.933 596.591 612.879 601.045 619.629 596.156C626.38 591.268 622.633 581.638 619.916 577.434L580.862 539.374C564.406 524.136 542.758 523.872 533.479 526.349Z" fill="#EAF1FF"/>
<path d="M337.305 480.82C271.84 443.287 267.376 423.009 238.621 369.817C222.255 339.543 176.174 326.465 146.917 339.648C79.961 369.817 85.0402 435.638 109.458 479.992C149.438 552.616 195.312 571.764 236.357 586.368C297.398 608.086 448.893 602.176 485.925 601.367L490.234 529.679C421.943 521.288 374.723 502.273 337.305 480.82Z" fill="url(#paint1_linear)"/>
<path d="M706.5 434H610L621.5 551H694.5L706.5 434Z" fill="url(#paint2_linear)" style="mix-blend-mode:hard-light"/>
<path d="M693.5 565.5L695.5 552.5L693.5 550.5H620.5C620.667 553.167 621.4 559.7 623 564.5C624.6 569.3 627.333 570.5 628.5 570.5H685C691.4 570.5 693.333 567.167 693.5 565.5Z" fill="url(#paint3_linear)" style="mix-blend-mode:hard-light"/>
<path d="M608.83 438.54C608.509 435.582 610.826 433 613.801 433H702.199C705.174 433 707.491 435.582 707.17 438.54L693.384 565.54C693.109 568.077 690.966 570 688.413 570H627.587C625.034 570 622.891 568.077 622.616 565.54L608.83 438.54Z" stroke="white" stroke-width="4"/>
<path d="M621.215 550.724H693.916" stroke="white" stroke-width="4"/>
<defs>
<linearGradient id="paint0_linear" x1="192.97" y1="299.196" x2="192.97" y2="538.758" gradientUnits="userSpaceOnUse">
<stop stop-color="#0B2AE7"/>
<stop offset="1" stop-color="#181369"/>
</linearGradient>
<linearGradient id="paint1_linear" x1="415" y1="604" x2="158.506" y2="408.029" gradientUnits="userSpaceOnUse">
<stop stop-color="#0F14C9"/>
<stop offset="1" stop-color="#001A75"/>
</linearGradient>
<linearGradient id="paint2_linear" x1="697.536" y1="551" x2="571.993" y2="383.609" gradientUnits="userSpaceOnUse">
<stop stop-color="#4D71D3"/>
<stop offset="1" stop-color="#EAF1FF" stop-opacity="0.63"/>
</linearGradient>
<linearGradient id="paint3_linear" x1="686.484" y1="569.563" x2="677.776" y2="542.398" gradientUnits="userSpaceOnUse">
<stop stop-color="#4D71D3"/>
<stop offset="1" stop-color="#EAF1FF" stop-opacity="0.63"/>
</linearGradient>
</defs>
</svg>
