<svg width="155" height="418" viewBox="0 0 155 418" fill="none" xmlns="http://www.w3.org/2000/svg">
<path d="M37.501 92.9116C68.9287 77.0122 87.6832 39.8457 93.1321 23.2498L93.5141 20.9892L129.422 29.376L117.425 100.359L37.501 92.9116Z" fill="#FFE600"/>
<path d="M58.5652 72.1955C49.7369 82.1355 36.4162 88.6977 30.8594 90.7363C76.8513 95.6428 97.9659 48.7825 102.774 24.7391L86.7024 22.026C75.6846 26.417 69.6006 59.7704 58.5652 72.1955Z" fill="white"/>
<path d="M138.806 104.996L3.76945 89.7362L18.2974 3.77996L150.857 33.6937L138.806 104.996Z" stroke="white" stroke-width="5" stroke-linecap="round" stroke-linejoin="round"/>
<path d="M25.762 91.6614L20.9593 120.077C20.7752 121.166 21.5089 122.198 22.5981 122.382L109.904 137.121C110.993 137.304 112.025 136.571 112.209 135.481L117.599 103.593" stroke="white" stroke-width="5"/>
<path d="M118.901 101.134L130.64 31.6762" stroke="white" stroke-width="5"/>
<path d="M105.291 142.642L102.819 176.237V191.704L35.5883 185.13L32.624 176.237C30.2526 160.428 30.461 154.756 24.5271 146.357C10.1921 139.44 11.1659 133.534 12.7486 129.186C14.3305 124.839 21.5615 123.023 24.5276 123.846L34.923 125.555C35.3251 125.621 35.7271 125.437 35.9392 125.089L42.7034 113.986C46.8818 103.14 61.2221 107.231 67.8134 108.054L87.908 113.986C105.291 116.95 105.291 130.784 105.291 142.642Z" fill="#EAF1FF"/>
<path d="M28.1657 202.271L16.2715 418H124.641C126.756 378.552 119.061 257.744 112.306 202.271C110.636 188.557 108.342 182.019 102.174 182.019H38.2978C30.3683 182.019 28.1657 188.182 28.1657 202.271Z" fill="#0163FF"/>
<path d="M105.271 182.141H37.2715C34.6048 182.807 29.0715 186.341 28.2715 195.141L16.2715 370.141" stroke="white" stroke-width="4" stroke-linecap="round"/>
</svg>
