<?xml version="1.0" encoding="UTF-8"?>
<svg fill="none" viewBox="0 0 477 920" xmlns="http://www.w3.org/2000/svg">
<path d="m137.34 833.29c-4.612 0.723-9.335 1.896-12.37 3.419-13.258 6.654-33.911 11.859-45.335 14.069-26.765 4.954-37.88 24.552-40.398 34.847-0.2078 0.85-0.2586 1.693-0.2221 2.486l0.5215 11.328c0.2397 5.208 4.4652 9.361 9.7251 9.432 13.537 0.185 43.699 0.364 74.644-1.006 31.06-1.375 61.651-4.388 75.281-5.84 5.224-0.558 9.047-5.076 8.807-10.278l-0.565-12.267c0.018-15.752-3.394-31.825-6.143-41.608-1.306-4.647-5.874-7.335-10.497-6.81-19.612 2.226-32.528 2.31-40.689 1.506-3.306-0.325-8.128-5e-3 -12.759 0.722zm0.62 3.927c4.477-0.703 8.922-0.97 11.748-0.692 8.547 0.842 21.77 0.731 41.531-1.513 2.867-0.325 5.477 1.343 6.205 3.932 2.698 9.6 6.019 25.309 5.996 40.578l-1e-3 0.047 0.57 12.36c0.144 3.132-2.149 5.812-5.247 6.142-13.597 1.449-44.094 4.452-75.034 5.822-30.833 1.365-60.907 1.187-74.412 1.003-3.1183-0.042-5.6504-2.503-5.7948-5.639l-0.5215-11.328c-0.0231-0.501 0.013-0.954 0.1129-1.363 2.2344-9.138 12.368-27.276 37.258-31.879l0.0163-3e-3c11.513-2.229 32.611-7.515 46.378-14.424 2.47-1.239 6.698-2.338 11.195-3.043z" clip-rule="evenodd" fill="#fff" fill-rule="evenodd"/>
<path d="m40.256 886.4-0.1283 1.961c-0.1283 1.961-0.128 1.96-0.1276 1.96l0.0239 2e-3 0.0672 4e-3 0.2621 0.015c0.2314 0.014 0.5757 0.033 1.0319 0.055 0.9122 0.046 2.2716 0.11 4.0681 0.178 3.5933 0.136 8.9359 0.292 15.95 0.371 14.028 0.16 34.74 0.017 61.513-1.194 26.774-1.212 47.278-2.927 61.097-4.34 6.91-0.707 12.149-1.339 15.665-1.794 1.756-0.228 3.084-0.411 3.973-0.538 0.446-0.064 0.781-0.113 1.006-0.147l0.255-0.039 0.088-0.012c0-1e-3 2e-3 -1e-3 -0.311-1.942l-0.314-1.94-0.017 2e-3 -0.059 0.01-0.243 0.036c-0.216 0.033-0.544 0.081-0.98 0.143-0.872 0.124-2.182 0.306-3.921 0.531-3.48 0.451-8.682 1.078-15.555 1.781-13.746 1.406-34.174 3.116-60.868 4.323-26.693 1.208-47.329 1.35-61.283 1.192-6.9771-0.08-12.284-0.235-15.842-0.37-1.7791-0.068-3.1211-0.129-4.0163-0.175-0.4476-0.022-0.7834-0.041-1.0063-0.054l-0.2495-0.014-0.0609-4e-3 -0.0183-1e-3z" clip-rule="evenodd" fill="#fff" fill-rule="evenodd"/>
<path d="m194 900.82-0.901-18.82-4.099 0.18 0.901 18.82 4.099-0.18z" clip-rule="evenodd" fill="#fff" fill-rule="evenodd"/>
<path d="m133 904.82-0.9-18.82-4.1 0.18 0.901 18.82 4.099-0.18z" clip-rule="evenodd" fill="#fff" fill-rule="evenodd"/>
<path d="m179 901.82-0.9-18.82-4.1 0.18 0.901 18.82 4.099-0.18z" clip-rule="evenodd" fill="#fff" fill-rule="evenodd"/>
<path d="M118 905.82L117.099 887L113 887.181L113.901 906L118 905.82Z" clip-rule="evenodd" fill="#fff" fill-rule="evenodd"/>
<path d="m163 903.82-0.9-18.82-4.1 0.181 0.901 18.819 4.099-0.18z" clip-rule="evenodd" fill="#fff" fill-rule="evenodd"/>
<path d="M103 906.82L102.099 888L98 888.181L98.901 907L103 906.82Z" clip-rule="evenodd" fill="#fff" fill-rule="evenodd"/>
<path d="M72 906.819L71.099 888L67 888.18L67.901 907L72 906.819Z" clip-rule="evenodd" fill="#fff" fill-rule="evenodd"/>
<path d="m149 903.82-0.9-18.82-4.1 0.181 0.901 18.819 4.099-0.18z" clip-rule="evenodd" fill="#fff" fill-rule="evenodd"/>
<path d="M88 906.82L87.099 888L83 888.18L83.901 907L88 906.82Z" clip-rule="evenodd" fill="#fff" fill-rule="evenodd"/>
<path d="M58 906.819L57.099 888L53 888.18L53.901 907L58 906.819Z" clip-rule="evenodd" fill="#fff" fill-rule="evenodd"/>
<path d="m41.031 609.12c0-84.613 51.758-125.56 109.65-125.56l76.275-2.57h228.83c9.853 30.728 9.378 54.59 0 74.656-28.731 61.476-117.63 46.646-228.83 46.646-60.415 0-57.206 39.577-52.44 70.966l29.221 158.1c0.81 4.38-1.813 8.633-6.137 9.671-13.093 3.141-41.652 8.963-73.479 8.963-30.503 0-51.666-2.005-61.623-3.209-3.8499-0.466-6.7746-3.562-7.1885-7.426-10.434-97.392-14.721-181.93-14.275-230.24z" fill="url(#b)"/>
<path d="m301.86 241.56c27.002-31.786 71.501-45.316 106.13-52.238 6.727-1.345 13.584 1.623 17.193 7.477 68.113 110.5 53.35 226.54 37.373 278.34-1.092 3.542-4.385 5.863-8.079 5.863h-190.82c-4.851 0-8.754-3.985-8.656-8.853 0.288-14.367 0.818-42.266 0.818-53.326 0-14.706 2.266-38.75 2.413-40.286 5e-3 -0.053 9e-3 -0.106 0.012-0.159 4.917-82.76 28.397-117.97 43.612-136.82z" fill="#2F72F4"/>
<path d="m118.09 450.98c20.62-1.281 52.292-0.94 52.292-0.94l7.615 31.638s-13.229 15.358-30.202 18.127c-14.726 2.518-18.609 0.697-29.702 2.266s-12.48 3.525-20.966 7.05c-12.23 7.05-13.978-3.273-13.978-3.273l-2.9952 1.007c-5.4912 3.525-6.4896 5.288-10.483 6.044-3.9936 0.755-10.858-2.77-7.1136-9.82-3.6601-6.079-4.8672-11.707 6.6144-22.786 10.733-9.566 22.714-26.561 48.919-29.313z" fill="#F1F1FC"/>
<path d="m61 505c5.5271-7.886 23.465-24.726 51-29" stroke="#0F0967" stroke-linecap="round" stroke-width="3"/>
<path d="m82 506c6.5-6.646 13.25-11.323 32-16" stroke="#0F0967" stroke-linecap="round" stroke-width="3"/>
<path d="m61 488c5.5271-7.886 23.465-24.726 51-29" stroke="#0F0967" stroke-linecap="round" stroke-width="3"/>
<path d="m239.51 416.93c55.055-26.079 52.53-90.288 57.455-139.09 0.238-2.357 2.346-4.054 4.702-3.818l43.351 4.346c23.729 2.379 41.072 23.517 38.781 47.266l-5.551 57.538c-0.034 0.358-0.115 0.717-0.239 1.056-23.244 63.963-71.085 97.333-131.76 102.13l-72.397 5.633c-2.42 0.188-4.523-1.652-4.658-4.077l-2.188-39.01c-0.134-2.401 1.7-4.57 4.047-5.087 7.846-1.731 27.603-7.533 68.454-26.884z" fill="url(#a)"/>
<path d="m94 566c0 4.418-3.5817 8-8 8-4.4182 0-8-3.582-8-8 0-4.419 3.5818-8 8-8 4.4183 0 8 3.581 8 8z" fill="#fff"/>
<path d="m261 508c0 4.418-3.582 8-8 8-4.419 0-8-3.582-8-8 0-4.419 3.581-8 8-8 4.418 0 8 3.581 8 8z" fill="#fff"/>
<path d="m384 549c0 4.419-3.582 8-8 8-4.419 0-8-3.581-8-8 0-4.418 3.581-8 8-8 4.418 0 8 3.582 8 8z" fill="#fff"/>
<path d="m237 573c0 4.417-3.581 7.999-8 7.999s-8-3.582-8-7.999c0-4.419 3.581-8.001 8-8.001s8 3.582 8 8.001z" fill="#fff"/>
<path d="m150 673c0 4.417-3.582 7.999-8 7.999-4.419 0-8-3.582-8-7.999 0-4.419 3.581-8.001 8-8.001 4.418 0 8 3.582 8 8.001z" fill="#fff"/>
<path d="m92 735c0 4.417-3.5817 7.999-8 7.999s-8-3.582-8-7.999c0-4.419 3.5817-8.001 8-8.001s8 3.582 8 8.001z" fill="#fff"/>
<path d="m166 812c0 4.418-3.582 8-8 8-4.419 0-8-3.582-8-8 0-4.419 3.581-8 8-8 4.418 0 8 3.581 8 8z" fill="#fff"/>
<path d="m170 493.1c-0.057-1.105 0.789-2.047 1.889-2.103l72.338-3.716c37.789-3.296 69.946-15.645 89.873-34.057l0.059-0.054 0.062-0.049c19.985-15.702 31.971-41.753 38.942-68.183 6.959-26.381 8.838-52.824 8.843-68.935 1e-3 -1.106 0.895-2.003 1.997-2.002s1.994 0.9 1.994 2.006c-6e-3 16.358-1.909 43.16-8.977 69.959-7.048 26.723-19.315 53.758-40.276 70.261-20.789 19.173-53.88 31.712-92.205 35.049l-0.036 3e-3 -72.407 3.719c-1.101 0.056-2.038-0.793-2.096-1.898z" clip-rule="evenodd" fill="#fff" fill-rule="evenodd"/>
<path d="m296.24 87.698c-0.487-0.849-0.215-1.945 0.606-2.4479 0.822-0.503 1.883-0.2224 2.37 0.6265l-2.976 1.8214zm20.83 4.5905c0.949-0.1131 1.807 0.5901 1.917 1.5703 0.108 0.9804-0.572 1.8666-1.521 1.9796l-0.396-3.5499zm-17.854-6.4119c1.327 2.3132 4.072 4.1405 7.523 5.2846 3.414 1.1311 7.234 1.4958 10.331 1.1273l0.396 3.5499c-3.604 0.4289-7.919 0.0062-11.783-1.2747-3.826-1.268-7.501-3.4776-9.443-6.8657l2.976-1.8214z" fill="#0F0967"/>
<path d="m295 138h9.613c3.939 0 6.387 2.536 6.387 6 0 2.598-1.518 6-5.881 6h-8.348" stroke="#0F0967" stroke-linecap="round" stroke-linejoin="round" stroke-width="4"/>
<path d="m324.7 189.95c-36.636-1.499-51.235-35.986-50.687-65.975 2.192-59.978 38.91-69.475 69.6-70.974 23.018 0.9992 61.927 11.996 61.379 70.974-0.329 35.489-28.098 67.475-80.292 65.975z" fill="#F1F1FC"/>
<path d="m295 148.02c5.152-2.149 13.821-3.569 23 0.975" stroke="#0F0967" stroke-linecap="round" stroke-width="3"/>
<path d="m307 122.01h-5.186c-1.901 0-5.912-0.469-6.742 4.953-0.829 5.421 5.705 6.776 8.039 7.037" stroke="#0F0967" stroke-linecap="round" stroke-width="3"/>
<path d="m324.5 111c1.933 0 3.5-1.567 3.5-3.5s-1.567-3.5-3.5-3.5-3.5 1.567-3.5 3.5 1.567 3.5 3.5 3.5z" fill="#0F0967"/>
<path d="m272.42 85.966 89.089-1.2558c2.18-0.0307 4.046 1.5594 4.356 3.7147l3.28 22.757c0.464 3.222 4.188 4.801 6.833 2.897l6.601-4.755c7.305-4.359 13.259-1.435 16.431 2.67 7.531 9.745-2.36 18.522-1.348 17.311l0.287-0.31c-0.135 0.137-0.229 0.24-0.287 0.31l-11.792 12.686c-1.087 1.169-1.443 2.84-0.926 4.349 0.181 27.581-4.827 57.065-12.861 79.362-0.075 1.908 1.104 3.661 2.955 4.138 30.623 11.044 78.205-0.949 89.034-23.622 1.415-1.51 1.083-3.783-0.164-5.433-8.898-11.781-24.446-49.225-31.103-101.77-5.832-46.024-37.653-65.502-63.196-71.539-66.528-15.724-100.78 48.271-101.53 53.001-0.56 3.5046 1.969 5.0096 3.596 5.4141 0.244 0.0608 0.495 0.0744 0.748 0.0708z" fill="#0F43EC"/>
<path d="m288.5 109c1.933 0 3.5-1.567 3.5-3.5s-1.567-3.5-3.5-3.5-3.5 1.567-3.5 3.5 1.567 3.5 3.5 3.5z" fill="#0F0967"/>
<path d="m317 92c2.955 4.5 10.227 6 20 6" stroke="#0F0967" stroke-linecap="round" stroke-width="3"/>
<path d="m295 91c-2.659 4.5-9.205 6-18 6" stroke="#0F0967" stroke-linecap="round" stroke-width="3"/>
<defs>
<linearGradient id="b" x1="252" x2="252" y1="481" y2="850" gradientUnits="userSpaceOnUse">
<stop stop-color="#081166" offset="0"/>
<stop stop-color="#1C22A2" offset="1"/>
</linearGradient>
<linearGradient id="a" x1="172.49" x2="297.39" y1="435.88" y2="309.94" gradientUnits="userSpaceOnUse">
<stop stop-color="#4483FD" offset="0"/>
<stop stop-color="#2F72F4" offset="1"/>
</linearGradient>
</defs>
</svg>
