<?xml version="1.0" encoding="UTF-8"?>
<svg fill="none" viewBox="0 0 477 920" xmlns="http://www.w3.org/2000/svg">
<path d="m137.34 833.29c-4.611 0.723-9.334 1.896-12.369 3.419-13.259 6.654-33.911 11.859-45.335 14.069-26.765 4.954-37.88 24.552-40.398 34.847-0.2078 0.85-0.2587 1.693-0.2222 2.486l0.5216 11.328c0.2397 5.208 4.4652 9.361 9.725 9.432 13.537 0.185 43.699 0.364 74.642-1.006 31.061-1.375 61.652-4.388 75.281-5.84 5.225-0.558 9.048-5.076 8.808-10.278l-0.565-12.267c0.018-15.752-3.394-31.825-6.143-41.608-1.306-4.647-5.874-7.335-10.498-6.81-19.611 2.226-32.527 2.31-40.687 1.506-3.307-0.325-8.129-5e-3 -12.761 0.722zm0.621 3.927c4.477-0.703 8.922-0.97 11.747-0.692 8.547 0.842 21.771 0.731 41.532-1.513 2.867-0.325 5.477 1.343 6.205 3.932 2.698 9.6 6.019 25.309 5.995 40.578v0.047l0.569 12.36c0.145 3.132-2.148 5.812-5.247 6.142-13.596 1.449-44.093 4.452-75.033 5.822-30.833 1.365-60.907 1.187-74.412 1.003-3.1183-0.042-5.6505-2.503-5.7948-5.639l-0.5216-11.328c-0.023-0.501 0.013-0.954 0.1129-1.363 2.2345-9.138 12.369-27.276 37.258-31.879l0.0162-3e-3c11.513-2.229 32.61-7.515 46.378-14.424 2.469-1.239 6.698-2.338 11.195-3.043z" clip-rule="evenodd" fill="#fff" fill-rule="evenodd"/>
<path d="m40.256 886.4-0.1282 1.961c-0.1283 1.961-0.128 1.96-0.1275 1.96l0.0238 2e-3 0.0672 4e-3 0.2621 0.015c0.2314 0.014 0.5757 0.033 1.0318 0.055 0.9123 0.046 2.2716 0.11 4.0682 0.178 3.5933 0.136 8.9358 0.292 15.95 0.371 14.028 0.16 34.74 0.017 61.514-1.194 26.773-1.212 47.276-2.927 61.096-4.34 6.91-0.707 12.148-1.339 15.664-1.794 1.758-0.228 3.085-0.411 3.974-0.538 0.446-0.064 0.781-0.113 1.006-0.147l0.255-0.039 0.088-0.012c0-1e-3 2e-3 -1e-3 -0.311-1.942l-0.314-1.94-0.017 2e-3 -0.059 0.01-0.243 0.036c-0.216 0.033-0.544 0.081-0.98 0.143-0.872 0.124-2.182 0.306-3.921 0.531-3.48 0.451-8.683 1.078-15.556 1.781-13.746 1.406-34.173 3.116-60.867 4.323-26.693 1.208-47.329 1.35-61.283 1.192-6.9772-0.08-12.284-0.235-15.842-0.37-1.779-0.068-3.1211-0.129-4.0162-0.175-0.4476-0.022-0.7834-0.041-1.0063-0.054l-0.2495-0.014-0.061-4e-3 -0.0183-1e-3z" clip-rule="evenodd" fill="#fff" fill-rule="evenodd"/>
<path d="m194 900.82-0.901-18.82-4.099 0.18 0.9 18.82 4.1-0.18z" clip-rule="evenodd" fill="#fff" fill-rule="evenodd"/>
<path d="m133 904.82-0.901-18.82-4.099 0.18 0.9 18.82 4.1-0.18z" clip-rule="evenodd" fill="#fff" fill-rule="evenodd"/>
<path d="m179 901.82-0.901-18.82-4.099 0.18 0.9 18.82 4.1-0.18z" clip-rule="evenodd" fill="#fff" fill-rule="evenodd"/>
<path d="m118 905.82-0.901-18.82-4.099 0.181 0.9 18.819 4.1-0.18z" clip-rule="evenodd" fill="#fff" fill-rule="evenodd"/>
<path d="m163 903.82-0.9-18.82-4.1 0.181 0.901 18.819 4.099-0.18z" clip-rule="evenodd" fill="#fff" fill-rule="evenodd"/>
<path d="M103 906.82L102.1 888L98 888.181L98.901 907L103 906.82Z" clip-rule="evenodd" fill="#fff" fill-rule="evenodd"/>
<path d="M72 906.819L71.099 888L67 888.18L67.901 907L72 906.819Z" clip-rule="evenodd" fill="#fff" fill-rule="evenodd"/>
<path d="m149 903.82-0.9-18.82-4.1 0.181 0.901 18.819 4.099-0.18z" clip-rule="evenodd" fill="#fff" fill-rule="evenodd"/>
<path d="M88 906.82L87.099 888L83 888.18L83.901 907L88 906.82Z" clip-rule="evenodd" fill="#fff" fill-rule="evenodd"/>
<path d="M58 906.819L57.099 888L53 888.18L53.901 907L58 906.819Z" clip-rule="evenodd" fill="#fff" fill-rule="evenodd"/>
<path d="m68.088 384.6c20.685 0.911 52.416 0 52.416 0l12.496-36.43s-24.372-14.899-31.243-17.252c-6.869-2.355-11.747-1.153-22.89-2.524s-20.384-3.546-22.099 3.902c-1.7144 7.448 13.008 9.146 13.008 9.146s-10.572 2.052-17.754-0.57c-7.1818-2.62-21.23-11.107-21.23-11.107s-10.279-4.997-13.839 1.153c-3.56 6.148 3.3659 30.446 12.323 37.016 8.957 6.569 18.127 15.755 38.812 16.666z" fill="#F1F1FC"/>
<path d="m13.992 331.27c0.9476-0.551 2.1579-0.222 2.7033 0.734 2.0234 3.547 7.0702 8.697 13.927 13.31 6.8165 4.587 15.182 8.479 23.68 9.714 1.0821 0.158 1.8329 1.171 1.6769 2.262-0.1559 1.092-1.1597 1.85-2.2418 1.692-9.2443-1.344-18.162-5.533-25.312-10.344-7.1091-4.783-12.711-10.344-15.162-14.641-0.5453-0.956-0.2193-2.177 0.7282-2.727z" clip-rule="evenodd" fill="#0F0967" fill-rule="evenodd"/>
<path d="m15.005 345.27c0.9594-0.554 2.1848-0.222 2.737 0.74 2.045 3.561 6.415 7.782 12.057 11.553 5.6049 3.746 12.257 6.908 18.671 8.477 1.0753 0.263 1.7344 1.35 1.472 2.428s-1.3468 1.739-2.4222 1.476c-6.9494-1.7-14.027-5.083-19.944-9.036-5.8796-3.93-10.823-8.565-13.308-12.893-0.5523-0.963-0.2222-2.191 0.7371-2.745z" clip-rule="evenodd" fill="#0F0967" fill-rule="evenodd"/>
<path d="m52.251 338.03c0.5349-0.965 1.7519-1.315 2.7183-0.78 3.6638 2.027 8.6677 2.65 14.52 3.021 1.0714 0.068 2.1697 0.127 3.2859 0.188 4.8019 0.26 9.9332 0.538 14.659 1.588 1.0783 0.239 1.7581 1.308 1.5186 2.386-0.2397 1.078-1.308 1.758-2.3863 1.518-4.3708-0.971-9.0832-1.228-13.862-1.489-1.1533-0.062-2.3106-0.126-3.4678-0.199-5.7814-0.367-11.652-0.995-16.204-3.514-0.9663-0.535-1.3161-1.752-0.7811-2.719z" clip-rule="evenodd" fill="#0F0967" fill-rule="evenodd"/>
<path d="m41.031 609.12c0-84.613 51.758-125.56 109.65-125.56l76.275-2.57h228.83c9.853 30.728 9.379 54.59-1e-3 74.656-28.73 61.476-117.63 46.646-228.83 46.646-60.415 0-57.207 39.577-52.439 70.966l29.22 158.1c0.81 4.38-1.813 8.633-6.137 9.671-13.093 3.141-41.652 8.963-73.48 8.963-30.502 0-51.665-2.005-61.622-3.209-3.85-0.466-6.7746-3.562-7.1885-7.426-10.434-97.392-14.721-181.93-14.275-230.24z" fill="url(#b)"/>
<path d="m301.86 241.56c27.001-31.786 71.501-45.316 106.13-52.238 6.726-1.345 13.582 1.623 17.191 7.477 68.114 110.5 53.351 226.54 37.374 278.34-1.092 3.542-4.385 5.863-8.079 5.863h-190.82c-4.85 0-8.753-3.985-8.655-8.853 0.288-14.367 0.818-42.266 0.818-53.326 0-14.706 2.266-38.75 2.412-40.286 5e-3 -0.053 9e-3 -0.106 0.013-0.159 4.917-82.76 28.397-117.97 43.612-136.82z" fill="#2F72F4"/>
<path d="m211.93 346.52c60.927-2.277 83.925-62.358 107.7-105.32 1.149-2.075 3.758-2.805 5.831-1.658l38.164 21.102c20.888 11.551 28.506 37.845 17.033 58.796l-27.796 50.755c-0.173 0.317-0.389 0.615-0.636 0.878-46.604 49.688-103.77 61.522-161.47 41.995l-68.816-23.381c-2.3-0.781-3.508-3.303-2.678-5.589l13.372-36.76c0.823-2.262 3.366-3.534 5.728-3.084 7.9 1.502 28.363 3.958 73.57 2.268z" fill="url(#a)"/>
<path d="m374.96 67.168-84.59-1.1676c-0.784-0.0109-1.477 0.5037-1.684 1.2632-2.938 10.762-7.457 30.687-8.345 44.127-0.055 0.836-0.681 1.517-1.516 1.546-4.125 0.138-10.519-0.394-9.76 8.447 0.391 4.558 3.915 7.844 10.852 7.751 0.957-0.013 1.797 0.684 1.893 1.638 1.03 10.285 4.12 26.972 16.022 37.713 18.167 16.396 50.077 29.011 96.157 0.925 0.559-0.341 0.889-0.98 0.833-1.635l-2.239-26.098c-0.042-0.488 0.124-0.972 0.456-1.332l14.502-15.675c0.332-0.359 0.498-0.844 0.456-1.333l-4.69-54.68c-0.077-0.9014-0.831-1.5925-1.731-1.5892l-26.616 0.0996z" fill="#F1F1FC"/>
<path d="m299.01 102.8c0.165 1.926 1.861 3.353 3.787 3.187 1.926-0.165 3.352-1.861 3.187-3.787s-1.861-3.3527-3.787-3.1869c-1.926 0.1659-3.352 1.8619-3.187 3.7869z" fill="#0F0967"/>
<path d="m277.42 79.878 89.089-1.254c2.181-0.0306 4.045 1.5572 4.356 3.7094l3.28 22.725c0.464 3.217 4.189 4.793 6.832 2.892l6.602-4.748c7.305-4.3533 13.259-1.433 16.432 2.666 7.531 9.731-2.36 18.496-1.349 17.285l0.288-0.308c-0.135 0.137-0.229 0.239-0.288 0.308l-11.793 12.669c-1.086 1.167-1.441 2.835-0.924 4.342l4.472 13.043c0.174 0.504 0.251 1.036 0.231 1.569l-2.539 64.636c-0.075 1.904 1.104 3.656 2.955 4.132 26.743 6.872 63.313-12.186 74.009-23.588 1.414-1.508 1.082-3.777-0.164-5.425-8.9-11.765-24.447-49.154-31.104-101.62-5.832-45.958-37.654-65.407-63.196-71.435-66.527-15.701-100.78 48.201-101.53 52.924-0.56 3.4996 1.97 5.0024 3.596 5.4063 0.244 0.0606 0.496 0.0743 0.748 0.0707z" fill="#0F43EC"/>
<path d="m320.86 131.19c0.684 0.324 1.123 1.012 1.132 1.77 0.028 2.654-0.121 7.347-2.508 12.048-2.426 4.78-7.054 9.35-15.556 11.909-1.044 0.314-2.145-0.28-2.459-1.328-0.313-1.048 0.279-2.152 1.324-2.466 7.539-2.27 11.267-6.161 13.173-9.914 1.082-2.13 1.611-4.286 1.863-6.204-7.863 5.074-16.566 6.72-23.15 5.736-1.079-0.162-1.823-1.17-1.662-2.251 0.161-1.083 1.166-1.829 2.244-1.667 6.399 0.956 15.654-1.022 23.518-7.383 0.588-0.476 1.398-0.574 2.081-0.25z" clip-rule="evenodd" fill="#0F0967" fill-rule="evenodd"/>
<path d="m94 566c0 4.418-3.5817 8-8 8-4.4182 0-8-3.582-8-8 0-4.419 3.5818-8 8-8 4.4183 0 8 3.581 8 8z" fill="#fff"/>
<path d="m261 508c0 4.418-3.581 8-8 8s-8-3.582-8-8c0-4.419 3.581-8 8-8s8 3.581 8 8z" fill="#fff"/>
<path d="m384 549c0 4.419-3.581 8-8 8-4.418 0-8-3.581-8-8 0-4.418 3.582-8 8-8 4.419 0 8 3.582 8 8z" fill="#fff"/>
<path d="m237 573c0 4.417-3.582 7.999-8 7.999-4.419 0-8-3.582-8-7.999 0-4.419 3.581-8.001 8-8.001 4.418 0 8 3.582 8 8.001z" fill="#fff"/>
<path d="m150 673c0 4.417-3.582 7.999-8 7.999-4.419 0-8-3.582-8-7.999 0-4.419 3.581-8.001 8-8.001 4.418 0 8 3.582 8 8.001z" fill="#fff"/>
<path d="m92 735c0 4.417-3.5817 7.999-8 7.999s-8-3.582-8-7.999c0-4.419 3.5817-8.001 8-8.001s8 3.582 8 8.001z" fill="#fff"/>
<path d="m166 812c0 4.418-3.582 8-8 8-4.419 0-8-3.582-8-8 0-4.419 3.581-8 8-8 4.418 0 8 3.581 8 8z" fill="#fff"/>
<path d="m119.12 387.96c0.382-1.036 1.533-1.566 2.569-1.184l68.111 25.133c36.113 11.886 70.603 13.249 96.21 4.229l0.075-0.027 0.077-0.02c24.594-6.513 45.89-25.671 62.716-47.156 16.794-21.446 28.935-44.951 35.28-59.722 0.436-1.014 1.612-1.484 2.627-1.048 1.014 0.435 1.484 1.611 1.049 2.625-6.444 14.998-18.747 38.824-35.807 60.61-17.011 21.722-38.956 41.672-64.763 48.535-26.7 9.379-62.124 7.821-98.749-4.24l-0.033-0.011-68.178-25.157c-1.037-0.383-1.566-1.532-1.184-2.567z" clip-rule="evenodd" fill="#fff" fill-rule="evenodd"/>
<defs>
<linearGradient id="b" x1="252" x2="252" y1="481" y2="850" gradientUnits="userSpaceOnUse">
<stop stop-color="#081166" offset="0"/>
<stop stop-color="#1C22A2" offset="1"/>
</linearGradient>
<linearGradient id="a" x1="142.81" x2="307.38" y1="337.52" y2="270.95" gradientUnits="userSpaceOnUse">
<stop stop-color="#4483FD" offset="0"/>
<stop stop-color="#2F72F4" offset="1"/>
</linearGradient>
</defs>
</svg>
