<svg width="477" height="920" viewBox="0 0 477 920" fill="none" xmlns="http://www.w3.org/2000/svg">
<path fill-rule="evenodd" clip-rule="evenodd" d="M137.134 833.323C132.514 834.051 127.782 835.231 124.741 836.763C111.456 843.458 90.7641 848.694 79.3176 850.918C52.5008 855.902 41.3639 875.618 38.8417 885.976C38.6335 886.831 38.5825 887.679 38.6191 888.477L39.1417 899.874C39.3819 905.113 43.6156 909.291 48.8856 909.363C62.4491 909.549 92.6694 909.729 123.673 908.351C154.794 906.967 185.444 903.936 199.1 902.475C204.335 901.914 208.165 897.369 207.925 892.135L207.359 879.794C207.377 863.946 203.958 847.776 201.204 837.933C199.895 833.258 195.318 830.554 190.685 831.082C171.036 833.322 158.095 833.406 149.919 832.597C146.606 832.27 141.775 832.592 137.134 833.323ZM137.756 837.274C142.242 836.567 146.695 836.298 149.526 836.578C158.089 837.425 171.339 837.313 191.138 835.056C194.011 834.729 196.626 836.407 197.355 839.012C200.058 848.67 203.386 864.474 203.362 879.836L203.362 879.883L203.932 892.318C204.077 895.469 201.78 898.165 198.675 898.497C185.052 899.955 154.496 902.976 123.496 904.355C92.6038 905.728 62.4712 905.549 48.9403 905.364C45.8159 905.321 43.2788 902.846 43.1342 899.691L42.6116 888.294C42.5886 887.79 42.6247 887.334 42.7248 886.923C44.9636 877.729 55.1173 859.481 80.0552 854.85L80.0714 854.847C91.6064 852.605 112.745 847.287 126.539 840.336C129.013 839.089 133.25 837.984 137.756 837.274Z" fill="white"/>
<path fill-rule="evenodd" clip-rule="evenodd" d="M40.7299 886.095L40.6018 888.091C40.4735 890.087 40.4738 890.087 40.4743 890.087L40.4981 890.088L40.5653 890.093L40.8273 890.108C41.0586 890.122 41.4028 890.141 41.8587 890.164C42.7706 890.211 44.1293 890.276 45.9252 890.345C49.5169 890.483 54.8572 890.642 61.8681 890.723C75.8897 890.886 96.5936 890.74 123.356 889.507C150.118 888.274 170.613 886.528 184.427 885.09C191.334 884.37 196.57 883.727 200.084 883.264C201.841 883.032 203.168 882.845 204.057 882.716C204.502 882.651 204.837 882.601 205.062 882.566L205.317 882.527L205.383 882.517L205.405 882.514C205.405 882.513 205.407 882.513 205.094 880.538L204.78 878.563L204.763 878.565L204.704 878.575L204.461 878.612C204.245 878.645 203.918 878.694 203.482 878.757C202.61 878.884 201.301 879.069 199.562 879.298C196.084 879.757 190.883 880.395 184.013 881.111C170.273 882.542 149.854 884.282 123.172 885.511C96.4899 886.741 75.8627 886.885 61.9144 886.724C54.9402 886.643 49.6358 886.485 46.079 886.348C44.3007 886.279 42.9592 886.216 42.0645 886.17C41.6171 886.147 41.2814 886.128 41.0586 886.115L40.8092 886.1L40.7482 886.096L40.7299 886.095Z" fill="white"/>
<path fill-rule="evenodd" clip-rule="evenodd" d="M193.536 900.677L192.658 881.535L188.666 881.718L189.543 900.86L193.536 900.677Z" fill="white"/>
<path fill-rule="evenodd" clip-rule="evenodd" d="M132.573 905.28L131.695 886.139L127.703 886.322L128.58 905.463L132.573 905.28Z" fill="white"/>
<path fill-rule="evenodd" clip-rule="evenodd" d="M178.538 902.572L177.66 883.431L173.668 883.614L174.545 902.755L178.538 902.572Z" fill="white"/>
<path fill-rule="evenodd" clip-rule="evenodd" d="M117.696 905.964L116.818 886.822L112.826 887.006L113.703 906.147L117.696 905.964Z" fill="white"/>
<path fill-rule="evenodd" clip-rule="evenodd" d="M163.176 903.875L162.299 884.733L158.306 884.917L159.184 904.058L163.176 903.875Z" fill="white"/>
<path fill-rule="evenodd" clip-rule="evenodd" d="M102.395 906.667L101.518 887.525L97.5251 887.709L98.4027 906.85L102.395 906.667Z" fill="white"/>
<path fill-rule="evenodd" clip-rule="evenodd" d="M72.2663 907.559L71.3887 888.418L67.3962 888.601L68.2738 907.743L72.2663 907.559Z" fill="white"/>
<path fill-rule="evenodd" clip-rule="evenodd" d="M148.725 904.539L147.848 885.397L143.855 885.581L144.733 904.722L148.725 904.539Z" fill="white"/>
<path fill-rule="evenodd" clip-rule="evenodd" d="M87.944 907.329L87.0664 888.188L83.0739 888.371L83.9515 907.512L87.944 907.329Z" fill="white"/>
<path fill-rule="evenodd" clip-rule="evenodd" d="M57.9479 906.902L57.0703 887.761L53.0778 887.944L53.9554 907.086L57.9479 906.902Z" fill="white"/>
<path d="M68.4196 384.646C89.0925 385.55 120.804 384.646 120.804 384.646L133.293 348.5C133.293 348.5 108.935 333.717 102.069 331.382C95.2036 329.046 90.3288 330.238 79.192 328.878C68.0551 327.518 58.8198 325.36 57.1063 332.75C55.3929 340.14 70.1071 341.824 70.1071 341.824C70.1071 341.824 59.5412 343.86 52.3638 341.259C45.1863 338.659 31.1459 330.238 31.1459 330.238C31.1459 330.238 20.8727 325.28 17.3147 331.382C13.7568 337.483 20.6786 361.591 29.6304 368.11C38.5821 374.628 47.7468 383.742 68.4196 384.646Z" fill="#F1F1FC"/>
<path fill-rule="evenodd" clip-rule="evenodd" d="M14.3941 330.969C15.3506 330.418 16.5724 330.747 17.1229 331.704C19.1654 335.256 24.2599 340.412 31.1814 345.031C38.0623 349.623 46.5064 353.52 55.0852 354.757C56.1775 354.915 56.9354 355.929 56.7779 357.022C56.6205 358.115 55.6073 358.874 54.5149 358.716C45.1833 357.37 36.1811 353.176 28.9642 348.359C21.7879 343.57 16.1331 338.002 13.659 333.7C13.1085 332.742 13.4376 331.52 14.3941 330.969Z" fill="#0F0967"/>
<path fill-rule="evenodd" clip-rule="evenodd" d="M14.7437 345.747C15.7002 345.196 16.922 345.526 17.4725 346.483C19.5115 350.028 23.8685 354.229 29.4942 357.982C35.0825 361.71 41.7151 364.858 48.1101 366.419C49.1823 366.681 49.8394 367.763 49.5778 368.836C49.3162 369.909 48.235 370.567 47.1628 370.305C40.234 368.613 33.1769 365.246 27.2774 361.311C21.4152 357.4 16.4862 352.787 14.0087 348.479C13.4581 347.521 13.7872 346.298 14.7437 345.747Z" fill="#0F0967"/>
<path fill-rule="evenodd" clip-rule="evenodd" d="M52.3592 337.781C52.8937 336.815 54.1097 336.465 55.0753 337C58.7361 339.028 63.736 339.651 69.5833 340.022C70.6538 340.09 71.7513 340.149 72.8666 340.21C77.6646 340.47 82.7918 340.748 87.5137 341.798C88.5911 342.037 89.2704 343.106 89.031 344.184C88.7915 345.262 87.7241 345.942 86.6467 345.702C82.2794 344.731 77.5708 344.474 72.7953 344.213C71.6429 344.151 70.4866 344.087 69.3303 344.014C63.5536 343.647 57.6874 343.019 53.1397 340.5C52.1741 339.965 51.8246 338.748 52.3592 337.781Z" fill="#0F0967"/>
<path d="M41.1988 609.011C41.1988 524.438 92.9945 483.515 150.924 483.515L227.254 480.946H456.253C466.113 511.66 465.638 535.51 456.252 555.567C427.501 617.014 338.539 602.191 227.254 602.191C166.796 602.191 170.006 641.749 174.777 673.123L204.018 831.147C204.829 835.525 202.204 839.776 197.877 840.813C184.775 843.953 156.195 849.772 124.344 849.772C93.8206 849.772 72.6421 847.768 62.6775 846.564C58.8248 846.099 55.8981 843.004 55.4839 839.142C45.0423 741.796 40.7522 657.294 41.1988 609.011Z" fill="url(#paint0_linear)"/>
<path d="M301.618 241.548C328.657 209.813 373.22 196.305 407.901 189.394C414.637 188.051 421.503 191.014 425.117 196.859C493.328 307.176 478.544 423.034 462.544 474.751C461.45 478.288 458.153 480.605 454.453 480.605H263.363C258.507 480.605 254.598 476.626 254.696 471.766C254.985 457.422 255.515 429.568 255.515 418.526C255.515 403.844 257.785 379.838 257.931 378.305C257.936 378.252 257.94 378.199 257.944 378.146C262.868 295.519 286.381 260.368 301.618 241.548Z" fill="#2F72F4"/>
<path d="M211.91 346.397C272.851 344.12 295.854 284.052 319.634 241.097C320.783 239.022 323.392 238.292 325.466 239.439L363.638 260.537C384.531 272.085 392.151 298.374 380.675 319.32L352.873 370.065C352.7 370.382 352.484 370.68 352.237 370.943C305.622 420.62 248.443 432.452 190.73 412.929L121.898 389.553C119.598 388.772 118.389 386.25 119.22 383.965L132.595 347.212C133.418 344.951 135.961 343.679 138.324 344.129C146.226 345.631 166.693 348.086 211.91 346.397Z" fill="url(#paint1_linear)"/>
<path d="M374.941 67.1956L290.292 66.031C289.507 66.0202 288.814 66.5334 288.607 67.291C285.667 78.0257 281.145 97.8993 280.256 111.304C280.201 112.138 279.574 112.818 278.739 112.846C274.611 112.984 268.213 112.453 268.972 121.272C269.363 125.818 272.89 129.096 279.832 129.003C280.789 128.99 281.63 129.685 281.726 130.637C282.757 140.895 285.849 157.54 297.759 168.253C315.939 184.607 347.871 197.19 393.983 169.176C394.542 168.836 394.872 168.198 394.816 167.545L392.576 141.514C392.534 141.027 392.7 140.544 393.032 140.185L407.544 124.55C407.876 124.192 408.042 123.709 408 123.221L403.307 68.6814C403.23 67.7823 402.476 67.093 401.575 67.0963L374.941 67.1956Z" fill="#F1F1FC"/>
<path d="M298.85 102.811C299.011 104.688 300.662 106.078 302.537 105.916C304.412 105.755 305.801 104.103 305.64 102.226C305.479 100.35 303.828 98.9596 301.953 99.1212C300.078 99.2828 298.689 100.935 298.85 102.811Z" fill="#0F0967"/>
<path d="M276.99 79.9958L365.926 78.7393C368.103 78.7086 369.964 80.2996 370.274 82.4561L373.549 105.226C374.012 108.45 377.73 110.029 380.369 108.124L386.959 103.367C394.252 99.0047 400.196 101.931 403.363 106.038C410.881 115.789 401.007 124.571 402.017 123.358L402.304 123.049C402.169 123.186 402.075 123.289 402.017 123.358L390.244 136.052C389.16 137.222 388.805 138.893 389.321 140.403L393.786 153.472C393.959 153.977 394.036 154.51 394.016 155.044L391.482 219.81C391.407 221.718 392.584 223.473 394.432 223.95C421.129 230.836 457.636 211.74 468.313 200.315C469.725 198.804 469.393 196.53 468.149 194.879C459.265 183.091 443.745 145.626 437.099 93.056C431.277 47.0061 399.51 27.5176 374.012 21.4773C307.599 5.74459 273.409 69.7751 272.654 74.5078C272.095 78.0144 274.62 79.5202 276.243 79.9249C276.487 79.9857 276.739 79.9994 276.99 79.9958Z" fill="#0F43EC"/>
<path fill-rule="evenodd" clip-rule="evenodd" d="M321.49 131.691C322.182 132.018 322.627 132.712 322.636 133.478C322.664 136.157 322.513 140.896 320.097 145.642C317.641 150.468 312.957 155.082 304.351 157.666C303.294 157.983 302.18 157.383 301.862 156.325C301.545 155.267 302.145 154.152 303.202 153.835C310.833 151.543 314.607 147.615 316.536 143.826C317.631 141.675 318.167 139.498 318.422 137.562C310.463 142.685 301.654 144.347 294.989 143.353C293.897 143.19 293.144 142.172 293.307 141.08C293.47 139.987 294.487 139.234 295.578 139.397C302.056 140.363 311.423 138.365 319.383 131.943C319.979 131.462 320.798 131.364 321.49 131.691Z" fill="#0F0967"/>
<path d="M94.8242 565.903C94.8242 570.451 91.1397 574.139 86.5947 574.139C82.0497 574.139 78.3652 570.451 78.3652 565.903C78.3652 561.354 82.0497 557.667 86.5947 557.667C91.1397 557.667 94.8242 561.354 94.8242 565.903Z" fill="white"/>
<path d="M261.146 508.686C261.146 513.234 257.462 516.922 252.917 516.922C248.372 516.922 244.688 513.234 244.688 508.686C244.688 504.137 248.372 500.45 252.917 500.45C257.462 500.45 261.146 504.137 261.146 508.686Z" fill="white"/>
<path d="M384.154 549.431C384.154 553.98 380.47 557.667 375.925 557.667C371.38 557.667 367.695 553.98 367.695 549.431C367.695 544.883 371.38 541.195 375.925 541.195C380.47 541.195 384.154 544.883 384.154 549.431Z" fill="white"/>
<path d="M237.758 573.705C237.758 578.253 234.073 581.94 229.528 581.94C224.983 581.94 221.299 578.253 221.299 573.705C221.299 569.156 224.983 565.469 229.528 565.469C234.073 565.469 237.758 569.156 237.758 573.705Z" fill="white"/>
<path d="M150.266 673.401C150.266 677.949 146.581 681.636 142.036 681.636C137.491 681.636 133.807 677.949 133.807 673.401C133.807 668.852 137.491 665.165 142.036 665.165C146.581 665.165 150.266 668.852 150.266 673.401Z" fill="white"/>
<path d="M92.2265 734.953C92.2265 739.501 88.5421 743.188 83.997 743.188C79.452 743.188 75.7676 739.501 75.7676 734.953C75.7676 730.404 79.452 726.717 83.997 726.717C88.5421 726.717 92.2265 730.404 92.2265 734.953Z" fill="white"/>
<path d="M166.725 812.109C166.725 816.657 163.04 820.345 158.495 820.345C153.95 820.345 150.266 816.657 150.266 812.109C150.266 807.56 153.95 803.873 158.495 803.873C163.04 803.873 166.725 807.56 166.725 812.109Z" fill="white"/>
<path fill-rule="evenodd" clip-rule="evenodd" d="M118.637 387.951C119.019 386.915 120.169 386.385 121.204 386.767L189.27 411.913C225.36 423.806 259.827 425.17 285.417 416.145L285.492 416.118L285.569 416.098C310.147 409.581 331.429 390.413 348.244 368.916C365.027 347.459 377.16 323.941 383.501 309.162C383.937 308.147 385.112 307.677 386.126 308.113C387.14 308.549 387.609 309.725 387.174 310.74C380.735 325.746 368.44 349.585 351.391 371.382C334.391 393.116 312.461 413.077 286.67 419.944C259.988 429.328 224.587 427.769 187.986 415.701L187.953 415.69L119.82 390.52C118.784 390.137 118.255 388.987 118.637 387.951Z" fill="white"/>
<defs>
<linearGradient id="paint0_linear" x1="252.319" y1="480.946" x2="252.319" y2="849.772" gradientUnits="userSpaceOnUse">
<stop stop-color="#081166"/>
<stop offset="1" stop-color="#1C22A2"/>
</linearGradient>
<linearGradient id="paint1_linear" x1="142.776" y1="337.396" x2="307.363" y2="270.79" gradientUnits="userSpaceOnUse">
<stop stop-color="#4483FD"/>
<stop offset="1" stop-color="#2F72F4"/>
</linearGradient>
</defs>
</svg>
