<?xml version="1.0" encoding="UTF-8"?>
<svg fill="none" viewBox="0 0 439 1220" xmlns="http://www.w3.org/2000/svg">
<path d="m229.64 718.24c-0.855-2.492-5.427-2.492-6.283 0-2.283 6.652-4.464 13.007-4.467 25.846v0.027c-9e-3 0.539-2.193 131.95-2.193 215.75 0 74.554-1.112 159.12-1.362 177.16-0.029 2.13-1.376 3.95-3.419 4.54-24.446 7.14-82.657 15.42-135.38-1.58-2.1067-0.68-3.4794-2.56-3.3805-4.78 1.2441-27.83 9.4643-211.58 15.806-350.29 2.4068-52.645 3.8798-92.843 5.0249-124.09 2.1273-58.055 3.1229-85.223 6.871-103.94 0.901-2.593 3.965-7.587 9.01-6.809 1.092 0.169 2.966 0.803 5.726 1.738 13.151 4.452 46.411 15.714 110.9 15.771 64.49-0.057 97.75-11.319 110.9-15.771 2.76-0.935 4.634-1.569 5.725-1.738 5.046-0.778 8.109 4.216 9.01 6.809 3.749 18.718 4.744 45.886 6.872 103.94 1.145 31.249 2.618 71.447 5.025 124.09 6.341 138.71 14.561 322.46 15.805 350.29 0.099 2.22-1.273 4.1-3.38 4.78-52.72 17-110.93 8.72-135.38 1.58-2.044-0.59-3.39-2.41-3.42-4.54-0.249-18.04-1.361-102.61-1.361-177.16 0-83.8-2.184-215.21-2.193-215.75v-0.027c-3e-3 -12.839-2.184-19.194-4.468-25.846z" clip-rule="evenodd" fill="url(#c)" fill-rule="evenodd"/>
<path d="m331 595c1 17 6 40 26 43" stroke="#fff" stroke-linecap="round" stroke-width="3"/>
<path d="m396.83 668.86c6.682-13.076 12.029-33.095 10.118-62.04l-46.967-4.241s-3.299 17.374-4.205 27.384c-0.905 10.01-3.9 29.165 5.1 30.286-0.984 27.776-6.749 32.404-4.116 37.075 2.106 3.737 8.883 3.124 12.008 2.351 14.122-0.752 21.313-18.125 28.062-30.815z" fill="#E9F0FD"/>
<path d="m332.34 233.05-51.988-21.011c-5.768 50.533 51.277 71.367 62.958 131.47 10.255 55.44 11.181 234.76 12.807 256.51 1e-3 5.376-1.373 11.378 2.501 11.628l46.882-1.3c7.181-0.497 8.562-6.608 8.354-9.602 14.243-88.117 23.085-209.81-8.272-284.67-15.045-43.578-37.25-64.021-73.242-83.029z" fill="url(#b)"/>
<path d="m357.85 373.14c-1.43-120.4-48.339-140.22-75.019-143.89-52.95-9.499-96.775-3.958-112.07 0-65.922 19.254-73.822 55.572-79.296 137.36-3.599 53.775-10.799 153.32-2.9117 198.98 2.3726 13.733 12.852 17.166 17.794 17.166 86.007 14.714 178.98 9.318 231.9 1.36 13.37-2.01 17.511-9.382 18.512-18.526 4.629-42.285 0.577-152.75 1.091-192.45z" fill="#120F8A"/>
<ellipse transform="matrix(.99972 -.023721 .023759 .99972 231.14 351.32)" rx="49" ry="48.5" fill="#59F0E7" fill-opacity=".3"/>
<ellipse transform="matrix(.99972 -.023721 .023759 .99972 231.65 351.81)" rx="42.5" ry="42" fill="#59F0E7" fill-opacity=".4"/>
<circle transform="matrix(.99972 -.023721 .023759 .99972 231.15 351.82)" r="35" fill="#59F0E7"/>
<path d="m241.14 340.7-0.147-0.184-0.115-0.109c-0.018-0.023-0.05-0.064-0.101-0.132-7e-3 -9e-3 -0.015-0.02-0.023-0.031-0.1-0.134-0.314-0.421-0.599-0.719-0.208-0.254-0.392-0.474-0.556-0.67-0.425-0.506-0.714-0.851-0.943-1.209-0.388-1.516-0.462-2.829-0.422-3.766 0.071-1.668-0.746-3.103-1.854-3.958-1.152-0.887-3.048-1.421-4.889-0.409l1.495 2.719-1.495-2.719c-2.672 1.469-5.114 3.646-6.932 6.355-0.912 1.322-1.693 2.759-2.35 4.289-0.11-0.065-0.218-0.126-0.324-0.185-1.219-0.674-2.917-0.821-4.363 0.197-1.299 0.914-1.742 2.313-1.775 3.388-0.034 1.099-0.246 2.87-0.89 4.641-0.128 0.346-0.583 1.628-1.021 3.053-0.385 1.255-0.941 3.182-1.011 4.553-0.275 3.908 0.665 6.554 1.307 7.914 1.412 3.039 4.741 7.398 10.85 9.524 6.001 2.09 11.422 0.702 13.821-0.526 6.449-2.947 8.994-8.063 9.843-10.135l0.036-0.087 0.031-0.089c1.52-4.364 1.369-9.421-0.446-13.819-0.719-1.74-2.304-2.65-3.886-2.705-0.078-0.199-0.161-0.401-0.252-0.605-0.653-1.481-1.184-2.322-2.989-4.576z" fill="#CA0D7B" stroke="#FF7EC9" stroke-width="7"/>
<path d="m235.34 364.82c-1.114 1.188-2.646 1.972-4.359 2.012-4.648 0.111-8.774-5.269-5.374-9.831 1.337-2.107 3.193-2.981 3.876-5.155 0.306-0.837 0.362-1.917 0.265-2.579-0.088-0.247-0.191-1.157-0.193-1.24s-2e-3 -0.083 0.08-0.085l0.079-0.085 0.164-4e-3 0.501 0.486c0.334 0.324 0.751 0.729 1.085 1.053 0.836 0.81 1.603 2.203 1.804 3.775 0.21 1.987-0.24 3.658-1.682 4.771 0.658 0.233 1.311 0.218 2.039-0.049 1.132-0.441 1.768-1.121 1.991-2.039 0 0-2e-3 -0.083 0.08-0.085l0.081-2e-3c0.659 0.234 1.416 1.212 1.553 3.532-0.122 1.746-0.319 3.743-1.99 5.525z" fill="#FFADDD"/>
<path d="m202.52 398.51c-5.964 6.634-19.676 25.008-19.676 25.008l9.612 39.556s45.682-14.182 52.271-16.81c6.59-2.627 17.882-8.704 24.155-13.285 6.273-4.58 18.492-15.84 20.36-18.345 1.867-2.505 4.361-4.757 2.348-8.28-2.014-3.523-4.636-2.151-4.636-2.151l10.222-10.136s5.864-4.375 2.969-9.534-9.386-1.414-9.386-1.414 6.734-5.753 7.978-7.758 1.733-5.269-1.153-7.916-5.538-0.929-6.88-0.275c-1.343 0.655-4.619 2.747-4.619 2.747s0.917-5.715-2.528-7.669c-3.445-1.955-7.25 1.482-9.247 2.73-1.997 1.249-9.229 7.88-9.229 7.88s-9.229 7.754-14.08 10.75c-4.851 2.997-12.913 6.237-14.151 4.976s14.992-12.312 17.793-15.037-0.97-8.138-6.344-6.524c-5.373 1.614-18.38 6.719-24.853 10.965-6.472 4.247-14.962 13.887-20.926 20.522z" fill="#ECF1FD"/>
<path d="m117.66 226.24c37.046-10.99 66.085-13.987 66.085-13.987-3.496 70.281-67.769 54.962-80.778 154.9-10.004 75.952 13.065 62.462 78.647 44.978 4.756-1.499 9.762-6.245 16.271 3.999 6.51 10.244 19.278 32.231 19.278 32.231s5.758 6.247-3.003 12.742c-8.761 6.496-103.63 92.935-176.58 31.967-37.051-35.98-41.419-94.107-10.025-168.9 15.061-43.537 53.062-86.942 90.108-97.932z" fill="url(#a)"/>
<path d="m166.92 79.642 125.57-1.1241c0.284 30.785-2.903 72.811-5.011 101.75s-3.468 37.953-6.704 58.515c-5.768 36.647-34.4 42.394-52.36 42.305-37.914 0.09-49.128-26.014-52.522-42.205-2.121-13.706-6.644-44.362-8.134-68.155-2.471-39.456-2.355-71.929-0.84-91.082z" fill="#E9F0FF"/>
<path d="m236.46 192.8c-4.971 0.538-9.805-0.097-13.961-1.215-4.06-1.092-8.373 2.321-5.798 5.646 4.342 5.607 11.064 7.208 14.882 7.173 4.349 0.318 8.025-1.469 10.989-4.107 3.632-3.233-1.278-8.02-6.112-7.497z" fill="#D7DDE9"/>
<path d="m212.76 174.4c6.454-5.34 22.289-12.877 34-0.304" stroke="#0F0967" stroke-linecap="round" stroke-linejoin="round" stroke-width="3"/>
<path d="m272.42 82.329c-41.063 9.8157-77.639 1.9931-87.681 0.0677-10.042-1.9253-12.602-5.1138-14.949 9.0196s-3.032 73.472-3.032 73.472c0.111 12.032-12.711-12.821-12.748-16.623l-4.39-27.274c-0.328-35.48 1.825-56.207 24.729-78.238 28.134-27.06 81.516-23.865 110.51 2.3687 17.668 15.986 18.795 53.939 18.678 69.288-0.117 15.348-3.064 32.544-3.064 32.544-2.463 13.548-13.583 28.475-12.389 17.669 1.195-10.806-0.179-61.519-1.837-72.949l-0.043-0.2991c-1.616-11.145-1.73-11.928-13.784-9.0463z" fill="#0F43EC"/>
<path d="m157.13 126.44 11.469 1.858 9.452 32.224-13.708-4.392c-11.43-3.161-14.883-11.938-15.365-18.284-0.589-7.76 3.129-11.497 8.152-11.406z" fill="#E9F0FF"/>
<path d="m297.53 125.38-11.434 2.064-8.855 32.388 13.624-4.637c11.369-3.365 14.66-12.202 15.025-18.556 0.446-7.769-3.34-11.439-8.36-11.259z" fill="#E9F0FF"/>
<path d="m212.27 103.06c0.409-0.876 0.03-1.917-0.846-2.326s-1.917-0.03-2.326 0.845l3.172 1.481zm-20.315 6.506c-0.967-0.017-1.764 0.752-1.782 1.718-0.017 0.966 0.752 1.764 1.719 1.782l0.063-3.5zm17.143-7.987c-1.114 2.388-3.68 4.435-7 5.884-3.286 1.434-7.042 2.16-10.143 2.103l-0.063 3.5c3.624 0.066 7.878-0.768 11.606-2.395 3.693-1.611 7.145-4.125 8.772-7.611l-3.172-1.481z" fill="#0F0967"/>
<path d="m246.27 102.11c-0.363-0.896 0.069-1.916 0.965-2.279 0.896-0.3627 1.916 0.0695 2.279 0.965l-3.244 1.314zm19.953 7.556c0.966 0.032 1.723 0.842 1.69 1.808-0.032 0.966-0.841 1.722-1.807 1.69l0.117-3.498zm-16.709-8.87c0.99 2.443 3.447 4.621 6.688 6.241 3.208 1.603 6.921 2.524 10.021 2.629l-0.117 3.498c-3.624-0.123-7.829-1.178-11.468-2.996-3.605-1.802-6.923-4.492-8.368-8.058l3.244-1.314z" fill="#0F0967"/>
<ellipse transform="matrix(1 -.0089519 .0092224 .99992 203.39 122.4)" rx="4.5" ry="4.5" fill="#0F0967"/>
<ellipse transform="matrix(1 -.0089517 .0092225 .99992 252.88 121.72)" rx="4.5" ry="4.5" fill="#0F0967"/>
<path d="m233.2 111.45 4.874 38.608c0.225 1.781-1.154 3.359-2.948 3.375l-14.629 0.131" stroke="#0F0967" stroke-linecap="round" stroke-width="3"/>
<path d="m362.67 660.85c2.09 0.272 6.952-1.117 9.68-8.844 2.226-7.773 3.296-19.589 8.591-26.654" stroke="#0F0967" stroke-linecap="round" stroke-width="3"/>
<path d="m123 595c-1 17-6 40-26 43" stroke="#fff" stroke-linecap="round" stroke-width="3"/>
<path d="m289 403c-5.577 5.5-10.647 8.75-18 14" stroke="#0F0967" stroke-linecap="round" stroke-width="3"/>
<path d="m288 369c-5.091 5.523-17.563 16.817-28 23" stroke="#0F0967" stroke-linecap="round" stroke-width="3"/>
<path d="m291 384c-5.357 5.819-14.286 14.169-25 21" stroke="#0F0967" stroke-linecap="round" stroke-width="3"/>
<path d="m207.86 1144.3c2.195 9.47 1.316 22.99 1.316 22.99l-0.026 19.95c-1e-3 1.03-0.404 2.02-1.191 2.69-2.488 2.12-9.036 7.03-21.126 11.94-16.027 6.5-30.3 11.25-50.583 12.75-21.035 1-34.307 1-49.331-0.75-21.452-3.61-28.536-3.3-28.024-10.14l0.249-22.18c0.5249-17.83 12.263-30.97 30.1-36.68 16.224-4.57 38.471-7.96 62.241 11.26" stroke="#fff" stroke-linecap="round" stroke-width="3"/>
<path d="m59.651 1186.4c21.299 10.26 111.38 12.99 148.78-19.21" stroke="#fff" stroke-width="3"/>
<path d="m100.74 1193.4-0.011 21.02" stroke="#fff" stroke-width="3"/>
<path d="m124.75 1194.1-0.337 20.01" stroke="#fff" stroke-width="3"/>
<path d="m146.71 1190.8 0.392 24.01" stroke="#fff" stroke-width="3"/>
<path d="m164.68 1188.6 1e-3 23.02" stroke="#fff" stroke-width="3"/>
<path d="m178.62 1183.5 0.239 22.01" stroke="#fff" stroke-width="3"/>
<path d="m190.58 1179.3 0.407 22.01" stroke="#fff" stroke-width="3"/>
<path d="m200.5 1173.2 0.745 21.99" stroke="#fff" stroke-width="3"/>
<path d="m78.727 1192.7-0.0508 20.01" stroke="#fff" stroke-width="3"/>
<path d="m249.14 1144.3c-2.195 9.47-1.316 22.99-1.316 22.99l0.026 19.95c1e-3 1.03 0.404 2.02 1.191 2.69 2.488 2.12 9.036 7.03 21.126 11.94 16.027 6.5 30.3 11.25 50.583 12.75 21.035 1 34.307 1 49.331-0.75 21.452-3.61 28.537-3.3 28.024-10.14l-0.249-22.18c-0.525-17.83-12.263-30.97-30.1-36.68-16.224-4.57-38.471-7.96-62.241 11.26" stroke="#fff" stroke-linecap="round" stroke-width="3"/>
<path d="m397.35 1186.4c-21.298 10.26-111.38 12.99-148.78-19.21" stroke="#fff" stroke-width="3"/>
<path d="m356.26 1193.4 0.011 21.02" stroke="#fff" stroke-width="3"/>
<path d="m332.25 1194.1 0.337 20.01" stroke="#fff" stroke-width="3"/>
<path d="m310.29 1190.8-0.392 24.01" stroke="#fff" stroke-width="3"/>
<path d="m292.32 1188.6-1e-3 23.02" stroke="#fff" stroke-width="3"/>
<path d="m278.38 1183.5-0.239 22.01" stroke="#fff" stroke-width="3"/>
<path d="m266.42 1179.3-0.407 22.01" stroke="#fff" stroke-width="3"/>
<path d="m256.5 1173.2-0.745 21.99" stroke="#fff" stroke-width="3"/>
<path d="m378.27 1192.7 0.051 20.01" stroke="#fff" stroke-width="3"/>
<defs>
<linearGradient id="c" x1="189.93" x2="189.93" y1="550" y2="1149.9" gradientUnits="userSpaceOnUse">
<stop stop-color="#0B2CED" offset="0"/>
<stop stop-color="#0F0B6C" offset="1"/>
</linearGradient>
<linearGradient id="b" x1="354.51" x2="369.15" y1="382.34" y2="660.82" gradientUnits="userSpaceOnUse">
<stop stop-color="#120F8A" offset="0"/>
<stop stop-color="#0339C6" offset="1"/>
</linearGradient>
<linearGradient id="a" x1="122.99" x2="177.84" y1="326.18" y2="588.08" gradientUnits="userSpaceOnUse">
<stop stop-color="#120F8A" offset="0"/>
<stop stop-color="#0339C6" offset="1"/>
</linearGradient>
</defs>
</svg>
