<?xml version="1.0" encoding="UTF-8"?>
<svg fill="none" viewBox="0 0 561 1025" xmlns="http://www.w3.org/2000/svg">
<path d="m351.9 929.99c4.544 0.701 8.822 1.923 11.838 3.588 15.664 8.646 42.773 15.993 57.143 18.838 31.973 6.056 45.176 29.207 48.022 41.416 0.198 0.846-0.108 2.198-0.147 2.996l-0.737 14.982c-0.258 5.23-4.213 9.48-9.481 9.54-15.393 0.18-52.905 0.34-91.037-1.48-38.262-1.83-76.257-5.8-91.741-7.53-5.23-0.58-8.754-5.21-8.497-10.43l0.786-15.983c0.043-19.542 4.125-39.111 7.501-50.692 1.353-4.643 6.746-8.004 11.38-7.448 26.385 3.165 42.268 2.813 51.986 1.563 3.322-0.428 8.415-0.065 12.984 0.64zm-0.197 3.995c-4.384-0.676-9.184-0.951-11.985-0.591-10.184 1.311-27.447 1.522-53.984-1.661-2.863-0.344-5.429 1.091-6.189 3.699-3.321 11.391-7.466 31.648-7.501 50.692l-0.786 15.976c-0.155 3.16 2.6 5.95 5.698 6.29 15.451 1.73 52.603 5.66 90.742 7.48 38.017 1.82 74.677 1.61 90.038 1.44 3.121-0.04 6.132-2.54 6.288-5.7l0.737-14.979c0.024-0.501 0.196-1.578 0.098-1.998-2.573-11.036-15.088-32.576-45.173-38.271-14.428-2.856-40.901-9.873-57.144-18.838-2.39-1.32-6.43-2.858-10.839-3.539z" clip-rule="evenodd" fill="#fff" fill-rule="evenodd"/>
<path d="m466.76 994.7-0.099 1.997c0.12 2.041-0.097 1.998-0.098 1.998-0.275 0.016-1.454-0.126-1.997-0.099-1.088 0.055-1.902 0.723-4.045 0.802-4.285 0.159-10.66-0.017-19.026 0.063-16.732 0.16-42.075-0.068-74.008-1.648s-56.338-3.798-72.813-5.594c-8.238-0.897-14.739-1.359-18.928-1.935-2.095-0.287-2.887-1.035-3.946-1.195-0.53-0.08-1.73-0.057-1.998-0.099 0 0-0.224 0.021 0.099-1.997l0.098-1.998 0.999 0.049c0.259 0.041 0.478-0.029 0.998 0.049 1.042 0.158 2.869 0.96 4.945 1.246 4.154 0.57 9.728 0.991 17.929 1.885 16.402 1.788 40.96 4.018 72.813 5.594s56.351 1.758 73.01 1.599c8.329-0.08 14.776 0.095 19.026-0.063 2.125-0.079 3.973-0.699 5.043-0.753 0.535-0.027 0.732 0.065 0.999 0.05l0.999 0.049z" clip-rule="evenodd" fill="#fff" fill-rule="evenodd"/>
<path d="m284.87 1011 1.13-22.97 3.995 0.197-1.13 22.973-3.995-0.2z" clip-rule="evenodd" fill="#fff" fill-rule="evenodd"/>
<path d="m356.87 1017 1.13-22.97 3.995 0.197-1.13 22.973-3.995-0.2z" clip-rule="evenodd" fill="#fff" fill-rule="evenodd"/>
<path d="m302.87 1013 1.13-22.97 3.995 0.197-1.13 22.973-3.995-0.2z" clip-rule="evenodd" fill="#fff" fill-rule="evenodd"/>
<path d="m374.87 1018 1.13-22.97 3.995 0.197-1.13 22.973-3.995-0.2z" clip-rule="evenodd" fill="#fff" fill-rule="evenodd"/>
<path d="m320.87 1015 1.13-22.97 3.995 0.197-1.13 22.973-3.995-0.2z" clip-rule="evenodd" fill="#fff" fill-rule="evenodd"/>
<path d="m392.87 1018 1.13-22.97 3.995 0.197-1.13 22.973-3.995-0.2z" clip-rule="evenodd" fill="#fff" fill-rule="evenodd"/>
<path d="m428.87 1020 1.13-22.97 3.995 0.197-1.13 22.973-3.995-0.2z" clip-rule="evenodd" fill="#fff" fill-rule="evenodd"/>
<path d="m337.87 1016 1.13-22.97 3.995 0.197-1.13 22.973-3.995-0.2z" clip-rule="evenodd" fill="#fff" fill-rule="evenodd"/>
<path d="m410.87 1019 1.13-22.97 3.995 0.197-1.13 22.973-3.995-0.2z" clip-rule="evenodd" fill="#fff" fill-rule="evenodd"/>
<path d="m446.87 1019 1.13-22.97 3.995 0.197-1.13 22.973-3.995-0.2z" clip-rule="evenodd" fill="#fff" fill-rule="evenodd"/>
<ellipse cx="160" cy="375.5" rx="49" ry="48.5" fill="#59F0E7" fill-opacity=".3"/>
<ellipse cx="160.5" cy="376" rx="42.5" ry="42" fill="#59F0E7" fill-opacity=".4"/>
<circle cx="160" cy="376" r="35" fill="#59F0E7"/>
<mask id="b" x="137.935" y="349" width="45" height="54" fill="black" maskUnits="userSpaceOnUse">
<rect x="137.94" y="349" width="45" height="54" fill="#fff"/>
<path d="m170 371c1.044 2.525 0.726 3.241 0.951 3.881 0.017 0.049 0.019 0.139 0.019 0.17v-0.01c1e-3 -0.023 0.04-0.046 0.06-0.056 0.316-0.169 0.654-0.575 0.96-1.039 0.472-0.716 1.63-0.758 1.928 0.046 1.413 3.814 1.403 8.488 0.082 12.008-0.729 1.665-2.584 5.71-8 8-1.632 0.817-6.001 1.876-11 0-5-1.874-7.959-5.606-9-8-0.417-0.937-1.313-2.773-1-6 0.104-1.665 1.792-6.48 2-7 0.829-2.118 1.009-3.792 1.025-4.948 7e-3 -0.573 0.439-0.923 0.949-0.663 0.341 0.173 0.714 0.388 1.026 0.611 0.452 0.339 0.873 0.558 1.262 0.749 0.767 0.376 2.092-0.018 2.394-0.816 0.859-2.265 2.052-4.157 3.344-5.933 1.537-2.183 3.151-3.968 5.162-5.143 0.716-0.419 1.712 0.336 1.808 1.16 0.144 1.237 0.49 2.899 1.003 4.881 0.018 0.067 0.042 0.134 0.074 0.196 0.519 1.008 1.246 1.997 1.953 2.906 0.312 0.312-0.313 0.688 0 1 1.666 2.186 2.547 2.903 3 4z"/>
</mask>
<path d="m170 371c1.044 2.525 0.726 3.241 0.951 3.881 0.017 0.049 0.019 0.139 0.019 0.17v-0.01c1e-3 -0.023 0.04-0.046 0.06-0.056 0.316-0.169 0.654-0.575 0.96-1.039 0.472-0.716 1.63-0.758 1.928 0.046 1.413 3.814 1.403 8.488 0.082 12.008-0.729 1.665-2.584 5.71-8 8-1.632 0.817-6.001 1.876-11 0-5-1.874-7.959-5.606-9-8-0.417-0.937-1.313-2.773-1-6 0.104-1.665 1.792-6.48 2-7 0.829-2.118 1.009-3.792 1.025-4.948 7e-3 -0.573 0.439-0.923 0.949-0.663 0.341 0.173 0.714 0.388 1.026 0.611 0.452 0.339 0.873 0.558 1.262 0.749 0.767 0.376 2.092-0.018 2.394-0.816 0.859-2.265 2.052-4.157 3.344-5.933 1.537-2.183 3.151-3.968 5.162-5.143 0.716-0.419 1.712 0.336 1.808 1.16 0.144 1.237 0.49 2.899 1.003 4.881 0.018 0.067 0.042 0.134 0.074 0.196 0.519 1.008 1.246 1.997 1.953 2.906 0.312 0.312-0.313 0.688 0 1 1.666 2.186 2.547 2.903 3 4z" fill="#CA0D7B"/>
<path d="m170.97 375.05 3.499 0.025-6.998-0.129 3.499 0.104zm-3.499-0.104c0 0.013-1e-3 0.032-1e-3 0.054 0 8e-3 -1e-3 0.034-1e-3 0.066 0 0 0 0.068 4e-3 0.15 1e-3 0.024 3e-3 0.078 9e-3 0.148 3e-3 0.034 9e-3 0.095 0.019 0.17 8e-3 0.053 0.031 0.221 0.087 0.431 0.026 0.098 0.089 0.32 0.214 0.584 0.062 0.133 0.42 0.927 1.325 1.487 0.471 0.245 1.578 0.515 2.192 0.507 0.558-0.102 1.477-0.497 1.834-0.747 0.648-0.517 0.926-1.124 0.985-1.25 0.177-0.376 0.242-0.701 0.251-0.74 0.024-0.108 0.037-0.194 0.043-0.236 0.021-0.142 0.028-0.258 0.028-0.26 3e-3 -0.032 4e-3 -0.058 5e-3 -0.07 1e-3 -0.027 2e-3 -0.048 2e-3 -0.057 1e-3 -0.021 1e-3 -0.038 2e-3 -0.048v-0.06l-6.999-0.05v-0.045c0-8e-3 1e-3 -0.024 2e-3 -0.044 0-8e-3 1e-3 -0.029 2e-3 -0.055 1e-3 -0.012 2e-3 -0.038 4e-3 -0.07 0-2e-3 8e-3 -0.118 0.029-0.259 6e-3 -0.042 0.019-0.129 0.043-0.237 8e-3 -0.039 0.074-0.364 0.25-0.74 0.059-0.126 0.338-0.732 0.986-1.25 0.357-0.25 1.276-0.645 1.834-0.747 0.613-7e-3 1.721 0.263 2.192 0.507 0.904 0.56 1.263 1.354 1.325 1.487 0.124 0.265 0.187 0.486 0.214 0.584 0.056 0.21 0.079 0.379 0.086 0.431 0.01 0.075 0.016 0.136 0.019 0.17 6e-3 0.07 9e-3 0.124 0.01 0.148 2e-3 0.051 3e-3 0.092 3e-3 0.105v0.044 0.062c0 0.019-1e-3 0.032-1e-3 0.038l-6.997-0.208zm3.48-0.066-6.603 2.322 6.603-2.322zm-0.951-3.881 6.469-2.674-6.469 2.674zm-3-4 5.567-4.244-0.286-0.375-0.333-0.332-4.948 4.951zm0-1-5.524 4.299 0.268 0.344 0.308 0.308 4.948-4.951zm-1.953-2.906 6.226-3.2-6.226 3.2zm-2.885-6.237 3.532 6.043-3.532-6.043zm-5.162 5.143 5.66 4.119 0.032-0.044 0.031-0.045-5.723-4.03zm-3.344 5.933 6.546 2.482-6.546-2.482zm-2.394 0.816 3.085-6.284-3.085 6.284zm-1.262-0.749 4.198-5.601-0.065-0.049-0.066-0.047-4.067 5.697zm-1.026-0.611 3.172-6.24-3.172 6.24zm-1.974 5.611 6.499 2.601 0.01-0.024 9e-3 -0.025-6.518-2.552zm-2 7 6.967 0.675 0.012-0.119 7e-3 -0.119-6.986-0.437zm1 6 6.419-2.793-0.012-0.026-0.011-0.026-6.396 2.845zm9 8 2.46-6.554-4e-3 -1e-3 -2.456 6.555zm11 0-2.726-6.447-0.206 0.087-0.201 0.1 3.133 6.26zm8-8 6.412 2.807 0.076-0.172 0.066-0.176-6.554-2.459zm-0.082-12.008 6.564-2.432-6.564 2.432zm-25.893-5.94 6.999 0.094-6.999-0.094zm15.945-10.035 6.953-0.808-6.953 0.808zm1.003 4.881-6.776 1.756 6.776-1.756zm7.017 11.048 5.843 3.854-5.843-3.854zm-0.96 1.039 3.295 6.175h1e-3l-3.296-6.175zm-0.06 0.056 6.995 0.25v-2e-3l-6.995-0.248zm0 0.01-7-0.05 13.996 0.257-6.996-0.207zm6.584-2.493c0.246 0.699 0.28 1.256 0.27 1.157-1e-3 -0.014-3e-3 -0.034-8e-3 -0.094-4e-3 -0.051-0.011-0.132-0.019-0.22-0.016-0.184-0.041-0.426-0.08-0.709-0.17-1.233-0.526-2.62-1.248-4.366l-12.938 5.348c0.168 0.408 0.248 0.66 0.283 0.787 0.018 0.064 0.026 0.102 0.03 0.118 3e-3 0.015 4e-3 0.021 4e-3 0.024 0.011 0.081-4e-3 -0.027 0.036 0.401 0.027 0.293 0.105 1.181 0.464 2.199l13.206-4.645zm-1.085-4.232c-0.648-1.568-1.556-2.693-2.108-3.364-0.626-0.762-1.065-1.249-1.794-2.206l-11.134 8.488c0.937 1.229 1.772 2.193 2.116 2.611 0.418 0.508 0.177 0.29-0.018-0.181l12.938-5.348zm-4.521-6.277c0.312 0.312 0.629 0.691 0.916 1.144 0.29 0.457 0.53 0.959 0.708 1.497 0.362 1.102 0.382 2.109 0.293 2.874-0.083 0.72-0.267 1.256-0.358 1.501-0.05 0.135-0.093 0.236-0.114 0.284-0.019 0.044-0.034 0.078-0.02 0.046 5e-3 -0.011 0.04-0.088 0.078-0.174 0.04-0.092 0.1-0.236 0.166-0.413 0.123-0.331 0.331-0.952 0.424-1.756 0.099-0.849 0.074-1.939-0.316-3.122-0.19-0.579-0.45-1.122-0.765-1.618-0.312-0.494-0.661-0.912-1.012-1.263l-9.896 9.902c-0.312-0.312-0.629-0.691-0.916-1.144-0.29-0.457-0.53-0.959-0.708-1.497-0.363-1.102-0.382-2.109-0.293-2.874 0.083-0.72 0.267-1.256 0.358-1.501 0.049-0.135 0.093-0.236 0.114-0.284 0.018-0.044 0.034-0.078 0.02-0.046-6e-3 0.011-0.041 0.088-0.078 0.174-0.04 0.092-0.101 0.236-0.166 0.413-0.123 0.331-0.331 0.952-0.424 1.756-0.099 0.849-0.074 1.939 0.315 3.122 0.191 0.579 0.451 1.122 0.765 1.618 0.313 0.494 0.662 0.912 1.013 1.263l9.896-9.902zm0.576-0.348c-0.675-0.867-1.052-1.421-1.251-1.807l-12.452 6.399c0.838 1.631 1.915 3.056 2.655 4.006l11.048-8.598zm-13.894-10.887c-3.264 1.907-5.568 4.62-7.353 7.156l11.446 8.06c1.29-1.831 2.212-2.686 2.971-3.13l-7.064-12.086zm-7.29 7.067c-1.477 2.03-3.061 4.491-4.229 7.57l13.091 4.964c0.55-1.451 1.35-2.774 2.458-4.296l-11.32-8.238zm3.007 4.584c-0.148-0.073-0.191-0.097-0.205-0.105-4e-3 -2e-3 0.021 0.012 0.056 0.039l-8.396 11.202c0.981 0.735 1.869 1.182 2.376 1.431l6.169-12.567zm-0.28-0.162c-0.678-0.484-1.372-0.875-1.921-1.154l-6.344 12.48c0.05 0.025 0.098 0.052 0.136 0.074 0.017 0.01 0.027 0.016 0.028 0.017 2e-3 2e-3 -9e-3 -6e-3 -0.033-0.023l8.134-11.394zm-13.566 8.096c-0.204 0.51-0.741 2.044-1.222 3.586-0.251 0.803-0.518 1.708-0.737 2.569-0.185 0.73-0.458 1.889-0.528 3.009l13.972 0.874c-0.018 0.287-0.041 0.22 0.126-0.438 0.133-0.526 0.321-1.169 0.531-1.843 0.207-0.663 0.42-1.302 0.591-1.803 0.194-0.562 0.286-0.805 0.265-0.752l-12.998-5.202zm-2.468 8.926c-0.49 5.056 1.006 8.249 1.571 9.52l12.792-5.69c-0.237-0.533-0.3-0.671-0.366-0.942-0.058-0.241-0.142-0.722-0.063-1.538l-13.934-1.35zm1.548 9.468c1.731 3.978 6.035 9.166 12.963 11.762l4.912-13.11c-3.071-1.151-4.685-3.428-5.037-4.238l-12.838 5.586zm29.145 11.654c7.914-3.345 10.722-9.438 11.686-11.64l-12.824-5.614c-0.495 1.128-1.396 3.126-4.314 4.36l5.452 12.894zm11.828-11.988c1.934-5.155 1.904-11.566-0.072-16.899l-13.128 4.865c0.851 2.294 0.8 5.23 0.092 7.116l13.108 4.918zm-17.687-0.719c0.128-0.064-0.449 0.208-1.586 0.286-1.044 0.072-2.369-0.035-3.821-0.58l-4.92 13.108c6.977 2.618 13.371 1.318 16.592-0.294l-6.265-12.52zm-21.842-19.783c-6e-3 0.447-0.066 1.271-0.543 2.491l13.036 5.104c1.181-3.015 1.481-5.539 1.506-7.406l-13.999-0.189zm15.992-9.132c0.198 1.708 0.636 3.729 1.18 5.829l13.552-3.512c-0.483-1.864-0.737-3.166-0.826-3.933l-13.906 1.616zm9.129 11.267c-0.034 0.051 0.017-0.034 0.16-0.194 0.077-0.085 0.216-0.232 0.421-0.407 0.197-0.168 0.533-0.429 1.007-0.682l6.592 12.351c2.026-1.081 3.192-2.881 3.507-3.36l-11.687-7.708zm-19.035-4.641c0.887-2.339 2.723-3.121 3.358-3.327 0.692-0.225 2.155-0.505 3.878 0.341l-6.169 12.567c2.489 1.222 4.997 0.934 6.62 0.406 1.564-0.509 4.214-1.886 5.404-5.023l-13.091-4.964zm18.583-2.551c-2.779 1.625-5.347 0.532-6.344-0.149-1.003-0.685-2.106-1.967-2.333-3.926l13.906-1.616c-0.323-2.783-1.972-4.854-3.676-6.018-1.698-1.16-5.122-2.421-8.617-0.377l7.064 12.086zm-1.72 11.891c0 0.019-1e-3 0.036-1e-3 0.052l13.993 0.415c0 0.011 0 0.022-1e-3 0.033l-13.991-0.5zm13.995 0.309c1e-3 -0.133 0-0.37-0.022-0.661-0.01-0.129-0.061-0.939-0.393-1.881l-13.206 4.645c-0.186-0.527-0.264-0.958-0.297-1.159-0.037-0.234-0.055-0.422-0.064-0.538-0.017-0.225-0.018-0.403-0.017-0.505l13.999 0.099zm-6.696-15.206c0.222 0.43 0.374 0.853 0.476 1.247l-13.552 3.513c0.138 0.53 0.339 1.085 0.624 1.639l12.452-6.399zm6.692 15.395c-0.069 1.965-0.931 3.323-1.381 3.926-0.486 0.649-0.976 1.066-1.226 1.266-0.503 0.401-0.947 0.634-1.033 0.679l-6.591-12.351c-0.106 0.056-0.579 0.306-1.107 0.727-0.262 0.209-0.764 0.637-1.257 1.297-0.459 0.614-1.326 1.983-1.396 3.959l13.991 0.497zm-25.819-14.14c-2.264-1.151-5.377-1.291-7.975 0.615-2.346 1.72-3.12 4.262-3.146 6.193l13.999 0.189c-0.018 1.359-0.573 3.44-2.573 4.907-2.253 1.652-4.896 1.467-6.649 0.576l6.344-12.48zm28.336 10.411c-1.367-3.687-4.768-5.157-7.452-5.161-2.532-4e-3 -5.239 1.198-6.884 3.693l11.687 7.708c-1.173 1.778-3.064 2.602-4.824 2.599-1.913-3e-3 -4.586-1.091-5.655-3.974l13.128-4.865z" fill="#FF7EC9" mask="url(#b)"/>
<path d="m164 389c-1.142 1.162-3.287 2-5 2-4.65 0-8.508-5.52-5-10 1.387-2.074 3.266-2.843 4-5 0.326-0.83 1.081-2.336 1-3-0.082-0.249-1-0.917-1-1s0.918 0 1 0c0.081 0-0.082 0 0 0 0.163 0.166-0.163-0.166 0 0 0.326 0.332 0.674 1.668 1 2 0.816 0.83 1.837 1.424 2 3 0.163 1.991-0.532 3.921-2 5 0.652 0.249 1.266 0.249 2 0 1.142-0.415 1.755-1.087 2-2 0 0-0.082 0 0 0h1c0.652 0.249 0.918 1.677 1 4-0.163 1.742-0.287 3.258-2 5z" fill="#FFADDD"/>
<path d="m352.9 929.99c4.544 0.701 8.822 1.923 11.838 3.587 15.664 8.646 42.773 15.993 57.143 18.837 31.972 6.055 45.176 29.206 48.022 41.415 0.197 0.847-0.109 2.198-0.148 2.996l-0.737 14.986c-0.258 5.23-4.214 9.48-9.481 9.54-15.393 0.18-52.905 0.34-91.037-1.48-38.263-1.84-76.258-5.8-91.741-7.53-5.231-0.58-8.755-5.21-8.498-10.43l0.787-15.983c0.044-19.543 4.125-39.111 7.502-50.692 1.353-4.643 6.746-8.004 11.38-7.449 26.385 3.165 42.268 2.813 51.986 1.562 3.322-0.427 8.415-0.064 12.984 0.641zm-0.197 3.995c-4.384-0.677-9.184-0.952-11.985-0.591-10.184 1.311-27.447 1.522-53.984-1.661-2.863-0.343-5.429 1.092-6.189 3.7-3.321 11.391-7.466 31.648-7.502 50.692l-0.786 15.976c-0.156 3.16 2.599 5.95 5.697 6.29 15.451 1.73 52.604 5.66 90.742 7.48 38.018 1.82 74.678 1.61 90.039 1.44 3.121-0.04 6.132-2.55 6.287-5.7l0.738-14.983c0.025-0.501 0.196-1.578 0.098-1.997-2.572-11.037-15.088-32.577-45.173-38.271-14.427-2.855-40.9-9.872-57.143-18.837-2.39-1.32-6.43-2.858-10.839-3.538z" clip-rule="evenodd" fill="#fff" fill-rule="evenodd"/>
<path d="m467.76 994.7-0.098 1.998c0.119 2.04-0.098 1.997-0.099 1.997-0.275 0.016-1.454-0.126-1.997-0.098-1.088 0.055-1.902 0.722-4.045 0.802-4.285 0.159-10.66-0.017-19.026 0.063-16.732 0.16-42.075-0.067-74.008-1.647-31.933-1.579-56.338-3.797-72.813-5.592-8.238-0.898-14.739-1.359-18.928-1.935-2.095-0.287-2.887-1.035-3.946-1.195-0.53-0.081-1.73-0.057-1.998-0.099 0 0-0.224 0.021 0.099-1.997l0.098-1.998 0.999 0.049c0.259 0.041 0.478-0.029 0.998 0.049 1.042 0.158 2.869 0.96 4.945 1.245 4.154 0.571 9.728 0.992 17.929 1.886 16.402 1.787 40.96 4.017 72.813 5.592 31.853 1.576 56.351 1.757 73.01 1.597 8.33-0.079 14.776 0.095 19.026-0.063 2.125-0.079 3.973-0.698 5.043-0.752 0.535-0.027 0.732 0.064 0.999 0.049l0.999 0.049z" clip-rule="evenodd" fill="#fff" fill-rule="evenodd"/>
<path d="m285.87 1011 1.131-22.97 3.995 0.197-1.131 22.973-3.995-0.2z" clip-rule="evenodd" fill="#fff" fill-rule="evenodd"/>
<path d="m357.87 1017 1.131-22.97 3.995 0.197-1.131 22.973-3.995-0.2z" clip-rule="evenodd" fill="#fff" fill-rule="evenodd"/>
<path d="m303.87 1013 1.131-22.97 3.995 0.197-1.131 22.973-3.995-0.2z" clip-rule="evenodd" fill="#fff" fill-rule="evenodd"/>
<path d="m375.87 1018 1.131-22.97 3.995 0.197-1.131 22.973-3.995-0.2z" clip-rule="evenodd" fill="#fff" fill-rule="evenodd"/>
<path d="m321.87 1015 1.131-22.97 3.995 0.197-1.131 22.973-3.995-0.2z" clip-rule="evenodd" fill="#fff" fill-rule="evenodd"/>
<path d="m393.87 1018 1.131-22.97 3.995 0.197-1.131 22.973-3.995-0.2z" clip-rule="evenodd" fill="#fff" fill-rule="evenodd"/>
<path d="m429.87 1020 1.131-22.97 3.995 0.197-1.131 22.973-3.995-0.2z" clip-rule="evenodd" fill="#fff" fill-rule="evenodd"/>
<path d="m338.87 1016 1.131-22.97 3.995 0.197-1.131 22.973-3.995-0.2z" clip-rule="evenodd" fill="#fff" fill-rule="evenodd"/>
<path d="m411.87 1019 1.131-22.97 3.995 0.197-1.131 22.973-3.995-0.2z" clip-rule="evenodd" fill="#fff" fill-rule="evenodd"/>
<path d="m447.87 1019 1.131-22.97 3.995 0.197-1.131 22.973-3.995-0.2z" clip-rule="evenodd" fill="#fff" fill-rule="evenodd"/>
<path d="m398.31 38.713 85.671 53.959c0.624 0.3917 0.401 0.6852 0.217 1.397l-15.699 60.369c-1.261 4.864-6.422 8.517-11.126 6.731l-11.46-4.661c-0.757-0.288-2.369-0.254-2.796 0.433-27.067 43.477-56.146 73.475-73.535 93.651-0.997 1.157-2.853 0.555-3.012-0.964-2.12-20.28-13.385-63.762-54.751-113.11-0.501-0.598-0.086-1.576 0.374-2.204l25.404-34.693c0.282-0.3839 0.687-0.3405 0.591-0.8068l-6.693-24.712c-0.095-0.4664 0.093-1.8199 0.375-2.2038l38.244-48.842c0.519-0.7087 1.455-0.0855 2.205 0.3735l25.991 15.284z" fill="#F1F1FC"/>
<path d="m485.3 108.94-87.07-53.742c-1.799-1.128-4.243-0.7698-5.592 0.8666l-18.157 21.411c-2.014 2.4437-5.374 1.7953-6.616-1.1205l-4.312-9.3456c-4.575-8.6075-12.158-10.106-17.701-7.9859-13.162 5.0349-8.314 20.283-8.587 18.497l-0.807-0.5901c0.051 0.2145 0.791 0.4876 0.807 0.5901l3.838 20.148c0.317 1.5253-0.359 2.8212-1.556 3.8172l-9.511 7.912c-1.874 1.559-4.763 1.673-5.809-0.531-5.122-10.791-3.515-26.911-3.207-34.551 1.371-33.946 39.156-90.409 106.04-68.647 66.887 21.762 67.883 96.312 65.819 101.38-1.547 3.799-4.955 3.072-6.774 2.48-0.233-0.076-0.6-0.46-0.807-0.59z" fill="#0F43EC"/>
<path d="m450.1 117.95c-1.305 1.782-3.809 2.17-5.592 0.866-1.784-1.304-2.171-3.805-0.866-5.588 1.305-1.782 3.809-2.17 5.592-0.866 1.784 1.303 2.171 3.805 0.866 5.588z" fill="#0F0967"/>
<path d="m422 715c0-82.383-29.986-119.98-91-167l-52-36-196-91c-20.505 26.51-39.533 62.778-29 100 22.505 79.53 108.5 98.984 210 143 38.532 24.009 32.642 83.438 28 114l-28 154c-0.788 4.265 1.789 7.99 6 9 12.75 3.058 40.005 9 71 9 29.704 0 50.303-1.828 60-3 3.749-0.453 6.597-3.239 7-7 10.161-94.825 14.435-177.97 14-225z" fill="url(#d)"/>
<path d="m379.43 253.44c-6.954-44.865-42.394-99.171-72.141-124.83-5.615-4.843-13.334-3.029-20.13 0.099-111.82 27.785-171.01 147.9-206.26 286.27-0.7935 3.692-0.6463 8.603 2.7307 10.27l192.32 91.599c4.172 2.06 8.641-1.683 10.709-5.865 4.874-24.332 31.114-80.42 42.874-113.78 21.904-62.134 53.346-117.35 49.894-143.77z" fill="#120F8A"/>
<path d="m327.77 502.29-32.373-23.183-31.626 30.607c16.161 21.679 20.704 26.52 36.801 36.795 9.3 5.935 13.874 6.337 19.869 17.039l15.87 28.91c4.364 8.095 8.379 11.775 13.074 9.702 4.695-2.072 3.773-6.491 3.835-7.632l-1.819-7.852 6.794 7.337c6.634 4.264 11.886-1.372 11.529-5.212 4.012-3.711 2.521-8.617 1.851-11.246-3.686-14.464-8.053-24.495-16.166-39.532l-7.365-10.896c-3.208-8.298-15.307-21.487-20.274-24.837z" fill="#F1F1FC"/>
<path d="m340.53 534.36c0.871-0.695 2.141-0.753 2.827 0.109 9.793 12.316 15.612 21.369 19.376 29.754 2.796 6.226 3.894 12.335 5.678 17.904 0.602 1.881 1.972 3.87 2.608 5.76 0.352 1.046-0.471 2.407-1.523 2.771-1.051 0.363-2.42-0.477-2.772-1.523-0.673-1.996-0.581-3.788-1.195-5.705-1.767-5.513-3.715-11.219-6.412-17.225-3.609-8.04-9.076-16.921-18.697-29.02-0.685-0.862-0.762-2.131 0.11-2.825z" clip-rule="evenodd" fill="#060D34" fill-rule="evenodd"/>
<path d="m330.53 545.36c0.918-0.619 2.217-0.802 2.827 0.109 5.991 8.94 10.016 15.923 13.261 23.15 0.014 0.031-0.012-0.032 0 0l7.091 17.959c0.397 1.023-0.494 2.365-1.523 2.771-1.028 0.405-2.376-0.499-2.772-1.523l-6.412-17.225c-3.136-6.978-6.707-13.651-12.582-22.416-0.61-0.911-0.808-2.207 0.11-2.825z" clip-rule="evenodd" fill="#060D34" fill-rule="evenodd"/>
<path d="m282.65 360.56c8.829-18.729 27.115-41.964 51.97-78.995 16.591-21.952 29.088-44.128-8.034-75.898-29.697-25.415-62.609-0.731-75.201 9.265-67.548 53.62-84.467 108.18-89.29 135.07-8.494 47.349 26.127 105.47 99.755 162.06 1.806 1.388 4.34 1.373 6.127-0.039l33.849-26.758c1.758-1.389 2.377-3.776 1.517-5.845-12.981-31.226-27.012-66.501-26.298-98.616 0.195-8.762 2.073-12.745 5.572-20.168l0.033-0.07z" fill="url(#c)"/>
<path d="m457.49 108.47c0.908-0.333 1.374-1.338 1.041-2.245-0.333-0.908-1.339-1.374-2.246-1.041l1.205 3.286zm-18.996-9.7074c-0.673-0.6938-1.781-0.7107-2.475-0.0378-0.694 0.6728-0.711 1.7812-0.038 2.4742l2.513-2.4364zm17.791 6.4214c-2.474 0.908-5.737 0.551-9.114-0.763-3.342-1.299-6.518-3.432-8.677-5.6584l-2.513 2.4364c2.524 2.603 6.13 5.01 9.921 6.484 3.755 1.461 7.976 2.113 11.588 0.787l-1.205-3.286z" fill="#0F0967"/>
<path d="m432 155.94c-1.01 0.496-2.445-0.157-2.937-1.173-6.098-12.58-18.083-15.539-23.144-15.372-1.123 0.037-1.844-0.983-1.88-2.113s0.991-1.843 2.113-1.88c6.167-0.204 20.026 3.172 27.021 17.601 0.492 1.016-0.164 2.441-1.173 2.937z" clip-rule="evenodd" fill="#0F0967" fill-rule="evenodd"/>
<ellipse transform="rotate(25.104 309.8 282.71)" cx="309.8" cy="282.71" rx="49" ry="48.5" fill="#59F0E7" fill-opacity=".3"/>
<ellipse transform="rotate(25.104 310.04 283.37)" cx="310.04" cy="283.37" rx="42.5" ry="42" fill="#59F0E7" fill-opacity=".4"/>
<circle transform="rotate(25.104 309.58 283.16)" cx="309.58" cy="283.16" r="35" fill="#59F0E7"/>
<mask id="a" x="278.147" y="249.35" width="63.6595" height="67.991" fill="black" maskUnits="userSpaceOnUse">
<rect x="278.15" y="249.35" width="63.66" height="67.991" fill="#fff"/>
<path d="m320.76 282.88c-0.126 2.729-0.718 3.243-0.785 3.918-5e-3 0.052-0.042 0.134-0.056 0.162 2e-3 -3e-3 3e-3 -5e-3 5e-3 -9e-3 0.01-0.02 0.055-0.024 0.078-0.025 0.358-0.019 0.836-0.243 1.31-0.534 0.732-0.448 1.798 6e-3 1.726 0.86-0.338 4.053-2.33 8.281-5.02 10.909-1.367 1.198-4.762 4.074-10.638 3.85-1.824 0.047-6.23-0.847-9.961-4.667-3.732-3.818-4.828-8.453-4.756-11.063 0.02-1.025-0.012-3.068 1.64-5.857 0.801-1.464 4.372-5.108 4.781-5.491 1.649-1.566 2.522-3.005 3.027-4.046 0.25-0.515 0.789-0.649 1.141-0.197 0.235 0.301 0.482 0.654 0.67 0.989 0.265 0.498 0.554 0.875 0.826 1.213 0.534 0.666 1.901 0.871 2.513 0.277 1.739-1.687 3.622-2.894 5.545-3.954 2.319-1.325 4.537-2.256 6.857-2.467 0.826-0.075 1.408 1.031 1.145 1.818-0.395 1.181-0.787 2.832-1.162 4.845-0.013 0.069-0.019 0.139-0.016 0.209 0.041 1.133 0.28 2.337 0.535 3.46 0.15 0.415-0.575 0.49-0.425 0.905 0.582 2.687 1.075 3.71 1.02 4.895z"/>
</mask>
<path d="m320.76 282.88c-0.126 2.729-0.718 3.243-0.785 3.918-5e-3 0.052-0.042 0.134-0.056 0.162 2e-3 -3e-3 3e-3 -5e-3 5e-3 -9e-3 0.01-0.02 0.055-0.024 0.078-0.025 0.358-0.019 0.836-0.243 1.31-0.534 0.732-0.448 1.798 6e-3 1.726 0.86-0.338 4.053-2.33 8.281-5.02 10.909-1.367 1.198-4.762 4.074-10.638 3.85-1.824 0.047-6.23-0.847-9.961-4.667-3.732-3.818-4.828-8.453-4.756-11.063 0.02-1.025-0.012-3.068 1.64-5.857 0.801-1.464 4.372-5.108 4.781-5.491 1.649-1.566 2.522-3.005 3.027-4.046 0.25-0.515 0.789-0.649 1.141-0.197 0.235 0.301 0.482 0.654 0.67 0.989 0.265 0.498 0.554 0.875 0.826 1.213 0.534 0.666 1.901 0.871 2.513 0.277 1.739-1.687 3.622-2.894 5.545-3.954 2.319-1.325 4.537-2.256 6.857-2.467 0.826-0.075 1.408 1.031 1.145 1.818-0.395 1.181-0.787 2.832-1.162 4.845-0.013 0.069-0.019 0.139-0.016 0.209 0.041 1.133 0.28 2.337 0.535 3.46 0.15 0.415-0.575 0.49-0.425 0.905 0.582 2.687 1.075 3.71 1.02 4.895z" fill="#CA0D7B"/>
<path d="m319.92 286.96 3.159 1.508-6.283-3.086 3.124 1.578zm-3.124-1.578c-5e-3 0.011-0.014 0.028-0.024 0.048-3e-3 7e-3 -0.014 0.03-0.028 0.06 0 0-0.029 0.061-0.061 0.137-9e-3 0.022-0.029 0.072-0.053 0.138-0.012 0.032-0.033 0.09-0.055 0.162-0.016 0.051-0.067 0.213-0.105 0.427-0.018 0.1-0.055 0.327-0.054 0.62 0 0.146-0.013 1.018 0.569 1.909 0.322 0.42 1.211 1.135 1.77 1.388 0.548 0.145 1.548 0.177 1.977 0.102 0.807-0.194 1.316-0.625 1.423-0.714 0.32-0.266 0.517-0.532 0.541-0.564 0.067-0.087 0.116-0.16 0.139-0.195 0.08-0.12 0.135-0.222 0.136-0.223 0.016-0.029 0.028-0.051 0.034-0.062 0.012-0.024 0.022-0.042 0.026-0.05 0.01-0.019 0.017-0.035 0.022-0.043 0.01-0.02 0.018-0.038 0.026-0.054l-6.317-3.016c5e-3 -0.01 0.011-0.023 0.019-0.04 4e-3 -7e-3 0.011-0.021 0.02-0.039 4e-3 -8e-3 0.013-0.026 0.026-0.049 5e-3 -0.011 0.018-0.034 0.033-0.062 1e-3 -1e-3 0.057-0.103 0.136-0.222 0.023-0.036 0.072-0.108 0.139-0.196 0.025-0.032 0.222-0.298 0.541-0.564 0.107-0.089 0.616-0.52 1.423-0.714 0.429-0.075 1.429-0.042 1.978 0.102 0.559 0.253 1.447 0.968 1.77 1.389 0.581 0.89 0.568 1.762 0.569 1.909 0 0.292-0.037 0.519-0.055 0.619-0.038 0.214-0.088 0.377-0.104 0.427-0.023 0.073-0.043 0.13-0.055 0.162-0.024 0.066-0.045 0.116-0.054 0.138-0.02 0.048-0.036 0.084-0.042 0.097-8e-3 0.017-0.014 0.031-0.018 0.04-0.014 0.028-0.025 0.051-0.027 0.056-8e-3 0.016-0.014 0.029-0.017 0.033l-6.248-3.156zm3.18 1.416-6.965-0.698 6.965 0.698zm0.785-3.918 6.993 0.323-6.993-0.323zm-1.02-4.895 6.842-1.481-0.1-0.46-0.16-0.443-6.582 2.384zm0.425-0.905-6.827 1.55 0.097 0.425 0.148 0.409 6.582-2.384zm-0.535-3.46 6.995-0.256-6.995 0.256zm0.033-6.872 0.635 6.971-0.635-6.971zm-6.857 2.467 3.378 6.131 0.048-0.026 0.047-0.027-3.473-6.078zm-5.545 3.954 4.874 5.024-4.874-5.024zm-2.513-0.277 5.459-4.381-5.459 4.381zm-0.826-1.213 6.178-3.292-0.038-0.071-0.04-0.071-6.1 3.434zm-0.67-0.989 5.52-4.305-5.52 4.305zm-4.168 4.243 4.781 5.113 0.02-0.018 0.019-0.018-4.82-5.077zm-4.781 5.491 6.023 3.567 0.061-0.103 0.057-0.105-6.141-3.359zm-1.64 5.857 6.997 0.195 1e-3 -0.029 1e-3 -0.028-6.999-0.138zm4.756 11.063 5.008-4.891-3e-3 -3e-3 -5.005 4.894zm9.961 4.667 0.267-6.995-0.224-9e-3 -0.224 6e-3 0.181 6.998zm10.638-3.85 4.616 5.262 0.141-0.124 0.134-0.131-4.891-5.007zm5.02-10.909 6.976 0.583-6.976-0.583zm-20.927-16.365 6.298 3.056v-1e-3l-6.298-3.055zm18.697-2.321 6.639 2.218-6.639-2.218zm-1.162 4.845-6.881-1.284 6.881 1.284zm1.666 12.981 3.657 5.969-3.657-5.969zm-1.31 0.534 0.364 6.99-0.364-6.99zm-0.078 0.025 6.229 3.194v-1e-3l-6.229-3.193zm-5e-3 9e-3 -6.317-3.015 12.565 6.171-6.248-3.156zm7.021 0.536c-0.074 0.737-0.28 1.257-0.246 1.162 4e-3 -0.013 0.011-0.032 0.032-0.088 0.018-0.048 0.046-0.124 0.076-0.207 0.063-0.174 0.143-0.404 0.228-0.677 0.369-1.188 0.635-2.595 0.723-4.483l-13.986-0.646c-0.02 0.441-0.055 0.703-0.077 0.834-0.011 0.065-0.019 0.102-0.023 0.118-4e-3 0.015-6e-3 0.021-6e-3 0.024-0.025 0.078 8e-3 -0.026-0.138 0.379-0.1 0.277-0.406 1.113-0.513 2.188l13.93 1.396zm0.813-4.293c0.078-1.694-0.267-3.099-0.482-3.94-0.244-0.956-0.434-1.583-0.689-2.759l-13.683 2.963c0.327 1.51 0.674 2.738 0.808 3.262 0.163 0.638 0.037 0.338 0.06-0.172l13.986 0.646zm-1.431-7.602c0.15 0.415 0.276 0.893 0.344 1.425 0.068 0.537 0.073 1.093 5e-3 1.656-0.138 1.151-0.548 2.072-0.953 2.727-0.381 0.616-0.775 1.024-0.961 1.207-0.102 0.101-0.184 0.174-0.224 0.209-0.035 0.032-0.064 0.056-0.038 0.034 0.01-9e-3 0.074-0.064 0.145-0.126 0.075-0.066 0.191-0.171 0.326-0.303 0.251-0.247 0.703-0.722 1.128-1.41 0.45-0.727 0.89-1.725 1.039-2.961 0.073-0.606 0.068-1.207-6e-3 -1.79-0.074-0.58-0.212-1.107-0.381-1.573l-13.163 4.768c-0.15-0.415-0.276-0.892-0.344-1.425-0.068-0.536-0.073-1.093-5e-3 -1.656 0.139-1.151 0.548-2.072 0.953-2.727 0.381-0.616 0.775-1.024 0.961-1.207 0.102-0.101 0.184-0.174 0.224-0.209 0.036-0.031 0.064-0.055 0.038-0.033-0.01 8e-3 -0.074 0.063-0.145 0.125-0.075 0.066-0.191 0.171-0.325 0.303-0.252 0.248-0.703 0.722-1.129 1.41-0.45 0.727-0.89 1.725-1.039 2.962-0.073 0.605-0.068 1.206 6e-3 1.789 0.074 0.58 0.212 1.107 0.381 1.574l13.163-4.769zm0.669-0.071c-0.243-1.071-0.35-1.732-0.366-2.166l-13.991 0.511c0.067 1.833 0.438 3.58 0.704 4.755l13.653-3.1zm-7.963-15.753c-3.764 0.342-7.001 1.822-9.694 3.36l6.945 12.156c1.944-1.111 3.143-1.494 4.019-1.574l-1.27-13.942zm-9.599 3.307c-2.199 1.211-4.678 2.768-7.041 5.061l9.747 10.048c1.114-1.08 2.401-1.939 4.049-2.847l-6.755-12.262zm0.778 5.427c-0.103-0.129-0.132-0.169-0.141-0.182-3e-3 -4e-3 0.013 0.019 0.034 0.058l-12.356 6.583c0.576 1.081 1.191 1.863 1.544 2.304l10.919-8.763zm-0.185-0.266c-0.408-0.726-0.871-1.375-1.25-1.86l-11.04 8.61c0.035 0.044 0.068 0.089 0.092 0.124 0.011 0.017 0.017 0.026 0.018 0.028 2e-3 2e-3 -6e-3 -9e-3 -0.02-0.035l12.2-6.867zm-15.719 1.576c-0.401 0.375-1.539 1.536-2.629 2.729-0.567 0.62-1.193 1.327-1.757 2.014-0.477 0.582-1.216 1.516-1.755 2.5l12.282 6.719c-0.138 0.253-0.131 0.182 0.3-0.343 0.344-0.419 0.786-0.922 1.262-1.443 0.47-0.513 0.933-1.002 1.301-1.382 0.414-0.427 0.6-0.608 0.558-0.569l-9.562-10.225zm-6.023 7.036c-2.588 4.37-2.588 7.897-2.616 9.286l13.998 0.276c0.011-0.584 0.013-0.736 0.069-1.009 0.049-0.242 0.177-0.714 0.595-1.419l-12.046-7.134zm-2.614 9.23c-0.121 4.336 1.576 10.86 6.747 16.15l10.011-9.787c-2.293-2.345-2.788-5.092-2.764-5.974l-13.994-0.389zm21.447 22.919c8.586 0.327 13.713-3.998 15.521-5.583l-9.231-10.525c-0.927 0.812-2.59 2.239-5.756 2.118l-0.534 13.99zm15.796-5.838c3.939-3.847 6.632-9.666 7.105-15.333l-13.951-1.165c-0.204 2.439-1.496 5.076-2.936 6.483l9.782 10.015zm-15.71-8.155c0.142-4e-3 -0.495-2e-3 -1.558-0.414-0.976-0.377-2.13-1.036-3.214-2.146l-10.016 9.782c5.207 5.331 11.548 6.866 15.149 6.773l-0.361-13.995zm-11.386-27.181c-0.195 0.402-0.599 1.123-1.549 2.025l9.64 10.153c2.348-2.23 3.691-4.388 4.505-6.067l-12.596-6.111zm18.355-1.485c-0.544 1.631-1.005 3.647-1.403 5.78l13.762 2.569c0.353-1.893 0.675-3.18 0.92-3.912l-13.279-4.437zm3.487 14.076c-0.052 0.032 0.03-0.024 0.228-0.107 0.105-0.045 0.294-0.119 0.553-0.19 0.25-0.069 0.665-0.163 1.201-0.191l0.729 13.981c2.294-0.119 4.114-1.255 4.603-1.555l-7.314-11.938zm-15.267-12.278c1.795-1.742 3.789-1.671 4.451-1.588 0.723 0.09 2.166 0.456 3.368 1.954l-10.919 8.763c1.736 2.162 4.13 2.965 5.823 3.176 1.632 0.203 4.616 0.08 7.024-2.257l-9.747-10.048zm17.91 5.574c-3.207 0.292-5.068-1.787-5.682-2.826-0.618-1.046-1.072-2.675-0.448-4.546l13.279 4.437c0.888-2.657 0.274-5.233-0.776-7.01-1.045-1.77-3.611-4.364-7.643-3.997l1.27 13.942zm-6.603 10.038c-8e-3 0.016-0.016 0.032-0.024 0.047l12.496 6.312c-4e-3 0.01-9e-3 0.02-0.014 0.029l-12.458-6.388zm12.542 6.217c0.057-0.119 0.157-0.335 0.26-0.608 0.046-0.121 0.343-0.876 0.443-1.87l-13.93-1.396c0.055-0.557 0.168-0.98 0.223-1.176 0.065-0.227 0.129-0.406 0.17-0.514 0.081-0.212 0.155-0.373 0.199-0.465l12.635 6.029zm0.388-16.61c0.018 0.483-0.023 0.93-0.098 1.331l-13.762-2.568c-0.101 0.538-0.153 1.125-0.131 1.748l13.991-0.511zm-0.472 16.78c-0.897 1.75-2.253 2.614-2.916 2.968-0.715 0.382-1.337 0.552-1.647 0.627-0.626 0.149-1.127 0.172-1.224 0.177l-0.729-13.981c-0.119 6e-3 -0.654 0.032-1.31 0.189-0.326 0.078-0.962 0.253-1.689 0.641-0.675 0.361-2.041 1.233-2.943 2.993l12.458 6.386zm-17.381-23.759c-1.561-2.002-4.321-3.45-7.483-2.827-2.853 0.563-4.633 2.536-5.476 4.274l12.596 6.11c-0.593 1.223-1.978 2.872-4.411 3.352-2.742 0.54-5.056-0.749-6.266-2.299l11.04-8.61zm21.242 21.45c0.327-3.919-2.129-6.693-4.558-7.836-2.291-1.077-5.252-1.137-7.801 0.424l7.314 11.938c-1.817 1.113-3.879 1.056-5.472 0.307-1.731-0.814-3.69-2.934-3.434-5.998l13.951 1.165z" fill="#FF7EC9" mask="url(#a)"/>
<path d="m307.69 296.63c-1.527 0.567-3.825 0.417-5.377-0.31-4.21-1.973-5.362-8.608-0.285-11.177 2.136-1.29 4.164-1.188 5.744-2.83 0.647-0.613 1.97-1.657 2.178-2.293 0.032-0.26-0.516-1.254-0.481-1.33 0.035-0.075 0.832 0.39 0.905 0.425 0.074 0.034-0.073-0.035 0 0 0.078 0.219-0.077-0.22 0 0 0.155 0.439-0.097 1.796 0.057 2.235 0.387 1.097 1.06 2.068 0.539 3.565-0.697 1.873-2.145 3.326-3.933 3.679 0.486 0.503 1.041 0.763 1.811 0.849 1.211 0.109 2.051-0.24 2.66-0.963 0 0-0.074-0.034 0 0l0.906 0.425c0.485 0.502 0.12 1.908-0.792 4.046-0.887 1.509-1.642 2.828-3.932 3.679z" fill="#FFADDD"/>
<defs>
<linearGradient id="d" x1="216.54" x2="216.54" y1="590.72" y2="950" gradientUnits="userSpaceOnUse">
<stop stop-color="#0B2BED" offset="0"/>
<stop stop-color="#0F0967" offset="1"/>
</linearGradient>
<linearGradient id="c" x1="340.73" x2="318.1" y1="277.8" y2="492.46" gradientUnits="userSpaceOnUse">
<stop stop-color="#110F89" offset="0"/>
<stop stop-color="#0D1998" offset=".3352"/>
<stop stop-color="#0239C6" offset="1"/>
</linearGradient>
</defs>
</svg>
