<?xml version="1.0" encoding="UTF-8"?>
<svg fill="none" viewBox="0 0 561 1200" xmlns="http://www.w3.org/2000/svg">
<path d="m352.9 1107c4.538 0.7 8.827 1.93 11.838 3.59 15.645 8.61 42.793 16 57.144 18.84 31.931 6.03 45.18 29.26 48.025 41.42 0.198 0.84-0.108 2.2-0.147 2.99l-0.736 14.99c-0.256 5.2-4.219 9.48-9.48 9.54-15.372 0.17-52.955 0.33-91.036-1.49-38.211-1.84-76.278-5.82-91.741-7.54-5.224-0.58-8.754-5.23-8.498-10.43l0.785-15.98c0.039-19.46 4.128-39.17 7.497-50.69 1.351-4.63 6.752-8.01 11.379-7.45 26.351 3.16 42.282 2.81 51.986 1.57 3.317-0.43 8.422-0.07 12.984 0.64zm-0.196 3.99c-4.379-0.67-9.188-0.95-11.986-0.59-10.169 1.3-27.482 1.51-53.983-1.67-2.86-0.34-5.43 1.11-6.189 3.7-3.313 11.34-7.466 31.74-7.497 50.7l-0.785 15.98c-0.154 3.13 2.604 5.94 5.698 6.29 15.431 1.72 52.655 5.65 90.742 7.48 37.967 1.82 74.697 1.62 90.038 1.44 3.117-0.03 6.133-2.55 6.287-5.69l0.736-14.98c0.025-0.5 0.196-1.58 0.098-2-2.572-10.99-15.13-32.6-45.176-38.28-14.408-2.84-40.921-9.91-57.144-18.84-2.387-1.31-6.436-2.86-10.839-3.54z" clip-rule="evenodd" fill="#fff" fill-rule="evenodd"/>
<path d="m467.76 1171.7-0.098 2c0.12 2.03-0.097 1.99-0.098 1.99-0.275 0.02-1.454-0.12-1.997-0.09-1.087 0.05-1.904 0.72-4.045 0.8-4.28 0.16-10.668-0.02-19.026 0.06-16.715 0.16-42.107-0.07-74.008-1.65s-56.354-3.81-72.813-5.6c-8.229-0.9-14.743-1.36-18.927-1.94-2.093-0.29-2.888-1.04-3.947-1.2-0.529-0.08-1.729-0.05-1.997-0.09-1e-3 0-0.224 0.01 0.098-2l0.098-2 0.999 0.05c0.259 0.04 0.478-0.03 0.999 0.05 1.041 0.16 2.87 0.96 4.945 1.24 4.149 0.57 9.736 1 17.929 1.89 16.385 1.79 40.991 4.02 72.813 5.6 31.821 1.58 56.367 1.76 73.009 1.6 8.321-0.07 14.78 0.1 19.026-0.06 2.123-0.08 3.974-0.7 5.043-0.75 0.534-0.03 0.732 0.07 0.999 0.05l0.998 0.05z" clip-rule="evenodd" fill="#fff" fill-rule="evenodd"/>
<path d="m285.87 1188 1.129-22.97 3.995 0.2-1.129 22.97-3.995-0.2z" clip-rule="evenodd" fill="#fff" fill-rule="evenodd"/>
<path d="m357.87 1194 1.129-22.97 3.995 0.2-1.129 22.97-3.995-0.2z" clip-rule="evenodd" fill="#fff" fill-rule="evenodd"/>
<path d="m303.87 1190 1.129-22.97 3.995 0.2-1.129 22.97-3.995-0.2z" clip-rule="evenodd" fill="#fff" fill-rule="evenodd"/>
<path d="m375.87 1195 1.129-22.97 3.995 0.2-1.129 22.97-3.995-0.2z" clip-rule="evenodd" fill="#fff" fill-rule="evenodd"/>
<path d="m321.87 1192 1.129-22.97 3.995 0.2-1.129 22.97-3.995-0.2z" clip-rule="evenodd" fill="#fff" fill-rule="evenodd"/>
<path d="m393.87 1195 1.129-22.97 3.995 0.2-1.129 22.97-3.995-0.2z" clip-rule="evenodd" fill="#fff" fill-rule="evenodd"/>
<path d="m429.87 1197 1.129-22.97 3.995 0.2-1.129 22.97-3.995-0.2z" clip-rule="evenodd" fill="#fff" fill-rule="evenodd"/>
<path d="m338.87 1193 1.129-22.97 3.995 0.2-1.129 22.97-3.995-0.2z" clip-rule="evenodd" fill="#fff" fill-rule="evenodd"/>
<path d="m411.87 1196 1.129-22.97 3.995 0.2-1.129 22.97-3.995-0.2z" clip-rule="evenodd" fill="#fff" fill-rule="evenodd"/>
<path d="m447.87 1196 1.129-22.97 3.995 0.2-1.129 22.97-3.995-0.2z" clip-rule="evenodd" fill="#fff" fill-rule="evenodd"/>
<path d="m352.9 1107c4.538 0.7 8.827 1.93 11.838 3.59 15.645 8.61 42.793 16 57.144 18.84 31.931 6.03 45.18 29.26 48.025 41.42 0.198 0.84-0.108 2.2-0.147 2.99l-0.736 14.99c-0.256 5.2-4.219 9.48-9.48 9.54-15.372 0.17-52.955 0.33-91.036-1.49-38.211-1.84-76.278-5.82-91.741-7.54-5.224-0.58-8.754-5.23-8.498-10.43l0.785-15.98c0.039-19.46 4.128-39.17 7.497-50.69 1.351-4.63 6.752-8.01 11.379-7.45 26.351 3.16 42.282 2.81 51.986 1.57 3.317-0.43 8.422-0.07 12.984 0.64zm-0.196 3.99c-4.379-0.67-9.188-0.95-11.986-0.59-10.169 1.3-27.482 1.51-53.983-1.67-2.86-0.34-5.43 1.11-6.189 3.7-3.313 11.34-7.466 31.74-7.497 50.7l-0.785 15.98c-0.154 3.13 2.604 5.94 5.698 6.29 15.431 1.72 52.655 5.65 90.742 7.48 37.967 1.82 74.697 1.62 90.038 1.44 3.117-0.03 6.133-2.55 6.287-5.69l0.736-14.98c0.025-0.5 0.196-1.58 0.098-2-2.572-10.99-15.13-32.6-45.176-38.28-14.408-2.84-40.921-9.91-57.144-18.84-2.387-1.31-6.436-2.86-10.839-3.54z" clip-rule="evenodd" fill="#fff" fill-rule="evenodd"/>
<path d="m467.76 1171.7-0.098 2c0.12 2.03-0.097 1.99-0.098 1.99-0.275 0.02-1.454-0.12-1.997-0.09-1.087 0.05-1.904 0.72-4.045 0.8-4.28 0.16-10.668-0.02-19.026 0.06-16.715 0.16-42.107-0.07-74.008-1.65s-56.354-3.81-72.813-5.6c-8.229-0.9-14.743-1.36-18.927-1.94-2.093-0.29-2.888-1.04-3.947-1.2-0.529-0.08-1.729-0.05-1.997-0.09-1e-3 0-0.224 0.01 0.098-2l0.098-2 0.999 0.05c0.259 0.04 0.478-0.03 0.999 0.05 1.041 0.16 2.87 0.96 4.945 1.24 4.149 0.57 9.736 1 17.929 1.89 16.385 1.79 40.991 4.02 72.813 5.6 31.821 1.58 56.367 1.76 73.009 1.6 8.321-0.07 14.78 0.1 19.026-0.06 2.123-0.08 3.974-0.7 5.043-0.75 0.534-0.03 0.732 0.07 0.999 0.05l0.998 0.05z" clip-rule="evenodd" fill="#fff" fill-rule="evenodd"/>
<path d="m285.87 1188 1.129-22.97 3.995 0.2-1.129 22.97-3.995-0.2z" clip-rule="evenodd" fill="#fff" fill-rule="evenodd"/>
<path d="m357.87 1194 1.129-22.97 3.995 0.2-1.129 22.97-3.995-0.2z" clip-rule="evenodd" fill="#fff" fill-rule="evenodd"/>
<path d="m303.87 1190 1.129-22.97 3.995 0.2-1.129 22.97-3.995-0.2z" clip-rule="evenodd" fill="#fff" fill-rule="evenodd"/>
<path d="m375.87 1195 1.129-22.97 3.995 0.2-1.129 22.97-3.995-0.2z" clip-rule="evenodd" fill="#fff" fill-rule="evenodd"/>
<path d="m321.87 1192 1.129-22.97 3.995 0.2-1.129 22.97-3.995-0.2z" clip-rule="evenodd" fill="#fff" fill-rule="evenodd"/>
<path d="m393.87 1195 1.129-22.97 3.995 0.2-1.129 22.97-3.995-0.2z" clip-rule="evenodd" fill="#fff" fill-rule="evenodd"/>
<path d="m429.87 1197 1.129-22.97 3.995 0.2-1.129 22.97-3.995-0.2z" clip-rule="evenodd" fill="#fff" fill-rule="evenodd"/>
<path d="m338.87 1193 1.129-22.97 3.995 0.2-1.129 22.97-3.995-0.2z" clip-rule="evenodd" fill="#fff" fill-rule="evenodd"/>
<path d="m411.87 1196 1.129-22.97 3.995 0.2-1.129 22.97-3.995-0.2z" clip-rule="evenodd" fill="#fff" fill-rule="evenodd"/>
<path d="m447.87 1196 1.129-22.97 3.995 0.2-1.129 22.97-3.995-0.2z" clip-rule="evenodd" fill="#fff" fill-rule="evenodd"/>
<path d="m415 968c8.992-155.05 21.911-206.46-75-308-31.76-33.275-21-56.494-21-75l-198-25c-20.481 26.509-12.686 86.59 7 116 32.164 48.052 65.035 76.987 103 113 60.944 68.024 51 51.961 51 163l-18 157c-0.788 4.27 1.794 7.99 6 9 12.735 3.06 40.041 9 71 9 29.669 0 50.314-1.83 60-3 3.745-0.45 6.597-3.24 7-7 10.149-94.82 4.277-102.04 7-149z" fill="url(#b)"/>
<path d="m293.4 93.657 98.641 22.744c0.719 0.165 0.604 0.513 0.665 1.248l5.098 62.195c0.416 5.02-3.241 10.16-8.279 10.023l-12.351-0.628c-0.811-0.022-2.318 0.54-2.496 1.331-11.225 50.088-28.726 87.846-38.5 112.68-0.561 1.424-2.509 1.467-3.161 0.082-8.706-18.496-33.553-55.752-88.974-88.804-0.671-0.4-0.601-1.458-0.374-2.205l12.53-41.139c0.139-0.456 0.536-0.547 0.291-0.957l-14.467-21.137c-0.244-0.41-0.512-1.749-0.373-2.205l19.978-58.734c0.257-0.8421 1.343-0.5605 2.204-0.3737l29.568 5.8747z" fill="#F1F1FC"/>
<path d="m398.54 131.17-99.889-22.079c-2.071-0.473-4.259 0.673-4.991 2.661l-10.072 26.206c-1.094 2.968-4.477 3.464-6.613 1.121l-7.151-7.407c-7.162-6.62-14.806-5.535-19.338-1.712-10.759 9.077-1.154 21.896-2.002 20.301l-0.956-0.292c0.119 0.186 0.908 0.2 0.956 0.292l10.268 17.766c0.803 1.336 0.592 2.785-0.209 4.119l-6.366 10.606c-1.254 2.087-3.941 3.149-5.657 1.413-8.399-8.501-12.189-24.269-14.422-31.58-9.924-32.486 7.101-98.333 77.423-99.776 70.323-1.4437 95.823 68.616 95.55 74.078-0.205 4.094-3.662 4.536-5.575 4.575-0.244 5e-3 -0.718-0.237-0.956-0.292z" fill="#0F43EC"/>
<path d="m368.42 151.4c-0.644 2.114-2.879 3.305-4.992 2.661s-3.304-2.879-2.66-4.993c0.644-2.113 2.878-3.305 4.991-2.661s3.304 2.88 2.661 4.993z" fill="#0F0967"/>
<path d="m345.97 302.78c-21.352-40.036-72.75-79.702-109.27-94.123-6.893-2.722-13.588 1.538-18.967 6.725-74.356 54.915-102.84 195.51-99.251 338.41 0.469 3.743 1.238 8.214 4.973 8.676l195.62 23.173c4.614 0.571 9.694-10.272 10.894-14.776l0.061-0.231c3.731-13.997 16.019-60.103 20.992-113.05 6.154-65.535 6.915-131.02-5.05-154.8z" fill="#120F8A"/>
<path d="m331.34 593.32-31.861-23.858-32.238 29.97c15.684 21.997 20.152 26.959 36 37.567 9.154 6.128 13.729 6.638 19.495 17.455l15.251 29.248c4.191 8.178 8.137 11.943 12.86 9.975s3.907-6.419 3.992-7.557l-1.654-7.892 6.635 7.48c6.53 4.4 11.908-1.136 11.628-4.978 4.074-3.618 2.701-8.573 2.085-11.213-3.389-14.522-7.533-24.69-15.325-39.881l-7.131-11.052c-3.035-8.355-14.851-21.812-19.737-25.264z" fill="#F1F1FC"/>
<path d="m344.05 626.06c0.878-0.671 2.157-0.706 2.823 0.167 9.504 12.481 15.148 21.736 18.737 30.164 2.665 6.259 3.626 12.448 5.298 18.029 0.565 1.886 1.888 3.922 2.486 5.816 0.331 1.049-0.53 2.404-1.58 2.741-1.051 0.337-2.407-0.532-2.738-1.58-0.632-2.002-0.499-3.811-1.075-5.732-1.656-5.526-3.475-11.327-6.046-17.365-3.441-8.082-8.736-17.155-18.074-29.416-0.665-0.874-0.709-2.154 0.169-2.824z" clip-rule="evenodd" fill="#060D34" fill-rule="evenodd"/>
<path d="m332.96 636.55c0.921-0.592 2.233-0.752 2.823 0.168 5.786 9.025 9.673 16.174 12.765 23.432 0.013 0.032-0.012-0.032 0 0l6.709 18.113c0.376 1.026-0.552 2.361-1.579 2.74-1.028 0.379-2.363-0.553-2.739-1.58l-6.046-17.364c-2.988-7.008-6.428-13.835-12.102-22.685-0.589-0.919-0.752-2.231 0.169-2.824z" clip-rule="evenodd" fill="#060D34" fill-rule="evenodd"/>
<path d="m299.6 438.34c5.203-20.028 8.79-46.146 26.355-87.117 12.24-24.632 20.451-48.78-21.98-73.086-33.945-19.445-62.081 9.907-71.174 23.164-39.838 58.075-47.641 119.29-47.385 146.58 0.449 47.933 26.336 86.341 77.647 152.86 1.489 1.931 4.172 2.524 6.324 1.376l43.186-23.045c2.051-1.095 3.075-3.459 2.496-5.711-8.604-33.467-13.121-68.499-18.388-100.14-1.442-8.667 0.845-26.896 2.919-34.881z" fill="url(#a)"/>
<path d="m371.31 139.17c0.747-0.614 0.855-1.717 0.242-2.463-0.613-0.747-1.716-0.855-2.463-0.242l2.221 2.705zm-21.133-2.9c-0.864-0.434-1.916-0.084-2.349 0.78s-0.084 1.915 0.78 2.349l1.569-3.129zm18.912 0.195c-2.037 1.673-5.235 2.412-8.856 2.286-3.583-0.125-7.284-1.092-10.056-2.481l-1.569 3.129c3.24 1.624 7.437 2.708 11.502 2.85 4.027 0.14 8.226-0.637 11.2-3.079l-2.221-2.705z" fill="#0F0967"/>
<path d="m363.72 192.95c-0.754 0.783-2.384 0.65-3.158-0.139-9.589-9.766-21.425-8.92-25.954-7.155-1.005 0.391-2.074-0.335-2.472-1.375-0.397-1.04 0.371-2.081 1.376-2.472 5.519-2.15 19.35-3.22 30.348 7.981 0.774 0.789 0.615 2.377-0.14 3.16z" clip-rule="evenodd" fill="#0F0967" fill-rule="evenodd"/>
<ellipse transform="matrix(.99471 .10193 -.10217 .99485 290.92 353.24)" rx="49" ry="48.5" fill="#59F0E7" fill-opacity=".3"/>
<ellipse transform="matrix(.99471 .10193 -.10217 .99485 291.36 353.79)" rx="42.5" ry="42" fill="#59F0E7" fill-opacity=".4"/>
<ellipse transform="matrix(.99471 .10193 -.10217 .99485 290.87 353.74)" rx="35" ry="35" fill="#59F0E7"/>
<path d="m304.75 349.04c1.452 0.256 3.044 1.275 3.552 3.247 1.214 4.719 0.659 10.238-1.4 14.383l-0.042 0.085-0.046 0.081c-1.035 1.83-3.861 6.6-10.697 8.737-2.584 0.936-7.991 1.498-13.625-1.303-5.684-2.823-8.85-7.625-9.907-10.934-0.01-0.031-0.021-0.064-0.032-0.097-0.392-1.194-1.239-3.769-0.46-7.691 0.132-0.742 0.411-1.573 0.656-2.242 0.276-0.753 0.608-1.564 0.926-2.306 0.613-1.432 1.253-2.789 1.455-3.179 0.817-1.588 1.064-2.818 1.157-3.616 0.129-1.101 0.71-2.435 2.057-3.225 1.481-0.869 3.14-0.64 4.327 0.125 0.207 0.133 0.434 0.287 0.665 0.458 1.042-1.671 2.206-3.097 3.351-4.375 1.888-2.17 4.065-4.198 6.834-5.459m11.229 17.311-11.229-17.311m11.229 17.311c-0.024-0.084-0.049-0.17-0.074-0.257-0.327-1.098-0.866-1.948-1.316-2.627-0.131-0.197-0.261-0.389-0.394-0.585-0.174-0.257-0.354-0.522-0.549-0.818 5e-3 -0.27-0.018-0.563-0.086-0.872-0.111-0.507-0.317-0.949-0.569-1.32-0.506-0.812-0.918-1.531-1.198-2.176-0.268-1.817-0.401-3.222-0.414-4.18-0.022-1.609-0.852-2.934-1.803-3.736-0.947-0.8-2.795-1.665-4.826-0.74m11.229 17.311-11.229-17.311m8.374 22.146c0.014-0.01 0.032-0.018 0.043-0.023 0.113-0.046 0.231-0.118 0.351-0.211 0.234-0.182 0.477-0.439 0.71-0.724l-1.104 0.958zm0 0-0.019-2e-3c2e-3 -0.04 4e-3 -0.096-5e-3 -0.132-8e-3 -0.034-0.015-0.069-0.021-0.104-0.027-0.173-0.024-0.355-0.02-0.579 5e-3 -0.286 0.012-0.64-0.043-1.132l0.108 1.949zm-18.758-8.131c0.752 0.287 1.895 0.011 2.241-0.679l-2.241 0.679zc0.035-0.213 0.064-0.417 0.088-0.612m-0.088 0.612 0.084-0.605m4e-3 -7e-3c5e-3 -0.039 0.01-0.078 0.014-0.117-4e-3 0.039-0.01 0.081-0.018 0.124m4e-3 -7e-3 -4e-3 7e-3m4e-3 -7e-3 -4e-3 7e-3m0 0c-0.029 0.169-0.083 0.364-0.17 0.569-0.048-0.022-0.095-0.047-0.139-0.075-0.337-0.211-0.7-0.448-1.077-0.782l1.386 0.288zm22.12 9.233-0.023-3e-3 0.023 3e-3zm0.01-0.079v1e-3 -1e-3zm-3.544-7.506c-1e-3 0 1e-3 -2e-3 4e-3 -7e-3 -3e-3 4e-3 -4e-3 6e-3 -4e-3 7e-3zm-22.612 0.375c-0.113-0.052-0.219-0.11-0.316-0.172 0.11 0.071 0.213 0.142 0.304 0.209l0.012-0.037zm26.145 8.399c0.347 3.324-0.232 6.854-1.572 9.553l1.565-9.615c0.134-0.103 0.26-0.225 0.375-0.367-0.091 0.112-0.214 0.261-0.368 0.429zm-0.076-0.792-0.029-0.023 0.029 0.023z" fill="#CA0D7B" stroke="#FF7EC9" stroke-width="7"/>
<path d="m293.52 367.08c-1.224 1.039-3.52 1.649-5.178 1.48-4.5-0.462-7.803-6.36-3.952-10.459 1.554-1.92 3.56-2.498 4.49-4.566 0.401-0.791 1.313-2.216 1.301-2.883-0.053-0.255-0.901-1.014-0.892-1.096 8e-3 -0.083 0.916 0.093 0.995 0.101 0.079 9e-3 -0.079-8e-3 0 0 0.141 0.181-0.141-0.18 0 0 0.282 0.362 0.508 1.73 0.79 2.092 0.705 0.904 1.686 1.608 1.683 3.188-0.045 1.993-0.969 3.846-2.5 4.771 0.606 0.312 1.253 0.378 1.989 0.204 1.148-0.299 1.864-0.905 2.194-1.786 0 0-0.079-8e-3 0 0l0.994 0.102c0.607 0.312 0.744 1.768 0.587 4.081-0.336 1.713-0.665 3.211-2.501 4.771z" fill="#FFADDD"/>
<defs>
<linearGradient id="b" x1="217" x2="217" y1="767.74" y2="1127" gradientUnits="userSpaceOnUse">
<stop stop-color="#0B2BED" offset="0"/>
<stop stop-color="#0F0967" offset="1"/>
</linearGradient>
<linearGradient id="a" x1="331.7" x2="349.31" y1="346.32" y2="561.14" gradientUnits="userSpaceOnUse">
<stop stop-color="#110F89" offset="0"/>
<stop stop-color="#0D1998" offset=".3352"/>
<stop stop-color="#0239C6" offset="1"/>
</linearGradient>
</defs>
</svg>
