<svg width="562" height="1200" viewBox="0 0 562 1200" fill="none" xmlns="http://www.w3.org/2000/svg">
<path fill-rule="evenodd" clip-rule="evenodd" d="M353.529 1106.9C358.076 1107.6 362.746 1108.81 365.763 1110.48C381.437 1119.13 407.996 1126 422.375 1128.84C454.369 1134.91 467.462 1158.59 470.31 1170.82C470.508 1171.66 470.557 1172.5 470.517 1173.3L469.766 1188.57C469.509 1193.8 465.274 1197.97 460.003 1198.03C444.6 1198.2 407.428 1198.36 369.271 1196.53C330.984 1194.7 293.296 1190.77 277.803 1189.04C272.569 1188.46 268.773 1183.9 269.03 1178.67L269.827 1162.46C269.87 1142.9 274.306 1122.92 277.684 1111.33C279.038 1106.68 283.618 1103.99 288.255 1104.54C314.658 1107.71 331.134 1107.63 340.858 1106.38C344.182 1105.95 348.958 1106.2 353.529 1106.9ZM352.92 1110.85C348.533 1110.18 344.171 1109.98 341.368 1110.34C331.178 1111.66 314.333 1111.7 287.779 1108.51C284.914 1108.17 282.281 1109.84 281.521 1112.45C278.198 1123.85 273.859 1143.45 273.823 1162.52L273.823 1162.57L273.022 1178.87C272.866 1182.02 275.146 1184.72 278.246 1185.07C293.707 1186.79 331.298 1190.71 369.462 1192.53C407.504 1194.36 444.586 1194.2 459.957 1194.03C463.081 1193.99 465.619 1191.53 465.775 1188.37L466.525 1173.1C466.55 1172.6 466.516 1172.14 466.418 1171.72C463.844 1160.68 451.729 1138.47 421.624 1132.77L421.608 1132.77C407.171 1129.91 380.086 1122.95 363.832 1113.98C361.44 1112.66 357.331 1111.54 352.92 1110.85Z" fill="white"/>
<path fill-rule="evenodd" clip-rule="evenodd" d="M468.407 1171.05L468.529 1173.04C468.651 1175.04 468.65 1175.04 468.65 1175.04L468.622 1175.04L468.542 1175.05L468.231 1175.06C467.955 1175.08 467.545 1175.1 467.001 1175.13C465.914 1175.18 464.293 1175.25 462.15 1175.32C457.864 1175.48 451.49 1175.64 443.121 1175.71C426.385 1175.85 401.67 1175.59 369.727 1174.01C337.783 1172.43 313.324 1170.26 296.842 1168.49C288.601 1167.6 282.354 1166.81 278.163 1166.24C276.068 1165.96 274.487 1165.73 273.427 1165.57C272.897 1165.49 272.498 1165.43 272.23 1165.39L271.926 1165.34L271.849 1165.33L271.823 1165.33C271.823 1165.33 271.821 1165.33 272.141 1163.35L272.461 1161.38L272.483 1161.38L272.554 1161.39L272.844 1161.44C273.104 1161.48 273.494 1161.54 274.015 1161.62C275.058 1161.77 276.622 1162 278.699 1162.28C282.854 1162.84 289.065 1163.63 297.269 1164.51C313.677 1166.28 338.06 1168.44 369.924 1170.02C401.787 1171.59 426.425 1171.85 443.088 1171.71C451.42 1171.64 457.758 1171.48 462.009 1171.33C464.135 1171.25 465.738 1171.18 466.809 1171.13C467.344 1171.1 467.745 1171.08 468.012 1171.07L468.311 1171.05L468.385 1171.05L468.407 1171.05Z" fill="white"/>
<path fill-rule="evenodd" clip-rule="evenodd" d="M286.249 1187.49L287.374 1164.61L291.366 1164.81L290.241 1187.68L286.249 1187.49Z" fill="white"/>
<path fill-rule="evenodd" clip-rule="evenodd" d="M359.025 1193.23L360.15 1170.36L364.142 1170.56L363.017 1193.43L359.025 1193.23Z" fill="white"/>
<path fill-rule="evenodd" clip-rule="evenodd" d="M304.15 1189.81L305.275 1166.94L309.267 1167.14L308.142 1190.01L304.15 1189.81Z" fill="white"/>
<path fill-rule="evenodd" clip-rule="evenodd" d="M376.786 1194.11L377.911 1171.24L381.903 1171.43L380.778 1194.31L376.786 1194.11Z" fill="white"/>
<path fill-rule="evenodd" clip-rule="evenodd" d="M322.488 1191.43L323.613 1168.56L327.605 1168.76L326.48 1191.63L322.488 1191.43Z" fill="white"/>
<path fill-rule="evenodd" clip-rule="evenodd" d="M395.055 1195.01L396.18 1172.14L400.172 1172.34L399.047 1195.21L395.055 1195.01Z" fill="white"/>
<path fill-rule="evenodd" clip-rule="evenodd" d="M431.028 1196.2L432.153 1173.33L436.145 1173.52L435.02 1196.4L431.028 1196.2Z" fill="white"/>
<path fill-rule="evenodd" clip-rule="evenodd" d="M339.741 1192.28L340.866 1169.41L344.858 1169.61L343.733 1192.48L339.741 1192.28Z" fill="white"/>
<path fill-rule="evenodd" clip-rule="evenodd" d="M412.309 1195.86L413.434 1172.99L417.425 1173.19L416.3 1196.06L412.309 1195.86Z" fill="white"/>
<path fill-rule="evenodd" clip-rule="evenodd" d="M448.13 1195.47L449.255 1172.6L453.247 1172.8L452.122 1195.67L448.13 1195.47Z" fill="white"/>
<path fill-rule="evenodd" clip-rule="evenodd" d="M353.924 1106.9C358.471 1107.6 363.141 1108.81 366.158 1110.48C381.833 1119.13 408.391 1126 422.771 1128.84C454.764 1134.91 467.858 1158.59 470.706 1170.82C470.903 1171.66 470.952 1172.5 470.913 1173.3L470.162 1188.57C469.905 1193.8 465.67 1197.97 460.399 1198.03C444.995 1198.2 407.824 1198.36 369.667 1196.53C331.379 1194.7 293.692 1190.77 278.199 1189.04C272.965 1188.46 269.168 1183.9 269.425 1178.67L270.222 1162.46C270.266 1142.9 274.701 1122.92 278.079 1111.33C279.434 1106.68 284.013 1103.99 288.65 1104.54C315.053 1107.71 331.529 1107.63 341.253 1106.38C344.577 1105.95 349.353 1106.2 353.924 1106.9ZM353.315 1110.85C348.928 1110.18 344.566 1109.98 341.763 1110.34C331.573 1111.66 314.728 1111.7 288.175 1108.51C285.309 1108.17 282.677 1109.84 281.916 1112.45C278.594 1123.85 274.254 1143.45 274.219 1162.52L274.219 1162.57L273.417 1178.87C273.262 1182.02 275.541 1184.72 278.641 1185.07C294.103 1186.79 331.694 1190.71 369.857 1192.53C407.9 1194.36 444.982 1194.2 460.353 1194.03C463.476 1193.99 466.015 1191.53 466.17 1188.37L466.921 1173.1C466.946 1172.6 466.911 1172.14 466.814 1171.72C464.239 1160.68 452.124 1138.47 422.02 1132.77L422.003 1132.77C407.567 1129.91 380.481 1122.95 364.228 1113.98C361.836 1112.66 357.727 1111.54 353.315 1110.85Z" fill="white"/>
<path fill-rule="evenodd" clip-rule="evenodd" d="M468.803 1171.05L468.925 1173.04C469.046 1175.04 469.046 1175.04 469.045 1175.04L469.018 1175.04L468.938 1175.05L468.626 1175.06C468.351 1175.08 467.941 1175.1 467.397 1175.13C466.309 1175.18 464.688 1175.25 462.545 1175.32C458.259 1175.48 451.885 1175.64 443.517 1175.71C426.78 1175.85 402.066 1175.59 370.122 1174.01C338.179 1172.43 313.719 1170.26 297.237 1168.49C288.996 1167.6 282.749 1166.81 278.559 1166.24C276.463 1165.96 274.882 1165.73 273.823 1165.57C273.293 1165.49 272.893 1165.43 272.625 1165.39L272.322 1165.34L272.244 1165.33L272.219 1165.33C272.218 1165.33 272.216 1165.33 272.536 1163.35L272.857 1161.38L272.878 1161.38L272.949 1161.39L273.24 1161.44C273.499 1161.48 273.89 1161.54 274.411 1161.62C275.453 1161.77 277.017 1162 279.095 1162.28C283.25 1162.84 289.46 1163.63 297.664 1164.51C314.073 1166.28 338.455 1168.44 370.319 1170.02C402.183 1171.59 426.82 1171.85 443.484 1171.71C451.815 1171.64 458.154 1171.48 462.405 1171.33C464.53 1171.25 466.134 1171.18 467.204 1171.13C467.739 1171.1 468.141 1171.08 468.408 1171.07L468.707 1171.05L468.78 1171.05L468.803 1171.05Z" fill="white"/>
<path fill-rule="evenodd" clip-rule="evenodd" d="M286.644 1187.49L287.77 1164.61L291.761 1164.81L290.636 1187.68L286.644 1187.49Z" fill="white"/>
<path fill-rule="evenodd" clip-rule="evenodd" d="M359.421 1193.23L360.546 1170.36L364.538 1170.56L363.413 1193.43L359.421 1193.23Z" fill="white"/>
<path fill-rule="evenodd" clip-rule="evenodd" d="M304.546 1189.81L305.671 1166.94L309.663 1167.14L308.538 1190.01L304.546 1189.81Z" fill="white"/>
<path fill-rule="evenodd" clip-rule="evenodd" d="M377.182 1194.11L378.307 1171.24L382.299 1171.43L381.173 1194.31L377.182 1194.11Z" fill="white"/>
<path fill-rule="evenodd" clip-rule="evenodd" d="M322.884 1191.43L324.009 1168.56L328.001 1168.76L326.876 1191.63L322.884 1191.43Z" fill="white"/>
<path fill-rule="evenodd" clip-rule="evenodd" d="M395.45 1195.01L396.575 1172.14L400.567 1172.34L399.442 1195.21L395.45 1195.01Z" fill="white"/>
<path fill-rule="evenodd" clip-rule="evenodd" d="M431.424 1196.2L432.549 1173.33L436.541 1173.52L435.416 1196.4L431.424 1196.2Z" fill="white"/>
<path fill-rule="evenodd" clip-rule="evenodd" d="M340.137 1192.28L341.262 1169.41L345.254 1169.61L344.128 1192.48L340.137 1192.28Z" fill="white"/>
<path fill-rule="evenodd" clip-rule="evenodd" d="M412.704 1195.86L413.829 1172.99L417.821 1173.19L416.696 1196.06L412.704 1195.86Z" fill="white"/>
<path fill-rule="evenodd" clip-rule="evenodd" d="M448.525 1195.47L449.65 1172.6L453.642 1172.8L452.517 1195.67L448.525 1195.47Z" fill="white"/>
<path d="M359.703 702.791C359.247 701.491 360.212 700.129 361.59 700.129H541.501C542.88 700.129 543.845 701.491 543.388 702.791L537.412 719.816C536.708 721.82 534.817 723.16 532.694 723.16H370.398C368.275 723.16 366.383 721.82 365.68 719.816L359.703 702.791Z" fill="#2D81FF"/>
<path d="M416 967.363C425 812.363 437.5 760.363 340.5 658.863C308.711 625.6 320 602.863 320 584.363L122 559.363C101.5 585.863 109.295 645.963 129 675.363C161.194 723.398 194 751.863 232 787.863C293 855.863 283 840.363 283 951.363L264.955 1108.03C264.167 1112.29 266.72 1116.43 270.93 1117.44C283.677 1120.5 311.483 1126.17 342.47 1126.17C372.167 1126.17 392.772 1124.22 402.466 1123.04C406.215 1122.59 409.062 1119.58 409.465 1115.82C419.624 1021.03 413.274 1014.3 416 967.363Z" fill="url(#paint0_linear_1215:4300)"/>
<path d="M293.12 93.3058L391.363 115.798C392.079 115.962 392.606 116.571 392.666 117.304L397.773 179.706C398.183 184.714 394.158 188.974 389.141 188.84L376.549 188.506C375.741 188.485 375.03 189.047 374.853 189.836C363.636 239.823 345.627 278.417 335.874 303.209C335.315 304.631 333.282 304.676 332.633 303.294C323.977 284.846 299.724 246.803 244.56 213.866C243.892 213.468 243.569 212.657 243.796 211.912L256.213 171.154C256.352 170.698 256.292 170.206 256.049 169.797L241.703 148.335C241.46 147.927 241.4 147.434 241.539 146.979L261.58 88.0602C261.836 87.2198 262.693 86.7159 263.551 86.9015L293.12 93.3058Z" fill="#F1F1FC"/>
<path d="M398.927 131.174L298.869 108.369C296.804 107.898 294.709 109.036 293.976 111.027L284.249 137.44C283.154 140.413 279.301 141.166 277.175 138.823L270.087 131.013C262.953 124.397 255.597 126.247 251.072 130.08C240.329 139.182 249.304 151.353 248.461 149.757L248.213 149.343C248.332 149.529 248.413 149.666 248.461 149.757L258.857 167.127C259.656 168.463 259.656 170.131 258.855 171.468L252.363 182.305C251.11 184.396 248.334 184.999 246.626 183.263C238.261 174.765 234.35 159.744 232.133 152.428C222.283 119.92 239.682 53.7098 309.814 52.1661C379.945 50.6225 405.306 120.593 405.026 126.061C404.816 130.16 401.558 131.218 399.651 131.26C399.407 131.265 399.165 131.228 398.927 131.174Z" fill="#0F43EC"/>
<path d="M368.671 151.329C368.029 153.434 365.805 154.622 363.704 153.981C361.602 153.341 360.418 151.115 361.059 149.01C361.701 146.905 363.925 145.717 366.026 146.358C368.128 146.998 369.312 149.224 368.671 151.329Z" fill="#0F0967"/>
<path d="M346.817 302.204C325.437 262.16 273.358 222.954 236.796 208.527C229.896 205.804 223.316 209.263 217.932 214.45C143.5 269.364 114.5 410.363 118.108 553.284C118.578 557.028 120.071 561.113 123.81 561.575L319.783 584.993C324.402 585.564 328.799 574.743 330 570.238L330.174 569.586C334.041 555.093 346.326 509.049 351.25 456.613C357.404 391.071 358.798 325.991 346.817 302.204Z" fill="#120F8A"/>
<path d="M331.322 592.597L299.567 568.477L266.731 598.513C282.393 620.518 286.928 625.358 302.81 635.929C311.985 642.035 316.712 642.734 322.457 653.564L337.938 682.831C342.112 691.019 345.623 694.492 350.381 692.493C355.139 690.495 354.579 686.643 354.67 685.5L352.706 677.686L359.032 684.814C365.576 689.199 371.155 683.981 370.892 680.126C375.006 676.474 373.917 671.6 373.31 668.952C369.974 654.392 365.536 644.217 357.776 629.005L351.44 617.502C348.429 609.131 336.218 596.038 331.322 592.597Z" fill="#F1F1FC"/>
<path fill-rule="evenodd" clip-rule="evenodd" d="M343.524 625.05C344.403 624.38 345.657 624.548 346.326 625.426C355.884 637.961 361.278 647.58 364.896 656.039C367.583 662.321 369.289 667.976 370.979 673.575C371.55 675.467 372.119 677.352 372.724 679.253C373.058 680.305 372.476 681.43 371.424 681.765C370.372 682.1 369.247 681.519 368.913 680.467C368.275 678.459 367.686 676.509 367.104 674.581C365.431 669.037 363.811 663.674 361.22 657.614C357.75 649.503 352.536 640.167 343.146 627.852C342.477 626.974 342.646 625.72 343.524 625.05Z" fill="#060D34"/>
<path fill-rule="evenodd" clip-rule="evenodd" d="M332.894 635.842C333.823 635.245 335.06 635.514 335.656 636.443C341.507 645.558 345.157 652.469 348.287 659.798C348.301 659.83 348.314 659.862 348.326 659.894L354.908 677.833C355.288 678.87 354.756 680.019 353.719 680.4C352.683 680.781 351.534 680.25 351.154 679.213L344.59 661.323C341.565 654.247 338.028 647.543 332.291 638.605C331.694 637.676 331.965 636.439 332.894 635.842Z" fill="#060D34"/>
<path d="M299.08 437.709C304.276 417.681 308.518 392.102 326.062 351.13C338.288 326.497 346.539 301.488 304.154 277.18C270.246 257.734 241.305 287.391 232.222 300.648C192.429 358.724 184.681 419.903 184.937 447.194C185.387 495.126 212.073 533.944 263.349 600.473C264.842 602.41 267.534 603.002 269.688 601.845L312.523 578.839C314.567 577.742 315.584 575.385 315.009 573.138C306.44 539.623 302.309 504.02 297.046 472.374C295.605 463.708 297.008 445.695 299.08 437.709Z" fill="url(#paint1_linear_1215:4300)"/>
<path d="M372.236 139.292C372.985 138.681 373.098 137.579 372.487 136.83C371.877 136.081 370.774 135.968 370.025 136.579L372.236 139.292ZM350.905 136.243C350.042 135.808 348.99 136.155 348.555 137.018C348.12 137.881 348.467 138.933 349.33 139.368L350.905 136.243ZM370.025 136.579C367.984 138.242 364.759 138.964 361.095 138.811C357.472 138.66 353.722 137.662 350.905 136.243L349.33 139.368C352.607 141.02 356.847 142.137 360.949 142.308C365.011 142.478 369.246 141.729 372.236 139.292L370.025 136.579Z" fill="#0F0967"/>
<path fill-rule="evenodd" clip-rule="evenodd" d="M364.028 192.66C363.251 193.444 361.986 193.45 361.201 192.673C351.488 183.043 339.491 184.366 334.85 186.158C333.82 186.555 332.663 186.042 332.266 185.012C331.868 183.981 332.38 182.824 333.41 182.426C339.065 180.243 352.873 178.786 364.014 189.832C364.798 190.609 364.804 191.875 364.028 192.66Z" fill="#0F0967"/>
<ellipse cx="291.099" cy="353.444" rx="49.0541" ry="48.5586" transform="rotate(5.85708 291.099 353.444)" fill="#59F0E7" fill-opacity="0.3"/>
<ellipse cx="291.362" cy="353.47" rx="42.3649" ry="41.9369" transform="rotate(5.85708 291.362 353.47)" fill="#59F0E7" fill-opacity="0.4"/>
<ellipse cx="291.098" cy="353.444" rx="34.7838" ry="34.8739" transform="rotate(5.85708 291.098 353.444)" fill="#59F0E7"/>
<mask id="path-40-outside-1_1215:4300" maskUnits="userSpaceOnUse" x="265.829" y="323.892" width="50.1736" height="57.3155" fill="black">
<rect fill="white" x="265.829" y="323.892" width="50.1736" height="57.3155"/>
<path d="M301.351 349.018C302.047 351.36 301.754 352.396 301.804 353.083C301.819 353.288 301.992 353.512 302.197 353.487C302.255 353.48 302.305 353.446 302.358 353.42C302.644 353.279 302.932 352.96 303.195 352.583C303.687 351.879 304.746 351.898 304.969 352.728C305.969 356.454 305.56 360.543 303.921 363.849C303.039 365.413 300.477 369.285 294.94 370.992C293.259 371.63 288.719 372.321 284.011 369.974C279.302 367.63 277.118 363.788 276.339 361.33C276.025 360.367 275.521 358.248 276.152 355.108C276.422 353.481 278.496 349.352 278.752 348.861C279.809 346.803 280.327 344.724 280.54 343.382C280.63 342.816 281.095 342.538 281.556 342.877C281.83 343.079 282.127 343.315 282.391 343.548C282.836 343.961 283.205 344.333 283.527 344.7C284.09 345.343 285.243 345.246 285.596 344.467C286.609 342.235 287.839 340.288 289.284 338.673C291.021 336.669 293.213 335.154 295.502 334.239C296.272 333.931 297.045 334.755 296.907 335.573C296.689 336.869 296.585 338.64 296.887 340.694C296.897 340.763 296.915 340.831 296.94 340.896C297.352 341.935 298.049 342.908 298.65 343.872C298.924 344.211 299.086 344.641 299.361 344.979C300.773 347.295 301.018 347.894 301.351 349.018Z"/>
</mask>
<path d="M301.351 349.018C302.047 351.36 301.754 352.396 301.804 353.083C301.819 353.288 301.992 353.512 302.197 353.487C302.255 353.48 302.305 353.446 302.358 353.42C302.644 353.279 302.932 352.96 303.195 352.583C303.687 351.879 304.746 351.898 304.969 352.728C305.969 356.454 305.56 360.543 303.921 363.849C303.039 365.413 300.477 369.285 294.94 370.992C293.259 371.63 288.719 372.321 284.011 369.974C279.302 367.63 277.118 363.788 276.339 361.33C276.025 360.367 275.521 358.248 276.152 355.108C276.422 353.481 278.496 349.352 278.752 348.861C279.809 346.803 280.327 344.724 280.54 343.382C280.63 342.816 281.095 342.538 281.556 342.877C281.83 343.079 282.127 343.315 282.391 343.548C282.836 343.961 283.205 344.333 283.527 344.7C284.09 345.343 285.243 345.246 285.596 344.467C286.609 342.235 287.839 340.288 289.284 338.673C291.021 336.669 293.213 335.154 295.502 334.239C296.272 333.931 297.045 334.755 296.907 335.573C296.689 336.869 296.585 338.64 296.887 340.694C296.897 340.763 296.915 340.831 296.94 340.896C297.352 341.935 298.049 342.908 298.65 343.872C298.924 344.211 299.086 344.641 299.361 344.979C300.773 347.295 301.018 347.894 301.351 349.018Z" fill="#CA0D7B"/>
<path d="M301.804 353.083L308.786 352.576L308.786 352.576L301.804 353.083ZM301.351 349.018L294.641 351.01L294.641 351.01L301.351 349.018ZM299.361 344.979L305.337 341.335L305.092 340.933L304.796 340.567L299.361 344.979ZM298.65 343.872L292.71 347.576L292.94 347.946L293.215 348.284L298.65 343.872ZM296.94 340.896L290.432 343.473L290.432 343.473L296.94 340.896ZM295.502 334.239L292.905 327.739L292.905 327.739L295.502 334.239ZM289.284 338.673L294.501 343.34L294.538 343.299L294.573 343.258L289.284 338.673ZM285.596 344.467L291.972 347.358L291.972 347.358L285.596 344.467ZM283.527 344.7L278.26 349.312L278.26 349.312L283.527 344.7ZM282.391 343.548L287.147 338.412L287.087 338.357L287.026 338.303L282.391 343.548ZM281.556 342.877L277.409 348.516L277.409 348.516L281.556 342.877ZM278.752 348.861L284.955 352.105L284.968 352.082L284.98 352.058L278.752 348.861ZM276.152 355.108L283.015 356.488L283.038 356.371L283.058 356.254L276.152 355.108ZM276.339 361.33L283.012 359.215L283.003 359.188L282.994 359.161L276.339 361.33ZM284.011 369.974L287.133 363.709L287.13 363.707L284.011 369.974ZM294.94 370.992L292.878 364.302L292.664 364.368L292.454 364.448L294.94 370.992ZM303.921 363.849L310.018 367.289L310.11 367.126L310.193 366.958L303.921 363.849ZM304.969 352.728L311.73 350.913L311.73 350.913L304.969 352.728ZM280.54 343.382L273.627 342.284L273.627 342.284L280.54 343.382ZM296.907 335.573L290.004 334.411L290.004 334.411L296.907 335.573ZM296.887 340.694L303.812 339.676L303.812 339.675L296.887 340.694ZM303.195 352.583L297.456 348.576L297.456 348.576L303.195 352.583ZM302.358 353.42L299.275 347.135L299.275 347.135L302.358 353.42ZM302.197 353.487L303.022 360.439L303.022 360.439L302.197 353.487ZM308.786 352.576C308.809 352.893 308.788 353.16 308.804 352.777C308.815 352.523 308.835 352.041 308.816 351.451C308.777 350.201 308.577 348.761 308.062 347.025L294.641 351.01C294.821 351.617 294.823 351.866 294.823 351.891C294.825 351.939 294.825 351.991 294.816 352.198C294.813 352.279 294.804 352.479 294.8 352.675C294.796 352.883 294.795 353.208 294.823 353.59L308.786 352.576ZM308.062 347.025C307.483 345.075 306.895 343.889 305.337 341.335L293.385 348.624C294.075 349.755 294.335 350.236 294.455 350.485C294.51 350.598 294.531 350.638 294.641 351.01L308.062 347.025ZM304.796 340.567C304.967 340.779 305.074 340.946 305.112 341.007C305.143 341.056 305.158 341.084 305.091 340.967C305.049 340.892 304.924 340.671 304.778 340.437C304.623 340.189 304.393 339.841 304.084 339.461L293.215 348.284C293.043 348.073 292.937 347.906 292.898 347.844C292.868 347.796 292.853 347.767 292.919 347.884C292.962 347.959 293.086 348.18 293.233 348.415C293.387 348.663 293.617 349.011 293.926 349.391L304.796 340.567ZM304.589 340.169C304.406 339.875 304.215 339.58 304.075 339.361C303.92 339.121 303.804 338.939 303.702 338.771C303.49 338.422 303.443 338.305 303.449 338.319L290.432 343.473C291.152 345.292 292.456 347.169 292.71 347.576L304.589 340.169ZM292.905 327.739C289.602 329.058 286.48 331.22 283.995 334.088L294.573 343.258C295.562 342.117 296.824 341.249 298.099 340.739L292.905 327.739ZM284.067 334.006C282.077 336.23 280.479 338.802 279.221 341.576L291.972 347.358C292.738 345.668 293.602 344.345 294.501 343.34L284.067 334.006ZM288.793 340.089C288.267 339.488 287.715 338.938 287.147 338.412L277.635 348.685C277.957 348.983 278.144 349.178 278.26 349.312L288.793 340.089ZM287.026 338.303C286.589 337.917 286.127 337.55 285.704 337.238L277.409 348.516C277.533 348.608 277.665 348.714 277.756 348.794L287.026 338.303ZM272.549 345.617C272.362 345.976 271.719 347.254 271.075 348.684C270.577 349.79 269.558 352.084 269.247 353.962L283.058 356.254C283.02 356.479 282.986 356.567 283.021 356.453C283.048 356.366 283.099 356.215 283.182 355.996C283.349 355.555 283.579 355.012 283.84 354.433C284.096 353.865 284.356 353.318 284.568 352.882C284.674 352.666 284.765 352.482 284.835 352.342C284.87 352.272 284.899 352.215 284.921 352.172C284.932 352.151 284.94 352.134 284.947 352.122C284.953 352.109 284.956 352.104 284.955 352.105L272.549 345.617ZM269.29 353.728C268.376 358.269 269.073 361.625 269.683 363.499L282.994 359.161C282.978 359.11 282.665 358.227 283.015 356.488L269.29 353.728ZM269.666 363.445C270.891 367.309 274.14 372.88 280.891 376.241L287.13 363.707C284.463 362.38 283.345 360.267 283.012 359.215L269.666 363.445ZM297.001 377.681C304.969 375.226 308.713 369.602 310.018 367.289L297.825 360.41C297.365 361.224 295.984 363.345 292.878 364.302L297.001 377.681ZM310.193 366.958C312.604 362.093 313.162 356.251 311.73 350.913L298.208 354.542C298.776 356.656 298.516 358.992 297.65 360.741L310.193 366.958ZM292.454 364.448C292.558 364.409 291.911 364.628 290.759 364.604C289.695 364.582 288.427 364.354 287.133 363.709L280.888 376.239C287.597 379.583 294.198 378.761 297.425 377.536L292.454 364.448ZM273.627 342.284C273.499 343.09 273.163 344.422 272.525 345.665L284.98 352.058C286.454 349.185 287.155 346.357 287.453 344.48L273.627 342.284ZM290.004 334.411C289.677 336.355 289.543 338.866 289.962 341.713L303.812 339.675C303.627 338.414 303.701 337.382 303.81 336.735L290.004 334.411ZM297.456 348.576C297.464 348.564 297.565 348.417 297.77 348.207C297.94 348.032 298.437 347.546 299.275 347.135L305.44 359.705C307.434 358.727 308.576 357.104 308.934 356.591L297.456 348.576ZM279.221 341.576C280.269 339.265 282.364 338.314 283.926 338.153C285.451 337.997 287.375 338.469 288.793 340.089L278.26 349.312C280.242 351.575 283.024 352.32 285.355 352.08C287.722 351.837 290.57 350.448 291.972 347.358L279.221 341.576ZM298.099 340.739C295.346 341.839 292.868 340.695 291.618 339.456C290.445 338.294 289.657 336.475 290.004 334.411L303.81 336.735C304.295 333.853 303.189 331.212 301.472 329.511C299.677 327.733 296.428 326.331 292.905 327.739L298.099 340.739ZM301.372 346.536C304.209 346.199 306.206 347.66 307.13 348.686C308.051 349.708 308.675 351.053 308.786 352.576L294.823 353.59C294.948 355.318 295.667 356.878 296.728 358.056C297.794 359.239 299.98 360.8 303.022 360.439L301.372 346.536ZM303.449 338.319C303.637 338.794 303.75 339.253 303.812 339.676L289.962 341.713C290.044 342.273 290.193 342.868 290.432 343.473L303.449 338.319ZM303.022 360.439C304.164 360.303 304.997 359.922 305.333 359.759C305.425 359.715 305.5 359.676 305.549 359.651C305.594 359.627 305.633 359.606 305.637 359.604C305.676 359.583 305.568 359.642 305.44 359.705L299.275 347.135C299.188 347.178 299.118 347.214 299.074 347.237C299.052 347.249 299.034 347.259 299.022 347.265C299.011 347.271 299 347.277 299 347.277C298.971 347.293 299.085 347.23 299.225 347.162C299.509 347.025 300.288 346.665 301.371 346.536L303.022 360.439ZM285.704 337.238C283.692 335.758 280.588 335.042 277.638 336.601C275.01 337.99 273.919 340.445 273.627 342.284L287.453 344.48C287.251 345.753 286.437 347.786 284.179 348.979C281.6 350.342 278.96 349.657 277.409 348.516L285.704 337.238ZM311.73 350.913C310.77 347.335 307.688 345.271 304.586 345.092C301.764 344.929 299.069 346.266 297.456 348.576L308.934 356.591C307.813 358.197 305.894 359.191 303.78 359.069C301.386 358.931 298.946 357.291 298.208 354.542L311.73 350.913Z" fill="#FF7EC9" mask="url(#path-40-outside-1_1215:4300)"/>
<path d="M294.105 366.218C292.847 367.245 291.224 367.821 289.513 367.646C284.87 367.169 281.432 361.369 285.387 357.318C286.981 355.419 288.938 354.794 289.889 352.746C290.299 351.963 290.489 350.909 290.475 350.247C290.419 349.994 290.429 349.087 290.438 349.006C290.446 348.924 290.446 348.924 290.528 348.932L290.617 348.859C290.699 348.867 290.699 348.867 290.78 348.876C290.927 349.056 291.073 349.236 291.219 349.416C291.511 349.776 291.877 350.226 292.169 350.586C292.9 351.487 293.49 352.95 293.494 354.519C293.456 356.496 292.8 358.079 291.224 358.99C291.851 359.302 292.503 359.369 293.261 359.199C294.443 358.908 295.162 358.321 295.499 357.448C295.499 357.448 295.507 357.366 295.588 357.375L295.67 357.383C296.296 357.695 296.929 358.75 296.776 361.045C296.437 362.744 295.992 364.679 294.105 366.218Z" fill="#FFADDD"/>
<defs>
<linearGradient id="paint0_linear_1215:4300" x1="217.963" y1="767.026" x2="217.963" y2="1126.17" gradientUnits="userSpaceOnUse">
<stop stop-color="#0B2BED"/>
<stop offset="1" stop-color="#0F0967"/>
</linearGradient>
<linearGradient id="paint1_linear_1215:4300" x1="331.636" y1="345.523" x2="349.226" y2="560.786" gradientUnits="userSpaceOnUse">
<stop stop-color="#110F89"/>
<stop offset="0.335202" stop-color="#0D1998"/>
<stop offset="1" stop-color="#0239C6"/>
</linearGradient>
</defs>
</svg>
