<svg width="486" height="485" viewBox="0 0 486 485" fill="none" xmlns="http://www.w3.org/2000/svg">
<circle cx="242.559" cy="242.5" r="242.5" fill="url(#paint0_linear)"/>
<mask id="mask0" mask-type="alpha" maskUnits="userSpaceOnUse" x="0" y="0" width="485" height="485">
<circle cx="242.5" cy="242.5" r="242.5" fill="url(#paint1_linear)"/>
</mask>
<g mask="url(#mask0)">
<path d="M416.847 397.124L418.054 396.731C418.992 396.426 419.993 396.976 420.238 397.932C420.401 398.569 420.184 399.243 419.679 399.665L415.475 403.184L407.364 409.887C406.664 410.465 405.642 410.422 404.993 409.788C404.4 409.209 404.287 408.296 404.721 407.59L404.925 407.258C405.589 406.177 405.235 404.762 404.141 404.121L403.424 403.701C402.877 403.381 402.542 402.795 402.542 402.162C402.542 401.176 403.34 400.378 404.326 400.378H404.481C405.072 400.378 405.63 400.108 405.998 399.646L408.691 396.265C409.677 395.026 411.456 394.768 412.754 395.673L414.291 396.745C415.037 397.265 415.983 397.406 416.847 397.124Z" fill="#2F72F4"/>
<path d="M398.866 410.021H399.001C399.966 410.021 400.496 411.143 399.884 411.888L394.89 417.964C394.505 418.431 393.988 418.772 393.407 418.94L389.987 419.931C389.545 420.058 389.139 420.286 388.8 420.596L383.244 425.664C382.581 426.27 381.681 426.546 380.792 426.417L377.786 425.982C377.407 425.927 377.043 425.8 376.712 425.609L376.546 425.512C374.588 424.379 374.542 421.569 376.462 420.371L381.001 417.54C381.32 417.34 381.674 417.203 382.045 417.135L388.322 415.978C388.967 415.859 389.555 415.532 389.996 415.047L396.107 408.336C396.727 407.655 397.859 408.094 397.859 409.014C397.859 409.57 398.31 410.021 398.866 410.021Z" fill="#2F72F4"/>
<path d="M298.789 480.407L289.581 482.896C288.718 483.13 288.004 483.736 287.634 484.55L280.684 499.816C280.137 501.018 278.867 501.721 277.558 501.547L184.986 489.215C183.9 489.07 182.978 488.344 182.584 487.322L178.161 475.863C177.492 474.13 178.543 472.211 180.364 471.842L187.157 470.465C187.353 470.425 187.553 470.405 187.753 470.405H202.954L225.279 473.234C225.429 473.253 225.579 473.261 225.73 473.257L254.395 472.548L281.877 475.406H293.151L298.504 476.114C300.88 476.428 301.103 479.781 298.789 480.407Z" fill="#2F72F4"/>
<path d="M253.242 61.943L251.753 63.1386C251.111 63.6541 250.219 63.7237 249.505 63.3141L246.398 61.531C246.055 61.3345 245.779 61.0411 245.603 60.6878L243.76 56.9881C243.378 56.2199 243.528 55.2932 244.133 54.6852L245.643 53.1694C245.795 53.0169 245.971 52.8899 246.163 52.7933L258.341 46.6795C259.113 46.2921 260.046 46.4437 260.656 47.0556L263.312 49.7225C263.605 50.0172 263.8 50.3961 263.868 50.8064L264.179 52.6838C264.337 53.6331 263.796 54.56 262.892 54.89L258.253 56.5838C257.472 56.8689 256.602 56.5219 256.231 55.7778C255.83 54.9724 256.156 53.9943 256.96 53.5906L257.977 53.0803C258.717 52.7088 258.781 51.6772 258.093 51.2167C257.77 51.0002 257.355 50.9743 257.008 51.1489L253.14 53.0906C252.012 53.6569 251.871 55.2111 252.88 55.9704C253.24 56.2414 253.477 56.644 253.541 57.0899L253.969 60.102C254.069 60.8011 253.792 61.5008 253.242 61.943Z" fill="#2F72F4"/>
<path d="M270.422 53.9025L271.476 53.3872C272.117 53.0742 272.523 52.4239 272.523 51.7113C272.523 50.755 273.246 49.9535 274.197 49.8556L285.665 48.6755C286.114 48.6293 286.535 48.4321 286.858 48.1161L291.008 44.0585C291.3 43.7733 291.498 43.4057 291.575 43.0051L293.485 33.0459C293.585 32.5232 293.473 31.9821 293.173 31.5424L290.375 27.44C289.762 26.5409 288.543 26.297 287.631 26.8913L285.81 28.0778C285.244 28.447 284.902 29.0773 284.902 29.7533V32.9744C284.902 33.4146 284.757 33.8425 284.489 34.1918L280.947 38.8089C280.679 39.159 280.302 39.4104 279.876 39.5241L273.555 41.2092C272.91 41.3813 272.393 41.8641 272.178 42.4963L271.289 45.103C271.145 45.5263 270.863 45.889 270.488 46.1331L267.864 47.8435C267.162 48.3006 266.82 49.1461 267.006 49.9623L267.593 52.549C267.879 53.8067 269.263 54.469 270.422 53.9025Z" fill="#2F72F4"/>
<path d="M212.808 146.006V147.181C212.808 147.671 212.607 148.139 212.252 148.476C211.717 148.983 210.925 149.109 210.26 148.793L209.088 148.237C208.686 148.047 208.247 147.948 207.802 147.948H203.446C202.958 147.948 202.478 147.829 202.047 147.602L197.576 145.246C196.735 144.803 196.208 143.93 196.208 142.979V142.222C196.208 141.226 195.4 140.418 194.404 140.418C193.407 140.418 192.6 139.61 192.6 138.613V136.629C192.6 135.978 192.811 135.345 193.203 134.824L195.605 131.635C195.996 131.115 196.208 130.482 196.208 129.831V125.962C196.208 125.139 196.546 124.352 197.144 123.786L198.481 122.517C199.301 121.74 200.487 121.488 201.551 121.867L203.596 122.594C204.792 123.02 205.591 124.151 205.591 125.421V129.286C205.591 130.257 205.121 131.168 204.33 131.731L201.078 134.044C200.287 134.607 199.817 135.518 199.817 136.489V136.731C199.817 137.348 200.007 137.951 200.362 138.456L201.808 140.512C202.369 141.311 203.285 141.787 204.262 141.787H207.451C208.018 141.787 208.478 142.247 208.478 142.814C208.478 143.381 208.937 143.841 209.504 143.841H210.643C211.839 143.841 212.808 144.81 212.808 146.006Z" fill="#2F72F4"/>
<path d="M111.888 204.882L114.327 207.731C114.919 208.423 114.879 209.455 114.236 210.099C113.669 210.666 112.789 210.775 112.102 210.362L103.938 205.456C103.185 205.003 102.668 204.243 102.524 203.377L102.178 201.298C102.094 200.793 101.882 200.318 101.563 199.918L99.9002 197.837C99.4755 197.305 99.2442 196.645 99.2442 195.965V188.828C99.2442 188.214 99.0553 187.614 98.7031 187.11L94.8756 181.634C94.5234 181.13 94.3345 180.53 94.3345 179.915V178.916C94.3345 177.955 93.7916 177.075 92.9318 176.645C92.072 176.214 91.529 175.335 91.529 174.374V170.832C91.529 170.495 91.5858 170.16 91.697 169.842L96.2707 156.755C96.3819 156.436 96.4387 156.102 96.4387 155.765V153.305C96.4387 152.946 96.3742 152.589 96.2482 152.253L94.525 147.651C94.3991 147.314 94.3345 146.958 94.3345 146.599V138.01C94.3345 135.574 91.4482 134.29 89.6386 135.921L88.1768 137.239C87.6257 137.735 86.9102 138.01 86.1683 138.01H83.8671C82.6756 138.01 81.7097 137.044 81.7097 135.853C81.7097 135.428 81.8355 135.012 82.0712 134.658L84.9253 130.37C85.5368 129.451 85.5946 128.271 85.076 127.297L80.7092 119.097C80.4463 118.604 80.3267 118.046 80.3638 117.488L80.625 113.565C80.7849 111.163 78.156 109.591 76.1155 110.868C75.6462 111.162 75.1037 111.317 74.55 111.317H69.7941C68.553 111.317 67.4712 112.162 67.1706 113.367C67.0466 113.863 66.784 114.315 66.4135 114.668L38.4522 141.339C37.8587 141.905 37.5229 142.689 37.5229 143.509V148.763C37.5229 149.085 37.471 149.405 37.3693 149.711L34.8307 157.338C34.7554 157.564 34.7073 157.799 34.6876 158.037L34.0782 165.36C34.0374 165.851 33.876 166.325 33.6084 166.739L30.0556 172.238C28.6308 174.443 25.2609 173.884 24.6251 171.337L24.1967 169.62L17.8497 147.548C17.7722 147.279 17.7329 147 17.7329 146.719V132.932C17.7329 132.136 18.0494 131.372 18.6128 130.809L28.2874 121.146C28.3654 121.068 28.4324 120.98 28.4867 120.884L29.6046 118.908C30.057 118.108 29.0537 117.283 28.3565 117.882C27.8247 118.338 27.0022 117.96 27.0022 117.259V115.503C27.0022 115.072 27.1733 114.658 27.4779 114.353L29.425 112.403C29.9234 111.904 29.7228 111.055 29.0538 110.832C28.6663 110.702 28.4049 110.339 28.4049 109.931V107.739C28.4049 107.319 28.4928 106.905 28.6628 106.522L29.5498 104.523C29.7198 104.14 29.8077 103.725 29.8077 103.306V101.714C29.8077 101.561 29.7889 101.408 29.7518 101.259L29.7191 101.128C29.4206 99.9324 28.0271 99.394 27.0022 100.078C25.7136 100.724 24.1967 99.7866 24.1967 98.3456V94.4587V34.0181C24.1967 33.1454 24.5767 32.3159 25.2377 31.746L104.115 -36.2604C104.596 -36.6751 105.196 -36.9264 105.829 -36.9782L216.374 -46.0303H231.396C232.059 -46.0303 232.647 -45.6058 232.857 -44.9766C233.066 -44.3474 233.655 -43.9229 234.318 -43.9229H251.098C251.723 -43.9229 252.278 -43.5228 252.475 -42.9298C252.692 -42.28 253.333 -41.8697 254.013 -41.9455L271.486 -43.8898C271.684 -43.9118 271.883 -43.9141 272.082 -43.8966L295.132 -41.8597C295.462 -41.8305 295.785 -41.7468 296.088 -41.6121L301.36 -39.2651C301.744 -39.0941 302.16 -39.0058 302.58 -39.0058H321.039C321.835 -39.0058 322.599 -38.6891 323.162 -38.1255L323.817 -37.4691C324.19 -37.0953 324.656 -36.8267 325.166 -36.6904L334.527 -34.1903C334.78 -34.1229 335.04 -34.0887 335.301 -34.0887H339.396C339.676 -34.0887 339.953 -34.0497 340.222 -33.9729L348.939 -31.4785C349.396 -31.3476 349.813 -31.1022 350.149 -30.7654L351.298 -29.6145C352.172 -28.7392 351.868 -27.2556 350.72 -26.7957L350.163 -26.5727C349.845 -26.4453 349.637 -26.1373 349.637 -25.7948C349.637 -25.3321 349.261 -24.9569 348.799 -24.9569H346.891C346.393 -24.9569 345.904 -24.8213 345.477 -24.5647L344.354 -23.8902C343.308 -23.2611 341.984 -23.3294 341.007 -24.0629L340.618 -24.3556C340.098 -24.7459 339.466 -24.9569 338.816 -24.9569H338.256C337.459 -24.9569 336.695 -24.6402 336.133 -24.0766L335.634 -23.577C335.169 -23.1113 334.538 -22.8496 333.88 -22.8496H333.138C332.178 -22.8496 331.401 -22.0719 331.401 -21.1126C331.401 -20.4551 331.772 -19.8539 332.36 -19.5595L335.355 -18.0596C336.37 -17.5511 337.012 -16.5128 337.012 -15.3772V-13.076C337.012 -12.2007 336.452 -11.4236 335.622 -11.1464C335.161 -10.9926 334.77 -10.679 334.521 -10.2623L332.803 -7.39579L331.191 -3.62867C330.893 -2.93109 330.207 -2.47868 329.448 -2.47868C328.544 -2.47868 327.766 -3.11684 327.589 -4.00326L327.383 -5.03631C327.259 -5.65678 326.942 -6.22219 326.478 -6.65171L318.789 -13.7594C318.325 -14.189 318.008 -14.7544 317.884 -15.3748L317.722 -16.1841C317.507 -17.2617 317.898 -18.3707 318.742 -19.0749L324.94 -24.248C325.397 -24.6289 325.428 -25.3192 325.008 -25.7398C324.652 -26.0966 324.087 -26.1367 323.684 -25.8339L322.919 -25.2596C322.135 -24.6707 321.049 -24.6985 320.297 -25.3268L318.208 -27.0699C317.669 -27.5201 316.988 -27.7667 316.286 -27.7667H315.756C315.434 -27.7667 315.113 -27.7146 314.806 -27.6123L312.735 -26.9207C311.735 -26.5869 311.061 -25.651 311.061 -24.5969C311.061 -23.244 309.964 -22.1471 308.611 -22.1471H308.224C307.783 -22.1471 307.348 -22.2499 306.954 -22.4474L303.98 -23.9369C303.563 -24.1458 303.103 -24.2545 302.636 -24.2545H290.95C290.797 -24.2545 290.645 -24.2428 290.494 -24.2195L282.175 -22.9378C281.797 -22.8795 281.434 -22.7494 281.104 -22.5546L269.194 -15.5058C267.829 -14.6983 267.823 -12.7262 269.182 -11.9095C269.507 -11.7138 269.88 -11.6105 270.26 -11.6105H271.653C272.197 -11.6105 272.731 -11.7586 273.198 -12.039L274.26 -12.6772C275.307 -13.3063 276.631 -13.238 277.607 -12.5045L280.404 -10.4032C281.159 -9.83653 281.603 -8.948 281.603 -8.0045V-3.66726C281.603 -3.34527 281.551 -3.02538 281.449 -2.71987L279.677 2.60422C279.559 2.95887 279.376 3.28834 279.137 3.57566L272.727 11.2797C272.566 11.4726 272.382 11.6446 272.179 11.7917L261.55 19.4798C260.534 20.2146 259.168 20.2402 258.126 19.544L256.408 18.3972C255.915 18.068 255.335 17.8922 254.742 17.8922H253.389C252.592 17.8922 251.829 18.2089 251.266 18.7725L242.304 27.748C241.862 28.1908 241.292 28.4843 240.675 28.5873L238.365 28.9729C237.748 29.076 237.178 29.3694 236.736 29.8123L236.136 30.4132C235.225 31.3259 234.999 32.719 235.575 33.8729L235.755 34.2342C235.926 34.5755 236.16 34.8812 236.444 35.1349L241.32 39.4756C241.96 40.0448 242.326 40.8602 242.326 41.7163V45.8963C242.326 46.8398 241.882 47.7283 241.127 48.295L240.321 48.9009C239.801 49.2912 239.169 49.5023 238.519 49.5023H234.318C233.655 49.5023 233.066 49.9267 232.857 50.5559C232.647 51.1851 232.059 51.6096 231.396 51.6096H231.331C230.43 51.6096 229.701 50.8798 229.701 49.9795V49.6222C229.701 49.0956 229.91 48.5905 230.282 48.2179L230.402 48.0974C230.851 47.6476 231.103 47.0379 231.103 46.4023V43.8875C231.103 43.4224 231.212 42.9636 231.419 42.5475L231.944 41.4974C232.28 40.8242 232.148 40.0116 231.616 39.4791C231.288 39.1503 230.842 38.9656 230.378 38.9656H228.45C227.904 38.9656 227.38 38.7483 226.994 38.3616L226.636 38.0036C225.762 37.1283 226.088 35.6363 227.236 35.1763C227.872 34.9216 228.298 34.3019 228.298 33.617C228.298 32.6914 227.548 31.9411 226.622 31.9411H220.591C220.124 31.9411 219.664 32.0499 219.247 32.2587L216.366 33.7016C215.922 33.9237 215.409 33.9602 214.938 33.8032L213.676 33.3818C212.755 33.0743 212.571 31.8521 213.361 31.2872C214.301 30.6145 213.825 29.1314 212.669 29.1314H211.321C210.96 29.1314 210.609 29.2518 210.324 29.4737L205.155 33.4998C204.696 33.8578 204.139 34.0745 203.558 34.123C200.856 34.3485 199.788 37.7599 201.903 39.4556L202.222 39.7111C202.754 40.1379 203.416 40.3705 204.098 40.3705H210.062H212.865C213.641 40.3705 214.27 40.9995 214.27 41.7754C214.27 42.5513 213.641 43.1803 212.865 43.1803H209.661C209.011 43.1803 208.378 43.3913 207.859 43.7816L202.421 47.8663C201.185 48.7942 200.857 50.5087 201.662 51.8276L207.453 61.3195C207.781 61.857 207.932 62.4841 207.884 63.1119L207.292 70.8209C207.268 71.1239 207.199 71.4216 207.087 71.7039L206.082 74.2188C205.931 74.5959 205.706 74.9384 205.419 75.2258L197.437 83.2196L178.684 102.673C178.118 103.259 177.338 103.591 176.524 103.591H168.737C168.24 103.591 167.75 103.714 167.313 103.95L151.493 112.482C150.432 113.053 149.133 112.935 148.193 112.182L147.059 111.274C146.527 110.847 145.865 110.615 145.183 110.615H141.746C141.023 110.615 140.325 110.876 139.779 111.349L131.138 118.85C130.482 119.419 130.105 120.246 130.105 121.115V126.433C130.105 127.107 130.332 127.761 130.749 128.291L139.982 140.003C140.399 140.532 140.626 141.187 140.626 141.86V156.344C140.626 157.194 140.265 158.004 139.634 158.572L134.468 163.229C133.917 163.726 133.201 164.001 132.459 164.001H131.244C129.777 164.001 128.526 165.061 128.285 166.508L128.173 167.181C128.061 167.851 127.726 168.463 127.222 168.917L121.565 174.016C121.193 174.352 120.71 174.537 120.208 174.537C119.089 174.537 118.181 173.63 118.181 172.511V172.457C118.181 171.985 118.342 171.527 118.636 171.158L120.418 168.927C120.786 168.467 120.987 167.894 120.987 167.304V167.062C120.987 165.759 119.931 164.703 118.628 164.703C117.903 164.703 117.219 164.37 116.772 163.8L110.666 156.017C110.097 155.292 109.227 154.869 108.305 154.869H106.963C105.799 154.869 104.855 153.926 104.855 152.762V152.408C104.855 151.439 104.07 150.654 103.102 150.654C102.133 150.654 101.348 151.439 101.348 152.408V154.162C101.348 154.627 101.24 155.086 101.032 155.502L97.456 162.666C97.2482 163.082 97.1401 163.54 97.1401 164.006V168.913C97.1401 169.378 97.2482 169.837 97.456 170.253L98.2269 171.797C98.4347 172.214 98.5428 172.672 98.5428 173.137V178.625C98.5428 179.168 98.6902 179.701 98.9693 180.166L99.9346 181.778C100.387 182.532 101.147 183.05 102.014 183.195L103.488 183.441C104.355 183.586 105.116 184.104 105.568 184.858L110.741 193.494C111.02 193.96 111.168 194.493 111.168 195.036V202.932C111.168 203.647 111.423 204.339 111.888 204.882Z" fill="#2F72F4"/>
<path d="M341.452 246.078H338.73C338.135 246.078 337.58 246.383 337.261 246.886C336.736 247.712 336.995 248.809 337.835 249.313L340.977 251.197C341.287 251.383 341.643 251.481 342.005 251.481H346.541C347.052 251.481 347.543 251.286 347.914 250.935L354.113 245.081C354.485 244.73 354.976 244.535 355.487 244.535H355.634C356.738 244.535 357.634 243.639 357.634 242.535V241.132C357.634 240.027 356.738 239.132 355.634 239.132H355.22C354.116 239.132 353.22 240.027 353.22 241.132V242.059C353.22 242.65 352.959 243.211 352.506 243.591L350.1 245.61C349.74 245.913 349.285 246.078 348.814 246.078H341.452Z" fill="#2F72F4"/>
<path d="M177.902 221.019L178.943 214.257C179.093 213.282 179.932 212.562 180.92 212.562H182.846C183.569 212.562 184.156 211.975 184.156 211.251C184.156 210.755 183.875 210.301 183.431 210.079L182.432 209.58C181.755 209.241 181.326 208.549 181.326 207.791V204.908C181.326 204.378 181.115 203.869 180.74 203.493L179.79 202.545C179.415 202.169 179.204 201.661 179.204 201.13V196.426C179.204 195.895 179.415 195.386 179.79 195.011L182.155 192.648C182.53 192.273 183.039 192.062 183.569 192.062H185.109C186.145 192.062 186.986 191.222 186.986 190.185C186.986 189.239 186.281 188.44 185.341 188.323L181.794 187.88C181.487 187.841 181.192 187.732 180.934 187.56L180.095 187.001C179.538 186.63 179.204 186.006 179.204 185.337V182.752C179.204 181.648 178.308 180.752 177.204 180.752H176.959C175.855 180.752 174.959 181.648 174.959 182.752V183.585C174.959 184.039 174.804 184.48 174.52 184.835L172.129 187.821L168.817 191.793C168.668 191.971 168.489 192.122 168.289 192.239L152.057 201.7C151.766 201.87 151.523 202.11 151.349 202.399L147.496 208.816C147.411 208.957 147.31 209.086 147.195 209.202L146.444 209.952C145.753 210.642 144.664 210.732 143.869 210.165L141.672 208.597C140.877 208.03 139.788 208.12 139.097 208.81L136.195 211.71C135.67 212.234 135.479 213.005 135.697 213.714L137.737 220.34C137.996 221.179 138.771 221.751 139.649 221.751H141.124C142.229 221.751 143.124 222.647 143.124 223.751V230.354C143.124 231.459 144.02 232.354 145.124 232.354H150.674C150.828 232.354 150.982 232.372 151.132 232.407L162.379 235.052C162.741 235.137 163.072 235.321 163.335 235.584L165.071 237.318C165.507 237.754 166.12 237.965 166.732 237.888L170.11 237.466C170.906 237.367 171.565 236.802 171.785 236.032L172.76 232.624C172.811 232.445 172.837 232.26 172.837 232.074V226.913C172.837 226.329 173.092 225.774 173.536 225.394L177.226 222.233C177.589 221.922 177.829 221.491 177.902 221.019Z" fill="#2F72F4"/>
<path d="M122.703 239.997V242.868C122.703 244.525 121.36 245.868 119.703 245.868H117.638C116.535 245.868 115.641 244.974 115.641 243.871C115.641 243.319 115.412 242.791 115.009 242.413L106.634 234.579C106.519 234.471 106.395 234.372 106.264 234.284L103.544 232.446C102.718 231.888 102.223 230.956 102.223 229.96V227.3C102.223 226.803 102.1 226.315 101.865 225.878L98.4987 219.623C98.1674 219.008 97.6317 218.527 96.984 218.264L96.3281 217.999C95.1959 217.54 94.4552 216.44 94.4552 215.218V211.06C94.4552 210.425 94.2534 209.806 93.879 209.292L82.8538 194.175C82.5909 193.814 82.2227 193.544 81.7999 193.401C80.922 193.105 80.3311 192.281 80.3311 191.355V190.023C80.3311 189.243 80.9634 188.611 81.7435 188.611H82.0221C82.6482 188.611 83.1559 189.118 83.1559 189.745C83.1559 190.322 83.5894 190.807 84.1628 190.871L87.8824 191.29C88.8978 191.405 89.7851 192.028 90.2371 192.944L91.3862 195.273C91.5476 195.6 91.7674 195.895 92.0347 196.144L99.182 202.783C99.7705 203.33 100.105 204.097 100.105 204.9C100.105 205.898 100.619 206.824 101.465 207.352L107.873 211.348C108.752 211.896 109.285 212.859 109.285 213.894V214.932C109.285 215.504 109.449 216.064 109.757 216.546L116.922 227.769C117.01 227.906 117.108 228.036 117.217 228.157L122.878 234.468C123.637 235.314 123.852 236.515 123.435 237.572L122.913 238.896C122.774 239.246 122.703 239.62 122.703 239.997Z" fill="#2F72F4"/>
<path d="M214.734 186.383L217.598 187.184C218.281 187.375 219.015 187.229 219.573 186.79L220.569 186.006C220.943 185.712 221.02 185.177 220.745 184.789C220.427 184.34 220.587 183.714 221.081 183.472L222.694 182.682C222.926 182.569 223.138 182.419 223.323 182.238L225.859 179.756C226.706 178.927 226.706 177.563 225.859 176.734C225.452 176.336 225.223 175.791 225.223 175.223V172.567C225.223 172.093 225.111 171.625 224.895 171.203L223.297 168.075C223.133 167.753 222.869 167.493 222.544 167.334C221.434 166.791 220.138 167.599 220.138 168.835V168.911C220.138 169.419 219.914 169.901 219.524 170.227L215.89 173.277C215.349 173.73 214.667 173.979 213.961 173.979H212.404C211.765 173.979 211.143 173.775 210.629 173.397L210.29 173.149C209.234 172.373 207.796 172.373 206.74 173.149L203.307 175.668C202.928 175.947 202.704 176.39 202.704 176.861V176.907C202.704 178.2 204.26 178.854 205.184 177.95C205.457 177.683 205.823 177.534 206.205 177.534H210.139C210.947 177.534 211.709 177.91 212.201 178.551L212.624 179.104C213.181 179.831 213.108 180.86 212.453 181.501C211.849 182.092 211.734 183.022 212.176 183.742L212.985 185.062C213.38 185.708 214.005 186.179 214.734 186.383Z" fill="#2F72F4"/>
<path d="M200.956 226.619L203.181 224.675C204.572 223.46 203.712 221.169 201.865 221.169H201.746C201.308 221.169 200.882 221.313 200.533 221.579L197.551 223.854C196.82 224.411 195.805 224.399 195.088 223.824L194.134 223.061C193.779 222.777 193.339 222.622 192.884 222.622H190.143C189.038 222.622 188.143 223.518 188.143 224.622V227.019C188.143 227.465 187.994 227.898 187.719 228.25L185.164 231.523C184.89 231.875 184.741 232.308 184.741 232.754V233.698C184.741 234.803 185.636 235.698 186.741 235.698H187.88C188.055 235.698 188.228 235.721 188.396 235.766L193.586 237.151L199.124 238.465C199.506 238.555 199.853 238.757 200.122 239.044L202.572 241.659C202.919 242.03 203.112 242.519 203.112 243.026V244.507C203.112 245.259 203.721 245.868 204.473 245.868C205.224 245.868 205.834 245.259 205.834 244.507V240.456C205.834 240.193 205.781 239.931 205.68 239.688L203.112 233.519L200.546 229.135C200.061 228.307 200.233 227.25 200.956 226.619Z" fill="#2F72F4"/>
<path d="M221.489 262.708H225.478C226.541 262.708 227.403 263.57 227.403 264.633C227.403 265.696 226.541 266.558 225.478 266.558H223.711C223.323 266.558 222.943 266.671 222.618 266.883L215.756 271.365C215.43 271.577 215.05 271.69 214.662 271.69H213.685C212.58 271.69 211.685 270.795 211.685 269.69V269.021C211.685 268.293 212.081 267.622 212.718 267.27L220.521 262.958C220.817 262.794 221.15 262.708 221.489 262.708Z" fill="#2F72F4"/>
<path d="M162.18 257.61L163.356 258.433C164.797 259.441 165.655 261.09 165.655 262.849C165.655 264.011 164.713 264.954 163.55 264.954H162.045C161.27 264.954 160.642 264.325 160.642 263.55C160.642 262.775 160.013 262.147 159.238 262.147H153.045C152.383 262.147 151.723 262.061 151.084 261.89L145.347 260.357C144.652 260.171 144.169 259.542 144.169 258.823C144.169 257.946 143.458 257.235 142.582 257.235H133.997C132.682 257.235 131.387 256.911 130.227 256.291L125.043 253.521C124.472 253.216 124.116 252.621 124.116 251.973C124.116 251.004 124.901 250.219 125.871 250.219H129.061C129.494 250.219 129.845 249.867 129.845 249.434C129.845 248.839 130.482 248.46 131.005 248.745L135.648 251.272C136.073 251.503 136.537 251.654 137.017 251.717L147.034 253.025H150.2C150.825 253.025 151.331 253.532 151.331 254.157C151.331 254.716 151.74 255.192 152.294 255.275L158.785 256.254C160.006 256.438 161.168 256.902 162.18 257.61Z" fill="#2F72F4"/>
<path d="M194.095 215.06L192.695 216.013C192.095 216.421 191.317 216.46 190.679 216.113C189.46 215.449 189.314 213.757 190.401 212.894L193.465 210.461C193.739 210.243 194.064 210.102 194.41 210.049L197.169 209.632C197.718 209.549 198.213 209.975 198.213 210.53C198.213 211.032 198.62 211.439 199.122 211.439H204.378C204.597 211.439 204.814 211.475 205.022 211.546L209.367 213.024C210.055 213.258 210.817 213.1 211.355 212.612L214.963 209.338C215.331 209.004 215.81 208.819 216.307 208.819H216.649C217.628 208.819 218.421 209.613 218.421 210.592C218.421 211.127 218.179 211.635 217.762 211.971L212.783 215.987C212.249 216.417 211.532 216.544 210.883 216.323L206.465 214.82C206.258 214.749 206.04 214.713 205.821 214.713H195.22C194.819 214.713 194.427 214.834 194.095 215.06Z" fill="#2F72F4"/>
<path d="M300.8 265.821H309.989C310.677 265.821 311.317 265.467 311.683 264.884L315.412 258.941C315.777 258.358 316.417 258.004 317.106 258.004H320.38C320.724 258.004 321.062 258.093 321.361 258.262L326.965 261.419C327.128 261.511 327.277 261.625 327.408 261.757L337.634 272.127C338.123 272.624 338.835 272.829 339.514 272.671L343.557 271.724C345.176 271.345 345.653 269.271 344.361 268.224L344.027 267.952L338.589 263.127C338.477 263.028 338.378 262.917 338.291 262.796L334.073 256.915C333.395 255.969 333.664 254.646 334.659 254.041L335.166 253.732C335.863 253.308 336.233 252.504 336.1 251.699L335.803 249.892C335.689 249.195 335.215 248.61 334.557 248.353L327.062 245.43C326.702 245.289 326.39 245.047 326.164 244.732L321.503 238.233C321.127 237.709 320.522 237.398 319.877 237.398H315.096C314.769 237.398 314.447 237.318 314.158 237.164L300.324 229.816C300.035 229.662 299.713 229.582 299.386 229.582H291.954C291.639 229.582 291.329 229.508 291.049 229.366L284.197 225.891C283.507 225.542 282.678 225.621 282.067 226.095L272.478 233.531C271.713 234.124 270.632 234.084 269.913 233.436L265.416 229.382C265.051 229.053 264.82 228.602 264.767 228.114L264.272 223.601C264.196 222.903 263.759 222.297 263.121 222.003L257.515 219.418C256.853 219.113 256.077 219.192 255.49 219.625L250.844 223.052C249.782 223.835 249.756 225.414 250.792 226.232L254.495 229.152C254.848 229.431 255.284 229.582 255.734 229.582H258.645C259.75 229.582 260.645 230.493 260.645 231.598C260.645 232.123 260.439 232.634 260.07 233.008L258.7 234.397C258.174 234.931 257.99 235.714 258.224 236.426L258.318 236.713C258.761 238.06 260.426 238.531 261.509 237.616L262.292 236.954C262.976 236.376 263.961 236.324 264.703 236.825L271.674 241.538C271.795 241.62 271.925 241.689 272.061 241.742L283.75 246.352C284.213 246.534 284.59 246.882 284.81 247.328L287.846 253.485C288.311 254.429 287.965 255.572 287.055 256.1L284.765 257.427C284.148 257.784 283.768 258.444 283.768 259.157V259.218C283.768 260.658 285.244 261.626 286.565 261.052L288.291 260.302C288.543 260.192 288.814 260.136 289.089 260.136H294.063C294.645 260.136 295.197 260.389 295.577 260.83L299.285 265.127C299.665 265.567 300.218 265.821 300.8 265.821Z" fill="#2F72F4"/>
<path d="M318.475 294.297L324.363 315.171C324.487 315.61 324.756 315.993 325.128 316.257L332.75 321.686C333.786 322.424 334.501 323.528 334.752 324.775L335.465 328.333C335.66 329.302 336.137 330.192 336.837 330.89L348.137 342.157C349.176 343.194 349.708 344.634 349.59 346.098L348.471 360.047C348.407 360.841 348.155 361.608 347.735 362.285L339.266 375.925L334.362 382.212L328.219 390.788C327.656 391.574 326.877 392.179 325.978 392.532L309.158 399.12C308.234 399.482 307.222 399.561 306.253 399.346L291.102 395.989C289.658 395.669 288.43 394.727 287.747 393.414L280.137 378.78C279.556 377.663 278.1 377.354 277.115 378.139L271.754 382.416C270.444 383.461 268.507 382.528 268.507 380.852V380.02C268.507 379.229 268.04 378.512 267.317 378.192L251.065 370.99C250.107 370.565 249.039 370.452 248.012 370.668L225.774 375.336C224.036 375.701 222.622 376.96 222.059 378.644L221.873 379.201C221.259 381.039 219.638 382.356 217.714 382.582L197.409 384.964C197.169 384.992 196.927 384.976 196.692 384.918L187.353 382.59C186.462 382.368 185.837 381.567 185.837 380.649V372.954C185.837 372.612 185.749 372.275 185.582 371.976L172.891 349.332C172.649 348.9 172.472 348.435 172.367 347.952L169.653 335.503C169.264 333.721 169.877 331.869 171.251 330.67L178.82 324.067C179.731 323.272 180.898 322.834 182.107 322.834H189.845C191.304 322.834 192.689 322.198 193.639 321.092L210.137 301.877L221.856 291.032C222.514 290.423 223.496 290.326 224.26 290.795L231.361 295.151C231.818 295.432 232.37 295.517 232.89 295.387L239.75 293.678C240.222 293.56 240.636 293.273 240.912 292.872L246.699 284.48C247.632 283.126 249.171 282.318 250.815 282.318H274.241C275.76 282.318 276.724 283.945 275.995 285.278L273.411 290.002L271.894 294.034C271.555 294.936 271.907 295.952 272.732 296.45L293.023 308.712C293.84 309.206 294.892 309.053 295.535 308.348L300.912 302.45C301.248 302.082 301.435 301.601 301.435 301.103V290.259C301.435 290.088 301.456 289.918 301.5 289.753L304.591 277.937C305.015 276.318 307.119 275.904 308.124 277.241L311.542 281.784C311.802 282.13 311.943 282.552 311.943 282.986V288.823C311.943 289.551 312.338 290.221 312.974 290.573L317.519 293.091C317.986 293.349 318.33 293.784 318.475 294.297Z" fill="#2F72F4"/>
<path d="M310.729 409.533L307.513 408.436C306.216 407.994 304.868 408.959 304.868 410.33V412.044C304.868 412.31 304.921 412.572 305.023 412.817L306.578 416.528C306.799 417.056 307.236 417.464 307.777 417.648L309.849 418.355C310.578 418.603 311.385 418.411 311.924 417.86L316.231 413.455C316.822 412.85 316.969 411.939 316.597 411.179L316.393 410.761C316.058 410.075 315.361 409.64 314.597 409.64H311.374C311.154 409.64 310.936 409.604 310.729 409.533Z" fill="#2F72F4"/>
</g>
<defs>
<linearGradient id="paint0_linear" x1="242.559" y1="0" x2="242.559" y2="485" gradientUnits="userSpaceOnUse">
<stop stop-color="#244AAD"/>
<stop offset="1" stop-color="#244AAD" stop-opacity="0"/>
</linearGradient>
<linearGradient id="paint1_linear" x1="242.5" y1="0" x2="242.5" y2="485" gradientUnits="userSpaceOnUse">
<stop stop-color="#222E9A"/>
<stop offset="1" stop-color="#141C66"/>
</linearGradient>
</defs>
</svg>
