<svg width="90" height="120" viewBox="0 0 90 120" fill="none" xmlns="http://www.w3.org/2000/svg">
<path d="M26.9094 24.522L77.2175 20.9638C77.5841 20.9379 77.9253 21.1525 78.0609 21.4943L89.6063 50.5967C90.5329 52.9325 89.2274 55.5561 86.8064 56.2235L80.7299 57.8986C80.3401 58.006 80.0818 58.3783 80.1121 58.7818C82.0326 84.3249 79.0407 105.409 77.9877 118.687C77.9273 119.449 76.9605 119.767 76.4485 119.2C69.6145 111.638 52.4568 96.9764 21.2466 89.2617C20.8687 89.1683 20.5957 88.8279 20.5957 88.4383V67.1343C20.5957 66.8963 20.4953 66.6693 20.3192 66.5093L11.3229 58.3349C11.1468 58.1749 11.0464 57.9479 11.0464 57.7099V26.6091C11.0464 26.1698 11.3831 25.8039 11.8205 25.7678L26.9094 24.522Z" fill="#DBE9FF"/>
<path d="M83.0808 27.2157L31.858 30.8888C30.8008 30.9646 29.9641 31.8141 29.9034 32.8731L29.0991 46.9239C29.0086 48.5054 27.2742 49.427 25.9145 48.6162L21.3826 45.9138C17.0028 43.7886 13.7512 45.7454 12.1444 48.2383C8.32943 54.157 14.4008 58.6707 13.7644 58.0302L13.5853 57.8682C13.6692 57.9397 13.7278 57.9935 13.7644 58.0302L21.2741 64.8232C21.8515 65.3456 22.0945 66.1438 21.9061 66.8996L20.3787 73.0289C20.0839 74.2117 18.8431 74.9044 17.7723 74.3233C12.5288 71.4777 8.46618 64.863 6.338 61.6869C-3.11843 47.5741 -4.44586 13.3705 28.9004 2.41259C62.2466 -8.54533 84.5908 21.2254 85.2544 23.8819C85.7518 25.8729 84.3467 26.8535 83.4396 27.1515C83.3237 27.1896 83.2025 27.207 83.0808 27.2157Z" fill="#0A39D1"/>
<path d="M73.682 65.5878C71.1326 65.7947 65.1442 64.5629 61.5859 57.981C61.8488 62.25 64.6416 71.1028 73.7099 72.361" stroke="#0F0967" stroke-width="2" stroke-linecap="round" stroke-linejoin="round"/>
<ellipse cx="69.546" cy="41.2649" rx="1.99081" ry="1.9924" fill="#0F0967"/>
</svg>
