<svg width="1920" height="899" viewBox="0 0 1920 899" fill="none" xmlns="http://www.w3.org/2000/svg">
<path d="M1740 380C1740 374.477 1744.48 370 1750 370H2154V873H1750C1744.48 873 1740 868.523 1740 863V380Z" fill="#17238E"/>
<path d="M1775.63 648.676C1775.63 643.153 1780.1 638.676 1785.63 638.676H2154V836.195H1785.63C1780.1 836.195 1775.63 831.718 1775.63 826.195V648.676Z" fill="#0D197C"/>
<path d="M1775.63 416.805C1775.63 411.282 1780.1 406.805 1785.63 406.805H2154V604.324H1785.63C1780.1 604.324 1775.63 599.847 1775.63 594.324V416.805Z" fill="#0D197C"/>
<rect width="34.3976" height="116.549" rx="2" transform="matrix(0.999993 -0.00374163 0.00375175 0.999993 1788.76 488.174)" fill="#17238E"/>
<rect width="34.3976" height="116.549" rx="2" transform="matrix(0.999993 -0.00374163 0.00375175 0.999993 1822.63 487.904)" fill="#1F2CA5"/>
<rect x="1856.71" y="692.656" width="114.249" height="143.539" rx="2" fill="#1F2CA5"/>
<rect x="1868.99" y="704.924" width="90.908" height="119.002" rx="2" fill="#17238E"/>
<circle cx="1309.5" cy="90.5" r="90.5" fill="url(#paint0_linear)"/>
<circle cx="1309.5" cy="90.4993" r="76.1634" fill="url(#paint1_linear)"/>
<path d="M1307 41.3866C1307.06 39.7903 1308.37 38.5293 1309.97 38.5293C1311.59 38.5293 1312.91 39.8242 1312.95 41.4435L1313.89 86.4153C1313.94 88.6569 1312.14 90.4996 1309.9 90.4996H1309.18C1306.91 90.4996 1305.1 88.6092 1305.19 86.3388L1307 41.3866Z" fill="#CBDDFF"/>
<path d="M1273.97 114.156C1272.55 114.886 1270.81 114.373 1270.01 112.989C1269.2 111.582 1269.65 109.784 1271.04 108.936L1301.76 90.1413C1303.68 88.9676 1306.19 89.6057 1307.31 91.5534L1307.64 92.1234C1308.78 94.1026 1308.04 96.6352 1306.01 97.6805L1273.97 114.156Z" fill="#CBDDFF"/>
<ellipse cx="1309.5" cy="90.4995" rx="8.96039" ry="8.9604" fill="#CBDDFF"/>
<ellipse cx="1309.5" cy="90.4993" rx="5.37624" ry="5.37624" fill="#1323B7"/>
<path fill-rule="evenodd" clip-rule="evenodd" d="M1516.8 428.199C1511.43 433.408 1501.32 435.565 1494.42 432.665C1477.08 425.377 1457.86 431.335 1449.78 440.344C1437.26 454.29 1433.32 469.697 1434.02 484.353C1434.08 485.434 1435.44 485.861 1436.17 485.061C1447.33 472.796 1462.88 468.797 1470.91 476.128C1478.94 483.459 1476.4 499.344 1465.24 511.608C1462.95 514.128 1460.47 516.299 1457.91 518.094C1452.47 521.907 1449.12 529.42 1452.98 534.825C1454.24 536.591 1455.47 538.19 1456.62 539.599C1471.6 557.9 1494.98 575.426 1513.39 585.447L1516.98 727.63L1526.56 790.672L1526.56 790.667L1526.56 790.632C1526.57 790.598 1526.57 790.544 1526.57 790.47C1526.58 790.396 1526.58 790.302 1526.59 790.189C1526.59 790.076 1526.6 789.945 1526.61 789.794C1526.64 789.19 1526.7 788.283 1526.8 787.103C1526.99 784.743 1527.34 781.29 1527.94 776.974C1529.15 768.336 1531.38 756.262 1535.49 742.57C1543.03 717.458 1556.81 687.127 1581.91 662.482C1583.24 663.239 1584.61 663.997 1586.03 664.755C1588.88 666.283 1592.37 666.266 1595.23 664.753L1703.38 607.552C1709 604.584 1710.41 597.222 1705.66 593.011C1697.75 586.013 1686.88 578.679 1673.56 573.159C1672.79 572.842 1671.93 573.258 1671.66 574.044C1664.91 594.174 1649.4 607.113 1637.01 602.945C1628.47 600.072 1623.64 589.817 1623.68 577.128C1623.7 570.551 1618.81 564.387 1612.29 565.254C1601.38 566.705 1589.85 569.692 1577.79 574.639C1565.45 580.959 1551.44 591.923 1546.11 605.549C1543.85 611.325 1549.57 616.242 1555.71 617.049C1556.67 617.174 1557.64 617.33 1558.62 617.517C1570.52 619.787 1579.38 625.811 1578.4 630.971C1577.42 636.131 1566.97 638.474 1555.07 636.203C1553.12 635.832 1551.58 637.96 1552.82 639.504C1557.73 645.617 1564.9 651.892 1574.84 658.231C1549.39 683.857 1535.46 714.866 1527.83 740.267C1526.98 743.096 1526.21 745.857 1525.51 748.537L1521.5 589.518C1529.1 592.982 1535.23 594.648 1538.59 593.866C1544.83 592.416 1552.02 584.541 1558.13 576.118C1561.67 571.242 1559.51 564.422 1555.19 560.223C1554.57 559.612 1553.95 558.971 1553.35 558.301C1544.19 548.066 1542.2 534.892 1548.9 528.877C1555.6 522.861 1568.45 526.282 1577.61 536.517C1578.38 537.38 1579.82 537.192 1580.27 536.125C1583.67 528.034 1586.28 520.335 1588.22 513.041C1589.87 506.815 1584.67 501.043 1578.44 499.396C1577.42 499.126 1576.4 498.815 1575.37 498.463C1560.05 493.216 1550.42 480.806 1553.85 470.744C1557.29 460.683 1572.49 456.78 1587.81 462.027C1589.26 462.526 1590.79 461.289 1590.44 459.788C1585.94 440.52 1575.56 428.29 1566.08 423.895C1541.9 412.68 1525.9 419.373 1516.8 428.199ZM1405.73 648.9C1405.04 647.194 1405.79 645.277 1407.34 644.299C1421.81 635.195 1429 620.571 1423.4 611.633C1421.27 608.232 1417.59 606.144 1413.05 605.365C1406.2 604.188 1399.42 599.155 1400.91 592.363C1402.73 584.016 1405.5 576.658 1408.51 570.632C1411.35 564.941 1418.86 564.629 1423.03 569.438L1485.43 641.425C1487.55 643.866 1488.37 647.22 1487.51 650.335C1479.84 678.375 1468.42 689.525 1456.71 691.575C1452.7 692.278 1450.18 687.961 1450.55 683.901C1451.41 674.154 1447.42 665.834 1441.63 665.318C1435.84 664.802 1430.45 672.286 1429.58 682.033C1429.55 682.357 1429.18 682.526 1428.92 682.326C1425.02 679.27 1421.53 675.798 1418.66 672.399C1413.04 664.482 1408.81 656.608 1405.73 648.9Z" fill="url(#paint2_linear)"/>
<path d="M1602.52 771.635H1445.81C1442.75 771.635 1439.84 773.016 1438.04 775.489C1430.93 785.253 1424.1 798.158 1424.5 815.642C1425.17 845.431 1453.64 879.113 1473.49 879.113H1575.71C1595.57 879.113 1623.44 846.531 1623.87 815.642C1624.15 794.843 1616.28 782.977 1610.42 775.451C1608.53 773.025 1605.6 771.635 1602.52 771.635Z" fill="url(#paint3_linear)"/>
<path d="M503.63 531C503.63 475.772 458.859 431 403.63 431H-229.531C-284.759 431 -329.531 475.772 -329.531 531V574.345C-329.531 629.573 -284.759 674.345 -229.531 674.345H403.63C458.859 674.345 503.63 629.573 503.63 574.345V531Z" fill="url(#paint4_linear)"/>
<path d="M281.087 500.313C320.217 490.573 439.314 492.357 447.195 508.323C455.103 524.345 447.195 675.271 447.195 675.271H215.218C224.827 583.698 262.022 509.651 280.304 500.594C280.567 500.463 280.803 500.383 281.087 500.313Z" fill="url(#paint5_linear)"/>
<path d="M315.266 554.335C264.754 543.499 214.039 549.808 191.724 555.062C189.834 555.507 188.152 556.521 186.902 558.007C160.329 589.584 151.931 648.959 151.073 675.27H321.541C329.145 629.011 325.895 584.037 322.606 562.106C322.025 558.23 319.098 555.157 315.266 554.335Z" fill="url(#paint6_linear)"/>
<path d="M492.887 694.391C492.887 683.345 483.933 674.391 472.887 674.391H-321C-332.046 674.391 -341 683.345 -341 694.391V789.706C-341 800.751 -332.046 809.706 -321 809.706H472.887C483.933 809.706 492.887 800.751 492.887 789.706V694.391Z" fill="url(#paint7_radial)"/>
<path d="M492.98 829.537C492.98 818.491 484.026 809.537 472.98 809.537H-321C-332.046 809.537 -341 818.491 -341 829.537V860.001C-341 871.046 -332.046 880.001 -321 880.001H472.98C484.026 880.001 492.98 871.046 492.98 860.001V829.537Z" fill="url(#paint8_linear)"/>
<path d="M433.176 565.363C433.176 525.095 465.82 492.451 506.088 492.451C546.356 492.451 579 525.095 579 565.363V830C579 857.615 556.614 880 529 880H443.176C437.653 880 433.176 875.523 433.176 870V565.363Z" fill="#263EBC"/>
<defs>
<linearGradient id="paint0_linear" x1="1267.39" y1="13.4406" x2="1354.3" y2="175.624" gradientUnits="userSpaceOnUse">
<stop stop-color="#E9F0FF"/>
<stop offset="1" stop-color="#A3BBE9"/>
</linearGradient>
<linearGradient id="paint1_linear" x1="1259.32" y1="30.4647" x2="1344.45" y2="166.663" gradientUnits="userSpaceOnUse">
<stop stop-color="#081A79"/>
<stop offset="1" stop-color="#0F43EC"/>
</linearGradient>
<linearGradient id="paint2_linear" x1="1566.66" y1="419.562" x2="1541.36" y2="791.678" gradientUnits="userSpaceOnUse">
<stop stop-color="#2D3DCA"/>
<stop offset="1" stop-color="#2D3DCA" stop-opacity="0"/>
</linearGradient>
<linearGradient id="paint3_linear" x1="1524.18" y1="771.635" x2="1524.18" y2="879.113" gradientUnits="userSpaceOnUse">
<stop stop-color="#1D2DAC"/>
<stop offset="1" stop-color="#0D1D8C"/>
</linearGradient>
<linearGradient id="paint4_linear" x1="87.0497" y1="431" x2="87.0497" y2="674.345" gradientUnits="userSpaceOnUse">
<stop stop-color="#1E2CA2"/>
<stop offset="1" stop-color="#1E2CA2" stop-opacity="0"/>
</linearGradient>
<linearGradient id="paint5_linear" x1="332.964" y1="494.326" x2="332.964" y2="675.271" gradientUnits="userSpaceOnUse">
<stop stop-color="#466ED3"/>
<stop offset="1" stop-color="#1745BB"/>
</linearGradient>
<linearGradient id="paint6_linear" x1="238.636" y1="548.396" x2="238.636" y2="675.27" gradientUnits="userSpaceOnUse">
<stop stop-color="#1B3FBD"/>
<stop offset="1" stop-color="#0C288C"/>
</linearGradient>
<radialGradient id="paint7_radial" cx="0" cy="0" r="1" gradientUnits="userSpaceOnUse" gradientTransform="translate(43.8709 742.048) scale(390.143 2404.11)">
<stop stop-color="#253FC6"/>
<stop offset="1" stop-color="#142998"/>
</radialGradient>
<linearGradient id="paint8_linear" x1="75.9903" y1="809.707" x2="75.9903" y2="880.001" gradientUnits="userSpaceOnUse">
<stop stop-color="#101F9D"/>
<stop offset="1" stop-color="#1124A7"/>
</linearGradient>
</defs>
</svg>
