<?xml version="1.0" encoding="UTF-8"?>
<svg fill="none" viewBox="0 0 287 751" xmlns="http://www.w3.org/2000/svg">
<path d="m269 22.464c-12.946-0.9513-29.247-2.8538-46.988-10.464-0.479 17.598 13.904 36.146 44.592 39" stroke="#0F0967" stroke-linecap="round" stroke-linejoin="round" stroke-width="4"/>
<path d="m173.82 44.329h39.181v-44.329h-48.259c-53.515 0-64.186 49.254-62.593 76.652v406.35h44.914v-409.12c0-23.642 16.565-29.552 26.757-29.552z" fill="url(#b)"/>
<path d="m157.48 587.42c-7.372-59.308 12.384-77.396 26.619-85.717 24.572-14.364 47.095 1.737 55.286 11.583 40.953 50.503 17.064 120.28 0 148.85-34.81 59.771-88.225 57.256-113.64 50.389-27.438-7.415-30.373-26.353-28.155-35.62 0.8191-6.95 8.6058-8.067 18.429-11.294 39.2-12.876 43.512-57.338 41.464-78.188z" fill="#D2268A"/>
<path d="m102.23 428h45.044v39.585c0 11.163 2.543 18.443 7.4 24.086 5.956-6.293 12.121-10.572 17.332-13.623 19.117-11.193 37.97-10.494 52.968-5.149 14.288 5.092 25.479 14.443 32.056 22.363l0.105 0.127 0.103 0.127c26.357 32.556 31.299 71.062 27.739 103.7-3.496 32.036-15.271 60.455-25.477 77.615-42.901 73.648-109.76 70.185-140.12 61.97-18.346-4.965-32.103-14.895-40.135-29.013-7.4075-13.02-8.431-27.043-6.2036-37.945 2.616-16.024 13.824-23.433 20.165-26.439 3.97-1.883 9.8471-3.669 13.231-4.699 0.874-0.265 1.581-0.48 2.046-0.634 11.216-3.689 17.054-11.279 20.513-20.56 3.754-10.074 4.282-21.545 3.616-28.815-1.271-10.374-1.841-19.972-1.756-28.853-1.034-4.765-2.45-7.279-4.573-10.655-2.035-3.236-3.938-6.169-5.709-8.897-12.414-19.134-18.343-28.272-18.343-62.236v-52.059zm81.369 73.714c24.556-14.377 47.066 1.74 55.251 11.595 40.928 50.555 17.054 120.4 0 149-34.788 59.83-88.17 57.312-113.57 50.438-27.421-7.421-30.354-26.38-28.137-35.656 0.6893-5.859 6.3188-7.576 13.943-9.902 1.428-0.436 2.926-0.893 4.474-1.402 39.176-12.889 43.485-57.395 41.439-78.266-7.368-59.366 12.375-77.473 26.602-85.804z" clip-rule="evenodd" fill="#00D7D7" fill-rule="evenodd"/>
<path d="m157.48 587.42c-7.372-59.308 12.384-77.396 26.619-85.717 24.572-14.364 47.095 1.737 55.286 11.583 40.953 50.503 17.064 120.28 0 148.85-34.81 59.771-88.225 57.256-113.64 50.389-27.438-7.415-30.373-26.353-28.155-35.62 0.8191-6.95 8.6058-8.067 18.429-11.294 39.2-12.876 43.512-57.338 41.464-78.188z" fill="#009393"/>
<path d="m132.25 105.22c-1.483 1.975-3.985 1.919-5.051 1.644-2.264 2.186-4.782 0.733-5.758-0.268-1.373-1.793 0.778-5.687 2.025-7.4108 2.697-4.6108 6.893-3.2136 8.654-1.9386 3.339 2.1632 1.478 6.2164 0.13 7.9734z" fill="#CA0D7B"/>
<path d="m139.99 159.18c-0.196-4.181-4.287-5.194-6.307-5.178-2.989 0.024-4.997 2.422-5.836 4.003-2.84-0.88-5.683 1.259-5.828 3.59-0.363 5.845 4.739 7.821 7.14 8.303 8.971 1.112 11.014-6.985 10.831-10.718z" fill="#CA0D7B"/>
<path d="m114.46 143.14c-4.969-2.121-7.896-6.258-7.403-10.59 0.493-4.333 3.84-7.673 3.84-7.673-2.301-3.771 1.151-6.738 3.728-7.45 3.24-0.896 5.981-0.328 7.606 1.26 2.723-1.65 6.728 0.967 8.333 2.036 5.647 5.452 3.379 10.823 0.03 13.051-0.886 4.001-3.194 6.42-5.294 7.787-1.542 1.411-5.871 3.701-10.84 1.579z" fill="#CA0D7B"/>
<path d="m57.217 645.91c26.763 3.812 55.47-6.762 62.783-11.914l-29.926 35.924-8.9372 43.379-11.646-15.182c-3.5207-4.28-11.579-9.878-18.822-7.05-9.3658 3.657-9.5076 10.077-9.7995 15.337v43.592h-40.869v-56.159c1.6348-49.097 37.094-50.794 57.217-47.927z" fill="url(#a)"/>
<defs>
<linearGradient id="b" x1="157.5" x2="213" y1="30.976" y2="30.976" gradientUnits="userSpaceOnUse">
<stop stop-color="#00D7D7" offset="0"/>
<stop stop-color="#00D7D7" stop-opacity="0" offset="1"/>
</linearGradient>
<linearGradient id="a" x1="22.068" x2="20.574" y1="709.21" y2="750" gradientUnits="userSpaceOnUse">
<stop stop-color="#00D7D7" offset="0"/>
<stop stop-color="#00D7D7" stop-opacity="0" offset="1"/>
</linearGradient>
</defs>
</svg>
