<svg width="287" height="751" viewBox="0 0 287 751" fill="none" xmlns="http://www.w3.org/2000/svg">
<path d="M174.165 44.3092H213.477V0H165.056C111.362 0 100.655 49.2324 102.253 76.618V482.785H147.318V73.8486C147.318 50.2171 163.937 44.3092 174.165 44.3092Z" fill="url(#paint0_linear)"/>
<path fill-rule="evenodd" clip-rule="evenodd" d="M102.262 427.836H147.314V467.428C147.314 478.594 149.858 485.876 154.717 491.519C160.674 485.225 166.839 480.945 172.052 477.893C191.173 466.698 210.029 467.398 225.031 472.744C239.322 477.837 250.514 487.189 257.093 495.111L257.198 495.237L257.302 495.365C283.663 527.927 288.607 566.44 285.045 599.088C281.549 631.129 269.771 659.554 259.563 676.718C216.654 750.379 149.778 746.915 119.413 738.698C101.065 733.733 87.3041 723.8 79.2706 709.68C71.8616 696.657 70.8379 682.633 73.0657 671.728C75.6822 655.702 86.8921 648.291 93.2344 645.284C97.2052 643.401 103.083 641.614 106.468 640.585L106.468 640.585L106.469 640.585C107.342 640.319 108.049 640.104 108.515 639.951C119.732 636.26 125.572 628.67 129.031 619.387C132.786 609.31 133.314 597.837 132.649 590.567C131.377 580.19 130.807 570.591 130.892 561.709C129.858 556.943 128.442 554.427 126.319 551.052C124.282 547.815 122.379 544.882 120.608 542.152C108.192 523.015 102.262 513.875 102.262 479.906V427.836ZM183.647 501.565C208.208 487.184 230.723 503.304 238.91 513.162C279.845 563.725 255.966 633.579 238.91 662.185C204.115 722.026 150.721 719.508 125.315 712.632C97.8879 705.21 94.9541 686.249 97.1715 676.971C97.8611 671.11 103.492 669.392 111.118 667.066C112.546 666.631 114.044 666.174 115.592 665.664C154.777 652.773 159.086 608.258 157.039 587.383C149.671 528.006 169.418 509.896 183.647 501.565Z" fill="#00D7D7"/>
<path d="M157.039 587.384C149.671 528.007 169.417 509.897 183.647 501.566C208.208 487.185 230.723 503.305 238.91 513.163C279.845 563.726 255.966 633.58 238.91 662.186C204.115 722.027 150.721 719.509 125.314 712.634C97.8877 705.211 94.954 686.25 97.1713 676.972C97.99 670.014 105.774 668.895 115.592 665.665C154.777 652.774 159.086 608.259 157.039 587.384Z" fill="#009393"/>
<path d="M57.6491 645.918C84.5203 649.744 113.344 639.129 120.685 633.957L90.6384 670.023L81.6651 713.575L69.9727 698.332C66.4378 694.035 58.3471 688.415 51.0744 691.254C41.6709 694.926 41.5286 701.371 41.2355 706.652V750.417H0.201416V694.035C1.84278 644.744 37.4449 643.04 57.6491 645.918Z" fill="url(#paint1_linear)"/>
<defs>
<linearGradient id="paint0_linear" x1="157.791" y1="30.9619" x2="213.477" y2="30.9619" gradientUnits="userSpaceOnUse">
<stop stop-color="#00D7D7"/>
<stop offset="1" stop-color="#00D7D7" stop-opacity="0"/>
</linearGradient>
<linearGradient id="paint1_linear" x1="22.3585" y1="709.462" x2="20.8585" y2="750.417" gradientUnits="userSpaceOnUse">
<stop stop-color="#00D7D7"/>
<stop offset="1" stop-color="#00D7D7" stop-opacity="0"/>
</linearGradient>
</defs>
</svg>
