<svg width="230" height="217" viewBox="0 0 230 217" fill="none" xmlns="http://www.w3.org/2000/svg">
<path d="M130.002 198.076C130.019 188.415 132.216 178.514 133.893 172.763C134.422 170.948 136.227 169.858 138.104 170.083C151.354 171.672 159.691 171.64 164.674 170.999C167.74 170.605 173.819 171.438 176.526 172.932C184.516 177.34 197.939 180.796 205.149 182.222C220.688 185.162 226.996 196.635 228.352 202.453C228.426 202.77 228.447 203.095 228.431 203.42L228.055 211.052C227.952 213.15 226.257 214.808 224.157 214.832C216.457 214.919 197.878 214.997 178.813 214.085C159.684 213.169 140.849 211.21 133.104 210.347C131.019 210.114 129.498 208.299 129.601 206.203L130.002 198.076Z" stroke="white" stroke-width="2"/>
<path d="M228.435 203.34C228.435 203.34 210.972 204.405 179.042 202.825C147.112 201.246 130.16 198.495 130.16 198.495" stroke="white" stroke-width="2"/>
<path d="M138.781 199.174L138.218 210.611" stroke="white" stroke-width="2"/>
<path d="M175.199 202.049L174.636 213.485" stroke="white" stroke-width="2"/>
<path d="M147.739 200.338L147.176 211.774" stroke="white" stroke-width="2"/>
<path d="M184.087 202.487L183.524 213.923" stroke="white" stroke-width="2"/>
<path d="M156.916 201.147L156.353 212.584" stroke="white" stroke-width="2"/>
<path d="M193.229 202.938L192.666 214.374" stroke="white" stroke-width="2"/>
<path d="M211.231 203.531L210.668 214.968" stroke="white" stroke-width="2"/>
<path d="M165.55 201.573L164.987 213.009" stroke="white" stroke-width="2"/>
<path d="M201.863 203.363L201.3 214.8" stroke="white" stroke-width="2"/>
<path d="M219.788 203.168L219.225 214.605" stroke="white" stroke-width="2"/>
<path d="M205.636 62.6819C205.636 21.5056 180.418 1.58157 152.215 1.58157L115.054 0.330811H3.56437C-1.23625 15.2843 -1.00479 26.8962 3.5644 36.6616C17.5624 66.5781 60.874 59.3612 115.054 59.3612C144.488 59.3612 142.925 78.6211 140.602 93.8961L126.366 170.834C125.971 172.965 127.249 175.035 129.356 175.54C135.735 177.068 149.649 179.901 165.156 179.901C180.016 179.901 190.327 178.926 195.178 178.34C197.054 178.113 198.479 176.606 198.681 174.726C203.764 127.331 205.853 86.1897 205.636 62.6819Z" fill="url(#paint0_linear)"/>
<defs>
<linearGradient id="paint0_linear" x1="102.85" y1="0.330811" x2="102.85" y2="179.901" gradientUnits="userSpaceOnUse">
<stop stop-color="#0B2BED"/>
<stop offset="1" stop-color="#0F0967"/>
</linearGradient>
</defs>
</svg>
