<?xml version="1.0" encoding="UTF-8"?>
<svg fill="none" viewBox="0 0 1920 817" xmlns="http://www.w3.org/2000/svg">
<path d="M1920 643H0V817H1920V643Z" fill="url(#f)"/>
<g opacity=".5">
<path d="m49 590v227" opacity=".5" stroke="#0A0555" stroke-width="3"/>
<path d="m333 590v227" opacity=".5" stroke="#0A0555" stroke-width="3"/>
<path d="m617 590v227" opacity=".5" stroke="#0A0555" stroke-width="3"/>
<path d="m901 590v227" opacity=".5" stroke="#0A0555" stroke-width="3"/>
<path d="m1185 590v227" opacity=".5" stroke="#0A0555" stroke-width="3"/>
<path d="m1469 590v227" opacity=".5" stroke="#0A0555" stroke-width="3"/>
<path d="m1753 590v227" opacity=".5" stroke="#0A0555" stroke-width="3"/>
<path d="m221 590v227" opacity=".5" stroke="#0A0555" stroke-width="3"/>
<path d="m505 590v227" opacity=".5" stroke="#0A0555" stroke-width="3"/>
<path d="m789 590v227" opacity=".5" stroke="#0A0555" stroke-width="3"/>
<path d="m1073 590v227" opacity=".5" stroke="#0A0555" stroke-width="3"/>
<path d="m1357 590v227" opacity=".5" stroke="#0A0555" stroke-width="3"/>
<path d="m1641 590v227" opacity=".5" stroke="#0A0555" stroke-width="3"/>
<path d="m277 590v227" opacity=".5" stroke="#0A0555" stroke-width="3"/>
<path d="m561 590v227" opacity=".5" stroke="#0A0555" stroke-width="3"/>
<path d="m845 590v227" opacity=".5" stroke="#0A0555" stroke-width="3"/>
<path d="m1129 590v227" opacity=".5" stroke="#0A0555" stroke-width="3"/>
<path d="m1413 590v227" opacity=".5" stroke="#0A0555" stroke-width="3"/>
<path d="m1697 590v227" opacity=".5" stroke="#0A0555" stroke-width="3"/>
<path d="m108 590v227" opacity=".5" stroke="#0A0555" stroke-width="3"/>
<path d="m392 590v227" opacity=".5" stroke="#0A0555" stroke-width="3"/>
<path d="m676 590v227" opacity=".5" stroke="#0A0555" stroke-width="3"/>
<path d="m960 590v227" opacity=".5" stroke="#0A0555" stroke-width="3"/>
<path d="m1244 590v227" opacity=".5" stroke="#0A0555" stroke-width="3"/>
<path d="m1528 590v227" opacity=".5" stroke="#0A0555" stroke-width="3"/>
<path d="m1812 590v227" opacity=".5" stroke="#0A0555" stroke-width="3"/>
<path d="m166 590v227" opacity=".5" stroke="#0A0555" stroke-width="3"/>
<path d="m450 590v227" opacity=".5" stroke="#0A0555" stroke-width="3"/>
<path d="m734 590v227" opacity=".5" stroke="#0A0555" stroke-width="3"/>
<path d="m1018 590v227" opacity=".5" stroke="#0A0555" stroke-width="3"/>
<path d="m1302 590v227" opacity=".5" stroke="#0A0555" stroke-width="3"/>
<path d="m1586 590v227" opacity=".5" stroke="#0A0555" stroke-width="3"/>
<path d="m1870 590v227" opacity=".5" stroke="#0A0555" stroke-width="3"/>
<path d="m52 590v227" opacity=".5" stroke="#3D63C6" stroke-width="2"/>
<path d="m336 590v227" opacity=".5" stroke="#3D63C6" stroke-width="2"/>
<path d="m620 590v227" opacity=".5" stroke="#3D63C6" stroke-width="2"/>
<path d="m904 590v227" opacity=".5" stroke="#3D63C6" stroke-width="2"/>
<path d="m1188 590v227" opacity=".5" stroke="#3D63C6" stroke-width="2"/>
<path d="m1472 590v227" opacity=".5" stroke="#3D63C6" stroke-width="2"/>
<path d="m1756 590v227" opacity=".5" stroke="#3D63C6" stroke-width="2"/>
<path d="m224 590v227" opacity=".5" stroke="#3D63C6" stroke-width="2"/>
<path d="m508 590v227" opacity=".5" stroke="#3D63C6" stroke-width="2"/>
<path d="m792 590v227" opacity=".5" stroke="#3D63C6" stroke-width="2"/>
<path d="m1076 590v227" opacity=".5" stroke="#3D63C6" stroke-width="2"/>
<path d="m1360 590v227" opacity=".5" stroke="#3D63C6" stroke-width="2"/>
<path d="m1644 590v227" opacity=".5" stroke="#3D63C6" stroke-width="2"/>
<path d="m280 590v227" opacity=".5" stroke="#3D63C6" stroke-width="2"/>
<path d="m564 590v227" opacity=".5" stroke="#3D63C6" stroke-width="2"/>
<path d="m848 590v227" opacity=".5" stroke="#3D63C6" stroke-width="2"/>
<path d="m1132 590v227" opacity=".5" stroke="#3D63C6" stroke-width="2"/>
<path d="m1416 590v227" opacity=".5" stroke="#3D63C6" stroke-width="2"/>
<path d="m1700 590v227" opacity=".5" stroke="#3D63C6" stroke-width="2"/>
<path d="m111 590v227" opacity=".5" stroke="#3D63C6" stroke-width="2"/>
<path d="m395 590v227" opacity=".5" stroke="#3D63C6" stroke-width="2"/>
<path d="m679 590v227" opacity=".5" stroke="#3D63C6" stroke-width="2"/>
<path d="m963 590v227" opacity=".5" stroke="#3D63C6" stroke-width="2"/>
<path d="m1247 590v227" opacity=".5" stroke="#3D63C6" stroke-width="2"/>
<path d="m1531 590v227" opacity=".5" stroke="#3D63C6" stroke-width="2"/>
<path d="m1815 590v227" opacity=".5" stroke="#3D63C6" stroke-width="2"/>
<path d="m169 590v227" opacity=".5" stroke="#3D63C6" stroke-width="2"/>
<path d="m453 590v227" opacity=".5" stroke="#3D63C6" stroke-width="2"/>
<path d="m737 590v227" opacity=".5" stroke="#3D63C6" stroke-width="2"/>
<path d="m1021 590v227" opacity=".5" stroke="#3D63C6" stroke-width="2"/>
<path d="m1305 590v227" opacity=".5" stroke="#3D63C6" stroke-width="2"/>
<path d="m1589 590v227" opacity=".5" stroke="#3D63C6" stroke-width="2"/>
<path d="m1873 590v227" opacity=".5" stroke="#3D63C6" stroke-width="2"/>
</g>
<path d="M1920 539H0V643H1920V539Z" fill="url(#e)"/>
<path d="M1920 609H0V643H1920V609Z" fill="#2643AA"/>
<path d="m500.96 189.63c-2.979-0.027-5.275-2.626-4.926-5.575l12.145-102.64c0.348-2.9494 3.189-4.9444 6.092-4.2803l144.84 33.124c2.491 0.57 4.153 2.919 3.853 5.449l-8.387 70.892c-0.3 2.531-2.464 4.431-5.019 4.407l-148.6-1.374z" fill="url(#d)" stroke="#fff" stroke-width="4"/>
<path d="m500.96 189.63c-2.979-0.027-5.275-2.626-4.926-5.575l12.145-102.64c0.348-2.9494 3.189-4.9444 6.092-4.2803l144.84 33.124c2.491 0.57 4.153 2.919 3.853 5.449l-8.387 70.892c-0.3 2.531-2.464 4.431-5.019 4.407l-148.6-1.374z" stroke="#fff" stroke-width="4"/>
<path d="m631 190 10-83" stroke="#fff" stroke-width="4"/>
<path d="m617.35 175.04c0.71-0.846 0.599-2.107-0.247-2.817-0.847-0.71-2.108-0.599-2.818 0.247-0.71 0.847-0.599 2.108 0.248 2.818 0.846 0.71 2.107 0.599 2.817-0.248z" fill="url(#c)"/>
<path d="m614.38 176c-0.453-0.504-0.512-1.399-0.133-2" stroke="#fff" stroke-linecap="round"/>
<path d="m645.23 196.41 4.378 40.945 3.394 18.601-72.914 8.046-6.84-11.223c-4.978-9.56-11.206-17.937-19.509-30.174-7.551-9.863-9.889-12.214-11.737-24.318 1.081-5.801 3.855-6.645 7.628-6.303l8.676-0.707c0.423-0.034 0.778-0.33 0.886-0.74l3.936-14.915c2.681-13.956 20.949-12.17 29.114-12.62l25.643 2.742c21.707-0.233 24.743 16.404 27.345 30.666z" fill="#EAF1FF"/>
<path d="m447.33 142.07c-4.847 4.812-2.02 11.363 0 14.035l12.111 28.072c16.154 33.686-6.732 68.842-20.194 82.209v79.619c0 1.309-1.243 2.265-2.514 1.932l-177.21-46.41c6.459-36.894 2.691-76.579 0-87.273-1.347-4.678-6.462-12.282-22.213-14.036-14.448-1.609-15.606-12.048-16.155-18.046-1.615-17.645 9.693-18.045 16.155-18.045h14.138c-12.924-41.707 22.886-66.837 42.408-74.189l74.717-28.072c27.464-11.228 46.446 4.6786 52.504 14.036l32.311 48.122c6.462 8.021 3.366 12.95 0 14.287l-6.056 3.759z" fill="#EAF1FF"/>
<path d="m270.1 164.1h-32.239c-14.508-20.878-11.418-55.542-8.06-70.264 6.448-27.303 33.583-31.452 46.344-30.113h14.104c35.463 0 79.256-34.797 96.718-52.196 22.568-20.878 38.957-8.6994 44.329 0 22.568 28.909 5.373 52.196-6.044 60.226-33.852 17.666-86.643 32.791-108.81 38.143-11.284 3.213-11.419 14.723-10.075 20.076 3.224 14.454 16.12 30.113 22.165 36.136 10.816 10.776 32.712 3.881 50.709 0l65.679-18.334c1.734-0.485 3.606-7e-3 4.829 1.315 19.511 21.096 27.889 54.91 27.889 67.208 4.836 41.757-40.971 53.534-64.478 54.204-59.643 6.423-98.733-50.858-110.82-80.302-9.067-22.084-18.134-26.099-32.239-26.099z" fill="#0F43EC"/>
<path d="m423.47 165.98c7.392-2.05 12.762-3.967 16.422-5.511 3.045-1.284 7.092 0.115 7.702 3.411 1.603 8.668-1.906 12.375-4.512 13.289-0.224 0.079-0.455 0.156-0.676 0.247-9.38 3.869-16.765-0.024-21.283-4.576-2.323-2.341-0.808-5.986 2.347-6.86z" fill="#ECF1FD"/>
<path d="m251 183.38c5.115-1.089 16.477-0.49 21 10.619" stroke="#0F0967" stroke-linecap="round" stroke-width="4"/>
<path d="m405.46 121.41c3.206-4.247 10.246-5.419 15.415-5.446 0.976-5e-3 1.514-1.212 0.799-1.851l-2.587-2.307c-0.143-0.128-0.245-0.292-0.294-0.473l-0.623-2.292c-0.087-0.321-0.335-0.58-0.667-0.669-6.305-1.67-14.355 2.575-18.828 6.043-1.079 0.835-0.808 2.404 0.436 2.993l2.399 1.134c0.243 0.115 0.429 0.318 0.516 0.565l0.767 2.164c0.332 0.942 2.059 0.945 2.667 0.139z" fill="#0F0967"/>
<path d="m336.28 25.442c-0.306-1.0603-1.406-1.6703-2.458-1.3623-1.052 0.3079-1.657 1.4171-1.352 2.4775l3.81-1.1152zm-50.639 43.558c7.513-1.2338 21.59-6.1824 33.039-13.574 5.73-3.6994 10.945-8.1004 14.332-13.086 3.416-5.0279 5.035-10.764 3.268-16.899l-3.81 1.1152c1.352 4.6921 0.206 9.2006-2.731 13.524-2.966 4.3665-7.693 8.4236-13.198 11.978-11.022 7.1155-24.591 11.854-31.538 12.994l0.638 3.9466z" fill="#0A39D1"/>
<path d="m421 63c9.038-9.0329 16.532-28.849 1.119-44" stroke="#171460" stroke-linecap="round" stroke-width="4"/>
<path d="m245 89c-3.949 4.2854-7.617 9.838-6.913 20" stroke="#171460" stroke-linecap="round" stroke-width="4"/>
<path d="m242.5 305.88c4.84-14.164 31.262-2.459 40.338 0l150.62 32.922c71.105 12.448 123.48 146.76 130.54 200.2h-381c13.715-115.68 45.38-203.61 59.5-233.12z" fill="url(#b)"/>
<path d="m577.89 260.66c-8.882 1.798-12.841 4.379-15.403 31.343-2.562 26.963-0.037 145.7-12.688 143.33-12.651-2.367-125.86-83.887-213.84-62.017-37.522 9.325-55.959 33.009-55.959 86.024 0 86.654 116.88 96.938 207.64 104.92l1.203 0.106c90.933 8.002 151.89 13.003 185.86-25.007 33.975-38.011 10.803-212.38-9.33-272.85-4.977-14.948-9.029-21.736-15.937-20.338l-71.55 14.481z" fill="url(#a)"/>
<path d="m572.26 133.03c1.037-4.579 5.391-7.594 10.015-6.937 4.998 0.711 8.431 5.423 7.599 10.43l-8.915 53.618c-0.94 5.656-6.179 9.536-11.827 8.764-6.141-0.839-10.243-6.792-8.868-12.867l11.996-53.008z" fill="#EAF1FF"/>
<path d="m596.97 125.01c1.19-5.268 6.176-8.707 11.43-7.886 5.484 0.858 9.273 6.038 8.504 11.626l-7.214 52.39c-0.958 6.962-7.333 11.783-14.167 10.715-7.123-1.115-11.815-8.146-10.202-15.287l11.649-51.558z" fill="#EAF1FF"/>
<path d="m622.98 140.63c1.405-4.22 5.903-6.559 10.158-5.281 4.139 1.244 6.61 5.486 5.652 9.707l-10.818 47.665c-1.344 5.924-7.364 9.518-13.209 7.884-5.847-1.634-9.138-7.836-7.219-13.603l15.436-46.372z" fill="#EAF1FF"/>
<path d="m640.11 164.6c1.873-3.112 5.779-4.417 9.198-3.075 3.73 1.463 5.609 5.56 4.253 9.269l-10.404 28.456c-2.059 5.634-8.602 8.319-14.137 5.802-5.571-2.533-7.696-9.231-4.575-14.419l15.665-26.033z" fill="#EAF1FF"/>
<defs>
<linearGradient id="f" x1="960" x2="960" y1="817" y2="643" gradientUnits="userSpaceOnUse">
<stop stop-color="#253EB0" offset="0"/>
<stop stop-color="#182C8C" offset=".76562"/>
<stop stop-color="#112275" offset="1"/>
</linearGradient>
<linearGradient id="e" x1="960" x2="960" y1="539" y2="683" gradientUnits="userSpaceOnUse">
<stop stop-color="#5B82E8" offset="0"/>
<stop stop-color="#27419A" offset="1"/>
</linearGradient>
<linearGradient id="d" x1="508.55" x2="535.92" y1="188.18" y2="87.167" gradientUnits="userSpaceOnUse">
<stop stop-color="#fff" stop-opacity=".88" offset="0"/>
<stop stop-color="#fff" stop-opacity=".28" offset="1"/>
</linearGradient>
<linearGradient id="c" x1="618.25" x2="614.4" y1="173.68" y2="174.32" gradientUnits="userSpaceOnUse">
<stop stop-color="#4B0C07" offset="0"/>
<stop stop-color="#83251A" offset="1"/>
</linearGradient>
<linearGradient id="b" x1="376.12" x2="376.12" y1="299" y2="539" gradientUnits="userSpaceOnUse">
<stop stop-color="#0B2AE7" offset="0"/>
<stop stop-color="#181369" offset="1"/>
</linearGradient>
<linearGradient id="a" x1="781.42" x2="344.88" y1="466.13" y2="572.17" gradientUnits="userSpaceOnUse">
<stop stop-color="#0F14C9" offset="0"/>
<stop stop-color="#001A75" offset="1"/>
</linearGradient>
</defs>
</svg>
