<svg width="393" height="393" viewBox="0 0 393 393" fill="none" xmlns="http://www.w3.org/2000/svg">
<ellipse cx="196.18" cy="196.194" rx="196.18" ry="196.194" fill="#59F0E7"/>
<path d="M174.653 112.538C166.288 124.047 159.806 137.768 155.159 153.253C152.05 149.728 148.517 146.608 143.731 143.018L143.698 142.994L143.665 142.97C140.261 140.538 135.908 137.985 133.5 137.045C132.085 136.493 130.489 136.721 129.301 137.706C128.195 138.624 127.729 139.947 127.755 141.155C127.888 147.306 126.75 161.699 121.02 176.353C120.408 177.884 117.788 184.73 115.241 192.372C112.753 199.836 110.133 208.633 109.793 213.81C108.004 232.413 112.199 244.567 114.706 250.213C120.79 264.199 135.872 285.243 164.698 296.054C193.411 306.838 219.416 300.282 229.296 295.379C260.476 282.146 273.102 258.115 277.32 248.472L277.358 248.386L277.391 248.298C286.171 224.884 284.714 196.435 272.476 173.303C270.604 169.764 265.582 170.324 264.307 173.908C263.551 176.033 262.418 179.025 261.052 181.693C260.456 182.857 259.846 183.898 259.24 184.752C259.239 184.741 259.238 184.729 259.238 184.718C259.173 183.661 259.094 182.354 258.936 180.911C258.497 176.902 257.445 171.593 254.393 164.205C251.709 157.709 249.791 154.222 240.45 141.961L240.308 141.774L240.141 141.608C239.513 140.979 238.954 140.21 238.2 139.155L238.139 139.069C237.49 138.16 236.676 137.02 235.676 135.987C234.798 134.861 233.92 133.764 233.058 132.686C229.861 128.691 226.864 124.945 224.761 120.853C220.454 104.05 221.748 90.4065 223.18 84.3542C223.955 81.0779 220.804 77.6255 217.146 79.0381C200.994 85.2769 185.611 96.9744 174.653 112.538ZM224.64 120.615C224.641 120.616 224.641 120.618 224.642 120.619C224.641 120.618 224.641 120.616 224.64 120.615ZM224.828 121.112C224.828 121.113 224.829 121.114 224.829 121.116L224.829 121.115C224.829 121.114 224.828 121.113 224.828 121.112Z" fill="#CA0D7B" stroke="#FF7EC9" stroke-width="7"/>
<path d="M220.405 265.967C213.939 272.434 205.164 276.591 195.465 276.591C169.139 276.591 146.509 246.106 166.368 221.164C174.22 209.617 184.842 204.998 188.999 192.989C190.846 188.37 191.308 182.366 190.846 178.671C190.384 177.285 189.923 172.204 189.923 171.742C189.923 171.28 189.923 171.28 190.384 171.28L190.846 170.818C191.308 170.818 191.308 170.818 191.77 170.818C192.694 171.742 193.617 172.666 194.541 173.59C196.388 175.437 198.698 177.747 200.545 179.594C205.164 184.213 209.32 192.065 210.244 200.841C211.168 211.926 208.397 221.164 200.083 227.169C203.778 228.554 207.473 228.554 211.629 227.169C218.095 224.859 221.79 221.164 223.176 216.083C223.176 216.083 223.176 215.622 223.638 215.622H224.099C227.794 217.007 231.951 222.55 232.413 235.483C231.489 245.182 230.103 256.268 220.405 265.967Z" fill="#FFADDD"/>
</svg>
