<svg width="1048" height="804" viewBox="0 0 1048 804" fill="none" xmlns="http://www.w3.org/2000/svg">
<path fill-rule="evenodd" clip-rule="evenodd" d="M482.762 337.629C471.716 337.629 462.762 346.583 462.762 357.629V360.836C462.762 361.941 463.657 362.836 464.762 362.836H642.737C643.289 362.836 643.737 363.284 643.737 363.836V726.074C643.737 726.627 644.185 727.074 644.737 727.074H669.237C669.789 727.074 670.237 726.627 670.237 726.074V363.836C670.237 363.284 670.684 362.836 671.237 362.836H851.15C852.255 362.836 853.15 361.941 853.15 360.836V357.629C853.15 346.583 844.196 337.629 833.15 337.629H482.762Z" fill="url(#paint0_linear)"/>
<defs>
<linearGradient id="paint0_linear" x1="657.956" y1="409.076" x2="657.956" y2="727.075" gradientUnits="userSpaceOnUse">
<stop stop-color="#4D82EA"/>
<stop offset="1" stop-color="#191768"/>
</linearGradient>
</defs>
</svg>
