<svg width="1920" height="611" viewBox="0 0 1920 611" fill="none" xmlns="http://www.w3.org/2000/svg">
<mask id="mask0" mask-type="alpha" maskUnits="userSpaceOnUse" x="0" y="0" width="1921" height="611">
<rect x="0.341309" y="0.69751" width="1920" height="609.674" fill="url(#paint0_radial)"/>
</mask>
<g mask="url(#mask0)">
<g filter="url(#filter0_f)">
<ellipse cx="895.567" cy="241.679" rx="630.51" ry="196.982" fill="#0327E7" fill-opacity="0.4"/>
</g>
<path d="M59.5762 257.464V420.825H1550.93V310.615H1518.1V238.705L1454.79 191.025V251.211H1432.12V281.694H1403.99V155.07H1325.82V211.347H1257.82V297.327H1245.31V271.533H1228.9V177.737H1211.7V155.07H1162.46V251.211H1117.13V316.086H1053.03V288.729V168.357L994.41 201.968V288.729H953.765V183.209H909.212V163.668H890.453V143.345H846.681V228.543L817.761 257.464V302.017H784.151V251.211H738.816V220.727H678.63V271.533H643.457V335.627H612.191V211.347H594.995V191.025H552.787V281.694H522.303V352.823H483.222V257.464H440.232V201.968L383.173 236.36V323.903H339.401V216.819H279.215V175.392H232.317V266.843L203.397 293.419V335.627H169.005V288.729H122.889V257.464H59.5762Z" fill="#090540"/>
<path d="M125.903 -0.475342H103.779C98.2564 -0.475342 93.7793 4.00181 93.7793 9.52466V416.294C93.7793 421.817 98.2564 426.294 103.779 426.294H125.903C131.426 426.294 135.903 421.817 135.903 416.294V9.52466C135.903 4.00181 131.426 -0.475342 125.903 -0.475342Z" fill="#2637AF"/>
<path d="M1560.9 -0.475342H1538.78C1533.26 -0.475342 1528.78 4.00181 1528.78 9.52466V416.294C1528.78 421.817 1533.26 426.294 1538.78 426.294H1560.9C1566.43 426.294 1570.9 421.817 1570.9 416.294V9.52466C1570.9 4.00181 1566.43 -0.475342 1560.9 -0.475342Z" fill="#2637AF"/>
<path d="M842.903 -0.475342H820.779C815.256 -0.475342 810.779 4.00181 810.779 9.52466V416.294C810.779 421.817 815.256 426.294 820.779 426.294H842.903C848.426 426.294 852.903 421.817 852.903 416.294V9.52466C852.903 4.00181 848.426 -0.475342 842.903 -0.475342Z" fill="url(#paint1_linear)"/>
<path d="M1582.05 418.915H-90.2681C-95.7909 418.915 -100.268 423.392 -100.268 428.915V580.791C-100.268 586.314 -95.7909 590.791 -90.2681 590.791H1582.05C1587.58 590.791 1592.05 586.314 1592.05 580.791V428.915C1592.05 423.392 1587.58 418.915 1582.05 418.915Z" fill="#394CD1"/>
<rect x="565.252" y="227.442" width="4.42637" height="6.84076" rx="2.21319" fill="#0D2294"/>
<rect x="565.252" y="241.123" width="4.42637" height="6.84076" rx="2.21319" fill="#0D2294"/>
<rect x="565.252" y="254.805" width="4.42637" height="6.84076" rx="2.21319" fill="#0D2294"/>
<rect x="565.252" y="282.168" width="4.42637" height="6.84076" rx="2.21319" fill="#0D2294"/>
<rect x="579.337" y="227.442" width="4.42637" height="6.84076" rx="2.21319" fill="#0D2294"/>
<rect x="579.337" y="254.805" width="4.42637" height="6.84076" rx="2.21319" fill="#0D2294"/>
<rect x="579.337" y="268.486" width="4.42637" height="6.84076" rx="2.21319" fill="#0D2294"/>
<rect x="579.337" y="282.168" width="4.42637" height="6.84076" rx="2.21319" fill="#0D2294"/>
<rect x="593.42" y="227.442" width="4.42637" height="6.84076" rx="2.21319" fill="#0D2294"/>
<rect x="593.42" y="241.123" width="4.42637" height="6.84076" rx="2.21319" fill="#0D2294"/>
<rect x="593.42" y="254.805" width="4.42637" height="6.84076" rx="2.21319" fill="#0D2294"/>
<rect x="593.42" y="268.486" width="4.42637" height="6.84076" rx="2.21319" fill="#0D2294"/>
<rect x="593.42" y="282.168" width="4.42637" height="6.84076" rx="2.21319" fill="#0D2294"/>
<rect x="1183.25" y="194.442" width="4.42637" height="6.84076" rx="2.21319" fill="#0D2294"/>
<rect x="1183.25" y="221.805" width="4.42637" height="6.84076" rx="2.21319" fill="#0D2294"/>
<rect x="1183.25" y="249.168" width="4.42637" height="6.84076" rx="2.21319" fill="#0D2294"/>
<rect x="1197.34" y="194.442" width="4.42637" height="6.84076" rx="2.21319" fill="#0D2294"/>
<rect x="1197.34" y="221.805" width="4.42637" height="6.84076" rx="2.21319" fill="#0D2294"/>
<rect x="1197.34" y="235.486" width="4.42637" height="6.84076" rx="2.21319" fill="#0D2294"/>
<rect x="1197.34" y="249.168" width="4.42637" height="6.84076" rx="2.21319" fill="#0D2294"/>
<rect x="1211.42" y="194.442" width="4.42637" height="6.84076" rx="2.21319" fill="#0D2294"/>
<rect x="1211.42" y="208.123" width="4.42637" height="6.84076" rx="2.21319" fill="#0D2294"/>
<rect x="1211.42" y="221.805" width="4.42637" height="6.84076" rx="2.21319" fill="#0D2294"/>
<rect x="1211.42" y="249.168" width="4.42637" height="6.84076" rx="2.21319" fill="#0D2294"/>
<rect x="1273.25" y="227.442" width="4.42637" height="6.84076" rx="2.21319" fill="#0D2294"/>
<rect x="1273.25" y="241.123" width="4.42637" height="6.84076" rx="2.21319" fill="#0D2294"/>
<rect x="1273.25" y="254.805" width="4.42637" height="6.84076" rx="2.21319" fill="#0D2294"/>
<rect x="1273.25" y="282.168" width="4.42637" height="6.84076" rx="2.21319" fill="#0D2294"/>
<rect x="1287.34" y="227.442" width="4.42637" height="6.84076" rx="2.21319" fill="#0D2294"/>
<rect x="1287.34" y="227.857" width="4.42637" height="6.84076" rx="2.21319" fill="#0D2294"/>
<rect x="1287.34" y="241.272" width="4.42637" height="6.84076" rx="2.21319" fill="#0D2294"/>
<rect x="1287.34" y="254.805" width="4.42637" height="6.84076" rx="2.21319" fill="#0D2294"/>
<rect x="1287.34" y="268.486" width="4.42637" height="6.84076" rx="2.21319" fill="#0D2294"/>
<rect x="1287.34" y="282.168" width="4.42637" height="6.84076" rx="2.21319" fill="#0D2294"/>
<rect x="1301.42" y="227.442" width="4.42637" height="6.84076" rx="2.21319" fill="#0D2294"/>
<rect x="1301.42" y="241.123" width="4.42637" height="6.84076" rx="2.21319" fill="#0D2294"/>
<rect x="1301.42" y="254.805" width="4.42637" height="6.84076" rx="2.21319" fill="#0D2294"/>
<rect x="1301.42" y="268.486" width="4.42637" height="6.84076" rx="2.21319" fill="#0D2294"/>
<rect x="1301.42" y="282.168" width="4.42637" height="6.84076" rx="2.21319" fill="#0D2294"/>
<rect x="912.252" y="201.442" width="4.42637" height="6.84076" rx="2.21319" fill="#0D2294"/>
<rect x="912.252" y="215.123" width="4.42637" height="6.84076" rx="2.21319" fill="#0D2294"/>
<rect x="912.252" y="228.805" width="4.42637" height="6.84076" rx="2.21319" fill="#0D2294"/>
<rect x="912.252" y="256.168" width="4.42637" height="6.84076" rx="2.21319" fill="#0D2294"/>
<rect x="926.337" y="201.442" width="4.42637" height="6.84076" rx="2.21319" fill="#0D2294"/>
<rect x="926.337" y="228.805" width="4.42637" height="6.84076" rx="2.21319" fill="#0D2294"/>
<rect x="926.337" y="242.486" width="4.42637" height="6.84076" rx="2.21319" fill="#0D2294"/>
<rect x="926.337" y="256.168" width="4.42637" height="6.84076" rx="2.21319" fill="#0D2294"/>
<rect x="940.42" y="201.442" width="4.42637" height="6.84076" rx="2.21319" fill="#0D2294"/>
<rect x="940.42" y="215.123" width="4.42637" height="6.84076" rx="2.21319" fill="#0D2294"/>
<rect x="940.42" y="228.805" width="4.42637" height="6.84076" rx="2.21319" fill="#0D2294"/>
<rect x="940.42" y="242.486" width="4.42637" height="6.84076" rx="2.21319" fill="#0D2294"/>
<rect x="940.42" y="256.168" width="4.42637" height="6.84076" rx="2.21319" fill="#0D2294"/>
<rect x="393.277" y="278.144" width="6.26706" height="6.84076" rx="3.13353" fill="#0D2294"/>
<rect x="393.277" y="305.507" width="6.26706" height="6.84076" rx="3.13353" fill="#0D2294"/>
<rect x="393.277" y="250.781" width="6.26706" height="6.84076" rx="3.13353" fill="#0D2294"/>
<rect x="393.277" y="319.188" width="6.26706" height="6.84076" rx="3.13353" fill="#0D2294"/>
<rect x="393.277" y="264.462" width="6.26706" height="6.84076" rx="3.13353" fill="#0D2294"/>
<rect x="393.277" y="332.87" width="6.26706" height="6.84076" rx="3.13353" fill="#0D2294"/>
<rect x="409.659" y="278.144" width="6.26706" height="6.84076" rx="3.13353" fill="#0D2294"/>
<rect x="409.659" y="237.099" width="6.26706" height="6.84076" rx="3.13353" fill="#0D2294"/>
<rect x="409.659" y="305.507" width="6.26706" height="6.84076" rx="3.13353" fill="#0D2294"/>
<rect x="409.659" y="264.462" width="6.26706" height="6.84076" rx="3.13353" fill="#0D2294"/>
<rect x="409.659" y="332.87" width="6.26706" height="6.84076" rx="3.13353" fill="#0D2294"/>
<rect x="426.042" y="223.417" width="6.26706" height="6.84076" rx="3.13353" fill="#0D2294"/>
<rect x="426.042" y="291.825" width="6.26706" height="6.84076" rx="3.13353" fill="#0D2294"/>
<rect x="426.042" y="237.099" width="6.26706" height="6.84076" rx="3.13353" fill="#0D2294"/>
<rect x="426.042" y="250.781" width="6.26706" height="6.84076" rx="3.13353" fill="#0D2294"/>
<rect x="426.042" y="319.188" width="6.26706" height="6.84076" rx="3.13353" fill="#0D2294"/>
<rect x="426.042" y="264.462" width="6.26706" height="6.84076" rx="3.13353" fill="#0D2294"/>
<rect x="426.042" y="332.87" width="6.26706" height="6.84076" rx="3.13353" fill="#0D2294"/>
<rect x="565.252" y="297.459" width="4.42637" height="6.84076" rx="2.21319" fill="#0D2294"/>
<rect x="565.252" y="311.14" width="4.42637" height="6.84076" rx="2.21319" fill="#0D2294"/>
<rect x="565.252" y="324.822" width="4.42637" height="6.84076" rx="2.21319" fill="#0D2294"/>
<rect x="565.252" y="338.503" width="4.42637" height="6.84076" rx="2.21319" fill="#0D2294"/>
<rect x="565.252" y="352.185" width="4.42637" height="6.84076" rx="2.21319" fill="#0D2294"/>
<rect x="579.337" y="297.458" width="4.42637" height="6.84076" rx="2.21319" fill="#0D2294"/>
<rect x="579.337" y="338.503" width="4.42637" height="6.84076" rx="2.21319" fill="#0D2294"/>
<rect x="579.337" y="352.185" width="4.42637" height="6.84076" rx="2.21319" fill="#0D2294"/>
<rect x="593.42" y="297.458" width="4.42637" height="6.84076" rx="2.21319" fill="#0D2294"/>
<rect x="593.42" y="311.14" width="4.42637" height="6.84076" rx="2.21319" fill="#0D2294"/>
<rect x="593.42" y="324.822" width="4.42637" height="6.84076" rx="2.21319" fill="#0D2294"/>
<rect x="593.42" y="338.503" width="4.42637" height="6.84076" rx="2.21319" fill="#0D2294"/>
<rect x="593.42" y="352.185" width="4.42637" height="6.84076" rx="2.21319" fill="#0D2294"/>
<rect x="539.097" y="297.459" width="4.42637" height="6.84076" rx="2.21319" fill="#0D2294"/>
<rect x="539.096" y="311.14" width="4.42637" height="6.84076" rx="2.21319" fill="#0D2294"/>
<rect x="539.096" y="324.822" width="4.42637" height="6.84076" rx="2.21319" fill="#0D2294"/>
<rect x="539.096" y="338.503" width="4.42637" height="6.84076" rx="2.21319" fill="#0D2294"/>
<rect x="539.096" y="352.185" width="4.42637" height="6.84076" rx="2.21319" fill="#0D2294"/>
<rect x="553.181" y="311.14" width="4.42637" height="6.84076" rx="2.21319" fill="#0D2294"/>
<rect x="553.181" y="338.503" width="4.42637" height="6.84076" rx="2.21319" fill="#0D2294"/>
<rect x="553.181" y="352.185" width="4.42637" height="6.84076" rx="2.21319" fill="#0D2294"/>
<circle cx="348.491" cy="163.847" r="2.14949" fill="#2B32A0"/>
<circle cx="543.491" cy="67.847" r="2.14949" fill="#2B32A0"/>
<circle cx="523.848" cy="75.9964" r="2.14949" fill="#304FBD"/>
</g>
<circle cx="1288.23" cy="135.996" r="2.14949" fill="#304FBD"/>
<circle cx="966.491" cy="141.847" r="2.14949" fill="#2B32A0"/>
<circle cx="1092.49" cy="186.847" r="2.14949" fill="#2B32A0"/>
<circle cx="1084.49" cy="171.847" r="2.14949" fill="#2B32A0"/>
<circle cx="1162.49" cy="100.295" r="2.14949" fill="#2B32A0"/>
<circle opacity="0.5" cx="740.491" cy="75.9964" r="2.14949" fill="#304FBD"/>
<circle cx="785.491" cy="162.847" r="2.14949" fill="#304FBD"/>
<circle cx="619.848" cy="145.359" r="2.14949" fill="#304FBD"/>
<circle cx="449.491" cy="151.146" r="2.14949" fill="#304FBD"/>
<circle opacity="0.5" cx="475.491" cy="35.5479" r="2.14949" fill="#304FBD"/>
<circle cx="591.491" cy="112.609" r="2.14949" fill="#304FBD"/>
<circle cx="365.848" cy="195.359" r="2.14949" fill="#304FBD"/>
<circle cx="180.491" cy="74.847" r="2.14949" fill="#304FBD"/>
<circle cx="269.848" cy="95.9964" r="2.14949" fill="#304FBD"/>
<circle cx="908.192" cy="76.9964" r="2.14949" fill="#304FBD"/>
<circle opacity="0.5" cx="627.192" cy="69.5479" r="2.14949" fill="#304FBD"/>
<path d="M322.292 137.109C314.241 134.287 309.994 125.48 312.798 117.422C313.39 115.715 312 113.772 310.449 114.698C306.872 116.835 304.308 120.466 303.597 124.743C302.595 130.773 305.493 136.781 310.835 139.751C314.625 141.857 319.063 142.112 322.962 140.643C324.652 140.006 323.996 137.709 322.292 137.109Z" fill="#304FBD"/>
<defs>
<filter id="filter0_f" x="-34.9424" y="-255.303" width="1861.02" height="993.963" filterUnits="userSpaceOnUse" color-interpolation-filters="sRGB">
<feFlood flood-opacity="0" result="BackgroundImageFix"/>
<feBlend mode="normal" in="SourceGraphic" in2="BackgroundImageFix" result="shape"/>
<feGaussianBlur stdDeviation="150" result="effect1_foregroundBlur"/>
</filter>
<radialGradient id="paint0_radial" cx="0" cy="0" r="1" gradientUnits="userSpaceOnUse" gradientTransform="translate(960.341 305.535) rotate(90) scale(254.465 751.567)">
<stop stop-color="#C4C4C4"/>
<stop offset="0.395833" stop-color="#C4C4C4" stop-opacity="0.520833"/>
<stop offset="1" stop-color="#C4C4C4" stop-opacity="0"/>
</radialGradient>
<linearGradient id="paint1_linear" x1="831.841" y1="-0.475342" x2="831.841" y2="426.294" gradientUnits="userSpaceOnUse">
<stop stop-color="#0A1161"/>
<stop offset="1" stop-color="#2320BD"/>
</linearGradient>
</defs>
</svg>
