<svg width="1920" height="928" viewBox="0 0 1920 928" fill="none" xmlns="http://www.w3.org/2000/svg">
<path d="M1477.75 116.583C1481.14 122.443 1482.82 126.49 1485.07 130.135L1517.2 120.774C1517.2 120.774 1523.74 88.1618 1522.32 77.5751C1520.9 66.9884 1516.97 59.9476 1512.04 55.3317C1507.11 50.7158 1489.6 41.4772 1489.6 41.4772C1484.99 38.7967 1480.34 41.9751 1480.34 41.9751C1480.34 41.9751 1477.29 42.1389 1475.49 45.5822C1473.33 49.738 1478.2 53.6649 1481.18 57.6882C1484.16 61.7115 1485.07 62.7784 1487.62 70.7294C1489.78 77.4239 1488.96 84.97 1488.64 87.1879C1488.59 87.5811 1488.29 87.8941 1487.9 87.8855C1486.64 87.8583 1483.97 87.1193 1483.66 81.4015C1483.26 73.8927 1482.79 67.0845 1476.67 67.4135C1470.54 67.7426 1469.23 76.32 1469.6 83.1336L1470.39 97.8731C1471.89 108.66 1476.06 113.655 1477.75 116.583Z" fill="#ECF1FD"/>
<path d="M1479.44 39.7922C1485.92 42.7286 1499.45 50.5702 1501.47 69.7063" stroke="#0F0967" stroke-width="3" stroke-linecap="round"/>
<path d="M1491.09 40.2813C1501.78 46.4008 1508.86 52.2042 1512.16 62.8559" stroke="#0F0967" stroke-width="3" stroke-linecap="round"/>
<path d="M1563.76 181.803C1590.35 209.954 1601.04 209.762 1631.11 217.752C1648.22 222.3 1660.8 243.818 1657.14 259.857C1648.26 298.72 1615.52 308.244 1590.4 301.361C1549.26 290.092 1531.35 269.075 1519.15 250.361C1501.26 222.917 1484.13 147.304 1479.82 127.419C1479.72 126.932 1479.99 126.484 1480.46 126.312L1520.15 111.756C1520.67 111.567 1521.25 111.836 1521.44 112.351C1533.71 144.85 1548.71 165.865 1563.76 181.803Z" fill="#6699FB"/>
<path d="M1583.45 127.231C1587.86 113.599 1593.37 102.496 1595.57 98.6478C1603.95 85.8952 1637.64 86.0051 1653.44 87.6542C1688.27 92.0516 1702.86 119.902 1705.8 133.278C1709.76 156.584 1709.65 171.939 1709.1 176.703L1613.76 227.274L1607.7 222.326C1576.39 193.743 1573.71 164.61 1576.28 153.616L1571.87 151.967C1566.14 149.768 1566.18 144.455 1566.91 142.073C1568.24 136.356 1573.71 135.66 1576.28 136.026C1580.25 135.147 1582.71 129.797 1583.45 127.231Z" fill="#E9F0FD"/>
<path d="M1504.02 328.587L1538.73 336.353L1540.48 365.562C1540.48 365.562 1523.17 368.153 1513.99 367.154C1504.82 366.154 1502.44 366.104 1492.14 366.265C1482.98 366.407 1472.03 371.608 1468.17 365.582C1465.9 367.14 1460.44 369.585 1456.74 366.902C1453.03 364.218 1455.09 358.933 1456.58 356.625L1478.02 335.735C1487.05 327.372 1498.93 327.227 1504.02 328.587Z" fill="#F1F1FC"/>
<path d="M1785.17 502.984C1794.21 470.853 1783.67 441.984 1778.17 428.984L1582.17 430.734C1504.17 436.334 1502.17 474.484 1495.17 487.984C1489.17 514.484 1491.67 532.984 1498.17 579.484C1504.67 625.984 1512.17 655.484 1512.17 655.484H1571.17C1576.67 619.984 1582.17 573.484 1582.17 534.984C1645.17 541.484 1714.5 539.317 1742.67 534.984C1762.17 531.984 1779.7 522.43 1785.17 502.984Z" fill="url(#paint0_linear)"/>
<path d="M1610.67 565.859C1610.67 550.049 1623.49 537.234 1639.3 537.234H1730.55C1746.36 537.234 1759.17 550.049 1759.17 565.859V578.234C1759.17 580.995 1756.93 583.234 1754.17 583.234H1615.67C1612.91 583.234 1610.67 580.995 1610.67 578.234V565.859Z" fill="#0A0555"/>
<rect x="1671.17" y="583.234" width="28.5" height="71.75" fill="url(#paint1_linear)"/>
<path d="M1575.45 304.779C1589.56 253.329 1604.48 233.87 1610.17 230.572L1719.84 178.352L1724.8 182.2C1794.73 230.572 1792.78 361.213 1785.43 417.464C1784.55 426.699 1774.04 431.206 1768.89 432.305C1712.02 444.178 1607.42 437.252 1573.25 432.305C1565.31 431.866 1563.33 418.563 1563.33 411.967C1562.45 369.751 1571.04 322.918 1575.45 304.779Z" fill="#0A0555"/>
<path d="M1664.67 62.3687C1673.93 57.5315 1680.28 65.4836 1682.31 70.0643C1684.07 74.4618 1688.18 77.7598 1690.02 78.8592C1705.89 88.9733 1712.62 125.033 1714.27 142.073C1714.59 145.371 1714.27 146.47 1711.51 148.119L1703.8 153.066L1671.28 171.206C1666.87 173.844 1662.47 171.939 1660.81 170.656C1655.96 166.259 1652.91 161.128 1651.99 159.113C1659.05 156.474 1664.12 152.517 1665.77 150.868C1669.63 146.47 1671.28 140.973 1666.87 137.126C1663.35 134.047 1659.16 136.209 1657.51 137.675C1652.66 141.193 1649.24 142.073 1648.14 142.073C1644.17 142.952 1642.44 135.477 1642.07 131.629L1641.52 120.635C1637.56 120.635 1625.17 118.436 1619.48 117.337C1583.33 111.62 1576.49 93.3342 1577.59 84.9057C1577.59 77.43 1583.84 77.0269 1586.96 77.7598C1597.54 79.079 1610.84 78.3095 1616.17 77.7598C1640.42 75.5611 1658.61 66.5829 1664.67 62.3687Z" fill="#0028FB"/>
<path d="M1655.95 148.028C1654.79 148.858 1651.46 150.827 1647.48 152.058" stroke="#0F0967" stroke-width="3" stroke-linecap="round"/>
<path d="M1584.21 160.212L1591.37 159.113C1592.66 158.747 1595.23 158.893 1595.23 162.411C1595.23 166.809 1593.03 172.305 1586.96 175.054" stroke="#0F0967" stroke-width="3" stroke-linecap="round" stroke-linejoin="round"/>
<path d="M1602.67 307.445C1636.29 288.167 1638.59 277.752 1653.35 250.431C1661.76 234.882 1685.66 227.666 1700.45 234.936C1736.3 252.551 1732.24 284.238 1719.69 307.019C1699.16 344.32 1675.6 354.155 1654.52 361.656C1623.63 372.646 1547.64 369.862 1527.21 369.38C1526.69 369.367 1526.31 368.96 1526.28 368.44L1524.18 333.478C1524.15 332.951 1524.54 332.489 1525.06 332.423C1559.63 328.055 1583.62 318.365 1602.67 307.445Z" fill="url(#paint2_linear)"/>
<ellipse cx="1599.75" cy="132.841" rx="2.86834" ry="2.86089" fill="#0F0967"/>
<path d="M1605.73 225.908C1654.68 207.012 1697.03 179.442 1712.25 167.877C1714.01 166.559 1715.92 168.061 1716.65 168.976C1719.41 172.408 1723.27 177.221 1724.92 179.97C1725.8 181.729 1725.29 182.901 1724.92 183.268C1710.37 196.9 1638.03 230.724 1603.68 245.932C1599.27 247.581 1598.72 247.581 1597.06 247.031C1595.74 246.591 1596.51 244.282 1597.06 243.183L1602.86 228.728C1603.38 227.431 1604.42 226.411 1605.73 225.908Z" fill="#3375F5"/>
<path d="M1122.63 660.406C1123.55 552.451 1107.63 385.521 1099.56 327.66H1043.04V439.536C1037.51 515.659 1021.13 621.576 1013.63 652.909C1011.79 661.213 1016.71 663.674 1019.4 663.866C1043.62 675.976 1104.17 673.669 1113.98 672.516C1121.82 671.593 1123.01 664.058 1122.63 660.406Z" fill="#00158F"/>
<path d="M1070.09 523.563L1091.02 363.692V334.063H965.233C943.529 378.458 959.89 467.691 970.783 499.96L854.246 581.967C849.806 585.42 850.341 593.271 851.163 596.765C855.109 633.268 895.558 674.456 915.289 690.488C920.715 695.914 926.593 692.749 928.854 690.488L1055.87 546.204C1064.26 536.832 1067.09 534.813 1070.09 523.563Z" fill="url(#paint3_linear)"/>
<path d="M1244.03 129.327C1243.54 139.536 1245.9 147.886 1247.15 150.785L1246.7 154.6L1270.52 161.422L1274.8 157.879C1282.1 153.106 1290.25 142.925 1293.41 138.43C1296.44 133.017 1307.88 127.441 1312.22 123.377C1317.78 119.105 1316.76 115.645 1315.55 114.449C1312.79 111.596 1310.09 113.812 1307.76 114.946L1296.21 122.265C1295.56 122.675 1294.82 121.898 1295.26 121.271L1310.83 99.1537C1313.26 95.2183 1312.34 91.7939 1310.61 90.5144C1307.89 88.5096 1304.57 90.5133 1303.25 91.7658L1286.04 115.198C1285.35 116.138 1283.88 115.336 1284.3 114.247L1294.62 87.4184C1296.72 81.4759 1294.46 78.7281 1293.07 78.0969C1289.61 76.4273 1286.49 79.2626 1285.36 80.8889L1273.27 109.148C1272.81 110.225 1271.19 109.769 1271.36 108.611L1275.09 83.0303C1275.62 77.3259 1271.92 75.5702 1270.01 75.4054C1265.07 75.5324 1263.83 79.6646 1263.82 81.7148L1259.63 109.33C1258.46 119.389 1256.94 121.848 1255.27 118.137L1249.35 101.823C1247.17 96.3655 1241.82 98.0726 1239.41 99.6083C1236.3 103.324 1239.17 111.24 1240.98 114.734C1243.34 121.055 1243.99 127.097 1244.03 129.327Z" fill="#ECF1FD"/>
<path d="M900.447 410.603C902.182 395.411 897.542 381.494 894.598 379.823L862.059 374.174C856.98 384.419 850.483 397.567 848.546 409.823C846.892 420.289 851.864 426.631 851.864 426.631C851.864 426.631 852.852 435.128 854.602 438.815C856.352 442.502 861.196 443.18 861.196 443.18C861.196 443.18 861.552 444.017 863.218 449.907C864.326 453.825 865.702 456.364 868.68 455.799C875.082 454.585 874.482 448.096 872.885 438.811C871.857 432.835 873.601 428.307 874.615 425.077C877.395 416.224 881.224 410.011 883.537 412.959C886.257 416.427 883.53 419.449 884.811 428.644C885.036 433.768 889.097 436.553 892.161 436.126C897.218 436.227 897.553 431.865 897.881 429.044C897.881 429.044 898.713 425.795 900.447 410.603Z" fill="#EAF1FF"/>
<path d="M861.885 451.032C861.178 448.653 857.135 431.309 861.101 421.477" stroke="#0F0967" stroke-width="3" stroke-linecap="round"/>
<path d="M851.188 432.524C850.493 427.53 851.01 422.368 852.982 414.102" stroke="#0F0967" stroke-width="3" stroke-linecap="round"/>
<path d="M1111.84 153.418L1109.27 158.561C1114.42 165.759 1115.71 176.987 1115.71 181.701V349.36C1115.71 354.502 1109.7 358.358 1106.69 359.644C1075.76 369.928 1015.19 356.106 990.709 351.393C983.492 351.393 981.688 345.394 981.688 342.394L998.441 181.701C999.472 159.075 1012.62 150.847 1019.06 149.562L1043.54 148.276L1053.85 131.564C1056.95 126.422 1061.16 128.564 1062.87 130.278C1083.49 141.591 1102.39 145.277 1109.27 145.705C1113.39 146.733 1112.7 151.276 1111.84 153.418Z" fill="#6399FF"/>
<path d="M1072.95 199.918C1068.91 173.678 1052.2 154.345 1043.81 147.466C1043.45 147.168 1042.99 147.022 1042.52 147.039C951.846 150.322 883.814 236.092 870.213 276.36C853.447 325.998 857.267 338.184 857.324 367.028C857.325 367.435 857.447 367.843 857.688 368.171C866.768 380.546 887.686 383.324 898.446 383.185C899.333 383.174 900.08 382.557 900.292 381.696C907.836 351.08 912.815 316.539 921.713 302.859C936.819 279.634 950.242 273.456 965.735 270.359C970.899 269.326 969.609 275.95 968.318 279.391C960.055 307.262 940.389 373.253 925.755 405.081C923.69 410.242 926.616 414.113 928.338 415.404C939.7 427.791 965.781 434.328 977.402 436.049C998.06 441.21 1020.44 433.898 1029.05 429.597C1060.04 416.178 1071.23 347.446 1072.95 314.758C1076.05 255.919 1074.24 213.682 1072.95 199.918Z" fill="url(#paint4_linear)"/>
<path d="M1101.11 182.734C1103.91 165.969 1107.63 159.164 1109.59 157.375C1109.93 157.07 1110.4 157.018 1110.84 157.122C1124.86 160.44 1131.74 172.168 1136.02 178.869C1154.13 207.212 1170.08 207.641 1179.99 207.212C1209.02 206.215 1233.93 168.964 1243.72 148.653C1244.23 147.589 1245.54 147.177 1246.57 147.746C1257.2 153.598 1268.8 157.415 1274.97 159.044C1276.07 159.334 1276.74 160.462 1276.43 161.555C1262.74 210.024 1234.13 246.46 1221.38 258.744C1189.3 295.847 1145.94 285.369 1128.26 275.492C1127.23 333.208 1130.42 387.145 1132.14 406.899C1133.18 415.144 1128.26 418.064 1125.68 418.494L1114.04 421.07C1087.21 421.07 1087.56 375.479 1089.71 351.86C1092.82 294.144 1097.23 214.942 1101.11 182.734Z" fill="url(#paint5_linear)"/>
<path d="M1059.32 126.391C1049.97 139.289 1025.82 151.396 1004.32 143.891C989.128 138.589 977.376 128.982 958.681 106.469" stroke="#0A39D1" stroke-width="2"/>
<path d="M1155.64 90.9942C1157.51 64.8561 1148.62 49.7644 1143.95 45.4858C1133.82 33.817 1105.14 16.0804 1071.48 38.4846C1037.81 60.8887 1041.87 97.6066 1048.1 113.165C1064 139.303 1091.35 145.838 1103.04 145.838C1136.7 144.904 1149.01 122.111 1150.96 110.831C1158.44 110.831 1161.96 107.33 1162.65 103.83C1164.27 95.6617 1158.36 92.1611 1155.64 90.9942Z" fill="#ECF1FD"/>
<path d="M1076.6 86.4836C1079.93 88.2336 1083.6 92.4836 1081.35 99.7336" stroke="#0F0967" stroke-width="3" stroke-linecap="round" stroke-linejoin="round"/>
<path d="M1157.13 35.3026C1163.66 45.5434 1155.97 54.3101 1151.31 57.4133C1144.09 43.4487 1127.77 46.2182 1119.84 48.1036C1098.67 53.1389 1093.56 73.3261 1092.09 84.6788C1091.99 85.4664 1091.06 85.8404 1090.45 85.3379L1079.06 76.0328C1070.67 69.516 1065.46 73.3175 1063.91 76.0328C1060.18 82.5497 1062.36 88.0579 1063.91 89.9975L1072.07 98.1435C1076.5 103.962 1072.07 121.418 1063.91 128.4C1022.89 156.329 984.668 133.055 970.684 117.927C960.43 106.755 952.978 105.755 943.882 106.29C928.034 107.221 920.352 105.306 917.079 98.1435C913.357 89.9975 920.975 83.0152 925.236 78.3603C940.16 62.0682 976.898 60.5166 993.989 62.0682C1013.57 62.9992 1024.06 51.015 1030.11 37.6301C1043.17 8.76989 1070.67 0.391113 1089.32 0.391113C1138.79 2.15542 1149.12 20.4285 1148.08 30.2608C1148 30.9909 1148.65 31.6532 1149.38 31.6331C1153.25 31.5271 1156.1 33.9305 1157.13 35.3026Z" fill="#0A39D1"/>
<path d="M1125.79 44.3215C1119.6 47.5085 1109.63 52.6078 1101.76 68.7553C1098.99 74.4368 1094.59 83.8911 1091.09 83.8911" stroke="#0A39D1" stroke-width="3"/>
<ellipse cx="1139.99" cy="81.3161" rx="3.27667" ry="3.28075" fill="#0F0967"/>
<path d="M1138.9 111.936C1135.86 111.572 1128.65 110.843 1124.09 105.375C1122.96 110.478 1123.41 119.592 1129.79 123.966" stroke="#0F0967" stroke-width="3" stroke-linecap="round" stroke-linejoin="round"/>
<path d="M985.713 269.86C964.213 269.86 925.213 264.86 909.213 337.36C906.213 347.693 903.513 371.16 900.713 382.36C891.88 383.693 870.813 382.76 857.213 368.36" stroke="white" stroke-width="3" stroke-linecap="round" stroke-linejoin="round"/>
<path d="M1042.44 325.274L990.264 316.51C987.704 316.08 985.238 317.681 984.605 320.199C973.328 365.105 974.883 377.407 1003.36 381.843C1033.42 386.525 1040.17 362.955 1046.51 331.166C1047.05 328.408 1045.21 325.74 1042.44 325.274Z" fill="#130C79"/>
<path d="M527.274 340.904C561.17 323.782 581.397 283.756 587.274 265.884L587.686 263.449L626.413 272.481L613.474 348.924L527.274 340.904Z" fill="#FFE600"/>
<path d="M549.993 318.595C540.471 329.299 526.104 336.366 520.111 338.562C569.715 343.846 592.487 293.381 597.673 267.488L580.339 264.566C568.456 269.295 561.895 305.214 549.993 318.595Z" fill="white"/>
<path d="M636.697 354.13L490.667 337.653L506.403 244.683L649.755 276.984L636.697 354.13Z" stroke="white" stroke-width="5" stroke-linecap="round" stroke-linejoin="round"/>
<path d="M514.614 339.558L509.408 370.311C509.224 371.401 509.957 372.432 511.046 372.616L605.517 388.54C606.606 388.724 607.639 387.99 607.823 386.901L613.662 352.407" stroke="white" stroke-width="5"/>
<path d="M615.066 349.759L627.728 274.958" stroke="white" stroke-width="5"/>
<path d="M600.388 394.46L597.722 430.64V447.296L525.212 440.217L522.015 430.64C519.457 413.614 519.682 407.506 513.282 398.461C497.821 391.012 498.872 384.652 500.579 379.97C502.285 375.288 510.084 373.332 513.283 374.219L524.547 376.068C524.949 376.134 525.351 375.95 525.563 375.602L532.886 363.6C537.392 351.92 552.858 356.326 559.967 357.212L581.64 363.6C600.388 366.792 600.388 381.691 600.388 394.46Z" fill="#EAF1FF"/>
<path d="M517.207 458.677L504.378 691H621.257C623.538 648.518 615.239 518.417 607.954 458.677C606.153 443.908 603.678 436.867 597.026 436.867H528.134C519.582 436.867 517.207 443.504 517.207 458.677Z" fill="#0163FF"/>
<path d="M243.064 466.262C247.625 452.608 272.521 463.891 281.073 466.262L418.857 501.348C508.559 529.417 544.288 639.478 550.94 691H187C199.923 579.485 229.761 494.71 243.064 466.262Z" fill="#0163FF"/>
<path d="M436.108 321.178C431.547 325.73 434.207 331.925 436.108 334.454L447.506 361.005C462.71 392.867 441.171 426.119 428.501 438.762V513.795C428.501 515.146 427.19 516.108 425.902 515.703L259.359 463.417C265.439 428.521 261.892 399.568 259.359 389.453C258.092 385.028 253.279 377.837 238.456 376.177C224.859 374.655 223.769 364.781 223.252 359.109C221.732 342.419 232.374 342.04 238.456 342.04H251.76C239.597 302.593 273.299 278.823 291.67 271.869L361.988 245.317C387.834 234.697 405.699 249.743 411.4 258.593L441.807 304.109C447.889 311.695 444.975 316.358 441.807 317.622L436.108 321.178Z" fill="#EAF1FF"/>
<path d="M268.754 342.026H238.346C224.663 322.302 227.577 289.555 230.744 275.647C236.826 249.855 262.419 245.935 274.455 247.2H287.758C321.207 247.2 362.51 214.327 378.981 197.891C400.266 178.167 415.723 189.672 420.791 197.891C442.076 225.2 425.859 247.2 415.09 254.786C383.162 271.475 333.37 285.762 312.464 290.82C301.822 293.854 301.695 304.728 302.962 309.785C306.003 323.44 318.166 338.233 323.867 343.922C337.17 359.094 361.243 355.301 371.379 351.508L439.222 330.822C439.575 330.714 439.961 330.81 440.22 331.073C459.632 350.786 464.502 379.41 464.502 391.335C469.063 430.783 425.859 441.909 403.687 442.541C347.433 448.61 310.564 394.496 299.161 366.68C290.609 345.818 282.057 342.026 268.754 342.026Z" fill="#0A39D1"/>
<path d="M409.198 348.365C423.187 344.873 430.857 341.621 433.897 339.9C434.475 339.574 435.248 339.813 435.467 340.439C439.608 352.31 435.141 356.851 432.229 357.668C432.183 357.681 432.137 357.696 432.093 357.715C420.441 362.605 411.997 355.058 408.596 349.794C408.239 349.242 408.56 348.524 409.198 348.365Z" fill="#ECF1FD"/>
<path d="M250.686 360.144C255.493 359.134 266.17 359.69 270.421 369.991" stroke="#0F0967" stroke-width="4" stroke-linecap="round"/>
<path d="M396.649 302.214C399.628 298.311 405.903 297.194 410.594 297.143C411.549 297.133 412.078 295.902 411.378 295.252L409.12 293.154C408.981 293.024 408.881 292.858 408.833 292.674L408.269 290.514C408.184 290.187 407.941 289.922 407.616 289.834C401.853 288.264 394.523 292.248 390.378 295.558C389.319 296.404 389.583 297.998 390.799 298.597L392.857 299.611C393.095 299.728 393.277 299.935 393.362 300.186L393.996 302.051C394.323 303.011 396.034 303.02 396.649 302.214Z" fill="#0F0967"/>
<path d="M331.487 211.503C331.256 210.707 330.424 210.249 329.629 210.48C328.833 210.71 328.375 211.542 328.606 212.338L331.487 211.503ZM283.642 252.17C290.733 251.013 304.069 246.357 314.915 239.399C320.342 235.917 325.253 231.792 328.433 227.141C331.634 222.459 333.127 217.158 331.487 211.503L328.606 212.338C329.932 216.913 328.796 221.294 325.956 225.448C323.094 229.635 318.551 233.502 313.295 236.874C302.772 243.625 289.819 248.123 283.159 249.209L283.642 252.17Z" fill="#0A39D1"/>
<path d="M411.89 246.659C420.182 238.084 427.057 219.272 412.917 204.888" stroke="#171460" stroke-width="3" stroke-linecap="round"/>
<path d="M246.099 270.943C242.147 274.905 238.476 280.04 239.182 289.437" stroke="#171460" stroke-width="3" stroke-linecap="round"/>
<path d="M357.646 586.69C370.588 607.151 375.54 625.172 382.011 649.941" stroke="white" stroke-width="4" stroke-linecap="round"/>
<path d="M600.367 436.997H527.027C524.151 437.715 518.183 441.52 517.32 450.997L503.123 655.073" stroke="white" stroke-width="4" stroke-linecap="round"/>
<path fill-rule="evenodd" clip-rule="evenodd" d="M1224.86 369.667C1213.81 369.667 1204.86 378.622 1204.86 389.667V392.875C1204.86 393.979 1205.75 394.875 1206.86 394.875H1384.83C1385.38 394.875 1385.83 395.322 1385.83 395.875V736.666C1385.83 737.218 1386.28 737.666 1386.83 737.666H1411.33C1411.88 737.666 1412.33 737.218 1412.33 736.666V395.875C1412.33 395.322 1412.78 394.875 1413.33 394.875H1593.25C1594.35 394.875 1595.25 393.979 1595.25 392.875V389.667C1595.25 378.622 1586.29 369.667 1575.25 369.667H1224.86Z" fill="url(#paint6_linear)"/>
<rect y="650" width="1920" height="50.8595" fill="#020053"/>
<rect y="700.86" width="1920" height="227.14" fill="url(#paint7_linear)"/>
<path d="M49 700.859L49 928" stroke="#0A0555" stroke-width="3"/>
<path d="M332.713 700.859L332.713 928" stroke="#0A0555" stroke-width="3"/>
<path d="M616.713 700.859L616.713 928" stroke="#0A0555" stroke-width="3"/>
<path d="M901.081 700.859L901.081 928" stroke="#0A0555" stroke-width="3"/>
<path d="M1185.08 700.859L1185.08 928" stroke="#0A0555" stroke-width="3"/>
<path d="M1469.26 700.859L1469.26 928" stroke="#0A0555" stroke-width="3"/>
<path d="M1753.45 700.859L1753.45 928" stroke="#0A0555" stroke-width="3"/>
<path d="M221 700.859L221 928" stroke="#0A0555" stroke-width="3"/>
<path d="M504.713 700.859L504.713 928" stroke="#0A0555" stroke-width="3"/>
<path d="M788.713 700.859L788.713 928" stroke="#0A0555" stroke-width="3"/>
<path d="M1073.08 700.859L1073.08 928" stroke="#0A0555" stroke-width="3"/>
<path d="M1357.08 700.859L1357.08 928" stroke="#0A0555" stroke-width="3"/>
<path d="M1641.26 700.859L1641.26 928" stroke="#0A0555" stroke-width="3"/>
<path d="M277 700.859L277 928" stroke="#0A0555" stroke-width="3"/>
<path d="M560.713 700.859L560.713 928" stroke="#0A0555" stroke-width="3"/>
<path d="M844.713 700.859L844.713 928" stroke="#0A0555" stroke-width="3"/>
<path d="M1129.08 700.859L1129.08 928" stroke="#0A0555" stroke-width="3"/>
<path d="M1413.08 700.859L1413.08 928" stroke="#0A0555" stroke-width="3"/>
<path d="M1697.26 700.859L1697.26 928" stroke="#0A0555" stroke-width="3"/>
<path d="M108 700.859L108 928" stroke="#0A0555" stroke-width="3"/>
<path d="M391.713 700.859L391.713 928" stroke="#0A0555" stroke-width="3"/>
<path d="M675.713 700.859L675.713 928" stroke="#0A0555" stroke-width="3"/>
<path d="M960.081 700.859L960.081 928" stroke="#0A0555" stroke-width="3"/>
<path d="M1244.08 700.859L1244.08 928" stroke="#0A0555" stroke-width="3"/>
<path d="M1528.26 700.859L1528.26 928" stroke="#0A0555" stroke-width="3"/>
<path d="M1812.45 700.859L1812.45 928" stroke="#0A0555" stroke-width="3"/>
<path d="M166 700.859L166 928" stroke="#0A0555" stroke-width="3"/>
<path d="M449.713 700.859L449.713 928" stroke="#0A0555" stroke-width="3"/>
<path d="M733.713 700.859L733.713 928" stroke="#0A0555" stroke-width="3"/>
<path d="M1018.08 700.859L1018.08 928" stroke="#0A0555" stroke-width="3"/>
<path d="M1302.08 700.859L1302.08 928" stroke="#0A0555" stroke-width="3"/>
<path d="M1586.26 700.859L1586.26 928" stroke="#0A0555" stroke-width="3"/>
<path d="M1870.45 700.859L1870.45 928" stroke="#0A0555" stroke-width="3"/>
<path d="M52 700.859L52 928" stroke="#3D63C6" stroke-width="2"/>
<path d="M335.713 700.859L335.713 928" stroke="#3D63C6" stroke-width="2"/>
<path d="M619.713 700.859L619.713 928" stroke="#3D63C6" stroke-width="2"/>
<path d="M904.081 700.859L904.081 928" stroke="#3D63C6" stroke-width="2"/>
<path d="M1188.08 700.859L1188.08 928" stroke="#3D63C6" stroke-width="2"/>
<path d="M1472.26 700.859L1472.26 928" stroke="#3D63C6" stroke-width="2"/>
<path d="M1756.45 700.859L1756.45 928" stroke="#3D63C6" stroke-width="2"/>
<path d="M224 700.859L224 928" stroke="#3D63C6" stroke-width="2"/>
<path d="M507.713 700.859L507.713 928" stroke="#3D63C6" stroke-width="2"/>
<path d="M791.713 700.859L791.713 928" stroke="#3D63C6" stroke-width="2"/>
<path d="M1076.08 700.859L1076.08 928" stroke="#3D63C6" stroke-width="2"/>
<path d="M1360.08 700.859L1360.08 928" stroke="#3D63C6" stroke-width="2"/>
<path d="M1644.26 700.859L1644.26 928" stroke="#3D63C6" stroke-width="2"/>
<path d="M280 700.859L280 928" stroke="#3D63C6" stroke-width="2"/>
<path d="M563.713 700.859L563.713 928" stroke="#3D63C6" stroke-width="2"/>
<path d="M847.713 700.859L847.713 928" stroke="#3D63C6" stroke-width="2"/>
<path d="M1132.08 700.859L1132.08 928" stroke="#3D63C6" stroke-width="2"/>
<path d="M1416.08 700.859L1416.08 928" stroke="#3D63C6" stroke-width="2"/>
<path d="M1700.26 700.859L1700.26 928" stroke="#3D63C6" stroke-width="2"/>
<path d="M111 700.859L111 928" stroke="#3D63C6" stroke-width="2"/>
<path d="M394.713 700.859L394.713 928" stroke="#3D63C6" stroke-width="2"/>
<path d="M678.713 700.859L678.713 928" stroke="#3D63C6" stroke-width="2"/>
<path d="M963.081 700.859L963.081 928" stroke="#3D63C6" stroke-width="2"/>
<path d="M1247.08 700.859L1247.08 928" stroke="#3D63C6" stroke-width="2"/>
<path d="M1531.26 700.859L1531.26 928" stroke="#3D63C6" stroke-width="2"/>
<path d="M1815.45 700.859L1815.45 928" stroke="#3D63C6" stroke-width="2"/>
<path d="M169 700.859L169 928" stroke="#3D63C6" stroke-width="2"/>
<path d="M452.713 700.859L452.713 928" stroke="#3D63C6" stroke-width="2"/>
<path d="M736.713 700.859L736.713 928" stroke="#3D63C6" stroke-width="2"/>
<path d="M1021.08 700.859L1021.08 928" stroke="#3D63C6" stroke-width="2"/>
<path d="M1305.08 700.859L1305.08 928" stroke="#3D63C6" stroke-width="2"/>
<path d="M1589.26 700.859L1589.26 928" stroke="#3D63C6" stroke-width="2"/>
<path d="M1873.45 700.859L1873.45 928" stroke="#3D63C6" stroke-width="2"/>
<defs>
<linearGradient id="paint0_linear" x1="1646.62" y1="428.984" x2="1646.62" y2="655.484" gradientUnits="userSpaceOnUse">
<stop stop-color="#132199"/>
<stop offset="1" stop-color="#120C70"/>
</linearGradient>
<linearGradient id="paint1_linear" x1="1685.42" y1="532.984" x2="1685.42" y2="654.984" gradientUnits="userSpaceOnUse">
<stop stop-color="#344FAD"/>
<stop offset="1" stop-color="#344FAD" stop-opacity="0"/>
</linearGradient>
<linearGradient id="paint2_linear" x1="1486.2" y1="344" x2="1673.48" y2="246.847" gradientUnits="userSpaceOnUse">
<stop offset="0.0208333" stop-color="#6B9EFF"/>
<stop offset="1" stop-color="#6297FF"/>
</linearGradient>
<linearGradient id="paint3_linear" x1="970.812" y1="334.063" x2="970.812" y2="693.484" gradientUnits="userSpaceOnUse">
<stop stop-color="#0E39E6"/>
<stop offset="1" stop-color="#061570"/>
</linearGradient>
<linearGradient id="paint4_linear" x1="965.991" y1="146.474" x2="965.991" y2="437.824" gradientUnits="userSpaceOnUse">
<stop stop-color="#0A39D1"/>
<stop offset="1" stop-color="#12099D"/>
</linearGradient>
<linearGradient id="paint5_linear" x1="1181" y1="146.662" x2="1181" y2="421.087" gradientUnits="userSpaceOnUse">
<stop stop-color="#0A39D1"/>
<stop offset="1" stop-color="#12099D"/>
</linearGradient>
<linearGradient id="paint6_linear" x1="1400.05" y1="419.667" x2="1400.05" y2="737.666" gradientUnits="userSpaceOnUse">
<stop stop-color="#678CED"/>
<stop offset="1" stop-color="#191768"/>
</linearGradient>
<linearGradient id="paint7_linear" x1="960" y1="928" x2="960" y2="700.86" gradientUnits="userSpaceOnUse">
<stop stop-color="#253EB0"/>
<stop offset="0.765625" stop-color="#182C8C"/>
<stop offset="1" stop-color="#112275"/>
</linearGradient>
</defs>
</svg>
