<svg width="686" height="800" viewBox="0 0 686 800" fill="none" xmlns="http://www.w3.org/2000/svg">
<path d="M20 1H666C676.493 1 685 9.50659 685 20V780C685 790.493 676.493 799 666 799H20C9.5066 799 1 790.493 1 780V20C1 9.50657 9.50659 1 20 1Z" stroke="#1C358B" stroke-width="2"/>
<g clip-path="url(#clip0_831_4302)">
<path d="M161.616 94.9465C161.616 87.8626 156.244 80.6475 149.209 78.1551C145.244 76.7121 140.384 76.0562 134.884 76.0562C129.256 76.0562 124.523 76.7121 120.558 78.1551C113.523 80.6475 108.151 87.8626 108.151 94.9465V120.658C108.151 123.413 110.326 125.512 113.012 125.512C115.698 125.512 117.872 123.282 117.872 120.527V93.6346C117.872 92.8475 118.512 92.3228 119.151 92.3228C119.919 92.3228 120.43 92.9787 120.43 93.6346V131.153V133.252V168.802C120.43 171.164 122.093 173 124.139 173H129.128C130.023 173 130.919 172.607 131.558 171.951C132.326 171.164 132.837 169.983 132.837 168.802L132.709 131.284C132.709 130.103 133.605 129.185 134.756 129.185C135.907 129.185 136.802 130.103 136.802 131.284L136.93 168.802C136.93 171.164 138.593 173 140.639 173H145.5C147.546 173 149.209 171.164 149.209 168.802V133.252V93.6346C149.209 92.8475 149.849 92.3228 150.488 92.3228C151.256 92.3228 151.767 92.9787 151.767 93.6346V120.396C151.767 120.396 151.767 120.396 151.767 120.527C151.767 120.527 151.767 120.527 151.767 120.658C151.767 123.413 153.942 125.643 156.628 125.643C157.395 125.643 158.163 125.381 158.802 125.118C160.081 124.594 161.105 123.413 161.36 121.708C161.36 121.577 161.36 121.577 161.36 121.445C161.36 121.314 161.36 121.314 161.36 121.183C161.36 120.921 161.36 120.789 161.36 120.527V94.9465H161.616Z" fill="#00D7D7"/>
<path d="M134.884 73.3011C140.888 73.3011 145.756 68.3088 145.756 62.1505C145.756 55.9923 140.888 51 134.884 51C128.879 51 124.012 55.9923 124.012 62.1505C124.012 68.3088 128.879 73.3011 134.884 73.3011Z" fill="#00D7D7"/>
</g>
<g clip-path="url(#clip1_831_4302)">
<path d="M161.616 286.946C161.616 279.863 156.244 272.648 149.209 270.155C145.244 268.712 140.384 268.056 134.884 268.056C129.256 268.056 124.523 268.712 120.558 270.155C113.523 272.648 108.151 279.863 108.151 286.946V312.658C108.151 315.413 110.326 317.512 113.012 317.512C115.698 317.512 117.872 315.282 117.872 312.527V285.635C117.872 284.848 118.512 284.323 119.151 284.323C119.919 284.323 120.43 284.979 120.43 285.635V323.153V325.252V360.802C120.43 363.164 122.093 365 124.139 365H129.128C130.023 365 130.919 364.607 131.558 363.951C132.326 363.164 132.837 361.983 132.837 360.802L132.709 323.284C132.709 322.103 133.605 321.185 134.756 321.185C135.907 321.185 136.802 322.103 136.802 323.284L136.93 360.802C136.93 363.164 138.593 365 140.639 365H145.5C147.546 365 149.209 363.164 149.209 360.802V325.252V285.635C149.209 284.848 149.849 284.323 150.488 284.323C151.256 284.323 151.767 284.979 151.767 285.635V312.396C151.767 312.396 151.767 312.396 151.767 312.527C151.767 312.527 151.767 312.527 151.767 312.658C151.767 315.413 153.942 317.643 156.628 317.643C157.395 317.643 158.163 317.381 158.802 317.118C160.081 316.594 161.105 315.413 161.36 313.708C161.36 313.577 161.36 313.577 161.36 313.445C161.36 313.314 161.36 313.314 161.36 313.183C161.36 312.921 161.36 312.789 161.36 312.527V286.946H161.616Z" fill="#2A4AAC"/>
<path d="M134.884 265.301C140.888 265.301 145.756 260.309 145.756 254.151C145.756 247.992 140.888 243 134.884 243C128.879 243 124.012 247.992 124.012 254.151C124.012 260.309 128.879 265.301 134.884 265.301Z" fill="#2A4AAC"/>
</g>
<g clip-path="url(#clip2_831_4302)">
<path d="M267.616 286.946C267.616 279.863 262.244 272.648 255.209 270.155C251.244 268.712 246.384 268.056 240.884 268.056C235.256 268.056 230.523 268.712 226.558 270.155C219.523 272.648 214.151 279.863 214.151 286.946V312.658C214.151 315.413 216.326 317.512 219.012 317.512C221.698 317.512 223.872 315.282 223.872 312.527V285.635C223.872 284.848 224.512 284.323 225.151 284.323C225.919 284.323 226.43 284.979 226.43 285.635V323.153V325.252V360.802C226.43 363.164 228.093 365 230.139 365H235.128C236.023 365 236.919 364.607 237.558 363.951C238.326 363.164 238.837 361.983 238.837 360.802L238.709 323.284C238.709 322.103 239.605 321.185 240.756 321.185C241.907 321.185 242.802 322.103 242.802 323.284L242.93 360.802C242.93 363.164 244.593 365 246.639 365H251.5C253.546 365 255.209 363.164 255.209 360.802V325.252V285.635C255.209 284.848 255.849 284.323 256.488 284.323C257.256 284.323 257.767 284.979 257.767 285.635V312.396C257.767 312.396 257.767 312.396 257.767 312.527C257.767 312.527 257.767 312.527 257.767 312.658C257.767 315.413 259.942 317.643 262.628 317.643C263.395 317.643 264.163 317.381 264.802 317.118C266.081 316.594 267.105 315.413 267.36 313.708C267.36 313.577 267.36 313.577 267.36 313.445C267.36 313.314 267.36 313.314 267.36 313.183C267.36 312.921 267.36 312.789 267.36 312.527V286.946H267.616Z" fill="#00D7D7"/>
<path d="M240.884 265.301C246.888 265.301 251.756 260.309 251.756 254.151C251.756 247.992 246.888 243 240.884 243C234.879 243 230.012 247.992 230.012 254.151C230.012 260.309 234.879 265.301 240.884 265.301Z" fill="#00D7D7"/>
</g>
<g clip-path="url(#clip3_831_4302)">
<path d="M267.616 94.9465C267.616 87.8626 262.244 80.6475 255.209 78.1551C251.244 76.7121 246.384 76.0562 240.884 76.0562C235.256 76.0562 230.523 76.7121 226.558 78.1551C219.523 80.6475 214.151 87.8626 214.151 94.9465V120.658C214.151 123.413 216.326 125.512 219.012 125.512C221.698 125.512 223.872 123.282 223.872 120.527V93.6346C223.872 92.8475 224.512 92.3228 225.151 92.3228C225.919 92.3228 226.43 92.9787 226.43 93.6346V131.153V133.252V168.802C226.43 171.164 228.093 173 230.139 173H235.128C236.023 173 236.919 172.607 237.558 171.951C238.326 171.164 238.837 169.983 238.837 168.802L238.709 131.284C238.709 130.103 239.605 129.185 240.756 129.185C241.907 129.185 242.802 130.103 242.802 131.284L242.93 168.802C242.93 171.164 244.593 173 246.639 173H251.5C253.546 173 255.209 171.164 255.209 168.802V133.252V93.6346C255.209 92.8475 255.849 92.3228 256.488 92.3228C257.256 92.3228 257.767 92.9787 257.767 93.6346V120.396C257.767 120.396 257.767 120.396 257.767 120.527C257.767 120.527 257.767 120.527 257.767 120.658C257.767 123.413 259.942 125.643 262.628 125.643C263.395 125.643 264.163 125.381 264.802 125.118C266.081 124.594 267.105 123.413 267.36 121.708C267.36 121.577 267.36 121.577 267.36 121.445C267.36 121.314 267.36 121.314 267.36 121.183C267.36 120.921 267.36 120.789 267.36 120.527V94.9465H267.616Z" fill="#2A4AAC"/>
<path d="M240.884 73.3011C246.888 73.3011 251.756 68.3088 251.756 62.1505C251.756 55.9923 246.888 51 240.884 51C234.879 51 230.012 55.9923 230.012 62.1505C230.012 68.3088 234.879 73.3011 240.884 73.3011Z" fill="#2A4AAC"/>
</g>
<g clip-path="url(#clip4_831_4302)">
<path d="M370.616 94.9465C370.616 87.8626 365.244 80.6475 358.209 78.1551C354.244 76.7121 349.384 76.0562 343.884 76.0562C338.256 76.0562 333.523 76.7121 329.558 78.1551C322.523 80.6475 317.151 87.8626 317.151 94.9465V120.658C317.151 123.413 319.326 125.512 322.012 125.512C324.698 125.512 326.872 123.282 326.872 120.527V93.6346C326.872 92.8475 327.512 92.3228 328.151 92.3228C328.919 92.3228 329.43 92.9787 329.43 93.6346V131.153V133.252V168.802C329.43 171.164 331.093 173 333.139 173H338.128C339.023 173 339.919 172.607 340.558 171.951C341.326 171.164 341.837 169.983 341.837 168.802L341.709 131.284C341.709 130.103 342.605 129.185 343.756 129.185C344.907 129.185 345.802 130.103 345.802 131.284L345.93 168.802C345.93 171.164 347.593 173 349.639 173H354.5C356.546 173 358.209 171.164 358.209 168.802V133.252V93.6346C358.209 92.8475 358.849 92.3228 359.488 92.3228C360.256 92.3228 360.767 92.9787 360.767 93.6346V120.396C360.767 120.396 360.767 120.396 360.767 120.527C360.767 120.527 360.767 120.527 360.767 120.658C360.767 123.413 362.942 125.643 365.628 125.643C366.395 125.643 367.163 125.381 367.802 125.118C369.081 124.594 370.105 123.413 370.36 121.708C370.36 121.577 370.36 121.577 370.36 121.445C370.36 121.314 370.36 121.314 370.36 121.183C370.36 120.921 370.36 120.789 370.36 120.527V94.9465H370.616Z" fill="#00D7D7"/>
<path d="M343.884 73.3011C349.888 73.3011 354.756 68.3088 354.756 62.1505C354.756 55.9923 349.888 51 343.884 51C337.879 51 333.012 55.9923 333.012 62.1505C333.012 68.3088 337.879 73.3011 343.884 73.3011Z" fill="#00D7D7"/>
</g>
<g clip-path="url(#clip5_831_4302)">
<path d="M370.616 286.946C370.616 279.863 365.244 272.648 358.209 270.155C354.244 268.712 349.384 268.056 343.884 268.056C338.256 268.056 333.523 268.712 329.558 270.155C322.523 272.648 317.151 279.863 317.151 286.946V312.658C317.151 315.413 319.326 317.512 322.012 317.512C324.698 317.512 326.872 315.282 326.872 312.527V285.635C326.872 284.848 327.512 284.323 328.151 284.323C328.919 284.323 329.43 284.979 329.43 285.635V323.153V325.252V360.802C329.43 363.164 331.093 365 333.139 365H338.128C339.023 365 339.919 364.607 340.558 363.951C341.326 363.164 341.837 361.983 341.837 360.802L341.709 323.284C341.709 322.103 342.605 321.185 343.756 321.185C344.907 321.185 345.802 322.103 345.802 323.284L345.93 360.802C345.93 363.164 347.593 365 349.639 365H354.5C356.546 365 358.209 363.164 358.209 360.802V325.252V285.635C358.209 284.848 358.849 284.323 359.488 284.323C360.256 284.323 360.767 284.979 360.767 285.635V312.396C360.767 312.396 360.767 312.396 360.767 312.527C360.767 312.527 360.767 312.527 360.767 312.658C360.767 315.413 362.942 317.643 365.628 317.643C366.395 317.643 367.163 317.381 367.802 317.118C369.081 316.594 370.105 315.413 370.36 313.708C370.36 313.577 370.36 313.577 370.36 313.445C370.36 313.314 370.36 313.314 370.36 313.183C370.36 312.921 370.36 312.789 370.36 312.527V286.946H370.616Z" fill="#2A4AAC"/>
<path d="M343.884 265.301C349.888 265.301 354.756 260.309 354.756 254.151C354.756 247.992 349.888 243 343.884 243C337.879 243 333.012 247.992 333.012 254.151C333.012 260.309 337.879 265.301 343.884 265.301Z" fill="#2A4AAC"/>
</g>
<g clip-path="url(#clip6_831_4302)">
<path d="M474.616 286.946C474.616 279.863 469.244 272.648 462.209 270.155C458.244 268.712 453.384 268.056 447.884 268.056C442.256 268.056 437.523 268.712 433.558 270.155C426.523 272.648 421.151 279.863 421.151 286.946V312.658C421.151 315.413 423.326 317.512 426.012 317.512C428.698 317.512 430.872 315.282 430.872 312.527V285.635C430.872 284.848 431.512 284.323 432.151 284.323C432.919 284.323 433.43 284.979 433.43 285.635V323.153V325.252V360.802C433.43 363.164 435.093 365 437.139 365H442.128C443.023 365 443.919 364.607 444.558 363.951C445.326 363.164 445.837 361.983 445.837 360.802L445.709 323.284C445.709 322.103 446.605 321.185 447.756 321.185C448.907 321.185 449.802 322.103 449.802 323.284L449.93 360.802C449.93 363.164 451.593 365 453.639 365H458.5C460.546 365 462.209 363.164 462.209 360.802V325.252V285.635C462.209 284.848 462.849 284.323 463.488 284.323C464.256 284.323 464.767 284.979 464.767 285.635V312.396C464.767 312.396 464.767 312.396 464.767 312.527C464.767 312.527 464.767 312.527 464.767 312.658C464.767 315.413 466.942 317.643 469.628 317.643C470.395 317.643 471.163 317.381 471.802 317.118C473.081 316.594 474.105 315.413 474.36 313.708C474.36 313.577 474.36 313.577 474.36 313.445C474.36 313.314 474.36 313.314 474.36 313.183C474.36 312.921 474.36 312.789 474.36 312.527V286.946H474.616Z" fill="#00D7D7"/>
<path d="M447.884 265.301C453.888 265.301 458.756 260.309 458.756 254.151C458.756 247.992 453.888 243 447.884 243C441.879 243 437.012 247.992 437.012 254.151C437.012 260.309 441.879 265.301 447.884 265.301Z" fill="#00D7D7"/>
</g>
<g clip-path="url(#clip7_831_4302)">
<path d="M474.616 94.9465C474.616 87.8626 469.244 80.6475 462.209 78.1551C458.244 76.7121 453.384 76.0562 447.884 76.0562C442.256 76.0562 437.523 76.7121 433.558 78.1551C426.523 80.6475 421.151 87.8626 421.151 94.9465V120.658C421.151 123.413 423.326 125.512 426.012 125.512C428.698 125.512 430.872 123.282 430.872 120.527V93.6346C430.872 92.8475 431.512 92.3228 432.151 92.3228C432.919 92.3228 433.43 92.9787 433.43 93.6346V131.153V133.252V168.802C433.43 171.164 435.093 173 437.139 173H442.128C443.023 173 443.919 172.607 444.558 171.951C445.326 171.164 445.837 169.983 445.837 168.802L445.709 131.284C445.709 130.103 446.605 129.185 447.756 129.185C448.907 129.185 449.802 130.103 449.802 131.284L449.93 168.802C449.93 171.164 451.593 173 453.639 173H458.5C460.546 173 462.209 171.164 462.209 168.802V133.252V93.6346C462.209 92.8475 462.849 92.3228 463.488 92.3228C464.256 92.3228 464.767 92.9787 464.767 93.6346V120.396C464.767 120.396 464.767 120.396 464.767 120.527C464.767 120.527 464.767 120.527 464.767 120.658C464.767 123.413 466.942 125.643 469.628 125.643C470.395 125.643 471.163 125.381 471.802 125.118C473.081 124.594 474.105 123.413 474.36 121.708C474.36 121.577 474.36 121.577 474.36 121.445C474.36 121.314 474.36 121.314 474.36 121.183C474.36 120.921 474.36 120.789 474.36 120.527V94.9465H474.616Z" fill="#2A4AAC"/>
<path d="M447.884 73.3011C453.888 73.3011 458.756 68.3088 458.756 62.1505C458.756 55.9923 453.888 51 447.884 51C441.879 51 437.012 55.9923 437.012 62.1505C437.012 68.3088 441.879 73.3011 447.884 73.3011Z" fill="#2A4AAC"/>
</g>
<g clip-path="url(#clip8_831_4302)">
<path d="M578.616 94.9465C578.616 87.8626 573.244 80.6475 566.209 78.1551C562.244 76.7121 557.384 76.0562 551.884 76.0562C546.256 76.0562 541.523 76.7121 537.558 78.1551C530.523 80.6475 525.151 87.8626 525.151 94.9465V120.658C525.151 123.413 527.326 125.512 530.012 125.512C532.698 125.512 534.872 123.282 534.872 120.527V93.6346C534.872 92.8475 535.512 92.3228 536.151 92.3228C536.919 92.3228 537.43 92.9787 537.43 93.6346V131.153V133.252V168.802C537.43 171.164 539.093 173 541.139 173H546.128C547.023 173 547.919 172.607 548.558 171.951C549.326 171.164 549.837 169.983 549.837 168.802L549.709 131.284C549.709 130.103 550.605 129.185 551.756 129.185C552.907 129.185 553.802 130.103 553.802 131.284L553.93 168.802C553.93 171.164 555.593 173 557.639 173H562.5C564.546 173 566.209 171.164 566.209 168.802V133.252V93.6346C566.209 92.8475 566.849 92.3228 567.488 92.3228C568.256 92.3228 568.767 92.9787 568.767 93.6346V120.396C568.767 120.396 568.767 120.396 568.767 120.527C568.767 120.527 568.767 120.527 568.767 120.658C568.767 123.413 570.942 125.643 573.628 125.643C574.395 125.643 575.163 125.381 575.802 125.118C577.081 124.594 578.105 123.413 578.36 121.708C578.36 121.577 578.36 121.577 578.36 121.445C578.36 121.314 578.36 121.314 578.36 121.183C578.36 120.921 578.36 120.789 578.36 120.527V94.9465H578.616Z" fill="#00D7D7"/>
<path d="M551.884 73.3011C557.888 73.3011 562.756 68.3088 562.756 62.1505C562.756 55.9923 557.888 51 551.884 51C545.879 51 541.012 55.9923 541.012 62.1505C541.012 68.3088 545.879 73.3011 551.884 73.3011Z" fill="#00D7D7"/>
</g>
<g clip-path="url(#clip9_831_4302)">
<path d="M578.616 286.946C578.616 279.863 573.244 272.648 566.209 270.155C562.244 268.712 557.384 268.056 551.884 268.056C546.256 268.056 541.523 268.712 537.558 270.155C530.523 272.648 525.151 279.863 525.151 286.946V312.658C525.151 315.413 527.326 317.512 530.012 317.512C532.698 317.512 534.872 315.282 534.872 312.527V285.635C534.872 284.848 535.512 284.323 536.151 284.323C536.919 284.323 537.43 284.979 537.43 285.635V323.153V325.252V360.802C537.43 363.164 539.093 365 541.139 365H546.128C547.023 365 547.919 364.607 548.558 363.951C549.326 363.164 549.837 361.983 549.837 360.802L549.709 323.284C549.709 322.103 550.605 321.185 551.756 321.185C552.907 321.185 553.802 322.103 553.802 323.284L553.93 360.802C553.93 363.164 555.593 365 557.639 365H562.5C564.546 365 566.209 363.164 566.209 360.802V325.252V285.635C566.209 284.848 566.849 284.323 567.488 284.323C568.256 284.323 568.767 284.979 568.767 285.635V312.396C568.767 312.396 568.767 312.396 568.767 312.527C568.767 312.527 568.767 312.527 568.767 312.658C568.767 315.413 570.942 317.643 573.628 317.643C574.395 317.643 575.163 317.381 575.802 317.118C577.081 316.594 578.105 315.413 578.36 313.708C578.36 313.577 578.36 313.577 578.36 313.445C578.36 313.314 578.36 313.314 578.36 313.183C578.36 312.921 578.36 312.789 578.36 312.527V286.946H578.616Z" fill="#2A4AAC"/>
<path d="M551.884 265.301C557.888 265.301 562.756 260.309 562.756 254.151C562.756 247.992 557.888 243 551.884 243C545.879 243 541.012 247.992 541.012 254.151C541.012 260.309 545.879 265.301 551.884 265.301Z" fill="#2A4AAC"/>
</g>
<path d="M270.666 496.771L261.866 470.958C260.799 468.004 258.799 465.436 256.132 463.381C252.532 460.813 247.999 459.4 243.332 459.4H235.999C231.332 459.4 226.799 460.813 223.199 463.381C220.399 465.436 218.399 468.004 217.332 470.958L208.399 496.771C207.732 498.44 207.999 500.366 208.932 501.908C209.066 502.036 209.066 502.164 209.199 502.293C211.332 504.733 215.599 503.834 216.666 500.752L224.932 477.379C225.066 476.865 225.732 476.48 226.266 476.737C226.799 476.865 227.199 477.508 226.932 478.021L214.266 517.19C213.999 518.217 214.799 519.116 215.866 519.116H226.666C227.599 519.116 228.266 519.886 228.266 520.657V552.249C228.266 554.303 230.399 555.973 232.932 555.973C235.466 555.973 237.599 554.303 237.599 552.249V521.042C237.599 519.886 238.532 518.988 239.732 518.988C240.932 518.988 241.866 519.886 241.866 521.042V552.249C241.866 554.303 243.999 555.973 246.532 555.973C249.066 555.973 251.199 554.303 251.199 552.249V520.785C251.199 519.886 251.999 519.244 252.799 519.244H263.599C264.666 519.244 265.466 518.217 265.199 517.318L252.399 478.15C252.266 477.636 252.532 476.994 253.066 476.865C253.599 476.609 254.266 476.994 254.532 477.508L262.666 501.009C263.732 504.091 267.999 505.118 270.132 502.55C270.266 502.421 270.266 502.293 270.399 502.164C271.199 500.238 271.332 498.44 270.666 496.771Z" fill="#2A4AAC"/>
<path d="M239.6 435C233.467 435 228.4 439.88 228.4 445.787C228.4 451.695 233.467 456.575 239.6 456.575C245.733 456.575 250.8 451.695 250.8 445.787C250.8 439.88 245.733 435 239.6 435Z" fill="#2A4AAC"/>
<path d="M270.666 688.771L261.866 662.958C260.799 660.004 258.799 657.436 256.132 655.381C252.532 652.813 247.999 651.4 243.332 651.4H235.999C231.332 651.4 226.799 652.813 223.199 655.381C220.399 657.436 218.399 660.004 217.332 662.958L208.399 688.771C207.732 690.44 207.999 692.366 208.932 693.908C209.066 694.036 209.066 694.164 209.199 694.293C211.332 696.733 215.599 695.834 216.666 692.752L224.932 669.379C225.066 668.865 225.732 668.48 226.266 668.737C226.799 668.865 227.199 669.508 226.932 670.021L214.266 709.19C213.999 710.217 214.799 711.116 215.866 711.116H226.666C227.599 711.116 228.266 711.886 228.266 712.657V744.249C228.266 746.303 230.399 747.973 232.932 747.973C235.466 747.973 237.599 746.303 237.599 744.249V713.042C237.599 711.886 238.532 710.988 239.732 710.988C240.932 710.988 241.866 711.886 241.866 713.042V744.249C241.866 746.303 243.999 747.973 246.532 747.973C249.066 747.973 251.199 746.303 251.199 744.249V712.785C251.199 711.886 251.999 711.244 252.799 711.244H263.599C264.666 711.244 265.466 710.217 265.199 709.318L252.399 670.15C252.266 669.636 252.532 668.994 253.066 668.865C253.599 668.609 254.266 668.994 254.532 669.508L262.666 693.009C263.732 696.091 267.999 697.118 270.132 694.55C270.266 694.421 270.266 694.293 270.399 694.164C271.199 692.238 271.332 690.44 270.666 688.771Z" fill="#FF7BF9"/>
<path d="M239.6 627C233.467 627 228.4 631.88 228.4 637.787C228.4 643.695 233.467 648.575 239.6 648.575C245.733 648.575 250.8 643.695 250.8 637.787C250.8 631.88 245.733 627 239.6 627Z" fill="#FF7BF9"/>
<path d="M374.666 688.771L365.866 662.958C364.799 660.004 362.799 657.436 360.132 655.381C356.532 652.813 351.999 651.4 347.332 651.4H339.999C335.332 651.4 330.799 652.813 327.199 655.381C324.399 657.436 322.399 660.004 321.332 662.958L312.399 688.771C311.732 690.44 311.999 692.366 312.932 693.908C313.066 694.036 313.066 694.164 313.199 694.293C315.332 696.733 319.599 695.834 320.666 692.752L328.932 669.379C329.066 668.865 329.732 668.48 330.266 668.737C330.799 668.865 331.199 669.508 330.932 670.021L318.266 709.19C317.999 710.217 318.799 711.116 319.866 711.116H330.666C331.599 711.116 332.266 711.886 332.266 712.657V744.249C332.266 746.303 334.399 747.973 336.932 747.973C339.466 747.973 341.599 746.303 341.599 744.249V713.042C341.599 711.886 342.532 710.988 343.732 710.988C344.932 710.988 345.866 711.886 345.866 713.042V744.249C345.866 746.303 347.999 747.973 350.532 747.973C353.066 747.973 355.199 746.303 355.199 744.249V712.785C355.199 711.886 355.999 711.244 356.799 711.244H367.599C368.666 711.244 369.466 710.217 369.199 709.318L356.399 670.15C356.266 669.636 356.532 668.994 357.066 668.865C357.599 668.609 358.266 668.994 358.532 669.508L366.666 693.009C367.732 696.091 371.999 697.118 374.132 694.55C374.266 694.421 374.266 694.293 374.399 694.164C375.199 692.238 375.332 690.44 374.666 688.771Z" fill="#2A4AAC"/>
<path d="M343.6 627C337.467 627 332.4 631.88 332.4 637.787C332.4 643.695 337.467 648.575 343.6 648.575C349.733 648.575 354.8 643.695 354.8 637.787C354.8 631.88 349.733 627 343.6 627Z" fill="#2A4AAC"/>
<path d="M165.666 688.771L156.866 662.958C155.799 660.004 153.799 657.436 151.132 655.381C147.532 652.813 142.999 651.4 138.332 651.4H130.999C126.332 651.4 121.799 652.813 118.199 655.381C115.399 657.436 113.399 660.004 112.332 662.958L103.399 688.771C102.732 690.44 102.999 692.366 103.932 693.908C104.066 694.036 104.066 694.164 104.199 694.293C106.332 696.733 110.599 695.834 111.666 692.752L119.932 669.379C120.066 668.865 120.732 668.48 121.266 668.737C121.799 668.865 122.199 669.508 121.932 670.021L109.266 709.19C108.999 710.217 109.799 711.116 110.866 711.116H121.666C122.599 711.116 123.266 711.886 123.266 712.657V744.249C123.266 746.303 125.399 747.973 127.932 747.973C130.466 747.973 132.599 746.303 132.599 744.249V713.042C132.599 711.886 133.532 710.988 134.732 710.988C135.932 710.988 136.866 711.886 136.866 713.042V744.249C136.866 746.303 138.999 747.973 141.532 747.973C144.066 747.973 146.199 746.303 146.199 744.249V712.785C146.199 711.886 146.999 711.244 147.799 711.244H158.599C159.666 711.244 160.466 710.217 160.199 709.318L147.399 670.15C147.266 669.636 147.532 668.994 148.066 668.865C148.599 668.609 149.266 668.994 149.532 669.508L157.666 693.009C158.732 696.091 162.999 697.118 165.132 694.55C165.266 694.421 165.266 694.293 165.399 694.164C166.199 692.238 166.332 690.44 165.666 688.771Z" fill="#2A4AAC"/>
<path d="M134.6 627C128.467 627 123.4 631.88 123.4 637.787C123.4 643.695 128.467 648.575 134.6 648.575C140.733 648.575 145.8 643.695 145.8 637.787C145.8 631.88 140.733 627 134.6 627Z" fill="#2A4AAC"/>
<path d="M477.688 496.771L469.025 470.958C467.975 468.004 466.006 465.436 463.381 463.381C459.838 460.813 455.375 459.4 450.781 459.4H443.563C438.969 459.4 434.506 460.813 430.963 463.381C428.206 465.436 426.238 468.004 425.188 470.958L416.394 496.771C415.738 498.44 416 500.366 416.919 501.908C417.05 502.036 417.05 502.164 417.181 502.293C419.281 504.733 423.481 503.834 424.531 500.752L432.669 477.379C432.8 476.865 433.456 476.48 433.981 476.737C434.506 476.865 434.9 477.508 434.638 478.021L422.169 517.19C421.906 518.217 422.694 519.116 423.744 519.116H434.375C435.294 519.116 435.95 519.886 435.95 520.657V552.249C435.95 554.303 438.05 555.973 440.544 555.973C443.038 555.973 445.138 554.303 445.138 552.249V521.042C445.138 519.886 446.056 518.988 447.238 518.988C448.419 518.988 449.338 519.886 449.338 521.042V552.249C449.338 554.303 451.438 555.973 453.931 555.973C456.425 555.973 458.525 554.303 458.525 552.249V520.785C458.525 519.886 459.313 519.244 460.1 519.244H470.731C471.781 519.244 472.569 518.217 472.306 517.318L459.706 478.15C459.575 477.636 459.838 476.994 460.363 476.865C460.888 476.609 461.544 476.994 461.806 477.508L469.813 501.009C470.863 504.091 475.063 505.118 477.163 502.55C477.294 502.421 477.294 502.293 477.425 502.164C478.213 500.238 478.344 498.44 477.688 496.771Z" fill="#FF7BF9"/>
<path d="M447.106 435C441.069 435 436.081 439.88 436.081 445.787C436.081 451.695 441.069 456.575 447.106 456.575C453.144 456.575 458.131 451.695 458.131 445.787C458.131 439.88 453.144 435 447.106 435Z" fill="#FF7BF9"/>
<path d="M477.688 688.771L469.025 662.958C467.975 660.004 466.006 657.436 463.381 655.381C459.838 652.813 455.375 651.4 450.781 651.4H443.563C438.969 651.4 434.506 652.813 430.963 655.381C428.206 657.436 426.238 660.004 425.188 662.958L416.394 688.771C415.738 690.44 416 692.366 416.919 693.908C417.05 694.036 417.05 694.164 417.181 694.293C419.281 696.733 423.481 695.834 424.531 692.752L432.669 669.379C432.8 668.865 433.456 668.48 433.981 668.737C434.506 668.865 434.9 669.508 434.638 670.021L422.169 709.19C421.906 710.217 422.694 711.116 423.744 711.116H434.375C435.294 711.116 435.95 711.886 435.95 712.657V744.249C435.95 746.303 438.05 747.973 440.544 747.973C443.038 747.973 445.138 746.303 445.138 744.249V713.042C445.138 711.886 446.056 710.988 447.238 710.988C448.419 710.988 449.338 711.886 449.338 713.042V744.249C449.338 746.303 451.438 747.973 453.931 747.973C456.425 747.973 458.525 746.303 458.525 744.249V712.785C458.525 711.886 459.313 711.244 460.1 711.244H470.731C471.781 711.244 472.569 710.217 472.306 709.318L459.706 670.15C459.575 669.636 459.838 668.994 460.363 668.865C460.888 668.609 461.544 668.994 461.806 669.508L469.813 693.009C470.863 696.091 475.063 697.118 477.163 694.55C477.294 694.421 477.294 694.293 477.425 694.164C478.213 692.238 478.344 690.44 477.688 688.771Z" fill="#2A4AAC"/>
<path d="M447.106 627C441.069 627 436.081 631.88 436.081 637.787C436.081 643.695 441.069 648.575 447.106 648.575C453.144 648.575 458.131 643.695 458.131 637.787C458.131 631.88 453.144 627 447.106 627Z" fill="#2A4AAC"/>
<path d="M581.688 688.771L573.025 662.958C571.975 660.004 570.006 657.436 567.381 655.381C563.838 652.813 559.375 651.4 554.781 651.4H547.563C542.969 651.4 538.506 652.813 534.963 655.381C532.206 657.436 530.238 660.004 529.188 662.958L520.394 688.771C519.738 690.44 520 692.366 520.919 693.908C521.05 694.036 521.05 694.164 521.181 694.293C523.281 696.733 527.481 695.834 528.531 692.752L536.669 669.379C536.8 668.865 537.456 668.48 537.981 668.737C538.506 668.865 538.9 669.508 538.638 670.021L526.169 709.19C525.906 710.217 526.694 711.116 527.744 711.116H538.375C539.294 711.116 539.95 711.886 539.95 712.657V744.249C539.95 746.303 542.05 747.973 544.544 747.973C547.038 747.973 549.138 746.303 549.138 744.249V713.042C549.138 711.886 550.056 710.988 551.238 710.988C552.419 710.988 553.338 711.886 553.338 713.042V744.249C553.338 746.303 555.438 747.973 557.931 747.973C560.425 747.973 562.525 746.303 562.525 744.249V712.785C562.525 711.886 563.313 711.244 564.1 711.244H574.731C575.781 711.244 576.569 710.217 576.306 709.318L563.706 670.15C563.575 669.636 563.838 668.994 564.363 668.865C564.888 668.609 565.544 668.994 565.806 669.508L573.813 693.009C574.863 696.091 579.063 697.118 581.163 694.55C581.294 694.421 581.294 694.293 581.425 694.164C582.213 692.238 582.344 690.44 581.688 688.771Z" fill="#FF7BF9"/>
<path d="M551.106 627C545.069 627 540.081 631.88 540.081 637.787C540.081 643.695 545.069 648.575 551.106 648.575C557.144 648.575 562.131 643.695 562.131 637.787C562.131 631.88 557.144 627 551.106 627Z" fill="#FF7BF9"/>
<path d="M374.666 495.771L365.866 469.958C364.799 467.004 362.799 464.436 360.132 462.381C356.532 459.813 351.999 458.4 347.332 458.4H339.999C335.332 458.4 330.799 459.813 327.199 462.381C324.399 464.436 322.399 467.004 321.332 469.958L312.399 495.771C311.732 497.44 311.999 499.366 312.932 500.908C313.066 501.036 313.066 501.164 313.199 501.293C315.332 503.733 319.599 502.834 320.666 499.752L328.932 476.379C329.066 475.865 329.732 475.48 330.266 475.737C330.799 475.865 331.199 476.508 330.932 477.021L318.266 516.19C317.999 517.217 318.799 518.116 319.866 518.116H330.666C331.599 518.116 332.266 518.886 332.266 519.657V551.249C332.266 553.303 334.399 554.973 336.932 554.973C339.466 554.973 341.599 553.303 341.599 551.249V520.042C341.599 518.886 342.532 517.988 343.732 517.988C344.932 517.988 345.866 518.886 345.866 520.042V551.249C345.866 553.303 347.999 554.973 350.532 554.973C353.066 554.973 355.199 553.303 355.199 551.249V519.785C355.199 518.886 355.999 518.244 356.799 518.244H367.599C368.666 518.244 369.466 517.217 369.199 516.318L356.399 477.15C356.266 476.636 356.532 475.994 357.066 475.865C357.599 475.609 358.266 475.994 358.532 476.508L366.666 500.009C367.732 503.091 371.999 504.118 374.132 501.55C374.266 501.421 374.266 501.293 374.399 501.164C375.199 499.238 375.332 497.44 374.666 495.771Z" fill="#2A4AAC"/>
<path d="M343.6 434C337.467 434 332.4 438.88 332.4 444.787C332.4 450.695 337.467 455.575 343.6 455.575C349.733 455.575 354.8 450.695 354.8 444.787C354.8 438.88 349.733 434 343.6 434Z" fill="#2A4AAC"/>
<path d="M165.666 495.771L156.866 469.958C155.799 467.004 153.799 464.436 151.132 462.381C147.532 459.813 142.999 458.4 138.332 458.4H130.999C126.332 458.4 121.799 459.813 118.199 462.381C115.399 464.436 113.399 467.004 112.332 469.958L103.399 495.771C102.732 497.44 102.999 499.366 103.932 500.908C104.066 501.036 104.066 501.164 104.199 501.293C106.332 503.733 110.599 502.834 111.666 499.752L119.932 476.379C120.066 475.865 120.732 475.48 121.266 475.737C121.799 475.865 122.199 476.508 121.932 477.021L109.266 516.19C108.999 517.217 109.799 518.116 110.866 518.116H121.666C122.599 518.116 123.266 518.886 123.266 519.657V551.249C123.266 553.303 125.399 554.973 127.932 554.973C130.466 554.973 132.599 553.303 132.599 551.249V520.042C132.599 518.886 133.532 517.988 134.732 517.988C135.932 517.988 136.866 518.886 136.866 520.042V551.249C136.866 553.303 138.999 554.973 141.532 554.973C144.066 554.973 146.199 553.303 146.199 551.249V519.785C146.199 518.886 146.999 518.244 147.799 518.244H158.599C159.666 518.244 160.466 517.217 160.199 516.318L147.399 477.15C147.266 476.636 147.532 475.994 148.066 475.865C148.599 475.609 149.266 475.994 149.532 476.508L157.666 500.009C158.732 503.091 162.999 504.118 165.132 501.55C165.266 501.421 165.266 501.293 165.399 501.164C166.199 499.238 166.332 497.44 165.666 495.771Z" fill="#FF7BF9"/>
<path d="M134.6 434C128.467 434 123.4 438.88 123.4 444.787C123.4 450.695 128.467 455.575 134.6 455.575C140.733 455.575 145.8 450.695 145.8 444.787C145.8 438.88 140.733 434 134.6 434Z" fill="#FF7BF9"/>
<path d="M581.688 495.771L573.025 469.958C571.975 467.004 570.006 464.436 567.381 462.381C563.838 459.813 559.375 458.4 554.781 458.4H547.563C542.969 458.4 538.506 459.813 534.963 462.381C532.206 464.436 530.238 467.004 529.188 469.958L520.394 495.771C519.738 497.44 520 499.366 520.919 500.908C521.05 501.036 521.05 501.164 521.181 501.293C523.281 503.733 527.481 502.834 528.531 499.752L536.669 476.379C536.8 475.865 537.456 475.48 537.981 475.737C538.506 475.865 538.9 476.508 538.638 477.021L526.169 516.19C525.906 517.217 526.694 518.116 527.744 518.116H538.375C539.294 518.116 539.95 518.886 539.95 519.657V551.249C539.95 553.303 542.05 554.973 544.544 554.973C547.038 554.973 549.138 553.303 549.138 551.249V520.042C549.138 518.886 550.056 517.988 551.238 517.988C552.419 517.988 553.338 518.886 553.338 520.042V551.249C553.338 553.303 555.438 554.973 557.931 554.973C560.425 554.973 562.525 553.303 562.525 551.249V519.785C562.525 518.886 563.313 518.244 564.1 518.244H574.731C575.781 518.244 576.569 517.217 576.306 516.318L563.706 477.15C563.575 476.636 563.838 475.994 564.363 475.865C564.888 475.609 565.544 475.994 565.806 476.508L573.813 500.009C574.863 503.091 579.063 504.118 581.163 501.55C581.294 501.421 581.294 501.293 581.425 501.164C582.213 499.238 582.344 497.44 581.688 495.771Z" fill="#2A4AAC"/>
<path d="M551.106 434C545.069 434 540.081 438.88 540.081 444.787C540.081 450.695 545.069 455.575 551.106 455.575C557.144 455.575 562.131 450.695 562.131 444.787C562.131 438.88 557.144 434 551.106 434Z" fill="#2A4AAC"/>
<defs>
<clipPath id="clip0_831_4302">
<rect width="55" height="122" fill="white" transform="translate(107 51)"/>
</clipPath>
<clipPath id="clip1_831_4302">
<rect width="55" height="122" fill="white" transform="translate(107 243)"/>
</clipPath>
<clipPath id="clip2_831_4302">
<rect width="55" height="122" fill="white" transform="translate(213 243)"/>
</clipPath>
<clipPath id="clip3_831_4302">
<rect width="55" height="122" fill="white" transform="translate(213 51)"/>
</clipPath>
<clipPath id="clip4_831_4302">
<rect width="55" height="122" fill="white" transform="translate(316 51)"/>
</clipPath>
<clipPath id="clip5_831_4302">
<rect width="55" height="122" fill="white" transform="translate(316 243)"/>
</clipPath>
<clipPath id="clip6_831_4302">
<rect width="55" height="122" fill="white" transform="translate(420 243)"/>
</clipPath>
<clipPath id="clip7_831_4302">
<rect width="55" height="122" fill="white" transform="translate(420 51)"/>
</clipPath>
<clipPath id="clip8_831_4302">
<rect width="55" height="122" fill="white" transform="translate(524 51)"/>
</clipPath>
<clipPath id="clip9_831_4302">
<rect width="55" height="122" fill="white" transform="translate(524 243)"/>
</clipPath>
</defs>
</svg>
