<svg width="686" height="376" viewBox="0 0 686 376" fill="none" xmlns="http://www.w3.org/2000/svg">
<path d="M1 20C1 9.50659 9.50659 1 20 1H666C676.493 1 685 9.50659 685 20V356C685 366.493 676.493 375 666 375H20C9.5066 375 1 366.493 1 356V20Z" stroke="#1C358B" stroke-width="2"/>
<path d="M107.768 112V95.248H104.792L99.896 99.184L101.576 101.368L104.408 99.064V112H107.768ZM122.96 97.384V94.312H119.744V97.384H122.96ZM122.96 112V99.64H119.744V112H122.96ZM137.703 112V104.2C137.703 101.296 136.335 99.352 133.503 99.352C131.799 99.352 130.431 99.928 129.447 101.32H129.399V99.64H126.351V112H129.567V106C129.567 103.816 130.359 101.848 132.399 101.848C134.103 101.848 134.487 103.216 134.487 105.064V112H137.703ZM147.775 111.808C149.047 112.12 150.607 112.288 151.687 112.288C155.719 112.288 158.215 110.008 158.215 106.576C158.215 102.808 155.815 101.152 152.815 101.152C152.215 101.152 151.855 101.224 151.279 101.32L151.351 97.744H157.807V95.248H148.183L148.015 104.248C148.999 103.936 149.983 103.792 151.015 103.792C153.391 103.792 154.855 104.848 154.855 106.696C154.855 108.592 153.367 109.648 151.231 109.648C150.271 109.648 149.239 109.408 147.847 108.808L147.775 111.808ZM183.175 112L176.599 95.248H172.807L166.279 112H169.759L171.223 108.16H178.015L179.455 112H183.175ZM177.079 105.52H172.183L174.607 98.608H174.655L177.079 105.52ZM196.391 112V94H193.175V101.08H193.127C192.167 99.904 191.039 99.352 189.431 99.352C185.879 99.352 184.247 102.04 184.247 105.784C184.247 109.216 185.663 112.288 189.431 112.288C190.943 112.288 192.263 111.808 193.223 110.608H193.271V112H196.391ZM190.319 109.792C188.231 109.792 187.607 107.536 187.607 105.784C187.607 103.864 188.327 101.848 190.271 101.848C192.335 101.848 193.151 104.056 193.151 105.784C193.151 107.584 192.431 109.792 190.319 109.792ZM211.063 112V99.64H207.847V105.616C207.847 107.992 206.959 109.792 205.015 109.792C203.839 109.792 202.927 109.168 202.927 106.696V99.64H199.711V107.44C199.711 110.44 201.151 112.288 203.911 112.288C205.519 112.288 206.911 111.592 207.967 110.32H208.015V112H211.063ZM217.671 112V94H214.455V112H217.671ZM228.31 109.456C227.974 109.672 227.422 109.792 226.87 109.792C225.742 109.792 225.334 109.024 225.334 107.728V101.992H228.19V99.64H225.334V96.136L222.118 97.168V99.64H219.742V101.992H222.118V108.28C222.118 110.656 223.438 112.288 226.054 112.288C226.99 112.288 227.734 112.192 228.406 112L228.31 109.456ZM229.718 111.76C230.894 112.072 232.166 112.288 233.342 112.288C236.222 112.288 238.55 110.968 238.55 108.256C238.55 106.192 237.398 105.16 235.094 104.512C233.63 104.104 232.958 103.768 232.958 103.072C232.958 102.16 233.75 101.704 234.878 101.704C235.886 101.704 236.63 101.848 237.734 102.232L237.95 99.808C236.414 99.448 235.454 99.352 234.47 99.352C231.686 99.352 229.598 100.696 229.598 103.192C229.598 105.256 230.726 106.144 232.886 106.72C234.182 107.08 235.19 107.392 235.19 108.424C235.19 109.6 233.942 109.936 233.078 109.936C231.974 109.936 230.918 109.624 229.91 109.12L229.718 111.76Z" fill="white"/>
<g clip-path="url(#clip0)">
<path d="M152.616 206.226C152.616 199.258 147.244 192.161 140.209 189.71C136.244 188.29 131.384 187.645 125.884 187.645C120.256 187.645 115.523 188.29 111.558 189.71C104.523 192.161 99.1511 199.258 99.1511 206.226V231.516C99.1511 234.226 101.326 236.29 104.012 236.29C106.698 236.29 108.872 234.097 108.872 231.387V204.936C108.872 204.161 109.512 203.645 110.151 203.645C110.919 203.645 111.43 204.29 111.43 204.936V241.839V243.903V278.871C111.43 281.194 113.093 283 115.14 283H120.128C121.023 283 121.919 282.613 122.558 281.968C123.326 281.194 123.837 280.032 123.837 278.871L123.709 241.968C123.709 240.807 124.605 239.903 125.756 239.903C126.907 239.903 127.802 240.807 127.802 241.968L127.93 278.871C127.93 281.194 129.593 283 131.64 283H136.5C138.546 283 140.209 281.194 140.209 278.871V243.903V204.936C140.209 204.161 140.849 203.645 141.488 203.645C142.256 203.645 142.767 204.29 142.767 204.936V231.258C142.767 231.258 142.767 231.258 142.767 231.387C142.767 231.387 142.767 231.387 142.767 231.516C142.767 234.226 144.942 236.419 147.628 236.419C148.395 236.419 149.163 236.161 149.802 235.903C151.081 235.387 152.105 234.226 152.36 232.548C152.36 232.419 152.36 232.419 152.36 232.29C152.36 232.161 152.36 232.161 152.36 232.032C152.36 231.774 152.36 231.645 152.36 231.387V206.226H152.616Z" fill="#00D7D7"/>
<path d="M125.884 184.935C131.888 184.935 136.756 180.025 136.756 173.968C136.756 167.91 131.888 163 125.884 163C119.879 163 115.012 167.91 115.012 173.968C115.012 180.025 119.879 184.935 125.884 184.935Z" fill="#00D7D7"/>
</g>
<g clip-path="url(#clip1)">
<path d="M356.637 206.226C356.637 199.258 351.558 192.161 344.907 189.71C341.158 188.29 336.563 187.645 331.363 187.645C326.042 187.645 321.567 188.29 317.819 189.71C311.167 192.161 306.088 199.258 306.088 206.226V231.516C306.088 234.226 308.144 236.29 310.684 236.29C313.223 236.29 315.279 234.097 315.279 231.387V204.936C315.279 204.161 315.884 203.645 316.488 203.645C317.214 203.645 317.698 204.29 317.698 204.936V241.839V243.903V278.871C317.698 281.194 319.27 283 321.205 283H325.921C326.767 283 327.614 282.613 328.219 281.968C328.944 281.194 329.428 280.032 329.428 278.871L329.307 241.968C329.307 240.807 330.153 239.903 331.242 239.903C332.33 239.903 333.177 240.807 333.177 241.968L333.298 278.871C333.298 281.194 334.87 283 336.805 283H341.4C343.335 283 344.907 281.194 344.907 278.871V243.903V204.936C344.907 204.161 345.512 203.645 346.116 203.645C346.842 203.645 347.326 204.29 347.326 204.936V231.258C347.326 231.258 347.326 231.258 347.326 231.387C347.326 231.387 347.326 231.387 347.326 231.516C347.326 234.226 349.381 236.419 351.921 236.419C352.647 236.419 353.372 236.161 353.977 235.903C355.186 235.387 356.154 234.226 356.395 232.548C356.395 232.419 356.395 232.419 356.395 232.29C356.395 232.161 356.395 232.161 356.395 232.032C356.395 231.774 356.395 231.645 356.395 231.387V206.226H356.637Z" fill="#2A4AAC"/>
<path d="M331.363 184.935C337.04 184.935 341.642 180.025 341.642 173.968C341.642 167.91 337.04 163 331.363 163C325.686 163 321.084 167.91 321.084 173.968C321.084 180.025 325.686 184.935 331.363 184.935Z" fill="#2A4AAC"/>
</g>
<g clip-path="url(#clip2)">
<path d="M562.616 206.226C562.616 199.258 557.244 192.161 550.209 189.71C546.244 188.29 541.384 187.645 535.884 187.645C530.256 187.645 525.523 188.29 521.558 189.71C514.523 192.161 509.151 199.258 509.151 206.226V231.516C509.151 234.226 511.326 236.29 514.012 236.29C516.698 236.29 518.872 234.097 518.872 231.387V204.936C518.872 204.161 519.512 203.645 520.151 203.645C520.919 203.645 521.43 204.29 521.43 204.936V241.839V243.903V278.871C521.43 281.194 523.093 283 525.14 283H530.128C531.023 283 531.919 282.613 532.558 281.968C533.326 281.194 533.837 280.032 533.837 278.871L533.709 241.968C533.709 240.807 534.605 239.903 535.756 239.903C536.907 239.903 537.802 240.807 537.802 241.968L537.93 278.871C537.93 281.194 539.593 283 541.64 283H546.5C548.547 283 550.209 281.194 550.209 278.871V243.903V204.936C550.209 204.161 550.849 203.645 551.488 203.645C552.256 203.645 552.767 204.29 552.767 204.936V231.258C552.767 231.258 552.767 231.258 552.767 231.387C552.767 231.387 552.767 231.387 552.767 231.516C552.767 234.226 554.942 236.419 557.628 236.419C558.395 236.419 559.163 236.161 559.802 235.903C561.081 235.387 562.105 234.226 562.36 232.548C562.36 232.419 562.36 232.419 562.36 232.29C562.36 232.161 562.36 232.161 562.36 232.032C562.36 231.774 562.36 231.645 562.36 231.387V206.226H562.616Z" fill="#2A4AAC"/>
<path d="M535.884 184.935C541.888 184.935 546.756 180.025 546.756 173.968C546.756 167.91 541.888 163 535.884 163C529.879 163 525.012 167.91 525.012 173.968C525.012 180.025 529.879 184.935 535.884 184.935Z" fill="#2A4AAC"/>
</g>
<path d="M259.666 223.771L250.866 197.958C249.799 195.004 247.799 192.436 245.132 190.381C241.532 187.813 236.999 186.4 232.332 186.4H224.999C220.332 186.4 215.799 187.813 212.199 190.381C209.399 192.436 207.399 195.004 206.332 197.958L197.399 223.771C196.732 225.44 196.999 227.366 197.932 228.908C198.066 229.036 198.066 229.164 198.199 229.293C200.332 231.733 204.599 230.834 205.666 227.752L213.932 204.379C214.066 203.865 214.732 203.48 215.266 203.737C215.799 203.865 216.199 204.508 215.932 205.021L203.266 244.19C202.999 245.217 203.799 246.116 204.866 246.116H215.666C216.599 246.116 217.266 246.886 217.266 247.657V279.249C217.266 281.303 219.399 282.973 221.932 282.973C224.466 282.973 226.599 281.303 226.599 279.249V248.042C226.599 246.886 227.532 245.988 228.732 245.988C229.932 245.988 230.866 246.886 230.866 248.042V279.249C230.866 281.303 232.999 282.973 235.532 282.973C238.066 282.973 240.199 281.303 240.199 279.249V247.785C240.199 246.886 240.999 246.244 241.799 246.244H252.599C253.666 246.244 254.466 245.217 254.199 244.318L241.399 205.15C241.266 204.636 241.532 203.994 242.066 203.865C242.599 203.609 243.266 203.994 243.532 204.508L251.666 228.009C252.732 231.091 256.999 232.118 259.132 229.55C259.266 229.421 259.266 229.293 259.399 229.164C260.199 227.238 260.332 225.44 259.666 223.771Z" fill="#2A4AAC"/>
<path d="M228.6 162C222.467 162 217.4 166.88 217.4 172.787C217.4 178.695 222.467 183.575 228.6 183.575C234.733 183.575 239.8 178.695 239.8 172.787C239.8 166.88 234.733 162 228.6 162Z" fill="#2A4AAC"/>
<path d="M462.687 223.771L454.025 197.958C452.975 195.004 451.006 192.436 448.381 190.381C444.837 187.813 440.375 186.4 435.781 186.4H428.562C423.969 186.4 419.506 187.813 415.962 190.381C413.206 192.436 411.237 195.004 410.187 197.958L401.394 223.771C400.737 225.44 401 227.366 401.919 228.908C402.05 229.036 402.05 229.164 402.181 229.293C404.281 231.733 408.481 230.834 409.531 227.752L417.669 204.379C417.8 203.865 418.456 203.48 418.981 203.737C419.506 203.865 419.9 204.508 419.637 205.021L407.169 244.19C406.906 245.217 407.694 246.116 408.744 246.116H419.375C420.294 246.116 420.95 246.886 420.95 247.657V279.249C420.95 281.303 423.05 282.973 425.544 282.973C428.037 282.973 430.137 281.303 430.137 279.249V248.042C430.137 246.886 431.056 245.988 432.237 245.988C433.419 245.988 434.337 246.886 434.337 248.042V279.249C434.337 281.303 436.437 282.973 438.931 282.973C441.425 282.973 443.525 281.303 443.525 279.249V247.785C443.525 246.886 444.312 246.244 445.1 246.244H455.731C456.781 246.244 457.569 245.217 457.306 244.318L444.706 205.15C444.575 204.636 444.837 203.994 445.362 203.865C445.887 203.609 446.544 203.994 446.806 204.508L454.812 228.009C455.862 231.091 460.062 232.118 462.162 229.55C462.294 229.421 462.294 229.293 462.425 229.164C463.212 227.238 463.344 225.44 462.687 223.771Z" fill="#2A4AAC"/>
<path d="M432.106 162C426.069 162 421.081 166.88 421.081 172.787C421.081 178.695 426.069 183.575 432.106 183.575C438.144 183.575 443.131 178.695 443.131 172.787C443.131 166.88 438.144 162 432.106 162Z" fill="#2A4AAC"/>
<defs>
<clipPath id="clip0">
<rect width="55" height="120" fill="white" transform="translate(98 163)"/>
</clipPath>
<clipPath id="clip1">
<rect width="52" height="120" fill="white" transform="translate(305 163)"/>
</clipPath>
<clipPath id="clip2">
<rect width="55" height="120" fill="white" transform="translate(508 163)"/>
</clipPath>
</defs>
</svg>
