<svg width="686" height="750" viewBox="0 0 686 750" fill="none" xmlns="http://www.w3.org/2000/svg">
<path d="M20 1H666C676.493 1 685 9.50659 685 20V730C685 740.493 676.493 749 666 749H20C9.5066 749 1 740.493 1 730V20C1 9.50657 9.50659 1 20 1Z" stroke="#1C358B" stroke-width="2"/>
<g clip-path="url(#clip0_831_4302)">
<path d="M161.616 94.9465C161.616 87.8626 156.244 80.6475 149.209 78.1551C145.244 76.7121 140.384 76.0562 134.884 76.0562C129.256 76.0562 124.523 76.7121 120.558 78.1551C113.523 80.6475 108.151 87.8626 108.151 94.9465V120.658C108.151 123.413 110.326 125.512 113.012 125.512C115.698 125.512 117.872 123.282 117.872 120.527V93.6346C117.872 92.8475 118.512 92.3228 119.151 92.3228C119.919 92.3228 120.43 92.9787 120.43 93.6346V131.153V133.252V168.802C120.43 171.164 122.093 173 124.139 173H129.128C130.023 173 130.919 172.607 131.558 171.951C132.326 171.164 132.837 169.983 132.837 168.802L132.709 131.284C132.709 130.103 133.605 129.185 134.756 129.185C135.907 129.185 136.802 130.103 136.802 131.284L136.93 168.802C136.93 171.164 138.593 173 140.639 173H145.5C147.546 173 149.209 171.164 149.209 168.802V133.252V93.6346C149.209 92.8475 149.849 92.3228 150.488 92.3228C151.256 92.3228 151.767 92.9787 151.767 93.6346V120.396C151.767 120.396 151.767 120.396 151.767 120.527C151.767 120.527 151.767 120.527 151.767 120.658C151.767 123.413 153.942 125.643 156.628 125.643C157.395 125.643 158.163 125.381 158.802 125.118C160.081 124.594 161.105 123.413 161.36 121.708C161.36 121.577 161.36 121.577 161.36 121.445C161.36 121.314 161.36 121.314 161.36 121.183C161.36 120.921 161.36 120.789 161.36 120.527V94.9465H161.616Z" fill="#00D7D7"/>
<path d="M134.884 73.3011C140.888 73.3011 145.756 68.3088 145.756 62.1505C145.756 55.9923 140.888 51 134.884 51C128.879 51 124.012 55.9923 124.012 62.1505C124.012 68.3088 128.879 73.3011 134.884 73.3011Z" fill="#00D7D7"/>
</g>
<g clip-path="url(#clip1_831_4302)">
<path d="M267.616 94.9465C267.616 87.8626 262.244 80.6475 255.209 78.1551C251.244 76.7121 246.384 76.0562 240.884 76.0562C235.256 76.0562 230.523 76.7121 226.558 78.1551C219.523 80.6475 214.151 87.8626 214.151 94.9465V120.658C214.151 123.413 216.326 125.512 219.012 125.512C221.698 125.512 223.872 123.282 223.872 120.527V93.6346C223.872 92.8475 224.512 92.3228 225.151 92.3228C225.919 92.3228 226.43 92.9787 226.43 93.6346V131.153V133.252V168.802C226.43 171.164 228.093 173 230.139 173H235.128C236.023 173 236.919 172.607 237.558 171.951C238.326 171.164 238.837 169.983 238.837 168.802L238.709 131.284C238.709 130.103 239.605 129.185 240.756 129.185C241.907 129.185 242.802 130.103 242.802 131.284L242.93 168.802C242.93 171.164 244.593 173 246.639 173H251.5C253.546 173 255.209 171.164 255.209 168.802V133.252V93.6346C255.209 92.8475 255.849 92.3228 256.488 92.3228C257.256 92.3228 257.767 92.9787 257.767 93.6346V120.396C257.767 120.396 257.767 120.396 257.767 120.527C257.767 120.527 257.767 120.527 257.767 120.658C257.767 123.413 259.942 125.643 262.628 125.643C263.395 125.643 264.163 125.381 264.802 125.118C266.081 124.594 267.105 123.413 267.36 121.708C267.36 121.577 267.36 121.577 267.36 121.445C267.36 121.314 267.36 121.314 267.36 121.183C267.36 120.921 267.36 120.789 267.36 120.527V94.9465H267.616Z" fill="#2A4AAC"/>
<path d="M240.884 73.3011C246.888 73.3011 251.756 68.3088 251.756 62.1505C251.756 55.9923 246.888 51 240.884 51C234.879 51 230.012 55.9923 230.012 62.1505C230.012 68.3088 234.879 73.3011 240.884 73.3011Z" fill="#2A4AAC"/>
</g>
<g clip-path="url(#clip2_831_4302)">
<path d="M370.616 94.9465C370.616 87.8626 365.244 80.6475 358.209 78.1551C354.244 76.7121 349.384 76.0562 343.884 76.0562C338.256 76.0562 333.523 76.7121 329.558 78.1551C322.523 80.6475 317.151 87.8626 317.151 94.9465V120.658C317.151 123.413 319.326 125.512 322.012 125.512C324.698 125.512 326.872 123.282 326.872 120.527V93.6346C326.872 92.8475 327.512 92.3228 328.151 92.3228C328.919 92.3228 329.43 92.9787 329.43 93.6346V131.153V133.252V168.802C329.43 171.164 331.093 173 333.139 173H338.128C339.023 173 339.919 172.607 340.558 171.951C341.326 171.164 341.837 169.983 341.837 168.802L341.709 131.284C341.709 130.103 342.605 129.185 343.756 129.185C344.907 129.185 345.802 130.103 345.802 131.284L345.93 168.802C345.93 171.164 347.593 173 349.639 173H354.5C356.546 173 358.209 171.164 358.209 168.802V133.252V93.6346C358.209 92.8475 358.849 92.3228 359.488 92.3228C360.256 92.3228 360.767 92.9787 360.767 93.6346V120.396C360.767 120.396 360.767 120.396 360.767 120.527C360.767 120.527 360.767 120.527 360.767 120.658C360.767 123.413 362.942 125.643 365.628 125.643C366.395 125.643 367.163 125.381 367.802 125.118C369.081 124.594 370.105 123.413 370.36 121.708C370.36 121.577 370.36 121.577 370.36 121.445C370.36 121.314 370.36 121.314 370.36 121.183C370.36 120.921 370.36 120.789 370.36 120.527V94.9465H370.616Z" fill="#00D7D7"/>
<path d="M343.884 73.3011C349.888 73.3011 354.756 68.3088 354.756 62.1505C354.756 55.9923 349.888 51 343.884 51C337.879 51 333.012 55.9923 333.012 62.1505C333.012 68.3088 337.879 73.3011 343.884 73.3011Z" fill="#00D7D7"/>
</g>
<g clip-path="url(#clip3_831_4302)">
<path d="M474.616 94.9465C474.616 87.8626 469.244 80.6475 462.209 78.1551C458.244 76.7121 453.384 76.0562 447.884 76.0562C442.256 76.0562 437.523 76.7121 433.558 78.1551C426.523 80.6475 421.151 87.8626 421.151 94.9465V120.658C421.151 123.413 423.326 125.512 426.012 125.512C428.698 125.512 430.872 123.282 430.872 120.527V93.6346C430.872 92.8475 431.512 92.3228 432.151 92.3228C432.919 92.3228 433.43 92.9787 433.43 93.6346V131.153V133.252V168.802C433.43 171.164 435.093 173 437.139 173H442.128C443.023 173 443.919 172.607 444.558 171.951C445.326 171.164 445.837 169.983 445.837 168.802L445.709 131.284C445.709 130.103 446.605 129.185 447.756 129.185C448.907 129.185 449.802 130.103 449.802 131.284L449.93 168.802C449.93 171.164 451.593 173 453.639 173H458.5C460.546 173 462.209 171.164 462.209 168.802V133.252V93.6346C462.209 92.8475 462.849 92.3228 463.488 92.3228C464.256 92.3228 464.767 92.9787 464.767 93.6346V120.396C464.767 120.396 464.767 120.396 464.767 120.527C464.767 120.527 464.767 120.527 464.767 120.658C464.767 123.413 466.942 125.643 469.628 125.643C470.395 125.643 471.163 125.381 471.802 125.118C473.081 124.594 474.105 123.413 474.36 121.708C474.36 121.577 474.36 121.577 474.36 121.445C474.36 121.314 474.36 121.314 474.36 121.183C474.36 120.921 474.36 120.789 474.36 120.527V94.9465H474.616Z" fill="#2A4AAC"/>
<path d="M447.884 73.3011C453.888 73.3011 458.756 68.3088 458.756 62.1505C458.756 55.9923 453.888 51 447.884 51C441.879 51 437.012 55.9923 437.012 62.1505C437.012 68.3088 441.879 73.3011 447.884 73.3011Z" fill="#2A4AAC"/>
</g>
<g clip-path="url(#clip4_831_4302)">
<path d="M578.616 94.9465C578.616 87.8626 573.244 80.6475 566.209 78.1551C562.244 76.7121 557.384 76.0562 551.884 76.0562C546.256 76.0562 541.523 76.7121 537.558 78.1551C530.523 80.6475 525.151 87.8626 525.151 94.9465V120.658C525.151 123.413 527.326 125.512 530.012 125.512C532.698 125.512 534.872 123.282 534.872 120.527V93.6346C534.872 92.8475 535.512 92.3228 536.151 92.3228C536.919 92.3228 537.43 92.9787 537.43 93.6346V131.153V133.252V168.802C537.43 171.164 539.093 173 541.139 173H546.128C547.023 173 547.919 172.607 548.558 171.951C549.326 171.164 549.837 169.983 549.837 168.802L549.709 131.284C549.709 130.103 550.605 129.185 551.756 129.185C552.907 129.185 553.802 130.103 553.802 131.284L553.93 168.802C553.93 171.164 555.593 173 557.639 173H562.5C564.546 173 566.209 171.164 566.209 168.802V133.252V93.6346C566.209 92.8475 566.849 92.3228 567.488 92.3228C568.256 92.3228 568.767 92.9787 568.767 93.6346V120.396C568.767 120.396 568.767 120.396 568.767 120.527C568.767 120.527 568.767 120.527 568.767 120.658C568.767 123.413 570.942 125.643 573.628 125.643C574.395 125.643 575.163 125.381 575.802 125.118C577.081 124.594 578.105 123.413 578.36 121.708C578.36 121.577 578.36 121.577 578.36 121.445C578.36 121.314 578.36 121.314 578.36 121.183C578.36 120.921 578.36 120.789 578.36 120.527V94.9465H578.616Z" fill="#00D7D7"/>
<path d="M551.884 73.3011C557.888 73.3011 562.756 68.3088 562.756 62.1505C562.756 55.9923 557.888 51 551.884 51C545.879 51 541.012 55.9923 541.012 62.1505C541.012 68.3088 545.879 73.3011 551.884 73.3011Z" fill="#00D7D7"/>
</g>
<g clip-path="url(#clip5_831_4302)">
<path d="M161.616 266.946C161.616 259.863 156.244 252.648 149.209 250.155C145.244 248.712 140.384 248.056 134.884 248.056C129.256 248.056 124.523 248.712 120.558 250.155C113.523 252.648 108.151 259.863 108.151 266.946V292.658C108.151 295.413 110.326 297.512 113.012 297.512C115.698 297.512 117.872 295.282 117.872 292.527V265.635C117.872 264.848 118.512 264.323 119.151 264.323C119.919 264.323 120.43 264.979 120.43 265.635V303.153V305.252V340.802C120.43 343.164 122.093 345 124.139 345H129.128C130.023 345 130.919 344.607 131.558 343.951C132.326 343.164 132.837 341.983 132.837 340.802L132.709 303.284C132.709 302.103 133.605 301.185 134.756 301.185C135.907 301.185 136.802 302.103 136.802 303.284L136.93 340.802C136.93 343.164 138.593 345 140.639 345H145.5C147.546 345 149.209 343.164 149.209 340.802V305.252V265.635C149.209 264.848 149.849 264.323 150.488 264.323C151.256 264.323 151.767 264.979 151.767 265.635V292.396C151.767 292.396 151.767 292.396 151.767 292.527C151.767 292.527 151.767 292.527 151.767 292.658C151.767 295.413 153.942 297.643 156.628 297.643C157.395 297.643 158.163 297.381 158.802 297.118C160.081 296.594 161.105 295.413 161.36 293.708C161.36 293.577 161.36 293.577 161.36 293.445C161.36 293.314 161.36 293.314 161.36 293.183C161.36 292.921 161.36 292.789 161.36 292.527V266.946H161.616Z" fill="#2A4AAC"/>
<path d="M134.884 245.301C140.888 245.301 145.756 240.309 145.756 234.151C145.756 227.992 140.888 223 134.884 223C128.879 223 124.012 227.992 124.012 234.151C124.012 240.309 128.879 245.301 134.884 245.301Z" fill="#2A4AAC"/>
</g>
<g clip-path="url(#clip6_831_4302)">
<path d="M267.616 266.946C267.616 259.863 262.244 252.648 255.209 250.155C251.244 248.712 246.384 248.056 240.884 248.056C235.256 248.056 230.523 248.712 226.558 250.155C219.523 252.648 214.151 259.863 214.151 266.946V292.658C214.151 295.413 216.326 297.512 219.012 297.512C221.698 297.512 223.872 295.282 223.872 292.527V265.635C223.872 264.848 224.512 264.323 225.151 264.323C225.919 264.323 226.43 264.979 226.43 265.635V303.153V305.252V340.802C226.43 343.164 228.093 345 230.139 345H235.128C236.023 345 236.919 344.607 237.558 343.951C238.326 343.164 238.837 341.983 238.837 340.802L238.709 303.284C238.709 302.103 239.605 301.185 240.756 301.185C241.907 301.185 242.802 302.103 242.802 303.284L242.93 340.802C242.93 343.164 244.593 345 246.639 345H251.5C253.546 345 255.209 343.164 255.209 340.802V305.252V265.635C255.209 264.848 255.849 264.323 256.488 264.323C257.256 264.323 257.767 264.979 257.767 265.635V292.396C257.767 292.396 257.767 292.396 257.767 292.527C257.767 292.527 257.767 292.527 257.767 292.658C257.767 295.413 259.942 297.643 262.628 297.643C263.395 297.643 264.163 297.381 264.802 297.118C266.081 296.594 267.105 295.413 267.36 293.708C267.36 293.577 267.36 293.577 267.36 293.445C267.36 293.314 267.36 293.314 267.36 293.183C267.36 292.921 267.36 292.789 267.36 292.527V266.946H267.616Z" fill="#00D7D7"/>
<path d="M240.884 245.301C246.888 245.301 251.756 240.309 251.756 234.151C251.756 227.992 246.888 223 240.884 223C234.879 223 230.012 227.992 230.012 234.151C230.012 240.309 234.879 245.301 240.884 245.301Z" fill="#00D7D7"/>
</g>
<g clip-path="url(#clip7_831_4302)">
<path d="M370.616 266.946C370.616 259.863 365.244 252.648 358.209 250.155C354.244 248.712 349.384 248.056 343.884 248.056C338.256 248.056 333.523 248.712 329.558 250.155C322.523 252.648 317.151 259.863 317.151 266.946V292.658C317.151 295.413 319.326 297.512 322.012 297.512C324.698 297.512 326.872 295.282 326.872 292.527V265.635C326.872 264.848 327.512 264.323 328.151 264.323C328.919 264.323 329.43 264.979 329.43 265.635V303.153V305.252V340.802C329.43 343.164 331.093 345 333.139 345H338.128C339.023 345 339.919 344.607 340.558 343.951C341.326 343.164 341.837 341.983 341.837 340.802L341.709 303.284C341.709 302.103 342.605 301.185 343.756 301.185C344.907 301.185 345.802 302.103 345.802 303.284L345.93 340.802C345.93 343.164 347.593 345 349.639 345H354.5C356.546 345 358.209 343.164 358.209 340.802V305.252V265.635C358.209 264.848 358.849 264.323 359.488 264.323C360.256 264.323 360.767 264.979 360.767 265.635V292.396C360.767 292.396 360.767 292.396 360.767 292.527C360.767 292.527 360.767 292.527 360.767 292.658C360.767 295.413 362.942 297.643 365.628 297.643C366.395 297.643 367.163 297.381 367.802 297.118C369.081 296.594 370.105 295.413 370.36 293.708C370.36 293.577 370.36 293.577 370.36 293.445C370.36 293.314 370.36 293.314 370.36 293.183C370.36 292.921 370.36 292.789 370.36 292.527V266.946H370.616Z" fill="#2A4AAC"/>
<path d="M343.884 245.301C349.888 245.301 354.756 240.309 354.756 234.151C354.756 227.992 349.888 223 343.884 223C337.879 223 333.012 227.992 333.012 234.151C333.012 240.309 337.879 245.301 343.884 245.301Z" fill="#2A4AAC"/>
</g>
<g clip-path="url(#clip8_831_4302)">
<path d="M474.616 266.946C474.616 259.863 469.244 252.648 462.209 250.155C458.244 248.712 453.384 248.056 447.884 248.056C442.256 248.056 437.523 248.712 433.558 250.155C426.523 252.648 421.151 259.863 421.151 266.946V292.658C421.151 295.413 423.326 297.512 426.012 297.512C428.698 297.512 430.872 295.282 430.872 292.527V265.635C430.872 264.848 431.512 264.323 432.151 264.323C432.919 264.323 433.43 264.979 433.43 265.635V303.153V305.252V340.802C433.43 343.164 435.093 345 437.139 345H442.128C443.023 345 443.919 344.607 444.558 343.951C445.326 343.164 445.837 341.983 445.837 340.802L445.709 303.284C445.709 302.103 446.605 301.185 447.756 301.185C448.907 301.185 449.802 302.103 449.802 303.284L449.93 340.802C449.93 343.164 451.593 345 453.639 345H458.5C460.546 345 462.209 343.164 462.209 340.802V305.252V265.635C462.209 264.848 462.849 264.323 463.488 264.323C464.256 264.323 464.767 264.979 464.767 265.635V292.396C464.767 292.396 464.767 292.396 464.767 292.527C464.767 292.527 464.767 292.527 464.767 292.658C464.767 295.413 466.942 297.643 469.628 297.643C470.395 297.643 471.163 297.381 471.802 297.118C473.081 296.594 474.105 295.413 474.36 293.708C474.36 293.577 474.36 293.577 474.36 293.445C474.36 293.314 474.36 293.314 474.36 293.183C474.36 292.921 474.36 292.789 474.36 292.527V266.946H474.616Z" fill="#00D7D7"/>
<path d="M447.884 245.301C453.888 245.301 458.756 240.309 458.756 234.151C458.756 227.992 453.888 223 447.884 223C441.879 223 437.012 227.992 437.012 234.151C437.012 240.309 441.879 245.301 447.884 245.301Z" fill="#00D7D7"/>
</g>
<g clip-path="url(#clip9_831_4302)">
<path d="M578.616 266.946C578.616 259.863 573.244 252.648 566.209 250.155C562.244 248.712 557.384 248.056 551.884 248.056C546.256 248.056 541.523 248.712 537.558 250.155C530.523 252.648 525.151 259.863 525.151 266.946V292.658C525.151 295.413 527.326 297.512 530.012 297.512C532.698 297.512 534.872 295.282 534.872 292.527V265.635C534.872 264.848 535.512 264.323 536.151 264.323C536.919 264.323 537.43 264.979 537.43 265.635V303.153V305.252V340.802C537.43 343.164 539.093 345 541.139 345H546.128C547.023 345 547.919 344.607 548.558 343.951C549.326 343.164 549.837 341.983 549.837 340.802L549.709 303.284C549.709 302.103 550.605 301.185 551.756 301.185C552.907 301.185 553.802 302.103 553.802 303.284L553.93 340.802C553.93 343.164 555.593 345 557.639 345H562.5C564.546 345 566.209 343.164 566.209 340.802V305.252V265.635C566.209 264.848 566.849 264.323 567.488 264.323C568.256 264.323 568.767 264.979 568.767 265.635V292.396C568.767 292.396 568.767 292.396 568.767 292.527C568.767 292.527 568.767 292.527 568.767 292.658C568.767 295.413 570.942 297.643 573.628 297.643C574.395 297.643 575.163 297.381 575.802 297.118C577.081 296.594 578.105 295.413 578.36 293.708C578.36 293.577 578.36 293.577 578.36 293.445C578.36 293.314 578.36 293.314 578.36 293.183C578.36 292.921 578.36 292.789 578.36 292.527V266.946H578.616Z" fill="#2A4AAC"/>
<path d="M551.884 245.301C557.888 245.301 562.756 240.309 562.756 234.151C562.756 227.992 557.888 223 551.884 223C545.879 223 541.012 227.992 541.012 234.151C541.012 240.309 545.879 245.301 551.884 245.301Z" fill="#2A4AAC"/>
</g>
<path d="M270.666 629.771L261.866 603.958C260.799 601.004 258.799 598.436 256.132 596.381C252.532 593.813 247.999 592.4 243.332 592.4H235.999C231.332 592.4 226.799 593.813 223.199 596.381C220.399 598.436 218.399 601.004 217.332 603.958L208.399 629.771C207.732 631.44 207.999 633.366 208.932 634.908C209.066 635.036 209.066 635.164 209.199 635.293C211.332 637.733 215.599 636.834 216.666 633.752L224.932 610.379C225.066 609.865 225.732 609.48 226.266 609.737C226.799 609.865 227.199 610.508 226.932 611.021L214.266 650.19C213.999 651.217 214.799 652.116 215.866 652.116H226.666C227.599 652.116 228.266 652.886 228.266 653.657V685.249C228.266 687.303 230.399 688.973 232.932 688.973C235.466 688.973 237.599 687.303 237.599 685.249V654.042C237.599 652.886 238.532 651.988 239.732 651.988C240.932 651.988 241.866 652.886 241.866 654.042V685.249C241.866 687.303 243.999 688.973 246.532 688.973C249.066 688.973 251.199 687.303 251.199 685.249V653.785C251.199 652.886 251.999 652.244 252.799 652.244H263.599C264.666 652.244 265.466 651.217 265.199 650.318L252.399 611.15C252.266 610.636 252.532 609.994 253.066 609.865C253.599 609.609 254.266 609.994 254.532 610.508L262.666 634.009C263.732 637.091 267.999 638.118 270.132 635.55C270.266 635.421 270.266 635.293 270.399 635.164C271.199 633.238 271.332 631.44 270.666 629.771Z" fill="#FF7BF9"/>
<path d="M239.6 568C233.467 568 228.4 572.88 228.4 578.787C228.4 584.695 233.467 589.575 239.6 589.575C245.733 589.575 250.8 584.695 250.8 578.787C250.8 572.88 245.733 568 239.6 568Z" fill="#FF7BF9"/>
<path d="M374.666 629.771L365.866 603.958C364.799 601.004 362.799 598.436 360.132 596.381C356.532 593.813 351.999 592.4 347.332 592.4H339.999C335.332 592.4 330.799 593.813 327.199 596.381C324.399 598.436 322.399 601.004 321.332 603.958L312.399 629.771C311.732 631.44 311.999 633.366 312.932 634.908C313.066 635.036 313.066 635.164 313.199 635.293C315.332 637.733 319.599 636.834 320.666 633.752L328.932 610.379C329.066 609.865 329.732 609.48 330.266 609.737C330.799 609.865 331.199 610.508 330.932 611.021L318.266 650.19C317.999 651.217 318.799 652.116 319.866 652.116H330.666C331.599 652.116 332.266 652.886 332.266 653.657V685.249C332.266 687.303 334.399 688.973 336.932 688.973C339.466 688.973 341.599 687.303 341.599 685.249V654.042C341.599 652.886 342.532 651.988 343.732 651.988C344.932 651.988 345.866 652.886 345.866 654.042V685.249C345.866 687.303 347.999 688.973 350.532 688.973C353.066 688.973 355.199 687.303 355.199 685.249V653.785C355.199 652.886 355.999 652.244 356.799 652.244H367.599C368.666 652.244 369.466 651.217 369.199 650.318L356.399 611.15C356.266 610.636 356.532 609.994 357.066 609.865C357.599 609.609 358.266 609.994 358.532 610.508L366.666 634.009C367.732 637.091 371.999 638.118 374.132 635.55C374.266 635.421 374.266 635.293 374.399 635.164C375.199 633.238 375.332 631.44 374.666 629.771Z" fill="#2A4AAC"/>
<path d="M343.6 568C337.467 568 332.4 572.88 332.4 578.787C332.4 584.695 337.467 589.575 343.6 589.575C349.733 589.575 354.8 584.695 354.8 578.787C354.8 572.88 349.733 568 343.6 568Z" fill="#2A4AAC"/>
<path d="M165.666 629.771L156.866 603.958C155.799 601.004 153.799 598.436 151.132 596.381C147.532 593.813 142.999 592.4 138.332 592.4H130.999C126.332 592.4 121.799 593.813 118.199 596.381C115.399 598.436 113.399 601.004 112.332 603.958L103.399 629.771C102.732 631.44 102.999 633.366 103.932 634.908C104.066 635.036 104.066 635.164 104.199 635.293C106.332 637.733 110.599 636.834 111.666 633.752L119.932 610.379C120.066 609.865 120.732 609.48 121.266 609.737C121.799 609.865 122.199 610.508 121.932 611.021L109.266 650.19C108.999 651.217 109.799 652.116 110.866 652.116H121.666C122.599 652.116 123.266 652.886 123.266 653.657V685.249C123.266 687.303 125.399 688.973 127.932 688.973C130.466 688.973 132.599 687.303 132.599 685.249V654.042C132.599 652.886 133.532 651.988 134.732 651.988C135.932 651.988 136.866 652.886 136.866 654.042V685.249C136.866 687.303 138.999 688.973 141.532 688.973C144.066 688.973 146.199 687.303 146.199 685.249V653.785C146.199 652.886 146.999 652.244 147.799 652.244H158.599C159.666 652.244 160.466 651.217 160.199 650.318L147.399 611.15C147.266 610.636 147.532 609.994 148.066 609.865C148.599 609.609 149.266 609.994 149.532 610.508L157.666 634.009C158.732 637.091 162.999 638.118 165.132 635.55C165.266 635.421 165.266 635.293 165.399 635.164C166.199 633.238 166.332 631.44 165.666 629.771Z" fill="#2A4AAC"/>
<path d="M134.6 568C128.467 568 123.4 572.88 123.4 578.787C123.4 584.695 128.467 589.575 134.6 589.575C140.733 589.575 145.8 584.695 145.8 578.787C145.8 572.88 140.733 568 134.6 568Z" fill="#2A4AAC"/>
<path d="M477.688 629.771L469.025 603.958C467.975 601.004 466.006 598.436 463.381 596.381C459.838 593.813 455.375 592.4 450.781 592.4H443.563C438.969 592.4 434.506 593.813 430.963 596.381C428.206 598.436 426.238 601.004 425.188 603.958L416.394 629.771C415.738 631.44 416 633.366 416.919 634.908C417.05 635.036 417.05 635.164 417.181 635.293C419.281 637.733 423.481 636.834 424.531 633.752L432.669 610.379C432.8 609.865 433.456 609.48 433.981 609.737C434.506 609.865 434.9 610.508 434.638 611.021L422.169 650.19C421.906 651.217 422.694 652.116 423.744 652.116H434.375C435.294 652.116 435.95 652.886 435.95 653.657V685.249C435.95 687.303 438.05 688.973 440.544 688.973C443.038 688.973 445.138 687.303 445.138 685.249V654.042C445.138 652.886 446.056 651.988 447.238 651.988C448.419 651.988 449.338 652.886 449.338 654.042V685.249C449.338 687.303 451.438 688.973 453.931 688.973C456.425 688.973 458.525 687.303 458.525 685.249V653.785C458.525 652.886 459.313 652.244 460.1 652.244H470.731C471.781 652.244 472.569 651.217 472.306 650.318L459.706 611.15C459.575 610.636 459.838 609.994 460.363 609.865C460.888 609.609 461.544 609.994 461.806 610.508L469.813 634.009C470.863 637.091 475.063 638.118 477.163 635.55C477.294 635.421 477.294 635.293 477.425 635.164C478.213 633.238 478.344 631.44 477.688 629.771Z" fill="#2A4AAC"/>
<path d="M447.106 568C441.069 568 436.081 572.88 436.081 578.787C436.081 584.695 441.069 589.575 447.106 589.575C453.144 589.575 458.131 584.695 458.131 578.787C458.131 572.88 453.144 568 447.106 568Z" fill="#2A4AAC"/>
<path d="M581.688 629.771L573.025 603.958C571.975 601.004 570.006 598.436 567.381 596.381C563.838 593.813 559.375 592.4 554.781 592.4H547.563C542.969 592.4 538.506 593.813 534.963 596.381C532.206 598.436 530.238 601.004 529.188 603.958L520.394 629.771C519.738 631.44 520 633.366 520.919 634.908C521.05 635.036 521.05 635.164 521.181 635.293C523.281 637.733 527.481 636.834 528.531 633.752L536.669 610.379C536.8 609.865 537.456 609.48 537.981 609.737C538.506 609.865 538.9 610.508 538.638 611.021L526.169 650.19C525.906 651.217 526.694 652.116 527.744 652.116H538.375C539.294 652.116 539.95 652.886 539.95 653.657V685.249C539.95 687.303 542.05 688.973 544.544 688.973C547.038 688.973 549.138 687.303 549.138 685.249V654.042C549.138 652.886 550.056 651.988 551.238 651.988C552.419 651.988 553.338 652.886 553.338 654.042V685.249C553.338 687.303 555.438 688.973 557.931 688.973C560.425 688.973 562.525 687.303 562.525 685.249V653.785C562.525 652.886 563.313 652.244 564.1 652.244H574.731C575.781 652.244 576.569 651.217 576.306 650.318L563.706 611.15C563.575 610.636 563.838 609.994 564.363 609.865C564.888 609.609 565.544 609.994 565.806 610.508L573.813 634.009C574.863 637.091 579.063 638.118 581.163 635.55C581.294 635.421 581.294 635.293 581.425 635.164C582.213 633.238 582.344 631.44 581.688 629.771Z" fill="#FF7BF9"/>
<path d="M551.106 568C545.069 568 540.081 572.88 540.081 578.787C540.081 584.695 545.069 589.575 551.106 589.575C557.144 589.575 562.131 584.695 562.131 578.787C562.131 572.88 557.144 568 551.106 568Z" fill="#FF7BF9"/>
<path d="M270.666 457.771L261.866 431.958C260.799 429.004 258.799 426.436 256.132 424.381C252.532 421.813 247.999 420.4 243.332 420.4H235.999C231.332 420.4 226.799 421.813 223.199 424.381C220.399 426.436 218.399 429.004 217.332 431.958L208.399 457.771C207.732 459.44 207.999 461.366 208.932 462.908C209.066 463.036 209.066 463.164 209.199 463.293C211.332 465.733 215.599 464.834 216.666 461.752L224.932 438.379C225.066 437.865 225.732 437.48 226.266 437.737C226.799 437.865 227.199 438.508 226.932 439.021L214.266 478.19C213.999 479.217 214.799 480.116 215.866 480.116H226.666C227.599 480.116 228.266 480.886 228.266 481.657V513.249C228.266 515.303 230.399 516.973 232.932 516.973C235.466 516.973 237.599 515.303 237.599 513.249V482.042C237.599 480.886 238.532 479.988 239.732 479.988C240.932 479.988 241.866 480.886 241.866 482.042V513.249C241.866 515.303 243.999 516.973 246.532 516.973C249.066 516.973 251.199 515.303 251.199 513.249V481.785C251.199 480.886 251.999 480.244 252.799 480.244H263.599C264.666 480.244 265.466 479.217 265.199 478.318L252.399 439.15C252.266 438.636 252.532 437.994 253.066 437.865C253.599 437.609 254.266 437.994 254.532 438.508L262.666 462.009C263.732 465.091 267.999 466.118 270.132 463.55C270.266 463.421 270.266 463.293 270.399 463.164C271.199 461.238 271.332 459.44 270.666 457.771Z" fill="#2A4AAC"/>
<path d="M239.6 396C233.467 396 228.4 400.88 228.4 406.787C228.4 412.695 233.467 417.575 239.6 417.575C245.733 417.575 250.8 412.695 250.8 406.787C250.8 400.88 245.733 396 239.6 396Z" fill="#2A4AAC"/>
<path d="M477.688 457.771L469.025 431.958C467.975 429.004 466.006 426.436 463.381 424.381C459.838 421.813 455.375 420.4 450.781 420.4H443.563C438.969 420.4 434.506 421.813 430.963 424.381C428.206 426.436 426.238 429.004 425.188 431.958L416.394 457.771C415.738 459.44 416 461.366 416.919 462.908C417.05 463.036 417.05 463.164 417.181 463.293C419.281 465.733 423.481 464.834 424.531 461.752L432.669 438.379C432.8 437.865 433.456 437.48 433.981 437.737C434.506 437.865 434.9 438.508 434.638 439.021L422.169 478.19C421.906 479.217 422.694 480.116 423.744 480.116H434.375C435.294 480.116 435.95 480.886 435.95 481.657V513.249C435.95 515.303 438.05 516.973 440.544 516.973C443.038 516.973 445.138 515.303 445.138 513.249V482.042C445.138 480.886 446.056 479.988 447.238 479.988C448.419 479.988 449.338 480.886 449.338 482.042V513.249C449.338 515.303 451.438 516.973 453.931 516.973C456.425 516.973 458.525 515.303 458.525 513.249V481.785C458.525 480.886 459.313 480.244 460.1 480.244H470.731C471.781 480.244 472.569 479.217 472.306 478.318L459.706 439.15C459.575 438.636 459.838 437.994 460.363 437.865C460.888 437.609 461.544 437.994 461.806 438.508L469.813 462.009C470.863 465.091 475.063 466.118 477.163 463.55C477.294 463.421 477.294 463.293 477.425 463.164C478.213 461.238 478.344 459.44 477.688 457.771Z" fill="#FF7BF9"/>
<path d="M447.106 396C441.069 396 436.081 400.88 436.081 406.787C436.081 412.695 441.069 417.575 447.106 417.575C453.144 417.575 458.131 412.695 458.131 406.787C458.131 400.88 453.144 396 447.106 396Z" fill="#FF7BF9"/>
<path d="M374.666 456.771L365.866 430.958C364.799 428.004 362.799 425.436 360.132 423.381C356.532 420.813 351.999 419.4 347.332 419.4H339.999C335.332 419.4 330.799 420.813 327.199 423.381C324.399 425.436 322.399 428.004 321.332 430.958L312.399 456.771C311.732 458.44 311.999 460.366 312.932 461.908C313.066 462.036 313.066 462.164 313.199 462.293C315.332 464.733 319.599 463.834 320.666 460.752L328.932 437.379C329.066 436.865 329.732 436.48 330.266 436.737C330.799 436.865 331.199 437.508 330.932 438.021L318.266 477.19C317.999 478.217 318.799 479.116 319.866 479.116H330.666C331.599 479.116 332.266 479.886 332.266 480.657V512.249C332.266 514.303 334.399 515.973 336.932 515.973C339.466 515.973 341.599 514.303 341.599 512.249V481.042C341.599 479.886 342.532 478.988 343.732 478.988C344.932 478.988 345.866 479.886 345.866 481.042V512.249C345.866 514.303 347.999 515.973 350.532 515.973C353.066 515.973 355.199 514.303 355.199 512.249V480.785C355.199 479.886 355.999 479.244 356.799 479.244H367.599C368.666 479.244 369.466 478.217 369.199 477.318L356.399 438.15C356.266 437.636 356.532 436.994 357.066 436.865C357.599 436.609 358.266 436.994 358.532 437.508L366.666 461.009C367.732 464.091 371.999 465.118 374.132 462.55C374.266 462.421 374.266 462.293 374.399 462.164C375.199 460.238 375.332 458.44 374.666 456.771Z" fill="#2A4AAC"/>
<path d="M343.6 395C337.467 395 332.4 399.88 332.4 405.787C332.4 411.695 337.467 416.575 343.6 416.575C349.733 416.575 354.8 411.695 354.8 405.787C354.8 399.88 349.733 395 343.6 395Z" fill="#2A4AAC"/>
<path d="M165.666 456.771L156.866 430.958C155.799 428.004 153.799 425.436 151.132 423.381C147.532 420.813 142.999 419.4 138.332 419.4H130.999C126.332 419.4 121.799 420.813 118.199 423.381C115.399 425.436 113.399 428.004 112.332 430.958L103.399 456.771C102.732 458.44 102.999 460.366 103.932 461.908C104.066 462.036 104.066 462.164 104.199 462.293C106.332 464.733 110.599 463.834 111.666 460.752L119.932 437.379C120.066 436.865 120.732 436.48 121.266 436.737C121.799 436.865 122.199 437.508 121.932 438.021L109.266 477.19C108.999 478.217 109.799 479.116 110.866 479.116H121.666C122.599 479.116 123.266 479.886 123.266 480.657V512.249C123.266 514.303 125.399 515.973 127.932 515.973C130.466 515.973 132.599 514.303 132.599 512.249V481.042C132.599 479.886 133.532 478.988 134.732 478.988C135.932 478.988 136.866 479.886 136.866 481.042V512.249C136.866 514.303 138.999 515.973 141.532 515.973C144.066 515.973 146.199 514.303 146.199 512.249V480.785C146.199 479.886 146.999 479.244 147.799 479.244H158.599C159.666 479.244 160.466 478.217 160.199 477.318L147.399 438.15C147.266 437.636 147.532 436.994 148.066 436.865C148.599 436.609 149.266 436.994 149.532 437.508L157.666 461.009C158.732 464.091 162.999 465.118 165.132 462.55C165.266 462.421 165.266 462.293 165.399 462.164C166.199 460.238 166.332 458.44 165.666 456.771Z" fill="#FF7BF9"/>
<path d="M134.6 395C128.467 395 123.4 399.88 123.4 405.787C123.4 411.695 128.467 416.575 134.6 416.575C140.733 416.575 145.8 411.695 145.8 405.787C145.8 399.88 140.733 395 134.6 395Z" fill="#FF7BF9"/>
<path d="M581.688 456.771L573.025 430.958C571.975 428.004 570.006 425.436 567.381 423.381C563.838 420.813 559.375 419.4 554.781 419.4H547.563C542.969 419.4 538.506 420.813 534.963 423.381C532.206 425.436 530.238 428.004 529.188 430.958L520.394 456.771C519.738 458.44 520 460.366 520.919 461.908C521.05 462.036 521.05 462.164 521.181 462.293C523.281 464.733 527.481 463.834 528.531 460.752L536.669 437.379C536.8 436.865 537.456 436.48 537.981 436.737C538.506 436.865 538.9 437.508 538.638 438.021L526.169 477.19C525.906 478.217 526.694 479.116 527.744 479.116H538.375C539.294 479.116 539.95 479.886 539.95 480.657V512.249C539.95 514.303 542.05 515.973 544.544 515.973C547.038 515.973 549.138 514.303 549.138 512.249V481.042C549.138 479.886 550.056 478.988 551.238 478.988C552.419 478.988 553.338 479.886 553.338 481.042V512.249C553.338 514.303 555.438 515.973 557.931 515.973C560.425 515.973 562.525 514.303 562.525 512.249V480.785C562.525 479.886 563.313 479.244 564.1 479.244H574.731C575.781 479.244 576.569 478.217 576.306 477.318L563.706 438.15C563.575 437.636 563.838 436.994 564.363 436.865C564.888 436.609 565.544 436.994 565.806 437.508L573.813 461.009C574.863 464.091 579.063 465.118 581.163 462.55C581.294 462.421 581.294 462.293 581.425 462.164C582.213 460.238 582.344 458.44 581.688 456.771Z" fill="#2A4AAC"/>
<path d="M551.106 395C545.069 395 540.081 399.88 540.081 405.787C540.081 411.695 545.069 416.575 551.106 416.575C557.144 416.575 562.131 411.695 562.131 405.787C562.131 399.88 557.144 395 551.106 395Z" fill="#2A4AAC"/>
<defs>
<clipPath id="clip0_831_4302">
<rect width="55" height="122" fill="white" transform="translate(107 51)"/>
</clipPath>
<clipPath id="clip1_831_4302">
<rect width="55" height="122" fill="white" transform="translate(213 51)"/>
</clipPath>
<clipPath id="clip2_831_4302">
<rect width="55" height="122" fill="white" transform="translate(316 51)"/>
</clipPath>
<clipPath id="clip3_831_4302">
<rect width="55" height="122" fill="white" transform="translate(420 51)"/>
</clipPath>
<clipPath id="clip4_831_4302">
<rect width="55" height="122" fill="white" transform="translate(524 51)"/>
</clipPath>
<clipPath id="clip5_831_4302">
<rect width="55" height="122" fill="white" transform="translate(107 223)"/>
</clipPath>
<clipPath id="clip6_831_4302">
<rect width="55" height="122" fill="white" transform="translate(213 223)"/>
</clipPath>
<clipPath id="clip7_831_4302">
<rect width="55" height="122" fill="white" transform="translate(316 223)"/>
</clipPath>
<clipPath id="clip8_831_4302">
<rect width="55" height="122" fill="white" transform="translate(420 223)"/>
</clipPath>
<clipPath id="clip9_831_4302">
<rect width="55" height="122" fill="white" transform="translate(524 223)"/>
</clipPath>
</defs>
</svg>
