<?xml version="1.0" encoding="UTF-8"?>
<svg fill="none" viewBox="0 0 686 750" xmlns="http://www.w3.org/2000/svg">
<path d="m20 1h646c10.493 0 19 8.5066 19 19v710c0 10.493-8.507 19-19 19h-646c-10.493 0-19-8.507-19-19v-710c0-10.493 8.5066-19 19-19z" stroke="#1C358B" stroke-width="2"/>
<path d="m161 95c0-7.088-5.026-14.506-12-17-3.931-1.4438-8.548-2-14-2-5.579 0-11.069 0.5562-15 2-6.974 2.4939-12 9.912-12 17v26c0 2.756 2.337 4 5 4s5-2.244 5-5v-26c0-0.7876 0.366-2 1-2 0.761 0 1 1.3437 1 2v75c0 2.363 1.971 4 4 4h5c0.888 0 1.366-0.344 2-1 0.761-0.788 1-1.819 1-3v-38c0-1.181 0.859-2 2-2s2 0.819 2 2l1 38c0 2.363 0.971 4 3 4h5c2.029 0 4-1.637 4-4v-75c0-0.7876 0.366-2 1-2 0.761 0 1 1.3437 1 2v26 0 1c0 2.756 2.337 5 5 5 0.761 0 1.366-0.737 2-1 1.268-0.525 2.746-1.294 3-3v-1 0-1-25z" fill="#00D7D7"/>
<path d="m135 73c6.075 0 11-4.9249 11-11s-4.925-11-11-11-11 4.9249-11 11 4.925 11 11 11z" fill="#00D7D7"/>
<g clip-path="url(#i)" fill="#2A4AAC">
<path d="m267.62 94.946c0-7.0839-5.372-14.299-12.407-16.791-3.965-1.443-8.825-2.0989-14.325-2.0989-5.628 0-10.361 0.6559-14.326 2.0989-7.035 2.4924-12.407 9.7075-12.407 16.791v25.712c0 2.755 2.175 4.854 4.861 4.854s4.86-2.23 4.86-4.985v-26.892c0-0.7871 0.64-1.3118 1.279-1.3118 0.768 0 1.279 0.6559 1.279 1.3118v75.167c0 2.362 1.663 4.198 3.709 4.198h4.989c0.895 0 1.791-0.393 2.43-1.049 0.768-0.787 1.279-1.968 1.279-3.149l-0.128-37.518c0-1.181 0.896-2.099 2.047-2.099s2.046 0.918 2.046 2.099l0.128 37.518c0 2.362 1.663 4.198 3.71 4.198h4.86c2.046 0 3.709-1.836 3.709-4.198v-75.167c0-0.7871 0.64-1.3118 1.279-1.3118 0.768 0 1.279 0.6559 1.279 1.3118v26.761 0.131 0.131c0 2.755 2.175 4.985 4.861 4.985 0.767 0 1.535-0.262 2.174-0.525 1.279-0.524 2.303-1.705 2.558-3.41v-0.263-0.262-0.656-25.58h0.256z"/>
<path d="m240.88 73.301c6.004 0 10.872-4.9923 10.872-11.151 0-6.1582-4.868-11.15-10.872-11.15-6.005 0-10.872 4.9923-10.872 11.15 0 6.1583 4.867 11.151 10.872 11.151z"/>
</g>
<g clip-path="url(#h)" fill="#00D7D7">
<path d="m370.62 94.946c0-7.0839-5.372-14.299-12.407-16.791-3.965-1.443-8.825-2.0989-14.325-2.0989-5.628 0-10.361 0.6559-14.326 2.0989-7.035 2.4924-12.407 9.7075-12.407 16.791v25.712c0 2.755 2.175 4.854 4.861 4.854s4.86-2.23 4.86-4.985v-26.892c0-0.7871 0.64-1.3118 1.279-1.3118 0.768 0 1.279 0.6559 1.279 1.3118v75.167c0 2.362 1.663 4.198 3.709 4.198h4.989c0.895 0 1.791-0.393 2.43-1.049 0.768-0.787 1.279-1.968 1.279-3.149l-0.128-37.518c0-1.181 0.896-2.099 2.047-2.099s2.046 0.918 2.046 2.099l0.128 37.518c0 2.362 1.663 4.198 3.71 4.198h4.86c2.046 0 3.709-1.836 3.709-4.198v-75.167c0-0.7871 0.64-1.3118 1.279-1.3118 0.768 0 1.279 0.6559 1.279 1.3118v26.761 0.131 0.131c0 2.755 2.175 4.985 4.861 4.985 0.767 0 1.535-0.262 2.174-0.525 1.279-0.524 2.303-1.705 2.558-3.41v-0.263-0.262-0.656-25.58h0.256z"/>
<path d="m343.88 73.301c6.004 0 10.872-4.9923 10.872-11.151 0-6.1582-4.868-11.15-10.872-11.15-6.005 0-10.872 4.9923-10.872 11.15 0 6.1583 4.867 11.151 10.872 11.151z"/>
</g>
<g clip-path="url(#g)" fill="#2A4AAC">
<path d="m474.62 94.946c0-7.0839-5.372-14.299-12.407-16.791-3.965-1.443-8.825-2.0989-14.325-2.0989-5.628 0-10.361 0.6559-14.326 2.0989-7.035 2.4924-12.407 9.7075-12.407 16.791v25.712c0 2.755 2.175 4.854 4.861 4.854s4.86-2.23 4.86-4.985v-26.892c0-0.7871 0.64-1.3118 1.279-1.3118 0.768 0 1.279 0.6559 1.279 1.3118v75.167c0 2.362 1.663 4.198 3.709 4.198h4.989c0.895 0 1.791-0.393 2.43-1.049 0.768-0.787 1.279-1.968 1.279-3.149l-0.128-37.518c0-1.181 0.896-2.099 2.047-2.099s2.046 0.918 2.046 2.099l0.128 37.518c0 2.362 1.663 4.198 3.71 4.198h4.86c2.046 0 3.709-1.836 3.709-4.198v-75.167c0-0.7871 0.64-1.3118 1.279-1.3118 0.768 0 1.279 0.6559 1.279 1.3118v26.761 0.131 0.131c0 2.755 2.175 4.985 4.861 4.985 0.767 0 1.535-0.262 2.174-0.525 1.279-0.524 2.303-1.705 2.558-3.41v-0.263-0.262-0.656-25.58h0.256z"/>
<path d="m447.88 73.301c6.004 0 10.872-4.9923 10.872-11.151 0-6.1582-4.868-11.15-10.872-11.15-6.005 0-10.872 4.9923-10.872 11.15 0 6.1583 4.867 11.151 10.872 11.151z"/>
</g>
<g clip-path="url(#f)" fill="#00D7D7">
<path d="m578.62 94.946c0-7.0839-5.372-14.299-12.407-16.791-3.965-1.443-8.825-2.0989-14.325-2.0989-5.628 0-10.361 0.6559-14.326 2.0989-7.035 2.4924-12.407 9.7075-12.407 16.791v25.712c0 2.755 2.175 4.854 4.861 4.854s4.86-2.23 4.86-4.985v-26.892c0-0.7871 0.64-1.3118 1.279-1.3118 0.768 0 1.279 0.6559 1.279 1.3118v75.167c0 2.362 1.663 4.198 3.709 4.198h4.989c0.895 0 1.791-0.393 2.43-1.049 0.768-0.787 1.279-1.968 1.279-3.149l-0.128-37.518c0-1.181 0.896-2.099 2.047-2.099s2.046 0.918 2.046 2.099l0.128 37.518c0 2.362 1.663 4.198 3.71 4.198h4.86c2.046 0 3.709-1.836 3.709-4.198v-75.167c0-0.7871 0.64-1.3118 1.279-1.3118 0.768 0 1.279 0.6559 1.279 1.3118v26.761 0.131 0.131c0 2.755 2.175 4.985 4.861 4.985 0.767 0 1.535-0.262 2.174-0.525 1.279-0.524 2.303-1.705 2.558-3.41v-0.263-0.262-0.656-25.58h0.256z"/>
<path d="m551.88 73.301c6.004 0 10.872-4.9923 10.872-11.151 0-6.1582-4.868-11.15-10.872-11.15-6.005 0-10.872 4.9923-10.872 11.15 0 6.1583 4.867 11.151 10.872 11.151z"/>
</g>
<g clip-path="url(#e)" fill="#2A4AAC">
<path d="m161.62 266.95c0-7.083-5.372-14.298-12.407-16.791-3.965-1.443-8.825-2.099-14.325-2.099-5.628 0-10.361 0.656-14.326 2.099-7.035 2.493-12.407 9.708-12.407 16.791v25.712c0 2.755 2.175 4.854 4.861 4.854s4.86-2.23 4.86-4.985v-26.892c0-0.787 0.64-1.312 1.279-1.312 0.768 0 1.279 0.656 1.279 1.312v75.167c0 2.362 1.663 4.198 3.709 4.198h4.989c0.895 0 1.791-0.393 2.43-1.049 0.768-0.787 1.279-1.968 1.279-3.149l-0.128-37.518c0-1.181 0.896-2.099 2.047-2.099s2.046 0.918 2.046 2.099l0.128 37.518c0 2.362 1.663 4.198 3.709 4.198h4.861c2.046 0 3.709-1.836 3.709-4.198v-75.167c0-0.787 0.64-1.312 1.279-1.312 0.768 0 1.279 0.656 1.279 1.312v26.761 0.131 0.131c0 2.755 2.175 4.985 4.861 4.985 0.767 0 1.535-0.262 2.174-0.525 1.279-0.524 2.303-1.705 2.558-3.41v-0.263-0.262-0.656-25.581h0.256z"/>
<path d="m134.88 245.3c6.004 0 10.872-4.992 10.872-11.15 0-6.159-4.868-11.151-10.872-11.151-6.005 0-10.872 4.992-10.872 11.151 0 6.158 4.867 11.15 10.872 11.15z"/>
</g>
<g clip-path="url(#d)" fill="#00D7D7">
<path d="m267.62 266.95c0-7.083-5.372-14.298-12.407-16.791-3.965-1.443-8.825-2.099-14.325-2.099-5.628 0-10.361 0.656-14.326 2.099-7.035 2.493-12.407 9.708-12.407 16.791v25.712c0 2.755 2.175 4.854 4.861 4.854s4.86-2.23 4.86-4.985v-26.892c0-0.787 0.64-1.312 1.279-1.312 0.768 0 1.279 0.656 1.279 1.312v75.167c0 2.362 1.663 4.198 3.709 4.198h4.989c0.895 0 1.791-0.393 2.43-1.049 0.768-0.787 1.279-1.968 1.279-3.149l-0.128-37.518c0-1.181 0.896-2.099 2.047-2.099s2.046 0.918 2.046 2.099l0.128 37.518c0 2.362 1.663 4.198 3.71 4.198h4.86c2.046 0 3.709-1.836 3.709-4.198v-75.167c0-0.787 0.64-1.312 1.279-1.312 0.768 0 1.279 0.656 1.279 1.312v26.761 0.131 0.131c0 2.755 2.175 4.985 4.861 4.985 0.767 0 1.535-0.262 2.174-0.525 1.279-0.524 2.303-1.705 2.558-3.41v-0.263-0.262-0.656-25.581h0.256z"/>
<path d="m240.88 245.3c6.004 0 10.872-4.992 10.872-11.15 0-6.159-4.868-11.151-10.872-11.151-6.005 0-10.872 4.992-10.872 11.151 0 6.158 4.867 11.15 10.872 11.15z"/>
</g>
<g clip-path="url(#c)" fill="#2A4AAC">
<path d="m370.62 266.95c0-7.083-5.372-14.298-12.407-16.791-3.965-1.443-8.825-2.099-14.325-2.099-5.628 0-10.361 0.656-14.326 2.099-7.035 2.493-12.407 9.708-12.407 16.791v25.712c0 2.755 2.175 4.854 4.861 4.854s4.86-2.23 4.86-4.985v-26.892c0-0.787 0.64-1.312 1.279-1.312 0.768 0 1.279 0.656 1.279 1.312v75.167c0 2.362 1.663 4.198 3.709 4.198h4.989c0.895 0 1.791-0.393 2.43-1.049 0.768-0.787 1.279-1.968 1.279-3.149l-0.128-37.518c0-1.181 0.896-2.099 2.047-2.099s2.046 0.918 2.046 2.099l0.128 37.518c0 2.362 1.663 4.198 3.71 4.198h4.86c2.046 0 3.709-1.836 3.709-4.198v-75.167c0-0.787 0.64-1.312 1.279-1.312 0.768 0 1.279 0.656 1.279 1.312v26.761 0.131 0.131c0 2.755 2.175 4.985 4.861 4.985 0.767 0 1.535-0.262 2.174-0.525 1.279-0.524 2.303-1.705 2.558-3.41v-0.263-0.262-0.656-25.581h0.256z"/>
<path d="m343.88 245.3c6.004 0 10.872-4.992 10.872-11.15 0-6.159-4.868-11.151-10.872-11.151-6.005 0-10.872 4.992-10.872 11.151 0 6.158 4.867 11.15 10.872 11.15z"/>
</g>
<g clip-path="url(#b)" fill="#00D7D7">
<path d="m474.62 266.95c0-7.083-5.372-14.298-12.407-16.791-3.965-1.443-8.825-2.099-14.325-2.099-5.628 0-10.361 0.656-14.326 2.099-7.035 2.493-12.407 9.708-12.407 16.791v25.712c0 2.755 2.175 4.854 4.861 4.854s4.86-2.23 4.86-4.985v-26.892c0-0.787 0.64-1.312 1.279-1.312 0.768 0 1.279 0.656 1.279 1.312v75.167c0 2.362 1.663 4.198 3.709 4.198h4.989c0.895 0 1.791-0.393 2.43-1.049 0.768-0.787 1.279-1.968 1.279-3.149l-0.128-37.518c0-1.181 0.896-2.099 2.047-2.099s2.046 0.918 2.046 2.099l0.128 37.518c0 2.362 1.663 4.198 3.71 4.198h4.86c2.046 0 3.709-1.836 3.709-4.198v-75.167c0-0.787 0.64-1.312 1.279-1.312 0.768 0 1.279 0.656 1.279 1.312v26.761 0.131 0.131c0 2.755 2.175 4.985 4.861 4.985 0.767 0 1.535-0.262 2.174-0.525 1.279-0.524 2.303-1.705 2.558-3.41v-0.263-0.262-0.656-25.581h0.256z"/>
<path d="m447.88 245.3c6.004 0 10.872-4.992 10.872-11.15 0-6.159-4.868-11.151-10.872-11.151-6.005 0-10.872 4.992-10.872 11.151 0 6.158 4.867 11.15 10.872 11.15z"/>
</g>
<g clip-path="url(#a)" fill="#2A4AAC">
<path d="m578.62 266.95c0-7.083-5.372-14.298-12.407-16.791-3.965-1.443-8.825-2.099-14.325-2.099-5.628 0-10.361 0.656-14.326 2.099-7.035 2.493-12.407 9.708-12.407 16.791v25.712c0 2.755 2.175 4.854 4.861 4.854s4.86-2.23 4.86-4.985v-26.892c0-0.787 0.64-1.312 1.279-1.312 0.768 0 1.279 0.656 1.279 1.312v75.167c0 2.362 1.663 4.198 3.709 4.198h4.989c0.895 0 1.791-0.393 2.43-1.049 0.768-0.787 1.279-1.968 1.279-3.149l-0.128-37.518c0-1.181 0.896-2.099 2.047-2.099s2.046 0.918 2.046 2.099l0.128 37.518c0 2.362 1.663 4.198 3.71 4.198h4.86c2.046 0 3.709-1.836 3.709-4.198v-75.167c0-0.787 0.64-1.312 1.279-1.312 0.768 0 1.279 0.656 1.279 1.312v26.761 0.131 0.131c0 2.755 2.175 4.985 4.861 4.985 0.767 0 1.535-0.262 2.174-0.525 1.279-0.524 2.303-1.705 2.558-3.41v-0.263-0.262-0.656-25.581h0.256z"/>
<path d="m551.88 245.3c6.004 0 10.872-4.992 10.872-11.15 0-6.159-4.868-11.151-10.872-11.151-6.005 0-10.872 4.992-10.872 11.151 0 6.158 4.867 11.15 10.872 11.15z"/>
</g>
<path d="m270.67 629.77-8.8-25.813c-1.067-2.954-3.067-5.522-5.734-7.577-3.6-2.568-8.133-3.981-12.8-3.981h-7.333c-4.667 0-9.2 1.413-12.8 3.981-2.8 2.055-4.8 4.623-5.867 7.577l-8.933 25.813c-0.667 1.669-0.4 3.595 0.533 5.137 0.134 0.128 0.134 0.256 0.267 0.385 2.133 2.44 6.4 1.541 7.467-1.541l8.266-23.373c0.134-0.514 0.8-0.899 1.334-0.642 0.533 0.128 0.933 0.771 0.666 1.284l-12.666 39.169c-0.267 1.027 0.533 1.926 1.6 1.926h10.8c0.933 0 1.6 0.77 1.6 1.541v31.592c0 2.054 2.133 3.724 4.666 3.724 2.534 0 4.667-1.67 4.667-3.724v-31.207c0-1.156 0.933-2.054 2.133-2.054s2.134 0.898 2.134 2.054v31.207c0 2.054 2.133 3.724 4.666 3.724 2.534 0 4.667-1.67 4.667-3.724v-31.464c0-0.899 0.8-1.541 1.6-1.541h10.8c1.067 0 1.867-1.027 1.6-1.926l-12.8-39.168c-0.133-0.514 0.133-1.156 0.667-1.285 0.533-0.256 1.2 0.129 1.466 0.643l8.134 23.501c1.066 3.082 5.333 4.109 7.466 1.541 0.134-0.129 0.134-0.257 0.267-0.386 0.8-1.926 0.933-3.724 0.267-5.393z" fill="#FF7BF9"/>
<path d="m239.6 568c-6.133 0-11.2 4.88-11.2 10.787 0 5.908 5.067 10.788 11.2 10.788s11.2-4.88 11.2-10.788c0-5.907-5.067-10.787-11.2-10.787z" fill="#FF7BF9"/>
<path d="m374.67 629.77-8.8-25.813c-1.067-2.954-3.067-5.522-5.734-7.577-3.6-2.568-8.133-3.981-12.8-3.981h-7.333c-4.667 0-9.2 1.413-12.8 3.981-2.8 2.055-4.8 4.623-5.867 7.577l-8.933 25.813c-0.667 1.669-0.4 3.595 0.533 5.137 0.134 0.128 0.134 0.256 0.267 0.385 2.133 2.44 6.4 1.541 7.467-1.541l8.266-23.373c0.134-0.514 0.8-0.899 1.334-0.642 0.533 0.128 0.933 0.771 0.666 1.284l-12.666 39.169c-0.267 1.027 0.533 1.926 1.6 1.926h10.8c0.933 0 1.6 0.77 1.6 1.541v31.592c0 2.054 2.133 3.724 4.666 3.724 2.534 0 4.667-1.67 4.667-3.724v-31.207c0-1.156 0.933-2.054 2.133-2.054s2.134 0.898 2.134 2.054v31.207c0 2.054 2.133 3.724 4.666 3.724 2.534 0 4.667-1.67 4.667-3.724v-31.464c0-0.899 0.8-1.541 1.6-1.541h10.8c1.067 0 1.867-1.027 1.6-1.926l-12.8-39.168c-0.133-0.514 0.133-1.156 0.667-1.285 0.533-0.256 1.2 0.129 1.466 0.643l8.134 23.501c1.066 3.082 5.333 4.109 7.466 1.541 0.134-0.129 0.134-0.257 0.267-0.386 0.8-1.926 0.933-3.724 0.267-5.393z" fill="#2A4AAC"/>
<path d="m343.6 568c-6.133 0-11.2 4.88-11.2 10.787 0 5.908 5.067 10.788 11.2 10.788s11.2-4.88 11.2-10.788c0-5.907-5.067-10.787-11.2-10.787z" fill="#2A4AAC"/>
<path d="m165.67 629.77-8.8-25.813c-1.067-2.954-3.067-5.522-5.734-7.577-3.6-2.568-8.133-3.981-12.8-3.981h-7.333c-4.667 0-9.2 1.413-12.8 3.981-2.8 2.055-4.8 4.623-5.867 7.577l-8.933 25.813c-0.667 1.669-0.4 3.595 0.533 5.137 0.134 0.128 0.134 0.256 0.267 0.385 2.133 2.44 6.4 1.541 7.467-1.541l8.266-23.373c0.134-0.514 0.8-0.899 1.334-0.642 0.533 0.128 0.933 0.771 0.666 1.284l-12.666 39.169c-0.267 1.027 0.533 1.926 1.6 1.926h10.8c0.933 0 1.6 0.77 1.6 1.541v31.592c0 2.054 2.133 3.724 4.666 3.724 2.534 0 4.667-1.67 4.667-3.724v-31.207c0-1.156 0.933-2.054 2.133-2.054s2.134 0.898 2.134 2.054v31.207c0 2.054 2.133 3.724 4.666 3.724 2.534 0 4.667-1.67 4.667-3.724v-31.464c0-0.899 0.8-1.541 1.6-1.541h10.8c1.067 0 1.867-1.027 1.6-1.926l-12.8-39.168c-0.133-0.514 0.133-1.156 0.667-1.285 0.533-0.256 1.2 0.129 1.466 0.643l8.134 23.501c1.066 3.082 5.333 4.109 7.466 1.541 0.134-0.129 0.134-0.257 0.267-0.386 0.8-1.926 0.933-3.724 0.267-5.393z" fill="#2A4AAC"/>
<path d="m134.6 568c-6.133 0-11.2 4.88-11.2 10.787 0 5.908 5.067 10.788 11.2 10.788s11.2-4.88 11.2-10.788c0-5.907-5.067-10.787-11.2-10.787z" fill="#2A4AAC"/>
<path d="m477.69 629.77-8.663-25.813c-1.05-2.954-3.019-5.522-5.644-7.577-3.543-2.568-8.006-3.981-12.6-3.981h-7.218c-4.594 0-9.057 1.413-12.6 3.981-2.757 2.055-4.725 4.623-5.775 7.577l-8.794 25.813c-0.656 1.669-0.394 3.595 0.525 5.137 0.131 0.128 0.131 0.256 0.262 0.385 2.1 2.44 6.3 1.541 7.35-1.541l8.138-23.373c0.131-0.514 0.787-0.899 1.312-0.642 0.525 0.128 0.919 0.771 0.657 1.284l-12.469 39.169c-0.263 1.027 0.525 1.926 1.575 1.926h10.631c0.919 0 1.575 0.77 1.575 1.541v31.592c0 2.054 2.1 3.724 4.594 3.724s4.594-1.67 4.594-3.724v-31.207c0-1.156 0.918-2.054 2.1-2.054 1.181 0 2.1 0.898 2.1 2.054v31.207c0 2.054 2.1 3.724 4.593 3.724 2.494 0 4.594-1.67 4.594-3.724v-31.464c0-0.899 0.788-1.541 1.575-1.541h10.631c1.05 0 1.838-1.027 1.575-1.926l-12.6-39.168c-0.131-0.514 0.132-1.156 0.657-1.285 0.525-0.256 1.181 0.129 1.443 0.643l8.007 23.501c1.05 3.082 5.25 4.109 7.35 1.541 0.131-0.129 0.131-0.257 0.262-0.386 0.788-1.926 0.919-3.724 0.263-5.393z" fill="#2A4AAC"/>
<path d="m447.11 568c-6.037 0-11.025 4.88-11.025 10.787 0 5.908 4.988 10.788 11.025 10.788 6.038 0 11.025-4.88 11.025-10.788 0-5.907-4.987-10.787-11.025-10.787z" fill="#2A4AAC"/>
<path d="m581.69 629.77-8.663-25.813c-1.05-2.954-3.019-5.522-5.644-7.577-3.543-2.568-8.006-3.981-12.6-3.981h-7.218c-4.594 0-9.057 1.413-12.6 3.981-2.757 2.055-4.725 4.623-5.775 7.577l-8.794 25.813c-0.656 1.669-0.394 3.595 0.525 5.137 0.131 0.128 0.131 0.256 0.262 0.385 2.1 2.44 6.3 1.541 7.35-1.541l8.138-23.373c0.131-0.514 0.787-0.899 1.312-0.642 0.525 0.128 0.919 0.771 0.657 1.284l-12.469 39.169c-0.263 1.027 0.525 1.926 1.575 1.926h10.631c0.919 0 1.575 0.77 1.575 1.541v31.592c0 2.054 2.1 3.724 4.594 3.724s4.594-1.67 4.594-3.724v-31.207c0-1.156 0.918-2.054 2.1-2.054 1.181 0 2.1 0.898 2.1 2.054v31.207c0 2.054 2.1 3.724 4.593 3.724 2.494 0 4.594-1.67 4.594-3.724v-31.464c0-0.899 0.788-1.541 1.575-1.541h10.631c1.05 0 1.838-1.027 1.575-1.926l-12.6-39.168c-0.131-0.514 0.132-1.156 0.657-1.285 0.525-0.256 1.181 0.129 1.443 0.643l8.007 23.501c1.05 3.082 5.25 4.109 7.35 1.541 0.131-0.129 0.131-0.257 0.262-0.386 0.788-1.926 0.919-3.724 0.263-5.393z" fill="#FF7BF9"/>
<path d="m551.11 568c-6.037 0-11.025 4.88-11.025 10.787 0 5.908 4.988 10.788 11.025 10.788 6.038 0 11.025-4.88 11.025-10.788 0-5.907-4.987-10.787-11.025-10.787z" fill="#FF7BF9"/>
<path d="m270.67 457.77-8.8-25.813c-1.067-2.954-3.067-5.522-5.734-7.577-3.6-2.568-8.133-3.981-12.8-3.981h-7.333c-4.667 0-9.2 1.413-12.8 3.981-2.8 2.055-4.8 4.623-5.867 7.577l-8.933 25.813c-0.667 1.669-0.4 3.595 0.533 5.137 0.134 0.128 0.134 0.256 0.267 0.385 2.133 2.44 6.4 1.541 7.467-1.541l8.266-23.373c0.134-0.514 0.8-0.899 1.334-0.642 0.533 0.128 0.933 0.771 0.666 1.284l-12.666 39.169c-0.267 1.027 0.533 1.926 1.6 1.926h10.8c0.933 0 1.6 0.77 1.6 1.541v31.592c0 2.054 2.133 3.724 4.666 3.724 2.534 0 4.667-1.67 4.667-3.724v-31.207c0-1.156 0.933-2.054 2.133-2.054s2.134 0.898 2.134 2.054v31.207c0 2.054 2.133 3.724 4.666 3.724 2.534 0 4.667-1.67 4.667-3.724v-31.464c0-0.899 0.8-1.541 1.6-1.541h10.8c1.067 0 1.867-1.027 1.6-1.926l-12.8-39.168c-0.133-0.514 0.133-1.156 0.667-1.285 0.533-0.256 1.2 0.129 1.466 0.643l8.134 23.501c1.066 3.082 5.333 4.109 7.466 1.541 0.134-0.129 0.134-0.257 0.267-0.386 0.8-1.926 0.933-3.724 0.267-5.393z" fill="#2A4AAC"/>
<path d="m239.6 396c-6.133 0-11.2 4.88-11.2 10.787 0 5.908 5.067 10.788 11.2 10.788s11.2-4.88 11.2-10.788c0-5.907-5.067-10.787-11.2-10.787z" fill="#2A4AAC"/>
<path d="m477.69 457.77-8.663-25.813c-1.05-2.954-3.019-5.522-5.644-7.577-3.543-2.568-8.006-3.981-12.6-3.981h-7.218c-4.594 0-9.057 1.413-12.6 3.981-2.757 2.055-4.725 4.623-5.775 7.577l-8.794 25.813c-0.656 1.669-0.394 3.595 0.525 5.137 0.131 0.128 0.131 0.256 0.262 0.385 2.1 2.44 6.3 1.541 7.35-1.541l8.138-23.373c0.131-0.514 0.787-0.899 1.312-0.642 0.525 0.128 0.919 0.771 0.657 1.284l-12.469 39.169c-0.263 1.027 0.525 1.926 1.575 1.926h10.631c0.919 0 1.575 0.77 1.575 1.541v31.592c0 2.054 2.1 3.724 4.594 3.724s4.594-1.67 4.594-3.724v-31.207c0-1.156 0.918-2.054 2.1-2.054 1.181 0 2.1 0.898 2.1 2.054v31.207c0 2.054 2.1 3.724 4.593 3.724 2.494 0 4.594-1.67 4.594-3.724v-31.464c0-0.899 0.788-1.541 1.575-1.541h10.631c1.05 0 1.838-1.027 1.575-1.926l-12.6-39.168c-0.131-0.514 0.132-1.156 0.657-1.285 0.525-0.256 1.181 0.129 1.443 0.643l8.007 23.501c1.05 3.082 5.25 4.109 7.35 1.541 0.131-0.129 0.131-0.257 0.262-0.386 0.788-1.926 0.919-3.724 0.263-5.393z" fill="#FF7BF9"/>
<path d="m447.11 396c-6.037 0-11.025 4.88-11.025 10.787 0 5.908 4.988 10.788 11.025 10.788 6.038 0 11.025-4.88 11.025-10.788 0-5.907-4.987-10.787-11.025-10.787z" fill="#FF7BF9"/>
<path d="m374.67 456.77-8.8-25.813c-1.067-2.954-3.067-5.522-5.734-7.577-3.6-2.568-8.133-3.981-12.8-3.981h-7.333c-4.667 0-9.2 1.413-12.8 3.981-2.8 2.055-4.8 4.623-5.867 7.577l-8.933 25.813c-0.667 1.669-0.4 3.595 0.533 5.137 0.134 0.128 0.134 0.256 0.267 0.385 2.133 2.44 6.4 1.541 7.467-1.541l8.266-23.373c0.134-0.514 0.8-0.899 1.334-0.642 0.533 0.128 0.933 0.771 0.666 1.284l-12.666 39.169c-0.267 1.027 0.533 1.926 1.6 1.926h10.8c0.933 0 1.6 0.77 1.6 1.541v31.592c0 2.054 2.133 3.724 4.666 3.724 2.534 0 4.667-1.67 4.667-3.724v-31.207c0-1.156 0.933-2.054 2.133-2.054s2.134 0.898 2.134 2.054v31.207c0 2.054 2.133 3.724 4.666 3.724 2.534 0 4.667-1.67 4.667-3.724v-31.464c0-0.899 0.8-1.541 1.6-1.541h10.8c1.067 0 1.867-1.027 1.6-1.926l-12.8-39.168c-0.133-0.514 0.133-1.156 0.667-1.285 0.533-0.256 1.2 0.129 1.466 0.643l8.134 23.501c1.066 3.082 5.333 4.109 7.466 1.541 0.134-0.129 0.134-0.257 0.267-0.386 0.8-1.926 0.933-3.724 0.267-5.393z" fill="#2A4AAC"/>
<path d="m343.6 395c-6.133 0-11.2 4.88-11.2 10.787 0 5.908 5.067 10.788 11.2 10.788s11.2-4.88 11.2-10.788c0-5.907-5.067-10.787-11.2-10.787z" fill="#2A4AAC"/>
<path d="m165.67 456.77-8.8-25.813c-1.067-2.954-3.067-5.522-5.734-7.577-3.6-2.568-8.133-3.981-12.8-3.981h-7.333c-4.667 0-9.2 1.413-12.8 3.981-2.8 2.055-4.8 4.623-5.867 7.577l-8.933 25.813c-0.667 1.669-0.4 3.595 0.533 5.137 0.134 0.128 0.134 0.256 0.267 0.385 2.133 2.44 6.4 1.541 7.467-1.541l8.266-23.373c0.134-0.514 0.8-0.899 1.334-0.642 0.533 0.128 0.933 0.771 0.666 1.284l-12.666 39.169c-0.267 1.027 0.533 1.926 1.6 1.926h10.8c0.933 0 1.6 0.77 1.6 1.541v31.592c0 2.054 2.133 3.724 4.666 3.724 2.534 0 4.667-1.67 4.667-3.724v-31.207c0-1.156 0.933-2.054 2.133-2.054s2.134 0.898 2.134 2.054v31.207c0 2.054 2.133 3.724 4.666 3.724 2.534 0 4.667-1.67 4.667-3.724v-31.464c0-0.899 0.8-1.541 1.6-1.541h10.8c1.067 0 1.867-1.027 1.6-1.926l-12.8-39.168c-0.133-0.514 0.133-1.156 0.667-1.285 0.533-0.256 1.2 0.129 1.466 0.643l8.134 23.501c1.066 3.082 5.333 4.109 7.466 1.541 0.134-0.129 0.134-0.257 0.267-0.386 0.8-1.926 0.933-3.724 0.267-5.393z" fill="#FF7BF9"/>
<path d="m134.6 395c-6.133 0-11.2 4.88-11.2 10.787 0 5.908 5.067 10.788 11.2 10.788s11.2-4.88 11.2-10.788c0-5.907-5.067-10.787-11.2-10.787z" fill="#FF7BF9"/>
<path d="m581.69 456.77-8.663-25.813c-1.05-2.954-3.019-5.522-5.644-7.577-3.543-2.568-8.006-3.981-12.6-3.981h-7.218c-4.594 0-9.057 1.413-12.6 3.981-2.757 2.055-4.725 4.623-5.775 7.577l-8.794 25.813c-0.656 1.669-0.394 3.595 0.525 5.137 0.131 0.128 0.131 0.256 0.262 0.385 2.1 2.44 6.3 1.541 7.35-1.541l8.138-23.373c0.131-0.514 0.787-0.899 1.312-0.642 0.525 0.128 0.919 0.771 0.657 1.284l-12.469 39.169c-0.263 1.027 0.525 1.926 1.575 1.926h10.631c0.919 0 1.575 0.77 1.575 1.541v31.592c0 2.054 2.1 3.724 4.594 3.724s4.594-1.67 4.594-3.724v-31.207c0-1.156 0.918-2.054 2.1-2.054 1.181 0 2.1 0.898 2.1 2.054v31.207c0 2.054 2.1 3.724 4.593 3.724 2.494 0 4.594-1.67 4.594-3.724v-31.464c0-0.899 0.788-1.541 1.575-1.541h10.631c1.05 0 1.838-1.027 1.575-1.926l-12.6-39.168c-0.131-0.514 0.132-1.156 0.657-1.285 0.525-0.256 1.181 0.129 1.443 0.643l8.007 23.501c1.05 3.082 5.25 4.109 7.35 1.541 0.131-0.129 0.131-0.257 0.262-0.386 0.788-1.926 0.919-3.724 0.263-5.393z" fill="#2A4AAC"/>
<path d="m551.11 395c-6.037 0-11.025 4.88-11.025 10.787 0 5.908 4.988 10.788 11.025 10.788 6.038 0 11.025-4.88 11.025-10.788 0-5.907-4.987-10.787-11.025-10.787z" fill="#2A4AAC"/>
<defs>
<clipPath id="i">
<rect transform="translate(213 51)" width="55" height="122" fill="#fff"/>
</clipPath>
<clipPath id="h">
<rect transform="translate(316 51)" width="55" height="122" fill="#fff"/>
</clipPath>
<clipPath id="g">
<rect transform="translate(420 51)" width="55" height="122" fill="#fff"/>
</clipPath>
<clipPath id="f">
<rect transform="translate(524 51)" width="55" height="122" fill="#fff"/>
</clipPath>
<clipPath id="e">
<rect transform="translate(107 223)" width="55" height="122" fill="#fff"/>
</clipPath>
<clipPath id="d">
<rect transform="translate(213 223)" width="55" height="122" fill="#fff"/>
</clipPath>
<clipPath id="c">
<rect transform="translate(316 223)" width="55" height="122" fill="#fff"/>
</clipPath>
<clipPath id="b">
<rect transform="translate(420 223)" width="55" height="122" fill="#fff"/>
</clipPath>
<clipPath id="a">
<rect transform="translate(524 223)" width="55" height="122" fill="#fff"/>
</clipPath>
</defs>
</svg>
