<svg width="686" height="800" viewBox="0 0 686 800" fill="none" xmlns="http://www.w3.org/2000/svg">
<path d="M20 1H666C676.493 1 685 9.50659 685 20V780C685 790.493 676.493 799 666 799H20C9.5066 799 1 790.493 1 780V20C1 9.50657 9.50659 1 20 1Z" stroke="#4055A0" stroke-width="2"/>
<path d="M580.688 687.771L572.025 661.958C570.975 659.004 569.006 656.436 566.381 654.381C562.838 651.813 558.375 650.4 553.781 650.4H546.563C541.969 650.4 537.506 651.813 533.963 654.381C531.206 656.436 529.238 659.004 528.188 661.958L519.394 687.771C518.738 689.44 519 691.366 519.919 692.908C520.05 693.036 520.05 693.164 520.181 693.293C522.281 695.733 526.481 694.834 527.531 691.752L535.669 668.379C535.8 667.865 536.456 667.48 536.981 667.737C537.506 667.865 537.9 668.508 537.638 669.021L525.169 708.19C524.906 709.217 525.694 710.116 526.744 710.116H537.375C538.294 710.116 538.95 710.886 538.95 711.657V743.249C538.95 745.303 541.05 746.973 543.544 746.973C546.038 746.973 548.138 745.303 548.138 743.249V712.042C548.138 710.886 549.056 709.988 550.238 709.988C551.419 709.988 552.338 710.886 552.338 712.042V743.249C552.338 745.303 554.438 746.973 556.931 746.973C559.425 746.973 561.525 745.303 561.525 743.249V711.785C561.525 710.886 562.313 710.244 563.1 710.244H573.731C574.781 710.244 575.569 709.217 575.306 708.318L562.706 669.15C562.575 668.636 562.838 667.994 563.363 667.865C563.888 667.609 564.544 667.994 564.806 668.508L572.813 692.009C573.863 695.091 578.063 696.118 580.163 693.55C580.294 693.421 580.294 693.293 580.425 693.164C581.213 691.238 581.344 689.44 580.688 687.771Z" fill="#2A4AAC"/>
<path d="M550.106 626C544.069 626 539.081 630.88 539.081 636.787C539.081 642.695 544.069 647.575 550.106 647.575C556.144 647.575 561.131 642.695 561.131 636.787C561.131 630.88 556.144 626 550.106 626Z" fill="#2A4AAC"/>
<path d="M476.688 687.771L468.025 661.958C466.975 659.004 465.006 656.436 462.381 654.381C458.838 651.813 454.375 650.4 449.781 650.4H442.563C437.969 650.4 433.506 651.813 429.963 654.381C427.206 656.436 425.238 659.004 424.188 661.958L415.394 687.771C414.738 689.44 415 691.366 415.919 692.908C416.05 693.036 416.05 693.164 416.181 693.293C418.281 695.733 422.481 694.834 423.531 691.752L431.669 668.379C431.8 667.865 432.456 667.48 432.981 667.737C433.506 667.865 433.9 668.508 433.638 669.021L421.169 708.19C420.906 709.217 421.694 710.116 422.744 710.116H433.375C434.294 710.116 434.95 710.886 434.95 711.657V743.249C434.95 745.303 437.05 746.973 439.544 746.973C442.038 746.973 444.138 745.303 444.138 743.249V712.042C444.138 710.886 445.056 709.988 446.238 709.988C447.419 709.988 448.338 710.886 448.338 712.042V743.249C448.338 745.303 450.438 746.973 452.931 746.973C455.425 746.973 457.525 745.303 457.525 743.249V711.785C457.525 710.886 458.313 710.244 459.1 710.244H469.731C470.781 710.244 471.569 709.217 471.306 708.318L458.706 669.15C458.575 668.636 458.838 667.994 459.363 667.865C459.888 667.609 460.544 667.994 460.806 668.508L468.813 692.009C469.863 695.091 474.063 696.118 476.163 693.55C476.294 693.421 476.294 693.293 476.425 693.164C477.213 691.238 477.344 689.44 476.688 687.771Z" fill="#00D7D7"/>
<path d="M446.106 626C440.069 626 435.081 630.88 435.081 636.787C435.081 642.695 440.069 647.575 446.106 647.575C452.144 647.575 457.131 642.695 457.131 636.787C457.131 630.88 452.144 626 446.106 626Z" fill="#00D7D7"/>
<g clip-path="url(#clip0_846_6615)">
<path d="M365.616 669.946C365.616 662.863 360.244 655.648 353.21 653.155C349.244 651.712 344.384 651.056 338.884 651.056C333.256 651.056 328.523 651.712 324.558 653.155C317.523 655.648 312.151 662.863 312.151 669.946V695.658C312.151 698.413 314.326 700.512 317.012 700.512C319.698 700.512 321.872 698.282 321.872 695.527V668.635C321.872 667.848 322.512 667.323 323.151 667.323C323.919 667.323 324.43 667.979 324.43 668.635V706.153V708.252V743.802C324.43 746.164 326.093 748 328.14 748H333.128C334.023 748 334.919 747.607 335.558 746.951C336.326 746.164 336.837 744.983 336.837 743.802L336.71 706.284C336.71 705.103 337.605 704.185 338.756 704.185C339.907 704.185 340.803 705.103 340.803 706.284L340.93 743.802C340.93 746.164 342.593 748 344.64 748H349.5C351.547 748 353.21 746.164 353.21 743.802V708.252V668.635C353.21 667.848 353.849 667.323 354.489 667.323C355.256 667.323 355.768 667.979 355.768 668.635V695.396C355.768 695.396 355.768 695.396 355.768 695.527C355.768 695.527 355.768 695.527 355.768 695.658C355.768 698.413 357.942 700.643 360.628 700.643C361.396 700.643 362.163 700.381 362.803 700.118C364.082 699.594 365.105 698.413 365.361 696.708C365.361 696.577 365.361 696.577 365.361 696.445C365.361 696.314 365.361 696.314 365.361 696.183C365.361 695.921 365.361 695.789 365.361 695.527V669.946H365.616Z" fill="#2A4AAC"/>
<path d="M338.884 648.301C344.888 648.301 349.756 643.309 349.756 637.151C349.756 630.992 344.888 626 338.884 626C332.879 626 328.012 630.992 328.012 637.151C328.012 643.309 332.879 648.301 338.884 648.301Z" fill="#2A4AAC"/>
</g>
<path d="M268.687 687.771L260.024 661.958C258.974 659.004 257.005 656.436 254.38 654.381C250.837 651.813 246.374 650.4 241.78 650.4H234.562C229.968 650.4 225.505 651.813 221.962 654.381C219.205 656.436 217.237 659.004 216.187 661.958L207.393 687.771C206.737 689.44 206.999 691.366 207.918 692.908C208.049 693.036 208.049 693.164 208.18 693.293C210.28 695.733 214.48 694.834 215.53 691.752L223.668 668.379C223.799 667.865 224.455 667.48 224.98 667.737C225.505 667.865 225.899 668.508 225.637 669.021L213.168 708.19C212.905 709.217 213.693 710.116 214.743 710.116H225.374C226.293 710.116 226.949 710.886 226.949 711.657V743.249C226.949 745.303 229.049 746.973 231.543 746.973C234.037 746.973 236.137 745.303 236.137 743.249V712.042C236.137 710.886 237.055 709.988 238.237 709.988C239.418 709.988 240.337 710.886 240.337 712.042V743.249C240.337 745.303 242.437 746.973 244.93 746.973C247.424 746.973 249.524 745.303 249.524 743.249V711.785C249.524 710.886 250.312 710.244 251.099 710.244H261.73C262.78 710.244 263.568 709.217 263.305 708.318L250.705 669.15C250.574 668.636 250.837 667.994 251.362 667.865C251.887 667.609 252.543 667.994 252.805 668.508L260.812 692.009C261.862 695.091 266.062 696.118 268.162 693.55C268.293 693.421 268.293 693.293 268.424 693.164C269.212 691.238 269.343 689.44 268.687 687.771Z" fill="#00D7D7"/>
<path d="M238.106 626C232.069 626 227.081 630.88 227.081 636.787C227.081 642.695 232.069 647.575 238.106 647.575C244.144 647.575 249.131 642.695 249.131 636.787C249.131 630.88 244.144 626 238.106 626Z" fill="#00D7D7"/>
<g clip-path="url(#clip1_846_6615)">
<path d="M161.616 669.946C161.616 662.863 156.244 655.648 149.209 653.155C145.244 651.712 140.384 651.056 134.884 651.056C129.256 651.056 124.523 651.712 120.558 653.155C113.523 655.648 108.151 662.863 108.151 669.946V695.658C108.151 698.413 110.326 700.512 113.012 700.512C115.698 700.512 117.872 698.282 117.872 695.527V668.635C117.872 667.848 118.512 667.323 119.151 667.323C119.919 667.323 120.43 667.979 120.43 668.635V706.153V708.252V743.802C120.43 746.164 122.093 748 124.139 748H129.128C130.023 748 130.919 747.607 131.558 746.951C132.326 746.164 132.837 744.983 132.837 743.802L132.709 706.284C132.709 705.103 133.605 704.185 134.756 704.185C135.907 704.185 136.802 705.103 136.802 706.284L136.93 743.802C136.93 746.164 138.593 748 140.64 748H145.5C147.546 748 149.209 746.164 149.209 743.802V708.252V668.635C149.209 667.848 149.849 667.323 150.488 667.323C151.256 667.323 151.767 667.979 151.767 668.635V695.396C151.767 695.396 151.767 695.396 151.767 695.527C151.767 695.527 151.767 695.527 151.767 695.658C151.767 698.413 153.942 700.643 156.628 700.643C157.395 700.643 158.163 700.381 158.802 700.118C160.081 699.594 161.105 698.413 161.36 696.708C161.36 696.577 161.36 696.577 161.36 696.445C161.36 696.314 161.36 696.314 161.36 696.183C161.36 695.921 161.36 695.789 161.36 695.527V669.946H161.616Z" fill="#2A4AAC"/>
<path d="M134.884 648.301C140.888 648.301 145.756 643.309 145.756 637.151C145.756 630.992 140.888 626 134.884 626C128.879 626 124.012 630.992 124.012 637.151C124.012 643.309 128.879 648.301 134.884 648.301Z" fill="#2A4AAC"/>
</g>
<path d="M580.687 495.771L572.024 469.958C570.974 467.004 569.005 464.436 566.38 462.381C562.837 459.813 558.374 458.4 553.78 458.4H546.562C541.968 458.4 537.505 459.813 533.962 462.381C531.205 464.436 529.237 467.004 528.187 469.958L519.393 495.771C518.737 497.44 518.999 499.366 519.918 500.908C520.049 501.036 520.049 501.164 520.18 501.293C522.28 503.733 526.48 502.834 527.53 499.752L535.668 476.379C535.799 475.865 536.455 475.48 536.98 475.737C537.505 475.865 537.899 476.508 537.637 477.021L525.168 516.19C524.905 517.217 525.693 518.116 526.743 518.116H537.374C538.293 518.116 538.949 518.886 538.949 519.657V551.249C538.949 553.303 541.049 554.973 543.543 554.973C546.037 554.973 548.137 553.303 548.137 551.249V520.042C548.137 518.886 549.055 517.988 550.237 517.988C551.418 517.988 552.337 518.886 552.337 520.042V551.249C552.337 553.303 554.437 554.973 556.93 554.973C559.424 554.973 561.524 553.303 561.524 551.249V519.785C561.524 518.886 562.312 518.244 563.099 518.244H573.73C574.78 518.244 575.568 517.217 575.305 516.318L562.705 477.15C562.574 476.636 562.837 475.994 563.362 475.865C563.887 475.609 564.543 475.994 564.805 476.508L572.812 500.009C573.862 503.091 578.062 504.118 580.162 501.55C580.293 501.421 580.293 501.293 580.424 501.164C581.212 499.238 581.343 497.44 580.687 495.771Z" fill="#2A4AAC"/>
<path d="M550.106 434C544.069 434 539.081 438.88 539.081 444.787C539.081 450.695 544.069 455.575 550.106 455.575C556.144 455.575 561.131 450.695 561.131 444.787C561.131 438.88 556.144 434 550.106 434Z" fill="#2A4AAC"/>
<g clip-path="url(#clip2_846_6615)">
<path d="M473.616 477.946C473.616 470.863 468.244 463.648 461.21 461.155C457.244 459.712 452.384 459.056 446.884 459.056C441.256 459.056 436.523 459.712 432.558 461.155C425.523 463.648 420.151 470.863 420.151 477.946V503.658C420.151 506.413 422.326 508.512 425.012 508.512C427.698 508.512 429.872 506.282 429.872 503.527V476.635C429.872 475.848 430.512 475.323 431.151 475.323C431.919 475.323 432.43 475.979 432.43 476.635V514.153V516.252V551.802C432.43 554.164 434.093 556 436.14 556H441.128C442.023 556 442.919 555.607 443.558 554.951C444.326 554.164 444.837 552.983 444.837 551.802L444.71 514.284C444.71 513.103 445.605 512.185 446.756 512.185C447.907 512.185 448.803 513.103 448.803 514.284L448.93 551.802C448.93 554.164 450.593 556 452.64 556H457.5C459.547 556 461.21 554.164 461.21 551.802V516.252V476.635C461.21 475.848 461.849 475.323 462.489 475.323C463.256 475.323 463.768 475.979 463.768 476.635V503.396C463.768 503.396 463.768 503.396 463.768 503.527C463.768 503.527 463.768 503.527 463.768 503.658C463.768 506.413 465.942 508.643 468.628 508.643C469.396 508.643 470.163 508.381 470.803 508.118C472.082 507.594 473.105 506.413 473.361 504.708C473.361 504.577 473.361 504.577 473.361 504.445C473.361 504.314 473.361 504.314 473.361 504.183C473.361 503.921 473.361 503.789 473.361 503.527V477.946H473.616Z" fill="#2A4AAC"/>
<path d="M446.884 456.301C452.888 456.301 457.756 451.309 457.756 445.151C457.756 438.992 452.888 434 446.884 434C440.879 434 436.012 438.992 436.012 445.151C436.012 451.309 440.879 456.301 446.884 456.301Z" fill="#2A4AAC"/>
</g>
<g clip-path="url(#clip3_846_6615)">
<path d="M365.616 477.946C365.616 470.863 360.244 463.648 353.21 461.155C349.244 459.712 344.384 459.056 338.884 459.056C333.256 459.056 328.523 459.712 324.558 461.155C317.523 463.648 312.151 470.863 312.151 477.946V503.658C312.151 506.413 314.326 508.512 317.012 508.512C319.698 508.512 321.872 506.282 321.872 503.527V476.635C321.872 475.848 322.512 475.323 323.151 475.323C323.919 475.323 324.43 475.979 324.43 476.635V514.153V516.252V551.802C324.43 554.164 326.093 556 328.14 556H333.128C334.023 556 334.919 555.607 335.558 554.951C336.326 554.164 336.837 552.983 336.837 551.802L336.71 514.284C336.71 513.103 337.605 512.185 338.756 512.185C339.907 512.185 340.803 513.103 340.803 514.284L340.93 551.802C340.93 554.164 342.593 556 344.64 556H349.5C351.547 556 353.21 554.164 353.21 551.802V516.252V476.635C353.21 475.848 353.849 475.323 354.489 475.323C355.256 475.323 355.768 475.979 355.768 476.635V503.396C355.768 503.396 355.768 503.396 355.768 503.527C355.768 503.527 355.768 503.527 355.768 503.658C355.768 506.413 357.942 508.643 360.628 508.643C361.396 508.643 362.163 508.381 362.803 508.118C364.082 507.594 365.105 506.413 365.361 504.708C365.361 504.577 365.361 504.577 365.361 504.445C365.361 504.314 365.361 504.314 365.361 504.183C365.361 503.921 365.361 503.789 365.361 503.527V477.946H365.616Z" fill="#FF7BF9"/>
<path d="M338.884 456.301C344.888 456.301 349.756 451.309 349.756 445.151C349.756 438.992 344.888 434 338.884 434C332.879 434 328.012 438.992 328.012 445.151C328.012 451.309 332.879 456.301 338.884 456.301Z" fill="#FF7BF9"/>
</g>
<path d="M268.688 495.771L260.025 469.958C258.975 467.004 257.006 464.436 254.381 462.381C250.838 459.813 246.375 458.4 241.781 458.4H234.563C229.969 458.4 225.506 459.813 221.963 462.381C219.206 464.436 217.238 467.004 216.188 469.958L207.394 495.771C206.738 497.44 207 499.366 207.919 500.908C208.05 501.036 208.05 501.164 208.181 501.293C210.281 503.733 214.481 502.834 215.531 499.752L223.669 476.379C223.8 475.865 224.456 475.48 224.981 475.737C225.506 475.865 225.9 476.508 225.638 477.021L213.169 516.19C212.906 517.217 213.694 518.116 214.744 518.116H225.375C226.294 518.116 226.95 518.886 226.95 519.657V551.249C226.95 553.303 229.05 554.973 231.544 554.973C234.038 554.973 236.138 553.303 236.138 551.249V520.042C236.138 518.886 237.056 517.988 238.238 517.988C239.419 517.988 240.338 518.886 240.338 520.042V551.249C240.338 553.303 242.438 554.973 244.931 554.973C247.425 554.973 249.525 553.303 249.525 551.249V519.785C249.525 518.886 250.313 518.244 251.1 518.244H261.731C262.781 518.244 263.569 517.217 263.306 516.318L250.706 477.15C250.575 476.636 250.838 475.994 251.363 475.865C251.888 475.609 252.544 475.994 252.806 476.508L260.813 500.009C261.863 503.091 266.063 504.118 268.163 501.55C268.294 501.421 268.294 501.293 268.425 501.164C269.213 499.238 269.344 497.44 268.688 495.771Z" fill="#2A4AAC"/>
<path d="M238.106 434C232.069 434 227.081 438.88 227.081 444.787C227.081 450.695 232.069 455.575 238.106 455.575C244.144 455.575 249.131 450.695 249.131 444.787C249.131 438.88 244.144 434 238.106 434Z" fill="#2A4AAC"/>
<g clip-path="url(#clip4_846_6615)">
<path d="M161.616 477.946C161.616 470.862 156.244 463.647 149.209 461.155C145.244 459.712 140.384 459.056 134.884 459.056C129.256 459.056 124.523 459.712 120.558 461.155C113.523 463.647 108.151 470.862 108.151 477.946V503.658C108.151 506.413 110.326 508.512 113.012 508.512C115.698 508.512 117.872 506.282 117.872 503.527V476.634C117.872 475.847 118.512 475.323 119.151 475.323C119.919 475.323 120.43 475.978 120.43 476.634V514.153V516.252V551.802C120.43 554.163 122.093 556 124.139 556H129.128C130.023 556 130.919 555.606 131.558 554.95C132.326 554.163 132.837 552.983 132.837 551.802L132.709 514.284C132.709 513.103 133.605 512.185 134.756 512.185C135.907 512.185 136.802 513.103 136.802 514.284L136.93 551.802C136.93 554.163 138.593 556 140.64 556H145.5C147.546 556 149.209 554.163 149.209 551.802V516.252V476.634C149.209 475.847 149.849 475.323 150.488 475.323C151.256 475.323 151.767 475.978 151.767 476.634V503.396C151.767 503.396 151.767 503.396 151.767 503.527C151.767 503.527 151.767 503.527 151.767 503.658C151.767 506.413 153.942 508.643 156.628 508.643C157.395 508.643 158.163 508.381 158.802 508.118C160.081 507.594 161.105 506.413 161.36 504.707C161.36 504.576 161.36 504.576 161.36 504.445C161.36 504.314 161.36 504.314 161.36 504.183C161.36 503.92 161.36 503.789 161.36 503.527V477.946H161.616Z" fill="#00D7D7"/>
<path d="M134.884 456.301C140.888 456.301 145.756 451.309 145.756 445.151C145.756 438.992 140.888 434 134.884 434C128.879 434 124.012 438.992 124.012 445.151C124.012 451.309 128.879 456.301 134.884 456.301Z" fill="#00D7D7"/>
</g>
<path d="M580.688 303.77L572.025 277.958C570.975 275.004 569.006 272.436 566.381 270.381C562.838 267.813 558.375 266.4 553.781 266.4H546.563C541.969 266.4 537.506 267.813 533.963 270.381C531.206 272.436 529.238 275.004 528.188 277.958L519.394 303.77C518.738 305.44 519 307.366 519.919 308.907C520.05 309.036 520.05 309.164 520.181 309.293C522.281 311.733 526.481 310.834 527.531 307.751L535.669 284.379C535.8 283.865 536.456 283.48 536.981 283.737C537.506 283.865 537.9 284.507 537.638 285.021L525.169 324.189C524.906 325.217 525.694 326.116 526.744 326.116H537.375C538.294 326.116 538.95 326.886 538.95 327.657V359.248C538.95 361.303 541.05 362.973 543.544 362.973C546.038 362.973 548.138 361.303 548.138 359.248V328.042C548.138 326.886 549.056 325.987 550.238 325.987C551.419 325.987 552.338 326.886 552.338 328.042V359.248C552.338 361.303 554.438 362.973 556.931 362.973C559.425 362.973 561.525 361.303 561.525 359.248V327.785C561.525 326.886 562.313 326.244 563.1 326.244H573.731C574.781 326.244 575.569 325.217 575.306 324.318L562.706 285.149C562.575 284.636 562.838 283.994 563.363 283.865C563.888 283.608 564.544 283.994 564.806 284.507L572.813 308.008C573.863 311.09 578.063 312.118 580.163 309.549C580.294 309.421 580.294 309.293 580.425 309.164C581.213 307.238 581.344 305.44 580.688 303.77Z" fill="#2A4AAC"/>
<path d="M550.106 242C544.069 242 539.081 246.88 539.081 252.787C539.081 258.695 544.069 263.575 550.106 263.575C556.144 263.575 561.131 258.695 561.131 252.787C561.131 246.88 556.144 242 550.106 242Z" fill="#2A4AAC"/>
<g clip-path="url(#clip5_846_6615)">
<path d="M473.616 285.946C473.616 278.863 468.244 271.648 461.21 269.155C457.244 267.712 452.384 267.056 446.884 267.056C441.256 267.056 436.523 267.712 432.558 269.155C425.523 271.648 420.151 278.863 420.151 285.946V311.658C420.151 314.413 422.326 316.512 425.012 316.512C427.698 316.512 429.872 314.282 429.872 311.527V284.635C429.872 283.848 430.512 283.323 431.151 283.323C431.919 283.323 432.43 283.979 432.43 284.635V322.153V324.252V359.802C432.43 362.164 434.093 364 436.14 364H441.128C442.023 364 442.919 363.607 443.558 362.951C444.326 362.164 444.837 360.983 444.837 359.802L444.71 322.284C444.71 321.103 445.605 320.185 446.756 320.185C447.907 320.185 448.803 321.103 448.803 322.284L448.93 359.802C448.93 362.164 450.593 364 452.64 364H457.5C459.547 364 461.21 362.164 461.21 359.802V324.252V284.635C461.21 283.848 461.849 283.323 462.489 283.323C463.256 283.323 463.768 283.979 463.768 284.635V311.396C463.768 311.396 463.768 311.396 463.768 311.527C463.768 311.527 463.768 311.527 463.768 311.658C463.768 314.413 465.942 316.643 468.628 316.643C469.396 316.643 470.163 316.381 470.803 316.118C472.082 315.594 473.105 314.413 473.361 312.708C473.361 312.577 473.361 312.577 473.361 312.445C473.361 312.314 473.361 312.314 473.361 312.183C473.361 311.921 473.361 311.789 473.361 311.527V285.946H473.616Z" fill="#00D7D7"/>
<path d="M446.884 264.301C452.888 264.301 457.756 259.309 457.756 253.151C457.756 246.992 452.888 242 446.884 242C440.879 242 436.012 246.992 436.012 253.151C436.012 259.309 440.879 264.301 446.884 264.301Z" fill="#00D7D7"/>
</g>
<g clip-path="url(#clip6_846_6615)">
<path d="M365.616 285.946C365.616 278.863 360.244 271.648 353.21 269.155C349.244 267.712 344.384 267.056 338.884 267.056C333.256 267.056 328.523 267.712 324.558 269.155C317.523 271.648 312.151 278.863 312.151 285.946V311.658C312.151 314.413 314.326 316.512 317.012 316.512C319.698 316.512 321.872 314.282 321.872 311.527V284.635C321.872 283.848 322.512 283.323 323.151 283.323C323.919 283.323 324.43 283.979 324.43 284.635V322.153V324.252V359.802C324.43 362.164 326.093 364 328.14 364H333.128C334.023 364 334.919 363.607 335.558 362.951C336.326 362.164 336.837 360.983 336.837 359.802L336.71 322.284C336.71 321.103 337.605 320.185 338.756 320.185C339.907 320.185 340.803 321.103 340.803 322.284L340.93 359.802C340.93 362.164 342.593 364 344.64 364H349.5C351.547 364 353.21 362.164 353.21 359.802V324.252V284.635C353.21 283.848 353.849 283.323 354.489 283.323C355.256 283.323 355.768 283.979 355.768 284.635V311.396C355.768 311.396 355.768 311.396 355.768 311.527C355.768 311.527 355.768 311.527 355.768 311.658C355.768 314.413 357.942 316.643 360.628 316.643C361.396 316.643 362.163 316.381 362.803 316.118C364.082 315.594 365.105 314.413 365.361 312.708C365.361 312.577 365.361 312.577 365.361 312.445C365.361 312.314 365.361 312.314 365.361 312.183C365.361 311.921 365.361 311.789 365.361 311.527V285.946H365.616Z" fill="#2A4AAC"/>
<path d="M338.884 264.301C344.888 264.301 349.756 259.309 349.756 253.151C349.756 246.992 344.888 242 338.884 242C332.879 242 328.012 246.992 328.012 253.151C328.012 259.309 332.879 264.301 338.884 264.301Z" fill="#2A4AAC"/>
</g>
<path d="M268.688 303.77L260.025 277.958C258.975 275.004 257.006 272.436 254.381 270.381C250.838 267.813 246.375 266.4 241.781 266.4H234.563C229.969 266.4 225.506 267.813 221.963 270.381C219.206 272.436 217.238 275.004 216.188 277.958L207.394 303.77C206.738 305.44 207 307.366 207.919 308.907C208.05 309.036 208.05 309.164 208.181 309.293C210.281 311.733 214.481 310.834 215.531 307.751L223.669 284.379C223.8 283.865 224.456 283.48 224.981 283.737C225.506 283.865 225.9 284.507 225.638 285.021L213.169 324.189C212.906 325.217 213.694 326.116 214.744 326.116H225.375C226.294 326.116 226.95 326.886 226.95 327.657V359.248C226.95 361.303 229.05 362.973 231.544 362.973C234.038 362.973 236.138 361.303 236.138 359.248V328.042C236.138 326.886 237.056 325.987 238.238 325.987C239.419 325.987 240.338 326.886 240.338 328.042V359.248C240.338 361.303 242.438 362.973 244.931 362.973C247.425 362.973 249.525 361.303 249.525 359.248V327.785C249.525 326.886 250.313 326.244 251.1 326.244H261.731C262.781 326.244 263.569 325.217 263.306 324.318L250.706 285.149C250.575 284.636 250.838 283.994 251.363 283.865C251.888 283.608 252.544 283.994 252.806 284.507L260.813 308.008C261.863 311.09 266.063 312.118 268.163 309.549C268.294 309.421 268.294 309.293 268.425 309.164C269.213 307.238 269.344 305.44 268.688 303.77Z" fill="#2A4AAC"/>
<path d="M238.106 242C232.069 242 227.081 246.88 227.081 252.787C227.081 258.695 232.069 263.575 238.106 263.575C244.144 263.575 249.131 258.695 249.131 252.787C249.131 246.88 244.144 242 238.106 242Z" fill="#2A4AAC"/>
<path d="M164.688 303.77L156.025 277.958C154.975 275.004 153.006 272.436 150.381 270.381C146.838 267.813 142.375 266.4 137.781 266.4H130.563C125.969 266.4 121.506 267.813 117.963 270.381C115.206 272.436 113.238 275.004 112.188 277.958L103.394 303.77C102.738 305.44 103 307.366 103.919 308.907C104.05 309.036 104.05 309.164 104.181 309.293C106.281 311.733 110.481 310.834 111.531 307.751L119.669 284.379C119.8 283.865 120.456 283.48 120.981 283.737C121.506 283.865 121.9 284.507 121.638 285.021L109.169 324.189C108.906 325.217 109.694 326.116 110.744 326.116H121.375C122.294 326.116 122.95 326.886 122.95 327.657V359.248C122.95 361.303 125.05 362.973 127.544 362.973C130.038 362.973 132.138 361.303 132.138 359.248V328.042C132.138 326.886 133.056 325.987 134.238 325.987C135.419 325.987 136.338 326.886 136.338 328.042V359.248C136.338 361.303 138.438 362.973 140.931 362.973C143.425 362.973 145.525 361.303 145.525 359.248V327.785C145.525 326.886 146.313 326.244 147.1 326.244H157.731C158.781 326.244 159.569 325.217 159.306 324.318L146.706 285.149C146.575 284.636 146.838 283.994 147.363 283.865C147.888 283.608 148.544 283.994 148.806 284.507L156.813 308.008C157.863 311.09 162.063 312.118 164.163 309.549C164.294 309.421 164.294 309.293 164.425 309.164C165.213 307.238 165.344 305.44 164.688 303.77Z" fill="#2A4AAC"/>
<path d="M134.106 242C128.069 242 123.081 246.88 123.081 252.787C123.081 258.695 128.069 263.575 134.106 263.575C140.144 263.575 145.131 258.695 145.131 252.787C145.131 246.88 140.144 242 134.106 242Z" fill="#2A4AAC"/>
<g clip-path="url(#clip7_846_6615)">
<path d="M577.616 93.9465C577.616 86.8626 572.244 79.6475 565.21 77.1551C561.244 75.7121 556.384 75.0562 550.884 75.0562C545.256 75.0562 540.523 75.7121 536.558 77.1551C529.523 79.6475 524.151 86.8626 524.151 93.9465V119.658C524.151 122.413 526.326 124.512 529.012 124.512C531.698 124.512 533.872 122.282 533.872 119.527V92.6346C533.872 91.8475 534.512 91.3228 535.151 91.3228C535.919 91.3228 536.43 91.9787 536.43 92.6346V130.153V132.252V167.802C536.43 170.164 538.093 172 540.14 172H545.128C546.023 172 546.919 171.607 547.558 170.951C548.326 170.164 548.837 168.983 548.837 167.802L548.71 130.284C548.71 129.103 549.605 128.185 550.756 128.185C551.907 128.185 552.803 129.103 552.803 130.284L552.93 167.802C552.93 170.164 554.593 172 556.64 172H561.5C563.547 172 565.21 170.164 565.21 167.802V132.252V92.6346C565.21 91.8475 565.849 91.3228 566.489 91.3228C567.256 91.3228 567.768 91.9787 567.768 92.6346V119.396C567.768 119.396 567.768 119.396 567.768 119.527C567.768 119.527 567.768 119.527 567.768 119.658C567.768 122.413 569.942 124.643 572.628 124.643C573.396 124.643 574.163 124.381 574.803 124.118C576.082 123.594 577.105 122.413 577.361 120.708C577.361 120.577 577.361 120.577 577.361 120.445C577.361 120.314 577.361 120.314 577.361 120.183C577.361 119.921 577.361 119.789 577.361 119.527V93.9465H577.616Z" fill="#00D7D7"/>
<path d="M550.884 72.3011C556.888 72.3011 561.756 67.3088 561.756 61.1505C561.756 54.9923 556.888 50 550.884 50C544.879 50 540.012 54.9923 540.012 61.1505C540.012 67.3088 544.879 72.3011 550.884 72.3011Z" fill="#00D7D7"/>
</g>
<path d="M476.688 111.77L468.025 85.9578C466.975 83.0041 465.006 80.4357 462.381 78.381C458.838 75.8125 454.375 74.3999 449.781 74.3999H442.563C437.969 74.3999 433.506 75.8125 429.963 78.381C427.206 80.4357 425.238 83.0041 424.188 85.9578L415.394 111.77C414.738 113.44 415 115.366 415.919 116.907C416.05 117.036 416.05 117.164 416.181 117.293C418.281 119.733 422.481 118.834 423.531 115.751L431.669 92.3788C431.8 91.8652 432.456 91.4799 432.981 91.7367C433.506 91.8652 433.9 92.5073 433.638 93.021L421.169 132.189C420.906 133.217 421.694 134.116 422.744 134.116H433.375C434.294 134.116 434.95 134.886 434.95 135.657V167.248C434.95 169.303 437.05 170.973 439.544 170.973C442.038 170.973 444.138 169.303 444.138 167.248V136.042C444.138 134.886 445.056 133.987 446.238 133.987C447.419 133.987 448.338 134.886 448.338 136.042V167.248C448.338 169.303 450.438 170.973 452.931 170.973C455.425 170.973 457.525 169.303 457.525 167.248V135.785C457.525 134.886 458.313 134.244 459.1 134.244H469.731C470.781 134.244 471.569 133.217 471.306 132.318L458.706 93.1494C458.575 92.6357 458.838 91.9936 459.363 91.8652C459.888 91.6083 460.544 91.9936 460.806 92.5073L468.813 116.008C469.863 119.09 474.063 120.118 476.163 117.549C476.294 117.421 476.294 117.293 476.425 117.164C477.213 115.238 477.344 113.44 476.688 111.77Z" fill="#FF7BF9"/>
<path d="M446.106 50C440.069 50 435.081 54.88 435.081 60.7874C435.081 66.6947 440.069 71.5747 446.106 71.5747C452.144 71.5747 457.131 66.6947 457.131 60.7874C457.131 54.88 452.144 50 446.106 50Z" fill="#FF7BF9"/>
<g clip-path="url(#clip8_846_6615)">
<path d="M365.616 93.9465C365.616 86.8626 360.244 79.6475 353.21 77.1551C349.244 75.7121 344.384 75.0562 338.884 75.0562C333.256 75.0562 328.523 75.7121 324.558 77.1551C317.523 79.6475 312.151 86.8626 312.151 93.9465V119.658C312.151 122.413 314.326 124.512 317.012 124.512C319.698 124.512 321.872 122.282 321.872 119.527V92.6346C321.872 91.8475 322.512 91.3228 323.151 91.3228C323.919 91.3228 324.43 91.9787 324.43 92.6346V130.153V132.252V167.802C324.43 170.164 326.093 172 328.14 172H333.128C334.023 172 334.919 171.607 335.558 170.951C336.326 170.164 336.837 168.983 336.837 167.802L336.71 130.284C336.71 129.103 337.605 128.185 338.756 128.185C339.907 128.185 340.803 129.103 340.803 130.284L340.93 167.802C340.93 170.164 342.593 172 344.64 172H349.5C351.547 172 353.21 170.164 353.21 167.802V132.252V92.6346C353.21 91.8475 353.849 91.3228 354.489 91.3228C355.256 91.3228 355.768 91.9787 355.768 92.6346V119.396C355.768 119.396 355.768 119.396 355.768 119.527C355.768 119.527 355.768 119.527 355.768 119.658C355.768 122.413 357.942 124.643 360.628 124.643C361.396 124.643 362.163 124.381 362.803 124.118C364.082 123.594 365.105 122.413 365.361 120.708C365.361 120.577 365.361 120.577 365.361 120.445C365.361 120.314 365.361 120.314 365.361 120.183C365.361 119.921 365.361 119.789 365.361 119.527V93.9465H365.616Z" fill="#2A4AAC"/>
<path d="M338.884 72.3011C344.888 72.3011 349.756 67.3088 349.756 61.1505C349.756 54.9923 344.888 50 338.884 50C332.879 50 328.012 54.9923 328.012 61.1505C328.012 67.3088 332.879 72.3011 338.884 72.3011Z" fill="#2A4AAC"/>
</g>
<path d="M268.688 111.77L260.025 85.9578C258.975 83.0041 257.006 80.4357 254.381 78.381C250.838 75.8125 246.375 74.3999 241.781 74.3999H234.563C229.969 74.3999 225.506 75.8125 221.963 78.381C219.206 80.4357 217.238 83.0041 216.188 85.9578L207.394 111.77C206.738 113.44 207 115.366 207.919 116.907C208.05 117.036 208.05 117.164 208.181 117.293C210.281 119.733 214.481 118.834 215.531 115.751L223.669 92.3788C223.8 91.8652 224.456 91.4799 224.981 91.7367C225.506 91.8652 225.9 92.5073 225.638 93.021L213.169 132.189C212.906 133.217 213.694 134.116 214.744 134.116H225.375C226.294 134.116 226.95 134.886 226.95 135.657V167.248C226.95 169.303 229.05 170.973 231.544 170.973C234.038 170.973 236.138 169.303 236.138 167.248V136.042C236.138 134.886 237.056 133.987 238.238 133.987C239.419 133.987 240.338 134.886 240.338 136.042V167.248C240.338 169.303 242.438 170.973 244.931 170.973C247.425 170.973 249.525 169.303 249.525 167.248V135.785C249.525 134.886 250.313 134.244 251.1 134.244H261.731C262.781 134.244 263.569 133.217 263.306 132.318L250.706 93.1494C250.575 92.6357 250.838 91.9936 251.363 91.8652C251.888 91.6083 252.544 91.9936 252.806 92.5073L260.813 116.008C261.863 119.09 266.063 120.118 268.163 117.549C268.294 117.421 268.294 117.293 268.425 117.164C269.213 115.238 269.344 113.44 268.688 111.77Z" fill="#00D7D7"/>
<path d="M238.106 50C232.069 50 227.081 54.88 227.081 60.7874C227.081 66.6947 232.069 71.5747 238.106 71.5747C244.144 71.5747 249.131 66.6947 249.131 60.7874C249.131 54.88 244.144 50 238.106 50Z" fill="#00D7D7"/>
<g clip-path="url(#clip9_846_6615)">
<path d="M161.616 94.9465C161.616 87.8626 156.244 80.6475 149.209 78.1551C145.244 76.7121 140.384 76.0562 134.884 76.0562C129.256 76.0562 124.523 76.7121 120.558 78.1551C113.523 80.6475 108.151 87.8626 108.151 94.9465V120.658C108.151 123.413 110.326 125.512 113.012 125.512C115.698 125.512 117.872 123.282 117.872 120.527V93.6346C117.872 92.8475 118.512 92.3228 119.151 92.3228C119.919 92.3228 120.43 92.9787 120.43 93.6346V131.153V133.252V168.802C120.43 171.164 122.093 173 124.139 173H129.128C130.023 173 130.919 172.607 131.558 171.951C132.326 171.164 132.837 169.983 132.837 168.802L132.709 131.284C132.709 130.103 133.605 129.185 134.756 129.185C135.907 129.185 136.802 130.103 136.802 131.284L136.93 168.802C136.93 171.164 138.593 173 140.639 173H145.5C147.546 173 149.209 171.164 149.209 168.802V133.252V93.6346C149.209 92.8475 149.849 92.3228 150.488 92.3228C151.256 92.3228 151.767 92.9787 151.767 93.6346V120.396C151.767 120.396 151.767 120.396 151.767 120.527C151.767 120.527 151.767 120.527 151.767 120.658C151.767 123.413 153.942 125.643 156.628 125.643C157.395 125.643 158.163 125.381 158.802 125.118C160.081 124.594 161.105 123.413 161.36 121.708C161.36 121.577 161.36 121.577 161.36 121.445C161.36 121.314 161.36 121.314 161.36 121.183C161.36 120.921 161.36 120.789 161.36 120.527V94.9465H161.616Z" fill="#2A4AAC"/>
<path d="M134.884 73.3011C140.888 73.3011 145.756 68.3088 145.756 62.1505C145.756 55.9923 140.888 51 134.884 51C128.879 51 124.012 55.9923 124.012 62.1505C124.012 68.3088 128.879 73.3011 134.884 73.3011Z" fill="#2A4AAC"/>
</g>
<defs>
<clipPath id="clip0_846_6615">
<rect width="55" height="122" fill="white" transform="translate(311 626)"/>
</clipPath>
<clipPath id="clip1_846_6615">
<rect width="55" height="122" fill="white" transform="translate(107 626)"/>
</clipPath>
<clipPath id="clip2_846_6615">
<rect width="55" height="122" fill="white" transform="translate(419 434)"/>
</clipPath>
<clipPath id="clip3_846_6615">
<rect width="55" height="122" fill="white" transform="translate(311 434)"/>
</clipPath>
<clipPath id="clip4_846_6615">
<rect width="55" height="122" fill="white" transform="translate(107 434)"/>
</clipPath>
<clipPath id="clip5_846_6615">
<rect width="55" height="122" fill="white" transform="translate(419 242)"/>
</clipPath>
<clipPath id="clip6_846_6615">
<rect width="55" height="122" fill="white" transform="translate(311 242)"/>
</clipPath>
<clipPath id="clip7_846_6615">
<rect width="55" height="122" fill="white" transform="translate(523 50)"/>
</clipPath>
<clipPath id="clip8_846_6615">
<rect width="55" height="122" fill="white" transform="translate(311 50)"/>
</clipPath>
<clipPath id="clip9_846_6615">
<rect width="55" height="122" fill="white" transform="translate(107 51)"/>
</clipPath>
</defs>
</svg>
