<svg width="895" height="2347" viewBox="0 0 895 2347" fill="none" xmlns="http://www.w3.org/2000/svg">
<path d="M544.328 138.553H667.246V0H515.847C347.959 0 314.481 153.948 319.478 239.581V1509.65H460.384V230.922C460.384 157.027 512.349 138.553 544.328 138.553Z" fill="url(#paint0_linear)"/>
<path d="M490.781 1836.73C467.742 1651.05 529.484 1594.43 573.977 1568.37C650.773 1523.41 721.17 1573.81 746.769 1604.64C874.763 1762.75 800.1 1981.18 746.769 2070.63C637.974 2257.75 471.027 2249.87 391.586 2228.37C305.83 2205.16 296.657 2145.87 303.59 2116.86C306.15 2095.1 330.487 2091.61 361.187 2081.51C483.706 2041.19 497.181 1902 490.781 1836.73Z" fill="#D2268A"/>
<path fill-rule="evenodd" clip-rule="evenodd" d="M319.506 1337.82H460.374V1461.63C460.374 1496.54 468.328 1519.31 483.519 1536.96C502.146 1517.28 521.423 1503.89 537.722 1494.35C597.507 1459.34 656.467 1461.53 703.372 1478.25C748.057 1494.17 783.053 1523.42 803.625 1548.19L803.952 1548.58L804.276 1548.98C886.702 1650.8 902.159 1771.23 891.022 1873.32C880.092 1973.51 843.264 2062.4 811.348 2116.07C677.18 2346.4 468.076 2335.57 373.134 2309.88C315.764 2294.35 272.737 2263.29 247.619 2219.14C224.453 2178.42 221.252 2134.56 228.218 2100.47C236.399 2050.35 271.449 2027.18 291.28 2017.78C303.696 2011.89 322.076 2006.3 332.659 2003.08C335.39 2002.25 337.602 2001.58 339.058 2001.1C374.132 1989.56 392.392 1965.82 403.208 1936.8C414.948 1905.29 416.599 1869.41 414.518 1846.68C410.543 1814.23 408.76 1784.21 409.027 1756.44C405.793 1741.54 401.365 1733.67 394.725 1723.11C388.358 1712.99 382.409 1703.82 376.871 1695.29C338.048 1635.44 319.506 1606.87 319.506 1500.64V1337.82ZM573.977 1568.37C650.773 1523.4 721.171 1573.81 746.769 1604.63C874.763 1762.74 800.1 1981.17 746.769 2070.62C637.975 2257.74 471.027 2249.87 391.586 2228.37C305.83 2205.16 296.657 2145.87 303.59 2116.86C305.746 2098.53 323.352 2093.16 347.197 2085.89C351.662 2084.52 356.346 2083.1 361.188 2081.5C483.707 2041.19 497.181 1902 490.781 1836.72C467.742 1651.05 529.485 1594.42 573.977 1568.37Z" fill="#00D7D7"/>
<path d="M490.781 1836.73C467.742 1651.05 529.484 1594.43 573.977 1568.37C650.773 1523.41 721.17 1573.81 746.769 1604.64C874.763 1762.75 800.1 1981.18 746.769 2070.63C637.974 2257.75 471.027 2249.87 391.586 2228.37C305.83 2205.16 296.657 2145.87 303.59 2116.86C306.15 2095.1 330.487 2091.61 361.187 2081.51C483.706 2041.19 497.181 1902 490.781 1836.73Z" fill="#009393"/>
<path d="M180.014 2019.76C264.033 2031.72 354.156 1998.53 377.112 1982.36L283.163 2095.13L255.106 2231.32L218.547 2183.65C207.494 2170.22 182.197 2152.64 159.457 2161.52C130.055 2173 129.609 2193.15 128.693 2209.67V2346.52H0.390137V2170.22C5.52225 2016.09 116.841 2010.76 180.014 2019.76Z" fill="url(#paint1_linear)"/>
<defs>
<linearGradient id="paint0_linear" x1="493.13" y1="96.8166" x2="667.246" y2="96.8166" gradientUnits="userSpaceOnUse">
<stop stop-color="#00D7D7"/>
<stop offset="1" stop-color="#00D7D7" stop-opacity="0"/>
</linearGradient>
<linearGradient id="paint1_linear" x1="69.6694" y1="2218.46" x2="64.9787" y2="2346.52" gradientUnits="userSpaceOnUse">
<stop stop-color="#00D7D7"/>
<stop offset="1" stop-color="#00D7D7" stop-opacity="0"/>
</linearGradient>
</defs>
</svg>
