<svg width="1920" height="1598" viewBox="0 0 1920 1598" fill="none" xmlns="http://www.w3.org/2000/svg">
<g clip-path="url(#clip0)">
<path d="M517.94 1941.22H453.557C424.584 1899.46 430.754 1830.13 437.461 1800.69C450.338 1746.08 504.526 1737.78 530.011 1740.46H558.179C629 1740.46 716.453 1670.86 751.327 1636.06C796.395 1594.3 829.123 1618.66 839.853 1636.06C884.921 1693.88 850.584 1740.46 827.781 1756.52C760.18 1791.85 654.753 1822.1 610.49 1832.81C587.956 1839.23 587.687 1862.25 590.37 1872.96C596.808 1901.87 622.561 1933.19 634.633 1945.24C656.234 1966.79 699.961 1953 735.901 1945.24L867.064 1908.57C870.528 1907.6 874.265 1908.55 876.707 1911.2C915.672 1953.39 932.404 2021.02 932.404 2045.62C942.061 2129.14 850.584 2152.7 803.638 2154.04C684.53 2166.88 606.466 2052.31 582.322 1993.42C564.214 1949.25 546.107 1941.22 517.94 1941.22Z" fill="#0F43EC"/>
<path d="M2267.99 1619.26C2281.68 1639.34 2266.87 1657.37 2257.76 1663.87C2242.45 1636.39 2210.03 1642.97 2194.31 1647.24C2152.32 1658.67 2143.41 1699.38 2141.19 1722.19C2141.04 1723.77 2139.2 1724.58 2137.94 1723.61L2114.6 1705.72C2097.43 1693.21 2087.27 1701.15 2084.34 1706.68C2077.3 1719.96 2081.99 1730.84 2085.22 1734.62L2102.04 1750.4C2111.26 1761.76 2103.51 1796.97 2087.66 1811.46C2007.48 1869.95 1929.65 1825.81 1900.75 1796.43C1879.55 1774.73 1864.6 1773.2 1846.46 1774.85C1814.86 1777.72 1799.39 1774.37 1792.4 1760.25C1784.45 1744.19 1799.22 1729.74 1807.44 1720.15C1836.22 1686.61 1909.52 1681.17 1943.76 1683.18C1982.93 1683.8 2003.14 1659.16 2014.38 1631.99C2038.62 1573.42 2093.05 1554.91 2130.3 1553.72C2229.24 1554.11 2251.04 1590.01 2249.59 1609.75C2249.48 1611.22 2250.81 1612.5 2252.27 1612.41C2260 1611.96 2265.85 1616.58 2267.99 1619.26Z" fill="#0F43EC"/>
<path fill-rule="evenodd" clip-rule="evenodd" d="M666.334 1006.9C665.231 1006.9 664.33 1006 664.394 1004.9C665.428 987.122 680.16 973.025 698.182 973.025H1154.67C1172.69 973.025 1187.42 987.122 1188.46 1004.9C1188.52 1006 1187.62 1006.9 1186.52 1006.9L944.913 1006.9C943.809 1006.9 942.915 1007.79 942.915 1008.9V1398.36C942.915 1399.46 942.02 1400.36 940.916 1400.36H909.331C908.228 1400.36 907.333 1399.46 907.333 1398.36V1008.9C907.333 1007.79 906.438 1006.9 905.335 1006.9H666.334ZM906.765 1400.36C906.531 1400.36 906.298 1400.4 906.078 1400.48L823.595 1430.72C822.807 1431.01 822.284 1431.76 822.284 1432.6V1447C822.284 1448.1 823.178 1449 824.282 1449H1024.23C1025.33 1449 1026.23 1448.1 1026.23 1447V1432.6C1026.23 1431.76 1025.7 1431.01 1024.92 1430.72L942.434 1400.48C942.214 1400.4 941.981 1400.36 941.746 1400.36H924.256H906.765Z" fill="url(#paint0_linear)"/>
<path fill-rule="evenodd" clip-rule="evenodd" d="M210.207 839H130.107L81.1079 1173.48H-168.998V1233.91C-168.998 1243.28 -164.056 1262 -144.286 1262H210.207H210.209H564.701C584.471 1262 589.413 1243.28 589.413 1233.91V1173.48H339.307L290.309 839H210.209H210.207Z" fill="url(#paint1_linear)"/>
<path fill-rule="evenodd" clip-rule="evenodd" d="M-154.689 1261.88H206.841H206.844H568.374V1451.16H206.844H206.841H-154.689V1261.88Z" fill="url(#paint2_linear)"/>
<mask id="mask0" style="mask-type:alpha" maskUnits="userSpaceOnUse" x="209" y="839" width="380" height="423">
<path d="M289.678 839H209.686V1261.77H563.693C583.435 1261.77 588.371 1243.05 588.371 1233.7V1173.3H338.609L289.678 839Z" fill="#1E2F93"/>
</mask>
<g mask="url(#mask0)">
<path fill-rule="evenodd" clip-rule="evenodd" d="M-131.04 1188.28L506.783 550.709L507.385 551.31L-130.438 1188.88L-131.04 1188.28Z" fill="#0A0555"/>
<path fill-rule="evenodd" clip-rule="evenodd" d="M105.19 1424.42L743.014 786.846L743.615 787.447L105.792 1425.02L105.19 1424.42Z" fill="#0A0555"/>
<path fill-rule="evenodd" clip-rule="evenodd" d="M-12.9248 1306.35L624.898 668.776L625.5 669.378L-12.3231 1306.95L-12.9248 1306.35Z" fill="#0A0555"/>
<path fill-rule="evenodd" clip-rule="evenodd" d="M223.306 1542.48L861.129 904.914L861.731 905.516L223.908 1543.09L223.306 1542.48Z" fill="#0A0555"/>
<path fill-rule="evenodd" clip-rule="evenodd" d="M-249.157 1070.21L388.666 432.64L389.268 433.241L-248.556 1070.81L-249.157 1070.21Z" fill="#0A0555"/>
<path fill-rule="evenodd" clip-rule="evenodd" d="M-71.9833 1247.31L565.84 609.743L566.442 610.345L-71.3816 1247.91L-71.9833 1247.31Z" fill="#0A0555"/>
<path fill-rule="evenodd" clip-rule="evenodd" d="M164.247 1483.45L802.07 845.88L802.672 846.481L164.849 1484.05L164.247 1483.45Z" fill="#0A0555"/>
<path fill-rule="evenodd" clip-rule="evenodd" d="M-308.214 1011.18L329.609 373.606L330.211 374.208L-307.612 1011.78L-308.214 1011.18Z" fill="#0A0555"/>
<path fill-rule="evenodd" clip-rule="evenodd" d="M46.1318 1365.38L683.955 727.812L684.557 728.413L46.7335 1365.98L46.1318 1365.38Z" fill="#0A0555"/>
<path fill-rule="evenodd" clip-rule="evenodd" d="M282.362 1601.52L920.186 963.948L920.787 964.55L282.964 1602.12L282.362 1601.52Z" fill="#0A0555"/>
<path fill-rule="evenodd" clip-rule="evenodd" d="M-190.099 1129.24L447.725 491.674L448.326 492.275L-189.497 1129.84L-190.099 1129.24Z" fill="#0A0555"/>
<path fill-rule="evenodd" clip-rule="evenodd" d="M-119.229 1200.09L518.594 562.516L519.195 563.117L-118.628 1200.69L-119.229 1200.09Z" fill="#0A0555"/>
<path fill-rule="evenodd" clip-rule="evenodd" d="M117.003 1436.22L754.826 798.652L755.428 799.254L117.604 1436.82L117.003 1436.22Z" fill="#0A0555"/>
<path fill-rule="evenodd" clip-rule="evenodd" d="M-1.11427 1318.15L636.709 680.584L637.311 681.185L-0.512537 1318.76L-1.11427 1318.15Z" fill="#0A0555"/>
<path fill-rule="evenodd" clip-rule="evenodd" d="M235.116 1554.29L872.939 916.721L873.541 917.322L235.718 1554.89L235.116 1554.29Z" fill="#0A0555"/>
<path fill-rule="evenodd" clip-rule="evenodd" d="M-237.345 1082.02L400.479 444.446L401.08 445.048L-236.743 1082.62L-237.345 1082.02Z" fill="#0A0555"/>
<path fill-rule="evenodd" clip-rule="evenodd" d="M-60.1708 1259.12L577.652 621.55L578.254 622.151L-59.5691 1259.72L-60.1708 1259.12Z" fill="#0A0555"/>
<path fill-rule="evenodd" clip-rule="evenodd" d="M176.059 1495.26L813.883 857.687L814.485 858.288L176.661 1495.86L176.059 1495.26Z" fill="#0A0555"/>
<path fill-rule="evenodd" clip-rule="evenodd" d="M-296.403 1022.98L341.42 385.413L342.022 386.015L-295.802 1023.58L-296.403 1022.98Z" fill="#0A0555"/>
<path fill-rule="evenodd" clip-rule="evenodd" d="M57.9441 1377.19L695.768 739.618L696.369 740.22L58.5459 1377.79L57.9441 1377.19Z" fill="#0A0555"/>
<path fill-rule="evenodd" clip-rule="evenodd" d="M294.175 1613.32L931.998 975.755L932.6 976.356L294.777 1613.93L294.175 1613.32Z" fill="#0A0555"/>
<path fill-rule="evenodd" clip-rule="evenodd" d="M-178.288 1141.05L459.535 503.481L460.137 504.083L-177.686 1141.65L-178.288 1141.05Z" fill="#0A0555"/>
<path fill-rule="evenodd" clip-rule="evenodd" d="M-107.417 1211.89L530.406 574.322L531.008 574.924L-106.815 1212.49L-107.417 1211.89Z" fill="#0A0555"/>
<path fill-rule="evenodd" clip-rule="evenodd" d="M128.813 1448.03L766.637 810.459L767.238 811.06L129.415 1448.63L128.813 1448.03Z" fill="#0A0555"/>
<path fill-rule="evenodd" clip-rule="evenodd" d="M10.6981 1329.96L648.521 692.391L649.123 692.992L11.2998 1330.56L10.6981 1329.96Z" fill="#0A0555"/>
<path fill-rule="evenodd" clip-rule="evenodd" d="M246.929 1566.1L884.752 928.527L885.354 929.129L247.53 1566.7L246.929 1566.1Z" fill="#0A0555"/>
<path fill-rule="evenodd" clip-rule="evenodd" d="M-225.534 1093.82L412.289 456.254L412.891 456.855L-224.932 1094.42L-225.534 1093.82Z" fill="#0A0555"/>
<path fill-rule="evenodd" clip-rule="evenodd" d="M-48.3603 1270.93L589.463 633.356L590.065 633.958L-47.7586 1271.53L-48.3603 1270.93Z" fill="#0A0555"/>
<path fill-rule="evenodd" clip-rule="evenodd" d="M187.87 1507.06L825.693 869.493L826.295 870.095L188.472 1507.66L187.87 1507.06Z" fill="#0A0555"/>
<path fill-rule="evenodd" clip-rule="evenodd" d="M-284.591 1034.79L353.232 397.219L353.834 397.82L-283.989 1035.39L-284.591 1034.79Z" fill="#0A0555"/>
<path fill-rule="evenodd" clip-rule="evenodd" d="M69.7548 1388.99L707.578 751.425L708.18 752.026L70.3565 1389.6L69.7548 1388.99Z" fill="#0A0555"/>
<path fill-rule="evenodd" clip-rule="evenodd" d="M305.985 1625.13L943.809 987.562L944.41 988.163L306.587 1625.73L305.985 1625.13Z" fill="#0A0555"/>
<path fill-rule="evenodd" clip-rule="evenodd" d="M-166.476 1152.86L471.348 515.288L471.949 515.89L-165.874 1153.46L-166.476 1152.86Z" fill="#0A0555"/>
<path fill-rule="evenodd" clip-rule="evenodd" d="M-95.6065 1223.7L542.217 586.129L542.819 586.73L-95.0047 1224.3L-95.6065 1223.7Z" fill="#0A0555"/>
<path fill-rule="evenodd" clip-rule="evenodd" d="M140.624 1459.84L778.447 822.266L779.049 822.867L141.226 1460.44L140.624 1459.84Z" fill="#0A0555"/>
<path fill-rule="evenodd" clip-rule="evenodd" d="M-331.837 987.561L305.986 349.991L306.588 350.593L-331.235 988.162L-331.837 987.561Z" fill="#0A0555"/>
<path fill-rule="evenodd" clip-rule="evenodd" d="M22.5089 1341.77L660.332 704.197L660.934 704.799L23.1106 1342.37L22.5089 1341.77Z" fill="#0A0555"/>
<path fill-rule="evenodd" clip-rule="evenodd" d="M258.739 1577.9L896.562 940.334L897.164 940.935L259.341 1578.51L258.739 1577.9Z" fill="#0A0555"/>
<path fill-rule="evenodd" clip-rule="evenodd" d="M-213.722 1105.63L424.102 468.061L424.703 468.662L-213.12 1106.23L-213.722 1105.63Z" fill="#0A0555"/>
<path fill-rule="evenodd" clip-rule="evenodd" d="M-36.5496 1282.73L601.273 645.163L601.875 645.765L-35.9479 1283.33L-36.5496 1282.73Z" fill="#0A0555"/>
<path fill-rule="evenodd" clip-rule="evenodd" d="M199.683 1518.87L837.506 881.3L838.108 881.901L200.285 1519.47L199.683 1518.87Z" fill="#0A0555"/>
<path fill-rule="evenodd" clip-rule="evenodd" d="M-272.78 1046.6L365.043 409.026L365.645 409.628L-272.178 1047.2L-272.78 1046.6Z" fill="#0A0555"/>
<path fill-rule="evenodd" clip-rule="evenodd" d="M81.5675 1400.8L719.391 763.231L719.992 763.833L82.1693 1401.4L81.5675 1400.8Z" fill="#0A0555"/>
<path fill-rule="evenodd" clip-rule="evenodd" d="M317.798 1636.94L955.621 999.368L956.223 999.97L318.4 1637.54L317.798 1636.94Z" fill="#0A0555"/>
<path fill-rule="evenodd" clip-rule="evenodd" d="M-154.663 1164.66L483.16 527.095L483.762 527.696L-154.061 1165.27L-154.663 1164.66Z" fill="#0A0555"/>
<path fill-rule="evenodd" clip-rule="evenodd" d="M-83.7941 1235.5L554.029 597.936L554.631 598.537L-83.1923 1236.11L-83.7941 1235.5Z" fill="#0A0555"/>
<path fill-rule="evenodd" clip-rule="evenodd" d="M152.437 1471.64L790.26 834.073L790.861 834.675L153.038 1472.24L152.437 1471.64Z" fill="#0A0555"/>
<path fill-rule="evenodd" clip-rule="evenodd" d="M-320.026 999.368L317.797 361.799L318.399 362.4L-319.425 999.97L-320.026 999.368Z" fill="#0A0555"/>
<path fill-rule="evenodd" clip-rule="evenodd" d="M34.3194 1353.57L672.143 716.005L672.744 716.606L34.9212 1354.18L34.3194 1353.57Z" fill="#0A0555"/>
<path fill-rule="evenodd" clip-rule="evenodd" d="M270.552 1589.71L908.375 952.142L908.977 952.743L271.153 1590.31L270.552 1589.71Z" fill="#0A0555"/>
<path fill-rule="evenodd" clip-rule="evenodd" d="M-201.911 1117.44L435.912 479.867L436.514 480.469L-201.309 1118.04L-201.911 1117.44Z" fill="#0A0555"/>
<path fill-rule="evenodd" clip-rule="evenodd" d="M-24.7373 1294.54L613.086 656.97L613.688 657.571L-24.1356 1295.14L-24.7373 1294.54Z" fill="#0A0555"/>
<path fill-rule="evenodd" clip-rule="evenodd" d="M211.493 1530.68L849.316 893.107L849.918 893.709L212.095 1531.28L211.493 1530.68Z" fill="#0A0555"/>
<path fill-rule="evenodd" clip-rule="evenodd" d="M-260.968 1058.4L376.855 420.833L377.457 421.435L-260.366 1059L-260.968 1058.4Z" fill="#0A0555"/>
<path fill-rule="evenodd" clip-rule="evenodd" d="M93.3781 1412.61L731.201 775.038L731.803 775.64L93.9798 1413.21L93.3781 1412.61Z" fill="#0A0555"/>
<path fill-rule="evenodd" clip-rule="evenodd" d="M329.609 1648.74L967.432 1011.17L968.033 1011.78L330.21 1649.35L329.609 1648.74Z" fill="#0A0555"/>
<path fill-rule="evenodd" clip-rule="evenodd" d="M-142.852 1176.47L494.971 538.901L495.572 539.503L-142.251 1177.07L-142.852 1176.47Z" fill="#0A0555"/>
<path fill-rule="evenodd" clip-rule="evenodd" d="M-12.3251 668.777L649.121 1329.96L648.519 1330.56L-12.9269 669.378L-12.3251 668.777Z" fill="#0A0555"/>
<path fill-rule="evenodd" clip-rule="evenodd" d="M-248.556 904.914L412.891 1566.1L412.289 1566.7L-249.157 905.516L-248.556 904.914Z" fill="#0A0555"/>
<path fill-rule="evenodd" clip-rule="evenodd" d="M223.907 432.641L885.354 1093.82L884.752 1094.43L223.305 433.242L223.907 432.641Z" fill="#0A0555"/>
<path fill-rule="evenodd" clip-rule="evenodd" d="M-130.44 786.845L531.006 1448.03L530.404 1448.63L-131.042 787.447L-130.44 786.845Z" fill="#0A0555"/>
<path fill-rule="evenodd" clip-rule="evenodd" d="M105.792 550.708L767.238 1211.89L766.637 1212.49L105.19 551.31L105.792 550.708Z" fill="#0A0555"/>
<path fill-rule="evenodd" clip-rule="evenodd" d="M-71.382 727.811L590.064 1388.99L589.463 1389.6L-71.9837 728.412L-71.382 727.811Z" fill="#0A0555"/>
<path fill-rule="evenodd" clip-rule="evenodd" d="M-307.612 963.948L353.834 1625.13L353.232 1625.73L-308.214 964.55L-307.612 963.948Z" fill="#0A0555"/>
<path fill-rule="evenodd" clip-rule="evenodd" d="M164.849 491.675L826.295 1152.86L825.693 1153.46L164.247 492.276L164.849 491.675Z" fill="#0A0555"/>
<path fill-rule="evenodd" clip-rule="evenodd" d="M-189.497 845.879L471.949 1507.06L471.347 1507.66L-190.099 846.481L-189.497 845.879Z" fill="#0A0555"/>
<path fill-rule="evenodd" clip-rule="evenodd" d="M282.964 373.606L944.41 1034.79L943.808 1035.39L282.362 374.207L282.964 373.606Z" fill="#0A0555"/>
<path fill-rule="evenodd" clip-rule="evenodd" d="M46.7334 609.743L708.18 1270.93L707.578 1271.53L46.1317 610.345L46.7334 609.743Z" fill="#0A0555"/>
<path fill-rule="evenodd" clip-rule="evenodd" d="M-24.136 680.584L637.311 1341.77L636.709 1342.37L-24.7377 681.186L-24.136 680.584Z" fill="#0A0555"/>
<path fill-rule="evenodd" clip-rule="evenodd" d="M-260.366 916.721L401.08 1577.9L400.478 1578.51L-260.968 917.322L-260.366 916.721Z" fill="#0A0555"/>
<path fill-rule="evenodd" clip-rule="evenodd" d="M212.095 444.446L873.541 1105.63L872.939 1106.23L211.493 445.048L212.095 444.446Z" fill="#0A0555"/>
<path fill-rule="evenodd" clip-rule="evenodd" d="M-142.251 798.652L519.195 1459.83L518.594 1460.44L-142.853 799.253L-142.251 798.652Z" fill="#0A0555"/>
<path fill-rule="evenodd" clip-rule="evenodd" d="M93.9794 562.515L755.426 1223.7L754.824 1224.3L93.3776 563.116L93.9794 562.515Z" fill="#0A0555"/>
<path fill-rule="evenodd" clip-rule="evenodd" d="M-83.1942 739.617L578.252 1400.8L577.65 1401.4L-83.796 740.219L-83.1942 739.617Z" fill="#0A0555"/>
<path fill-rule="evenodd" clip-rule="evenodd" d="M-319.425 975.754L342.021 1636.94L341.42 1637.54L-320.027 976.356L-319.425 975.754Z" fill="#0A0555"/>
<path fill-rule="evenodd" clip-rule="evenodd" d="M153.038 503.482L814.484 1164.67L813.883 1165.27L152.436 504.083L153.038 503.482Z" fill="#0A0555"/>
<path fill-rule="evenodd" clip-rule="evenodd" d="M-201.31 857.687L460.137 1518.87L459.535 1519.47L-201.911 858.288L-201.31 857.687Z" fill="#0A0555"/>
<path fill-rule="evenodd" clip-rule="evenodd" d="M271.153 385.413L932.6 1046.6L931.998 1047.2L270.552 386.015L271.153 385.413Z" fill="#0A0555"/>
<path fill-rule="evenodd" clip-rule="evenodd" d="M34.9229 621.55L696.369 1282.73L695.767 1283.33L34.3212 622.151L34.9229 621.55Z" fill="#0A0555"/>
<path fill-rule="evenodd" clip-rule="evenodd" d="M-35.9481 692.391L625.498 1353.57L624.896 1354.18L-36.5499 692.992L-35.9481 692.391Z" fill="#0A0555"/>
<path fill-rule="evenodd" clip-rule="evenodd" d="M-272.179 928.528L389.268 1589.71L388.666 1590.31L-272.78 929.129L-272.179 928.528Z" fill="#0A0555"/>
<path fill-rule="evenodd" clip-rule="evenodd" d="M200.284 456.254L861.73 1117.44L861.129 1118.04L199.683 456.855L200.284 456.254Z" fill="#0A0555"/>
<path fill-rule="evenodd" clip-rule="evenodd" d="M-154.064 810.458L507.383 1471.64L506.781 1472.24L-154.665 811.06L-154.064 810.458Z" fill="#0A0555"/>
<path fill-rule="evenodd" clip-rule="evenodd" d="M82.1691 574.323L743.615 1235.51L743.014 1236.11L81.5674 574.924L82.1691 574.323Z" fill="#0A0555"/>
<path fill-rule="evenodd" clip-rule="evenodd" d="M-95.0046 751.425L566.441 1412.61L565.84 1413.21L-95.6063 752.027L-95.0046 751.425Z" fill="#0A0555"/>
<path fill-rule="evenodd" clip-rule="evenodd" d="M-331.235 987.562L330.211 1648.75L329.609 1649.35L-331.837 988.163L-331.235 987.562Z" fill="#0A0555"/>
<path fill-rule="evenodd" clip-rule="evenodd" d="M141.226 515.288L802.672 1176.47L802.07 1177.07L140.624 515.89L141.226 515.288Z" fill="#0A0555"/>
<path fill-rule="evenodd" clip-rule="evenodd" d="M-213.12 869.494L448.326 1530.68L447.724 1531.28L-213.722 870.095L-213.12 869.494Z" fill="#0A0555"/>
<path fill-rule="evenodd" clip-rule="evenodd" d="M259.341 397.22L920.787 1058.4L920.185 1059L258.739 397.821L259.341 397.22Z" fill="#0A0555"/>
<path fill-rule="evenodd" clip-rule="evenodd" d="M23.1104 633.357L684.557 1294.54L683.955 1295.14L22.5087 633.958L23.1104 633.357Z" fill="#0A0555"/>
<path fill-rule="evenodd" clip-rule="evenodd" d="M-47.7588 704.198L613.688 1365.38L613.086 1365.98L-48.3605 704.799L-47.7588 704.198Z" fill="#0A0555"/>
<path fill-rule="evenodd" clip-rule="evenodd" d="M-283.989 940.334L377.457 1601.52L376.855 1602.12L-284.591 940.936L-283.989 940.334Z" fill="#0A0555"/>
<path fill-rule="evenodd" clip-rule="evenodd" d="M188.472 468.061L849.918 1129.24L849.316 1129.85L187.87 468.662L188.472 468.061Z" fill="#0A0555"/>
<path fill-rule="evenodd" clip-rule="evenodd" d="M-165.874 822.266L495.572 1483.45L494.971 1484.05L-166.476 822.867L-165.874 822.266Z" fill="#0A0555"/>
<path fill-rule="evenodd" clip-rule="evenodd" d="M306.587 349.992L968.033 1011.18L967.431 1011.78L305.985 350.594L306.587 349.992Z" fill="#0A0555"/>
<path fill-rule="evenodd" clip-rule="evenodd" d="M70.3565 586.129L731.803 1247.31L731.201 1247.91L69.7547 586.731L70.3565 586.129Z" fill="#0A0555"/>
<path fill-rule="evenodd" clip-rule="evenodd" d="M-106.817 763.232L554.629 1424.42L554.027 1425.02L-107.419 763.833L-106.817 763.232Z" fill="#0A0555"/>
<path fill-rule="evenodd" clip-rule="evenodd" d="M129.415 527.095L790.861 1188.28L790.26 1188.88L128.813 527.696L129.415 527.095Z" fill="#0A0555"/>
<path fill-rule="evenodd" clip-rule="evenodd" d="M-224.932 881.3L436.514 1542.48L435.912 1543.08L-225.534 881.902L-224.932 881.3Z" fill="#0A0555"/>
<path fill-rule="evenodd" clip-rule="evenodd" d="M247.53 409.027L908.977 1070.21L908.375 1070.81L246.929 409.628L247.53 409.027Z" fill="#0A0555"/>
<path fill-rule="evenodd" clip-rule="evenodd" d="M11.2997 645.163L672.746 1306.35L672.144 1306.95L10.698 645.765L11.2997 645.163Z" fill="#0A0555"/>
<path fill-rule="evenodd" clip-rule="evenodd" d="M-59.5714 716.004L601.875 1377.19L601.273 1377.79L-60.1732 716.605L-59.5714 716.004Z" fill="#0A0555"/>
<path fill-rule="evenodd" clip-rule="evenodd" d="M-295.802 952.141L365.645 1613.32L365.043 1613.93L-296.403 952.742L-295.802 952.141Z" fill="#0A0555"/>
<path fill-rule="evenodd" clip-rule="evenodd" d="M176.661 479.867L838.107 1141.05L837.506 1141.65L176.059 480.469L176.661 479.867Z" fill="#0A0555"/>
<path fill-rule="evenodd" clip-rule="evenodd" d="M-177.687 834.072L483.76 1495.26L483.158 1495.86L-178.288 834.674L-177.687 834.072Z" fill="#0A0555"/>
<path fill-rule="evenodd" clip-rule="evenodd" d="M294.776 361.799L956.223 1022.98L955.621 1023.58L294.175 362.401L294.776 361.799Z" fill="#0A0555"/>
<path fill-rule="evenodd" clip-rule="evenodd" d="M58.5461 597.936L719.992 1259.12L719.39 1259.72L57.9443 598.537L58.5461 597.936Z" fill="#0A0555"/>
<path fill-rule="evenodd" clip-rule="evenodd" d="M-118.628 775.038L542.818 1436.22L542.217 1436.82L-119.23 775.64L-118.628 775.038Z" fill="#0A0555"/>
<path fill-rule="evenodd" clip-rule="evenodd" d="M117.603 538.901L779.049 1200.08L778.447 1200.69L117.001 539.503L117.603 538.901Z" fill="#0A0555"/>
<path fill-rule="evenodd" clip-rule="evenodd" d="M-236.743 893.107L424.703 1554.29L424.101 1554.89L-237.345 893.708L-236.743 893.107Z" fill="#0A0555"/>
<path fill-rule="evenodd" clip-rule="evenodd" d="M235.718 420.833L897.164 1082.02L896.562 1082.62L235.116 421.435L235.718 420.833Z" fill="#0A0555"/>
<path fill-rule="evenodd" clip-rule="evenodd" d="M-0.512528 656.97L660.934 1318.15L660.332 1318.75L-1.11426 657.571L-0.512528 656.97Z" fill="#0A0555"/>
</g>
<path d="M317.76 1153.31L284.572 839C309.761 839 325.845 846.656 330.525 874.302L356.48 1102.27C359.458 1128.64 375.201 1132.47 390.945 1132.47H559.013C582.84 1132.47 588.513 1151.75 588.372 1161.39V1173.73H341.588C323.887 1173.73 318.328 1160.12 317.76 1153.31Z" fill="url(#paint3_linear)"/>
<mask id="mask1" style="mask-type:alpha" maskUnits="userSpaceOnUse" x="-169" y="839" width="379" height="423">
<path d="M129.694 839H209.686V1261.77H-144.322C-164.064 1261.77 -169 1243.05 -169 1233.7V1173.3H80.7623L129.694 839Z" fill="#1E2F93"/>
</mask>
<g mask="url(#mask1)">
<path fill-rule="evenodd" clip-rule="evenodd" d="M554.669 1188.28L-83.1543 550.709L-83.756 551.31L554.067 1188.88L554.669 1188.28Z" fill="#0A0555"/>
<path fill-rule="evenodd" clip-rule="evenodd" d="M318.437 1424.42L-319.387 786.846L-319.988 787.447L317.835 1425.02L318.437 1424.42Z" fill="#0A0555"/>
<path fill-rule="evenodd" clip-rule="evenodd" d="M436.552 1306.35L-201.271 668.776L-201.873 669.378L435.95 1306.95L436.552 1306.35Z" fill="#0A0555"/>
<path fill-rule="evenodd" clip-rule="evenodd" d="M200.321 1542.48L-437.502 904.913L-438.104 905.515L199.72 1543.08L200.321 1542.48Z" fill="#0A0555"/>
<path fill-rule="evenodd" clip-rule="evenodd" d="M672.784 1070.21L34.9609 432.64L34.3592 433.241L672.182 1070.81L672.784 1070.21Z" fill="#0A0555"/>
<path fill-rule="evenodd" clip-rule="evenodd" d="M495.61 1247.31L-142.213 609.743L-142.815 610.345L495.009 1247.91L495.61 1247.31Z" fill="#0A0555"/>
<path fill-rule="evenodd" clip-rule="evenodd" d="M259.38 1483.45L-378.443 845.88L-379.045 846.481L258.778 1484.05L259.38 1483.45Z" fill="#0A0555"/>
<path fill-rule="evenodd" clip-rule="evenodd" d="M731.841 1011.18L94.0176 373.605L93.4158 374.207L731.239 1011.78L731.841 1011.18Z" fill="#0A0555"/>
<path fill-rule="evenodd" clip-rule="evenodd" d="M377.495 1365.38L-260.328 727.812L-260.93 728.413L376.894 1365.98L377.495 1365.38Z" fill="#0A0555"/>
<path fill-rule="evenodd" clip-rule="evenodd" d="M141.265 1601.52L-496.559 963.948L-497.16 964.55L140.663 1602.12L141.265 1601.52Z" fill="#0A0555"/>
<path fill-rule="evenodd" clip-rule="evenodd" d="M613.726 1129.24L-24.0977 491.674L-24.6994 492.275L613.124 1129.85L613.726 1129.24Z" fill="#0A0555"/>
<path fill-rule="evenodd" clip-rule="evenodd" d="M542.857 1200.08L-94.9668 562.515L-95.5685 563.116L542.255 1200.69L542.857 1200.08Z" fill="#0A0555"/>
<path fill-rule="evenodd" clip-rule="evenodd" d="M306.624 1436.22L-331.199 798.652L-331.801 799.254L306.022 1436.82L306.624 1436.22Z" fill="#0A0555"/>
<path fill-rule="evenodd" clip-rule="evenodd" d="M424.741 1318.15L-213.082 680.584L-213.684 681.185L424.14 1318.76L424.741 1318.15Z" fill="#0A0555"/>
<path fill-rule="evenodd" clip-rule="evenodd" d="M188.511 1554.29L-449.312 916.721L-449.914 917.322L187.909 1554.89L188.511 1554.29Z" fill="#0A0555"/>
<path fill-rule="evenodd" clip-rule="evenodd" d="M660.972 1082.02L23.1484 444.446L22.5467 445.048L660.37 1082.62L660.972 1082.02Z" fill="#0A0555"/>
<path fill-rule="evenodd" clip-rule="evenodd" d="M483.798 1259.12L-154.025 621.55L-154.627 622.151L483.196 1259.72L483.798 1259.12Z" fill="#0A0555"/>
<path fill-rule="evenodd" clip-rule="evenodd" d="M247.567 1495.26L-390.256 857.687L-390.858 858.288L246.966 1495.86L247.567 1495.26Z" fill="#0A0555"/>
<path fill-rule="evenodd" clip-rule="evenodd" d="M720.03 1022.98L82.207 385.413L81.6053 386.015L719.429 1023.58L720.03 1022.98Z" fill="#0A0555"/>
<path fill-rule="evenodd" clip-rule="evenodd" d="M365.683 1377.19L-272.141 739.617L-272.742 740.219L365.081 1377.79L365.683 1377.19Z" fill="#0A0555"/>
<path fill-rule="evenodd" clip-rule="evenodd" d="M129.452 1613.32L-508.371 975.755L-508.973 976.356L128.85 1613.93L129.452 1613.32Z" fill="#0A0555"/>
<path fill-rule="evenodd" clip-rule="evenodd" d="M601.915 1141.05L-35.9082 503.481L-36.5099 504.083L601.313 1141.65L601.915 1141.05Z" fill="#0A0555"/>
<path fill-rule="evenodd" clip-rule="evenodd" d="M531.044 1211.89L-106.779 574.322L-107.381 574.924L530.442 1212.49L531.044 1211.89Z" fill="#0A0555"/>
<path fill-rule="evenodd" clip-rule="evenodd" d="M294.814 1448.03L-343.01 810.459L-343.611 811.06L294.212 1448.63L294.814 1448.03Z" fill="#0A0555"/>
<path fill-rule="evenodd" clip-rule="evenodd" d="M412.929 1329.96L-224.895 692.391L-225.496 692.992L412.327 1330.56L412.929 1329.96Z" fill="#0A0555"/>
<path fill-rule="evenodd" clip-rule="evenodd" d="M176.698 1566.1L-461.125 928.527L-461.727 929.129L176.097 1566.7L176.698 1566.1Z" fill="#0A0555"/>
<path fill-rule="evenodd" clip-rule="evenodd" d="M649.161 1093.82L11.3379 456.254L10.7362 456.855L648.56 1094.42L649.161 1093.82Z" fill="#0A0555"/>
<path fill-rule="evenodd" clip-rule="evenodd" d="M471.987 1270.93L-165.836 633.356L-166.438 633.958L471.386 1271.53L471.987 1270.93Z" fill="#0A0555"/>
<path fill-rule="evenodd" clip-rule="evenodd" d="M235.757 1507.06L-402.066 869.493L-402.668 870.095L235.155 1507.66L235.757 1507.06Z" fill="#0A0555"/>
<path fill-rule="evenodd" clip-rule="evenodd" d="M708.218 1034.79L70.3945 397.219L69.7928 397.82L707.616 1035.39L708.218 1034.79Z" fill="#0A0555"/>
<path fill-rule="evenodd" clip-rule="evenodd" d="M353.872 1388.99L-283.951 751.425L-284.553 752.026L353.27 1389.6L353.872 1388.99Z" fill="#0A0555"/>
<path fill-rule="evenodd" clip-rule="evenodd" d="M117.642 1625.13L-520.182 987.562L-520.783 988.163L117.04 1625.73L117.642 1625.13Z" fill="#0A0555"/>
<path fill-rule="evenodd" clip-rule="evenodd" d="M590.103 1152.86L-47.7207 515.288L-48.3224 515.89L589.501 1153.46L590.103 1152.86Z" fill="#0A0555"/>
<path fill-rule="evenodd" clip-rule="evenodd" d="M519.233 1223.7L-118.59 586.129L-119.192 586.73L518.632 1224.3L519.233 1223.7Z" fill="#0A0555"/>
<path fill-rule="evenodd" clip-rule="evenodd" d="M283.003 1459.84L-354.82 822.266L-355.422 822.867L282.401 1460.44L283.003 1459.84Z" fill="#0A0555"/>
<path fill-rule="evenodd" clip-rule="evenodd" d="M755.464 987.561L117.641 349.991L117.039 350.593L754.862 988.162L755.464 987.561Z" fill="#0A0555"/>
<path fill-rule="evenodd" clip-rule="evenodd" d="M401.118 1341.77L-236.705 704.197L-237.307 704.799L400.517 1342.37L401.118 1341.77Z" fill="#0A0555"/>
<path fill-rule="evenodd" clip-rule="evenodd" d="M164.888 1577.9L-472.936 940.334L-473.537 940.935L164.286 1578.51L164.888 1577.9Z" fill="#0A0555"/>
<path fill-rule="evenodd" clip-rule="evenodd" d="M637.348 1105.63L-0.474609 468.061L-1.07634 468.662L636.747 1106.23L637.348 1105.63Z" fill="#0A0555"/>
<path fill-rule="evenodd" clip-rule="evenodd" d="M460.175 1282.73L-177.648 645.163L-178.25 645.765L459.573 1283.33L460.175 1282.73Z" fill="#0A0555"/>
<path fill-rule="evenodd" clip-rule="evenodd" d="M223.944 1518.87L-413.879 881.3L-414.481 881.901L223.343 1519.47L223.944 1518.87Z" fill="#0A0555"/>
<path fill-rule="evenodd" clip-rule="evenodd" d="M696.407 1046.6L58.584 409.026L57.9823 409.628L695.805 1047.2L696.407 1046.6Z" fill="#0A0555"/>
<path fill-rule="evenodd" clip-rule="evenodd" d="M342.059 1400.8L-295.764 763.231L-296.365 763.833L341.458 1401.4L342.059 1400.8Z" fill="#0A0555"/>
<path fill-rule="evenodd" clip-rule="evenodd" d="M105.829 1636.94L-531.994 999.368L-532.596 999.97L105.227 1637.54L105.829 1636.94Z" fill="#0A0555"/>
<path fill-rule="evenodd" clip-rule="evenodd" d="M578.29 1164.66L-59.5332 527.095L-60.1349 527.696L577.688 1165.27L578.29 1164.66Z" fill="#0A0555"/>
<path fill-rule="evenodd" clip-rule="evenodd" d="M507.421 1235.51L-130.402 597.936L-131.004 598.537L506.819 1236.11L507.421 1235.51Z" fill="#0A0555"/>
<path fill-rule="evenodd" clip-rule="evenodd" d="M271.19 1471.64L-366.633 834.072L-367.235 834.674L270.589 1472.24L271.19 1471.64Z" fill="#0A0555"/>
<path fill-rule="evenodd" clip-rule="evenodd" d="M743.653 999.368L105.83 361.799L105.228 362.4L743.052 999.97L743.653 999.368Z" fill="#0A0555"/>
<path fill-rule="evenodd" clip-rule="evenodd" d="M389.306 1353.57L-248.518 716.004L-249.119 716.605L388.704 1354.18L389.306 1353.57Z" fill="#0A0555"/>
<path fill-rule="evenodd" clip-rule="evenodd" d="M153.075 1589.71L-484.748 952.141L-485.35 952.742L152.474 1590.31L153.075 1589.71Z" fill="#0A0555"/>
<path fill-rule="evenodd" clip-rule="evenodd" d="M625.538 1117.44L-12.2852 479.867L-12.8869 480.469L624.937 1118.04L625.538 1117.44Z" fill="#0A0555"/>
<path fill-rule="evenodd" clip-rule="evenodd" d="M448.364 1294.54L-189.459 656.97L-190.061 657.571L447.763 1295.14L448.364 1294.54Z" fill="#0A0555"/>
<path fill-rule="evenodd" clip-rule="evenodd" d="M212.134 1530.68L-425.689 893.107L-426.291 893.709L211.532 1531.28L212.134 1530.68Z" fill="#0A0555"/>
<path fill-rule="evenodd" clip-rule="evenodd" d="M684.595 1058.4L46.7715 420.833L46.1698 421.435L683.993 1059L684.595 1058.4Z" fill="#0A0555"/>
<path fill-rule="evenodd" clip-rule="evenodd" d="M330.249 1412.61L-307.574 775.038L-308.176 775.64L329.647 1413.21L330.249 1412.61Z" fill="#0A0555"/>
<path fill-rule="evenodd" clip-rule="evenodd" d="M94.0188 1648.74L-543.805 1011.17L-544.406 1011.78L93.417 1649.35L94.0188 1648.74Z" fill="#0A0555"/>
<path fill-rule="evenodd" clip-rule="evenodd" d="M566.48 1176.47L-71.3438 538.901L-71.9455 539.503L565.878 1177.07L566.48 1176.47Z" fill="#0A0555"/>
<path fill-rule="evenodd" clip-rule="evenodd" d="M435.952 668.777L-225.494 1329.96L-224.892 1330.56L436.554 669.378L435.952 668.777Z" fill="#0A0555"/>
<path fill-rule="evenodd" clip-rule="evenodd" d="M672.183 904.914L10.7363 1566.1L11.3381 1566.7L672.784 905.516L672.183 904.914Z" fill="#0A0555"/>
<path fill-rule="evenodd" clip-rule="evenodd" d="M199.72 432.641L-461.727 1093.82L-461.125 1094.43L200.321 433.242L199.72 432.641Z" fill="#0A0555"/>
<path fill-rule="evenodd" clip-rule="evenodd" d="M554.067 786.845L-107.379 1448.03L-106.777 1448.63L554.669 787.447L554.067 786.845Z" fill="#0A0555"/>
<path fill-rule="evenodd" clip-rule="evenodd" d="M317.835 550.708L-343.611 1211.89L-343.01 1212.49L318.437 551.31L317.835 550.708Z" fill="#0A0555"/>
<path fill-rule="evenodd" clip-rule="evenodd" d="M495.009 727.812L-166.438 1389L-165.836 1389.6L495.611 728.413L495.009 727.812Z" fill="#0A0555"/>
<path fill-rule="evenodd" clip-rule="evenodd" d="M731.239 963.949L69.793 1625.13L70.3947 1625.73L731.841 964.55L731.239 963.949Z" fill="#0A0555"/>
<path fill-rule="evenodd" clip-rule="evenodd" d="M258.776 491.675L-402.67 1152.86L-402.068 1153.46L259.378 492.276L258.776 491.675Z" fill="#0A0555"/>
<path fill-rule="evenodd" clip-rule="evenodd" d="M613.124 845.879L-48.3223 1507.06L-47.7205 1507.66L613.726 846.481L613.124 845.879Z" fill="#0A0555"/>
<path fill-rule="evenodd" clip-rule="evenodd" d="M140.663 373.607L-520.783 1034.79L-520.181 1035.39L141.265 374.208L140.663 373.607Z" fill="#0A0555"/>
<path fill-rule="evenodd" clip-rule="evenodd" d="M376.894 609.743L-284.553 1270.93L-283.951 1271.53L377.495 610.345L376.894 609.743Z" fill="#0A0555"/>
<path fill-rule="evenodd" clip-rule="evenodd" d="M447.763 680.584L-213.684 1341.77L-213.082 1342.37L448.364 681.186L447.763 680.584Z" fill="#0A0555"/>
<path fill-rule="evenodd" clip-rule="evenodd" d="M683.993 916.721L22.5469 1577.9L23.1486 1578.51L684.595 917.322L683.993 916.721Z" fill="#0A0555"/>
<path fill-rule="evenodd" clip-rule="evenodd" d="M211.532 444.447L-449.914 1105.63L-449.312 1106.23L212.134 445.048L211.532 444.447Z" fill="#0A0555"/>
<path fill-rule="evenodd" clip-rule="evenodd" d="M565.878 798.652L-95.5684 1459.83L-94.9666 1460.44L566.48 799.253L565.878 798.652Z" fill="#0A0555"/>
<path fill-rule="evenodd" clip-rule="evenodd" d="M329.646 562.516L-331.801 1223.7L-331.199 1224.3L330.247 563.117L329.646 562.516Z" fill="#0A0555"/>
<path fill-rule="evenodd" clip-rule="evenodd" d="M506.821 739.618L-154.625 1400.8L-154.023 1401.4L507.423 740.22L506.821 739.618Z" fill="#0A0555"/>
<path fill-rule="evenodd" clip-rule="evenodd" d="M743.052 975.755L81.6055 1636.94L82.2072 1637.54L743.654 976.357L743.052 975.755Z" fill="#0A0555"/>
<path fill-rule="evenodd" clip-rule="evenodd" d="M270.589 503.482L-390.857 1164.67L-390.256 1165.27L271.191 504.083L270.589 503.482Z" fill="#0A0555"/>
<path fill-rule="evenodd" clip-rule="evenodd" d="M624.937 857.687L-36.5098 1518.87L-35.908 1519.47L625.538 858.288L624.937 857.687Z" fill="#0A0555"/>
<path fill-rule="evenodd" clip-rule="evenodd" d="M152.474 385.413L-508.973 1046.6L-508.371 1047.2L153.075 386.015L152.474 385.413Z" fill="#0A0555"/>
<path fill-rule="evenodd" clip-rule="evenodd" d="M388.704 621.55L-272.742 1282.73L-272.14 1283.33L389.306 622.151L388.704 621.55Z" fill="#0A0555"/>
<path fill-rule="evenodd" clip-rule="evenodd" d="M459.575 692.391L-201.871 1353.57L-201.269 1354.18L460.177 692.992L459.575 692.391Z" fill="#0A0555"/>
<path fill-rule="evenodd" clip-rule="evenodd" d="M695.806 928.528L34.3594 1589.71L34.9611 1590.31L696.407 929.129L695.806 928.528Z" fill="#0A0555"/>
<path fill-rule="evenodd" clip-rule="evenodd" d="M223.343 456.254L-438.104 1117.44L-437.502 1118.04L223.945 456.856L223.343 456.254Z" fill="#0A0555"/>
<path fill-rule="evenodd" clip-rule="evenodd" d="M577.69 810.459L-83.7559 1471.64L-83.1541 1472.24L578.292 811.061L577.69 810.459Z" fill="#0A0555"/>
<path fill-rule="evenodd" clip-rule="evenodd" d="M341.458 574.322L-319.988 1235.51L-319.387 1236.11L342.06 574.924L341.458 574.322Z" fill="#0A0555"/>
<path fill-rule="evenodd" clip-rule="evenodd" d="M518.632 751.425L-142.814 1412.61L-142.213 1413.21L519.234 752.027L518.632 751.425Z" fill="#0A0555"/>
<path fill-rule="evenodd" clip-rule="evenodd" d="M754.863 987.562L93.416 1648.75L94.0177 1649.35L755.464 988.163L754.863 987.562Z" fill="#0A0555"/>
<path fill-rule="evenodd" clip-rule="evenodd" d="M282.401 515.288L-379.045 1176.47L-378.443 1177.07L283.003 515.89L282.401 515.288Z" fill="#0A0555"/>
<path fill-rule="evenodd" clip-rule="evenodd" d="M636.747 869.494L-24.6992 1530.68L-24.0975 1531.28L637.349 870.095L636.747 869.494Z" fill="#0A0555"/>
<path fill-rule="evenodd" clip-rule="evenodd" d="M164.284 397.22L-497.162 1058.4L-496.56 1059L164.886 397.821L164.284 397.22Z" fill="#0A0555"/>
<path fill-rule="evenodd" clip-rule="evenodd" d="M400.517 633.357L-260.93 1294.54L-260.328 1295.14L401.118 633.958L400.517 633.357Z" fill="#0A0555"/>
<path fill-rule="evenodd" clip-rule="evenodd" d="M471.386 704.198L-190.061 1365.38L-189.459 1365.98L471.987 704.799L471.386 704.198Z" fill="#0A0555"/>
<path fill-rule="evenodd" clip-rule="evenodd" d="M707.616 940.334L46.1699 1601.52L46.7717 1602.12L708.218 940.936L707.616 940.334Z" fill="#0A0555"/>
<path fill-rule="evenodd" clip-rule="evenodd" d="M235.155 468.061L-426.291 1129.24L-425.689 1129.85L235.757 468.662L235.155 468.061Z" fill="#0A0555"/>
<path fill-rule="evenodd" clip-rule="evenodd" d="M589.501 822.266L-71.9453 1483.45L-71.3436 1484.05L590.103 822.867L589.501 822.266Z" fill="#0A0555"/>
<path fill-rule="evenodd" clip-rule="evenodd" d="M117.038 349.992L-544.408 1011.18L-543.806 1011.78L117.64 350.594L117.038 349.992Z" fill="#0A0555"/>
<path fill-rule="evenodd" clip-rule="evenodd" d="M353.27 586.129L-308.176 1247.31L-307.574 1247.91L353.872 586.731L353.27 586.129Z" fill="#0A0555"/>
<path fill-rule="evenodd" clip-rule="evenodd" d="M530.444 763.231L-131.002 1424.42L-130.4 1425.02L531.046 763.833L530.444 763.231Z" fill="#0A0555"/>
<path fill-rule="evenodd" clip-rule="evenodd" d="M294.212 527.095L-367.234 1188.28L-366.633 1188.88L294.814 527.696L294.212 527.095Z" fill="#0A0555"/>
<path fill-rule="evenodd" clip-rule="evenodd" d="M648.56 881.3L-12.8867 1542.48L-12.285 1543.08L649.161 881.901L648.56 881.3Z" fill="#0A0555"/>
<path fill-rule="evenodd" clip-rule="evenodd" d="M176.097 409.027L-485.35 1070.21L-484.748 1070.81L176.698 409.628L176.097 409.027Z" fill="#0A0555"/>
<path fill-rule="evenodd" clip-rule="evenodd" d="M412.327 645.163L-249.119 1306.35L-248.517 1306.95L412.929 645.765L412.327 645.163Z" fill="#0A0555"/>
<path fill-rule="evenodd" clip-rule="evenodd" d="M483.198 716.004L-178.248 1377.19L-177.646 1377.79L483.8 716.606L483.198 716.004Z" fill="#0A0555"/>
<path fill-rule="evenodd" clip-rule="evenodd" d="M719.429 952.142L57.9824 1613.33L58.5842 1613.93L720.03 952.743L719.429 952.142Z" fill="#0A0555"/>
<path fill-rule="evenodd" clip-rule="evenodd" d="M246.966 479.867L-414.48 1141.05L-413.879 1141.65L247.568 480.469L246.966 479.867Z" fill="#0A0555"/>
<path fill-rule="evenodd" clip-rule="evenodd" d="M601.313 834.072L-60.1328 1495.26L-59.5311 1495.86L601.915 834.674L601.313 834.072Z" fill="#0A0555"/>
<path fill-rule="evenodd" clip-rule="evenodd" d="M128.851 361.799L-532.596 1022.98L-531.994 1023.58L129.452 362.401L128.851 361.799Z" fill="#0A0555"/>
<path fill-rule="evenodd" clip-rule="evenodd" d="M365.081 597.937L-296.365 1259.12L-295.764 1259.72L365.683 598.538L365.081 597.937Z" fill="#0A0555"/>
<path fill-rule="evenodd" clip-rule="evenodd" d="M542.255 775.038L-119.191 1436.22L-118.59 1436.82L542.856 775.64L542.255 775.038Z" fill="#0A0555"/>
<path fill-rule="evenodd" clip-rule="evenodd" d="M306.025 538.901L-355.422 1200.08L-354.82 1200.69L306.626 539.503L306.025 538.901Z" fill="#0A0555"/>
<path fill-rule="evenodd" clip-rule="evenodd" d="M660.37 893.107L-1.07617 1554.29L-0.474439 1554.89L660.972 893.708L660.37 893.107Z" fill="#0A0555"/>
<path fill-rule="evenodd" clip-rule="evenodd" d="M187.909 420.833L-473.537 1082.02L-472.935 1082.62L188.511 421.435L187.909 420.833Z" fill="#0A0555"/>
<path fill-rule="evenodd" clip-rule="evenodd" d="M424.14 656.97L-237.307 1318.15L-236.705 1318.75L424.741 657.572L424.14 656.97Z" fill="#0A0555"/>
</g>
<path d="M101.615 1153.31L134.803 839C109.614 839 93.5303 846.656 88.8499 874.302L62.895 1102.27C59.9166 1128.64 44.1735 1132.47 28.4304 1132.47H-139.638C-163.465 1132.47 -169.138 1151.75 -168.997 1161.39V1173.73H77.7872C95.4875 1173.73 101.047 1160.12 101.615 1153.31Z" fill="url(#paint4_linear)"/>
<path fill-rule="evenodd" clip-rule="evenodd" d="M1641.5 839H1721.49L1770.42 1173.12H2020.19V1233.49C2020.19 1242.84 2015.25 1261.54 1995.51 1261.54H1641.5H1641.5H1287.49C1267.75 1261.54 1262.82 1242.84 1262.82 1233.49V1173.12H1512.58L1561.51 839H1641.5H1641.5Z" fill="url(#paint5_linear)"/>
<mask id="mask2" style="mask-type:alpha" maskUnits="userSpaceOnUse" x="1641" y="839" width="380" height="423">
<path d="M1721.49 839H1641.5V1261.77H1995.51C2015.25 1261.77 2020.19 1243.05 2020.19 1233.7V1173.3H1770.42L1721.49 839Z" fill="#1E2F93"/>
</mask>
<g mask="url(#mask2)">
<path fill-rule="evenodd" clip-rule="evenodd" d="M1300.77 1188.28L1938.6 550.709L1939.2 551.31L1301.38 1188.88L1300.77 1188.28Z" fill="#0A0555"/>
<path fill-rule="evenodd" clip-rule="evenodd" d="M1537.01 1424.42L2174.83 786.846L2175.43 787.447L1537.61 1425.02L1537.01 1424.42Z" fill="#0A0555"/>
<path fill-rule="evenodd" clip-rule="evenodd" d="M1418.89 1306.35L2056.71 668.776L2057.31 669.378L1419.49 1306.95L1418.89 1306.35Z" fill="#0A0555"/>
<path fill-rule="evenodd" clip-rule="evenodd" d="M1655.12 1542.48L2292.94 904.913L2293.55 905.515L1655.72 1543.08L1655.12 1542.48Z" fill="#0A0555"/>
<path fill-rule="evenodd" clip-rule="evenodd" d="M1182.66 1070.21L1820.48 432.64L1821.08 433.241L1183.26 1070.81L1182.66 1070.21Z" fill="#0A0555"/>
<path fill-rule="evenodd" clip-rule="evenodd" d="M1359.83 1247.31L1997.65 609.742L1998.26 610.344L1360.43 1247.91L1359.83 1247.31Z" fill="#0A0555"/>
<path fill-rule="evenodd" clip-rule="evenodd" d="M1596.06 1483.45L2233.88 845.88L2234.49 846.481L1596.66 1484.05L1596.06 1483.45Z" fill="#0A0555"/>
<path fill-rule="evenodd" clip-rule="evenodd" d="M1123.6 1011.18L1761.42 373.605L1762.03 374.207L1124.2 1011.78L1123.6 1011.18Z" fill="#0A0555"/>
<path fill-rule="evenodd" clip-rule="evenodd" d="M1477.95 1365.38L2115.77 727.811L2116.37 728.412L1478.55 1365.98L1477.95 1365.38Z" fill="#0A0555"/>
<path fill-rule="evenodd" clip-rule="evenodd" d="M1714.18 1601.52L2352 963.948L2352.6 964.55L1714.78 1602.12L1714.18 1601.52Z" fill="#0A0555"/>
<path fill-rule="evenodd" clip-rule="evenodd" d="M1241.72 1129.24L1879.54 491.674L1880.14 492.275L1242.32 1129.84L1241.72 1129.24Z" fill="#0A0555"/>
<path fill-rule="evenodd" clip-rule="evenodd" d="M1312.59 1200.08L1950.41 562.515L1951.01 563.116L1313.19 1200.69L1312.59 1200.08Z" fill="#0A0555"/>
<path fill-rule="evenodd" clip-rule="evenodd" d="M1548.82 1436.22L2186.64 798.652L2187.24 799.254L1549.42 1436.82L1548.82 1436.22Z" fill="#0A0555"/>
<path fill-rule="evenodd" clip-rule="evenodd" d="M1430.7 1318.15L2068.52 680.583L2069.13 681.185L1431.3 1318.75L1430.7 1318.15Z" fill="#0A0555"/>
<path fill-rule="evenodd" clip-rule="evenodd" d="M1666.93 1554.29L2304.75 916.721L2305.36 917.322L1667.53 1554.89L1666.93 1554.29Z" fill="#0A0555"/>
<path fill-rule="evenodd" clip-rule="evenodd" d="M1194.47 1082.02L1832.29 444.446L1832.89 445.048L1195.07 1082.62L1194.47 1082.02Z" fill="#0A0555"/>
<path fill-rule="evenodd" clip-rule="evenodd" d="M1371.64 1259.12L2009.47 621.549L2010.07 622.15L1372.25 1259.72L1371.64 1259.12Z" fill="#0A0555"/>
<path fill-rule="evenodd" clip-rule="evenodd" d="M1607.87 1495.26L2245.7 857.687L2246.3 858.288L1608.48 1495.86L1607.87 1495.26Z" fill="#0A0555"/>
<path fill-rule="evenodd" clip-rule="evenodd" d="M1135.41 1022.98L1773.23 385.412L1773.84 386.014L1136.01 1023.58L1135.41 1022.98Z" fill="#0A0555"/>
<path fill-rule="evenodd" clip-rule="evenodd" d="M1489.76 1377.19L2127.58 739.617L2128.18 740.219L1490.36 1377.79L1489.76 1377.19Z" fill="#0A0555"/>
<path fill-rule="evenodd" clip-rule="evenodd" d="M1725.99 1613.32L2363.81 975.754L2364.41 976.355L1726.59 1613.92L1725.99 1613.32Z" fill="#0A0555"/>
<path fill-rule="evenodd" clip-rule="evenodd" d="M1253.53 1141.05L1891.35 503.48L1891.95 504.082L1254.13 1141.65L1253.53 1141.05Z" fill="#0A0555"/>
<path fill-rule="evenodd" clip-rule="evenodd" d="M1324.4 1211.89L1962.22 574.322L1962.82 574.924L1325 1212.49L1324.4 1211.89Z" fill="#0A0555"/>
<path fill-rule="evenodd" clip-rule="evenodd" d="M1560.63 1448.03L2198.45 810.459L2199.05 811.06L1561.23 1448.63L1560.63 1448.03Z" fill="#0A0555"/>
<path fill-rule="evenodd" clip-rule="evenodd" d="M1442.51 1329.96L2080.34 692.391L2080.94 692.992L1443.11 1330.56L1442.51 1329.96Z" fill="#0A0555"/>
<path fill-rule="evenodd" clip-rule="evenodd" d="M1678.74 1566.1L2316.57 928.527L2317.17 929.129L1679.35 1566.7L1678.74 1566.1Z" fill="#0A0555"/>
<path fill-rule="evenodd" clip-rule="evenodd" d="M1206.28 1093.82L1844.1 456.253L1844.71 456.854L1206.88 1094.42L1206.28 1093.82Z" fill="#0A0555"/>
<path fill-rule="evenodd" clip-rule="evenodd" d="M1383.45 1270.92L2021.28 633.355L2021.88 633.957L1384.06 1271.53L1383.45 1270.92Z" fill="#0A0555"/>
<path fill-rule="evenodd" clip-rule="evenodd" d="M1619.68 1507.06L2257.51 869.493L2258.11 870.095L1620.29 1507.66L1619.68 1507.06Z" fill="#0A0555"/>
<path fill-rule="evenodd" clip-rule="evenodd" d="M1147.22 1034.79L1785.05 397.219L1785.65 397.82L1147.83 1035.39L1147.22 1034.79Z" fill="#0A0555"/>
<path fill-rule="evenodd" clip-rule="evenodd" d="M1501.57 1388.99L2139.39 751.425L2139.99 752.026L1502.17 1389.6L1501.57 1388.99Z" fill="#0A0555"/>
<path fill-rule="evenodd" clip-rule="evenodd" d="M1737.8 1625.13L2375.62 987.562L2376.22 988.163L1738.4 1625.73L1737.8 1625.13Z" fill="#0A0555"/>
<path fill-rule="evenodd" clip-rule="evenodd" d="M1265.34 1152.86L1903.16 515.288L1903.76 515.89L1265.94 1153.46L1265.34 1152.86Z" fill="#0A0555"/>
<path fill-rule="evenodd" clip-rule="evenodd" d="M1336.21 1223.7L1974.03 586.129L1974.63 586.73L1336.81 1224.3L1336.21 1223.7Z" fill="#0A0555"/>
<path fill-rule="evenodd" clip-rule="evenodd" d="M1572.44 1459.84L2210.26 822.266L2210.86 822.867L1573.04 1460.44L1572.44 1459.84Z" fill="#0A0555"/>
<path fill-rule="evenodd" clip-rule="evenodd" d="M1099.98 987.561L1737.8 349.991L1738.4 350.593L1100.58 988.162L1099.98 987.561Z" fill="#0A0555"/>
<path fill-rule="evenodd" clip-rule="evenodd" d="M1454.32 1341.77L2092.15 704.197L2092.75 704.799L1454.93 1342.37L1454.32 1341.77Z" fill="#0A0555"/>
<path fill-rule="evenodd" clip-rule="evenodd" d="M1690.55 1577.9L2328.38 940.334L2328.98 940.935L1691.16 1578.51L1690.55 1577.9Z" fill="#0A0555"/>
<path fill-rule="evenodd" clip-rule="evenodd" d="M1218.09 1105.63L1855.92 468.061L1856.52 468.662L1218.69 1106.23L1218.09 1105.63Z" fill="#0A0555"/>
<path fill-rule="evenodd" clip-rule="evenodd" d="M1395.26 1282.73L2033.09 645.163L2033.69 645.765L1395.87 1283.33L1395.26 1282.73Z" fill="#0A0555"/>
<path fill-rule="evenodd" clip-rule="evenodd" d="M1631.5 1518.87L2269.32 881.3L2269.92 881.901L1632.1 1519.47L1631.5 1518.87Z" fill="#0A0555"/>
<path fill-rule="evenodd" clip-rule="evenodd" d="M1159.03 1046.6L1796.86 409.026L1797.46 409.628L1159.64 1047.2L1159.03 1046.6Z" fill="#0A0555"/>
<path fill-rule="evenodd" clip-rule="evenodd" d="M1513.38 1400.8L2151.21 763.231L2151.81 763.833L1513.98 1401.4L1513.38 1400.8Z" fill="#0A0555"/>
<path fill-rule="evenodd" clip-rule="evenodd" d="M1749.61 1636.94L2387.44 999.368L2388.04 999.97L1750.21 1637.54L1749.61 1636.94Z" fill="#0A0555"/>
<path fill-rule="evenodd" clip-rule="evenodd" d="M1277.15 1164.66L1914.97 527.095L1915.57 527.696L1277.75 1165.27L1277.15 1164.66Z" fill="#0A0555"/>
<path fill-rule="evenodd" clip-rule="evenodd" d="M1348.02 1235.51L1985.84 597.936L1986.45 598.537L1348.62 1236.11L1348.02 1235.51Z" fill="#0A0555"/>
<path fill-rule="evenodd" clip-rule="evenodd" d="M1584.25 1471.64L2222.07 834.072L2222.68 834.674L1584.85 1472.24L1584.25 1471.64Z" fill="#0A0555"/>
<path fill-rule="evenodd" clip-rule="evenodd" d="M1111.79 999.368L1749.61 361.799L1750.21 362.4L1112.39 999.97L1111.79 999.368Z" fill="#0A0555"/>
<path fill-rule="evenodd" clip-rule="evenodd" d="M1466.13 1353.57L2103.96 716.004L2104.56 716.605L1466.74 1354.17L1466.13 1353.57Z" fill="#0A0555"/>
<path fill-rule="evenodd" clip-rule="evenodd" d="M1702.37 1589.71L2340.19 952.142L2340.79 952.743L1702.97 1590.31L1702.37 1589.71Z" fill="#0A0555"/>
<path fill-rule="evenodd" clip-rule="evenodd" d="M1229.9 1117.44L1867.73 479.867L1868.33 480.469L1230.51 1118.04L1229.9 1117.44Z" fill="#0A0555"/>
<path fill-rule="evenodd" clip-rule="evenodd" d="M1407.08 1294.54L2044.9 656.97L2045.5 657.571L1407.68 1295.14L1407.08 1294.54Z" fill="#0A0555"/>
<path fill-rule="evenodd" clip-rule="evenodd" d="M1643.31 1530.68L2281.13 893.107L2281.73 893.709L1643.91 1531.28L1643.31 1530.68Z" fill="#0A0555"/>
<path fill-rule="evenodd" clip-rule="evenodd" d="M1170.85 1058.4L1808.67 420.833L1809.27 421.435L1171.45 1059L1170.85 1058.4Z" fill="#0A0555"/>
<path fill-rule="evenodd" clip-rule="evenodd" d="M1525.19 1412.61L2163.02 775.038L2163.62 775.64L1525.79 1413.21L1525.19 1412.61Z" fill="#0A0555"/>
<path fill-rule="evenodd" clip-rule="evenodd" d="M1761.42 1648.74L2399.25 1011.17L2399.85 1011.78L1762.02 1649.35L1761.42 1648.74Z" fill="#0A0555"/>
<path fill-rule="evenodd" clip-rule="evenodd" d="M1288.96 1176.47L1926.79 538.901L1927.39 539.503L1289.56 1177.07L1288.96 1176.47Z" fill="#0A0555"/>
<path fill-rule="evenodd" clip-rule="evenodd" d="M1419.49 668.777L2080.94 1329.96L2080.33 1330.56L1418.89 669.378L1419.49 668.777Z" fill="#0A0555"/>
<path fill-rule="evenodd" clip-rule="evenodd" d="M1183.26 904.914L1844.71 1566.1L1844.1 1566.7L1182.66 905.516L1183.26 904.914Z" fill="#0A0555"/>
<path fill-rule="evenodd" clip-rule="evenodd" d="M1655.72 432.641L2317.17 1093.82L2316.57 1094.43L1655.12 433.242L1655.72 432.641Z" fill="#0A0555"/>
<path fill-rule="evenodd" clip-rule="evenodd" d="M1301.37 786.845L1962.82 1448.03L1962.22 1448.63L1300.77 787.446L1301.37 786.845Z" fill="#0A0555"/>
<path fill-rule="evenodd" clip-rule="evenodd" d="M1537.61 550.708L2199.05 1211.89L2198.45 1212.49L1537 551.31L1537.61 550.708Z" fill="#0A0555"/>
<path fill-rule="evenodd" clip-rule="evenodd" d="M1360.43 727.811L2021.88 1388.99L2021.28 1389.6L1359.83 728.412L1360.43 727.811Z" fill="#0A0555"/>
<path fill-rule="evenodd" clip-rule="evenodd" d="M1124.2 963.948L1785.65 1625.13L1785.05 1625.73L1123.6 964.549L1124.2 963.948Z" fill="#0A0555"/>
<path fill-rule="evenodd" clip-rule="evenodd" d="M1596.67 491.674L2258.11 1152.86L2257.51 1153.46L1596.06 492.275L1596.67 491.674Z" fill="#0A0555"/>
<path fill-rule="evenodd" clip-rule="evenodd" d="M1242.32 845.879L1903.76 1507.06L1903.16 1507.66L1241.72 846.481L1242.32 845.879Z" fill="#0A0555"/>
<path fill-rule="evenodd" clip-rule="evenodd" d="M1714.78 373.606L2376.22 1034.79L2375.62 1035.39L1714.18 374.207L1714.78 373.606Z" fill="#0A0555"/>
<path fill-rule="evenodd" clip-rule="evenodd" d="M1478.55 609.743L2139.99 1270.93L2139.39 1271.53L1477.95 610.344L1478.55 609.743Z" fill="#0A0555"/>
<path fill-rule="evenodd" clip-rule="evenodd" d="M1407.68 680.584L2069.12 1341.77L2068.52 1342.37L1407.08 681.186L1407.68 680.584Z" fill="#0A0555"/>
<path fill-rule="evenodd" clip-rule="evenodd" d="M1171.45 916.721L1832.89 1577.9L1832.29 1578.51L1170.85 917.322L1171.45 916.721Z" fill="#0A0555"/>
<path fill-rule="evenodd" clip-rule="evenodd" d="M1643.91 444.446L2305.36 1105.63L2304.75 1106.23L1643.31 445.048L1643.91 444.446Z" fill="#0A0555"/>
<path fill-rule="evenodd" clip-rule="evenodd" d="M1289.56 798.652L1951.01 1459.83L1950.41 1460.44L1288.96 799.253L1289.56 798.652Z" fill="#0A0555"/>
<path fill-rule="evenodd" clip-rule="evenodd" d="M1525.79 562.515L2187.24 1223.7L2186.64 1224.3L1525.19 563.116L1525.79 562.515Z" fill="#0A0555"/>
<path fill-rule="evenodd" clip-rule="evenodd" d="M1348.62 739.617L2010.07 1400.8L2009.46 1401.4L1348.02 740.219L1348.62 739.617Z" fill="#0A0555"/>
<path fill-rule="evenodd" clip-rule="evenodd" d="M1112.39 975.754L1773.84 1636.94L1773.23 1637.54L1111.79 976.356L1112.39 975.754Z" fill="#0A0555"/>
<path fill-rule="evenodd" clip-rule="evenodd" d="M1584.85 503.482L2246.3 1164.67L2245.7 1165.27L1584.25 504.083L1584.85 503.482Z" fill="#0A0555"/>
<path fill-rule="evenodd" clip-rule="evenodd" d="M1230.51 857.687L1891.95 1518.87L1891.35 1519.47L1229.9 858.288L1230.51 857.687Z" fill="#0A0555"/>
<path fill-rule="evenodd" clip-rule="evenodd" d="M1702.97 385.413L2364.41 1046.6L2363.81 1047.2L1702.37 386.015L1702.97 385.413Z" fill="#0A0555"/>
<path fill-rule="evenodd" clip-rule="evenodd" d="M1466.74 621.55L2128.18 1282.73L2127.58 1283.33L1466.14 622.151L1466.74 621.55Z" fill="#0A0555"/>
<path fill-rule="evenodd" clip-rule="evenodd" d="M1395.87 692.39L2057.31 1353.57L2056.71 1354.17L1395.26 692.991L1395.87 692.39Z" fill="#0A0555"/>
<path fill-rule="evenodd" clip-rule="evenodd" d="M1159.64 928.528L1821.08 1589.71L1820.48 1590.31L1159.03 929.129L1159.64 928.528Z" fill="#0A0555"/>
<path fill-rule="evenodd" clip-rule="evenodd" d="M1632.1 456.254L2293.54 1117.44L2292.94 1118.04L1631.5 456.855L1632.1 456.254Z" fill="#0A0555"/>
<path fill-rule="evenodd" clip-rule="evenodd" d="M1277.75 810.458L1939.2 1471.64L1938.6 1472.24L1277.15 811.06L1277.75 810.458Z" fill="#0A0555"/>
<path fill-rule="evenodd" clip-rule="evenodd" d="M1513.98 574.323L2175.43 1235.51L2174.83 1236.11L1513.38 574.924L1513.98 574.323Z" fill="#0A0555"/>
<path fill-rule="evenodd" clip-rule="evenodd" d="M1336.81 751.425L1998.26 1412.61L1997.65 1413.21L1336.21 752.027L1336.81 751.425Z" fill="#0A0555"/>
<path fill-rule="evenodd" clip-rule="evenodd" d="M1100.58 987.562L1762.03 1648.75L1761.42 1649.35L1099.98 988.163L1100.58 987.562Z" fill="#0A0555"/>
<path fill-rule="evenodd" clip-rule="evenodd" d="M1573.04 515.288L2234.49 1176.47L2233.88 1177.07L1572.44 515.89L1573.04 515.288Z" fill="#0A0555"/>
<path fill-rule="evenodd" clip-rule="evenodd" d="M1218.69 869.494L1880.14 1530.68L1879.54 1531.28L1218.09 870.095L1218.69 869.494Z" fill="#0A0555"/>
<path fill-rule="evenodd" clip-rule="evenodd" d="M1691.16 397.22L2352.6 1058.4L2352 1059L1690.55 397.821L1691.16 397.22Z" fill="#0A0555"/>
<path fill-rule="evenodd" clip-rule="evenodd" d="M1454.92 633.357L2116.37 1294.54L2115.77 1295.14L1454.32 633.958L1454.92 633.357Z" fill="#0A0555"/>
<path fill-rule="evenodd" clip-rule="evenodd" d="M1384.06 704.197L2045.5 1365.38L2044.9 1365.98L1383.45 704.799L1384.06 704.197Z" fill="#0A0555"/>
<path fill-rule="evenodd" clip-rule="evenodd" d="M1147.83 940.334L1809.27 1601.52L1808.67 1602.12L1147.22 940.936L1147.83 940.334Z" fill="#0A0555"/>
<path fill-rule="evenodd" clip-rule="evenodd" d="M1620.29 468.061L2281.73 1129.24L2281.13 1129.85L1619.68 468.662L1620.29 468.061Z" fill="#0A0555"/>
<path fill-rule="evenodd" clip-rule="evenodd" d="M1265.94 822.266L1927.39 1483.45L1926.78 1484.05L1265.34 822.867L1265.94 822.266Z" fill="#0A0555"/>
<path fill-rule="evenodd" clip-rule="evenodd" d="M1738.4 349.992L2399.85 1011.18L2399.25 1011.78L1737.8 350.594L1738.4 349.992Z" fill="#0A0555"/>
<path fill-rule="evenodd" clip-rule="evenodd" d="M1502.17 586.129L2163.62 1247.31L2163.02 1247.91L1501.57 586.731L1502.17 586.129Z" fill="#0A0555"/>
<path fill-rule="evenodd" clip-rule="evenodd" d="M1325 763.232L1986.44 1424.42L1985.84 1425.02L1324.4 763.833L1325 763.232Z" fill="#0A0555"/>
<path fill-rule="evenodd" clip-rule="evenodd" d="M1561.23 527.095L2222.68 1188.28L2222.07 1188.88L1560.63 527.696L1561.23 527.095Z" fill="#0A0555"/>
<path fill-rule="evenodd" clip-rule="evenodd" d="M1206.88 881.3L1868.33 1542.48L1867.73 1543.08L1206.28 881.901L1206.88 881.3Z" fill="#0A0555"/>
<path fill-rule="evenodd" clip-rule="evenodd" d="M1679.34 409.027L2340.79 1070.21L2340.19 1070.81L1678.74 409.628L1679.34 409.027Z" fill="#0A0555"/>
<path fill-rule="evenodd" clip-rule="evenodd" d="M1443.11 645.163L2104.56 1306.35L2103.96 1306.95L1442.51 645.765L1443.11 645.163Z" fill="#0A0555"/>
<path fill-rule="evenodd" clip-rule="evenodd" d="M1372.24 716.004L2033.69 1377.19L2033.09 1377.79L1371.64 716.605L1372.24 716.004Z" fill="#0A0555"/>
<path fill-rule="evenodd" clip-rule="evenodd" d="M1136.01 952.141L1797.46 1613.32L1796.86 1613.93L1135.41 952.742L1136.01 952.141Z" fill="#0A0555"/>
<path fill-rule="evenodd" clip-rule="evenodd" d="M1608.48 479.867L2269.92 1141.05L2269.32 1141.65L1607.87 480.469L1608.48 479.867Z" fill="#0A0555"/>
<path fill-rule="evenodd" clip-rule="evenodd" d="M1254.13 834.072L1915.57 1495.26L1914.97 1495.86L1253.53 834.674L1254.13 834.072Z" fill="#0A0555"/>
<path fill-rule="evenodd" clip-rule="evenodd" d="M1726.59 361.799L2388.04 1022.98L2387.44 1023.58L1725.99 362.401L1726.59 361.799Z" fill="#0A0555"/>
<path fill-rule="evenodd" clip-rule="evenodd" d="M1490.36 597.936L2151.81 1259.12L2151.2 1259.72L1489.76 598.537L1490.36 597.936Z" fill="#0A0555"/>
<path fill-rule="evenodd" clip-rule="evenodd" d="M1313.19 775.038L1974.63 1436.22L1974.03 1436.82L1312.58 775.64L1313.19 775.038Z" fill="#0A0555"/>
<path fill-rule="evenodd" clip-rule="evenodd" d="M1549.42 538.902L2210.86 1200.08L2210.26 1200.69L1548.82 539.503L1549.42 538.902Z" fill="#0A0555"/>
<path fill-rule="evenodd" clip-rule="evenodd" d="M1195.07 893.107L1856.52 1554.29L1855.92 1554.89L1194.47 893.708L1195.07 893.107Z" fill="#0A0555"/>
<path fill-rule="evenodd" clip-rule="evenodd" d="M1667.53 420.833L2328.98 1082.02L2328.38 1082.62L1666.93 421.435L1667.53 420.833Z" fill="#0A0555"/>
<path fill-rule="evenodd" clip-rule="evenodd" d="M1431.3 656.97L2092.75 1318.15L2092.15 1318.75L1430.7 657.571L1431.3 656.97Z" fill="#0A0555"/>
</g>
<path d="M1749.57 1153.31L1716.39 839C1741.58 839 1757.66 846.656 1762.34 874.302L1788.29 1102.27C1791.27 1128.64 1807.02 1132.47 1822.76 1132.47H1990.83C2014.65 1132.47 2020.33 1151.75 2020.19 1161.39V1173.73H1773.4C1755.7 1173.73 1750.14 1160.12 1749.57 1153.31Z" fill="url(#paint6_linear)"/>
<path fill-rule="evenodd" clip-rule="evenodd" d="M1989.76 1261.77H1642.21H1642.21H1294.66V1443.78H1642.21H1642.21H1989.76V1261.77Z" fill="url(#paint7_linear)"/>
<mask id="mask3" style="mask-type:alpha" maskUnits="userSpaceOnUse" x="1262" y="839" width="380" height="423">
<path d="M1561.51 839H1641.5V1261.77H1287.49C1267.75 1261.77 1262.81 1243.05 1262.81 1233.7V1173.3H1512.58L1561.51 839Z" fill="#1E2F93"/>
</mask>
<g mask="url(#mask3)">
<path fill-rule="evenodd" clip-rule="evenodd" d="M1986.48 1188.28L1348.66 550.708L1348.06 551.31L1985.88 1188.88L1986.48 1188.28Z" fill="#0A0555"/>
<path fill-rule="evenodd" clip-rule="evenodd" d="M1750.25 1424.42L1112.43 786.846L1111.83 787.447L1749.65 1425.02L1750.25 1424.42Z" fill="#0A0555"/>
<path fill-rule="evenodd" clip-rule="evenodd" d="M1868.37 1306.35L1230.54 668.776L1229.94 669.378L1867.76 1306.95L1868.37 1306.35Z" fill="#0A0555"/>
<path fill-rule="evenodd" clip-rule="evenodd" d="M1632.14 1542.48L994.312 904.913L993.711 905.515L1631.53 1543.08L1632.14 1542.48Z" fill="#0A0555"/>
<path fill-rule="evenodd" clip-rule="evenodd" d="M2104.6 1070.21L1466.78 432.64L1466.17 433.241L2104 1070.81L2104.6 1070.21Z" fill="#0A0555"/>
<path fill-rule="evenodd" clip-rule="evenodd" d="M1927.42 1247.31L1289.6 609.742L1289 610.344L1926.82 1247.91L1927.42 1247.31Z" fill="#0A0555"/>
<path fill-rule="evenodd" clip-rule="evenodd" d="M1691.19 1483.45L1053.37 845.879L1052.77 846.48L1690.59 1484.05L1691.19 1483.45Z" fill="#0A0555"/>
<path fill-rule="evenodd" clip-rule="evenodd" d="M2163.65 1011.18L1525.83 373.605L1525.23 374.207L2163.05 1011.78L2163.65 1011.18Z" fill="#0A0555"/>
<path fill-rule="evenodd" clip-rule="evenodd" d="M1809.31 1365.38L1171.49 727.812L1170.88 728.413L1808.71 1365.98L1809.31 1365.38Z" fill="#0A0555"/>
<path fill-rule="evenodd" clip-rule="evenodd" d="M1573.08 1601.52L935.256 963.948L934.654 964.55L1572.48 1602.12L1573.08 1601.52Z" fill="#0A0555"/>
<path fill-rule="evenodd" clip-rule="evenodd" d="M2045.54 1129.24L1407.72 491.674L1407.12 492.275L2044.94 1129.84L2045.54 1129.24Z" fill="#0A0555"/>
<path fill-rule="evenodd" clip-rule="evenodd" d="M1974.67 1200.08L1336.85 562.515L1336.25 563.116L1974.07 1200.69L1974.67 1200.08Z" fill="#0A0555"/>
<path fill-rule="evenodd" clip-rule="evenodd" d="M1738.44 1436.22L1100.62 798.652L1100.02 799.254L1737.84 1436.82L1738.44 1436.22Z" fill="#0A0555"/>
<path fill-rule="evenodd" clip-rule="evenodd" d="M1856.56 1318.15L1218.73 680.583L1218.13 681.185L1855.95 1318.75L1856.56 1318.15Z" fill="#0A0555"/>
<path fill-rule="evenodd" clip-rule="evenodd" d="M1620.33 1554.29L982.502 916.72L981.9 917.321L1619.72 1554.89L1620.33 1554.29Z" fill="#0A0555"/>
<path fill-rule="evenodd" clip-rule="evenodd" d="M2092.79 1082.02L1454.96 444.446L1454.36 445.048L2092.18 1082.62L2092.79 1082.02Z" fill="#0A0555"/>
<path fill-rule="evenodd" clip-rule="evenodd" d="M1915.61 1259.12L1277.79 621.55L1277.19 622.151L1915.01 1259.72L1915.61 1259.12Z" fill="#0A0555"/>
<path fill-rule="evenodd" clip-rule="evenodd" d="M1679.38 1495.26L1041.56 857.687L1040.96 858.288L1678.78 1495.86L1679.38 1495.26Z" fill="#0A0555"/>
<path fill-rule="evenodd" clip-rule="evenodd" d="M2151.84 1022.98L1514.02 385.412L1513.42 386.014L2151.24 1023.58L2151.84 1022.98Z" fill="#0A0555"/>
<path fill-rule="evenodd" clip-rule="evenodd" d="M1797.5 1377.19L1159.67 739.617L1159.07 740.219L1796.9 1377.79L1797.5 1377.19Z" fill="#0A0555"/>
<path fill-rule="evenodd" clip-rule="evenodd" d="M1561.27 1613.32L923.443 975.754L922.842 976.355L1560.66 1613.92L1561.27 1613.32Z" fill="#0A0555"/>
<path fill-rule="evenodd" clip-rule="evenodd" d="M2033.73 1141.05L1395.91 503.48L1395.3 504.082L2033.13 1141.65L2033.73 1141.05Z" fill="#0A0555"/>
<path fill-rule="evenodd" clip-rule="evenodd" d="M1962.86 1211.89L1325.04 574.322L1324.43 574.924L1962.26 1212.49L1962.86 1211.89Z" fill="#0A0555"/>
<path fill-rule="evenodd" clip-rule="evenodd" d="M1726.63 1448.03L1088.8 810.459L1088.2 811.06L1726.03 1448.63L1726.63 1448.03Z" fill="#0A0555"/>
<path fill-rule="evenodd" clip-rule="evenodd" d="M1844.74 1329.96L1206.92 692.391L1206.32 692.992L1844.14 1330.56L1844.74 1329.96Z" fill="#0A0555"/>
<path fill-rule="evenodd" clip-rule="evenodd" d="M1608.51 1566.1L970.689 928.527L970.088 929.129L1607.91 1566.7L1608.51 1566.1Z" fill="#0A0555"/>
<path fill-rule="evenodd" clip-rule="evenodd" d="M2080.97 1093.82L1443.15 456.253L1442.55 456.854L2080.37 1094.42L2080.97 1093.82Z" fill="#0A0555"/>
<path fill-rule="evenodd" clip-rule="evenodd" d="M1903.8 1270.93L1265.98 633.356L1265.38 633.958L1903.2 1271.53L1903.8 1270.93Z" fill="#0A0555"/>
<path fill-rule="evenodd" clip-rule="evenodd" d="M1667.57 1507.06L1029.75 869.493L1029.15 870.095L1666.97 1507.66L1667.57 1507.06Z" fill="#0A0555"/>
<path fill-rule="evenodd" clip-rule="evenodd" d="M2140.03 1034.79L1502.21 397.219L1501.61 397.82L2139.43 1035.39L2140.03 1034.79Z" fill="#0A0555"/>
<path fill-rule="evenodd" clip-rule="evenodd" d="M1785.69 1388.99L1147.86 751.425L1147.26 752.026L1785.08 1389.6L1785.69 1388.99Z" fill="#0A0555"/>
<path fill-rule="evenodd" clip-rule="evenodd" d="M1549.46 1625.13L911.633 987.562L911.031 988.163L1548.85 1625.73L1549.46 1625.13Z" fill="#0A0555"/>
<path fill-rule="evenodd" clip-rule="evenodd" d="M2021.92 1152.86L1384.09 515.288L1383.49 515.89L2021.32 1153.46L2021.92 1152.86Z" fill="#0A0555"/>
<path fill-rule="evenodd" clip-rule="evenodd" d="M1951.05 1223.7L1313.22 586.129L1312.62 586.73L1950.45 1224.3L1951.05 1223.7Z" fill="#0A0555"/>
<path fill-rule="evenodd" clip-rule="evenodd" d="M1714.82 1459.84L1076.99 822.266L1076.39 822.867L1714.22 1460.44L1714.82 1459.84Z" fill="#0A0555"/>
<path fill-rule="evenodd" clip-rule="evenodd" d="M2187.28 987.561L1549.46 349.991L1548.85 350.593L2186.68 988.163L2187.28 987.561Z" fill="#0A0555"/>
<path fill-rule="evenodd" clip-rule="evenodd" d="M1832.93 1341.77L1195.11 704.197L1194.51 704.799L1832.33 1342.37L1832.93 1341.77Z" fill="#0A0555"/>
<path fill-rule="evenodd" clip-rule="evenodd" d="M1596.7 1577.9L958.879 940.334L958.277 940.935L1596.1 1578.51L1596.7 1577.9Z" fill="#0A0555"/>
<path fill-rule="evenodd" clip-rule="evenodd" d="M2069.16 1105.63L1431.34 468.061L1430.74 468.662L2068.56 1106.23L2069.16 1105.63Z" fill="#0A0555"/>
<path fill-rule="evenodd" clip-rule="evenodd" d="M1891.99 1282.73L1254.17 645.163L1253.56 645.765L1891.39 1283.33L1891.99 1282.73Z" fill="#0A0555"/>
<path fill-rule="evenodd" clip-rule="evenodd" d="M1655.76 1518.87L1017.94 881.3L1017.33 881.901L1655.16 1519.47L1655.76 1518.87Z" fill="#0A0555"/>
<path fill-rule="evenodd" clip-rule="evenodd" d="M2128.22 1046.6L1490.4 409.026L1489.8 409.628L2127.62 1047.2L2128.22 1046.6Z" fill="#0A0555"/>
<path fill-rule="evenodd" clip-rule="evenodd" d="M1773.87 1400.8L1136.05 763.231L1135.45 763.833L1773.27 1401.4L1773.87 1400.8Z" fill="#0A0555"/>
<path fill-rule="evenodd" clip-rule="evenodd" d="M1537.64 1636.94L899.82 999.368L899.219 999.97L1537.04 1637.54L1537.64 1636.94Z" fill="#0A0555"/>
<path fill-rule="evenodd" clip-rule="evenodd" d="M2010.1 1164.66L1372.28 527.095L1371.68 527.696L2009.5 1165.27L2010.1 1164.66Z" fill="#0A0555"/>
<path fill-rule="evenodd" clip-rule="evenodd" d="M1939.24 1235.51L1301.41 597.936L1300.81 598.537L1938.63 1236.11L1939.24 1235.51Z" fill="#0A0555"/>
<path fill-rule="evenodd" clip-rule="evenodd" d="M1703 1471.64L1065.18 834.072L1064.58 834.674L1702.4 1472.24L1703 1471.64Z" fill="#0A0555"/>
<path fill-rule="evenodd" clip-rule="evenodd" d="M2175.47 999.368L1537.64 361.799L1537.04 362.4L2174.87 999.97L2175.47 999.368Z" fill="#0A0555"/>
<path fill-rule="evenodd" clip-rule="evenodd" d="M1821.12 1353.57L1183.3 716.004L1182.7 716.605L1820.52 1354.18L1821.12 1353.57Z" fill="#0A0555"/>
<path fill-rule="evenodd" clip-rule="evenodd" d="M1584.89 1589.71L947.066 952.141L946.465 952.742L1584.29 1590.31L1584.89 1589.71Z" fill="#0A0555"/>
<path fill-rule="evenodd" clip-rule="evenodd" d="M2057.35 1117.44L1419.53 479.867L1418.93 480.469L2056.75 1118.04L2057.35 1117.44Z" fill="#0A0555"/>
<path fill-rule="evenodd" clip-rule="evenodd" d="M1880.18 1294.54L1242.36 656.97L1241.75 657.571L1879.58 1295.14L1880.18 1294.54Z" fill="#0A0555"/>
<path fill-rule="evenodd" clip-rule="evenodd" d="M1643.95 1530.68L1006.12 893.107L1005.52 893.709L1643.35 1531.28L1643.95 1530.68Z" fill="#0A0555"/>
<path fill-rule="evenodd" clip-rule="evenodd" d="M2116.41 1058.4L1478.59 420.833L1477.98 421.435L2115.81 1059L2116.41 1058.4Z" fill="#0A0555"/>
<path fill-rule="evenodd" clip-rule="evenodd" d="M1762.06 1412.61L1124.24 775.038L1123.64 775.64L1761.46 1413.21L1762.06 1412.61Z" fill="#0A0555"/>
<path fill-rule="evenodd" clip-rule="evenodd" d="M1525.83 1648.74L888.01 1011.17L887.408 1011.78L1525.23 1649.35L1525.83 1648.74Z" fill="#0A0555"/>
<path fill-rule="evenodd" clip-rule="evenodd" d="M1998.29 1176.47L1360.47 538.901L1359.87 539.503L1997.69 1177.07L1998.29 1176.47Z" fill="#0A0555"/>
<path fill-rule="evenodd" clip-rule="evenodd" d="M1867.77 668.777L1206.32 1329.96L1206.92 1330.56L1868.37 669.378L1867.77 668.777Z" fill="#0A0555"/>
<path fill-rule="evenodd" clip-rule="evenodd" d="M2104 904.914L1442.55 1566.1L1443.15 1566.7L2104.6 905.516L2104 904.914Z" fill="#0A0555"/>
<path fill-rule="evenodd" clip-rule="evenodd" d="M1631.53 432.64L970.088 1093.82L970.69 1094.42L1632.14 433.241L1631.53 432.64Z" fill="#0A0555"/>
<path fill-rule="evenodd" clip-rule="evenodd" d="M1985.88 786.845L1324.44 1448.03L1325.04 1448.63L1986.48 787.447L1985.88 786.845Z" fill="#0A0555"/>
<path fill-rule="evenodd" clip-rule="evenodd" d="M1749.65 550.708L1088.2 1211.89L1088.8 1212.49L1750.25 551.31L1749.65 550.708Z" fill="#0A0555"/>
<path fill-rule="evenodd" clip-rule="evenodd" d="M1926.82 727.811L1265.38 1388.99L1265.98 1389.6L1927.42 728.412L1926.82 727.811Z" fill="#0A0555"/>
<path fill-rule="evenodd" clip-rule="evenodd" d="M2163.05 963.947L1501.61 1625.13L1502.21 1625.73L2163.66 964.549L2163.05 963.947Z" fill="#0A0555"/>
<path fill-rule="evenodd" clip-rule="evenodd" d="M1690.59 491.674L1029.15 1152.86L1029.75 1153.46L1691.19 492.275L1690.59 491.674Z" fill="#0A0555"/>
<path fill-rule="evenodd" clip-rule="evenodd" d="M2044.94 845.879L1383.49 1507.06L1384.09 1507.66L2045.54 846.481L2044.94 845.879Z" fill="#0A0555"/>
<path fill-rule="evenodd" clip-rule="evenodd" d="M1572.48 373.606L911.031 1034.79L911.633 1035.39L1573.08 374.207L1572.48 373.606Z" fill="#0A0555"/>
<path fill-rule="evenodd" clip-rule="evenodd" d="M1808.71 609.742L1147.26 1270.93L1147.86 1271.53L1809.31 610.344L1808.71 609.742Z" fill="#0A0555"/>
<path fill-rule="evenodd" clip-rule="evenodd" d="M1879.58 680.584L1218.13 1341.77L1218.73 1342.37L1880.18 681.186L1879.58 680.584Z" fill="#0A0555"/>
<path fill-rule="evenodd" clip-rule="evenodd" d="M2115.81 916.721L1454.36 1577.9L1454.96 1578.51L2116.41 917.322L2115.81 916.721Z" fill="#0A0555"/>
<path fill-rule="evenodd" clip-rule="evenodd" d="M1643.35 444.447L981.9 1105.63L982.502 1106.23L1643.95 445.048L1643.35 444.447Z" fill="#0A0555"/>
<path fill-rule="evenodd" clip-rule="evenodd" d="M1997.69 798.652L1336.25 1459.83L1336.85 1460.44L1998.29 799.253L1997.69 798.652Z" fill="#0A0555"/>
<path fill-rule="evenodd" clip-rule="evenodd" d="M1761.46 562.515L1100.02 1223.7L1100.62 1224.3L1762.06 563.116L1761.46 562.515Z" fill="#0A0555"/>
<path fill-rule="evenodd" clip-rule="evenodd" d="M1938.64 739.617L1277.19 1400.8L1277.79 1401.4L1939.24 740.219L1938.64 739.617Z" fill="#0A0555"/>
<path fill-rule="evenodd" clip-rule="evenodd" d="M2174.87 975.754L1513.42 1636.94L1514.02 1637.54L2175.47 976.356L2174.87 975.754Z" fill="#0A0555"/>
<path fill-rule="evenodd" clip-rule="evenodd" d="M1702.4 503.482L1040.96 1164.67L1041.56 1165.27L1703 504.083L1702.4 503.482Z" fill="#0A0555"/>
<path fill-rule="evenodd" clip-rule="evenodd" d="M2056.75 857.687L1395.3 1518.87L1395.91 1519.47L2057.35 858.288L2056.75 857.687Z" fill="#0A0555"/>
<path fill-rule="evenodd" clip-rule="evenodd" d="M1584.29 385.413L922.842 1046.6L923.444 1047.2L1584.89 386.015L1584.29 385.413Z" fill="#0A0555"/>
<path fill-rule="evenodd" clip-rule="evenodd" d="M1820.52 621.55L1159.07 1282.73L1159.67 1283.33L1821.12 622.151L1820.52 621.55Z" fill="#0A0555"/>
<path fill-rule="evenodd" clip-rule="evenodd" d="M1891.39 692.39L1229.94 1353.57L1230.55 1354.17L1891.99 692.991L1891.39 692.39Z" fill="#0A0555"/>
<path fill-rule="evenodd" clip-rule="evenodd" d="M2127.62 928.528L1466.17 1589.71L1466.78 1590.31L2128.22 929.129L2127.62 928.528Z" fill="#0A0555"/>
<path fill-rule="evenodd" clip-rule="evenodd" d="M1655.16 456.254L993.711 1117.44L994.313 1118.04L1655.76 456.856L1655.16 456.254Z" fill="#0A0555"/>
<path fill-rule="evenodd" clip-rule="evenodd" d="M2009.5 810.459L1348.06 1471.64L1348.66 1472.24L2010.11 811.061L2009.5 810.459Z" fill="#0A0555"/>
<path fill-rule="evenodd" clip-rule="evenodd" d="M1773.27 574.322L1111.83 1235.51L1112.43 1236.11L1773.87 574.924L1773.27 574.322Z" fill="#0A0555"/>
<path fill-rule="evenodd" clip-rule="evenodd" d="M1950.45 751.425L1289 1412.61L1289.6 1413.21L1951.05 752.027L1950.45 751.425Z" fill="#0A0555"/>
<path fill-rule="evenodd" clip-rule="evenodd" d="M2186.68 987.562L1525.23 1648.75L1525.83 1649.35L2187.28 988.163L2186.68 987.562Z" fill="#0A0555"/>
<path fill-rule="evenodd" clip-rule="evenodd" d="M1714.22 515.288L1052.77 1176.47L1053.37 1177.07L1714.82 515.89L1714.22 515.288Z" fill="#0A0555"/>
<path fill-rule="evenodd" clip-rule="evenodd" d="M2068.56 869.494L1407.12 1530.68L1407.72 1531.28L2069.16 870.095L2068.56 869.494Z" fill="#0A0555"/>
<path fill-rule="evenodd" clip-rule="evenodd" d="M1596.1 397.22L934.654 1058.4L935.256 1059L1596.7 397.821L1596.1 397.22Z" fill="#0A0555"/>
<path fill-rule="evenodd" clip-rule="evenodd" d="M1832.33 633.357L1170.88 1294.54L1171.49 1295.14L1832.93 633.958L1832.33 633.357Z" fill="#0A0555"/>
<path fill-rule="evenodd" clip-rule="evenodd" d="M1903.2 704.198L1241.75 1365.38L1242.36 1365.98L1903.8 704.799L1903.2 704.198Z" fill="#0A0555"/>
<path fill-rule="evenodd" clip-rule="evenodd" d="M2139.43 940.334L1477.98 1601.52L1478.59 1602.12L2140.03 940.936L2139.43 940.334Z" fill="#0A0555"/>
<path fill-rule="evenodd" clip-rule="evenodd" d="M1666.97 468.061L1005.52 1129.24L1006.13 1129.85L1667.57 468.662L1666.97 468.061Z" fill="#0A0555"/>
<path fill-rule="evenodd" clip-rule="evenodd" d="M2021.32 822.266L1359.87 1483.45L1360.47 1484.05L2021.92 822.867L2021.32 822.266Z" fill="#0A0555"/>
<path fill-rule="evenodd" clip-rule="evenodd" d="M1548.85 349.992L887.408 1011.18L888.01 1011.78L1549.46 350.594L1548.85 349.992Z" fill="#0A0555"/>
<path fill-rule="evenodd" clip-rule="evenodd" d="M1785.08 586.129L1123.64 1247.31L1124.24 1247.91L1785.69 586.731L1785.08 586.129Z" fill="#0A0555"/>
<path fill-rule="evenodd" clip-rule="evenodd" d="M1962.26 763.231L1300.81 1424.42L1301.41 1425.02L1962.86 763.833L1962.26 763.231Z" fill="#0A0555"/>
<path fill-rule="evenodd" clip-rule="evenodd" d="M1726.03 527.095L1064.58 1188.28L1065.18 1188.88L1726.63 527.696L1726.03 527.095Z" fill="#0A0555"/>
<path fill-rule="evenodd" clip-rule="evenodd" d="M2080.37 881.3L1418.93 1542.48L1419.53 1543.08L2080.98 881.901L2080.37 881.3Z" fill="#0A0555"/>
<path fill-rule="evenodd" clip-rule="evenodd" d="M1607.91 409.027L946.465 1070.21L947.067 1070.81L1608.51 409.628L1607.91 409.027Z" fill="#0A0555"/>
<path fill-rule="evenodd" clip-rule="evenodd" d="M1844.14 645.163L1182.7 1306.35L1183.3 1306.95L1844.74 645.765L1844.14 645.163Z" fill="#0A0555"/>
<path fill-rule="evenodd" clip-rule="evenodd" d="M1915.01 716.004L1253.57 1377.19L1254.17 1377.79L1915.61 716.606L1915.01 716.004Z" fill="#0A0555"/>
<path fill-rule="evenodd" clip-rule="evenodd" d="M2151.24 952.141L1489.8 1613.32L1490.4 1613.93L2151.84 952.742L2151.24 952.141Z" fill="#0A0555"/>
<path fill-rule="evenodd" clip-rule="evenodd" d="M1678.78 479.867L1017.33 1141.05L1017.94 1141.65L1679.38 480.469L1678.78 479.867Z" fill="#0A0555"/>
<path fill-rule="evenodd" clip-rule="evenodd" d="M2033.13 834.072L1371.68 1495.26L1372.28 1495.86L2033.73 834.674L2033.13 834.072Z" fill="#0A0555"/>
<path fill-rule="evenodd" clip-rule="evenodd" d="M1560.66 361.799L899.219 1022.98L899.82 1023.58L1561.27 362.4L1560.66 361.799Z" fill="#0A0555"/>
<path fill-rule="evenodd" clip-rule="evenodd" d="M1796.9 597.936L1135.45 1259.12L1136.05 1259.72L1797.5 598.537L1796.9 597.936Z" fill="#0A0555"/>
<path fill-rule="evenodd" clip-rule="evenodd" d="M1974.07 775.038L1312.62 1436.22L1313.22 1436.82L1974.67 775.64L1974.07 775.038Z" fill="#0A0555"/>
<path fill-rule="evenodd" clip-rule="evenodd" d="M1737.84 538.902L1076.39 1200.08L1076.99 1200.69L1738.44 539.503L1737.84 538.902Z" fill="#0A0555"/>
<path fill-rule="evenodd" clip-rule="evenodd" d="M2092.18 893.107L1430.74 1554.29L1431.34 1554.89L2092.79 893.708L2092.18 893.107Z" fill="#0A0555"/>
<path fill-rule="evenodd" clip-rule="evenodd" d="M1619.72 420.833L958.277 1082.02L958.879 1082.62L1620.33 421.435L1619.72 420.833Z" fill="#0A0555"/>
<path fill-rule="evenodd" clip-rule="evenodd" d="M1855.95 656.97L1194.51 1318.15L1195.11 1318.75L1856.56 657.571L1855.95 656.97Z" fill="#0A0555"/>
</g>
<path d="M1533.43 1153.31L1566.62 839C1541.43 839 1525.34 846.656 1520.66 874.302L1494.71 1102.27C1491.73 1128.64 1475.99 1132.47 1460.24 1132.47H1292.17C1268.35 1132.47 1262.67 1151.75 1262.82 1161.39V1173.73H1509.6C1527.3 1173.73 1532.86 1160.12 1533.43 1153.31Z" fill="url(#paint8_linear)"/>
</g>
<defs>
<linearGradient id="paint0_linear" x1="926.426" y1="973.025" x2="926.426" y2="1449" gradientUnits="userSpaceOnUse">
<stop stop-color="#3E64C8"/>
<stop offset="1" stop-color="#1A1C86"/>
</linearGradient>
<linearGradient id="paint1_linear" x1="20.6056" y1="839" x2="20.6056" y2="1262" gradientUnits="userSpaceOnUse">
<stop stop-color="#375CE2"/>
<stop offset="1" stop-color="#1B32A4"/>
</linearGradient>
<linearGradient id="paint2_linear" x1="26.0769" y1="1261.88" x2="26.0769" y2="1451.16" gradientUnits="userSpaceOnUse">
<stop stop-color="#2836B0"/>
<stop offset="1" stop-color="#0B187D"/>
</linearGradient>
<linearGradient id="paint3_linear" x1="436.473" y1="839" x2="436.473" y2="1173.73" gradientUnits="userSpaceOnUse">
<stop stop-color="#4B77EA"/>
<stop offset="1" stop-color="#284EB0"/>
</linearGradient>
<linearGradient id="paint4_linear" x1="-17.0982" y1="839" x2="-17.0982" y2="1173.73" gradientUnits="userSpaceOnUse">
<stop stop-color="#4975E7"/>
<stop offset="1" stop-color="#284EB0"/>
</linearGradient>
<linearGradient id="paint5_linear" x1="1452.16" y1="839" x2="1452.16" y2="1261.54" gradientUnits="userSpaceOnUse">
<stop stop-color="#375CE2"/>
<stop offset="1" stop-color="#172C9C"/>
</linearGradient>
<linearGradient id="paint6_linear" x1="1868.29" y1="839" x2="1868.29" y2="1173.73" gradientUnits="userSpaceOnUse">
<stop stop-color="#507AE9"/>
<stop offset="1" stop-color="#284EB0"/>
</linearGradient>
<linearGradient id="paint7_linear" x1="1468.43" y1="1261.77" x2="1468.43" y2="1443.78" gradientUnits="userSpaceOnUse">
<stop stop-color="#2846B0"/>
<stop offset="1" stop-color="#091B93"/>
</linearGradient>
<linearGradient id="paint8_linear" x1="1414.71" y1="839" x2="1414.71" y2="1173.73" gradientUnits="userSpaceOnUse">
<stop stop-color="#507AE9"/>
<stop offset="1" stop-color="#284EB0"/>
</linearGradient>
<clipPath id="clip0">
<rect width="1920" height="1598" fill="white"/>
</clipPath>
</defs>
</svg>
