<?xml version="1.0" encoding="UTF-8"?>
<svg fill="none" viewBox="0 0 2190 613" xmlns="http://www.w3.org/2000/svg">
<path d="m834.94 167.88c-1.103 0-2.004-0.898-1.94-2 1.034-17.778 15.764-31.876 33.784-31.876h456.42c18.02 0 32.75 14.098 33.79 31.876 0.06 1.102-0.84 2-1.94 2h-241.58c-1.1 0-1.99 0.895-1.99 2v389.48c0 1.105-0.9 2.001-2 2.001h-31.58c-1.11 0-2-0.896-2-2.001v-389.48c0-1.105-0.89-2-2-2h-238.97zm240.4 393.48c-0.23 0-0.47 0.041-0.69 0.122l-82.467 30.24c-0.788 0.289-1.311 1.039-1.311 1.878v14.402c0 1.105 0.894 2 1.998 2h199.92c1.1 0 2-0.895 2-2v-14.402c0-0.839-0.52-1.589-1.31-1.878l-82.47-30.24c-0.22-0.081-0.46-0.122-0.69-0.122h-34.98z" clip-rule="evenodd" fill="url(#i)" fill-rule="evenodd"/>
<path d="m379 0h-80.057l-48.972 334.48h-249.97v60.428c0 9.363 4.9398 28.087 24.699 28.087h708.6c19.759 0 24.699-18.724 24.699-28.087v-60.428h-249.97l-48.972-334.48h-80.059z" clip-rule="evenodd" fill="url(#h)" fill-rule="evenodd"/>
<path d="m14 423h723v189h-723v-189z" clip-rule="evenodd" fill="url(#g)" fill-rule="evenodd"/>
<mask id="m" x="378" y="0" width="378" height="423" style="mask-type:alpha" maskUnits="userSpaceOnUse">
<path d="M457.847 0H378V423H731.366C751.073 423 756 404.276 756 394.913V334.485H506.69L457.847 0Z" fill="#1E2F93"/>
</mask>
<g clip-rule="evenodd" fill="#0A0555" fill-rule="evenodd" mask="url(#m)">
<path d="m37.522 348.73 636.48-637.73 0.706 0.708-636.48 637.73-0.7065-0.708z"/>
<path d="m273.52 585.73 636.48-637.73 0.706 0.7078-636.48 637.73-0.707-0.708z"/>
<path d="m155.52 466.73 636.48-637.73 0.706 0.708-636.48 637.73-0.707-0.708z"/>
<path d="m391.52 703.73 636.48-637.73 0.71 0.7078-636.48 637.73-0.707-0.708z"/>
<path d="m-80.478 230.73 636.48-637.73 0.706 0.708-636.48 637.73-0.7064-0.708z"/>
<path d="m96.522 407.73 636.48-637.73 0.706 0.708-636.48 637.73-0.7065-0.708z"/>
<path d="m332.52 644.73 636.48-637.73 0.706 0.7078-636.48 637.73-0.707-0.708z"/>
<path d="m-139.48 171.73 636.48-637.73 0.706 0.708-636.48 637.73-0.707-0.708z"/>
<path d="m214.52 526.73 636.48-637.73 0.706 0.708-636.48 637.73-0.707-0.708z"/>
<path d="m450.52 762.73 636.48-637.73 0.71 0.708-636.48 637.73-0.707-0.708z"/>
<path d="m-21.478 289.73 636.48-637.73 0.706 0.708-636.48 637.73-0.7064-0.708z"/>
<path d="m49.522 360.73 636.48-637.73 0.706 0.708-636.48 637.73-0.7065-0.708z"/>
<path d="m285.52 596.73 636.48-637.73 0.706 0.7078-636.48 637.73-0.707-0.708z"/>
<path d="m167.52 478.73 636.48-637.73 0.706 0.708-636.48 637.73-0.707-0.708z"/>
<path d="m403.52 715.73 636.48-637.73 0.71 0.7078-636.48 637.73-0.707-0.708z"/>
<path d="m-68.478 242.73 636.48-637.73 0.706 0.708-636.48 637.73-0.7064-0.708z"/>
<path d="m108.52 419.73 636.48-637.73 0.706 0.708-636.48 637.73-0.707-0.708z"/>
<path d="m344.52 656.73 636.48-637.73 0.706 0.7078-636.48 637.73-0.707-0.708z"/>
<path d="m-127.48 183.73 636.48-637.73 0.706 0.708-636.48 637.73-0.707-0.708z"/>
<path d="m226.52 537.73 636.48-637.73 0.706 0.7078-636.48 637.73-0.707-0.708z"/>
<path d="m462.52 774.73 636.48-637.73 0.71 0.708-636.48 637.73-0.707-0.708z"/>
<path d="m-9.4778 301.73 636.48-637.73 0.706 0.708-636.48 637.73-0.70641-0.708z"/>
<path d="m61.522 372.73 636.48-637.73 0.706 0.708-636.48 637.73-0.7064-0.708z"/>
<path d="m297.52 608.73 636.48-637.73 0.706 0.7078-636.48 637.73-0.706-0.708z"/>
<path d="m179.52 490.73 636.48-637.73 0.706 0.708-636.48 637.73-0.707-0.708z"/>
<path d="m415.52 726.73 636.48-637.73 0.71 0.7078-636.48 637.73-0.707-0.708z"/>
<path d="m-56.477 254.73 636.48-637.73 0.706 0.708-636.48 637.73-0.7064-0.708z"/>
<path d="m120.52 431.73 636.48-637.73 0.706 0.708-636.48 637.73-0.707-0.708z"/>
<path d="m356.52 667.73 636.48-637.73 0.706 0.7078-636.48 637.73-0.707-0.708z"/>
<path d="m-115.48 195.73 636.48-637.73 0.706 0.708-636.48 637.73-0.707-0.708z"/>
<path d="m238.52 549.73 636.48-637.73 0.706 0.7078-636.48 637.73-0.707-0.708z"/>
<path d="m474.52 786.73 636.48-637.73 0.71 0.708-636.48 637.73-0.707-0.708z"/>
<path d="m2.5232 313.73 636.48-637.73 0.706 0.708-636.48 637.73-0.70641-0.708z"/>
<path d="m73.523 384.73 636.48-637.73 0.706 0.708-636.48 637.73-0.7064-0.708z"/>
<path d="m309.52 620.73 636.48-637.73 0.706 0.7078-636.48 637.73-0.707-0.708z"/>
<path d="m-162.48 147.73 636.48-637.73 0.706 0.708-636.48 637.73-0.707-0.708z"/>
<path d="m191.52 502.73 636.48-637.73 0.706 0.708-636.48 637.73-0.707-0.708z"/>
<path d="m426.52 738.73 636.48-637.73 0.71 0.708-636.48 637.73-0.707-0.708z"/>
<path d="m-44.478 265.73 636.48-637.73 0.706 0.708-636.48 637.73-0.7065-0.708z"/>
<path d="m132.52 443.73 636.48-637.73 0.706 0.708-636.48 637.73-0.707-0.708z"/>
<path d="m368.52 679.73 636.48-637.73 0.71 0.7078-636.48 637.73-0.707-0.708z"/>
<path d="m-103.48 206.73 636.48-637.73 0.706 0.708-636.48 637.73-0.707-0.708z"/>
<path d="m250.52 561.73 636.48-637.73 0.706 0.7078-636.48 637.73-0.707-0.708z"/>
<path d="m485.52 797.73 636.48-637.73 0.71 0.708-636.48 637.73-0.707-0.708z"/>
<path d="m14.523 325.73 636.48-637.73 0.706 0.708-636.48 637.73-0.7064-0.708z"/>
<path d="m84.523 396.73 636.48-637.73 0.706 0.708-636.48 637.73-0.7064-0.708z"/>
<path d="m320.52 632.73 636.48-637.73 0.706 0.7078-636.48 637.73-0.707-0.708z"/>
<path d="m-151.48 159.73 636.48-637.73 0.706 0.708-636.48 637.73-0.707-0.708z"/>
<path d="m202.52 514.73 636.48-637.73 0.706 0.708-636.48 637.73-0.707-0.708z"/>
<path d="m438.52 750.73 636.48-637.73 0.71 0.708-636.48 637.73-0.707-0.708z"/>
<path d="m-33.477 277.73 636.48-637.73 0.706 0.708-636.48 637.73-0.7064-0.708z"/>
<path d="m143.52 455.73 636.48-637.73 0.706 0.708-636.48 637.73-0.707-0.708z"/>
<path d="m379.52 691.73 636.48-637.73 0.71 0.7078-636.48 637.73-0.707-0.708z"/>
<path d="m-92.477 218.73 636.48-637.73 0.706 0.708-636.48 637.73-0.7064-0.708z"/>
<path d="m261.52 573.73 636.48-637.73 0.706 0.7078-636.48 637.73-0.707-0.708z"/>
<path d="m497.52 809.73 636.48-637.73 0.71 0.708-636.48 637.73-0.707-0.708z"/>
<path d="m25.523 336.73 636.48-637.73 0.706 0.708-636.48 637.73-0.7064-0.708z"/>
<path d="m155.5-170.79 660.5 661.79-0.706 0.708-660.5-661.79 0.706-0.707z"/>
<path d="m-80.496 65.207 660.5 661.79-0.706 0.708-660.5-661.79 0.7064-0.7078z"/>
<path d="m391.5-407.79 660.5 661.79-0.71 0.708-660.49-661.79 0.706-0.708z"/>
<path d="m37.504-52.794 660.5 661.79-0.706 0.708-660.5-661.79 0.7064-0.7078z"/>
<path d="m273.5-288.79 660.5 661.79-0.706 0.708-660.5-661.79 0.706-0.708z"/>
<path d="m96.504-111.79 660.5 661.79-0.706 0.708-660.5-661.79 0.7064-0.708z"/>
<path d="m-139.5 124.21 660.5 661.79-0.706 0.708-660.5-661.79 0.706-0.707z"/>
<path d="m332.5-348.79 660.5 661.79-0.706 0.708-660.5-661.79 0.706-0.708z"/>
<path d="m-21.495 6.2058 660.5 661.79-0.706 0.708-660.5-661.79 0.7064-0.7078z"/>
<path d="m450.5-466.79 660.5 661.79-0.71 0.708-660.49-661.79 0.706-0.707z"/>
<path d="m214.5-229.79 660.5 661.79-0.706 0.708-660.5-661.79 0.706-0.708z"/>
<path d="m143.5-159.79 660.5 661.79-0.706 0.708-660.5-661.79 0.706-0.708z"/>
<path d="m-91.495 77.207 660.5 661.79-0.706 0.708-660.5-661.79 0.7065-0.7078z"/>
<path d="m379.5-395.79 660.5 661.79-0.71 0.708-660.49-661.79 0.706-0.707z"/>
<path d="m26.505-40.793 660.5 661.79-0.706 0.708-660.5-661.79 0.7064-0.7078z"/>
<path d="m261.5-277.79 660.5 661.79-0.706 0.708-660.5-661.79 0.706-0.707z"/>
<path d="m84.505-99.793 660.5 661.79-0.706 0.708-660.5-661.79 0.7064-0.7078z"/>
<path d="m-150.5 136.21 660.5 661.79-0.706 0.708-660.5-661.79 0.706-0.708z"/>
<path d="m320.5-336.79 660.5 661.79-0.706 0.708-660.5-661.79 0.706-0.707z"/>
<path d="m-32.495 18.207 660.5 661.79-0.706 0.708-660.5-661.79 0.7064-0.7078z"/>
<path d="m438.5-454.79 660.5 661.79-0.71 0.708-660.49-661.79 0.706-0.707z"/>
<path d="m202.5-218.79 660.5 661.79-0.706 0.708-660.5-661.79 0.706-0.707z"/>
<path d="m132.5-147.79 660.5 661.79-0.706 0.708-660.5-661.79 0.706-0.707z"/>
<path d="m-103.5 89.207 660.5 661.79-0.706 0.708-660.5-661.79 0.706-0.7078z"/>
<path d="m367.5-383.79 660.5 661.79-0.71 0.708-660.49-661.79 0.706-0.707z"/>
<path d="m14.505-29.793 660.5 661.79-0.706 0.708-660.5-661.79 0.7064-0.7078z"/>
<path d="m249.5-265.79 660.5 661.79-0.706 0.708-660.5-661.79 0.706-0.708z"/>
<path d="m73.505-88.794 660.5 661.79-0.706 0.708-660.5-661.79 0.7065-0.7078z"/>
<path d="m-162.5 148.21 660.5 661.79-0.706 0.708-660.5-661.79 0.706-0.707z"/>
<path d="m308.5-324.79 660.5 661.79-0.706 0.708-660.5-661.79 0.706-0.708z"/>
<path d="m-44.495 29.207 660.5 661.79-0.706 0.708-660.5-661.79 0.7064-0.7078z"/>
<path d="m426.5-442.79 660.5 661.79-0.71 0.708-660.49-661.79 0.706-0.707z"/>
<path d="m191.5-206.79 660.5 661.79-0.706 0.708-660.5-661.79 0.706-0.707z"/>
<path d="m120.5-135.79 660.5 661.79-0.706 0.708-660.5-661.79 0.706-0.708z"/>
<path d="m-115.5 100.21 660.5 661.79-0.706 0.708-660.5-661.79 0.706-0.707z"/>
<path d="m356.5-371.79 660.5 661.79-0.71 0.708-660.49-661.79 0.706-0.707z"/>
<path d="m2.5052-17.793 660.5 661.79-0.706 0.708-660.5-661.79 0.70641-0.7078z"/>
<path d="m473.5-489.79 660.5 661.79-0.71 0.708-660.49-661.79 0.706-0.707z"/>
<path d="m238.5-253.79 660.5 661.79-0.706 0.708-660.5-661.79 0.706-0.707z"/>
<path d="m61.505-76.793 660.5 661.79-0.706 0.708-660.5-661.79 0.7064-0.7078z"/>
<path d="m297.5-312.79 660.5 661.79-0.706 0.708-660.5-661.79 0.706-0.707z"/>
<path d="m-56.495 41.207 660.5 661.79-0.706 0.708-660.5-661.79 0.7064-0.7078z"/>
<path d="m415.5-430.79 660.5 661.79-0.71 0.708-660.49-661.79 0.706-0.708z"/>
<path d="m179.5-194.79 660.5 661.79-0.706 0.708-660.5-661.79 0.706-0.708z"/>
<path d="m108.5-123.79 660.5 661.79-0.706 0.708-660.5-661.79 0.706-0.707z"/>
<path d="m-127.5 112.21 660.5 661.79-0.706 0.708-660.5-661.79 0.706-0.707z"/>
<path d="m344.5-359.79 660.5 661.79-0.71 0.708-660.49-661.79 0.706-0.707z"/>
<path d="m-9.4948-5.7933 660.5 661.79-0.706 0.708-660.5-661.79 0.70644-0.7078z"/>
<path d="m462.5-477.79 660.5 661.79-0.71 0.708-660.49-661.79 0.706-0.708z"/>
<path d="m226.5-241.79 660.5 661.79-0.706 0.708-660.5-661.79 0.706-0.707z"/>
<path d="m49.505-64.793 660.5 661.79-0.706 0.708-660.5-661.79 0.7064-0.7078z"/>
<path d="m285.5-300.79 660.5 661.79-0.706 0.708-660.5-661.79 0.706-0.707z"/>
<path d="m-68.495 53.207 660.5 661.79-0.706 0.708-660.5-661.79 0.7064-0.7078z"/>
<path d="m403.5-418.79 660.5 661.79-0.71 0.708-660.49-661.79 0.706-0.708z"/>
<path d="m167.5-182.79 660.5 661.79-0.706 0.708-660.5-661.79 0.706-0.707z"/>
</g>
<path d="m486.21 314.57-33.21-314.57c25.205 0 41.299 7.662 45.983 35.33l25.972 228.16c2.98 26.391 18.733 30.222 34.487 30.222h168.18c23.842 0 29.519 19.297 29.377 28.946v12.344h-246.94c-17.712 0-23.276-13.621-23.843-20.432z" fill="url(#f)"/>
<mask id="l" x="0" y="0" width="378" height="423" style="mask-type:alpha" maskUnits="userSpaceOnUse">
<path d="m298.15 0h79.847v423h-353.37c-19.707 0-24.634-18.724-24.634-28.087v-60.428h249.31l48.843-334.48z" fill="#1E2F93"/>
</mask>
<g clip-rule="evenodd" fill="#0A0555" fill-rule="evenodd" mask="url(#l)">
<path d="m722.48 348.73-636.48-637.73-0.7064 0.708 636.48 637.73 0.707-0.708z"/>
<path d="m486.48 585.73-636.48-637.73-0.706 0.7078 636.48 637.73 0.707-0.708z"/>
<path d="m604.48 466.73-636.48-637.73-0.7064 0.708 636.48 637.73 0.707-0.708z"/>
<path d="m368.48 703.73-636.48-637.73-0.706 0.7078 636.48 637.73 0.707-0.708z"/>
<path d="m840.48 230.73-636.48-637.73-0.706 0.708 636.48 637.73 0.707-0.708z"/>
<path d="m663.48 407.73-636.48-637.73-0.7064 0.708 636.48 637.73 0.707-0.708z"/>
<path d="m427.48 644.73-636.48-637.73-0.706 0.7078 636.48 637.73 0.707-0.708z"/>
<path d="m899.48 171.73-636.48-637.73-0.706 0.708 636.48 637.73 0.707-0.708z"/>
<path d="m545.48 526.73-636.48-637.73-0.7064 0.708 636.48 637.73 0.707-0.708z"/>
<path d="m309.48 762.73-636.48-637.73-0.706 0.708 636.48 637.73 0.707-0.708z"/>
<path d="m781.48 289.73-636.48-637.73-0.706 0.708 636.48 637.73 0.707-0.708z"/>
<path d="m710.48 360.73-636.48-637.73-0.7064 0.708 636.48 637.73 0.707-0.708z"/>
<path d="m474.48 596.73-636.48-637.73-0.706 0.7078 636.48 637.73 0.707-0.708z"/>
<path d="m592.48 478.73-636.48-637.73-0.7064 0.708 636.48 637.73 0.707-0.708z"/>
<path d="m356.48 715.73-636.48-637.73-0.706 0.7078 636.48 637.73 0.707-0.708z"/>
<path d="m828.48 242.73-636.48-637.73-0.706 0.708 636.48 637.73 0.707-0.708z"/>
<path d="m651.48 419.73-636.48-637.73-0.7064 0.708 636.48 637.73 0.707-0.708z"/>
<path d="m415.48 656.73-636.48-637.73-0.706 0.7078 636.48 637.73 0.707-0.708z"/>
<path d="m887.48 183.73-636.48-637.73-0.706 0.708 636.48 637.73 0.707-0.708z"/>
<path d="m533.48 537.73-636.48-637.73-0.706 0.7078 636.48 637.73 0.707-0.708z"/>
<path d="m297.48 774.73-636.48-637.73-0.706 0.708 636.48 637.73 0.707-0.708z"/>
<path d="m769.48 301.73-636.48-637.73-0.706 0.708 636.48 637.73 0.707-0.708z"/>
<path d="m698.48 372.73-636.48-637.73-0.7064 0.708 636.48 637.73 0.707-0.708z"/>
<path d="m462.48 608.73-636.48-637.73-0.706 0.7078 636.48 637.73 0.707-0.708z"/>
<path d="m580.48 490.73-636.48-637.73-0.7064 0.708 636.48 637.73 0.707-0.708z"/>
<path d="m344.48 726.73-636.48-637.73-0.706 0.7078 636.48 637.73 0.707-0.708z"/>
<path d="m816.48 254.73-636.48-637.73-0.706 0.708 636.48 637.73 0.707-0.708z"/>
<path d="m639.48 431.73-636.48-637.73-0.70642 0.708 636.48 637.73 0.706-0.708z"/>
<path d="m403.48 667.73-636.48-637.73-0.706 0.7078 636.48 637.73 0.707-0.708z"/>
<path d="m875.48 195.73-636.48-637.73-0.706 0.708 636.48 637.73 0.707-0.708z"/>
<path d="m521.48 549.73-636.48-637.73-0.706 0.7078 636.48 637.73 0.707-0.708z"/>
<path d="m285.48 786.73-636.48-637.73-0.706 0.708 636.48 637.73 0.707-0.708z"/>
<path d="m757.48 313.73-636.48-637.73-0.706 0.708 636.48 637.73 0.707-0.708z"/>
<path d="m686.48 384.73-636.48-637.73-0.7064 0.708 636.48 637.73 0.707-0.708z"/>
<path d="m450.48 620.73-636.48-637.73-0.706 0.7078 636.48 637.73 0.707-0.708z"/>
<path d="m922.48 147.73-636.48-637.73-0.706 0.708 636.48 637.73 0.707-0.708z"/>
<path d="m568.48 502.73-636.48-637.73-0.7064 0.708 636.48 637.73 0.707-0.708z"/>
<path d="m333.48 738.73-636.48-637.73-0.706 0.708 636.48 637.73 0.707-0.708z"/>
<path d="m804.48 265.73-636.48-637.73-0.706 0.708 636.48 637.73 0.707-0.708z"/>
<path d="m627.48 443.73-636.48-637.73-0.70641 0.708 636.48 637.73 0.707-0.708z"/>
<path d="m391.48 679.73-636.48-637.73-0.706 0.7078 636.48 637.73 0.707-0.708z"/>
<path d="m863.48 206.73-636.48-637.73-0.706 0.708 636.48 637.73 0.707-0.708z"/>
<path d="m509.48 561.73-636.48-637.73-0.706 0.7078 636.48 637.73 0.707-0.708z"/>
<path d="m274.48 797.73-636.48-637.73-0.706 0.708 636.48 637.73 0.707-0.708z"/>
<path d="m745.48 325.73-636.48-637.73-0.706 0.708 636.48 637.73 0.707-0.708z"/>
<path d="m675.48 396.73-636.48-637.73-0.7064 0.708 636.48 637.73 0.707-0.708z"/>
<path d="m439.48 632.73-636.48-637.73-0.706 0.7078 636.48 637.73 0.707-0.708z"/>
<path d="m911.48 159.73-636.48-637.73-0.706 0.708 636.48 637.73 0.707-0.708z"/>
<path d="m557.48 514.73-636.48-637.73-0.7064 0.708 636.48 637.73 0.707-0.708z"/>
<path d="m321.48 750.73-636.48-637.73-0.706 0.708 636.48 637.73 0.707-0.708z"/>
<path d="m793.48 277.73-636.48-637.73-0.706 0.708 636.48 637.73 0.707-0.708z"/>
<path d="m616.48 455.73-636.48-637.73-0.7064 0.708 636.48 637.73 0.707-0.708z"/>
<path d="m380.48 691.73-636.48-637.73-0.706 0.7078 636.48 637.73 0.707-0.708z"/>
<path d="m852.48 218.73-636.48-637.73-0.706 0.708 636.48 637.73 0.707-0.708z"/>
<path d="m498.48 573.73-636.48-637.73-0.706 0.7078 636.48 637.73 0.707-0.708z"/>
<path d="m262.48 809.73-636.48-637.73-0.706 0.708 636.48 637.73 0.707-0.708z"/>
<path d="m734.48 336.73-636.48-637.73-0.7064 0.708 636.48 637.73 0.706-0.708z"/>
<path d="m604.5-170.79-660.5 661.79 0.7064 0.708 660.5-661.79-0.706-0.708z"/>
<path d="m840.5 65.207-660.5 661.79 0.706 0.708 660.5-661.79-0.706-0.7078z"/>
<path d="m368.5-407.79-660.5 661.79 0.706 0.708 660.5-661.79-0.706-0.707z"/>
<path d="m722.5-52.793-660.5 661.79 0.7064 0.708 660.5-661.79-0.706-0.7078z"/>
<path d="m486.5-288.79-660.5 661.79 0.706 0.708 660.5-661.79-0.706-0.708z"/>
<path d="m663.5-111.79-660.5 661.79 0.70641 0.708 660.5-661.79-0.706-0.708z"/>
<path d="m899.5 124.21-660.5 661.79 0.706 0.708 660.5-661.79-0.706-0.708z"/>
<path d="m427.5-348.79-660.5 661.79 0.706 0.708 660.5-661.79-0.706-0.707z"/>
<path d="m781.5 6.2057-660.5 661.79 0.706 0.708 660.5-661.79-0.706-0.7078z"/>
<path d="m309.5-466.79-660.5 661.79 0.706 0.708 660.5-661.79-0.706-0.707z"/>
<path d="m545.5-229.79-660.5 661.79 0.706 0.708 660.5-661.79-0.706-0.707z"/>
<path d="m616.5-159.79-660.5 661.79 0.7064 0.708 660.5-661.79-0.706-0.707z"/>
<path d="m851.5 77.207-660.5 661.79 0.706 0.708 660.5-661.79-0.706-0.7078z"/>
<path d="m380.5-395.79-660.5 661.79 0.706 0.708 660.5-661.79-0.706-0.708z"/>
<path d="m733.5-40.793-660.5 661.79 0.7064 0.708 660.5-661.79-0.706-0.7078z"/>
<path d="m498.5-277.79-660.5 661.79 0.706 0.708 660.5-661.79-0.706-0.707z"/>
<path d="m675.5-99.793-660.5 661.79 0.7064 0.708 660.5-661.79-0.706-0.7078z"/>
<path d="m910.5 136.21-660.5 661.79 0.706 0.708 660.5-661.79-0.706-0.708z"/>
<path d="m439.5-336.79-660.5 661.79 0.706 0.708 660.5-661.79-0.706-0.708z"/>
<path d="m792.5 18.207-660.5 661.79 0.706 0.708 660.5-661.79-0.706-0.7078z"/>
<path d="m321.5-454.79-660.5 661.79 0.706 0.708 660.5-661.79-0.706-0.708z"/>
<path d="m557.5-218.79-660.5 661.79 0.706 0.708 660.5-661.79-0.706-0.708z"/>
<path d="m627.5-147.79-660.5 661.79 0.7064 0.708 660.5-661.79-0.706-0.707z"/>
<path d="m863.5 89.207-660.5 661.79 0.706 0.708 660.5-661.79-0.706-0.7078z"/>
<path d="m392.5-383.79-660.5 661.79 0.706 0.708 660.5-661.79-0.706-0.707z"/>
<path d="m745.5-29.793-660.5 661.79 0.7064 0.708 660.5-661.79-0.706-0.7078z"/>
<path d="m510.5-265.79-660.5 661.79 0.706 0.708 660.5-661.79-0.706-0.707z"/>
<path d="m686.5-88.793-660.5 661.79 0.7064 0.708 660.5-661.79-0.706-0.7078z"/>
<path d="m922.5 148.21-660.5 661.79 0.706 0.708 660.5-661.79-0.706-0.708z"/>
<path d="m451.5-324.79-660.5 661.79 0.706 0.708 660.5-661.79-0.706-0.707z"/>
<path d="m804.5 29.207-660.5 661.79 0.706 0.708 660.5-661.79-0.706-0.7078z"/>
<path d="m333.5-442.79-660.5 661.79 0.706 0.708 660.5-661.79-0.706-0.707z"/>
<path d="m568.5-206.79-660.5 661.79 0.7064 0.708 660.5-661.79-0.706-0.707z"/>
<path d="m639.5-135.79-660.5 661.79 0.7064 0.708 660.5-661.79-0.706-0.707z"/>
<path d="m875.5 100.21-660.5 661.79 0.706 0.708 660.5-661.79-0.706-0.707z"/>
<path d="m403.5-371.79-660.5 661.79 0.706 0.708 660.5-661.79-0.706-0.707z"/>
<path d="m757.5-17.793-660.5 661.79 0.7064 0.708 660.5-661.79-0.706-0.7078z"/>
<path d="m286.5-489.79-660.5 661.79 0.706 0.708 660.5-661.79-0.706-0.707z"/>
<path d="m521.5-253.79-660.5 661.79 0.706 0.708 660.5-661.79-0.706-0.707z"/>
<path d="m698.5-76.794-660.5 661.79 0.7064 0.708 660.5-661.79-0.706-0.7078z"/>
<path d="m462.5-312.79-660.5 661.79 0.706 0.708 660.5-661.79-0.706-0.707z"/>
<path d="m816.5 41.207-660.5 661.79 0.706 0.708 660.5-661.79-0.706-0.7078z"/>
<path d="m344.5-430.79-660.5 661.79 0.706 0.708 660.5-661.79-0.706-0.707z"/>
<path d="m580.5-194.79-660.5 661.79 0.7064 0.708 660.5-661.79-0.706-0.707z"/>
<path d="m651.5-123.79-660.5 661.79 0.70641 0.708 660.5-661.79-0.706-0.708z"/>
<path d="m887.5 112.21-660.5 661.79 0.706 0.708 660.5-661.79-0.706-0.707z"/>
<path d="m415.5-359.79-660.5 661.79 0.706 0.708 660.5-661.79-0.706-0.707z"/>
<path d="m769.5-5.7933-660.5 661.79 0.706 0.708 660.5-661.79-0.706-0.7078z"/>
<path d="m297.5-477.79-660.5 661.79 0.706 0.708 660.5-661.79-0.706-0.707z"/>
<path d="m533.5-241.79-660.5 661.79 0.706 0.708 660.5-661.79-0.706-0.708z"/>
<path d="m710.5-64.793-660.5 661.79 0.7064 0.708 660.5-661.79-0.706-0.7078z"/>
<path d="m474.5-300.79-660.5 661.79 0.706 0.708 660.5-661.79-0.706-0.707z"/>
<path d="m828.5 53.207-660.5 661.79 0.706 0.708 660.5-661.79-0.706-0.7078z"/>
<path d="m356.5-418.79-660.5 661.79 0.706 0.708 660.5-661.79-0.706-0.708z"/>
<path d="m592.5-182.79-660.5 661.79 0.7064 0.708 660.5-661.79-0.706-0.708z"/>
</g>
<path d="m269.9 314.57 33.101-314.57c-25.122 0-41.164 7.662-45.832 35.33l-25.886 228.16c-2.97 26.391-18.672 30.222-34.374 30.222h-167.62c-23.764 0-29.423 19.297-29.281 28.946v12.344h246.13c17.654 0 23.199-13.621 23.764-20.432z" fill="url(#e)"/>
<path d="m1810.5 0h79.95l48.91 334.48h249.64v60.428c0 9.363-4.93 28.087-24.67 28.087h-707.66c-19.74 0-24.67-18.724-24.67-28.087v-60.428h249.64l48.91-334.48h79.95z" clip-rule="evenodd" fill="url(#d)" fill-rule="evenodd"/>
<mask id="k" x="1810" y="0" width="378" height="423" style="mask-type:alpha" maskUnits="userSpaceOnUse">
<path d="m1889.8 0h-79.85v423h353.37c19.7 0 24.63-18.724 24.63-28.087v-60.428h-249.31l-48.84-334.48z" fill="#1E2F93"/>
</mask>
<g clip-rule="evenodd" fill="#0A0555" fill-rule="evenodd" mask="url(#k)">
<path d="m1469.5 348.73 636.48-637.73 0.71 0.708-636.48 637.73-0.71-0.708z"/>
<path d="m1705.5 585.73 636.48-637.73 0.71 0.7078-636.48 637.73-0.71-0.708z"/>
<path d="m1587.5 466.73 636.48-637.73 0.71 0.708-636.48 637.73-0.71-0.708z"/>
<path d="m1823.5 703.73 636.48-637.73 0.71 0.7078-636.48 637.73-0.71-0.708z"/>
<path d="m1351.5 230.73 636.48-637.73 0.71 0.708-636.48 637.73-0.71-0.708z"/>
<path d="m1528.5 407.73 636.48-637.73 0.71 0.708-636.48 637.73-0.71-0.708z"/>
<path d="m1764.5 644.73 636.48-637.73 0.71 0.7078-636.48 637.73-0.71-0.708z"/>
<path d="m1292.5 171.73 636.48-637.73 0.71 0.708-636.48 637.73-0.71-0.708z"/>
<path d="m1646.5 526.73 636.48-637.73 0.71 0.708-636.48 637.73-0.71-0.708z"/>
<path d="m1882.5 762.73 636.48-637.73 0.71 0.708-636.48 637.73-0.71-0.708z"/>
<path d="m1410.5 289.73 636.48-637.73 0.71 0.708-636.48 637.73-0.71-0.708z"/>
<path d="m1481.5 360.73 636.48-637.73 0.71 0.708-636.48 637.73-0.71-0.708z"/>
<path d="m1717.5 596.73 636.48-637.73 0.71 0.7078-636.48 637.73-0.71-0.708z"/>
<path d="m1599.5 478.73 636.48-637.73 0.71 0.708-636.48 637.73-0.71-0.708z"/>
<path d="m1835.5 715.73 636.48-637.73 0.71 0.7078-636.48 637.73-0.71-0.708z"/>
<path d="m1363.5 242.73 636.48-637.73 0.71 0.708-636.48 637.73-0.71-0.708z"/>
<path d="m1540.5 419.73 636.48-637.73 0.71 0.708-636.48 637.73-0.71-0.708z"/>
<path d="m1776.5 656.73 636.48-637.73 0.71 0.7078-636.48 637.73-0.71-0.708z"/>
<path d="m1304.5 183.73 636.48-637.73 0.71 0.708-636.48 637.73-0.71-0.708z"/>
<path d="m1658.5 537.73 636.48-637.73 0.71 0.7078-636.48 637.73-0.71-0.708z"/>
<path d="m1894.5 774.73 636.48-637.73 0.71 0.708-636.48 637.73-0.71-0.708z"/>
<path d="m1422.5 301.73 636.48-637.73 0.71 0.708-636.48 637.73-0.71-0.708z"/>
<path d="m1493.5 372.73 636.48-637.73 0.71 0.708-636.48 637.73-0.71-0.708z"/>
<path d="m1729.5 608.73 636.48-637.73 0.71 0.7078-636.48 637.73-0.71-0.708z"/>
<path d="m1611.5 490.73 636.48-637.73 0.71 0.708-636.48 637.73-0.71-0.708z"/>
<path d="m1847.5 726.73 636.48-637.73 0.71 0.7078-636.48 637.73-0.71-0.708z"/>
<path d="m1375.5 254.73 636.48-637.73 0.71 0.708-636.48 637.73-0.71-0.708z"/>
<path d="m1552.5 431.73 636.48-637.73 0.71 0.708-636.48 637.73-0.71-0.708z"/>
<path d="m1788.5 667.73 636.48-637.73 0.71 0.7078-636.48 637.73-0.71-0.708z"/>
<path d="m1316.5 195.73 636.48-637.73 0.71 0.708-636.48 637.73-0.71-0.708z"/>
<path d="m1670.5 549.73 636.48-637.73 0.71 0.7078-636.48 637.73-0.71-0.708z"/>
<path d="m1906.5 786.73 636.48-637.73 0.71 0.708-636.48 637.73-0.71-0.708z"/>
<path d="m1434.5 313.73 636.48-637.73 0.71 0.708-636.48 637.73-0.71-0.708z"/>
<path d="m1505.5 384.73 636.48-637.73 0.71 0.708-636.48 637.73-0.71-0.708z"/>
<path d="m1741.5 620.73 636.48-637.73 0.71 0.7078-636.48 637.73-0.71-0.708z"/>
<path d="m1269.5 147.73 636.48-637.73 0.71 0.708-636.48 637.73-0.71-0.708z"/>
<path d="m1623.5 502.73 636.48-637.73 0.71 0.708-636.48 637.73-0.71-0.708z"/>
<path d="m1858.5 738.73 636.48-637.73 0.71 0.708-636.48 637.73-0.71-0.708z"/>
<path d="m1387.5 265.73 636.48-637.73 0.71 0.708-636.48 637.73-0.71-0.708z"/>
<path d="m1564.5 443.73 636.48-637.73 0.71 0.708-636.48 637.73-0.71-0.708z"/>
<path d="m1800.5 679.73 636.48-637.73 0.71 0.7078-636.48 637.73-0.71-0.708z"/>
<path d="m1328.5 206.73 636.48-637.73 0.71 0.708-636.48 637.73-0.71-0.708z"/>
<path d="m1682.5 561.73 636.48-637.73 0.71 0.7078-636.48 637.73-0.71-0.708z"/>
<path d="m1917.5 797.73 636.48-637.73 0.71 0.708-636.48 637.73-0.71-0.708z"/>
<path d="m1446.5 325.73 636.48-637.73 0.71 0.708-636.48 637.73-0.71-0.708z"/>
<path d="m1516.5 396.73 636.48-637.73 0.71 0.708-636.48 637.73-0.71-0.708z"/>
<path d="m1752.5 632.73 636.48-637.73 0.71 0.7078-636.48 637.73-0.71-0.708z"/>
<path d="m1280.5 159.73 636.48-637.73 0.71 0.708-636.48 637.73-0.71-0.708z"/>
<path d="m1634.5 514.73 636.48-637.73 0.71 0.708-636.48 637.73-0.71-0.708z"/>
<path d="m1870.5 750.73 636.48-637.73 0.71 0.708-636.48 637.73-0.71-0.708z"/>
<path d="m1398.5 277.73 636.48-637.73 0.71 0.708-636.48 637.73-0.71-0.708z"/>
<path d="m1575.5 455.73 636.48-637.73 0.71 0.708-636.48 637.73-0.71-0.708z"/>
<path d="m1811.5 691.73 636.48-637.73 0.71 0.7078-636.48 637.73-0.71-0.708z"/>
<path d="m1339.5 218.73 636.48-637.73 0.71 0.708-636.48 637.73-0.71-0.708z"/>
<path d="m1693.5 573.73 636.48-637.73 0.71 0.7078-636.48 637.73-0.71-0.708z"/>
<path d="m1929.5 809.73 636.48-637.73 0.71 0.708-636.48 637.73-0.71-0.708z"/>
<path d="m1457.5 336.73 636.48-637.73 0.71 0.708-636.48 637.73-0.71-0.708z"/>
<path d="m1587.5-170.79 660.5 661.79-0.71 0.708-660.49-661.79 0.7-0.708z"/>
<path d="m1351.5 65.208 660.5 661.79-0.71 0.708-660.49-661.79 0.7-0.7078z"/>
<path d="m1823.5-407.79 660.5 661.79-0.71 0.708-660.49-661.79 0.7-0.708z"/>
<path d="m1469.5-52.793 660.5 661.79-0.71 0.708-660.49-661.79 0.7-0.7078z"/>
<path d="m1705.5-288.79 660.5 661.79-0.71 0.708-660.49-661.79 0.7-0.707z"/>
<path d="m1528.5-111.79 660.5 661.79-0.71 0.708-660.49-661.79 0.7-0.708z"/>
<path d="m1292.5 124.21 660.5 661.79-0.71 0.708-660.49-661.79 0.7-0.708z"/>
<path d="m1764.5-348.79 660.5 661.79-0.71 0.708-660.49-661.79 0.7-0.707z"/>
<path d="m1410.5 6.2067 660.5 661.79-0.71 0.708-660.49-661.79 0.7-0.7078z"/>
<path d="m1882.5-466.79 660.5 661.79-0.71 0.708-660.49-661.79 0.7-0.708z"/>
<path d="m1646.5-229.79 660.5 661.79-0.71 0.708-660.49-661.79 0.7-0.708z"/>
<path d="m1575.5-159.79 660.5 661.79-0.71 0.708-660.49-661.79 0.7-0.708z"/>
<path d="m1340.5 77.207 660.5 661.79-0.71 0.708-660.49-661.79 0.7-0.7078z"/>
<path d="m1811.5-395.79 660.5 661.79-0.71 0.708-660.49-661.79 0.7-0.708z"/>
<path d="m1458.5-40.793 660.5 661.79-0.71 0.708-660.49-661.79 0.7-0.7078z"/>
<path d="m1693.5-277.79 660.5 661.79-0.71 0.708-660.49-661.79 0.7-0.708z"/>
<path d="m1516.5-99.793 660.5 661.79-0.71 0.708-660.49-661.79 0.7-0.7078z"/>
<path d="m1281.5 136.21 660.5 661.79-0.71 0.708-660.49-661.79 0.7-0.708z"/>
<path d="m1752.5-336.79 660.5 661.79-0.71 0.708-660.49-661.79 0.7-0.708z"/>
<path d="m1399.5 18.207 660.5 661.79-0.71 0.708-660.49-661.79 0.7-0.7078z"/>
<path d="m1870.5-454.79 660.5 661.79-0.71 0.708-660.49-661.79 0.7-0.708z"/>
<path d="m1634.5-218.79 660.5 661.79-0.71 0.708-660.49-661.79 0.7-0.707z"/>
<path d="m1564.5-147.79 660.5 661.79-0.71 0.708-660.49-661.79 0.7-0.708z"/>
<path d="m1328.5 89.207 660.5 661.79-0.71 0.708-660.49-661.79 0.7-0.7078z"/>
<path d="m1799.5-383.79 660.5 661.79-0.71 0.708-660.49-661.79 0.7-0.707z"/>
<path d="m1446.5-29.793 660.5 661.79-0.71 0.708-660.49-661.79 0.7-0.7078z"/>
<path d="m1681.5-265.79 660.5 661.79-0.71 0.708-660.49-661.79 0.7-0.708z"/>
<path d="m1505.5-88.793 660.5 661.79-0.71 0.708-660.49-661.79 0.7-0.7078z"/>
<path d="m1269.5 148.21 660.5 661.79-0.71 0.708-660.49-661.79 0.7-0.708z"/>
<path d="m1740.5-324.79 660.5 661.79-0.71 0.708-660.49-661.79 0.7-0.708z"/>
<path d="m1387.5 29.207 660.5 661.79-0.71 0.708-660.49-661.79 0.7-0.7078z"/>
<path d="m1858.5-442.79 660.5 661.79-0.71 0.708-660.49-661.79 0.7-0.707z"/>
<path d="m1623.5-206.79 660.5 661.79-0.71 0.708-660.49-661.79 0.7-0.708z"/>
<path d="m1552.5-135.79 660.5 661.79-0.71 0.708-660.49-661.79 0.7-0.708z"/>
<path d="m1316.5 100.21 660.5 661.79-0.71 0.708-660.49-661.79 0.7-0.707z"/>
<path d="m1788.5-371.79 660.5 661.79-0.71 0.708-660.49-661.79 0.7-0.708z"/>
<path d="m1434.5-17.793 660.5 661.79-0.71 0.708-660.49-661.79 0.7-0.7078z"/>
<path d="m1905.5-489.79 660.5 661.79-0.71 0.708-660.49-661.79 0.7-0.707z"/>
<path d="m1670.5-253.79 660.5 661.79-0.71 0.708-660.49-661.79 0.7-0.708z"/>
<path d="m1493.5-76.793 660.5 661.79-0.71 0.708-660.49-661.79 0.7-0.7078z"/>
<path d="m1729.5-312.79 660.5 661.79-0.71 0.708-660.49-661.79 0.7-0.707z"/>
<path d="m1375.5 41.207 660.5 661.79-0.71 0.708-660.49-661.79 0.7-0.7078z"/>
<path d="m1847.5-430.79 660.5 661.79-0.71 0.708-660.49-661.79 0.7-0.708z"/>
<path d="m1611.5-194.79 660.5 661.79-0.71 0.708-660.49-661.79 0.7-0.708z"/>
<path d="m1540.5-123.79 660.5 661.79-0.71 0.708-660.49-661.79 0.7-0.708z"/>
<path d="m1304.5 112.21 660.5 661.79-0.71 0.708-660.49-661.79 0.7-0.708z"/>
<path d="m1776.5-359.79 660.5 661.79-0.71 0.708-660.49-661.79 0.7-0.707z"/>
<path d="m1422.5-5.7932 660.5 661.79-0.71 0.708-660.49-661.79 0.7-0.7078z"/>
<path d="m1894.5-477.79 660.5 661.79-0.71 0.708-660.49-661.79 0.7-0.708z"/>
<path d="m1658.5-241.79 660.5 661.79-0.71 0.708-660.49-661.79 0.7-0.707z"/>
<path d="m1481.5-64.793 660.5 661.79-0.71 0.708-660.49-661.79 0.7-0.7078z"/>
<path d="m1717.5-300.79 660.5 661.79-0.71 0.708-660.49-661.79 0.7-0.708z"/>
<path d="m1363.5 53.207 660.5 661.79-0.71 0.708-660.49-661.79 0.7-0.7078z"/>
<path d="m1835.5-418.79 660.5 661.79-0.71 0.708-660.49-661.79 0.7-0.708z"/>
<path d="m1599.5-182.79 660.5 661.79-0.71 0.708-660.49-661.79 0.7-0.707z"/>
</g>
<path d="m1918.2 314.57-33.21-314.57c25.21 0 41.3 7.662 45.98 35.33l25.97 228.16c2.98 26.391 18.74 30.222 34.49 30.222h168.18c23.84 0 29.52 19.297 29.38 28.946v12.344h-246.95c-17.71 0-23.27-13.621-23.84-20.432z" fill="url(#c)"/>
<path d="m2159 423h-695v182h695v-182z" clip-rule="evenodd" fill="url(#b)" fill-rule="evenodd"/>
<mask id="j" x="1432" y="0" width="379" height="423" style="mask-type:alpha" maskUnits="userSpaceOnUse">
<path d="m1730.9 0h80.06v423h-354.3c-19.76 0-24.7-18.724-24.7-28.087v-60.428h249.97l48.97-334.48z" fill="#1E2F93"/>
</mask>
<g clip-rule="evenodd" fill="#0A0555" fill-rule="evenodd" mask="url(#j)">
<path d="m2156 348.59-638.03-637.59-0.71 0.707 638.03 637.59 0.71-0.707z"/>
<path d="m1920 584.59-638.03-637.59-0.71 0.7069 638.03 637.59 0.71-0.707z"/>
<path d="m2038 466.59-638.03-637.59-0.71 0.707 638.03 637.59 0.71-0.707z"/>
<path d="m1802 703.59-638.03-637.59-0.71 0.7069 638.03 637.59 0.71-0.707z"/>
<path d="m2275 230.59-638.03-637.59-0.71 0.707 638.03 637.59 0.71-0.707z"/>
<path d="m2097 407.59-638.03-637.59-0.71 0.707 638.03 637.59 0.71-0.707z"/>
<path d="m1861 644.59-638.03-637.59-0.71 0.70687 638.03 637.59 0.71-0.707z"/>
<path d="m2334 171.59-638.03-637.59-0.71 0.707 638.03 637.59 0.71-0.707z"/>
<path d="m1979 525.59-638.03-637.59-0.71 0.707 638.03 637.59 0.71-0.707z"/>
<path d="m1742 762.59-638.03-637.59-0.71 0.707 638.03 637.59 0.71-0.707z"/>
<path d="m2215 289.59-638.03-637.59-0.71 0.707 638.03 637.59 0.71-0.707z"/>
<path d="m2144 360.59-638.03-637.59-0.71 0.707 638.03 637.59 0.71-0.707z"/>
<path d="m1908 596.59-638.03-637.59-0.71 0.7069 638.03 637.59 0.71-0.707z"/>
<path d="m2026 478.59-638.03-637.59-0.71 0.707 638.03 637.59 0.71-0.707z"/>
<path d="m1790 714.59-638.03-637.59-0.71 0.7069 638.03 637.59 0.71-0.707z"/>
<path d="m2263 242.59-638.03-637.59-0.71 0.707 638.03 637.59 0.71-0.707z"/>
<path d="m2085 419.59-638.03-637.59-0.71 0.707 638.03 637.59 0.71-0.707z"/>
<path d="m1849 655.59-638.03-637.59-0.71 0.7069 638.03 637.59 0.71-0.707z"/>
<path d="m2322 183.59-638.03-637.59-0.71 0.707 638.03 637.59 0.71-0.707z"/>
<path d="m1967 537.59-638.03-637.59-0.71 0.7069 638.03 637.59 0.71-0.707z"/>
<path d="m1731 774.59-638.03-637.59-0.71 0.707 638.03 637.59 0.71-0.707z"/>
<path d="m2204 301.59-638.03-637.59-0.71 0.707 638.03 637.59 0.71-0.707z"/>
<path d="m2133 372.59-638.03-637.59-0.71 0.707 638.03 637.59 0.71-0.706z"/>
<path d="m1896 608.59-638.03-637.59-0.71 0.7069 638.03 637.59 0.71-0.707z"/>
<path d="m2014 490.59-638.03-637.59-0.71 0.707 638.03 637.59 0.71-0.707z"/>
<path d="m1778 726.59-638.03-637.59-0.71 0.7069 638.03 637.59 0.71-0.707z"/>
<path d="m2251 254.59-638.03-637.59-0.71 0.707 638.03 637.59 0.71-0.707z"/>
<path d="m2074 431.59-638.03-637.59-0.71 0.707 638.03 637.59 0.71-0.706z"/>
<path d="m1837 667.59-638.03-637.59-0.71 0.7069 638.03 637.59 0.71-0.707z"/>
<path d="m2310 195.59-638.03-637.59-0.71 0.707 638.03 637.59 0.71-0.706z"/>
<path d="m1955 549.59-638.03-637.59-0.71 0.7069 638.03 637.59 0.71-0.707z"/>
<path d="m1719 785.59-638.03-637.59-0.71 0.707 638.03 637.59 0.71-0.707z"/>
<path d="m2192 313.59-638.03-637.59-0.71 0.707 638.03 637.59 0.71-0.707z"/>
<path d="m2121 384.59-638.03-637.59-0.71 0.707 638.03 637.59 0.71-0.707z"/>
<path d="m1884 620.59-638.03-637.59-0.71 0.7069 638.03 637.59 0.71-0.707z"/>
<path d="m2357 147.6-638.03-637.59-0.71 0.707 638.03 637.59 0.71-0.707z"/>
<path d="m2003 502.6-638.03-637.59-0.71 0.707 638.03 637.59 0.71-0.706z"/>
<path d="m1766 738.6-638.03-637.59-0.71 0.707 638.03 637.59 0.71-0.706z"/>
<path d="m2239 265.59-638.03-637.59-0.71 0.707 638.03 637.59 0.71-0.707z"/>
<path d="m2062 443.6-638.03-637.59-0.71 0.707 638.03 637.59 0.71-0.707z"/>
<path d="m1825 679.6-638.03-637.59-0.71 0.7068 638.03 637.59 0.71-0.707z"/>
<path d="m2298 206.6-638.03-637.59-0.71 0.707 638.03 637.59 0.71-0.707z"/>
<path d="m1943 561.6-638.03-637.59-0.71 0.7068 638.03 637.59 0.71-0.707z"/>
<path d="m1707 797.6-638.03-637.59-0.71 0.707 638.03 637.59 0.71-0.706z"/>
<path d="m2180 325.59-638.03-637.59-0.71 0.707 638.03 637.59 0.71-0.707z"/>
<path d="m2109 395.6-638.03-637.59-0.71 0.707 638.03 637.59 0.71-0.706z"/>
<path d="m1873 632.6-638.03-637.59-0.71 0.70686 638.03 637.59 0.71-0.706z"/>
<path d="m2345 159.6-638.03-637.59-0.71 0.707 638.03 637.59 0.71-0.707z"/>
<path d="m1991 514.6-638.03-637.59-0.71 0.707 638.03 637.59 0.71-0.706z"/>
<path d="m1754 750.6-638.03-637.59-0.71 0.707 638.03 637.59 0.71-0.707z"/>
<path d="m2227 277.59-638.03-637.59-0.71 0.707 638.03 637.59 0.71-0.707z"/>
<path d="m2050 455.6-638.03-637.59-0.71 0.707 638.03 637.59 0.71-0.706z"/>
<path d="m1813 691.6-638.03-637.59-0.71 0.7068 638.03 637.59 0.71-0.706z"/>
<path d="m2286 218.6-638.03-637.59-0.71 0.707 638.03 637.59 0.71-0.707z"/>
<path d="m1932 573.6-638.03-637.59-0.71 0.7068 638.03 637.59 0.71-0.707z"/>
<path d="m1695 809.6-638.03-637.59-0.71 0.707 638.03 637.59 0.71-0.707z"/>
<path d="m2168 336.6-638.03-637.59-0.71 0.707 638.03 637.59 0.71-0.706z"/>
<path d="m2038.1-171.63-662.08 661.63 0.71 0.707 662.07-661.63-0.7-0.707z"/>
<path d="m2274.1 65.374-662.08 661.63 0.71 0.707 662.07-661.63-0.7-0.7068z"/>
<path d="m1802.1-407.63-662.08 661.63 0.71 0.707 662.07-661.63-0.7-0.707z"/>
<path d="m2156.1-52.627-662.08 661.63 0.71 0.707 662.07-661.63-0.7-0.7069z"/>
<path d="m1920.1-289.63-662.08 661.63 0.71 0.707 662.07-661.63-0.7-0.707z"/>
<path d="m2097.1-112.63-662.08 661.63 0.71 0.707 662.07-661.63-0.7-0.707z"/>
<path d="m2333.1 124.37-662.08 661.63 0.71 0.707 662.07-661.63-0.7-0.707z"/>
<path d="m1861.1-348.63-662.08 661.63 0.71 0.707 662.07-661.63-0.7-0.707z"/>
<path d="m2215.1 6.373-662.08 661.63 0.71 0.707 662.07-661.63-0.7-0.70687z"/>
<path d="m1743.1-466.63-662.08 661.63 0.71 0.707 662.07-661.63-0.7-0.707z"/>
<path d="m1979.1-230.63-662.08 661.63 0.71 0.707 662.07-661.63-0.7-0.707z"/>
<path d="m2050.1-159.63-662.08 661.63 0.71 0.707 662.07-661.63-0.7-0.707z"/>
<path d="m2286.1 76.374-662.08 661.63 0.71 0.707 662.07-661.63-0.7-0.7069z"/>
<path d="m1813.1-395.63-662.08 661.63 0.71 0.707 662.07-661.63-0.7-0.707z"/>
<path d="m2168.1-41.626-662.08 661.63 0.71 0.707 662.07-661.63-0.7-0.7069z"/>
<path d="m1932.1-277.63-662.08 661.63 0.71 0.707 662.07-661.63-0.7-0.707z"/>
<path d="m2109.1-100.63-662.08 661.63 0.71 0.707 662.07-661.63-0.7-0.7067z"/>
<path d="m2345.1 135.37-662.08 661.63 0.71 0.707 662.07-661.63-0.7-0.707z"/>
<path d="m1873.1-336.63-662.08 661.63 0.71 0.707 662.07-661.63-0.7-0.707z"/>
<path d="m2227.1 17.374-662.08 661.63 0.71 0.707 662.07-661.63-0.7-0.7069z"/>
<path d="m1754.1-454.63-662.08 661.63 0.71 0.707 662.07-661.63-0.7-0.707z"/>
<path d="m1991.1-218.63-662.08 661.63 0.71 0.707 662.07-661.63-0.7-0.707z"/>
<path d="m2062.1-147.63-662.08 661.63 0.71 0.707 662.07-661.63-0.7-0.707z"/>
<path d="m2298.1 88.374-662.08 661.63 0.71 0.707 662.07-661.63-0.7-0.7068z"/>
<path d="m1825.1-383.63-662.08 661.63 0.71 0.707 662.07-661.63-0.7-0.707z"/>
<path d="m2180.1-29.626-662.08 661.63 0.71 0.707 662.07-661.63-0.7-0.7068z"/>
<path d="m1943.1-265.63-662.08 661.63 0.71 0.707 662.07-661.63-0.7-0.707z"/>
<path d="m2121.1-88.626-662.08 661.63 0.71 0.707 662.07-661.63-0.7-0.7069z"/>
<path d="m2357.1 147.37-662.08 661.63 0.71 0.707 662.07-661.63-0.7-0.707z"/>
<path d="m1884.1-324.63-662.08 661.63 0.71 0.707 662.07-661.63-0.7-0.707z"/>
<path d="m2239.1 29.374-662.08 661.63 0.71 0.707 662.07-661.63-0.7-0.7069z"/>
<path d="m1766.1-442.63-662.08 661.63 0.71 0.707 662.07-661.63-0.7-0.707z"/>
<path d="m2003.1-206.63-662.08 661.63 0.71 0.707 662.07-661.63-0.7-0.707z"/>
<path d="m2073.1-135.63-662.08 661.63 0.71 0.707 662.07-661.63-0.7-0.707z"/>
<path d="m2310.1 100.37-662.08 661.63 0.71 0.707 662.07-661.63-0.7-0.707z"/>
<path d="m1837.1-371.63-662.08 661.63 0.71 0.707 662.07-661.63-0.7-0.707z"/>
<path d="m2192.1-17.626-662.08 661.63 0.71 0.707 662.07-661.63-0.7-0.7069z"/>
<path d="m1719.1-489.63-662.08 661.63 0.71 0.707 662.07-661.63-0.7-0.707z"/>
<path d="m1955.1-253.63-662.08 661.63 0.71 0.707 662.07-661.63-0.7-0.707z"/>
<path d="m2133.1-76.627-662.08 661.63 0.71 0.707 662.07-661.63-0.7-0.7069z"/>
<path d="m1896.1-312.63-662.08 661.63 0.71 0.707 662.07-661.63-0.7-0.707z"/>
<path d="m2251.1 41.373-662.08 661.63 0.71 0.707 662.07-661.63-0.7-0.7068z"/>
<path d="m1778.1-430.63-662.08 661.63 0.71 0.707 662.07-661.63-0.7-0.707z"/>
<path d="m2014.1-194.63-662.08 661.63 0.71 0.707 662.07-661.63-0.7-0.707z"/>
<path d="m2085.1-123.63-662.08 661.63 0.71 0.707 662.07-661.63-0.7-0.707z"/>
<path d="m2322.1 112.37-662.08 661.63 0.71 0.707 662.07-661.63-0.7-0.707z"/>
<path d="m1849.1-360.63-662.08 661.63 0.71 0.707 662.07-661.63-0.7-0.707z"/>
<path d="m2203.1-5.6272-662.08 661.63 0.71 0.707 662.07-661.63-0.7-0.70686z"/>
<path d="m1731.1-478.63-662.08 661.63 0.71 0.707 662.07-661.63-0.7-0.707z"/>
<path d="m1967.1-241.63-662.08 661.63 0.71 0.707 662.07-661.63-0.7-0.707z"/>
<path d="m2144.1-64.627-662.08 661.63 0.71 0.707 662.07-661.63-0.7-0.7068z"/>
<path d="m1908.1-300.63-662.08 661.63 0.71 0.707 662.07-661.63-0.7-0.707z"/>
<path d="m2263.1 53.373-662.08 661.63 0.71 0.707 662.07-661.63-0.7-0.7068z"/>
<path d="m1790.1-419.63-662.08 661.63 0.71 0.707 662.07-661.63-0.7-0.707z"/>
<path d="m2026.1-182.63-662.08 661.63 0.71 0.707 662.07-661.63-0.7-0.707z"/>
</g>
<path d="m1702.8 314.57 33.21-314.57c-25.21 0-41.3 7.662-45.98 35.33l-25.97 228.16c-2.98 26.391-18.74 30.222-34.49 30.222h-168.18c-23.84 0-29.52 19.297-29.38 28.946v12.344h246.95c17.71 0 23.27-13.621 23.84-20.432z" fill="url(#a)"/>
<defs>
<linearGradient id="i" x1="1095" x2="1095" y1="134" y2="610" gradientUnits="userSpaceOnUse">
<stop stop-color="#3E64C8" offset="0"/>
<stop stop-color="#1A1C86" offset="1"/>
</linearGradient>
<linearGradient id="h" x1="189.5" x2="189.5" y2="423" gradientUnits="userSpaceOnUse">
<stop stop-color="#375CE2" offset="0"/>
<stop stop-color="#1B32A4" offset="1"/>
</linearGradient>
<linearGradient id="g" x1="194.75" x2="194.75" y1="423" y2="612" gradientUnits="userSpaceOnUse">
<stop stop-color="#2836B0" offset="0"/>
<stop stop-color="#0B187D" offset="1"/>
</linearGradient>
<linearGradient id="f" x1="605" x2="605" y2="335" gradientUnits="userSpaceOnUse">
<stop stop-color="#4B77EA" offset="0"/>
<stop stop-color="#284EB0" offset="1"/>
</linearGradient>
<linearGradient id="e" x1="151.5" x2="151.5" y2="335" gradientUnits="userSpaceOnUse">
<stop stop-color="#4975E7" offset="0"/>
<stop stop-color="#284EB0" offset="1"/>
</linearGradient>
<linearGradient id="d" x1="1621.2" x2="1621.2" y2="423" gradientUnits="userSpaceOnUse">
<stop stop-color="#375CE2" offset="0"/>
<stop stop-color="#172C9C" offset="1"/>
</linearGradient>
<linearGradient id="c" x1="2037" x2="2037" y2="335" gradientUnits="userSpaceOnUse">
<stop stop-color="#507AE9" offset="0"/>
<stop stop-color="#284EB0" offset="1"/>
</linearGradient>
<linearGradient id="b" x1="1637.8" x2="1637.8" y1="423" y2="605" gradientUnits="userSpaceOnUse">
<stop stop-color="#2846B0" offset="0"/>
<stop stop-color="#091B93" offset="1"/>
</linearGradient>
<linearGradient id="a" x1="1584" x2="1584" y2="335" gradientUnits="userSpaceOnUse">
<stop stop-color="#507AE9" offset="0"/>
<stop stop-color="#284EB0" offset="1"/>
</linearGradient>
</defs>
</svg>
