<?xml version="1.0" encoding="UTF-8"?>
<svg width="1440px" height="1026px" viewBox="0 0 1440 1026" version="1.1" xmlns="http://www.w3.org/2000/svg" xmlns:xlink="http://www.w3.org/1999/xlink">
    <title>2B8BDAFA-1EC0-4B14-BE75-A6B2C33F2E7B</title>
    <defs>
        <!-- <linearGradient x1="100%" y1="37.9700211%" x2="0%" y2="38.4019308%" id="linearGradient-1">
            <stop stop-color="#FFFFFF" stop-opacity="0" offset="0%"></stop>
            <stop stop-color="#EAEAEA" stop-opacity="0.7" offset="6.09731042%"></stop>
            <stop stop-color="#E3E3E3" offset="9.21075505%"></stop>
            <stop stop-color="#323030" offset="88.399863%"></stop>
            <stop stop-color="#2C2A2A" stop-opacity="0.7" offset="93.5225238%"></stop>
            <stop stop-color="#161313" stop-opacity="0" offset="100%"></stop>
        </linearGradient> -->
        <rect id="path-2" x="0" y="0.382190481" width="1440" height="1024"></rect>
        <linearGradient x1="50%" y1="0%" x2="50%" y2="100%" id="linearGradient-4">
            <stop stop-color="#12D0E1" offset="0%"></stop>
            <stop stop-color="#2B8BF8" offset="100%"></stop>
        </linearGradient>
    </defs>
    <g id="Design-" stroke="none" stroke-width="1" fill="none" fill-rule="evenodd">
        <g id="Group-44">
            <g id="Mask" transform="translate(-0.000000, 0.617810)">
                <mask id="mask-3" fill="white">
                    <use xlink:href="#path-2"></use>
                </mask>
                <use fill="url(#linearGradient-1)" xlink:href="#path-2"></use>
                <path d="M1440,1023.36918 L1254.85649,1023.36918 L9.09494702e-13,1023.36918 C9.09494702e-13,1023.36918 9.09494702e-13,1013.5277 9.09494702e-13,1013.5277 C19.2888794,1008.90917 110.446683,1007.70635 135,1007.49209 L225.320161,1008.90917 C233.666267,1009.21861 247.279061,1009.98499 255.569408,1010.61256 L294.05831,1013.5277 C302.348657,1014.15526 315.81445,1013.82702 323.980606,1012.79746 L362.923184,1007.88685 C371.08934,1006.85585 383.756767,1004.12146 391.071331,1001.80786 L433.105998,988.51622 C440.423097,986.201173 453.209644,984.739266 461.522801,985.268502 L499.933134,987.700676 C508.243757,988.228466 520.695751,986.455669 527.597192,983.76177 L571.132282,966.771261 C578.036257,964.075915 588.123564,958.900679 593.549926,955.269771 L642.45562,922.545327 C647.881982,918.914419 657.73358,918.331681 664.351157,921.251157 L708.930461,940.925443 C715.545504,943.844919 727.761789,945.805696 736.074946,945.280797 L774.482745,942.858746 C782.795902,942.335294 796.172988,942.985994 804.209884,944.304747 L843.621345,950.772708 C851.658241,952.091461 864.847774,952.168099 872.932826,950.940444 L912.17701,944.984367 C920.259527,943.758159 932.688711,944.813739 939.790377,947.32978 L982.590463,962.492544 C989.697198,965.010032 1002.27338,966.471939 1010.54092,965.740262 L1049.12106,962.329146 C1057.38606,961.598916 1070.98619,960.829644 1079.34243,960.621419 L1117.59562,959.665613 C1125.95187,959.455943 1133.62633,955.410033 1134.65027,950.67438 L1199.56132,650.721766 C1200.58526,645.986114 1202.07048,638.223982 1202.85871,633.473869 L1268.62896,237.435951 C1311.52234,56.1987798 1440,70.608942 1440,75.3821905 L1440,1023.36918 Z" fill="url(#linearGradient-4)" mask="url(#mask-3)"></path>
            </g>
            <!-- <g id="Y-lines" transform="translate(135.000000, 1.000000)" stroke="#28B1E8" stroke-opacity="0.4" stroke-width="0.5">
                <line x1="69.5419611" y1="1023" x2="69.5419611" y2="2" id="Stroke-4"></line>
                <line x1="139.57023" y1="1023" x2="139.57023" y2="2" id="Stroke-5"></line>
                <line x1="207.653269" y1="1023" x2="207.653269" y2="2" id="Stroke-6"></line>
                <line x1="275.736307" y1="1023" x2="275.736307" y2="2" id="Stroke-7"></line>
                <line x1="344.791961" y1="1023" x2="344.791961" y2="2" id="Stroke-8"></line>
                <line x1="413.847615" y1="1023" x2="413.847615" y2="2" id="Stroke-9"></line>
                <line x1="482.903269" y1="1023" x2="482.903269" y2="2" id="Stroke-10"></line>
                <line x1="550.986307" y1="1023" x2="550.986307" y2="2" id="Stroke-11"></line>
                <line x1="619.069346" y1="1023" x2="619.069346" y2="2" id="Stroke-12"></line>
                <line x1="689.097615" y1="1023" x2="689.097615" y2="2" id="Stroke-13"></line>
                <line x1="757.180654" y1="1023" x2="757.180654" y2="2" id="Stroke-14"></line>
                <line x1="825.263693" y1="1023" x2="825.263693" y2="2" id="Stroke-15"></line>
                <line x1="893.346731" y1="1023" x2="893.346731" y2="2" id="Stroke-16"></line>
                <line x1="963.375" y1="1023" x2="963.375" y2="2" id="Stroke-17"></line>
                <line x1="1031.45804" y1="1023" x2="1031.45804" y2="2" id="Stroke-18"></line>
                <line x1="1099.54108" y1="1023" x2="1099.54108" y2="2" id="Stroke-19"></line>
                <line x1="1169.54108" y1="1023" x2="1169.54108" y2="2" id="Stroke-19"></line>
                <line x1="1.45892226" y1="1023" x2="1.45892226" y2="-2.27373675e-13" id="Stroke-25"></line>
            </g> -->
        </g>
    </g>
</svg>